%TF.GenerationSoftware,KiCad,Pcbnew,7.0.6*%
%TF.CreationDate,2023-11-23T12:57:34+01:00*%
%TF.ProjectId,ledpanel,6c656470-616e-4656-9c2e-6b696361645f,1*%
%TF.SameCoordinates,Original*%
%TF.FileFunction,Legend,Bot*%
%TF.FilePolarity,Positive*%
%FSLAX46Y46*%
G04 Gerber Fmt 4.6, Leading zero omitted, Abs format (unit mm)*
G04 Created by KiCad (PCBNEW 7.0.6) date 2023-11-23 12:57:34*
%MOMM*%
%LPD*%
G01*
G04 APERTURE LIST*
%ADD10C,0.150000*%
%ADD11C,0.120000*%
G04 APERTURE END LIST*
D10*
X153324819Y-105850476D02*
X154039104Y-105850476D01*
X154039104Y-105850476D02*
X154181961Y-105802857D01*
X154181961Y-105802857D02*
X154277200Y-105707619D01*
X154277200Y-105707619D02*
X154324819Y-105564762D01*
X154324819Y-105564762D02*
X154324819Y-105469524D01*
X153420057Y-106279048D02*
X153372438Y-106326667D01*
X153372438Y-106326667D02*
X153324819Y-106421905D01*
X153324819Y-106421905D02*
X153324819Y-106660000D01*
X153324819Y-106660000D02*
X153372438Y-106755238D01*
X153372438Y-106755238D02*
X153420057Y-106802857D01*
X153420057Y-106802857D02*
X153515295Y-106850476D01*
X153515295Y-106850476D02*
X153610533Y-106850476D01*
X153610533Y-106850476D02*
X153753390Y-106802857D01*
X153753390Y-106802857D02*
X154324819Y-106231429D01*
X154324819Y-106231429D02*
X154324819Y-106850476D01*
X153324819Y-107469524D02*
X153324819Y-107564762D01*
X153324819Y-107564762D02*
X153372438Y-107660000D01*
X153372438Y-107660000D02*
X153420057Y-107707619D01*
X153420057Y-107707619D02*
X153515295Y-107755238D01*
X153515295Y-107755238D02*
X153705771Y-107802857D01*
X153705771Y-107802857D02*
X153943866Y-107802857D01*
X153943866Y-107802857D02*
X154134342Y-107755238D01*
X154134342Y-107755238D02*
X154229580Y-107707619D01*
X154229580Y-107707619D02*
X154277200Y-107660000D01*
X154277200Y-107660000D02*
X154324819Y-107564762D01*
X154324819Y-107564762D02*
X154324819Y-107469524D01*
X154324819Y-107469524D02*
X154277200Y-107374286D01*
X154277200Y-107374286D02*
X154229580Y-107326667D01*
X154229580Y-107326667D02*
X154134342Y-107279048D01*
X154134342Y-107279048D02*
X153943866Y-107231429D01*
X153943866Y-107231429D02*
X153705771Y-107231429D01*
X153705771Y-107231429D02*
X153515295Y-107279048D01*
X153515295Y-107279048D02*
X153420057Y-107326667D01*
X153420057Y-107326667D02*
X153372438Y-107374286D01*
X153372438Y-107374286D02*
X153324819Y-107469524D01*
D11*
%TO.C,J20*%
X139610000Y-109260000D02*
X139610000Y-104060000D01*
X152430000Y-109260000D02*
X139610000Y-109260000D01*
X152430000Y-109260000D02*
X152430000Y-106660000D01*
X149830000Y-106660000D02*
X149830000Y-104060000D01*
X152430000Y-106660000D02*
X149830000Y-106660000D01*
X152430000Y-105390000D02*
X152430000Y-104060000D01*
X149830000Y-104060000D02*
X139610000Y-104060000D01*
X152430000Y-104060000D02*
X151100000Y-104060000D01*
%TD*%
M02*
