M48
; DRILL file {KiCad 7.0.6} date Thu Nov 23 12:57:31 2023
; FORMAT={-:-/ absolute / inch / decimal}
; #@! TF.CreationDate,2023-11-23T12:57:31+01:00
; #@! TF.GenerationSoftware,Kicad,Pcbnew,7.0.6
; #@! TF.FileFunction,Plated,1,2,PTH
FMAT,2
INCH
; #@! TA.AperFunction,Plated,PTH,ComponentDrill
T1C0.0197
; #@! TA.AperFunction,Plated,PTH,ComponentDrill
T2C0.0354
; #@! TA.AperFunction,Plated,PTH,ComponentDrill
T3C0.0394
; #@! TA.AperFunction,Plated,PTH,ComponentDrill
T4C0.1260
%
G90
G05
T1
X4.6055Y-4.0
X4.6332Y-3.9332
X4.6332Y-4.0668
X4.7Y-3.9055
X4.7Y-4.0945
X4.7668Y-3.9332
X4.7668Y-4.0668
X4.7945Y-4.0
X6.7055Y-4.0
X6.7332Y-3.9332
X6.7332Y-4.0668
X6.8Y-3.9055
X6.8Y-4.0945
X6.8668Y-3.9332
X6.8668Y-4.0668
X6.8945Y-4.0
T2
X4.1498Y-3.9
X4.2498Y-3.9
X5.1498Y-3.9
X5.2498Y-3.9
X6.1498Y-3.9
X6.2498Y-3.9
X7.1498Y-3.9
X7.2498Y-3.9
T3
X5.5488Y-4.1492
X5.5488Y-4.2492
X5.6488Y-4.1492
X5.6488Y-4.2492
X5.7488Y-4.1492
X5.7488Y-4.2492
X5.8488Y-4.1492
X5.8488Y-4.2492
X5.9488Y-4.1492
X5.9488Y-4.2492
T4
X4.7Y-4.0
X6.8Y-4.0
T0
M30
