%TF.GenerationSoftware,KiCad,Pcbnew,7.0.6*%
%TF.CreationDate,2023-11-23T12:57:34+01:00*%
%TF.ProjectId,ledpanel,6c656470-616e-4656-9c2e-6b696361645f,1*%
%TF.SameCoordinates,Original*%
%TF.FileFunction,Copper,L1,Top*%
%TF.FilePolarity,Positive*%
%FSLAX46Y46*%
G04 Gerber Fmt 4.6, Leading zero omitted, Abs format (unit mm)*
G04 Created by KiCad (PCBNEW 7.0.6) date 2023-11-23 12:57:34*
%MOMM*%
%LPD*%
G01*
G04 APERTURE LIST*
G04 Aperture macros list*
%AMRoundRect*
0 Rectangle with rounded corners*
0 $1 Rounding radius*
0 $2 $3 $4 $5 $6 $7 $8 $9 X,Y pos of 4 corners*
0 Add a 4 corners polygon primitive as box body*
4,1,4,$2,$3,$4,$5,$6,$7,$8,$9,$2,$3,0*
0 Add four circle primitives for the rounded corners*
1,1,$1+$1,$2,$3*
1,1,$1+$1,$4,$5*
1,1,$1+$1,$6,$7*
1,1,$1+$1,$8,$9*
0 Add four rect primitives between the rounded corners*
20,1,$1+$1,$2,$3,$4,$5,0*
20,1,$1+$1,$4,$5,$6,$7,0*
20,1,$1+$1,$6,$7,$8,$9,0*
20,1,$1+$1,$8,$9,$2,$3,0*%
G04 Aperture macros list end*
%TA.AperFunction,SMDPad,CuDef*%
%ADD10RoundRect,0.250000X0.450000X-0.262500X0.450000X0.262500X-0.450000X0.262500X-0.450000X-0.262500X0*%
%TD*%
%TA.AperFunction,ComponentPad*%
%ADD11C,0.800000*%
%TD*%
%TA.AperFunction,ComponentPad*%
%ADD12C,6.400000*%
%TD*%
%TA.AperFunction,ComponentPad*%
%ADD13R,1.800000X1.800000*%
%TD*%
%TA.AperFunction,ComponentPad*%
%ADD14C,1.800000*%
%TD*%
%TA.AperFunction,ComponentPad*%
%ADD15R,1.700000X1.700000*%
%TD*%
%TA.AperFunction,ComponentPad*%
%ADD16O,1.700000X1.700000*%
%TD*%
%TA.AperFunction,SMDPad,CuDef*%
%ADD17RoundRect,0.250000X-0.450000X0.262500X-0.450000X-0.262500X0.450000X-0.262500X0.450000X0.262500X0*%
%TD*%
%TA.AperFunction,Conductor*%
%ADD18C,0.250000*%
%TD*%
G04 APERTURE END LIST*
D10*
%TO.P,R5,1*%
%TO.N,N/C*%
X107950000Y-107592500D03*
%TO.P,R5,2*%
X107950000Y-105767500D03*
%TD*%
D11*
%TO.P,REF\u002A\u002A,1*%
%TO.N,N/C*%
X116980000Y-101600000D03*
X117682944Y-99902944D03*
X117682944Y-103297056D03*
X119380000Y-99200000D03*
D12*
X119380000Y-101600000D03*
D11*
X119380000Y-104000000D03*
X121077056Y-99902944D03*
X121077056Y-103297056D03*
X121780000Y-101600000D03*
%TD*%
D10*
%TO.P,R3,1*%
%TO.N,N/C*%
X158750000Y-107592500D03*
%TO.P,R3,2*%
X158750000Y-105767500D03*
%TD*%
D13*
%TO.P,D1,1,K*%
%TO.N,N/C*%
X105405000Y-99060000D03*
D14*
%TO.P,D1,2,A*%
X107945000Y-99060000D03*
%TD*%
D15*
%TO.P,J20,1,Pin_1*%
%TO.N,N/C*%
X151100000Y-105390000D03*
D16*
%TO.P,J20,2,Pin_2*%
X151100000Y-107930000D03*
%TO.P,J20,3,Pin_3*%
X148560000Y-105390000D03*
%TO.P,J20,4,Pin_4*%
X148560000Y-107930000D03*
%TO.P,J20,5,Pin_5*%
X146020000Y-105390000D03*
%TO.P,J20,6,Pin_6*%
X146020000Y-107930000D03*
%TO.P,J20,7,Pin_7*%
X143480000Y-105390000D03*
%TO.P,J20,8,Pin_8*%
X143480000Y-107930000D03*
%TO.P,J20,9,Pin_9*%
X140940000Y-105390000D03*
%TO.P,J20,10,Pin_10*%
X140940000Y-107930000D03*
%TD*%
D17*
%TO.P,R1,1*%
%TO.N,N/C*%
X184150000Y-105767500D03*
%TO.P,R1,2*%
X184150000Y-107592500D03*
%TD*%
D13*
%TO.P,D3,1,K*%
%TO.N,N/C*%
X156205000Y-99060000D03*
D14*
%TO.P,D3,2,A*%
X158745000Y-99060000D03*
%TD*%
D13*
%TO.P,D4,1,K*%
%TO.N,N/C*%
X181605000Y-99060000D03*
D14*
%TO.P,D4,2,A*%
X184145000Y-99060000D03*
%TD*%
D11*
%TO.P,REF\u002A\u002A,1*%
%TO.N,N/C*%
X170320000Y-101600000D03*
X171022944Y-99902944D03*
X171022944Y-103297056D03*
X172720000Y-99200000D03*
D12*
X172720000Y-101600000D03*
D11*
X172720000Y-104000000D03*
X174417056Y-99902944D03*
X174417056Y-103297056D03*
X175120000Y-101600000D03*
%TD*%
D10*
%TO.P,R4,1*%
%TO.N,N/C*%
X133350000Y-107592500D03*
%TO.P,R4,2*%
X133350000Y-105767500D03*
%TD*%
D13*
%TO.P,D2,1,K*%
%TO.N,N/C*%
X130805000Y-99060000D03*
D14*
%TO.P,D2,2,A*%
X133345000Y-99060000D03*
%TD*%
D18*
%TO.N,*%
X150547000Y-106755000D02*
X149372000Y-107930000D01*
X183312500Y-108430000D02*
X153261701Y-108430000D01*
X158750000Y-107592500D02*
X157884500Y-107592500D01*
X153261701Y-108430000D02*
X151586701Y-106755000D01*
X151100000Y-109758000D02*
X151100000Y-107930000D01*
X107950000Y-107592500D02*
X108787500Y-106755000D01*
X133350000Y-107592500D02*
X136040500Y-107592500D01*
X184150000Y-107592500D02*
X183312500Y-108430000D01*
X149372000Y-107930000D02*
X148560000Y-107930000D01*
X138938000Y-110490000D02*
X150368000Y-110490000D01*
X149352000Y-102616000D02*
X148560000Y-103408000D01*
X152908000Y-102616000D02*
X149352000Y-102616000D01*
X148560000Y-103408000D02*
X148560000Y-105390000D01*
X108787500Y-106755000D02*
X149735000Y-106755000D01*
X149735000Y-106755000D02*
X151100000Y-105390000D01*
X157884500Y-107592500D02*
X152908000Y-102616000D01*
X136040500Y-107592500D02*
X138938000Y-110490000D01*
X151586701Y-106755000D02*
X150547000Y-106755000D01*
X150368000Y-110490000D02*
X151100000Y-109758000D01*
X133345000Y-105762500D02*
X133345000Y-99060000D01*
X133350000Y-105767500D02*
X133345000Y-105762500D01*
X107950000Y-105767500D02*
X107945000Y-105762500D01*
X184150000Y-105767500D02*
X184145000Y-105762500D01*
X158745000Y-105762500D02*
X158750000Y-105767500D01*
X184145000Y-105762500D02*
X184145000Y-99060000D01*
X158745000Y-99060000D02*
X158745000Y-105762500D01*
X107945000Y-105762500D02*
X107945000Y-99060000D01*
%TD*%
M02*
