%TF.GenerationSoftware,KiCad,Pcbnew,7.0.6*%
%TF.CreationDate,2023-11-23T12:57:34+01:00*%
%TF.ProjectId,ledpanel,6c656470-616e-4656-9c2e-6b696361645f,1*%
%TF.SameCoordinates,Original*%
%TF.FileFunction,Copper,L2,Bot*%
%TF.FilePolarity,Positive*%
%FSLAX46Y46*%
G04 Gerber Fmt 4.6, Leading zero omitted, Abs format (unit mm)*
G04 Created by KiCad (PCBNEW 7.0.6) date 2023-11-23 12:57:34*
%MOMM*%
%LPD*%
G01*
G04 APERTURE LIST*
%TA.AperFunction,ComponentPad*%
%ADD10C,0.800000*%
%TD*%
%TA.AperFunction,ComponentPad*%
%ADD11C,6.400000*%
%TD*%
%TA.AperFunction,ComponentPad*%
%ADD12R,1.800000X1.800000*%
%TD*%
%TA.AperFunction,ComponentPad*%
%ADD13C,1.800000*%
%TD*%
%TA.AperFunction,ComponentPad*%
%ADD14R,1.700000X1.700000*%
%TD*%
%TA.AperFunction,ComponentPad*%
%ADD15O,1.700000X1.700000*%
%TD*%
G04 APERTURE END LIST*
D10*
%TO.P,REF\u002A\u002A,1*%
%TO.N,N/C*%
X116980000Y-101600000D03*
X117682944Y-99902944D03*
X117682944Y-103297056D03*
X119380000Y-99200000D03*
D11*
X119380000Y-101600000D03*
D10*
X119380000Y-104000000D03*
X121077056Y-99902944D03*
X121077056Y-103297056D03*
X121780000Y-101600000D03*
%TD*%
D12*
%TO.P,D1,1,K*%
%TO.N,N/C*%
X105405000Y-99060000D03*
D13*
%TO.P,D1,2,A*%
X107945000Y-99060000D03*
%TD*%
D14*
%TO.P,J20,1,Pin_1*%
%TO.N,N/C*%
X151100000Y-105390000D03*
D15*
%TO.P,J20,2,Pin_2*%
X151100000Y-107930000D03*
%TO.P,J20,3,Pin_3*%
X148560000Y-105390000D03*
%TO.P,J20,4,Pin_4*%
X148560000Y-107930000D03*
%TO.P,J20,5,Pin_5*%
X146020000Y-105390000D03*
%TO.P,J20,6,Pin_6*%
X146020000Y-107930000D03*
%TO.P,J20,7,Pin_7*%
X143480000Y-105390000D03*
%TO.P,J20,8,Pin_8*%
X143480000Y-107930000D03*
%TO.P,J20,9,Pin_9*%
X140940000Y-105390000D03*
%TO.P,J20,10,Pin_10*%
X140940000Y-107930000D03*
%TD*%
D12*
%TO.P,D3,1,K*%
%TO.N,N/C*%
X156205000Y-99060000D03*
D13*
%TO.P,D3,2,A*%
X158745000Y-99060000D03*
%TD*%
D12*
%TO.P,D4,1,K*%
%TO.N,N/C*%
X181605000Y-99060000D03*
D13*
%TO.P,D4,2,A*%
X184145000Y-99060000D03*
%TD*%
D10*
%TO.P,REF\u002A\u002A,1*%
%TO.N,N/C*%
X170320000Y-101600000D03*
X171022944Y-99902944D03*
X171022944Y-103297056D03*
X172720000Y-99200000D03*
D11*
X172720000Y-101600000D03*
D10*
X172720000Y-104000000D03*
X174417056Y-99902944D03*
X174417056Y-103297056D03*
X175120000Y-101600000D03*
%TD*%
D12*
%TO.P,D2,1,K*%
%TO.N,N/C*%
X130805000Y-99060000D03*
D13*
%TO.P,D2,2,A*%
X133345000Y-99060000D03*
%TD*%
%TA.AperFunction,NonConductor*%
G36*
X184976177Y-94000185D02*
G01*
X184996819Y-94016819D01*
X187923181Y-96943181D01*
X187956666Y-97004504D01*
X187959500Y-97030862D01*
X187959500Y-111249137D01*
X187939815Y-111316176D01*
X187923181Y-111336818D01*
X184996819Y-114263181D01*
X184935496Y-114296666D01*
X184909138Y-114299500D01*
X104650862Y-114299500D01*
X104583823Y-114279815D01*
X104563181Y-114263181D01*
X101636819Y-111336819D01*
X101603334Y-111275496D01*
X101600500Y-111249138D01*
X101600500Y-107930000D01*
X139584341Y-107930000D01*
X139604936Y-108165403D01*
X139604938Y-108165413D01*
X139666094Y-108393655D01*
X139666096Y-108393659D01*
X139666097Y-108393663D01*
X139670000Y-108402032D01*
X139765965Y-108607830D01*
X139765967Y-108607834D01*
X139874281Y-108762521D01*
X139901505Y-108801401D01*
X140068599Y-108968495D01*
X140165384Y-109036264D01*
X140262165Y-109104032D01*
X140262167Y-109104033D01*
X140262170Y-109104035D01*
X140476337Y-109203903D01*
X140704592Y-109265063D01*
X140892918Y-109281539D01*
X140939999Y-109285659D01*
X140940000Y-109285659D01*
X140940001Y-109285659D01*
X140979234Y-109282226D01*
X141175408Y-109265063D01*
X141403663Y-109203903D01*
X141617830Y-109104035D01*
X141811401Y-108968495D01*
X141978495Y-108801401D01*
X142108424Y-108615842D01*
X142163002Y-108572217D01*
X142232500Y-108565023D01*
X142294855Y-108596546D01*
X142311575Y-108615842D01*
X142441500Y-108801395D01*
X142441505Y-108801401D01*
X142608599Y-108968495D01*
X142705384Y-109036264D01*
X142802165Y-109104032D01*
X142802167Y-109104033D01*
X142802170Y-109104035D01*
X143016337Y-109203903D01*
X143244592Y-109265063D01*
X143432918Y-109281539D01*
X143479999Y-109285659D01*
X143480000Y-109285659D01*
X143480001Y-109285659D01*
X143519234Y-109282226D01*
X143715408Y-109265063D01*
X143943663Y-109203903D01*
X144157830Y-109104035D01*
X144351401Y-108968495D01*
X144518495Y-108801401D01*
X144648424Y-108615842D01*
X144703002Y-108572217D01*
X144772500Y-108565023D01*
X144834855Y-108596546D01*
X144851575Y-108615842D01*
X144981500Y-108801395D01*
X144981505Y-108801401D01*
X145148599Y-108968495D01*
X145245384Y-109036264D01*
X145342165Y-109104032D01*
X145342167Y-109104033D01*
X145342170Y-109104035D01*
X145556337Y-109203903D01*
X145784592Y-109265063D01*
X145972918Y-109281539D01*
X146019999Y-109285659D01*
X146020000Y-109285659D01*
X146020001Y-109285659D01*
X146059234Y-109282226D01*
X146255408Y-109265063D01*
X146483663Y-109203903D01*
X146697830Y-109104035D01*
X146891401Y-108968495D01*
X147058495Y-108801401D01*
X147188424Y-108615842D01*
X147243002Y-108572217D01*
X147312500Y-108565023D01*
X147374855Y-108596546D01*
X147391575Y-108615842D01*
X147521500Y-108801395D01*
X147521505Y-108801401D01*
X147688599Y-108968495D01*
X147785384Y-109036264D01*
X147882165Y-109104032D01*
X147882167Y-109104033D01*
X147882170Y-109104035D01*
X148096337Y-109203903D01*
X148324592Y-109265063D01*
X148512918Y-109281539D01*
X148559999Y-109285659D01*
X148560000Y-109285659D01*
X148560001Y-109285659D01*
X148599234Y-109282226D01*
X148795408Y-109265063D01*
X149023663Y-109203903D01*
X149237830Y-109104035D01*
X149431401Y-108968495D01*
X149598495Y-108801401D01*
X149728424Y-108615842D01*
X149783002Y-108572217D01*
X149852500Y-108565023D01*
X149914855Y-108596546D01*
X149931575Y-108615842D01*
X150061500Y-108801395D01*
X150061505Y-108801401D01*
X150228599Y-108968495D01*
X150325384Y-109036265D01*
X150422165Y-109104032D01*
X150422167Y-109104033D01*
X150422170Y-109104035D01*
X150636337Y-109203903D01*
X150864592Y-109265063D01*
X151052918Y-109281539D01*
X151099999Y-109285659D01*
X151100000Y-109285659D01*
X151100001Y-109285659D01*
X151139234Y-109282226D01*
X151335408Y-109265063D01*
X151563663Y-109203903D01*
X151777830Y-109104035D01*
X151971401Y-108968495D01*
X152138495Y-108801401D01*
X152274035Y-108607830D01*
X152373903Y-108393663D01*
X152435063Y-108165408D01*
X152455659Y-107930000D01*
X152435063Y-107694592D01*
X152373903Y-107466337D01*
X152274035Y-107252171D01*
X152268424Y-107244158D01*
X152138496Y-107058600D01*
X152138492Y-107058596D01*
X152016567Y-106936671D01*
X151983084Y-106875351D01*
X151988068Y-106805659D01*
X152029939Y-106749725D01*
X152060915Y-106732810D01*
X152192331Y-106683796D01*
X152307546Y-106597546D01*
X152393796Y-106482331D01*
X152444091Y-106347483D01*
X152450500Y-106287873D01*
X152450499Y-104492128D01*
X152444091Y-104432517D01*
X152442810Y-104429083D01*
X152393797Y-104297671D01*
X152393793Y-104297664D01*
X152307547Y-104182455D01*
X152307544Y-104182452D01*
X152192335Y-104096206D01*
X152192328Y-104096202D01*
X152057482Y-104045908D01*
X152057483Y-104045908D01*
X151997883Y-104039501D01*
X151997881Y-104039500D01*
X151997873Y-104039500D01*
X151997864Y-104039500D01*
X150202129Y-104039500D01*
X150202123Y-104039501D01*
X150142516Y-104045908D01*
X150007671Y-104096202D01*
X150007664Y-104096206D01*
X149892455Y-104182452D01*
X149892452Y-104182455D01*
X149806206Y-104297664D01*
X149806203Y-104297669D01*
X149757189Y-104429083D01*
X149715317Y-104485016D01*
X149649853Y-104509433D01*
X149581580Y-104494581D01*
X149553326Y-104473430D01*
X149431402Y-104351506D01*
X149431395Y-104351501D01*
X149237834Y-104215967D01*
X149237830Y-104215965D01*
X149237828Y-104215964D01*
X149023663Y-104116097D01*
X149023659Y-104116096D01*
X149023655Y-104116094D01*
X148795413Y-104054938D01*
X148795403Y-104054936D01*
X148560001Y-104034341D01*
X148559999Y-104034341D01*
X148324596Y-104054936D01*
X148324586Y-104054938D01*
X148096344Y-104116094D01*
X148096335Y-104116098D01*
X147882171Y-104215964D01*
X147882169Y-104215965D01*
X147688597Y-104351505D01*
X147521505Y-104518597D01*
X147391575Y-104704158D01*
X147336998Y-104747783D01*
X147267500Y-104754977D01*
X147205145Y-104723454D01*
X147188425Y-104704158D01*
X147058494Y-104518597D01*
X146891402Y-104351506D01*
X146891395Y-104351501D01*
X146697834Y-104215967D01*
X146697830Y-104215965D01*
X146697828Y-104215964D01*
X146483663Y-104116097D01*
X146483659Y-104116096D01*
X146483655Y-104116094D01*
X146255413Y-104054938D01*
X146255403Y-104054936D01*
X146020001Y-104034341D01*
X146019999Y-104034341D01*
X145784596Y-104054936D01*
X145784586Y-104054938D01*
X145556344Y-104116094D01*
X145556335Y-104116098D01*
X145342171Y-104215964D01*
X145342169Y-104215965D01*
X145148597Y-104351505D01*
X144981505Y-104518597D01*
X144851575Y-104704158D01*
X144796998Y-104747783D01*
X144727500Y-104754977D01*
X144665145Y-104723454D01*
X144648425Y-104704158D01*
X144518494Y-104518597D01*
X144351402Y-104351506D01*
X144351395Y-104351501D01*
X144157834Y-104215967D01*
X144157830Y-104215965D01*
X144157828Y-104215964D01*
X143943663Y-104116097D01*
X143943659Y-104116096D01*
X143943655Y-104116094D01*
X143715413Y-104054938D01*
X143715403Y-104054936D01*
X143480001Y-104034341D01*
X143479999Y-104034341D01*
X143244596Y-104054936D01*
X143244586Y-104054938D01*
X143016344Y-104116094D01*
X143016335Y-104116098D01*
X142802171Y-104215964D01*
X142802169Y-104215965D01*
X142608597Y-104351505D01*
X142441505Y-104518597D01*
X142311575Y-104704158D01*
X142256998Y-104747783D01*
X142187500Y-104754977D01*
X142125145Y-104723454D01*
X142108425Y-104704158D01*
X141978494Y-104518597D01*
X141811402Y-104351506D01*
X141811395Y-104351501D01*
X141617834Y-104215967D01*
X141617830Y-104215965D01*
X141617828Y-104215964D01*
X141403663Y-104116097D01*
X141403659Y-104116096D01*
X141403655Y-104116094D01*
X141175413Y-104054938D01*
X141175403Y-104054936D01*
X140940001Y-104034341D01*
X140939999Y-104034341D01*
X140704596Y-104054936D01*
X140704586Y-104054938D01*
X140476344Y-104116094D01*
X140476335Y-104116098D01*
X140262171Y-104215964D01*
X140262169Y-104215965D01*
X140068597Y-104351505D01*
X139901505Y-104518597D01*
X139765965Y-104712169D01*
X139765964Y-104712171D01*
X139666098Y-104926335D01*
X139666094Y-104926344D01*
X139604938Y-105154586D01*
X139604936Y-105154596D01*
X139584341Y-105389999D01*
X139584341Y-105390000D01*
X139604936Y-105625403D01*
X139604938Y-105625413D01*
X139666094Y-105853655D01*
X139666096Y-105853659D01*
X139666097Y-105853663D01*
X139670000Y-105862032D01*
X139765965Y-106067830D01*
X139765967Y-106067834D01*
X139874281Y-106222521D01*
X139901501Y-106261396D01*
X139901506Y-106261402D01*
X140068597Y-106428493D01*
X140068603Y-106428498D01*
X140254158Y-106558425D01*
X140297783Y-106613002D01*
X140304977Y-106682500D01*
X140273454Y-106744855D01*
X140254158Y-106761575D01*
X140068597Y-106891505D01*
X139901505Y-107058597D01*
X139765965Y-107252169D01*
X139765964Y-107252171D01*
X139666098Y-107466335D01*
X139666094Y-107466344D01*
X139604938Y-107694586D01*
X139604936Y-107694596D01*
X139584341Y-107929999D01*
X139584341Y-107930000D01*
X101600500Y-107930000D01*
X101600500Y-101600000D01*
X115674422Y-101600000D01*
X115694722Y-101987339D01*
X115755397Y-102370427D01*
X115755397Y-102370429D01*
X115855788Y-102745094D01*
X115994787Y-103107197D01*
X116170877Y-103452793D01*
X116382122Y-103778082D01*
X116382124Y-103778084D01*
X116626219Y-104079516D01*
X116900484Y-104353781D01*
X116900488Y-104353784D01*
X117201917Y-104597877D01*
X117443830Y-104754977D01*
X117527211Y-104809125D01*
X117872806Y-104985214D01*
X118234913Y-105124214D01*
X118609567Y-105224602D01*
X118992662Y-105285278D01*
X119358576Y-105304455D01*
X119379999Y-105305578D01*
X119380000Y-105305578D01*
X119380001Y-105305578D01*
X119400301Y-105304514D01*
X119767338Y-105285278D01*
X120150433Y-105224602D01*
X120525087Y-105124214D01*
X120887194Y-104985214D01*
X121232789Y-104809125D01*
X121558084Y-104597876D01*
X121859516Y-104353781D01*
X122133781Y-104079516D01*
X122377876Y-103778084D01*
X122589125Y-103452789D01*
X122765214Y-103107194D01*
X122904214Y-102745087D01*
X123004602Y-102370433D01*
X123065278Y-101987338D01*
X123085578Y-101600000D01*
X169014422Y-101600000D01*
X169034722Y-101987339D01*
X169095397Y-102370427D01*
X169095397Y-102370429D01*
X169195788Y-102745094D01*
X169334787Y-103107197D01*
X169510877Y-103452793D01*
X169722122Y-103778082D01*
X169722124Y-103778084D01*
X169966219Y-104079516D01*
X170240484Y-104353781D01*
X170240488Y-104353784D01*
X170541917Y-104597877D01*
X170783830Y-104754977D01*
X170867211Y-104809125D01*
X171212806Y-104985214D01*
X171574913Y-105124214D01*
X171949567Y-105224602D01*
X172332662Y-105285278D01*
X172698576Y-105304455D01*
X172719999Y-105305578D01*
X172720000Y-105305578D01*
X172720001Y-105305578D01*
X172740301Y-105304514D01*
X173107338Y-105285278D01*
X173490433Y-105224602D01*
X173865087Y-105124214D01*
X174227194Y-104985214D01*
X174572789Y-104809125D01*
X174898084Y-104597876D01*
X175199516Y-104353781D01*
X175473781Y-104079516D01*
X175717876Y-103778084D01*
X175929125Y-103452789D01*
X176105214Y-103107194D01*
X176244214Y-102745087D01*
X176344602Y-102370433D01*
X176405278Y-101987338D01*
X176425578Y-101600000D01*
X176405278Y-101212662D01*
X176344602Y-100829567D01*
X176244214Y-100454913D01*
X176243898Y-100454091D01*
X176191483Y-100317544D01*
X176105214Y-100092806D01*
X176061937Y-100007870D01*
X180204500Y-100007870D01*
X180204501Y-100007876D01*
X180210908Y-100067483D01*
X180261202Y-100202328D01*
X180261206Y-100202335D01*
X180347452Y-100317544D01*
X180347455Y-100317547D01*
X180462664Y-100403793D01*
X180462671Y-100403797D01*
X180597517Y-100454091D01*
X180597516Y-100454091D01*
X180604444Y-100454835D01*
X180657127Y-100460500D01*
X182552872Y-100460499D01*
X182612483Y-100454091D01*
X182747331Y-100403796D01*
X182862546Y-100317546D01*
X182948796Y-100202331D01*
X182977454Y-100125493D01*
X183019326Y-100069559D01*
X183084790Y-100045141D01*
X183153063Y-100059992D01*
X183184866Y-100084843D01*
X183192193Y-100092802D01*
X183193215Y-100093912D01*
X183193222Y-100093918D01*
X183376365Y-100236464D01*
X183376371Y-100236468D01*
X183376374Y-100236470D01*
X183580497Y-100346936D01*
X183694487Y-100386068D01*
X183800015Y-100422297D01*
X183800017Y-100422297D01*
X183800019Y-100422298D01*
X184028951Y-100460500D01*
X184028952Y-100460500D01*
X184261048Y-100460500D01*
X184261049Y-100460500D01*
X184489981Y-100422298D01*
X184709503Y-100346936D01*
X184913626Y-100236470D01*
X185096784Y-100093913D01*
X185253979Y-99923153D01*
X185380924Y-99728849D01*
X185474157Y-99516300D01*
X185531134Y-99291305D01*
X185545288Y-99120488D01*
X185550300Y-99060006D01*
X185550300Y-99059993D01*
X185531135Y-98828702D01*
X185531133Y-98828691D01*
X185474157Y-98603699D01*
X185380924Y-98391151D01*
X185253983Y-98196852D01*
X185253980Y-98196849D01*
X185253979Y-98196847D01*
X185096784Y-98026087D01*
X185096779Y-98026083D01*
X185096777Y-98026081D01*
X184913634Y-97883535D01*
X184913628Y-97883531D01*
X184709504Y-97773064D01*
X184709495Y-97773061D01*
X184489984Y-97697702D01*
X184299450Y-97665908D01*
X184261049Y-97659500D01*
X184028951Y-97659500D01*
X183990550Y-97665908D01*
X183800015Y-97697702D01*
X183580504Y-97773061D01*
X183580495Y-97773064D01*
X183376371Y-97883531D01*
X183376365Y-97883535D01*
X183193222Y-98026081D01*
X183193218Y-98026085D01*
X183184866Y-98035158D01*
X183124979Y-98071148D01*
X183055141Y-98069047D01*
X182997525Y-98029522D01*
X182977455Y-97994507D01*
X182948797Y-97917671D01*
X182948793Y-97917664D01*
X182862547Y-97802455D01*
X182862544Y-97802452D01*
X182747335Y-97716206D01*
X182747328Y-97716202D01*
X182612482Y-97665908D01*
X182612483Y-97665908D01*
X182552883Y-97659501D01*
X182552881Y-97659500D01*
X182552873Y-97659500D01*
X182552864Y-97659500D01*
X180657129Y-97659500D01*
X180657123Y-97659501D01*
X180597516Y-97665908D01*
X180462671Y-97716202D01*
X180462664Y-97716206D01*
X180347455Y-97802452D01*
X180347452Y-97802455D01*
X180261206Y-97917664D01*
X180261202Y-97917671D01*
X180210908Y-98052517D01*
X180204501Y-98112116D01*
X180204500Y-98112135D01*
X180204500Y-100007870D01*
X176061937Y-100007870D01*
X175929125Y-99747211D01*
X175717876Y-99421916D01*
X175473781Y-99120484D01*
X175199516Y-98846219D01*
X175165164Y-98818401D01*
X174898082Y-98602122D01*
X174572793Y-98390877D01*
X174227197Y-98214787D01*
X173865094Y-98075788D01*
X173865087Y-98075786D01*
X173490433Y-97975398D01*
X173490429Y-97975397D01*
X173490428Y-97975397D01*
X173107339Y-97914722D01*
X172720001Y-97894422D01*
X172719999Y-97894422D01*
X172332660Y-97914722D01*
X171949572Y-97975397D01*
X171949570Y-97975397D01*
X171574905Y-98075788D01*
X171212802Y-98214787D01*
X170867206Y-98390877D01*
X170541917Y-98602122D01*
X170240488Y-98846215D01*
X170240480Y-98846222D01*
X169966222Y-99120480D01*
X169966215Y-99120488D01*
X169722122Y-99421917D01*
X169510877Y-99747206D01*
X169334787Y-100092802D01*
X169195788Y-100454905D01*
X169095397Y-100829570D01*
X169095397Y-100829572D01*
X169034722Y-101212660D01*
X169014422Y-101599999D01*
X169014422Y-101600000D01*
X123085578Y-101600000D01*
X123065278Y-101212662D01*
X123004602Y-100829567D01*
X122904214Y-100454913D01*
X122903898Y-100454091D01*
X122851483Y-100317544D01*
X122765214Y-100092806D01*
X122721937Y-100007870D01*
X129404500Y-100007870D01*
X129404501Y-100007876D01*
X129410908Y-100067483D01*
X129461202Y-100202328D01*
X129461206Y-100202335D01*
X129547452Y-100317544D01*
X129547455Y-100317547D01*
X129662664Y-100403793D01*
X129662671Y-100403797D01*
X129797517Y-100454091D01*
X129797516Y-100454091D01*
X129804444Y-100454835D01*
X129857127Y-100460500D01*
X131752872Y-100460499D01*
X131812483Y-100454091D01*
X131947331Y-100403796D01*
X132062546Y-100317546D01*
X132148796Y-100202331D01*
X132177454Y-100125493D01*
X132219326Y-100069559D01*
X132284790Y-100045141D01*
X132353063Y-100059992D01*
X132384866Y-100084843D01*
X132392193Y-100092802D01*
X132393215Y-100093912D01*
X132393222Y-100093918D01*
X132576365Y-100236464D01*
X132576371Y-100236468D01*
X132576374Y-100236470D01*
X132780497Y-100346936D01*
X132894487Y-100386068D01*
X133000015Y-100422297D01*
X133000017Y-100422297D01*
X133000019Y-100422298D01*
X133228951Y-100460500D01*
X133228952Y-100460500D01*
X133461048Y-100460500D01*
X133461049Y-100460500D01*
X133689981Y-100422298D01*
X133909503Y-100346936D01*
X134113626Y-100236470D01*
X134296784Y-100093913D01*
X134375992Y-100007870D01*
X154804500Y-100007870D01*
X154804501Y-100007876D01*
X154810908Y-100067483D01*
X154861202Y-100202328D01*
X154861206Y-100202335D01*
X154947452Y-100317544D01*
X154947455Y-100317547D01*
X155062664Y-100403793D01*
X155062671Y-100403797D01*
X155197517Y-100454091D01*
X155197516Y-100454091D01*
X155204444Y-100454835D01*
X155257127Y-100460500D01*
X157152872Y-100460499D01*
X157212483Y-100454091D01*
X157347331Y-100403796D01*
X157462546Y-100317546D01*
X157548796Y-100202331D01*
X157577454Y-100125493D01*
X157619326Y-100069559D01*
X157684790Y-100045141D01*
X157753063Y-100059992D01*
X157784866Y-100084843D01*
X157792193Y-100092802D01*
X157793215Y-100093912D01*
X157793222Y-100093918D01*
X157976365Y-100236464D01*
X157976371Y-100236468D01*
X157976374Y-100236470D01*
X158180497Y-100346936D01*
X158294487Y-100386068D01*
X158400015Y-100422297D01*
X158400017Y-100422297D01*
X158400019Y-100422298D01*
X158628951Y-100460500D01*
X158628952Y-100460500D01*
X158861048Y-100460500D01*
X158861049Y-100460500D01*
X159089981Y-100422298D01*
X159309503Y-100346936D01*
X159513626Y-100236470D01*
X159696784Y-100093913D01*
X159853979Y-99923153D01*
X159980924Y-99728849D01*
X160074157Y-99516300D01*
X160131134Y-99291305D01*
X160145288Y-99120488D01*
X160150300Y-99060006D01*
X160150300Y-99059993D01*
X160131135Y-98828702D01*
X160131133Y-98828691D01*
X160074157Y-98603699D01*
X159980924Y-98391151D01*
X159853983Y-98196852D01*
X159853980Y-98196849D01*
X159853979Y-98196847D01*
X159696784Y-98026087D01*
X159696779Y-98026083D01*
X159696777Y-98026081D01*
X159513634Y-97883535D01*
X159513628Y-97883531D01*
X159309504Y-97773064D01*
X159309495Y-97773061D01*
X159089984Y-97697702D01*
X158899450Y-97665908D01*
X158861049Y-97659500D01*
X158628951Y-97659500D01*
X158590550Y-97665908D01*
X158400015Y-97697702D01*
X158180504Y-97773061D01*
X158180495Y-97773064D01*
X157976371Y-97883531D01*
X157976365Y-97883535D01*
X157793222Y-98026081D01*
X157793218Y-98026085D01*
X157784866Y-98035158D01*
X157724979Y-98071148D01*
X157655141Y-98069047D01*
X157597525Y-98029522D01*
X157577455Y-97994507D01*
X157548797Y-97917671D01*
X157548793Y-97917664D01*
X157462547Y-97802455D01*
X157462544Y-97802452D01*
X157347335Y-97716206D01*
X157347328Y-97716202D01*
X157212482Y-97665908D01*
X157212483Y-97665908D01*
X157152883Y-97659501D01*
X157152881Y-97659500D01*
X157152873Y-97659500D01*
X157152864Y-97659500D01*
X155257129Y-97659500D01*
X155257123Y-97659501D01*
X155197516Y-97665908D01*
X155062671Y-97716202D01*
X155062664Y-97716206D01*
X154947455Y-97802452D01*
X154947452Y-97802455D01*
X154861206Y-97917664D01*
X154861202Y-97917671D01*
X154810908Y-98052517D01*
X154804501Y-98112116D01*
X154804500Y-98112135D01*
X154804500Y-100007870D01*
X134375992Y-100007870D01*
X134453979Y-99923153D01*
X134580924Y-99728849D01*
X134674157Y-99516300D01*
X134731134Y-99291305D01*
X134745288Y-99120488D01*
X134750300Y-99060006D01*
X134750300Y-99059993D01*
X134731135Y-98828702D01*
X134731133Y-98828691D01*
X134674157Y-98603699D01*
X134580924Y-98391151D01*
X134453983Y-98196852D01*
X134453980Y-98196849D01*
X134453979Y-98196847D01*
X134296784Y-98026087D01*
X134296779Y-98026083D01*
X134296777Y-98026081D01*
X134113634Y-97883535D01*
X134113628Y-97883531D01*
X133909504Y-97773064D01*
X133909495Y-97773061D01*
X133689984Y-97697702D01*
X133499450Y-97665908D01*
X133461049Y-97659500D01*
X133228951Y-97659500D01*
X133190550Y-97665908D01*
X133000015Y-97697702D01*
X132780504Y-97773061D01*
X132780495Y-97773064D01*
X132576371Y-97883531D01*
X132576365Y-97883535D01*
X132393222Y-98026081D01*
X132393218Y-98026085D01*
X132384866Y-98035158D01*
X132324979Y-98071148D01*
X132255141Y-98069047D01*
X132197525Y-98029522D01*
X132177455Y-97994507D01*
X132148797Y-97917671D01*
X132148793Y-97917664D01*
X132062547Y-97802455D01*
X132062544Y-97802452D01*
X131947335Y-97716206D01*
X131947328Y-97716202D01*
X131812482Y-97665908D01*
X131812483Y-97665908D01*
X131752883Y-97659501D01*
X131752881Y-97659500D01*
X131752873Y-97659500D01*
X131752864Y-97659500D01*
X129857129Y-97659500D01*
X129857123Y-97659501D01*
X129797516Y-97665908D01*
X129662671Y-97716202D01*
X129662664Y-97716206D01*
X129547455Y-97802452D01*
X129547452Y-97802455D01*
X129461206Y-97917664D01*
X129461202Y-97917671D01*
X129410908Y-98052517D01*
X129404501Y-98112116D01*
X129404500Y-98112135D01*
X129404500Y-100007870D01*
X122721937Y-100007870D01*
X122589125Y-99747211D01*
X122377876Y-99421916D01*
X122133781Y-99120484D01*
X121859516Y-98846219D01*
X121825164Y-98818401D01*
X121558082Y-98602122D01*
X121232793Y-98390877D01*
X120887197Y-98214787D01*
X120525094Y-98075788D01*
X120525087Y-98075786D01*
X120150433Y-97975398D01*
X120150429Y-97975397D01*
X120150428Y-97975397D01*
X119767339Y-97914722D01*
X119380001Y-97894422D01*
X119379999Y-97894422D01*
X118992660Y-97914722D01*
X118609572Y-97975397D01*
X118609570Y-97975397D01*
X118234905Y-98075788D01*
X117872802Y-98214787D01*
X117527206Y-98390877D01*
X117201917Y-98602122D01*
X116900488Y-98846215D01*
X116900480Y-98846222D01*
X116626222Y-99120480D01*
X116626215Y-99120488D01*
X116382122Y-99421917D01*
X116170877Y-99747206D01*
X115994787Y-100092802D01*
X115855788Y-100454905D01*
X115755397Y-100829570D01*
X115755397Y-100829572D01*
X115694722Y-101212660D01*
X115674422Y-101599999D01*
X115674422Y-101600000D01*
X101600500Y-101600000D01*
X101600500Y-100007870D01*
X104004500Y-100007870D01*
X104004501Y-100007876D01*
X104010908Y-100067483D01*
X104061202Y-100202328D01*
X104061206Y-100202335D01*
X104147452Y-100317544D01*
X104147455Y-100317547D01*
X104262664Y-100403793D01*
X104262671Y-100403797D01*
X104397517Y-100454091D01*
X104397516Y-100454091D01*
X104404444Y-100454835D01*
X104457127Y-100460500D01*
X106352872Y-100460499D01*
X106412483Y-100454091D01*
X106547331Y-100403796D01*
X106662546Y-100317546D01*
X106748796Y-100202331D01*
X106777454Y-100125493D01*
X106819326Y-100069559D01*
X106884790Y-100045141D01*
X106953063Y-100059992D01*
X106984866Y-100084843D01*
X106992193Y-100092802D01*
X106993215Y-100093912D01*
X106993222Y-100093918D01*
X107176365Y-100236464D01*
X107176371Y-100236468D01*
X107176374Y-100236470D01*
X107380497Y-100346936D01*
X107494487Y-100386068D01*
X107600015Y-100422297D01*
X107600017Y-100422297D01*
X107600019Y-100422298D01*
X107828951Y-100460500D01*
X107828952Y-100460500D01*
X108061048Y-100460500D01*
X108061049Y-100460500D01*
X108289981Y-100422298D01*
X108509503Y-100346936D01*
X108713626Y-100236470D01*
X108896784Y-100093913D01*
X109053979Y-99923153D01*
X109180924Y-99728849D01*
X109274157Y-99516300D01*
X109331134Y-99291305D01*
X109345288Y-99120488D01*
X109350300Y-99060006D01*
X109350300Y-99059993D01*
X109331135Y-98828702D01*
X109331133Y-98828691D01*
X109274157Y-98603699D01*
X109180924Y-98391151D01*
X109053983Y-98196852D01*
X109053980Y-98196849D01*
X109053979Y-98196847D01*
X108896784Y-98026087D01*
X108896779Y-98026083D01*
X108896777Y-98026081D01*
X108713634Y-97883535D01*
X108713628Y-97883531D01*
X108509504Y-97773064D01*
X108509495Y-97773061D01*
X108289984Y-97697702D01*
X108099450Y-97665908D01*
X108061049Y-97659500D01*
X107828951Y-97659500D01*
X107790550Y-97665908D01*
X107600015Y-97697702D01*
X107380504Y-97773061D01*
X107380495Y-97773064D01*
X107176371Y-97883531D01*
X107176365Y-97883535D01*
X106993222Y-98026081D01*
X106993218Y-98026085D01*
X106984866Y-98035158D01*
X106924979Y-98071148D01*
X106855141Y-98069047D01*
X106797525Y-98029522D01*
X106777455Y-97994507D01*
X106748797Y-97917671D01*
X106748793Y-97917664D01*
X106662547Y-97802455D01*
X106662544Y-97802452D01*
X106547335Y-97716206D01*
X106547328Y-97716202D01*
X106412482Y-97665908D01*
X106412483Y-97665908D01*
X106352883Y-97659501D01*
X106352881Y-97659500D01*
X106352873Y-97659500D01*
X106352864Y-97659500D01*
X104457129Y-97659500D01*
X104457123Y-97659501D01*
X104397516Y-97665908D01*
X104262671Y-97716202D01*
X104262664Y-97716206D01*
X104147455Y-97802452D01*
X104147452Y-97802455D01*
X104061206Y-97917664D01*
X104061202Y-97917671D01*
X104010908Y-98052517D01*
X104004501Y-98112116D01*
X104004500Y-98112135D01*
X104004500Y-100007870D01*
X101600500Y-100007870D01*
X101600500Y-97030861D01*
X101620185Y-96963822D01*
X101636814Y-96943185D01*
X104563181Y-94016818D01*
X104624504Y-93983334D01*
X104650862Y-93980500D01*
X184909138Y-93980500D01*
X184976177Y-94000185D01*
G37*
%TD.AperFunction*%
%TA.AperFunction,NonConductor*%
G36*
X149684340Y-106278068D02*
G01*
X149740274Y-106319939D01*
X149757189Y-106350917D01*
X149806202Y-106482328D01*
X149806206Y-106482335D01*
X149892452Y-106597544D01*
X149892455Y-106597547D01*
X150007664Y-106683793D01*
X150007671Y-106683797D01*
X150139081Y-106732810D01*
X150195015Y-106774681D01*
X150219432Y-106840145D01*
X150204580Y-106908418D01*
X150183430Y-106936673D01*
X150061505Y-107058597D01*
X149931574Y-107244160D01*
X149876997Y-107287784D01*
X149807498Y-107294977D01*
X149745144Y-107263455D01*
X149728429Y-107244164D01*
X149598495Y-107058599D01*
X149598493Y-107058596D01*
X149431402Y-106891506D01*
X149431396Y-106891501D01*
X149245842Y-106761575D01*
X149202217Y-106706998D01*
X149195023Y-106637500D01*
X149226546Y-106575145D01*
X149245842Y-106558425D01*
X149268026Y-106542891D01*
X149431401Y-106428495D01*
X149553329Y-106306566D01*
X149614648Y-106273084D01*
X149684340Y-106278068D01*
G37*
%TD.AperFunction*%
%TA.AperFunction,NonConductor*%
G36*
X147374855Y-106056546D02*
G01*
X147391575Y-106075842D01*
X147521501Y-106261396D01*
X147521506Y-106261402D01*
X147688597Y-106428493D01*
X147688603Y-106428498D01*
X147874158Y-106558425D01*
X147917783Y-106613002D01*
X147924977Y-106682500D01*
X147893454Y-106744855D01*
X147874158Y-106761575D01*
X147688597Y-106891505D01*
X147521505Y-107058597D01*
X147391575Y-107244158D01*
X147336998Y-107287783D01*
X147267500Y-107294977D01*
X147205145Y-107263454D01*
X147188425Y-107244158D01*
X147058494Y-107058597D01*
X146891402Y-106891506D01*
X146891396Y-106891501D01*
X146705842Y-106761575D01*
X146662217Y-106706998D01*
X146655023Y-106637500D01*
X146686546Y-106575145D01*
X146705842Y-106558425D01*
X146728026Y-106542891D01*
X146891401Y-106428495D01*
X147058495Y-106261401D01*
X147188424Y-106075842D01*
X147243002Y-106032217D01*
X147312500Y-106025023D01*
X147374855Y-106056546D01*
G37*
%TD.AperFunction*%
%TA.AperFunction,NonConductor*%
G36*
X144834855Y-106056546D02*
G01*
X144851575Y-106075842D01*
X144981501Y-106261396D01*
X144981506Y-106261402D01*
X145148597Y-106428493D01*
X145148603Y-106428498D01*
X145334158Y-106558425D01*
X145377783Y-106613002D01*
X145384977Y-106682500D01*
X145353454Y-106744855D01*
X145334158Y-106761575D01*
X145148597Y-106891505D01*
X144981505Y-107058597D01*
X144851575Y-107244158D01*
X144796998Y-107287783D01*
X144727500Y-107294977D01*
X144665145Y-107263454D01*
X144648425Y-107244158D01*
X144518494Y-107058597D01*
X144351402Y-106891506D01*
X144351396Y-106891501D01*
X144165842Y-106761575D01*
X144122217Y-106706998D01*
X144115023Y-106637500D01*
X144146546Y-106575145D01*
X144165842Y-106558425D01*
X144188026Y-106542891D01*
X144351401Y-106428495D01*
X144518495Y-106261401D01*
X144648424Y-106075842D01*
X144703002Y-106032217D01*
X144772500Y-106025023D01*
X144834855Y-106056546D01*
G37*
%TD.AperFunction*%
%TA.AperFunction,NonConductor*%
G36*
X142294855Y-106056546D02*
G01*
X142311575Y-106075842D01*
X142441501Y-106261396D01*
X142441506Y-106261402D01*
X142608597Y-106428493D01*
X142608603Y-106428498D01*
X142794158Y-106558425D01*
X142837783Y-106613002D01*
X142844977Y-106682500D01*
X142813454Y-106744855D01*
X142794158Y-106761575D01*
X142608597Y-106891505D01*
X142441505Y-107058597D01*
X142311575Y-107244158D01*
X142256998Y-107287783D01*
X142187500Y-107294977D01*
X142125145Y-107263454D01*
X142108425Y-107244158D01*
X141978494Y-107058597D01*
X141811402Y-106891506D01*
X141811396Y-106891501D01*
X141625842Y-106761575D01*
X141582217Y-106706998D01*
X141575023Y-106637500D01*
X141606546Y-106575145D01*
X141625842Y-106558425D01*
X141648026Y-106542891D01*
X141811401Y-106428495D01*
X141978495Y-106261401D01*
X142108424Y-106075842D01*
X142163002Y-106032217D01*
X142232500Y-106025023D01*
X142294855Y-106056546D01*
G37*
%TD.AperFunction*%
M02*
