%TF.GenerationSoftware,KiCad,Pcbnew,7.0.6*%
%TF.CreationDate,2023-11-23T12:57:34+01:00*%
%TF.ProjectId,ledpanel,6c656470-616e-4656-9c2e-6b696361645f,1*%
%TF.SameCoordinates,Original*%
%TF.FileFunction,Soldermask,Top*%
%TF.FilePolarity,Negative*%
%FSLAX46Y46*%
G04 Gerber Fmt 4.6, Leading zero omitted, Abs format (unit mm)*
G04 Created by KiCad (PCBNEW 7.0.6) date 2023-11-23 12:57:34*
%MOMM*%
%LPD*%
G01*
G04 APERTURE LIST*
G04 Aperture macros list*
%AMRoundRect*
0 Rectangle with rounded corners*
0 $1 Rounding radius*
0 $2 $3 $4 $5 $6 $7 $8 $9 X,Y pos of 4 corners*
0 Add a 4 corners polygon primitive as box body*
4,1,4,$2,$3,$4,$5,$6,$7,$8,$9,$2,$3,0*
0 Add four circle primitives for the rounded corners*
1,1,$1+$1,$2,$3*
1,1,$1+$1,$4,$5*
1,1,$1+$1,$6,$7*
1,1,$1+$1,$8,$9*
0 Add four rect primitives between the rounded corners*
20,1,$1+$1,$2,$3,$4,$5,0*
20,1,$1+$1,$4,$5,$6,$7,0*
20,1,$1+$1,$6,$7,$8,$9,0*
20,1,$1+$1,$8,$9,$2,$3,0*%
G04 Aperture macros list end*
%ADD10RoundRect,0.250000X0.450000X-0.262500X0.450000X0.262500X-0.450000X0.262500X-0.450000X-0.262500X0*%
%ADD11C,0.800000*%
%ADD12C,6.400000*%
%ADD13R,1.800000X1.800000*%
%ADD14C,1.800000*%
%ADD15R,1.700000X1.700000*%
%ADD16O,1.700000X1.700000*%
%ADD17RoundRect,0.250000X-0.450000X0.262500X-0.450000X-0.262500X0.450000X-0.262500X0.450000X0.262500X0*%
G04 APERTURE END LIST*
D10*
%TO.C,R5*%
X107950000Y-107592500D03*
X107950000Y-105767500D03*
%TD*%
D11*
%TO.C,REF\u002A\u002A*%
X116980000Y-101600000D03*
X117682944Y-99902944D03*
X117682944Y-103297056D03*
X119380000Y-99200000D03*
D12*
X119380000Y-101600000D03*
D11*
X119380000Y-104000000D03*
X121077056Y-99902944D03*
X121077056Y-103297056D03*
X121780000Y-101600000D03*
%TD*%
D10*
%TO.C,R3*%
X158750000Y-107592500D03*
X158750000Y-105767500D03*
%TD*%
D13*
%TO.C,D1*%
X105405000Y-99060000D03*
D14*
X107945000Y-99060000D03*
%TD*%
D15*
%TO.C,J20*%
X151100000Y-105390000D03*
D16*
X151100000Y-107930000D03*
X148560000Y-105390000D03*
X148560000Y-107930000D03*
X146020000Y-105390000D03*
X146020000Y-107930000D03*
X143480000Y-105390000D03*
X143480000Y-107930000D03*
X140940000Y-105390000D03*
X140940000Y-107930000D03*
%TD*%
D17*
%TO.C,R1*%
X184150000Y-105767500D03*
X184150000Y-107592500D03*
%TD*%
D13*
%TO.C,D3*%
X156205000Y-99060000D03*
D14*
X158745000Y-99060000D03*
%TD*%
D13*
%TO.C,D4*%
X181605000Y-99060000D03*
D14*
X184145000Y-99060000D03*
%TD*%
D11*
%TO.C,REF\u002A\u002A*%
X170320000Y-101600000D03*
X171022944Y-99902944D03*
X171022944Y-103297056D03*
X172720000Y-99200000D03*
D12*
X172720000Y-101600000D03*
D11*
X172720000Y-104000000D03*
X174417056Y-99902944D03*
X174417056Y-103297056D03*
X175120000Y-101600000D03*
%TD*%
D10*
%TO.C,R4*%
X133350000Y-107592500D03*
X133350000Y-105767500D03*
%TD*%
D13*
%TO.C,D2*%
X130805000Y-99060000D03*
D14*
X133345000Y-99060000D03*
%TD*%
M02*
