%TF.GenerationSoftware,KiCad,Pcbnew,7.0.6*%
%TF.CreationDate,2023-11-23T12:54:35+01:00*%
%TF.ProjectId,mainboard,6d61696e-626f-4617-9264-2e6b69636164,1*%
%TF.SameCoordinates,Original*%
%TF.FileFunction,Copper,L1,Top*%
%TF.FilePolarity,Positive*%
%FSLAX46Y46*%
G04 Gerber Fmt 4.6, Leading zero omitted, Abs format (unit mm)*
G04 Created by KiCad (PCBNEW 7.0.6) date 2023-11-23 12:54:35*
%MOMM*%
%LPD*%
G01*
G04 APERTURE LIST*
G04 Aperture macros list*
%AMRoundRect*
0 Rectangle with rounded corners*
0 $1 Rounding radius*
0 $2 $3 $4 $5 $6 $7 $8 $9 X,Y pos of 4 corners*
0 Add a 4 corners polygon primitive as box body*
4,1,4,$2,$3,$4,$5,$6,$7,$8,$9,$2,$3,0*
0 Add four circle primitives for the rounded corners*
1,1,$1+$1,$2,$3*
1,1,$1+$1,$4,$5*
1,1,$1+$1,$6,$7*
1,1,$1+$1,$8,$9*
0 Add four rect primitives between the rounded corners*
20,1,$1+$1,$2,$3,$4,$5,0*
20,1,$1+$1,$4,$5,$6,$7,0*
20,1,$1+$1,$6,$7,$8,$9,0*
20,1,$1+$1,$8,$9,$2,$3,0*%
%AMFreePoly0*
4,1,19,0.500000,-0.750000,0.000000,-0.750000,0.000000,-0.744911,-0.071157,-0.744911,-0.207708,-0.704816,-0.327430,-0.627875,-0.420627,-0.520320,-0.479746,-0.390866,-0.500000,-0.250000,-0.500000,0.250000,-0.479746,0.390866,-0.420627,0.520320,-0.327430,0.627875,-0.207708,0.704816,-0.071157,0.744911,0.000000,0.744911,0.000000,0.750000,0.500000,0.750000,0.500000,-0.750000,0.500000,-0.750000,
$1*%
%AMFreePoly1*
4,1,19,0.000000,0.744911,0.071157,0.744911,0.207708,0.704816,0.327430,0.627875,0.420627,0.520320,0.479746,0.390866,0.500000,0.250000,0.500000,-0.250000,0.479746,-0.390866,0.420627,-0.520320,0.327430,-0.627875,0.207708,-0.704816,0.071157,-0.744911,0.000000,-0.744911,0.000000,-0.750000,-0.500000,-0.750000,-0.500000,0.750000,0.000000,0.750000,0.000000,0.744911,0.000000,0.744911,
$1*%
G04 Aperture macros list end*
%TA.AperFunction,ComponentPad*%
%ADD10RoundRect,0.249999X-1.025001X-1.025001X1.025001X-1.025001X1.025001X1.025001X-1.025001X1.025001X0*%
%TD*%
%TA.AperFunction,SMDPad,CuDef*%
%ADD11FreePoly0,270.000000*%
%TD*%
%TA.AperFunction,SMDPad,CuDef*%
%ADD12FreePoly1,270.000000*%
%TD*%
%TA.AperFunction,ComponentPad*%
%ADD13R,1.700000X1.700000*%
%TD*%
%TA.AperFunction,ComponentPad*%
%ADD14O,1.700000X1.700000*%
%TD*%
%TA.AperFunction,ComponentPad*%
%ADD15C,0.800000*%
%TD*%
%TA.AperFunction,ComponentPad*%
%ADD16C,6.400000*%
%TD*%
%TA.AperFunction,ComponentPad*%
%ADD17R,1.600000X1.600000*%
%TD*%
%TA.AperFunction,ComponentPad*%
%ADD18O,1.600000X1.600000*%
%TD*%
%TA.AperFunction,ComponentPad*%
%ADD19R,1.400000X1.400000*%
%TD*%
%TA.AperFunction,ComponentPad*%
%ADD20C,1.400000*%
%TD*%
%TA.AperFunction,SMDPad,CuDef*%
%ADD21FreePoly0,90.000000*%
%TD*%
%TA.AperFunction,SMDPad,CuDef*%
%ADD22FreePoly1,90.000000*%
%TD*%
%TA.AperFunction,ViaPad*%
%ADD23C,0.800000*%
%TD*%
%TA.AperFunction,Conductor*%
%ADD24C,0.250000*%
%TD*%
G04 APERTURE END LIST*
D10*
%TO.P,J36,1,Pin_1*%
%TO.N,N/C*%
X136435000Y-123745500D03*
%TD*%
%TO.P,J39,1,Pin_1*%
%TO.N,N/C*%
X146595000Y-123745500D03*
%TD*%
D11*
%TO.P,JP6,1,A*%
%TO.N,N/C*%
X183425000Y-83979500D03*
D12*
%TO.P,JP6,2,B*%
X183425000Y-85279500D03*
%TD*%
D13*
%TO.P,J3,1,Pin_1*%
%TO.N,N/C*%
X109785000Y-111075500D03*
D14*
%TO.P,J3,2,Pin_2*%
X107245000Y-111075500D03*
%TO.P,J3,3,Pin_3*%
X109785000Y-113615500D03*
%TO.P,J3,4,Pin_4*%
X107245000Y-113615500D03*
%TO.P,J3,5,Pin_5*%
X109785000Y-116155500D03*
%TO.P,J3,6,Pin_6*%
X107245000Y-116155500D03*
%TO.P,J3,7,Pin_7*%
X109785000Y-118695500D03*
%TO.P,J3,8,Pin_8*%
X107245000Y-118695500D03*
%TO.P,J3,9,Pin_9*%
X109785000Y-121235500D03*
%TO.P,J3,10,Pin_10*%
X107245000Y-121235500D03*
%TD*%
D15*
%TO.P,REF\u002A\u002A,1*%
%TO.N,N/C*%
X183604052Y-77470000D03*
X184306996Y-75772944D03*
X184306996Y-79167056D03*
X186004052Y-75070000D03*
D16*
X186004052Y-77470000D03*
D15*
X186004052Y-79870000D03*
X187701108Y-75772944D03*
X187701108Y-79167056D03*
X188404052Y-77470000D03*
%TD*%
D17*
%TO.P,D6,1,K*%
%TO.N,N/C*%
X178345000Y-79295500D03*
D18*
%TO.P,D6,2,A*%
X170725000Y-79295500D03*
%TD*%
D11*
%TO.P,JP11,1,A*%
%TO.N,N/C*%
X142531000Y-91487500D03*
D12*
%TO.P,JP11,2,B*%
X142531000Y-92787500D03*
%TD*%
D19*
%TO.P,K6,1*%
%TO.N,N/C*%
X75253500Y-99060000D03*
D20*
%TO.P,K6,4*%
X82873500Y-99060000D03*
%TO.P,K6,6*%
X87953500Y-99060000D03*
%TO.P,K6,8*%
X93033500Y-99060000D03*
%TO.P,K6,9*%
X93033500Y-91440000D03*
%TO.P,K6,11*%
X87953500Y-91440000D03*
%TO.P,K6,13*%
X82873500Y-91440000D03*
%TO.P,K6,16*%
X75253500Y-91440000D03*
%TD*%
D19*
%TO.P,K5,1*%
%TO.N,N/C*%
X124751000Y-83867500D03*
D20*
%TO.P,K5,4*%
X124751000Y-91487500D03*
%TO.P,K5,6*%
X124751000Y-96567500D03*
%TO.P,K5,8*%
X124751000Y-101647500D03*
%TO.P,K5,9*%
X132371000Y-101647500D03*
%TO.P,K5,11*%
X132371000Y-96567500D03*
%TO.P,K5,13*%
X132371000Y-91487500D03*
%TO.P,K5,16*%
X132371000Y-83867500D03*
%TD*%
D11*
%TO.P,JP12,1,A*%
%TO.N,N/C*%
X119671000Y-91599500D03*
D12*
%TO.P,JP12,2,B*%
X119671000Y-92899500D03*
%TD*%
D21*
%TO.P,JP16,1,A*%
%TO.N,N/C*%
X119671000Y-85025500D03*
D22*
%TO.P,JP16,2,B*%
X119671000Y-83725500D03*
%TD*%
D15*
%TO.P,REF\u002A\u002A,1*%
%TO.N,N/C*%
X98094052Y-127580000D03*
X98796996Y-125882944D03*
X98796996Y-129277056D03*
X100494052Y-125180000D03*
D16*
X100494052Y-127580000D03*
D15*
X100494052Y-129980000D03*
X102191108Y-125882944D03*
X102191108Y-129277056D03*
X102894052Y-127580000D03*
%TD*%
D10*
%TO.P,J37,1,Pin_1*%
%TO.N,N/C*%
X154215000Y-123745500D03*
%TD*%
D17*
%TO.P,D8,1,K*%
%TO.N,N/C*%
X132371000Y-78787500D03*
D18*
%TO.P,D8,2,A*%
X124751000Y-78787500D03*
%TD*%
D11*
%TO.P,JP9,1,A*%
%TO.N,N/C*%
X188759000Y-91599500D03*
D12*
%TO.P,JP9,2,B*%
X188759000Y-92899500D03*
%TD*%
D21*
%TO.P,JP13,1,A*%
%TO.N,N/C*%
X188759000Y-85025500D03*
D22*
%TO.P,JP13,2,B*%
X188759000Y-83725500D03*
%TD*%
D15*
%TO.P,REF\u002A\u002A,1*%
%TO.N,N/C*%
X115094052Y-77470000D03*
X115796996Y-75772944D03*
X115796996Y-79167056D03*
X117494052Y-75070000D03*
D16*
X117494052Y-77470000D03*
D15*
X117494052Y-79870000D03*
X119191108Y-75772944D03*
X119191108Y-79167056D03*
X119894052Y-77470000D03*
%TD*%
D10*
%TO.P,J33,1,Pin_1*%
%TO.N,N/C*%
X123735000Y-123745500D03*
%TD*%
D11*
%TO.P,JP10,1,A*%
%TO.N,N/C*%
X165645000Y-91487500D03*
D12*
%TO.P,JP10,2,B*%
X165645000Y-92787500D03*
%TD*%
D17*
%TO.P,D10,1,K*%
%TO.N,N/C*%
X70173500Y-91440000D03*
D18*
%TO.P,D10,2,A*%
X70173500Y-99060000D03*
%TD*%
D19*
%TO.P,K8,1*%
%TO.N,N/C*%
X75253500Y-113030000D03*
D20*
%TO.P,K8,4*%
X82873500Y-113030000D03*
%TO.P,K8,6*%
X87953500Y-113030000D03*
%TO.P,K8,8*%
X93033500Y-113030000D03*
%TO.P,K8,9*%
X93033500Y-105410000D03*
%TO.P,K8,11*%
X87953500Y-105410000D03*
%TO.P,K8,13*%
X82873500Y-105410000D03*
%TO.P,K8,16*%
X75253500Y-105410000D03*
%TD*%
D17*
%TO.P,D12,1,K*%
%TO.N,N/C*%
X70173500Y-105410000D03*
D18*
%TO.P,D12,2,A*%
X70173500Y-113030000D03*
%TD*%
D21*
%TO.P,JP14,1,A*%
%TO.N,N/C*%
X165645000Y-85279500D03*
D22*
%TO.P,JP14,2,B*%
X165645000Y-83979500D03*
%TD*%
D13*
%TO.P,J18,1,Pin_1*%
%TO.N,N/C*%
X167647000Y-114875500D03*
D14*
%TO.P,J18,2,Pin_2*%
X167647000Y-112335500D03*
%TO.P,J18,3,Pin_3*%
X165107000Y-114875500D03*
%TO.P,J18,4,Pin_4*%
X165107000Y-112335500D03*
%TO.P,J18,5,Pin_5*%
X162567000Y-114875500D03*
%TO.P,J18,6,Pin_6*%
X162567000Y-112335500D03*
%TO.P,J18,7,Pin_7*%
X160027000Y-114875500D03*
%TO.P,J18,8,Pin_8*%
X160027000Y-112335500D03*
%TO.P,J18,9,Pin_9*%
X157487000Y-114875500D03*
%TO.P,J18,10,Pin_10*%
X157487000Y-112335500D03*
%TD*%
D19*
%TO.P,K7,1*%
%TO.N,N/C*%
X75221000Y-127000000D03*
D20*
%TO.P,K7,4*%
X82841000Y-127000000D03*
%TO.P,K7,6*%
X87921000Y-127000000D03*
%TO.P,K7,8*%
X93001000Y-127000000D03*
%TO.P,K7,9*%
X93001000Y-119380000D03*
%TO.P,K7,11*%
X87921000Y-119380000D03*
%TO.P,K7,13*%
X82841000Y-119380000D03*
%TO.P,K7,16*%
X75221000Y-119380000D03*
%TD*%
D17*
%TO.P,D11,1,K*%
%TO.N,N/C*%
X70141000Y-119380000D03*
D18*
%TO.P,D11,2,A*%
X70141000Y-127000000D03*
%TD*%
D10*
%TO.P,J32,1,Pin_1*%
%TO.N,N/C*%
X118655000Y-123745500D03*
%TD*%
D19*
%TO.P,K1,1*%
%TO.N,N/C*%
X193839000Y-83867500D03*
D20*
%TO.P,K1,4*%
X193839000Y-91487500D03*
%TO.P,K1,6*%
X193839000Y-96567500D03*
%TO.P,K1,8*%
X193839000Y-101647500D03*
%TO.P,K1,9*%
X201459000Y-101647500D03*
%TO.P,K1,11*%
X201459000Y-96567500D03*
%TO.P,K1,13*%
X201459000Y-91487500D03*
%TO.P,K1,16*%
X201459000Y-83867500D03*
%TD*%
D17*
%TO.P,D9,1,K*%
%TO.N,N/C*%
X70173500Y-77724000D03*
D18*
%TO.P,D9,2,A*%
X70173500Y-85344000D03*
%TD*%
D17*
%TO.P,D7,1,K*%
%TO.N,N/C*%
X155231000Y-79295500D03*
D18*
%TO.P,D7,2,A*%
X147611000Y-79295500D03*
%TD*%
D17*
%TO.P,D5,1,K*%
%TO.N,N/C*%
X201459000Y-79295500D03*
D18*
%TO.P,D5,2,A*%
X193839000Y-79295500D03*
%TD*%
D15*
%TO.P,REF\u002A\u002A,1*%
%TO.N,N/C*%
X200094052Y-126980000D03*
X200796996Y-125282944D03*
X200796996Y-128677056D03*
X202494052Y-124580000D03*
D16*
X202494052Y-126980000D03*
D15*
X202494052Y-129380000D03*
X204191108Y-125282944D03*
X204191108Y-128677056D03*
X204894052Y-126980000D03*
%TD*%
D10*
%TO.P,J35,1,Pin_1*%
%TO.N,N/C*%
X141515000Y-123745500D03*
%TD*%
D13*
%TO.P,J19,1,Pin_1*%
%TO.N,N/C*%
X192853000Y-112549500D03*
D14*
%TO.P,J19,2,Pin_2*%
X192853000Y-115089500D03*
%TO.P,J19,3,Pin_3*%
X195393000Y-112549500D03*
%TO.P,J19,4,Pin_4*%
X195393000Y-115089500D03*
%TO.P,J19,5,Pin_5*%
X197933000Y-112549500D03*
%TO.P,J19,6,Pin_6*%
X197933000Y-115089500D03*
%TO.P,J19,7,Pin_7*%
X200473000Y-112549500D03*
%TO.P,J19,8,Pin_8*%
X200473000Y-115089500D03*
%TO.P,J19,9,Pin_9*%
X203013000Y-112549500D03*
%TO.P,J19,10,Pin_10*%
X203013000Y-115089500D03*
%TD*%
D11*
%TO.P,JP8,1,A*%
%TO.N,N/C*%
X137197000Y-83725500D03*
D12*
%TO.P,JP8,2,B*%
X137197000Y-85025500D03*
%TD*%
D11*
%TO.P,JP1,1,A*%
%TO.N,N/C*%
X206539000Y-91345500D03*
D12*
%TO.P,JP1,2,B*%
X206539000Y-92645500D03*
%TD*%
D19*
%TO.P,K4,1*%
%TO.N,N/C*%
X147611000Y-83867500D03*
D20*
%TO.P,K4,4*%
X147611000Y-91487500D03*
%TO.P,K4,6*%
X147611000Y-96567500D03*
%TO.P,K4,8*%
X147611000Y-101647500D03*
%TO.P,K4,9*%
X155231000Y-101647500D03*
%TO.P,K4,11*%
X155231000Y-96567500D03*
%TO.P,K4,13*%
X155231000Y-91487500D03*
%TO.P,K4,16*%
X155231000Y-83867500D03*
%TD*%
D10*
%TO.P,J38,1,Pin_1*%
%TO.N,N/C*%
X159295000Y-123745500D03*
%TD*%
D21*
%TO.P,JP15,1,A*%
%TO.N,N/C*%
X142531000Y-85025500D03*
D22*
%TO.P,JP15,2,B*%
X142531000Y-83725500D03*
%TD*%
D11*
%TO.P,JP3,1,A*%
%TO.N,N/C*%
X160311000Y-91599500D03*
D12*
%TO.P,JP3,2,B*%
X160311000Y-92899500D03*
%TD*%
D11*
%TO.P,JP4,1,A*%
%TO.N,N/C*%
X137197000Y-91345500D03*
D12*
%TO.P,JP4,2,B*%
X137197000Y-92645500D03*
%TD*%
D13*
%TO.P,J1,1,Pin_1*%
%TO.N,N/C*%
X109511000Y-83359500D03*
D14*
%TO.P,J1,2,Pin_2*%
X106971000Y-83359500D03*
%TO.P,J1,3,Pin_3*%
X109511000Y-85899500D03*
%TO.P,J1,4,Pin_4*%
X106971000Y-85899500D03*
%TO.P,J1,5,Pin_5*%
X109511000Y-88439500D03*
%TO.P,J1,6,Pin_6*%
X106971000Y-88439500D03*
%TO.P,J1,7,Pin_7*%
X109511000Y-90979500D03*
%TO.P,J1,8,Pin_8*%
X106971000Y-90979500D03*
%TO.P,J1,9,Pin_9*%
X109511000Y-93519500D03*
%TO.P,J1,10,Pin_10*%
X106971000Y-93519500D03*
%TD*%
D11*
%TO.P,JP5,1,A*%
%TO.N,N/C*%
X206539000Y-83979500D03*
D12*
%TO.P,JP5,2,B*%
X206539000Y-85279500D03*
%TD*%
D10*
%TO.P,J40,1,Pin_1*%
%TO.N,N/C*%
X164375000Y-123745500D03*
%TD*%
D19*
%TO.P,K2,1*%
%TO.N,N/C*%
X75286000Y-85296500D03*
D20*
%TO.P,K2,4*%
X82906000Y-85296500D03*
%TO.P,K2,6*%
X87986000Y-85296500D03*
%TO.P,K2,8*%
X93066000Y-85296500D03*
%TO.P,K2,9*%
X93066000Y-77676500D03*
%TO.P,K2,11*%
X87986000Y-77676500D03*
%TO.P,K2,13*%
X82906000Y-77676500D03*
%TO.P,K2,16*%
X75286000Y-77676500D03*
%TD*%
D19*
%TO.P,K3,1*%
%TO.N,N/C*%
X170725000Y-83867500D03*
D20*
%TO.P,K3,4*%
X170725000Y-91487500D03*
%TO.P,K3,6*%
X170725000Y-96567500D03*
%TO.P,K3,8*%
X170725000Y-101647500D03*
%TO.P,K3,9*%
X178345000Y-101647500D03*
%TO.P,K3,11*%
X178345000Y-96567500D03*
%TO.P,K3,13*%
X178345000Y-91487500D03*
%TO.P,K3,16*%
X178345000Y-83867500D03*
%TD*%
D11*
%TO.P,JP2,1,A*%
%TO.N,N/C*%
X183425000Y-91487500D03*
D12*
%TO.P,JP2,2,B*%
X183425000Y-92787500D03*
%TD*%
D11*
%TO.P,JP7,1,A*%
%TO.N,N/C*%
X160311000Y-83979500D03*
D12*
%TO.P,JP7,2,B*%
X160311000Y-85279500D03*
%TD*%
D23*
%TO.N,*%
X183425000Y-81835500D03*
X119671000Y-81835500D03*
X165645000Y-81835500D03*
X137197000Y-81835500D03*
X192315000Y-118411500D03*
X206539000Y-81835500D03*
X160311000Y-81835500D03*
X106971000Y-75485500D03*
X109511000Y-80057500D03*
X90715000Y-89963500D03*
X87953500Y-87710000D03*
X142531000Y-81835500D03*
X89191000Y-88494745D03*
X87921000Y-80057500D03*
X188759000Y-81835500D03*
X80809000Y-96567500D03*
X178853000Y-114855500D03*
X153199000Y-110537500D03*
X94779000Y-109521500D03*
X80809000Y-102663500D03*
X80095860Y-101963188D03*
X193839000Y-119935500D03*
X109785000Y-123580000D03*
X130847000Y-112315500D03*
X180123000Y-106219500D03*
X180377000Y-107743500D03*
X93509000Y-109775500D03*
X125767000Y-114093500D03*
X171741000Y-117141500D03*
X180123000Y-112315500D03*
X194864000Y-106219500D03*
X148627000Y-113839500D03*
X81571000Y-103425500D03*
X81571000Y-97329500D03*
X84619000Y-99361500D03*
X196125000Y-107489500D03*
X95503500Y-108689864D03*
X94779000Y-99107500D03*
X190283000Y-119173500D03*
X177329000Y-110029500D03*
X89953000Y-89201500D03*
X91477000Y-93519500D03*
X92031424Y-94351136D03*
X96557000Y-107743500D03*
X97319000Y-106981500D03*
%TD*%
D24*
%TO.N,*%
X80818000Y-102672500D02*
X80809000Y-102663500D01*
X80484007Y-101963188D02*
X80508695Y-101938500D01*
X84096000Y-104187500D02*
X82873500Y-105410000D01*
X145833000Y-103425500D02*
X81571000Y-103425500D01*
X152691000Y-104187500D02*
X84096000Y-104187500D01*
X155231000Y-101647500D02*
X152691000Y-104187500D01*
X80508695Y-101938500D02*
X124460000Y-101938500D01*
X147611000Y-101647500D02*
X145833000Y-103425500D01*
X80095860Y-101963188D02*
X80484007Y-101963188D01*
X131346000Y-102672500D02*
X80818000Y-102672500D01*
X124460000Y-101938500D02*
X124751000Y-101647500D01*
X132371000Y-101647500D02*
X131346000Y-102672500D01*
X85430000Y-100172500D02*
X84619000Y-99361500D01*
X178345000Y-101647500D02*
X176870000Y-100172500D01*
X169700000Y-100622500D02*
X84436000Y-100622500D01*
X170725000Y-101647500D02*
X169700000Y-100622500D01*
X94907396Y-96567500D02*
X80809000Y-96567500D01*
X142531000Y-92787500D02*
X142531000Y-94535500D01*
X188759000Y-92899500D02*
X188759000Y-94535500D01*
X206285000Y-96567500D02*
X201459000Y-96567500D01*
X97447396Y-99107500D02*
X94907396Y-96567500D01*
X169201000Y-98091500D02*
X176821000Y-98091500D01*
X95033000Y-97329500D02*
X81571000Y-97329500D01*
X97319000Y-99615500D02*
X95033000Y-97329500D01*
X139737000Y-93265500D02*
X136435000Y-96567500D01*
X119738569Y-85025500D02*
X125776000Y-91062931D01*
X130847000Y-98091500D02*
X132371000Y-96567500D01*
X201459000Y-101647500D02*
X198919000Y-99107500D01*
X163105000Y-93028864D02*
X159566364Y-96567500D01*
X183425000Y-85279500D02*
X185711000Y-87565500D01*
X199935000Y-98091500D02*
X201459000Y-96567500D01*
X119671000Y-85025500D02*
X119738569Y-85025500D01*
X136435000Y-96567500D02*
X132371000Y-96567500D01*
X206539000Y-85279500D02*
X208825000Y-87565500D01*
X142598569Y-85025500D02*
X148636000Y-91062931D01*
X128673000Y-92645500D02*
X124751000Y-96567500D01*
X146087000Y-98091500D02*
X153707000Y-98091500D01*
X188759000Y-94535500D02*
X192315000Y-98091500D01*
X191807000Y-99615500D02*
X97319000Y-99615500D01*
X183171000Y-96567500D02*
X178345000Y-96567500D01*
X151279000Y-92899500D02*
X147611000Y-96567500D01*
X84436000Y-100622500D02*
X82873500Y-99060000D01*
X185711000Y-94027500D02*
X183171000Y-96567500D01*
X160311000Y-85279500D02*
X163105000Y-88073500D01*
X163105000Y-88073500D02*
X163105000Y-93028864D01*
X198919000Y-99107500D02*
X97447396Y-99107500D01*
X119671000Y-94281500D02*
X123481000Y-98091500D01*
X123481000Y-98091500D02*
X130847000Y-98091500D01*
X185711000Y-87565500D02*
X185711000Y-94027500D01*
X208825000Y-94027500D02*
X206285000Y-96567500D01*
X139737000Y-87565500D02*
X139737000Y-93265500D01*
X192315000Y-98091500D02*
X199935000Y-98091500D01*
X125776000Y-91062931D02*
X125776000Y-95542500D01*
X125776000Y-95542500D02*
X124751000Y-96567500D01*
X160311000Y-92899500D02*
X151279000Y-92899500D01*
X119671000Y-92899500D02*
X119671000Y-94281500D01*
X148636000Y-95542500D02*
X147611000Y-96567500D01*
X159566364Y-96567500D02*
X155231000Y-96567500D01*
X137197000Y-85025500D02*
X139737000Y-87565500D01*
X137197000Y-92645500D02*
X128673000Y-92645500D01*
X193839000Y-101647500D02*
X191807000Y-99615500D01*
X208825000Y-87565500D02*
X208825000Y-94027500D01*
X153707000Y-98091500D02*
X155231000Y-96567500D01*
X165645000Y-94535500D02*
X169201000Y-98091500D01*
X176821000Y-98091500D02*
X178345000Y-96567500D01*
X176870000Y-100172500D02*
X85430000Y-100172500D01*
X142531000Y-94535500D02*
X146087000Y-98091500D01*
X165645000Y-92787500D02*
X165645000Y-94535500D01*
X165645000Y-85279500D02*
X165966569Y-85279500D01*
X197761000Y-92645500D02*
X193839000Y-96567500D01*
X193585000Y-120189500D02*
X160565000Y-120189500D01*
X149135000Y-119173500D02*
X146595000Y-121713500D01*
X206539000Y-92645500D02*
X197761000Y-92645500D01*
X159295000Y-121459500D02*
X159295000Y-123745500D01*
X148636000Y-91062931D02*
X148636000Y-95542500D01*
X193839000Y-119935500D02*
X193585000Y-120189500D01*
X188759000Y-85025500D02*
X188826569Y-85025500D01*
X164375000Y-123745500D02*
X192823000Y-123745500D01*
X137055000Y-91487500D02*
X132371000Y-91487500D01*
X171868000Y-95424500D02*
X170725000Y-96567500D01*
X190283000Y-119173500D02*
X149135000Y-119173500D01*
X171868000Y-91180931D02*
X171868000Y-95424500D01*
X155993000Y-127047500D02*
X159295000Y-123745500D01*
X174505000Y-92787500D02*
X170725000Y-96567500D01*
X196633000Y-113789500D02*
X195393000Y-112549500D01*
X194864000Y-95542500D02*
X193839000Y-96567500D01*
X196633000Y-119935500D02*
X196633000Y-113789500D01*
X160565000Y-120189500D02*
X159295000Y-121459500D01*
X121957000Y-127047500D02*
X138213000Y-127047500D01*
X118655000Y-123745500D02*
X121957000Y-127047500D01*
X146595000Y-121713500D02*
X146595000Y-123745500D01*
X165966569Y-85279500D02*
X171868000Y-91180931D01*
X194864000Y-91062931D02*
X194864000Y-95542500D01*
X144817000Y-127047500D02*
X155993000Y-127047500D01*
X141515000Y-123745500D02*
X144817000Y-127047500D01*
X192823000Y-123745500D02*
X196633000Y-119935500D01*
X142531000Y-85025500D02*
X142598569Y-85025500D01*
X188826569Y-85025500D02*
X194864000Y-91062931D01*
X138213000Y-127047500D02*
X141515000Y-123745500D01*
X183425000Y-92787500D02*
X174505000Y-92787500D01*
X180631000Y-107489500D02*
X180377000Y-107743500D01*
X201459000Y-91487500D02*
X206397000Y-91487500D01*
X188871000Y-91487500D02*
X193839000Y-91487500D01*
X178833000Y-114875500D02*
X167647000Y-114875500D01*
X148627000Y-113839500D02*
X148766000Y-113700500D01*
X165645000Y-91487500D02*
X170725000Y-91487500D01*
X206397000Y-91487500D02*
X206539000Y-91345500D01*
X167413000Y-110029500D02*
X165107000Y-112335500D01*
X178853000Y-114855500D02*
X178833000Y-114875500D01*
X155231000Y-91487500D02*
X160199000Y-91487500D01*
X125767000Y-114093500D02*
X126549000Y-114875500D01*
X137197000Y-91345500D02*
X137055000Y-91487500D01*
X130867000Y-112335500D02*
X157487000Y-112335500D01*
X130847000Y-112315500D02*
X130867000Y-112335500D01*
X119783000Y-91487500D02*
X124751000Y-91487500D01*
X177329000Y-110029500D02*
X167413000Y-110029500D01*
X180103000Y-112335500D02*
X167647000Y-112335500D01*
X196125000Y-107489500D02*
X180631000Y-107489500D01*
X188759000Y-91599500D02*
X188871000Y-91487500D01*
X194864000Y-106219500D02*
X180123000Y-106219500D01*
X126549000Y-114875500D02*
X157487000Y-114875500D01*
X119671000Y-91599500D02*
X119783000Y-91487500D01*
X160199000Y-91487500D02*
X160311000Y-91599500D01*
X153199000Y-110537500D02*
X158229000Y-110537500D01*
X171741000Y-117141500D02*
X167373000Y-117141500D01*
X147611000Y-91487500D02*
X142531000Y-91487500D01*
X180123000Y-112315500D02*
X180103000Y-112335500D01*
X178345000Y-91487500D02*
X183425000Y-91487500D01*
X158229000Y-110537500D02*
X160027000Y-112335500D01*
X158852000Y-113700500D02*
X160027000Y-114875500D01*
X148766000Y-113700500D02*
X158852000Y-113700500D01*
X167373000Y-117141500D02*
X165107000Y-114875500D01*
X93033500Y-113030000D02*
X98033500Y-113030000D01*
X96049000Y-109521500D02*
X101508000Y-114980500D01*
X94731500Y-99060000D02*
X93033500Y-99060000D01*
X104177000Y-112315500D02*
X108545000Y-112315500D01*
X101413000Y-111075500D02*
X107245000Y-111075500D01*
X94271000Y-110537500D02*
X96177396Y-110537500D01*
X98033500Y-113030000D02*
X104874000Y-119870500D01*
X101413000Y-113615500D02*
X107245000Y-113615500D01*
X109785000Y-123580000D02*
X96421000Y-123580000D01*
X97319000Y-106981500D02*
X101413000Y-111075500D01*
X96177396Y-110537500D02*
X104335396Y-118695500D01*
X103747104Y-119380000D02*
X105602604Y-121235500D01*
X101064000Y-112250500D02*
X104112000Y-112250500D01*
X104112000Y-112250500D02*
X104177000Y-112315500D01*
X101508000Y-114980500D02*
X108420000Y-114980500D01*
X104874000Y-119870500D02*
X108610000Y-119870500D01*
X95503500Y-108689864D02*
X96487364Y-108689864D01*
X104335396Y-118695500D02*
X107245000Y-118695500D01*
X108420000Y-114980500D02*
X109785000Y-113615500D01*
X96557000Y-107743500D02*
X101064000Y-112250500D01*
X105602604Y-121235500D02*
X107245000Y-121235500D01*
X93001000Y-119380000D02*
X103747104Y-119380000D01*
X94779000Y-109521500D02*
X96049000Y-109521500D01*
X93509000Y-109775500D02*
X94271000Y-110537500D01*
X108545000Y-112315500D02*
X109785000Y-111075500D01*
X108610000Y-119870500D02*
X109785000Y-118695500D01*
X94779000Y-99107500D02*
X94731500Y-99060000D01*
X96421000Y-123580000D02*
X93001000Y-127000000D01*
X96487364Y-108689864D02*
X101413000Y-113615500D01*
X106484299Y-92154500D02*
X108336000Y-92154500D01*
X95795000Y-85899500D02*
X106971000Y-85899500D01*
X136435000Y-123745500D02*
X141769000Y-118411500D01*
X70173500Y-77724000D02*
X75238500Y-77724000D01*
X87953500Y-87710000D02*
X87986000Y-87677500D01*
X133641000Y-120951500D02*
X136435000Y-123745500D01*
X116369000Y-120951500D02*
X133641000Y-120951500D01*
X108336000Y-87074500D02*
X109511000Y-85899500D01*
X70173500Y-105410000D02*
X75253500Y-105410000D01*
X76311000Y-90382500D02*
X75253500Y-91440000D01*
X75286000Y-77676500D02*
X76311000Y-78701500D01*
X92374788Y-94694500D02*
X108336000Y-94694500D01*
X108336000Y-94694500D02*
X109511000Y-93519500D01*
X92031424Y-94351136D02*
X92374788Y-94694500D01*
X80348500Y-124507500D02*
X94566552Y-124507500D01*
X90752500Y-89926000D02*
X104255799Y-89926000D01*
X94271000Y-88439500D02*
X95668000Y-87042500D01*
X76278500Y-106435000D02*
X76278500Y-118322500D01*
X87986000Y-87677500D02*
X94017000Y-87677500D01*
X87986000Y-76182500D02*
X87986000Y-77676500D01*
X95700000Y-87074500D02*
X108336000Y-87074500D01*
X105193000Y-89201500D02*
X106971000Y-90979500D01*
X108336000Y-92154500D02*
X109511000Y-90979500D01*
X88683000Y-75485500D02*
X87986000Y-76182500D01*
X75253500Y-91440000D02*
X76278500Y-92465000D01*
X104255799Y-89926000D02*
X106484299Y-92154500D01*
X89953000Y-89201500D02*
X105193000Y-89201500D01*
X94017000Y-87677500D02*
X95795000Y-85899500D01*
X70173500Y-91440000D02*
X75253500Y-91440000D01*
X95668000Y-87042500D02*
X95700000Y-87074500D01*
X75238500Y-77724000D02*
X75286000Y-77676500D01*
X76311000Y-78701500D02*
X76311000Y-90382500D01*
X141769000Y-118411500D02*
X192315000Y-118411500D01*
X76278500Y-104385000D02*
X75253500Y-105410000D01*
X87921000Y-80057500D02*
X109511000Y-80057500D01*
X76278500Y-118322500D02*
X75221000Y-119380000D01*
X114740500Y-122580000D02*
X116369000Y-120951500D01*
X106971000Y-75485500D02*
X88683000Y-75485500D01*
X90715000Y-89963500D02*
X90752500Y-89926000D01*
X89191000Y-88494745D02*
X89246245Y-88439500D01*
X96494052Y-122580000D02*
X114740500Y-122580000D01*
X89246245Y-88439500D02*
X94271000Y-88439500D01*
X75253500Y-105410000D02*
X76278500Y-106435000D01*
X76278500Y-92465000D02*
X76278500Y-104385000D01*
X75221000Y-119380000D02*
X80348500Y-124507500D01*
X91477000Y-93519500D02*
X106971000Y-93519500D01*
X94566552Y-124507500D02*
X96494052Y-122580000D01*
X70141000Y-119380000D02*
X75221000Y-119380000D01*
X206539000Y-83979500D02*
X206539000Y-81835500D01*
X142531000Y-83725500D02*
X142531000Y-81835500D01*
X178345000Y-79295500D02*
X178345000Y-83867500D01*
X160311000Y-83979500D02*
X160311000Y-81835500D01*
X181102000Y-81110500D02*
X198702000Y-81110500D01*
X198702000Y-81110500D02*
X201459000Y-83867500D01*
X178345000Y-83867500D02*
X181102000Y-81110500D01*
X132371000Y-78787500D02*
X132371000Y-83867500D01*
X157988000Y-81110500D02*
X175588000Y-81110500D01*
X155231000Y-79295500D02*
X155231000Y-83867500D01*
X175588000Y-81110500D02*
X178345000Y-83867500D01*
X135128000Y-81110500D02*
X152474000Y-81110500D01*
X152474000Y-81110500D02*
X155231000Y-83867500D01*
X137197000Y-83725500D02*
X137197000Y-81835500D01*
X132371000Y-83867500D02*
X135128000Y-81110500D01*
X201459000Y-79295500D02*
X201459000Y-83867500D01*
X155231000Y-83867500D02*
X157988000Y-81110500D01*
X188759000Y-83725500D02*
X188759000Y-81835500D01*
X183425000Y-83979500D02*
X183425000Y-81835500D01*
X165645000Y-83979500D02*
X165645000Y-81835500D01*
X119671000Y-83725500D02*
X119671000Y-81835500D01*
%TD*%
M02*
