%TF.GenerationSoftware,KiCad,Pcbnew,7.0.6*%
%TF.CreationDate,2023-11-23T12:54:35+01:00*%
%TF.ProjectId,mainboard,6d61696e-626f-4617-9264-2e6b69636164,1*%
%TF.SameCoordinates,Original*%
%TF.FileFunction,Soldermask,Bot*%
%TF.FilePolarity,Negative*%
%FSLAX46Y46*%
G04 Gerber Fmt 4.6, Leading zero omitted, Abs format (unit mm)*
G04 Created by KiCad (PCBNEW 7.0.6) date 2023-11-23 12:54:35*
%MOMM*%
%LPD*%
G01*
G04 APERTURE LIST*
G04 Aperture macros list*
%AMRoundRect*
0 Rectangle with rounded corners*
0 $1 Rounding radius*
0 $2 $3 $4 $5 $6 $7 $8 $9 X,Y pos of 4 corners*
0 Add a 4 corners polygon primitive as box body*
4,1,4,$2,$3,$4,$5,$6,$7,$8,$9,$2,$3,0*
0 Add four circle primitives for the rounded corners*
1,1,$1+$1,$2,$3*
1,1,$1+$1,$4,$5*
1,1,$1+$1,$6,$7*
1,1,$1+$1,$8,$9*
0 Add four rect primitives between the rounded corners*
20,1,$1+$1,$2,$3,$4,$5,0*
20,1,$1+$1,$4,$5,$6,$7,0*
20,1,$1+$1,$6,$7,$8,$9,0*
20,1,$1+$1,$8,$9,$2,$3,0*%
G04 Aperture macros list end*
%ADD10RoundRect,0.249999X-1.025001X-1.025001X1.025001X-1.025001X1.025001X1.025001X-1.025001X1.025001X0*%
%ADD11R,1.700000X1.700000*%
%ADD12O,1.700000X1.700000*%
%ADD13C,0.800000*%
%ADD14C,6.400000*%
%ADD15R,1.600000X1.600000*%
%ADD16O,1.600000X1.600000*%
%ADD17R,1.400000X1.400000*%
%ADD18C,1.400000*%
G04 APERTURE END LIST*
D10*
%TO.C,J36*%
X136435000Y-123745500D03*
%TD*%
%TO.C,J39*%
X146595000Y-123745500D03*
%TD*%
D11*
%TO.C,J3*%
X109785000Y-111075500D03*
D12*
X107245000Y-111075500D03*
X109785000Y-113615500D03*
X107245000Y-113615500D03*
X109785000Y-116155500D03*
X107245000Y-116155500D03*
X109785000Y-118695500D03*
X107245000Y-118695500D03*
X109785000Y-121235500D03*
X107245000Y-121235500D03*
%TD*%
D13*
%TO.C,REF\u002A\u002A*%
X183604052Y-77470000D03*
X184306996Y-75772944D03*
X184306996Y-79167056D03*
X186004052Y-75070000D03*
D14*
X186004052Y-77470000D03*
D13*
X186004052Y-79870000D03*
X187701108Y-75772944D03*
X187701108Y-79167056D03*
X188404052Y-77470000D03*
%TD*%
D15*
%TO.C,D6*%
X178345000Y-79295500D03*
D16*
X170725000Y-79295500D03*
%TD*%
D17*
%TO.C,K6*%
X75253500Y-99060000D03*
D18*
X82873500Y-99060000D03*
X87953500Y-99060000D03*
X93033500Y-99060000D03*
X93033500Y-91440000D03*
X87953500Y-91440000D03*
X82873500Y-91440000D03*
X75253500Y-91440000D03*
%TD*%
D17*
%TO.C,K5*%
X124751000Y-83867500D03*
D18*
X124751000Y-91487500D03*
X124751000Y-96567500D03*
X124751000Y-101647500D03*
X132371000Y-101647500D03*
X132371000Y-96567500D03*
X132371000Y-91487500D03*
X132371000Y-83867500D03*
%TD*%
D13*
%TO.C,REF\u002A\u002A*%
X98094052Y-127580000D03*
X98796996Y-125882944D03*
X98796996Y-129277056D03*
X100494052Y-125180000D03*
D14*
X100494052Y-127580000D03*
D13*
X100494052Y-129980000D03*
X102191108Y-125882944D03*
X102191108Y-129277056D03*
X102894052Y-127580000D03*
%TD*%
D10*
%TO.C,J37*%
X154215000Y-123745500D03*
%TD*%
D15*
%TO.C,D8*%
X132371000Y-78787500D03*
D16*
X124751000Y-78787500D03*
%TD*%
D13*
%TO.C,REF\u002A\u002A*%
X115094052Y-77470000D03*
X115796996Y-75772944D03*
X115796996Y-79167056D03*
X117494052Y-75070000D03*
D14*
X117494052Y-77470000D03*
D13*
X117494052Y-79870000D03*
X119191108Y-75772944D03*
X119191108Y-79167056D03*
X119894052Y-77470000D03*
%TD*%
D10*
%TO.C,J33*%
X123735000Y-123745500D03*
%TD*%
D15*
%TO.C,D10*%
X70173500Y-91440000D03*
D16*
X70173500Y-99060000D03*
%TD*%
D17*
%TO.C,K8*%
X75253500Y-113030000D03*
D18*
X82873500Y-113030000D03*
X87953500Y-113030000D03*
X93033500Y-113030000D03*
X93033500Y-105410000D03*
X87953500Y-105410000D03*
X82873500Y-105410000D03*
X75253500Y-105410000D03*
%TD*%
D15*
%TO.C,D12*%
X70173500Y-105410000D03*
D16*
X70173500Y-113030000D03*
%TD*%
D11*
%TO.C,J18*%
X167647000Y-114875500D03*
D12*
X167647000Y-112335500D03*
X165107000Y-114875500D03*
X165107000Y-112335500D03*
X162567000Y-114875500D03*
X162567000Y-112335500D03*
X160027000Y-114875500D03*
X160027000Y-112335500D03*
X157487000Y-114875500D03*
X157487000Y-112335500D03*
%TD*%
D17*
%TO.C,K7*%
X75221000Y-127000000D03*
D18*
X82841000Y-127000000D03*
X87921000Y-127000000D03*
X93001000Y-127000000D03*
X93001000Y-119380000D03*
X87921000Y-119380000D03*
X82841000Y-119380000D03*
X75221000Y-119380000D03*
%TD*%
D15*
%TO.C,D11*%
X70141000Y-119380000D03*
D16*
X70141000Y-127000000D03*
%TD*%
D10*
%TO.C,J32*%
X118655000Y-123745500D03*
%TD*%
D17*
%TO.C,K1*%
X193839000Y-83867500D03*
D18*
X193839000Y-91487500D03*
X193839000Y-96567500D03*
X193839000Y-101647500D03*
X201459000Y-101647500D03*
X201459000Y-96567500D03*
X201459000Y-91487500D03*
X201459000Y-83867500D03*
%TD*%
D15*
%TO.C,D9*%
X70173500Y-77724000D03*
D16*
X70173500Y-85344000D03*
%TD*%
D15*
%TO.C,D7*%
X155231000Y-79295500D03*
D16*
X147611000Y-79295500D03*
%TD*%
D15*
%TO.C,D5*%
X201459000Y-79295500D03*
D16*
X193839000Y-79295500D03*
%TD*%
D13*
%TO.C,REF\u002A\u002A*%
X200094052Y-126980000D03*
X200796996Y-125282944D03*
X200796996Y-128677056D03*
X202494052Y-124580000D03*
D14*
X202494052Y-126980000D03*
D13*
X202494052Y-129380000D03*
X204191108Y-125282944D03*
X204191108Y-128677056D03*
X204894052Y-126980000D03*
%TD*%
D10*
%TO.C,J35*%
X141515000Y-123745500D03*
%TD*%
D11*
%TO.C,J19*%
X192853000Y-112549500D03*
D12*
X192853000Y-115089500D03*
X195393000Y-112549500D03*
X195393000Y-115089500D03*
X197933000Y-112549500D03*
X197933000Y-115089500D03*
X200473000Y-112549500D03*
X200473000Y-115089500D03*
X203013000Y-112549500D03*
X203013000Y-115089500D03*
%TD*%
D17*
%TO.C,K4*%
X147611000Y-83867500D03*
D18*
X147611000Y-91487500D03*
X147611000Y-96567500D03*
X147611000Y-101647500D03*
X155231000Y-101647500D03*
X155231000Y-96567500D03*
X155231000Y-91487500D03*
X155231000Y-83867500D03*
%TD*%
D10*
%TO.C,J38*%
X159295000Y-123745500D03*
%TD*%
D11*
%TO.C,J1*%
X109511000Y-83359500D03*
D12*
X106971000Y-83359500D03*
X109511000Y-85899500D03*
X106971000Y-85899500D03*
X109511000Y-88439500D03*
X106971000Y-88439500D03*
X109511000Y-90979500D03*
X106971000Y-90979500D03*
X109511000Y-93519500D03*
X106971000Y-93519500D03*
%TD*%
D10*
%TO.C,J40*%
X164375000Y-123745500D03*
%TD*%
D17*
%TO.C,K2*%
X75286000Y-85296500D03*
D18*
X82906000Y-85296500D03*
X87986000Y-85296500D03*
X93066000Y-85296500D03*
X93066000Y-77676500D03*
X87986000Y-77676500D03*
X82906000Y-77676500D03*
X75286000Y-77676500D03*
%TD*%
D17*
%TO.C,K3*%
X170725000Y-83867500D03*
D18*
X170725000Y-91487500D03*
X170725000Y-96567500D03*
X170725000Y-101647500D03*
X178345000Y-101647500D03*
X178345000Y-96567500D03*
X178345000Y-91487500D03*
X178345000Y-83867500D03*
%TD*%
M02*
