M48
; DRILL file {KiCad 7.0.6} date Thu Nov 23 12:54:33 2023
; FORMAT={-:-/ absolute / inch / decimal}
; #@! TF.CreationDate,2023-11-23T12:54:33+01:00
; #@! TF.GenerationSoftware,Kicad,Pcbnew,7.0.6
; #@! TF.FileFunction,Plated,1,2,PTH
FMAT,2
INCH
; #@! TA.AperFunction,Plated,PTH,ViaDrill
T1C0.0157
; #@! TA.AperFunction,Plated,PTH,ComponentDrill
T2C0.0197
; #@! TA.AperFunction,Plated,PTH,ComponentDrill
T3C0.0276
; #@! TA.AperFunction,Plated,PTH,ComponentDrill
T4C0.0315
; #@! TA.AperFunction,Plated,PTH,ComponentDrill
T5C0.0394
; #@! TA.AperFunction,Plated,PTH,ComponentDrill
T6C0.0610
; #@! TA.AperFunction,Plated,PTH,ComponentDrill
T7C0.1260
%
G90
G05
T1
X3.1534Y-4.0143
X3.1815Y-3.8019
X3.1815Y-4.0419
X3.2115Y-3.8319
X3.2115Y-4.0719
X3.3315Y-3.9119
X3.4615Y-3.1519
X3.4627Y-3.4531
X3.5115Y-3.484
X3.5415Y-3.5119
X3.5715Y-3.5419
X3.6015Y-3.6819
X3.6233Y-3.7146
X3.6815Y-4.3219
X3.7315Y-3.9019
X3.7315Y-4.3119
X3.76Y-4.2791
X3.8015Y-4.2419
X3.8315Y-4.2119
X4.2115Y-2.9719
X4.3115Y-3.1519
X4.3222Y-4.8654
X4.7115Y-3.2219
X4.9515Y-4.4919
X5.1515Y-4.4219
X5.4015Y-3.2219
X5.6115Y-3.2219
X5.8515Y-4.4819
X6.0315Y-4.3519
X6.3115Y-3.2219
X6.5215Y-3.2219
X6.7615Y-4.6119
X6.9815Y-4.3319
X7.0415Y-4.5219
X7.0915Y-4.1819
X7.0915Y-4.4219
X7.1015Y-4.2419
X7.2215Y-3.2219
X7.4315Y-3.2219
X7.4915Y-4.6919
X7.5715Y-4.6619
X7.6315Y-4.7219
X7.6718Y-4.1819
X7.7215Y-4.2319
X8.1315Y-3.2219
T2
X3.862Y-5.0228
X3.8896Y-4.956
X3.8896Y-5.0896
X3.9565Y-4.9283
X3.9565Y-5.1173
X4.0233Y-4.956
X4.0233Y-5.0896
X4.0509Y-5.0228
X4.5313Y-3.05
X4.5589Y-2.9832
X4.5589Y-3.1168
X4.6258Y-2.9555
X4.6258Y-3.1445
X4.6926Y-2.9832
X4.6926Y-3.1168
X4.7202Y-3.05
X7.2285Y-3.05
X7.2562Y-2.9832
X7.2562Y-3.1168
X7.323Y-2.9555
X7.323Y-3.1445
X7.3898Y-2.9832
X7.3898Y-3.1168
X7.4175Y-3.05
X7.8777Y-4.9992
X7.9054Y-4.9324
X7.9054Y-5.066
X7.9722Y-4.9047
X7.9722Y-5.0937
X8.039Y-4.9324
X8.039Y-5.066
X8.0667Y-4.9992
T3
X2.9615Y-4.7
X2.9615Y-5.0
X2.9627Y-3.6
X2.9627Y-3.9
X2.9627Y-4.15
X2.9627Y-4.45
X2.964Y-3.0581
X2.964Y-3.3581
X3.2615Y-4.7
X3.2615Y-5.0
X3.2627Y-3.6
X3.2627Y-3.9
X3.2627Y-4.15
X3.2627Y-4.45
X3.264Y-3.0581
X3.264Y-3.3581
X3.4615Y-4.7
X3.4615Y-5.0
X3.4627Y-3.6
X3.4627Y-3.9
X3.4627Y-4.15
X3.4627Y-4.45
X3.464Y-3.0581
X3.464Y-3.3581
X3.6615Y-4.7
X3.6615Y-5.0
X3.6627Y-3.6
X3.6627Y-3.9
X3.6627Y-4.15
X3.6627Y-4.45
X3.664Y-3.0581
X3.664Y-3.3581
X4.9115Y-3.3019
X4.9115Y-3.6019
X4.9115Y-3.8019
X4.9115Y-4.0019
X5.2115Y-3.3019
X5.2115Y-3.6019
X5.2115Y-3.8019
X5.2115Y-4.0019
X5.8115Y-3.3019
X5.8115Y-3.6019
X5.8115Y-3.8019
X5.8115Y-4.0019
X6.1115Y-3.3019
X6.1115Y-3.6019
X6.1115Y-3.8019
X6.1115Y-4.0019
X6.7215Y-3.3019
X6.7215Y-3.6019
X6.7215Y-3.8019
X6.7215Y-4.0019
X7.0215Y-3.3019
X7.0215Y-3.6019
X7.0215Y-3.8019
X7.0215Y-4.0019
X7.6315Y-3.3019
X7.6315Y-3.6019
X7.6315Y-3.8019
X7.6315Y-4.0019
X7.9315Y-3.3019
X7.9315Y-3.6019
X7.9315Y-3.8019
X7.9315Y-4.0019
T4
X2.7615Y-4.7
X2.7615Y-5.0
X2.7627Y-3.06
X2.7627Y-3.36
X2.7627Y-3.6
X2.7627Y-3.9
X2.7627Y-4.15
X2.7627Y-4.45
X4.9115Y-3.1019
X5.2115Y-3.1019
X5.8115Y-3.1219
X6.1115Y-3.1219
X6.7215Y-3.1219
X7.0215Y-3.1219
X7.6315Y-3.1219
X7.9315Y-3.1219
T5
X4.2115Y-3.2819
X4.2115Y-3.3819
X4.2115Y-3.4819
X4.2115Y-3.5819
X4.2115Y-3.6819
X4.2222Y-4.3731
X4.2222Y-4.4731
X4.2222Y-4.5731
X4.2222Y-4.6731
X4.2222Y-4.7731
X4.3115Y-3.2819
X4.3115Y-3.3819
X4.3115Y-3.4819
X4.3115Y-3.5819
X4.3115Y-3.6819
X4.3222Y-4.3731
X4.3222Y-4.4731
X4.3222Y-4.5731
X4.3222Y-4.6731
X4.3222Y-4.7731
X6.2003Y-4.4227
X6.2003Y-4.5227
X6.3003Y-4.4227
X6.3003Y-4.5227
X6.4003Y-4.4227
X6.4003Y-4.5227
X6.5003Y-4.4227
X6.5003Y-4.5227
X6.6003Y-4.4227
X6.6003Y-4.5227
X7.5926Y-4.4311
X7.5926Y-4.5311
X7.6926Y-4.4311
X7.6926Y-4.5311
X7.7926Y-4.4311
X7.7926Y-4.5311
X7.8926Y-4.4311
X7.8926Y-4.5311
X7.9926Y-4.4311
X7.9926Y-4.5311
T6
X4.6715Y-4.8719
X4.8715Y-4.8719
X5.3715Y-4.8719
X5.5715Y-4.8719
X5.7715Y-4.8719
X6.0715Y-4.8719
X6.2715Y-4.8719
X6.4715Y-4.8719
T7
X3.9565Y-5.0228
X4.6258Y-3.05
X7.323Y-3.05
X7.9722Y-4.9992
T0
M30
