%TF.GenerationSoftware,KiCad,Pcbnew,7.0.6*%
%TF.CreationDate,2023-11-23T12:54:35+01:00*%
%TF.ProjectId,mainboard,6d61696e-626f-4617-9264-2e6b69636164,1*%
%TF.SameCoordinates,Original*%
%TF.FileFunction,Legend,Top*%
%TF.FilePolarity,Positive*%
%FSLAX46Y46*%
G04 Gerber Fmt 4.6, Leading zero omitted, Abs format (unit mm)*
G04 Created by KiCad (PCBNEW 7.0.6) date 2023-11-23 12:54:35*
%MOMM*%
%LPD*%
G01*
G04 APERTURE LIST*
%ADD10C,0.150000*%
%ADD11C,0.120000*%
G04 APERTURE END LIST*
D10*
X118110000Y-89238500D02*
X209550000Y-89238500D01*
X209550000Y-95588500D01*
X118110000Y-95588500D01*
X118110000Y-89238500D01*
X118110000Y-80348500D02*
X209550000Y-80348500D01*
X209550000Y-87968500D01*
X118110000Y-87968500D01*
X118110000Y-80348500D01*
X118004295Y-87679339D02*
X117204295Y-87679339D01*
X117204295Y-87679339D02*
X117775723Y-87412673D01*
X117775723Y-87412673D02*
X117204295Y-87146006D01*
X117204295Y-87146006D02*
X118004295Y-87146006D01*
X117470961Y-86422196D02*
X118004295Y-86422196D01*
X117470961Y-86765053D02*
X117890009Y-86765053D01*
X117890009Y-86765053D02*
X117966200Y-86726958D01*
X117966200Y-86726958D02*
X118004295Y-86650768D01*
X118004295Y-86650768D02*
X118004295Y-86536482D01*
X118004295Y-86536482D02*
X117966200Y-86460291D01*
X117966200Y-86460291D02*
X117928104Y-86422196D01*
X117470961Y-86155529D02*
X117470961Y-85850767D01*
X117204295Y-86041243D02*
X117890009Y-86041243D01*
X117890009Y-86041243D02*
X117966200Y-86003148D01*
X117966200Y-86003148D02*
X118004295Y-85926958D01*
X118004295Y-85926958D02*
X118004295Y-85850767D01*
X117966200Y-85279338D02*
X118004295Y-85355529D01*
X118004295Y-85355529D02*
X118004295Y-85507910D01*
X118004295Y-85507910D02*
X117966200Y-85584100D01*
X117966200Y-85584100D02*
X117890009Y-85622196D01*
X117890009Y-85622196D02*
X117585247Y-85622196D01*
X117585247Y-85622196D02*
X117509057Y-85584100D01*
X117509057Y-85584100D02*
X117470961Y-85507910D01*
X117470961Y-85507910D02*
X117470961Y-85355529D01*
X117470961Y-85355529D02*
X117509057Y-85279338D01*
X117509057Y-85279338D02*
X117585247Y-85241243D01*
X117585247Y-85241243D02*
X117661438Y-85241243D01*
X117661438Y-85241243D02*
X117737628Y-85622196D01*
X117242390Y-83869815D02*
X117204295Y-83946005D01*
X117204295Y-83946005D02*
X117204295Y-84060291D01*
X117204295Y-84060291D02*
X117242390Y-84174577D01*
X117242390Y-84174577D02*
X117318580Y-84250767D01*
X117318580Y-84250767D02*
X117394771Y-84288862D01*
X117394771Y-84288862D02*
X117547152Y-84326958D01*
X117547152Y-84326958D02*
X117661438Y-84326958D01*
X117661438Y-84326958D02*
X117813819Y-84288862D01*
X117813819Y-84288862D02*
X117890009Y-84250767D01*
X117890009Y-84250767D02*
X117966200Y-84174577D01*
X117966200Y-84174577D02*
X118004295Y-84060291D01*
X118004295Y-84060291D02*
X118004295Y-83984100D01*
X118004295Y-83984100D02*
X117966200Y-83869815D01*
X117966200Y-83869815D02*
X117928104Y-83831719D01*
X117928104Y-83831719D02*
X117661438Y-83831719D01*
X117661438Y-83831719D02*
X117661438Y-83984100D01*
X118004295Y-83488862D02*
X117204295Y-83488862D01*
X117204295Y-83488862D02*
X118004295Y-83031719D01*
X118004295Y-83031719D02*
X117204295Y-83031719D01*
X118004295Y-82650767D02*
X117204295Y-82650767D01*
X117204295Y-82650767D02*
X117204295Y-82460291D01*
X117204295Y-82460291D02*
X117242390Y-82346005D01*
X117242390Y-82346005D02*
X117318580Y-82269815D01*
X117318580Y-82269815D02*
X117394771Y-82231720D01*
X117394771Y-82231720D02*
X117547152Y-82193624D01*
X117547152Y-82193624D02*
X117661438Y-82193624D01*
X117661438Y-82193624D02*
X117813819Y-82231720D01*
X117813819Y-82231720D02*
X117890009Y-82269815D01*
X117890009Y-82269815D02*
X117966200Y-82346005D01*
X117966200Y-82346005D02*
X118004295Y-82460291D01*
X118004295Y-82460291D02*
X118004295Y-82650767D01*
X118004295Y-95299339D02*
X117204295Y-95299339D01*
X117204295Y-95299339D02*
X117775723Y-95032673D01*
X117775723Y-95032673D02*
X117204295Y-94766006D01*
X117204295Y-94766006D02*
X118004295Y-94766006D01*
X117470961Y-94042196D02*
X118004295Y-94042196D01*
X117470961Y-94385053D02*
X117890009Y-94385053D01*
X117890009Y-94385053D02*
X117966200Y-94346958D01*
X117966200Y-94346958D02*
X118004295Y-94270768D01*
X118004295Y-94270768D02*
X118004295Y-94156482D01*
X118004295Y-94156482D02*
X117966200Y-94080291D01*
X117966200Y-94080291D02*
X117928104Y-94042196D01*
X117470961Y-93775529D02*
X117470961Y-93470767D01*
X117204295Y-93661243D02*
X117890009Y-93661243D01*
X117890009Y-93661243D02*
X117966200Y-93623148D01*
X117966200Y-93623148D02*
X118004295Y-93546958D01*
X118004295Y-93546958D02*
X118004295Y-93470767D01*
X117966200Y-92899338D02*
X118004295Y-92975529D01*
X118004295Y-92975529D02*
X118004295Y-93127910D01*
X118004295Y-93127910D02*
X117966200Y-93204100D01*
X117966200Y-93204100D02*
X117890009Y-93242196D01*
X117890009Y-93242196D02*
X117585247Y-93242196D01*
X117585247Y-93242196D02*
X117509057Y-93204100D01*
X117509057Y-93204100D02*
X117470961Y-93127910D01*
X117470961Y-93127910D02*
X117470961Y-92975529D01*
X117470961Y-92975529D02*
X117509057Y-92899338D01*
X117509057Y-92899338D02*
X117585247Y-92861243D01*
X117585247Y-92861243D02*
X117661438Y-92861243D01*
X117661438Y-92861243D02*
X117737628Y-93242196D01*
X118004295Y-91908862D02*
X117204295Y-91908862D01*
X117585247Y-91908862D02*
X117585247Y-91451719D01*
X118004295Y-91451719D02*
X117204295Y-91451719D01*
X117166200Y-90499339D02*
X118194771Y-91185053D01*
X117928104Y-89775529D02*
X117966200Y-89813625D01*
X117966200Y-89813625D02*
X118004295Y-89927910D01*
X118004295Y-89927910D02*
X118004295Y-90004101D01*
X118004295Y-90004101D02*
X117966200Y-90118387D01*
X117966200Y-90118387D02*
X117890009Y-90194577D01*
X117890009Y-90194577D02*
X117813819Y-90232672D01*
X117813819Y-90232672D02*
X117661438Y-90270768D01*
X117661438Y-90270768D02*
X117547152Y-90270768D01*
X117547152Y-90270768D02*
X117394771Y-90232672D01*
X117394771Y-90232672D02*
X117318580Y-90194577D01*
X117318580Y-90194577D02*
X117242390Y-90118387D01*
X117242390Y-90118387D02*
X117204295Y-90004101D01*
X117204295Y-90004101D02*
X117204295Y-89927910D01*
X117204295Y-89927910D02*
X117242390Y-89813625D01*
X117242390Y-89813625D02*
X117280485Y-89775529D01*
X118399160Y-125658033D02*
X119008684Y-125658033D01*
X118703922Y-125962795D02*
X118703922Y-125353271D01*
X123479160Y-125658033D02*
X124088684Y-125658033D01*
X151167000Y-119935500D02*
X167677000Y-119935500D01*
X167677000Y-130095500D01*
X151167000Y-130095500D01*
X151167000Y-119935500D01*
X115607000Y-119935500D02*
X127037000Y-119935500D01*
X127037000Y-130095500D01*
X115607000Y-130095500D01*
X115607000Y-119935500D01*
X104177000Y-107235500D02*
X114337000Y-107235500D01*
X114337000Y-123745500D01*
X104177000Y-123745500D01*
X104177000Y-107235500D01*
X133387000Y-119935500D02*
X149897000Y-119935500D01*
X149897000Y-130095500D01*
X133387000Y-130095500D01*
X133387000Y-119935500D01*
X154977000Y-107235500D02*
X171487000Y-107235500D01*
X171487000Y-118665500D01*
X154977000Y-118665500D01*
X154977000Y-107235500D01*
X104177000Y-79295500D02*
X114337000Y-79295500D01*
X114337000Y-97075500D01*
X104177000Y-97075500D01*
X104177000Y-79295500D01*
X189267000Y-107235500D02*
X205777000Y-107235500D01*
X205777000Y-118665500D01*
X189267000Y-118665500D01*
X189267000Y-107235500D01*
X155313779Y-128695319D02*
X155313779Y-127695319D01*
X155313779Y-127695319D02*
X155647112Y-128409604D01*
X155647112Y-128409604D02*
X155980445Y-127695319D01*
X155980445Y-127695319D02*
X155980445Y-128695319D01*
X156885207Y-128028652D02*
X156885207Y-128695319D01*
X156456636Y-128028652D02*
X156456636Y-128552461D01*
X156456636Y-128552461D02*
X156504255Y-128647700D01*
X156504255Y-128647700D02*
X156599493Y-128695319D01*
X156599493Y-128695319D02*
X156742350Y-128695319D01*
X156742350Y-128695319D02*
X156837588Y-128647700D01*
X156837588Y-128647700D02*
X156885207Y-128600080D01*
X157218541Y-128028652D02*
X157599493Y-128028652D01*
X157361398Y-127695319D02*
X157361398Y-128552461D01*
X157361398Y-128552461D02*
X157409017Y-128647700D01*
X157409017Y-128647700D02*
X157504255Y-128695319D01*
X157504255Y-128695319D02*
X157599493Y-128695319D01*
X158313779Y-128647700D02*
X158218541Y-128695319D01*
X158218541Y-128695319D02*
X158028065Y-128695319D01*
X158028065Y-128695319D02*
X157932827Y-128647700D01*
X157932827Y-128647700D02*
X157885208Y-128552461D01*
X157885208Y-128552461D02*
X157885208Y-128171509D01*
X157885208Y-128171509D02*
X157932827Y-128076271D01*
X157932827Y-128076271D02*
X158028065Y-128028652D01*
X158028065Y-128028652D02*
X158218541Y-128028652D01*
X158218541Y-128028652D02*
X158313779Y-128076271D01*
X158313779Y-128076271D02*
X158361398Y-128171509D01*
X158361398Y-128171509D02*
X158361398Y-128266747D01*
X158361398Y-128266747D02*
X157885208Y-128361985D01*
X159504256Y-128647700D02*
X159647113Y-128695319D01*
X159647113Y-128695319D02*
X159885208Y-128695319D01*
X159885208Y-128695319D02*
X159980446Y-128647700D01*
X159980446Y-128647700D02*
X160028065Y-128600080D01*
X160028065Y-128600080D02*
X160075684Y-128504842D01*
X160075684Y-128504842D02*
X160075684Y-128409604D01*
X160075684Y-128409604D02*
X160028065Y-128314366D01*
X160028065Y-128314366D02*
X159980446Y-128266747D01*
X159980446Y-128266747D02*
X159885208Y-128219128D01*
X159885208Y-128219128D02*
X159694732Y-128171509D01*
X159694732Y-128171509D02*
X159599494Y-128123890D01*
X159599494Y-128123890D02*
X159551875Y-128076271D01*
X159551875Y-128076271D02*
X159504256Y-127981033D01*
X159504256Y-127981033D02*
X159504256Y-127885795D01*
X159504256Y-127885795D02*
X159551875Y-127790557D01*
X159551875Y-127790557D02*
X159599494Y-127742938D01*
X159599494Y-127742938D02*
X159694732Y-127695319D01*
X159694732Y-127695319D02*
X159932827Y-127695319D01*
X159932827Y-127695319D02*
X160075684Y-127742938D01*
X160409018Y-128028652D02*
X160599494Y-128695319D01*
X160599494Y-128695319D02*
X160789970Y-128219128D01*
X160789970Y-128219128D02*
X160980446Y-128695319D01*
X160980446Y-128695319D02*
X161170922Y-128028652D01*
X161551875Y-128695319D02*
X161551875Y-128028652D01*
X161551875Y-127695319D02*
X161504256Y-127742938D01*
X161504256Y-127742938D02*
X161551875Y-127790557D01*
X161551875Y-127790557D02*
X161599494Y-127742938D01*
X161599494Y-127742938D02*
X161551875Y-127695319D01*
X161551875Y-127695319D02*
X161551875Y-127790557D01*
X161885208Y-128028652D02*
X162266160Y-128028652D01*
X162028065Y-127695319D02*
X162028065Y-128552461D01*
X162028065Y-128552461D02*
X162075684Y-128647700D01*
X162075684Y-128647700D02*
X162170922Y-128695319D01*
X162170922Y-128695319D02*
X162266160Y-128695319D01*
X163028065Y-128647700D02*
X162932827Y-128695319D01*
X162932827Y-128695319D02*
X162742351Y-128695319D01*
X162742351Y-128695319D02*
X162647113Y-128647700D01*
X162647113Y-128647700D02*
X162599494Y-128600080D01*
X162599494Y-128600080D02*
X162551875Y-128504842D01*
X162551875Y-128504842D02*
X162551875Y-128219128D01*
X162551875Y-128219128D02*
X162599494Y-128123890D01*
X162599494Y-128123890D02*
X162647113Y-128076271D01*
X162647113Y-128076271D02*
X162742351Y-128028652D01*
X162742351Y-128028652D02*
X162932827Y-128028652D01*
X162932827Y-128028652D02*
X163028065Y-128076271D01*
X163456637Y-128695319D02*
X163456637Y-127695319D01*
X163885208Y-128695319D02*
X163885208Y-128171509D01*
X163885208Y-128171509D02*
X163837589Y-128076271D01*
X163837589Y-128076271D02*
X163742351Y-128028652D01*
X163742351Y-128028652D02*
X163599494Y-128028652D01*
X163599494Y-128028652D02*
X163504256Y-128076271D01*
X163504256Y-128076271D02*
X163456637Y-128123890D01*
X112936819Y-118328720D02*
X111936819Y-118328720D01*
X112270152Y-117852530D02*
X112936819Y-117852530D01*
X112365390Y-117852530D02*
X112317771Y-117804911D01*
X112317771Y-117804911D02*
X112270152Y-117709673D01*
X112270152Y-117709673D02*
X112270152Y-117566816D01*
X112270152Y-117566816D02*
X112317771Y-117471578D01*
X112317771Y-117471578D02*
X112413009Y-117423959D01*
X112413009Y-117423959D02*
X112936819Y-117423959D01*
X112270152Y-116947768D02*
X113270152Y-116947768D01*
X112317771Y-116947768D02*
X112270152Y-116852530D01*
X112270152Y-116852530D02*
X112270152Y-116662054D01*
X112270152Y-116662054D02*
X112317771Y-116566816D01*
X112317771Y-116566816D02*
X112365390Y-116519197D01*
X112365390Y-116519197D02*
X112460628Y-116471578D01*
X112460628Y-116471578D02*
X112746342Y-116471578D01*
X112746342Y-116471578D02*
X112841580Y-116519197D01*
X112841580Y-116519197D02*
X112889200Y-116566816D01*
X112889200Y-116566816D02*
X112936819Y-116662054D01*
X112936819Y-116662054D02*
X112936819Y-116852530D01*
X112936819Y-116852530D02*
X112889200Y-116947768D01*
X112270152Y-115614435D02*
X112936819Y-115614435D01*
X112270152Y-116043006D02*
X112793961Y-116043006D01*
X112793961Y-116043006D02*
X112889200Y-115995387D01*
X112889200Y-115995387D02*
X112936819Y-115900149D01*
X112936819Y-115900149D02*
X112936819Y-115757292D01*
X112936819Y-115757292D02*
X112889200Y-115662054D01*
X112889200Y-115662054D02*
X112841580Y-115614435D01*
X112270152Y-115281101D02*
X112270152Y-114900149D01*
X111936819Y-115138244D02*
X112793961Y-115138244D01*
X112793961Y-115138244D02*
X112889200Y-115090625D01*
X112889200Y-115090625D02*
X112936819Y-114995387D01*
X112936819Y-114995387D02*
X112936819Y-114900149D01*
X112032057Y-113852529D02*
X111984438Y-113804910D01*
X111984438Y-113804910D02*
X111936819Y-113709672D01*
X111936819Y-113709672D02*
X111936819Y-113471577D01*
X111936819Y-113471577D02*
X111984438Y-113376339D01*
X111984438Y-113376339D02*
X112032057Y-113328720D01*
X112032057Y-113328720D02*
X112127295Y-113281101D01*
X112127295Y-113281101D02*
X112222533Y-113281101D01*
X112222533Y-113281101D02*
X112365390Y-113328720D01*
X112365390Y-113328720D02*
X112936819Y-113900148D01*
X112936819Y-113900148D02*
X112936819Y-113281101D01*
X112936819Y-90388720D02*
X111936819Y-90388720D01*
X112270152Y-89912530D02*
X112936819Y-89912530D01*
X112365390Y-89912530D02*
X112317771Y-89864911D01*
X112317771Y-89864911D02*
X112270152Y-89769673D01*
X112270152Y-89769673D02*
X112270152Y-89626816D01*
X112270152Y-89626816D02*
X112317771Y-89531578D01*
X112317771Y-89531578D02*
X112413009Y-89483959D01*
X112413009Y-89483959D02*
X112936819Y-89483959D01*
X112270152Y-89007768D02*
X113270152Y-89007768D01*
X112317771Y-89007768D02*
X112270152Y-88912530D01*
X112270152Y-88912530D02*
X112270152Y-88722054D01*
X112270152Y-88722054D02*
X112317771Y-88626816D01*
X112317771Y-88626816D02*
X112365390Y-88579197D01*
X112365390Y-88579197D02*
X112460628Y-88531578D01*
X112460628Y-88531578D02*
X112746342Y-88531578D01*
X112746342Y-88531578D02*
X112841580Y-88579197D01*
X112841580Y-88579197D02*
X112889200Y-88626816D01*
X112889200Y-88626816D02*
X112936819Y-88722054D01*
X112936819Y-88722054D02*
X112936819Y-88912530D01*
X112936819Y-88912530D02*
X112889200Y-89007768D01*
X112270152Y-87674435D02*
X112936819Y-87674435D01*
X112270152Y-88103006D02*
X112793961Y-88103006D01*
X112793961Y-88103006D02*
X112889200Y-88055387D01*
X112889200Y-88055387D02*
X112936819Y-87960149D01*
X112936819Y-87960149D02*
X112936819Y-87817292D01*
X112936819Y-87817292D02*
X112889200Y-87722054D01*
X112889200Y-87722054D02*
X112841580Y-87674435D01*
X112270152Y-87341101D02*
X112270152Y-86960149D01*
X111936819Y-87198244D02*
X112793961Y-87198244D01*
X112793961Y-87198244D02*
X112889200Y-87150625D01*
X112889200Y-87150625D02*
X112936819Y-87055387D01*
X112936819Y-87055387D02*
X112936819Y-86960149D01*
X112936819Y-85341101D02*
X112936819Y-85912529D01*
X112936819Y-85626815D02*
X111936819Y-85626815D01*
X111936819Y-85626815D02*
X112079676Y-85722053D01*
X112079676Y-85722053D02*
X112174914Y-85817291D01*
X112174914Y-85817291D02*
X112222533Y-85912529D01*
X195159969Y-109645319D02*
X194683779Y-109645319D01*
X194683779Y-109645319D02*
X194683779Y-108645319D01*
X195493303Y-109121509D02*
X195826636Y-109121509D01*
X195969493Y-109645319D02*
X195493303Y-109645319D01*
X195493303Y-109645319D02*
X195493303Y-108645319D01*
X195493303Y-108645319D02*
X195969493Y-108645319D01*
X196398065Y-109645319D02*
X196398065Y-108645319D01*
X196398065Y-108645319D02*
X196636160Y-108645319D01*
X196636160Y-108645319D02*
X196779017Y-108692938D01*
X196779017Y-108692938D02*
X196874255Y-108788176D01*
X196874255Y-108788176D02*
X196921874Y-108883414D01*
X196921874Y-108883414D02*
X196969493Y-109073890D01*
X196969493Y-109073890D02*
X196969493Y-109216747D01*
X196969493Y-109216747D02*
X196921874Y-109407223D01*
X196921874Y-109407223D02*
X196874255Y-109502461D01*
X196874255Y-109502461D02*
X196779017Y-109597700D01*
X196779017Y-109597700D02*
X196636160Y-109645319D01*
X196636160Y-109645319D02*
X196398065Y-109645319D01*
X198159970Y-109645319D02*
X198159970Y-108645319D01*
X198159970Y-108645319D02*
X198540922Y-108645319D01*
X198540922Y-108645319D02*
X198636160Y-108692938D01*
X198636160Y-108692938D02*
X198683779Y-108740557D01*
X198683779Y-108740557D02*
X198731398Y-108835795D01*
X198731398Y-108835795D02*
X198731398Y-108978652D01*
X198731398Y-108978652D02*
X198683779Y-109073890D01*
X198683779Y-109073890D02*
X198636160Y-109121509D01*
X198636160Y-109121509D02*
X198540922Y-109169128D01*
X198540922Y-109169128D02*
X198159970Y-109169128D01*
X199588541Y-109645319D02*
X199588541Y-109121509D01*
X199588541Y-109121509D02*
X199540922Y-109026271D01*
X199540922Y-109026271D02*
X199445684Y-108978652D01*
X199445684Y-108978652D02*
X199255208Y-108978652D01*
X199255208Y-108978652D02*
X199159970Y-109026271D01*
X199588541Y-109597700D02*
X199493303Y-109645319D01*
X199493303Y-109645319D02*
X199255208Y-109645319D01*
X199255208Y-109645319D02*
X199159970Y-109597700D01*
X199159970Y-109597700D02*
X199112351Y-109502461D01*
X199112351Y-109502461D02*
X199112351Y-109407223D01*
X199112351Y-109407223D02*
X199159970Y-109311985D01*
X199159970Y-109311985D02*
X199255208Y-109264366D01*
X199255208Y-109264366D02*
X199493303Y-109264366D01*
X199493303Y-109264366D02*
X199588541Y-109216747D01*
X200064732Y-108978652D02*
X200064732Y-109645319D01*
X200064732Y-109073890D02*
X200112351Y-109026271D01*
X200112351Y-109026271D02*
X200207589Y-108978652D01*
X200207589Y-108978652D02*
X200350446Y-108978652D01*
X200350446Y-108978652D02*
X200445684Y-109026271D01*
X200445684Y-109026271D02*
X200493303Y-109121509D01*
X200493303Y-109121509D02*
X200493303Y-109645319D01*
X201350446Y-109597700D02*
X201255208Y-109645319D01*
X201255208Y-109645319D02*
X201064732Y-109645319D01*
X201064732Y-109645319D02*
X200969494Y-109597700D01*
X200969494Y-109597700D02*
X200921875Y-109502461D01*
X200921875Y-109502461D02*
X200921875Y-109121509D01*
X200921875Y-109121509D02*
X200969494Y-109026271D01*
X200969494Y-109026271D02*
X201064732Y-108978652D01*
X201064732Y-108978652D02*
X201255208Y-108978652D01*
X201255208Y-108978652D02*
X201350446Y-109026271D01*
X201350446Y-109026271D02*
X201398065Y-109121509D01*
X201398065Y-109121509D02*
X201398065Y-109216747D01*
X201398065Y-109216747D02*
X200921875Y-109311985D01*
X201969494Y-109645319D02*
X201874256Y-109597700D01*
X201874256Y-109597700D02*
X201826637Y-109502461D01*
X201826637Y-109502461D02*
X201826637Y-108645319D01*
X160584255Y-108645319D02*
X160774731Y-108645319D01*
X160774731Y-108645319D02*
X160869969Y-108692938D01*
X160869969Y-108692938D02*
X160965207Y-108788176D01*
X160965207Y-108788176D02*
X161012826Y-108978652D01*
X161012826Y-108978652D02*
X161012826Y-109311985D01*
X161012826Y-109311985D02*
X160965207Y-109502461D01*
X160965207Y-109502461D02*
X160869969Y-109597700D01*
X160869969Y-109597700D02*
X160774731Y-109645319D01*
X160774731Y-109645319D02*
X160584255Y-109645319D01*
X160584255Y-109645319D02*
X160489017Y-109597700D01*
X160489017Y-109597700D02*
X160393779Y-109502461D01*
X160393779Y-109502461D02*
X160346160Y-109311985D01*
X160346160Y-109311985D02*
X160346160Y-108978652D01*
X160346160Y-108978652D02*
X160393779Y-108788176D01*
X160393779Y-108788176D02*
X160489017Y-108692938D01*
X160489017Y-108692938D02*
X160584255Y-108645319D01*
X161869969Y-108978652D02*
X161869969Y-109645319D01*
X161441398Y-108978652D02*
X161441398Y-109502461D01*
X161441398Y-109502461D02*
X161489017Y-109597700D01*
X161489017Y-109597700D02*
X161584255Y-109645319D01*
X161584255Y-109645319D02*
X161727112Y-109645319D01*
X161727112Y-109645319D02*
X161822350Y-109597700D01*
X161822350Y-109597700D02*
X161869969Y-109550080D01*
X162203303Y-108978652D02*
X162584255Y-108978652D01*
X162346160Y-108645319D02*
X162346160Y-109502461D01*
X162346160Y-109502461D02*
X162393779Y-109597700D01*
X162393779Y-109597700D02*
X162489017Y-109645319D01*
X162489017Y-109645319D02*
X162584255Y-109645319D01*
X162917589Y-108978652D02*
X162917589Y-109978652D01*
X162917589Y-109026271D02*
X163012827Y-108978652D01*
X163012827Y-108978652D02*
X163203303Y-108978652D01*
X163203303Y-108978652D02*
X163298541Y-109026271D01*
X163298541Y-109026271D02*
X163346160Y-109073890D01*
X163346160Y-109073890D02*
X163393779Y-109169128D01*
X163393779Y-109169128D02*
X163393779Y-109454842D01*
X163393779Y-109454842D02*
X163346160Y-109550080D01*
X163346160Y-109550080D02*
X163298541Y-109597700D01*
X163298541Y-109597700D02*
X163203303Y-109645319D01*
X163203303Y-109645319D02*
X163012827Y-109645319D01*
X163012827Y-109645319D02*
X162917589Y-109597700D01*
X164250922Y-108978652D02*
X164250922Y-109645319D01*
X163822351Y-108978652D02*
X163822351Y-109502461D01*
X163822351Y-109502461D02*
X163869970Y-109597700D01*
X163869970Y-109597700D02*
X163965208Y-109645319D01*
X163965208Y-109645319D02*
X164108065Y-109645319D01*
X164108065Y-109645319D02*
X164203303Y-109597700D01*
X164203303Y-109597700D02*
X164250922Y-109550080D01*
X164584256Y-108978652D02*
X164965208Y-108978652D01*
X164727113Y-108645319D02*
X164727113Y-109502461D01*
X164727113Y-109502461D02*
X164774732Y-109597700D01*
X164774732Y-109597700D02*
X164869970Y-109645319D01*
X164869970Y-109645319D02*
X164965208Y-109645319D01*
X137533779Y-128695319D02*
X137533779Y-127695319D01*
X138009969Y-128028652D02*
X138009969Y-128695319D01*
X138009969Y-128123890D02*
X138057588Y-128076271D01*
X138057588Y-128076271D02*
X138152826Y-128028652D01*
X138152826Y-128028652D02*
X138295683Y-128028652D01*
X138295683Y-128028652D02*
X138390921Y-128076271D01*
X138390921Y-128076271D02*
X138438540Y-128171509D01*
X138438540Y-128171509D02*
X138438540Y-128695319D01*
X138914731Y-128028652D02*
X138914731Y-129028652D01*
X138914731Y-128076271D02*
X139009969Y-128028652D01*
X139009969Y-128028652D02*
X139200445Y-128028652D01*
X139200445Y-128028652D02*
X139295683Y-128076271D01*
X139295683Y-128076271D02*
X139343302Y-128123890D01*
X139343302Y-128123890D02*
X139390921Y-128219128D01*
X139390921Y-128219128D02*
X139390921Y-128504842D01*
X139390921Y-128504842D02*
X139343302Y-128600080D01*
X139343302Y-128600080D02*
X139295683Y-128647700D01*
X139295683Y-128647700D02*
X139200445Y-128695319D01*
X139200445Y-128695319D02*
X139009969Y-128695319D01*
X139009969Y-128695319D02*
X138914731Y-128647700D01*
X140248064Y-128028652D02*
X140248064Y-128695319D01*
X139819493Y-128028652D02*
X139819493Y-128552461D01*
X139819493Y-128552461D02*
X139867112Y-128647700D01*
X139867112Y-128647700D02*
X139962350Y-128695319D01*
X139962350Y-128695319D02*
X140105207Y-128695319D01*
X140105207Y-128695319D02*
X140200445Y-128647700D01*
X140200445Y-128647700D02*
X140248064Y-128600080D01*
X140581398Y-128028652D02*
X140962350Y-128028652D01*
X140724255Y-127695319D02*
X140724255Y-128552461D01*
X140724255Y-128552461D02*
X140771874Y-128647700D01*
X140771874Y-128647700D02*
X140867112Y-128695319D01*
X140867112Y-128695319D02*
X140962350Y-128695319D01*
X142009970Y-128647700D02*
X142152827Y-128695319D01*
X142152827Y-128695319D02*
X142390922Y-128695319D01*
X142390922Y-128695319D02*
X142486160Y-128647700D01*
X142486160Y-128647700D02*
X142533779Y-128600080D01*
X142533779Y-128600080D02*
X142581398Y-128504842D01*
X142581398Y-128504842D02*
X142581398Y-128409604D01*
X142581398Y-128409604D02*
X142533779Y-128314366D01*
X142533779Y-128314366D02*
X142486160Y-128266747D01*
X142486160Y-128266747D02*
X142390922Y-128219128D01*
X142390922Y-128219128D02*
X142200446Y-128171509D01*
X142200446Y-128171509D02*
X142105208Y-128123890D01*
X142105208Y-128123890D02*
X142057589Y-128076271D01*
X142057589Y-128076271D02*
X142009970Y-127981033D01*
X142009970Y-127981033D02*
X142009970Y-127885795D01*
X142009970Y-127885795D02*
X142057589Y-127790557D01*
X142057589Y-127790557D02*
X142105208Y-127742938D01*
X142105208Y-127742938D02*
X142200446Y-127695319D01*
X142200446Y-127695319D02*
X142438541Y-127695319D01*
X142438541Y-127695319D02*
X142581398Y-127742938D01*
X142914732Y-128028652D02*
X143105208Y-128695319D01*
X143105208Y-128695319D02*
X143295684Y-128219128D01*
X143295684Y-128219128D02*
X143486160Y-128695319D01*
X143486160Y-128695319D02*
X143676636Y-128028652D01*
X144057589Y-128695319D02*
X144057589Y-128028652D01*
X144057589Y-127695319D02*
X144009970Y-127742938D01*
X144009970Y-127742938D02*
X144057589Y-127790557D01*
X144057589Y-127790557D02*
X144105208Y-127742938D01*
X144105208Y-127742938D02*
X144057589Y-127695319D01*
X144057589Y-127695319D02*
X144057589Y-127790557D01*
X144390922Y-128028652D02*
X144771874Y-128028652D01*
X144533779Y-127695319D02*
X144533779Y-128552461D01*
X144533779Y-128552461D02*
X144581398Y-128647700D01*
X144581398Y-128647700D02*
X144676636Y-128695319D01*
X144676636Y-128695319D02*
X144771874Y-128695319D01*
X145533779Y-128647700D02*
X145438541Y-128695319D01*
X145438541Y-128695319D02*
X145248065Y-128695319D01*
X145248065Y-128695319D02*
X145152827Y-128647700D01*
X145152827Y-128647700D02*
X145105208Y-128600080D01*
X145105208Y-128600080D02*
X145057589Y-128504842D01*
X145057589Y-128504842D02*
X145057589Y-128219128D01*
X145057589Y-128219128D02*
X145105208Y-128123890D01*
X145105208Y-128123890D02*
X145152827Y-128076271D01*
X145152827Y-128076271D02*
X145248065Y-128028652D01*
X145248065Y-128028652D02*
X145438541Y-128028652D01*
X145438541Y-128028652D02*
X145533779Y-128076271D01*
X145962351Y-128695319D02*
X145962351Y-127695319D01*
X146390922Y-128695319D02*
X146390922Y-128171509D01*
X146390922Y-128171509D02*
X146343303Y-128076271D01*
X146343303Y-128076271D02*
X146248065Y-128028652D01*
X146248065Y-128028652D02*
X146105208Y-128028652D01*
X146105208Y-128028652D02*
X146009970Y-128076271D01*
X146009970Y-128076271D02*
X145962351Y-128123890D01*
X118959969Y-127695319D02*
X118483779Y-127695319D01*
X118483779Y-127695319D02*
X118436160Y-128171509D01*
X118436160Y-128171509D02*
X118483779Y-128123890D01*
X118483779Y-128123890D02*
X118579017Y-128076271D01*
X118579017Y-128076271D02*
X118817112Y-128076271D01*
X118817112Y-128076271D02*
X118912350Y-128123890D01*
X118912350Y-128123890D02*
X118959969Y-128171509D01*
X118959969Y-128171509D02*
X119007588Y-128266747D01*
X119007588Y-128266747D02*
X119007588Y-128504842D01*
X119007588Y-128504842D02*
X118959969Y-128600080D01*
X118959969Y-128600080D02*
X118912350Y-128647700D01*
X118912350Y-128647700D02*
X118817112Y-128695319D01*
X118817112Y-128695319D02*
X118579017Y-128695319D01*
X118579017Y-128695319D02*
X118483779Y-128647700D01*
X118483779Y-128647700D02*
X118436160Y-128600080D01*
X119293303Y-127695319D02*
X119626636Y-128695319D01*
X119626636Y-128695319D02*
X119959969Y-127695319D01*
X121055208Y-128695319D02*
X121055208Y-127695319D01*
X121055208Y-127695319D02*
X121293303Y-127695319D01*
X121293303Y-127695319D02*
X121436160Y-127742938D01*
X121436160Y-127742938D02*
X121531398Y-127838176D01*
X121531398Y-127838176D02*
X121579017Y-127933414D01*
X121579017Y-127933414D02*
X121626636Y-128123890D01*
X121626636Y-128123890D02*
X121626636Y-128266747D01*
X121626636Y-128266747D02*
X121579017Y-128457223D01*
X121579017Y-128457223D02*
X121531398Y-128552461D01*
X121531398Y-128552461D02*
X121436160Y-128647700D01*
X121436160Y-128647700D02*
X121293303Y-128695319D01*
X121293303Y-128695319D02*
X121055208Y-128695319D01*
X122626636Y-128600080D02*
X122579017Y-128647700D01*
X122579017Y-128647700D02*
X122436160Y-128695319D01*
X122436160Y-128695319D02*
X122340922Y-128695319D01*
X122340922Y-128695319D02*
X122198065Y-128647700D01*
X122198065Y-128647700D02*
X122102827Y-128552461D01*
X122102827Y-128552461D02*
X122055208Y-128457223D01*
X122055208Y-128457223D02*
X122007589Y-128266747D01*
X122007589Y-128266747D02*
X122007589Y-128123890D01*
X122007589Y-128123890D02*
X122055208Y-127933414D01*
X122055208Y-127933414D02*
X122102827Y-127838176D01*
X122102827Y-127838176D02*
X122198065Y-127742938D01*
X122198065Y-127742938D02*
X122340922Y-127695319D01*
X122340922Y-127695319D02*
X122436160Y-127695319D01*
X122436160Y-127695319D02*
X122579017Y-127742938D01*
X122579017Y-127742938D02*
X122626636Y-127790557D01*
X123817113Y-128695319D02*
X123817113Y-127695319D01*
X124293303Y-128028652D02*
X124293303Y-128695319D01*
X124293303Y-128123890D02*
X124340922Y-128076271D01*
X124340922Y-128076271D02*
X124436160Y-128028652D01*
X124436160Y-128028652D02*
X124579017Y-128028652D01*
X124579017Y-128028652D02*
X124674255Y-128076271D01*
X124674255Y-128076271D02*
X124721874Y-128171509D01*
X124721874Y-128171509D02*
X124721874Y-128695319D01*
X135625476Y-120730319D02*
X135625476Y-121444604D01*
X135625476Y-121444604D02*
X135577857Y-121587461D01*
X135577857Y-121587461D02*
X135482619Y-121682700D01*
X135482619Y-121682700D02*
X135339762Y-121730319D01*
X135339762Y-121730319D02*
X135244524Y-121730319D01*
X136006429Y-120730319D02*
X136625476Y-120730319D01*
X136625476Y-120730319D02*
X136292143Y-121111271D01*
X136292143Y-121111271D02*
X136435000Y-121111271D01*
X136435000Y-121111271D02*
X136530238Y-121158890D01*
X136530238Y-121158890D02*
X136577857Y-121206509D01*
X136577857Y-121206509D02*
X136625476Y-121301747D01*
X136625476Y-121301747D02*
X136625476Y-121539842D01*
X136625476Y-121539842D02*
X136577857Y-121635080D01*
X136577857Y-121635080D02*
X136530238Y-121682700D01*
X136530238Y-121682700D02*
X136435000Y-121730319D01*
X136435000Y-121730319D02*
X136149286Y-121730319D01*
X136149286Y-121730319D02*
X136054048Y-121682700D01*
X136054048Y-121682700D02*
X136006429Y-121635080D01*
X137482619Y-120730319D02*
X137292143Y-120730319D01*
X137292143Y-120730319D02*
X137196905Y-120777938D01*
X137196905Y-120777938D02*
X137149286Y-120825557D01*
X137149286Y-120825557D02*
X137054048Y-120968414D01*
X137054048Y-120968414D02*
X137006429Y-121158890D01*
X137006429Y-121158890D02*
X137006429Y-121539842D01*
X137006429Y-121539842D02*
X137054048Y-121635080D01*
X137054048Y-121635080D02*
X137101667Y-121682700D01*
X137101667Y-121682700D02*
X137196905Y-121730319D01*
X137196905Y-121730319D02*
X137387381Y-121730319D01*
X137387381Y-121730319D02*
X137482619Y-121682700D01*
X137482619Y-121682700D02*
X137530238Y-121635080D01*
X137530238Y-121635080D02*
X137577857Y-121539842D01*
X137577857Y-121539842D02*
X137577857Y-121301747D01*
X137577857Y-121301747D02*
X137530238Y-121206509D01*
X137530238Y-121206509D02*
X137482619Y-121158890D01*
X137482619Y-121158890D02*
X137387381Y-121111271D01*
X137387381Y-121111271D02*
X137196905Y-121111271D01*
X137196905Y-121111271D02*
X137101667Y-121158890D01*
X137101667Y-121158890D02*
X137054048Y-121206509D01*
X137054048Y-121206509D02*
X137006429Y-121301747D01*
X145785476Y-120730319D02*
X145785476Y-121444604D01*
X145785476Y-121444604D02*
X145737857Y-121587461D01*
X145737857Y-121587461D02*
X145642619Y-121682700D01*
X145642619Y-121682700D02*
X145499762Y-121730319D01*
X145499762Y-121730319D02*
X145404524Y-121730319D01*
X146166429Y-120730319D02*
X146785476Y-120730319D01*
X146785476Y-120730319D02*
X146452143Y-121111271D01*
X146452143Y-121111271D02*
X146595000Y-121111271D01*
X146595000Y-121111271D02*
X146690238Y-121158890D01*
X146690238Y-121158890D02*
X146737857Y-121206509D01*
X146737857Y-121206509D02*
X146785476Y-121301747D01*
X146785476Y-121301747D02*
X146785476Y-121539842D01*
X146785476Y-121539842D02*
X146737857Y-121635080D01*
X146737857Y-121635080D02*
X146690238Y-121682700D01*
X146690238Y-121682700D02*
X146595000Y-121730319D01*
X146595000Y-121730319D02*
X146309286Y-121730319D01*
X146309286Y-121730319D02*
X146214048Y-121682700D01*
X146214048Y-121682700D02*
X146166429Y-121635080D01*
X147261667Y-121730319D02*
X147452143Y-121730319D01*
X147452143Y-121730319D02*
X147547381Y-121682700D01*
X147547381Y-121682700D02*
X147595000Y-121635080D01*
X147595000Y-121635080D02*
X147690238Y-121492223D01*
X147690238Y-121492223D02*
X147737857Y-121301747D01*
X147737857Y-121301747D02*
X147737857Y-120920795D01*
X147737857Y-120920795D02*
X147690238Y-120825557D01*
X147690238Y-120825557D02*
X147642619Y-120777938D01*
X147642619Y-120777938D02*
X147547381Y-120730319D01*
X147547381Y-120730319D02*
X147356905Y-120730319D01*
X147356905Y-120730319D02*
X147261667Y-120777938D01*
X147261667Y-120777938D02*
X147214048Y-120825557D01*
X147214048Y-120825557D02*
X147166429Y-120920795D01*
X147166429Y-120920795D02*
X147166429Y-121158890D01*
X147166429Y-121158890D02*
X147214048Y-121254128D01*
X147214048Y-121254128D02*
X147261667Y-121301747D01*
X147261667Y-121301747D02*
X147356905Y-121349366D01*
X147356905Y-121349366D02*
X147547381Y-121349366D01*
X147547381Y-121349366D02*
X147642619Y-121301747D01*
X147642619Y-121301747D02*
X147690238Y-121254128D01*
X147690238Y-121254128D02*
X147737857Y-121158890D01*
X184679819Y-85462833D02*
X185394104Y-85462833D01*
X185394104Y-85462833D02*
X185536961Y-85510452D01*
X185536961Y-85510452D02*
X185632200Y-85605690D01*
X185632200Y-85605690D02*
X185679819Y-85748547D01*
X185679819Y-85748547D02*
X185679819Y-85843785D01*
X185679819Y-84986642D02*
X184679819Y-84986642D01*
X184679819Y-84986642D02*
X184679819Y-84605690D01*
X184679819Y-84605690D02*
X184727438Y-84510452D01*
X184727438Y-84510452D02*
X184775057Y-84462833D01*
X184775057Y-84462833D02*
X184870295Y-84415214D01*
X184870295Y-84415214D02*
X185013152Y-84415214D01*
X185013152Y-84415214D02*
X185108390Y-84462833D01*
X185108390Y-84462833D02*
X185156009Y-84510452D01*
X185156009Y-84510452D02*
X185203628Y-84605690D01*
X185203628Y-84605690D02*
X185203628Y-84986642D01*
X184679819Y-83558071D02*
X184679819Y-83748547D01*
X184679819Y-83748547D02*
X184727438Y-83843785D01*
X184727438Y-83843785D02*
X184775057Y-83891404D01*
X184775057Y-83891404D02*
X184917914Y-83986642D01*
X184917914Y-83986642D02*
X185108390Y-84034261D01*
X185108390Y-84034261D02*
X185489342Y-84034261D01*
X185489342Y-84034261D02*
X185584580Y-83986642D01*
X185584580Y-83986642D02*
X185632200Y-83939023D01*
X185632200Y-83939023D02*
X185679819Y-83843785D01*
X185679819Y-83843785D02*
X185679819Y-83653309D01*
X185679819Y-83653309D02*
X185632200Y-83558071D01*
X185632200Y-83558071D02*
X185584580Y-83510452D01*
X185584580Y-83510452D02*
X185489342Y-83462833D01*
X185489342Y-83462833D02*
X185251247Y-83462833D01*
X185251247Y-83462833D02*
X185156009Y-83510452D01*
X185156009Y-83510452D02*
X185108390Y-83558071D01*
X185108390Y-83558071D02*
X185060771Y-83653309D01*
X185060771Y-83653309D02*
X185060771Y-83843785D01*
X185060771Y-83843785D02*
X185108390Y-83939023D01*
X185108390Y-83939023D02*
X185156009Y-83986642D01*
X185156009Y-83986642D02*
X185251247Y-84034261D01*
X108181666Y-107760319D02*
X108181666Y-108474604D01*
X108181666Y-108474604D02*
X108134047Y-108617461D01*
X108134047Y-108617461D02*
X108038809Y-108712700D01*
X108038809Y-108712700D02*
X107895952Y-108760319D01*
X107895952Y-108760319D02*
X107800714Y-108760319D01*
X108562619Y-107760319D02*
X109181666Y-107760319D01*
X109181666Y-107760319D02*
X108848333Y-108141271D01*
X108848333Y-108141271D02*
X108991190Y-108141271D01*
X108991190Y-108141271D02*
X109086428Y-108188890D01*
X109086428Y-108188890D02*
X109134047Y-108236509D01*
X109134047Y-108236509D02*
X109181666Y-108331747D01*
X109181666Y-108331747D02*
X109181666Y-108569842D01*
X109181666Y-108569842D02*
X109134047Y-108665080D01*
X109134047Y-108665080D02*
X109086428Y-108712700D01*
X109086428Y-108712700D02*
X108991190Y-108760319D01*
X108991190Y-108760319D02*
X108705476Y-108760319D01*
X108705476Y-108760319D02*
X108610238Y-108712700D01*
X108610238Y-108712700D02*
X108562619Y-108665080D01*
X178320718Y-76654819D02*
X177987385Y-76178628D01*
X177749290Y-76654819D02*
X177749290Y-75654819D01*
X177749290Y-75654819D02*
X178130242Y-75654819D01*
X178130242Y-75654819D02*
X178225480Y-75702438D01*
X178225480Y-75702438D02*
X178273099Y-75750057D01*
X178273099Y-75750057D02*
X178320718Y-75845295D01*
X178320718Y-75845295D02*
X178320718Y-75988152D01*
X178320718Y-75988152D02*
X178273099Y-76083390D01*
X178273099Y-76083390D02*
X178225480Y-76131009D01*
X178225480Y-76131009D02*
X178130242Y-76178628D01*
X178130242Y-76178628D02*
X177749290Y-76178628D01*
X178749290Y-76131009D02*
X179082623Y-76131009D01*
X179225480Y-76654819D02*
X178749290Y-76654819D01*
X178749290Y-76654819D02*
X178749290Y-75654819D01*
X178749290Y-75654819D02*
X179225480Y-75654819D01*
X179987385Y-76131009D02*
X179654052Y-76131009D01*
X179654052Y-76654819D02*
X179654052Y-75654819D01*
X179654052Y-75654819D02*
X180130242Y-75654819D01*
X180654052Y-75654819D02*
X180654052Y-75892914D01*
X180415957Y-75797676D02*
X180654052Y-75892914D01*
X180654052Y-75892914D02*
X180892147Y-75797676D01*
X180511195Y-76083390D02*
X180654052Y-75892914D01*
X180654052Y-75892914D02*
X180796909Y-76083390D01*
X181415957Y-75654819D02*
X181415957Y-75892914D01*
X181177862Y-75797676D02*
X181415957Y-75892914D01*
X181415957Y-75892914D02*
X181654052Y-75797676D01*
X181273100Y-76083390D02*
X181415957Y-75892914D01*
X181415957Y-75892914D02*
X181558814Y-76083390D01*
X173796905Y-77464319D02*
X173796905Y-76464319D01*
X173796905Y-76464319D02*
X174035000Y-76464319D01*
X174035000Y-76464319D02*
X174177857Y-76511938D01*
X174177857Y-76511938D02*
X174273095Y-76607176D01*
X174273095Y-76607176D02*
X174320714Y-76702414D01*
X174320714Y-76702414D02*
X174368333Y-76892890D01*
X174368333Y-76892890D02*
X174368333Y-77035747D01*
X174368333Y-77035747D02*
X174320714Y-77226223D01*
X174320714Y-77226223D02*
X174273095Y-77321461D01*
X174273095Y-77321461D02*
X174177857Y-77416700D01*
X174177857Y-77416700D02*
X174035000Y-77464319D01*
X174035000Y-77464319D02*
X173796905Y-77464319D01*
X175225476Y-76464319D02*
X175035000Y-76464319D01*
X175035000Y-76464319D02*
X174939762Y-76511938D01*
X174939762Y-76511938D02*
X174892143Y-76559557D01*
X174892143Y-76559557D02*
X174796905Y-76702414D01*
X174796905Y-76702414D02*
X174749286Y-76892890D01*
X174749286Y-76892890D02*
X174749286Y-77273842D01*
X174749286Y-77273842D02*
X174796905Y-77369080D01*
X174796905Y-77369080D02*
X174844524Y-77416700D01*
X174844524Y-77416700D02*
X174939762Y-77464319D01*
X174939762Y-77464319D02*
X175130238Y-77464319D01*
X175130238Y-77464319D02*
X175225476Y-77416700D01*
X175225476Y-77416700D02*
X175273095Y-77369080D01*
X175273095Y-77369080D02*
X175320714Y-77273842D01*
X175320714Y-77273842D02*
X175320714Y-77035747D01*
X175320714Y-77035747D02*
X175273095Y-76940509D01*
X175273095Y-76940509D02*
X175225476Y-76892890D01*
X175225476Y-76892890D02*
X175130238Y-76845271D01*
X175130238Y-76845271D02*
X174939762Y-76845271D01*
X174939762Y-76845271D02*
X174844524Y-76892890D01*
X174844524Y-76892890D02*
X174796905Y-76940509D01*
X174796905Y-76940509D02*
X174749286Y-77035747D01*
X178083095Y-81550319D02*
X178083095Y-80550319D01*
X178654523Y-81550319D02*
X178225952Y-80978890D01*
X178654523Y-80550319D02*
X178083095Y-81121747D01*
X143785819Y-93447023D02*
X144500104Y-93447023D01*
X144500104Y-93447023D02*
X144642961Y-93494642D01*
X144642961Y-93494642D02*
X144738200Y-93589880D01*
X144738200Y-93589880D02*
X144785819Y-93732737D01*
X144785819Y-93732737D02*
X144785819Y-93827975D01*
X144785819Y-92970832D02*
X143785819Y-92970832D01*
X143785819Y-92970832D02*
X143785819Y-92589880D01*
X143785819Y-92589880D02*
X143833438Y-92494642D01*
X143833438Y-92494642D02*
X143881057Y-92447023D01*
X143881057Y-92447023D02*
X143976295Y-92399404D01*
X143976295Y-92399404D02*
X144119152Y-92399404D01*
X144119152Y-92399404D02*
X144214390Y-92447023D01*
X144214390Y-92447023D02*
X144262009Y-92494642D01*
X144262009Y-92494642D02*
X144309628Y-92589880D01*
X144309628Y-92589880D02*
X144309628Y-92970832D01*
X144785819Y-91447023D02*
X144785819Y-92018451D01*
X144785819Y-91732737D02*
X143785819Y-91732737D01*
X143785819Y-91732737D02*
X143928676Y-91827975D01*
X143928676Y-91827975D02*
X144023914Y-91923213D01*
X144023914Y-91923213D02*
X144071533Y-92018451D01*
X144785819Y-90494642D02*
X144785819Y-91066070D01*
X144785819Y-90780356D02*
X143785819Y-90780356D01*
X143785819Y-90780356D02*
X143928676Y-90875594D01*
X143928676Y-90875594D02*
X144023914Y-90970832D01*
X144023914Y-90970832D02*
X144071533Y-91066070D01*
X73208319Y-95988094D02*
X72208319Y-95988094D01*
X73208319Y-95416666D02*
X72636890Y-95845237D01*
X72208319Y-95416666D02*
X72779747Y-95988094D01*
X72208319Y-94559523D02*
X72208319Y-94749999D01*
X72208319Y-94749999D02*
X72255938Y-94845237D01*
X72255938Y-94845237D02*
X72303557Y-94892856D01*
X72303557Y-94892856D02*
X72446414Y-94988094D01*
X72446414Y-94988094D02*
X72636890Y-95035713D01*
X72636890Y-95035713D02*
X73017842Y-95035713D01*
X73017842Y-95035713D02*
X73113080Y-94988094D01*
X73113080Y-94988094D02*
X73160700Y-94940475D01*
X73160700Y-94940475D02*
X73208319Y-94845237D01*
X73208319Y-94845237D02*
X73208319Y-94654761D01*
X73208319Y-94654761D02*
X73160700Y-94559523D01*
X73160700Y-94559523D02*
X73113080Y-94511904D01*
X73113080Y-94511904D02*
X73017842Y-94464285D01*
X73017842Y-94464285D02*
X72779747Y-94464285D01*
X72779747Y-94464285D02*
X72684509Y-94511904D01*
X72684509Y-94511904D02*
X72636890Y-94559523D01*
X72636890Y-94559523D02*
X72589271Y-94654761D01*
X72589271Y-94654761D02*
X72589271Y-94845237D01*
X72589271Y-94845237D02*
X72636890Y-94940475D01*
X72636890Y-94940475D02*
X72684509Y-94988094D01*
X72684509Y-94988094D02*
X72779747Y-95035713D01*
X127822905Y-81822319D02*
X127822905Y-80822319D01*
X128394333Y-81822319D02*
X127965762Y-81250890D01*
X128394333Y-80822319D02*
X127822905Y-81393747D01*
X129299095Y-80822319D02*
X128822905Y-80822319D01*
X128822905Y-80822319D02*
X128775286Y-81298509D01*
X128775286Y-81298509D02*
X128822905Y-81250890D01*
X128822905Y-81250890D02*
X128918143Y-81203271D01*
X128918143Y-81203271D02*
X129156238Y-81203271D01*
X129156238Y-81203271D02*
X129251476Y-81250890D01*
X129251476Y-81250890D02*
X129299095Y-81298509D01*
X129299095Y-81298509D02*
X129346714Y-81393747D01*
X129346714Y-81393747D02*
X129346714Y-81631842D01*
X129346714Y-81631842D02*
X129299095Y-81727080D01*
X129299095Y-81727080D02*
X129251476Y-81774700D01*
X129251476Y-81774700D02*
X129156238Y-81822319D01*
X129156238Y-81822319D02*
X128918143Y-81822319D01*
X128918143Y-81822319D02*
X128822905Y-81774700D01*
X128822905Y-81774700D02*
X128775286Y-81727080D01*
X121374819Y-93559023D02*
X122089104Y-93559023D01*
X122089104Y-93559023D02*
X122231961Y-93606642D01*
X122231961Y-93606642D02*
X122327200Y-93701880D01*
X122327200Y-93701880D02*
X122374819Y-93844737D01*
X122374819Y-93844737D02*
X122374819Y-93939975D01*
X122374819Y-93082832D02*
X121374819Y-93082832D01*
X121374819Y-93082832D02*
X121374819Y-92701880D01*
X121374819Y-92701880D02*
X121422438Y-92606642D01*
X121422438Y-92606642D02*
X121470057Y-92559023D01*
X121470057Y-92559023D02*
X121565295Y-92511404D01*
X121565295Y-92511404D02*
X121708152Y-92511404D01*
X121708152Y-92511404D02*
X121803390Y-92559023D01*
X121803390Y-92559023D02*
X121851009Y-92606642D01*
X121851009Y-92606642D02*
X121898628Y-92701880D01*
X121898628Y-92701880D02*
X121898628Y-93082832D01*
X122374819Y-91559023D02*
X122374819Y-92130451D01*
X122374819Y-91844737D02*
X121374819Y-91844737D01*
X121374819Y-91844737D02*
X121517676Y-91939975D01*
X121517676Y-91939975D02*
X121612914Y-92035213D01*
X121612914Y-92035213D02*
X121660533Y-92130451D01*
X121470057Y-91178070D02*
X121422438Y-91130451D01*
X121422438Y-91130451D02*
X121374819Y-91035213D01*
X121374819Y-91035213D02*
X121374819Y-90797118D01*
X121374819Y-90797118D02*
X121422438Y-90701880D01*
X121422438Y-90701880D02*
X121470057Y-90654261D01*
X121470057Y-90654261D02*
X121565295Y-90606642D01*
X121565295Y-90606642D02*
X121660533Y-90606642D01*
X121660533Y-90606642D02*
X121803390Y-90654261D01*
X121803390Y-90654261D02*
X122374819Y-91225689D01*
X122374819Y-91225689D02*
X122374819Y-90606642D01*
X121374819Y-85685023D02*
X122089104Y-85685023D01*
X122089104Y-85685023D02*
X122231961Y-85732642D01*
X122231961Y-85732642D02*
X122327200Y-85827880D01*
X122327200Y-85827880D02*
X122374819Y-85970737D01*
X122374819Y-85970737D02*
X122374819Y-86065975D01*
X122374819Y-85208832D02*
X121374819Y-85208832D01*
X121374819Y-85208832D02*
X121374819Y-84827880D01*
X121374819Y-84827880D02*
X121422438Y-84732642D01*
X121422438Y-84732642D02*
X121470057Y-84685023D01*
X121470057Y-84685023D02*
X121565295Y-84637404D01*
X121565295Y-84637404D02*
X121708152Y-84637404D01*
X121708152Y-84637404D02*
X121803390Y-84685023D01*
X121803390Y-84685023D02*
X121851009Y-84732642D01*
X121851009Y-84732642D02*
X121898628Y-84827880D01*
X121898628Y-84827880D02*
X121898628Y-85208832D01*
X122374819Y-83685023D02*
X122374819Y-84256451D01*
X122374819Y-83970737D02*
X121374819Y-83970737D01*
X121374819Y-83970737D02*
X121517676Y-84065975D01*
X121517676Y-84065975D02*
X121612914Y-84161213D01*
X121612914Y-84161213D02*
X121660533Y-84256451D01*
X121374819Y-82827880D02*
X121374819Y-83018356D01*
X121374819Y-83018356D02*
X121422438Y-83113594D01*
X121422438Y-83113594D02*
X121470057Y-83161213D01*
X121470057Y-83161213D02*
X121612914Y-83256451D01*
X121612914Y-83256451D02*
X121803390Y-83304070D01*
X121803390Y-83304070D02*
X122184342Y-83304070D01*
X122184342Y-83304070D02*
X122279580Y-83256451D01*
X122279580Y-83256451D02*
X122327200Y-83208832D01*
X122327200Y-83208832D02*
X122374819Y-83113594D01*
X122374819Y-83113594D02*
X122374819Y-82923118D01*
X122374819Y-82923118D02*
X122327200Y-82827880D01*
X122327200Y-82827880D02*
X122279580Y-82780261D01*
X122279580Y-82780261D02*
X122184342Y-82732642D01*
X122184342Y-82732642D02*
X121946247Y-82732642D01*
X121946247Y-82732642D02*
X121851009Y-82780261D01*
X121851009Y-82780261D02*
X121803390Y-82827880D01*
X121803390Y-82827880D02*
X121755771Y-82923118D01*
X121755771Y-82923118D02*
X121755771Y-83113594D01*
X121755771Y-83113594D02*
X121803390Y-83208832D01*
X121803390Y-83208832D02*
X121851009Y-83256451D01*
X121851009Y-83256451D02*
X121946247Y-83304070D01*
X99160718Y-123834819D02*
X98827385Y-123358628D01*
X98589290Y-123834819D02*
X98589290Y-122834819D01*
X98589290Y-122834819D02*
X98970242Y-122834819D01*
X98970242Y-122834819D02*
X99065480Y-122882438D01*
X99065480Y-122882438D02*
X99113099Y-122930057D01*
X99113099Y-122930057D02*
X99160718Y-123025295D01*
X99160718Y-123025295D02*
X99160718Y-123168152D01*
X99160718Y-123168152D02*
X99113099Y-123263390D01*
X99113099Y-123263390D02*
X99065480Y-123311009D01*
X99065480Y-123311009D02*
X98970242Y-123358628D01*
X98970242Y-123358628D02*
X98589290Y-123358628D01*
X99589290Y-123311009D02*
X99922623Y-123311009D01*
X100065480Y-123834819D02*
X99589290Y-123834819D01*
X99589290Y-123834819D02*
X99589290Y-122834819D01*
X99589290Y-122834819D02*
X100065480Y-122834819D01*
X100827385Y-123311009D02*
X100494052Y-123311009D01*
X100494052Y-123834819D02*
X100494052Y-122834819D01*
X100494052Y-122834819D02*
X100970242Y-122834819D01*
X101494052Y-122834819D02*
X101494052Y-123072914D01*
X101255957Y-122977676D02*
X101494052Y-123072914D01*
X101494052Y-123072914D02*
X101732147Y-122977676D01*
X101351195Y-123263390D02*
X101494052Y-123072914D01*
X101494052Y-123072914D02*
X101636909Y-123263390D01*
X102255957Y-122834819D02*
X102255957Y-123072914D01*
X102017862Y-122977676D02*
X102255957Y-123072914D01*
X102255957Y-123072914D02*
X102494052Y-122977676D01*
X102113100Y-123263390D02*
X102255957Y-123072914D01*
X102255957Y-123072914D02*
X102398814Y-123263390D01*
X153405476Y-120730319D02*
X153405476Y-121444604D01*
X153405476Y-121444604D02*
X153357857Y-121587461D01*
X153357857Y-121587461D02*
X153262619Y-121682700D01*
X153262619Y-121682700D02*
X153119762Y-121730319D01*
X153119762Y-121730319D02*
X153024524Y-121730319D01*
X153786429Y-120730319D02*
X154405476Y-120730319D01*
X154405476Y-120730319D02*
X154072143Y-121111271D01*
X154072143Y-121111271D02*
X154215000Y-121111271D01*
X154215000Y-121111271D02*
X154310238Y-121158890D01*
X154310238Y-121158890D02*
X154357857Y-121206509D01*
X154357857Y-121206509D02*
X154405476Y-121301747D01*
X154405476Y-121301747D02*
X154405476Y-121539842D01*
X154405476Y-121539842D02*
X154357857Y-121635080D01*
X154357857Y-121635080D02*
X154310238Y-121682700D01*
X154310238Y-121682700D02*
X154215000Y-121730319D01*
X154215000Y-121730319D02*
X153929286Y-121730319D01*
X153929286Y-121730319D02*
X153834048Y-121682700D01*
X153834048Y-121682700D02*
X153786429Y-121635080D01*
X154738810Y-120730319D02*
X155405476Y-120730319D01*
X155405476Y-120730319D02*
X154976905Y-121730319D01*
X127822905Y-77210319D02*
X127822905Y-76210319D01*
X127822905Y-76210319D02*
X128061000Y-76210319D01*
X128061000Y-76210319D02*
X128203857Y-76257938D01*
X128203857Y-76257938D02*
X128299095Y-76353176D01*
X128299095Y-76353176D02*
X128346714Y-76448414D01*
X128346714Y-76448414D02*
X128394333Y-76638890D01*
X128394333Y-76638890D02*
X128394333Y-76781747D01*
X128394333Y-76781747D02*
X128346714Y-76972223D01*
X128346714Y-76972223D02*
X128299095Y-77067461D01*
X128299095Y-77067461D02*
X128203857Y-77162700D01*
X128203857Y-77162700D02*
X128061000Y-77210319D01*
X128061000Y-77210319D02*
X127822905Y-77210319D01*
X128965762Y-76638890D02*
X128870524Y-76591271D01*
X128870524Y-76591271D02*
X128822905Y-76543652D01*
X128822905Y-76543652D02*
X128775286Y-76448414D01*
X128775286Y-76448414D02*
X128775286Y-76400795D01*
X128775286Y-76400795D02*
X128822905Y-76305557D01*
X128822905Y-76305557D02*
X128870524Y-76257938D01*
X128870524Y-76257938D02*
X128965762Y-76210319D01*
X128965762Y-76210319D02*
X129156238Y-76210319D01*
X129156238Y-76210319D02*
X129251476Y-76257938D01*
X129251476Y-76257938D02*
X129299095Y-76305557D01*
X129299095Y-76305557D02*
X129346714Y-76400795D01*
X129346714Y-76400795D02*
X129346714Y-76448414D01*
X129346714Y-76448414D02*
X129299095Y-76543652D01*
X129299095Y-76543652D02*
X129251476Y-76591271D01*
X129251476Y-76591271D02*
X129156238Y-76638890D01*
X129156238Y-76638890D02*
X128965762Y-76638890D01*
X128965762Y-76638890D02*
X128870524Y-76686509D01*
X128870524Y-76686509D02*
X128822905Y-76734128D01*
X128822905Y-76734128D02*
X128775286Y-76829366D01*
X128775286Y-76829366D02*
X128775286Y-77019842D01*
X128775286Y-77019842D02*
X128822905Y-77115080D01*
X128822905Y-77115080D02*
X128870524Y-77162700D01*
X128870524Y-77162700D02*
X128965762Y-77210319D01*
X128965762Y-77210319D02*
X129156238Y-77210319D01*
X129156238Y-77210319D02*
X129251476Y-77162700D01*
X129251476Y-77162700D02*
X129299095Y-77115080D01*
X129299095Y-77115080D02*
X129346714Y-77019842D01*
X129346714Y-77019842D02*
X129346714Y-76829366D01*
X129346714Y-76829366D02*
X129299095Y-76734128D01*
X129299095Y-76734128D02*
X129251476Y-76686509D01*
X129251476Y-76686509D02*
X129156238Y-76638890D01*
X132109095Y-81042319D02*
X132109095Y-80042319D01*
X132680523Y-81042319D02*
X132251952Y-80470890D01*
X132680523Y-80042319D02*
X132109095Y-80613747D01*
X190013819Y-93082833D02*
X190728104Y-93082833D01*
X190728104Y-93082833D02*
X190870961Y-93130452D01*
X190870961Y-93130452D02*
X190966200Y-93225690D01*
X190966200Y-93225690D02*
X191013819Y-93368547D01*
X191013819Y-93368547D02*
X191013819Y-93463785D01*
X191013819Y-92606642D02*
X190013819Y-92606642D01*
X190013819Y-92606642D02*
X190013819Y-92225690D01*
X190013819Y-92225690D02*
X190061438Y-92130452D01*
X190061438Y-92130452D02*
X190109057Y-92082833D01*
X190109057Y-92082833D02*
X190204295Y-92035214D01*
X190204295Y-92035214D02*
X190347152Y-92035214D01*
X190347152Y-92035214D02*
X190442390Y-92082833D01*
X190442390Y-92082833D02*
X190490009Y-92130452D01*
X190490009Y-92130452D02*
X190537628Y-92225690D01*
X190537628Y-92225690D02*
X190537628Y-92606642D01*
X191013819Y-91559023D02*
X191013819Y-91368547D01*
X191013819Y-91368547D02*
X190966200Y-91273309D01*
X190966200Y-91273309D02*
X190918580Y-91225690D01*
X190918580Y-91225690D02*
X190775723Y-91130452D01*
X190775723Y-91130452D02*
X190585247Y-91082833D01*
X190585247Y-91082833D02*
X190204295Y-91082833D01*
X190204295Y-91082833D02*
X190109057Y-91130452D01*
X190109057Y-91130452D02*
X190061438Y-91178071D01*
X190061438Y-91178071D02*
X190013819Y-91273309D01*
X190013819Y-91273309D02*
X190013819Y-91463785D01*
X190013819Y-91463785D02*
X190061438Y-91559023D01*
X190061438Y-91559023D02*
X190109057Y-91606642D01*
X190109057Y-91606642D02*
X190204295Y-91654261D01*
X190204295Y-91654261D02*
X190442390Y-91654261D01*
X190442390Y-91654261D02*
X190537628Y-91606642D01*
X190537628Y-91606642D02*
X190585247Y-91559023D01*
X190585247Y-91559023D02*
X190632866Y-91463785D01*
X190632866Y-91463785D02*
X190632866Y-91273309D01*
X190632866Y-91273309D02*
X190585247Y-91178071D01*
X190585247Y-91178071D02*
X190537628Y-91130452D01*
X190537628Y-91130452D02*
X190442390Y-91082833D01*
X189954819Y-85685023D02*
X190669104Y-85685023D01*
X190669104Y-85685023D02*
X190811961Y-85732642D01*
X190811961Y-85732642D02*
X190907200Y-85827880D01*
X190907200Y-85827880D02*
X190954819Y-85970737D01*
X190954819Y-85970737D02*
X190954819Y-86065975D01*
X190954819Y-85208832D02*
X189954819Y-85208832D01*
X189954819Y-85208832D02*
X189954819Y-84827880D01*
X189954819Y-84827880D02*
X190002438Y-84732642D01*
X190002438Y-84732642D02*
X190050057Y-84685023D01*
X190050057Y-84685023D02*
X190145295Y-84637404D01*
X190145295Y-84637404D02*
X190288152Y-84637404D01*
X190288152Y-84637404D02*
X190383390Y-84685023D01*
X190383390Y-84685023D02*
X190431009Y-84732642D01*
X190431009Y-84732642D02*
X190478628Y-84827880D01*
X190478628Y-84827880D02*
X190478628Y-85208832D01*
X190954819Y-83685023D02*
X190954819Y-84256451D01*
X190954819Y-83970737D02*
X189954819Y-83970737D01*
X189954819Y-83970737D02*
X190097676Y-84065975D01*
X190097676Y-84065975D02*
X190192914Y-84161213D01*
X190192914Y-84161213D02*
X190240533Y-84256451D01*
X189954819Y-83351689D02*
X189954819Y-82732642D01*
X189954819Y-82732642D02*
X190335771Y-83065975D01*
X190335771Y-83065975D02*
X190335771Y-82923118D01*
X190335771Y-82923118D02*
X190383390Y-82827880D01*
X190383390Y-82827880D02*
X190431009Y-82780261D01*
X190431009Y-82780261D02*
X190526247Y-82732642D01*
X190526247Y-82732642D02*
X190764342Y-82732642D01*
X190764342Y-82732642D02*
X190859580Y-82780261D01*
X190859580Y-82780261D02*
X190907200Y-82827880D01*
X190907200Y-82827880D02*
X190954819Y-82923118D01*
X190954819Y-82923118D02*
X190954819Y-83208832D01*
X190954819Y-83208832D02*
X190907200Y-83304070D01*
X190907200Y-83304070D02*
X190859580Y-83351689D01*
X109740718Y-76654819D02*
X109407385Y-76178628D01*
X109169290Y-76654819D02*
X109169290Y-75654819D01*
X109169290Y-75654819D02*
X109550242Y-75654819D01*
X109550242Y-75654819D02*
X109645480Y-75702438D01*
X109645480Y-75702438D02*
X109693099Y-75750057D01*
X109693099Y-75750057D02*
X109740718Y-75845295D01*
X109740718Y-75845295D02*
X109740718Y-75988152D01*
X109740718Y-75988152D02*
X109693099Y-76083390D01*
X109693099Y-76083390D02*
X109645480Y-76131009D01*
X109645480Y-76131009D02*
X109550242Y-76178628D01*
X109550242Y-76178628D02*
X109169290Y-76178628D01*
X110169290Y-76131009D02*
X110502623Y-76131009D01*
X110645480Y-76654819D02*
X110169290Y-76654819D01*
X110169290Y-76654819D02*
X110169290Y-75654819D01*
X110169290Y-75654819D02*
X110645480Y-75654819D01*
X111407385Y-76131009D02*
X111074052Y-76131009D01*
X111074052Y-76654819D02*
X111074052Y-75654819D01*
X111074052Y-75654819D02*
X111550242Y-75654819D01*
X112074052Y-75654819D02*
X112074052Y-75892914D01*
X111835957Y-75797676D02*
X112074052Y-75892914D01*
X112074052Y-75892914D02*
X112312147Y-75797676D01*
X111931195Y-76083390D02*
X112074052Y-75892914D01*
X112074052Y-75892914D02*
X112216909Y-76083390D01*
X112835957Y-75654819D02*
X112835957Y-75892914D01*
X112597862Y-75797676D02*
X112835957Y-75892914D01*
X112835957Y-75892914D02*
X113074052Y-75797676D01*
X112693100Y-76083390D02*
X112835957Y-75892914D01*
X112835957Y-75892914D02*
X112978814Y-76083390D01*
X122925476Y-120730319D02*
X122925476Y-121444604D01*
X122925476Y-121444604D02*
X122877857Y-121587461D01*
X122877857Y-121587461D02*
X122782619Y-121682700D01*
X122782619Y-121682700D02*
X122639762Y-121730319D01*
X122639762Y-121730319D02*
X122544524Y-121730319D01*
X123306429Y-120730319D02*
X123925476Y-120730319D01*
X123925476Y-120730319D02*
X123592143Y-121111271D01*
X123592143Y-121111271D02*
X123735000Y-121111271D01*
X123735000Y-121111271D02*
X123830238Y-121158890D01*
X123830238Y-121158890D02*
X123877857Y-121206509D01*
X123877857Y-121206509D02*
X123925476Y-121301747D01*
X123925476Y-121301747D02*
X123925476Y-121539842D01*
X123925476Y-121539842D02*
X123877857Y-121635080D01*
X123877857Y-121635080D02*
X123830238Y-121682700D01*
X123830238Y-121682700D02*
X123735000Y-121730319D01*
X123735000Y-121730319D02*
X123449286Y-121730319D01*
X123449286Y-121730319D02*
X123354048Y-121682700D01*
X123354048Y-121682700D02*
X123306429Y-121635080D01*
X124258810Y-120730319D02*
X124877857Y-120730319D01*
X124877857Y-120730319D02*
X124544524Y-121111271D01*
X124544524Y-121111271D02*
X124687381Y-121111271D01*
X124687381Y-121111271D02*
X124782619Y-121158890D01*
X124782619Y-121158890D02*
X124830238Y-121206509D01*
X124830238Y-121206509D02*
X124877857Y-121301747D01*
X124877857Y-121301747D02*
X124877857Y-121539842D01*
X124877857Y-121539842D02*
X124830238Y-121635080D01*
X124830238Y-121635080D02*
X124782619Y-121682700D01*
X124782619Y-121682700D02*
X124687381Y-121730319D01*
X124687381Y-121730319D02*
X124401667Y-121730319D01*
X124401667Y-121730319D02*
X124306429Y-121682700D01*
X124306429Y-121682700D02*
X124258810Y-121635080D01*
X166899819Y-93447023D02*
X167614104Y-93447023D01*
X167614104Y-93447023D02*
X167756961Y-93494642D01*
X167756961Y-93494642D02*
X167852200Y-93589880D01*
X167852200Y-93589880D02*
X167899819Y-93732737D01*
X167899819Y-93732737D02*
X167899819Y-93827975D01*
X167899819Y-92970832D02*
X166899819Y-92970832D01*
X166899819Y-92970832D02*
X166899819Y-92589880D01*
X166899819Y-92589880D02*
X166947438Y-92494642D01*
X166947438Y-92494642D02*
X166995057Y-92447023D01*
X166995057Y-92447023D02*
X167090295Y-92399404D01*
X167090295Y-92399404D02*
X167233152Y-92399404D01*
X167233152Y-92399404D02*
X167328390Y-92447023D01*
X167328390Y-92447023D02*
X167376009Y-92494642D01*
X167376009Y-92494642D02*
X167423628Y-92589880D01*
X167423628Y-92589880D02*
X167423628Y-92970832D01*
X167899819Y-91447023D02*
X167899819Y-92018451D01*
X167899819Y-91732737D02*
X166899819Y-91732737D01*
X166899819Y-91732737D02*
X167042676Y-91827975D01*
X167042676Y-91827975D02*
X167137914Y-91923213D01*
X167137914Y-91923213D02*
X167185533Y-92018451D01*
X166899819Y-90827975D02*
X166899819Y-90732737D01*
X166899819Y-90732737D02*
X166947438Y-90637499D01*
X166947438Y-90637499D02*
X166995057Y-90589880D01*
X166995057Y-90589880D02*
X167090295Y-90542261D01*
X167090295Y-90542261D02*
X167280771Y-90494642D01*
X167280771Y-90494642D02*
X167518866Y-90494642D01*
X167518866Y-90494642D02*
X167709342Y-90542261D01*
X167709342Y-90542261D02*
X167804580Y-90589880D01*
X167804580Y-90589880D02*
X167852200Y-90637499D01*
X167852200Y-90637499D02*
X167899819Y-90732737D01*
X167899819Y-90732737D02*
X167899819Y-90827975D01*
X167899819Y-90827975D02*
X167852200Y-90923213D01*
X167852200Y-90923213D02*
X167804580Y-90970832D01*
X167804580Y-90970832D02*
X167709342Y-91018451D01*
X167709342Y-91018451D02*
X167518866Y-91066070D01*
X167518866Y-91066070D02*
X167280771Y-91066070D01*
X167280771Y-91066070D02*
X167090295Y-91018451D01*
X167090295Y-91018451D02*
X166995057Y-90970832D01*
X166995057Y-90970832D02*
X166947438Y-90923213D01*
X166947438Y-90923213D02*
X166899819Y-90827975D01*
X68088319Y-96718285D02*
X67088319Y-96718285D01*
X67088319Y-96718285D02*
X67088319Y-96480190D01*
X67088319Y-96480190D02*
X67135938Y-96337333D01*
X67135938Y-96337333D02*
X67231176Y-96242095D01*
X67231176Y-96242095D02*
X67326414Y-96194476D01*
X67326414Y-96194476D02*
X67516890Y-96146857D01*
X67516890Y-96146857D02*
X67659747Y-96146857D01*
X67659747Y-96146857D02*
X67850223Y-96194476D01*
X67850223Y-96194476D02*
X67945461Y-96242095D01*
X67945461Y-96242095D02*
X68040700Y-96337333D01*
X68040700Y-96337333D02*
X68088319Y-96480190D01*
X68088319Y-96480190D02*
X68088319Y-96718285D01*
X68088319Y-95194476D02*
X68088319Y-95765904D01*
X68088319Y-95480190D02*
X67088319Y-95480190D01*
X67088319Y-95480190D02*
X67231176Y-95575428D01*
X67231176Y-95575428D02*
X67326414Y-95670666D01*
X67326414Y-95670666D02*
X67374033Y-95765904D01*
X67088319Y-94575428D02*
X67088319Y-94480190D01*
X67088319Y-94480190D02*
X67135938Y-94384952D01*
X67135938Y-94384952D02*
X67183557Y-94337333D01*
X67183557Y-94337333D02*
X67278795Y-94289714D01*
X67278795Y-94289714D02*
X67469271Y-94242095D01*
X67469271Y-94242095D02*
X67707366Y-94242095D01*
X67707366Y-94242095D02*
X67897842Y-94289714D01*
X67897842Y-94289714D02*
X67993080Y-94337333D01*
X67993080Y-94337333D02*
X68040700Y-94384952D01*
X68040700Y-94384952D02*
X68088319Y-94480190D01*
X68088319Y-94480190D02*
X68088319Y-94575428D01*
X68088319Y-94575428D02*
X68040700Y-94670666D01*
X68040700Y-94670666D02*
X67993080Y-94718285D01*
X67993080Y-94718285D02*
X67897842Y-94765904D01*
X67897842Y-94765904D02*
X67707366Y-94813523D01*
X67707366Y-94813523D02*
X67469271Y-94813523D01*
X67469271Y-94813523D02*
X67278795Y-94765904D01*
X67278795Y-94765904D02*
X67183557Y-94718285D01*
X67183557Y-94718285D02*
X67135938Y-94670666D01*
X67135938Y-94670666D02*
X67088319Y-94575428D01*
X72428319Y-91701904D02*
X71428319Y-91701904D01*
X72428319Y-91130476D02*
X71856890Y-91559047D01*
X71428319Y-91130476D02*
X71999747Y-91701904D01*
X73208319Y-109958094D02*
X72208319Y-109958094D01*
X73208319Y-109386666D02*
X72636890Y-109815237D01*
X72208319Y-109386666D02*
X72779747Y-109958094D01*
X72636890Y-108815237D02*
X72589271Y-108910475D01*
X72589271Y-108910475D02*
X72541652Y-108958094D01*
X72541652Y-108958094D02*
X72446414Y-109005713D01*
X72446414Y-109005713D02*
X72398795Y-109005713D01*
X72398795Y-109005713D02*
X72303557Y-108958094D01*
X72303557Y-108958094D02*
X72255938Y-108910475D01*
X72255938Y-108910475D02*
X72208319Y-108815237D01*
X72208319Y-108815237D02*
X72208319Y-108624761D01*
X72208319Y-108624761D02*
X72255938Y-108529523D01*
X72255938Y-108529523D02*
X72303557Y-108481904D01*
X72303557Y-108481904D02*
X72398795Y-108434285D01*
X72398795Y-108434285D02*
X72446414Y-108434285D01*
X72446414Y-108434285D02*
X72541652Y-108481904D01*
X72541652Y-108481904D02*
X72589271Y-108529523D01*
X72589271Y-108529523D02*
X72636890Y-108624761D01*
X72636890Y-108624761D02*
X72636890Y-108815237D01*
X72636890Y-108815237D02*
X72684509Y-108910475D01*
X72684509Y-108910475D02*
X72732128Y-108958094D01*
X72732128Y-108958094D02*
X72827366Y-109005713D01*
X72827366Y-109005713D02*
X73017842Y-109005713D01*
X73017842Y-109005713D02*
X73113080Y-108958094D01*
X73113080Y-108958094D02*
X73160700Y-108910475D01*
X73160700Y-108910475D02*
X73208319Y-108815237D01*
X73208319Y-108815237D02*
X73208319Y-108624761D01*
X73208319Y-108624761D02*
X73160700Y-108529523D01*
X73160700Y-108529523D02*
X73113080Y-108481904D01*
X73113080Y-108481904D02*
X73017842Y-108434285D01*
X73017842Y-108434285D02*
X72827366Y-108434285D01*
X72827366Y-108434285D02*
X72732128Y-108481904D01*
X72732128Y-108481904D02*
X72684509Y-108529523D01*
X72684509Y-108529523D02*
X72636890Y-108624761D01*
X68596319Y-110434285D02*
X67596319Y-110434285D01*
X67596319Y-110434285D02*
X67596319Y-110196190D01*
X67596319Y-110196190D02*
X67643938Y-110053333D01*
X67643938Y-110053333D02*
X67739176Y-109958095D01*
X67739176Y-109958095D02*
X67834414Y-109910476D01*
X67834414Y-109910476D02*
X68024890Y-109862857D01*
X68024890Y-109862857D02*
X68167747Y-109862857D01*
X68167747Y-109862857D02*
X68358223Y-109910476D01*
X68358223Y-109910476D02*
X68453461Y-109958095D01*
X68453461Y-109958095D02*
X68548700Y-110053333D01*
X68548700Y-110053333D02*
X68596319Y-110196190D01*
X68596319Y-110196190D02*
X68596319Y-110434285D01*
X68596319Y-108910476D02*
X68596319Y-109481904D01*
X68596319Y-109196190D02*
X67596319Y-109196190D01*
X67596319Y-109196190D02*
X67739176Y-109291428D01*
X67739176Y-109291428D02*
X67834414Y-109386666D01*
X67834414Y-109386666D02*
X67882033Y-109481904D01*
X67691557Y-108529523D02*
X67643938Y-108481904D01*
X67643938Y-108481904D02*
X67596319Y-108386666D01*
X67596319Y-108386666D02*
X67596319Y-108148571D01*
X67596319Y-108148571D02*
X67643938Y-108053333D01*
X67643938Y-108053333D02*
X67691557Y-108005714D01*
X67691557Y-108005714D02*
X67786795Y-107958095D01*
X67786795Y-107958095D02*
X67882033Y-107958095D01*
X67882033Y-107958095D02*
X68024890Y-108005714D01*
X68024890Y-108005714D02*
X68596319Y-108577142D01*
X68596319Y-108577142D02*
X68596319Y-107958095D01*
X72428319Y-105671904D02*
X71428319Y-105671904D01*
X72428319Y-105100476D02*
X71856890Y-105529047D01*
X71428319Y-105100476D02*
X71999747Y-105671904D01*
X167094819Y-85939023D02*
X167809104Y-85939023D01*
X167809104Y-85939023D02*
X167951961Y-85986642D01*
X167951961Y-85986642D02*
X168047200Y-86081880D01*
X168047200Y-86081880D02*
X168094819Y-86224737D01*
X168094819Y-86224737D02*
X168094819Y-86319975D01*
X168094819Y-85462832D02*
X167094819Y-85462832D01*
X167094819Y-85462832D02*
X167094819Y-85081880D01*
X167094819Y-85081880D02*
X167142438Y-84986642D01*
X167142438Y-84986642D02*
X167190057Y-84939023D01*
X167190057Y-84939023D02*
X167285295Y-84891404D01*
X167285295Y-84891404D02*
X167428152Y-84891404D01*
X167428152Y-84891404D02*
X167523390Y-84939023D01*
X167523390Y-84939023D02*
X167571009Y-84986642D01*
X167571009Y-84986642D02*
X167618628Y-85081880D01*
X167618628Y-85081880D02*
X167618628Y-85462832D01*
X168094819Y-83939023D02*
X168094819Y-84510451D01*
X168094819Y-84224737D02*
X167094819Y-84224737D01*
X167094819Y-84224737D02*
X167237676Y-84319975D01*
X167237676Y-84319975D02*
X167332914Y-84415213D01*
X167332914Y-84415213D02*
X167380533Y-84510451D01*
X167428152Y-83081880D02*
X168094819Y-83081880D01*
X167047200Y-83319975D02*
X167761485Y-83558070D01*
X167761485Y-83558070D02*
X167761485Y-82939023D01*
X169871819Y-114415023D02*
X170586104Y-114415023D01*
X170586104Y-114415023D02*
X170728961Y-114462642D01*
X170728961Y-114462642D02*
X170824200Y-114557880D01*
X170824200Y-114557880D02*
X170871819Y-114700737D01*
X170871819Y-114700737D02*
X170871819Y-114795975D01*
X170871819Y-113415023D02*
X170871819Y-113986451D01*
X170871819Y-113700737D02*
X169871819Y-113700737D01*
X169871819Y-113700737D02*
X170014676Y-113795975D01*
X170014676Y-113795975D02*
X170109914Y-113891213D01*
X170109914Y-113891213D02*
X170157533Y-113986451D01*
X170300390Y-112843594D02*
X170252771Y-112938832D01*
X170252771Y-112938832D02*
X170205152Y-112986451D01*
X170205152Y-112986451D02*
X170109914Y-113034070D01*
X170109914Y-113034070D02*
X170062295Y-113034070D01*
X170062295Y-113034070D02*
X169967057Y-112986451D01*
X169967057Y-112986451D02*
X169919438Y-112938832D01*
X169919438Y-112938832D02*
X169871819Y-112843594D01*
X169871819Y-112843594D02*
X169871819Y-112653118D01*
X169871819Y-112653118D02*
X169919438Y-112557880D01*
X169919438Y-112557880D02*
X169967057Y-112510261D01*
X169967057Y-112510261D02*
X170062295Y-112462642D01*
X170062295Y-112462642D02*
X170109914Y-112462642D01*
X170109914Y-112462642D02*
X170205152Y-112510261D01*
X170205152Y-112510261D02*
X170252771Y-112557880D01*
X170252771Y-112557880D02*
X170300390Y-112653118D01*
X170300390Y-112653118D02*
X170300390Y-112843594D01*
X170300390Y-112843594D02*
X170348009Y-112938832D01*
X170348009Y-112938832D02*
X170395628Y-112986451D01*
X170395628Y-112986451D02*
X170490866Y-113034070D01*
X170490866Y-113034070D02*
X170681342Y-113034070D01*
X170681342Y-113034070D02*
X170776580Y-112986451D01*
X170776580Y-112986451D02*
X170824200Y-112938832D01*
X170824200Y-112938832D02*
X170871819Y-112843594D01*
X170871819Y-112843594D02*
X170871819Y-112653118D01*
X170871819Y-112653118D02*
X170824200Y-112557880D01*
X170824200Y-112557880D02*
X170776580Y-112510261D01*
X170776580Y-112510261D02*
X170681342Y-112462642D01*
X170681342Y-112462642D02*
X170490866Y-112462642D01*
X170490866Y-112462642D02*
X170395628Y-112510261D01*
X170395628Y-112510261D02*
X170348009Y-112557880D01*
X170348009Y-112557880D02*
X170300390Y-112653118D01*
X73175819Y-123928094D02*
X72175819Y-123928094D01*
X73175819Y-123356666D02*
X72604390Y-123785237D01*
X72175819Y-123356666D02*
X72747247Y-123928094D01*
X72175819Y-123023332D02*
X72175819Y-122356666D01*
X72175819Y-122356666D02*
X73175819Y-122785237D01*
X68563819Y-124404285D02*
X67563819Y-124404285D01*
X67563819Y-124404285D02*
X67563819Y-124166190D01*
X67563819Y-124166190D02*
X67611438Y-124023333D01*
X67611438Y-124023333D02*
X67706676Y-123928095D01*
X67706676Y-123928095D02*
X67801914Y-123880476D01*
X67801914Y-123880476D02*
X67992390Y-123832857D01*
X67992390Y-123832857D02*
X68135247Y-123832857D01*
X68135247Y-123832857D02*
X68325723Y-123880476D01*
X68325723Y-123880476D02*
X68420961Y-123928095D01*
X68420961Y-123928095D02*
X68516200Y-124023333D01*
X68516200Y-124023333D02*
X68563819Y-124166190D01*
X68563819Y-124166190D02*
X68563819Y-124404285D01*
X68563819Y-122880476D02*
X68563819Y-123451904D01*
X68563819Y-123166190D02*
X67563819Y-123166190D01*
X67563819Y-123166190D02*
X67706676Y-123261428D01*
X67706676Y-123261428D02*
X67801914Y-123356666D01*
X67801914Y-123356666D02*
X67849533Y-123451904D01*
X68563819Y-121928095D02*
X68563819Y-122499523D01*
X68563819Y-122213809D02*
X67563819Y-122213809D01*
X67563819Y-122213809D02*
X67706676Y-122309047D01*
X67706676Y-122309047D02*
X67801914Y-122404285D01*
X67801914Y-122404285D02*
X67849533Y-122499523D01*
X72395819Y-119641904D02*
X71395819Y-119641904D01*
X72395819Y-119070476D02*
X71824390Y-119499047D01*
X71395819Y-119070476D02*
X71967247Y-119641904D01*
X117845476Y-120730319D02*
X117845476Y-121444604D01*
X117845476Y-121444604D02*
X117797857Y-121587461D01*
X117797857Y-121587461D02*
X117702619Y-121682700D01*
X117702619Y-121682700D02*
X117559762Y-121730319D01*
X117559762Y-121730319D02*
X117464524Y-121730319D01*
X118226429Y-120730319D02*
X118845476Y-120730319D01*
X118845476Y-120730319D02*
X118512143Y-121111271D01*
X118512143Y-121111271D02*
X118655000Y-121111271D01*
X118655000Y-121111271D02*
X118750238Y-121158890D01*
X118750238Y-121158890D02*
X118797857Y-121206509D01*
X118797857Y-121206509D02*
X118845476Y-121301747D01*
X118845476Y-121301747D02*
X118845476Y-121539842D01*
X118845476Y-121539842D02*
X118797857Y-121635080D01*
X118797857Y-121635080D02*
X118750238Y-121682700D01*
X118750238Y-121682700D02*
X118655000Y-121730319D01*
X118655000Y-121730319D02*
X118369286Y-121730319D01*
X118369286Y-121730319D02*
X118274048Y-121682700D01*
X118274048Y-121682700D02*
X118226429Y-121635080D01*
X119226429Y-120825557D02*
X119274048Y-120777938D01*
X119274048Y-120777938D02*
X119369286Y-120730319D01*
X119369286Y-120730319D02*
X119607381Y-120730319D01*
X119607381Y-120730319D02*
X119702619Y-120777938D01*
X119702619Y-120777938D02*
X119750238Y-120825557D01*
X119750238Y-120825557D02*
X119797857Y-120920795D01*
X119797857Y-120920795D02*
X119797857Y-121016033D01*
X119797857Y-121016033D02*
X119750238Y-121158890D01*
X119750238Y-121158890D02*
X119178810Y-121730319D01*
X119178810Y-121730319D02*
X119797857Y-121730319D01*
X196910905Y-81822319D02*
X196910905Y-80822319D01*
X197482333Y-81822319D02*
X197053762Y-81250890D01*
X197482333Y-80822319D02*
X196910905Y-81393747D01*
X198434714Y-81822319D02*
X197863286Y-81822319D01*
X198149000Y-81822319D02*
X198149000Y-80822319D01*
X198149000Y-80822319D02*
X198053762Y-80965176D01*
X198053762Y-80965176D02*
X197958524Y-81060414D01*
X197958524Y-81060414D02*
X197863286Y-81108033D01*
X68342319Y-82526094D02*
X67342319Y-82526094D01*
X67342319Y-82526094D02*
X67342319Y-82287999D01*
X67342319Y-82287999D02*
X67389938Y-82145142D01*
X67389938Y-82145142D02*
X67485176Y-82049904D01*
X67485176Y-82049904D02*
X67580414Y-82002285D01*
X67580414Y-82002285D02*
X67770890Y-81954666D01*
X67770890Y-81954666D02*
X67913747Y-81954666D01*
X67913747Y-81954666D02*
X68104223Y-82002285D01*
X68104223Y-82002285D02*
X68199461Y-82049904D01*
X68199461Y-82049904D02*
X68294700Y-82145142D01*
X68294700Y-82145142D02*
X68342319Y-82287999D01*
X68342319Y-82287999D02*
X68342319Y-82526094D01*
X68342319Y-81478475D02*
X68342319Y-81287999D01*
X68342319Y-81287999D02*
X68294700Y-81192761D01*
X68294700Y-81192761D02*
X68247080Y-81145142D01*
X68247080Y-81145142D02*
X68104223Y-81049904D01*
X68104223Y-81049904D02*
X67913747Y-81002285D01*
X67913747Y-81002285D02*
X67532795Y-81002285D01*
X67532795Y-81002285D02*
X67437557Y-81049904D01*
X67437557Y-81049904D02*
X67389938Y-81097523D01*
X67389938Y-81097523D02*
X67342319Y-81192761D01*
X67342319Y-81192761D02*
X67342319Y-81383237D01*
X67342319Y-81383237D02*
X67389938Y-81478475D01*
X67389938Y-81478475D02*
X67437557Y-81526094D01*
X67437557Y-81526094D02*
X67532795Y-81573713D01*
X67532795Y-81573713D02*
X67770890Y-81573713D01*
X67770890Y-81573713D02*
X67866128Y-81526094D01*
X67866128Y-81526094D02*
X67913747Y-81478475D01*
X67913747Y-81478475D02*
X67961366Y-81383237D01*
X67961366Y-81383237D02*
X67961366Y-81192761D01*
X67961366Y-81192761D02*
X67913747Y-81097523D01*
X67913747Y-81097523D02*
X67866128Y-81049904D01*
X67866128Y-81049904D02*
X67770890Y-81002285D01*
X72428319Y-77985904D02*
X71428319Y-77985904D01*
X72428319Y-77414476D02*
X71856890Y-77843047D01*
X71428319Y-77414476D02*
X71999747Y-77985904D01*
X150682905Y-77718319D02*
X150682905Y-76718319D01*
X150682905Y-76718319D02*
X150921000Y-76718319D01*
X150921000Y-76718319D02*
X151063857Y-76765938D01*
X151063857Y-76765938D02*
X151159095Y-76861176D01*
X151159095Y-76861176D02*
X151206714Y-76956414D01*
X151206714Y-76956414D02*
X151254333Y-77146890D01*
X151254333Y-77146890D02*
X151254333Y-77289747D01*
X151254333Y-77289747D02*
X151206714Y-77480223D01*
X151206714Y-77480223D02*
X151159095Y-77575461D01*
X151159095Y-77575461D02*
X151063857Y-77670700D01*
X151063857Y-77670700D02*
X150921000Y-77718319D01*
X150921000Y-77718319D02*
X150682905Y-77718319D01*
X151587667Y-76718319D02*
X152254333Y-76718319D01*
X152254333Y-76718319D02*
X151825762Y-77718319D01*
X154969095Y-81550319D02*
X154969095Y-80550319D01*
X155540523Y-81550319D02*
X155111952Y-80978890D01*
X155540523Y-80550319D02*
X154969095Y-81121747D01*
X196910905Y-77718319D02*
X196910905Y-76718319D01*
X196910905Y-76718319D02*
X197149000Y-76718319D01*
X197149000Y-76718319D02*
X197291857Y-76765938D01*
X197291857Y-76765938D02*
X197387095Y-76861176D01*
X197387095Y-76861176D02*
X197434714Y-76956414D01*
X197434714Y-76956414D02*
X197482333Y-77146890D01*
X197482333Y-77146890D02*
X197482333Y-77289747D01*
X197482333Y-77289747D02*
X197434714Y-77480223D01*
X197434714Y-77480223D02*
X197387095Y-77575461D01*
X197387095Y-77575461D02*
X197291857Y-77670700D01*
X197291857Y-77670700D02*
X197149000Y-77718319D01*
X197149000Y-77718319D02*
X196910905Y-77718319D01*
X198387095Y-76718319D02*
X197910905Y-76718319D01*
X197910905Y-76718319D02*
X197863286Y-77194509D01*
X197863286Y-77194509D02*
X197910905Y-77146890D01*
X197910905Y-77146890D02*
X198006143Y-77099271D01*
X198006143Y-77099271D02*
X198244238Y-77099271D01*
X198244238Y-77099271D02*
X198339476Y-77146890D01*
X198339476Y-77146890D02*
X198387095Y-77194509D01*
X198387095Y-77194509D02*
X198434714Y-77289747D01*
X198434714Y-77289747D02*
X198434714Y-77527842D01*
X198434714Y-77527842D02*
X198387095Y-77623080D01*
X198387095Y-77623080D02*
X198339476Y-77670700D01*
X198339476Y-77670700D02*
X198244238Y-77718319D01*
X198244238Y-77718319D02*
X198006143Y-77718319D01*
X198006143Y-77718319D02*
X197910905Y-77670700D01*
X197910905Y-77670700D02*
X197863286Y-77623080D01*
X201197095Y-81550319D02*
X201197095Y-80550319D01*
X201768523Y-81550319D02*
X201339952Y-80978890D01*
X201768523Y-80550319D02*
X201197095Y-81121747D01*
X201160718Y-123234819D02*
X200827385Y-122758628D01*
X200589290Y-123234819D02*
X200589290Y-122234819D01*
X200589290Y-122234819D02*
X200970242Y-122234819D01*
X200970242Y-122234819D02*
X201065480Y-122282438D01*
X201065480Y-122282438D02*
X201113099Y-122330057D01*
X201113099Y-122330057D02*
X201160718Y-122425295D01*
X201160718Y-122425295D02*
X201160718Y-122568152D01*
X201160718Y-122568152D02*
X201113099Y-122663390D01*
X201113099Y-122663390D02*
X201065480Y-122711009D01*
X201065480Y-122711009D02*
X200970242Y-122758628D01*
X200970242Y-122758628D02*
X200589290Y-122758628D01*
X201589290Y-122711009D02*
X201922623Y-122711009D01*
X202065480Y-123234819D02*
X201589290Y-123234819D01*
X201589290Y-123234819D02*
X201589290Y-122234819D01*
X201589290Y-122234819D02*
X202065480Y-122234819D01*
X202827385Y-122711009D02*
X202494052Y-122711009D01*
X202494052Y-123234819D02*
X202494052Y-122234819D01*
X202494052Y-122234819D02*
X202970242Y-122234819D01*
X203494052Y-122234819D02*
X203494052Y-122472914D01*
X203255957Y-122377676D02*
X203494052Y-122472914D01*
X203494052Y-122472914D02*
X203732147Y-122377676D01*
X203351195Y-122663390D02*
X203494052Y-122472914D01*
X203494052Y-122472914D02*
X203636909Y-122663390D01*
X204255957Y-122234819D02*
X204255957Y-122472914D01*
X204017862Y-122377676D02*
X204255957Y-122472914D01*
X204255957Y-122472914D02*
X204494052Y-122377676D01*
X204113100Y-122663390D02*
X204255957Y-122472914D01*
X204255957Y-122472914D02*
X204398814Y-122663390D01*
X140705476Y-120730319D02*
X140705476Y-121444604D01*
X140705476Y-121444604D02*
X140657857Y-121587461D01*
X140657857Y-121587461D02*
X140562619Y-121682700D01*
X140562619Y-121682700D02*
X140419762Y-121730319D01*
X140419762Y-121730319D02*
X140324524Y-121730319D01*
X141086429Y-120730319D02*
X141705476Y-120730319D01*
X141705476Y-120730319D02*
X141372143Y-121111271D01*
X141372143Y-121111271D02*
X141515000Y-121111271D01*
X141515000Y-121111271D02*
X141610238Y-121158890D01*
X141610238Y-121158890D02*
X141657857Y-121206509D01*
X141657857Y-121206509D02*
X141705476Y-121301747D01*
X141705476Y-121301747D02*
X141705476Y-121539842D01*
X141705476Y-121539842D02*
X141657857Y-121635080D01*
X141657857Y-121635080D02*
X141610238Y-121682700D01*
X141610238Y-121682700D02*
X141515000Y-121730319D01*
X141515000Y-121730319D02*
X141229286Y-121730319D01*
X141229286Y-121730319D02*
X141134048Y-121682700D01*
X141134048Y-121682700D02*
X141086429Y-121635080D01*
X142610238Y-120730319D02*
X142134048Y-120730319D01*
X142134048Y-120730319D02*
X142086429Y-121206509D01*
X142086429Y-121206509D02*
X142134048Y-121158890D01*
X142134048Y-121158890D02*
X142229286Y-121111271D01*
X142229286Y-121111271D02*
X142467381Y-121111271D01*
X142467381Y-121111271D02*
X142562619Y-121158890D01*
X142562619Y-121158890D02*
X142610238Y-121206509D01*
X142610238Y-121206509D02*
X142657857Y-121301747D01*
X142657857Y-121301747D02*
X142657857Y-121539842D01*
X142657857Y-121539842D02*
X142610238Y-121635080D01*
X142610238Y-121635080D02*
X142562619Y-121682700D01*
X142562619Y-121682700D02*
X142467381Y-121730319D01*
X142467381Y-121730319D02*
X142229286Y-121730319D01*
X142229286Y-121730319D02*
X142134048Y-121682700D01*
X142134048Y-121682700D02*
X142086429Y-121635080D01*
X189537819Y-114629023D02*
X190252104Y-114629023D01*
X190252104Y-114629023D02*
X190394961Y-114676642D01*
X190394961Y-114676642D02*
X190490200Y-114771880D01*
X190490200Y-114771880D02*
X190537819Y-114914737D01*
X190537819Y-114914737D02*
X190537819Y-115009975D01*
X190537819Y-113629023D02*
X190537819Y-114200451D01*
X190537819Y-113914737D02*
X189537819Y-113914737D01*
X189537819Y-113914737D02*
X189680676Y-114009975D01*
X189680676Y-114009975D02*
X189775914Y-114105213D01*
X189775914Y-114105213D02*
X189823533Y-114200451D01*
X190537819Y-113152832D02*
X190537819Y-112962356D01*
X190537819Y-112962356D02*
X190490200Y-112867118D01*
X190490200Y-112867118D02*
X190442580Y-112819499D01*
X190442580Y-112819499D02*
X190299723Y-112724261D01*
X190299723Y-112724261D02*
X190109247Y-112676642D01*
X190109247Y-112676642D02*
X189728295Y-112676642D01*
X189728295Y-112676642D02*
X189633057Y-112724261D01*
X189633057Y-112724261D02*
X189585438Y-112771880D01*
X189585438Y-112771880D02*
X189537819Y-112867118D01*
X189537819Y-112867118D02*
X189537819Y-113057594D01*
X189537819Y-113057594D02*
X189585438Y-113152832D01*
X189585438Y-113152832D02*
X189633057Y-113200451D01*
X189633057Y-113200451D02*
X189728295Y-113248070D01*
X189728295Y-113248070D02*
X189966390Y-113248070D01*
X189966390Y-113248070D02*
X190061628Y-113200451D01*
X190061628Y-113200451D02*
X190109247Y-113152832D01*
X190109247Y-113152832D02*
X190156866Y-113057594D01*
X190156866Y-113057594D02*
X190156866Y-112867118D01*
X190156866Y-112867118D02*
X190109247Y-112771880D01*
X190109247Y-112771880D02*
X190061628Y-112724261D01*
X190061628Y-112724261D02*
X189966390Y-112676642D01*
X138451819Y-85208833D02*
X139166104Y-85208833D01*
X139166104Y-85208833D02*
X139308961Y-85256452D01*
X139308961Y-85256452D02*
X139404200Y-85351690D01*
X139404200Y-85351690D02*
X139451819Y-85494547D01*
X139451819Y-85494547D02*
X139451819Y-85589785D01*
X139451819Y-84732642D02*
X138451819Y-84732642D01*
X138451819Y-84732642D02*
X138451819Y-84351690D01*
X138451819Y-84351690D02*
X138499438Y-84256452D01*
X138499438Y-84256452D02*
X138547057Y-84208833D01*
X138547057Y-84208833D02*
X138642295Y-84161214D01*
X138642295Y-84161214D02*
X138785152Y-84161214D01*
X138785152Y-84161214D02*
X138880390Y-84208833D01*
X138880390Y-84208833D02*
X138928009Y-84256452D01*
X138928009Y-84256452D02*
X138975628Y-84351690D01*
X138975628Y-84351690D02*
X138975628Y-84732642D01*
X138880390Y-83589785D02*
X138832771Y-83685023D01*
X138832771Y-83685023D02*
X138785152Y-83732642D01*
X138785152Y-83732642D02*
X138689914Y-83780261D01*
X138689914Y-83780261D02*
X138642295Y-83780261D01*
X138642295Y-83780261D02*
X138547057Y-83732642D01*
X138547057Y-83732642D02*
X138499438Y-83685023D01*
X138499438Y-83685023D02*
X138451819Y-83589785D01*
X138451819Y-83589785D02*
X138451819Y-83399309D01*
X138451819Y-83399309D02*
X138499438Y-83304071D01*
X138499438Y-83304071D02*
X138547057Y-83256452D01*
X138547057Y-83256452D02*
X138642295Y-83208833D01*
X138642295Y-83208833D02*
X138689914Y-83208833D01*
X138689914Y-83208833D02*
X138785152Y-83256452D01*
X138785152Y-83256452D02*
X138832771Y-83304071D01*
X138832771Y-83304071D02*
X138880390Y-83399309D01*
X138880390Y-83399309D02*
X138880390Y-83589785D01*
X138880390Y-83589785D02*
X138928009Y-83685023D01*
X138928009Y-83685023D02*
X138975628Y-83732642D01*
X138975628Y-83732642D02*
X139070866Y-83780261D01*
X139070866Y-83780261D02*
X139261342Y-83780261D01*
X139261342Y-83780261D02*
X139356580Y-83732642D01*
X139356580Y-83732642D02*
X139404200Y-83685023D01*
X139404200Y-83685023D02*
X139451819Y-83589785D01*
X139451819Y-83589785D02*
X139451819Y-83399309D01*
X139451819Y-83399309D02*
X139404200Y-83304071D01*
X139404200Y-83304071D02*
X139356580Y-83256452D01*
X139356580Y-83256452D02*
X139261342Y-83208833D01*
X139261342Y-83208833D02*
X139070866Y-83208833D01*
X139070866Y-83208833D02*
X138975628Y-83256452D01*
X138975628Y-83256452D02*
X138928009Y-83304071D01*
X138928009Y-83304071D02*
X138880390Y-83399309D01*
X207793819Y-92828833D02*
X208508104Y-92828833D01*
X208508104Y-92828833D02*
X208650961Y-92876452D01*
X208650961Y-92876452D02*
X208746200Y-92971690D01*
X208746200Y-92971690D02*
X208793819Y-93114547D01*
X208793819Y-93114547D02*
X208793819Y-93209785D01*
X208793819Y-92352642D02*
X207793819Y-92352642D01*
X207793819Y-92352642D02*
X207793819Y-91971690D01*
X207793819Y-91971690D02*
X207841438Y-91876452D01*
X207841438Y-91876452D02*
X207889057Y-91828833D01*
X207889057Y-91828833D02*
X207984295Y-91781214D01*
X207984295Y-91781214D02*
X208127152Y-91781214D01*
X208127152Y-91781214D02*
X208222390Y-91828833D01*
X208222390Y-91828833D02*
X208270009Y-91876452D01*
X208270009Y-91876452D02*
X208317628Y-91971690D01*
X208317628Y-91971690D02*
X208317628Y-92352642D01*
X208793819Y-90828833D02*
X208793819Y-91400261D01*
X208793819Y-91114547D02*
X207793819Y-91114547D01*
X207793819Y-91114547D02*
X207936676Y-91209785D01*
X207936676Y-91209785D02*
X208031914Y-91305023D01*
X208031914Y-91305023D02*
X208079533Y-91400261D01*
X150682905Y-81822319D02*
X150682905Y-80822319D01*
X151254333Y-81822319D02*
X150825762Y-81250890D01*
X151254333Y-80822319D02*
X150682905Y-81393747D01*
X152111476Y-81155652D02*
X152111476Y-81822319D01*
X151873381Y-80774700D02*
X151635286Y-81488985D01*
X151635286Y-81488985D02*
X152254333Y-81488985D01*
X158485476Y-120730319D02*
X158485476Y-121444604D01*
X158485476Y-121444604D02*
X158437857Y-121587461D01*
X158437857Y-121587461D02*
X158342619Y-121682700D01*
X158342619Y-121682700D02*
X158199762Y-121730319D01*
X158199762Y-121730319D02*
X158104524Y-121730319D01*
X158866429Y-120730319D02*
X159485476Y-120730319D01*
X159485476Y-120730319D02*
X159152143Y-121111271D01*
X159152143Y-121111271D02*
X159295000Y-121111271D01*
X159295000Y-121111271D02*
X159390238Y-121158890D01*
X159390238Y-121158890D02*
X159437857Y-121206509D01*
X159437857Y-121206509D02*
X159485476Y-121301747D01*
X159485476Y-121301747D02*
X159485476Y-121539842D01*
X159485476Y-121539842D02*
X159437857Y-121635080D01*
X159437857Y-121635080D02*
X159390238Y-121682700D01*
X159390238Y-121682700D02*
X159295000Y-121730319D01*
X159295000Y-121730319D02*
X159009286Y-121730319D01*
X159009286Y-121730319D02*
X158914048Y-121682700D01*
X158914048Y-121682700D02*
X158866429Y-121635080D01*
X160056905Y-121158890D02*
X159961667Y-121111271D01*
X159961667Y-121111271D02*
X159914048Y-121063652D01*
X159914048Y-121063652D02*
X159866429Y-120968414D01*
X159866429Y-120968414D02*
X159866429Y-120920795D01*
X159866429Y-120920795D02*
X159914048Y-120825557D01*
X159914048Y-120825557D02*
X159961667Y-120777938D01*
X159961667Y-120777938D02*
X160056905Y-120730319D01*
X160056905Y-120730319D02*
X160247381Y-120730319D01*
X160247381Y-120730319D02*
X160342619Y-120777938D01*
X160342619Y-120777938D02*
X160390238Y-120825557D01*
X160390238Y-120825557D02*
X160437857Y-120920795D01*
X160437857Y-120920795D02*
X160437857Y-120968414D01*
X160437857Y-120968414D02*
X160390238Y-121063652D01*
X160390238Y-121063652D02*
X160342619Y-121111271D01*
X160342619Y-121111271D02*
X160247381Y-121158890D01*
X160247381Y-121158890D02*
X160056905Y-121158890D01*
X160056905Y-121158890D02*
X159961667Y-121206509D01*
X159961667Y-121206509D02*
X159914048Y-121254128D01*
X159914048Y-121254128D02*
X159866429Y-121349366D01*
X159866429Y-121349366D02*
X159866429Y-121539842D01*
X159866429Y-121539842D02*
X159914048Y-121635080D01*
X159914048Y-121635080D02*
X159961667Y-121682700D01*
X159961667Y-121682700D02*
X160056905Y-121730319D01*
X160056905Y-121730319D02*
X160247381Y-121730319D01*
X160247381Y-121730319D02*
X160342619Y-121682700D01*
X160342619Y-121682700D02*
X160390238Y-121635080D01*
X160390238Y-121635080D02*
X160437857Y-121539842D01*
X160437857Y-121539842D02*
X160437857Y-121349366D01*
X160437857Y-121349366D02*
X160390238Y-121254128D01*
X160390238Y-121254128D02*
X160342619Y-121206509D01*
X160342619Y-121206509D02*
X160247381Y-121158890D01*
X144234819Y-85685023D02*
X144949104Y-85685023D01*
X144949104Y-85685023D02*
X145091961Y-85732642D01*
X145091961Y-85732642D02*
X145187200Y-85827880D01*
X145187200Y-85827880D02*
X145234819Y-85970737D01*
X145234819Y-85970737D02*
X145234819Y-86065975D01*
X145234819Y-85208832D02*
X144234819Y-85208832D01*
X144234819Y-85208832D02*
X144234819Y-84827880D01*
X144234819Y-84827880D02*
X144282438Y-84732642D01*
X144282438Y-84732642D02*
X144330057Y-84685023D01*
X144330057Y-84685023D02*
X144425295Y-84637404D01*
X144425295Y-84637404D02*
X144568152Y-84637404D01*
X144568152Y-84637404D02*
X144663390Y-84685023D01*
X144663390Y-84685023D02*
X144711009Y-84732642D01*
X144711009Y-84732642D02*
X144758628Y-84827880D01*
X144758628Y-84827880D02*
X144758628Y-85208832D01*
X145234819Y-83685023D02*
X145234819Y-84256451D01*
X145234819Y-83970737D02*
X144234819Y-83970737D01*
X144234819Y-83970737D02*
X144377676Y-84065975D01*
X144377676Y-84065975D02*
X144472914Y-84161213D01*
X144472914Y-84161213D02*
X144520533Y-84256451D01*
X144234819Y-82780261D02*
X144234819Y-83256451D01*
X144234819Y-83256451D02*
X144711009Y-83304070D01*
X144711009Y-83304070D02*
X144663390Y-83256451D01*
X144663390Y-83256451D02*
X144615771Y-83161213D01*
X144615771Y-83161213D02*
X144615771Y-82923118D01*
X144615771Y-82923118D02*
X144663390Y-82827880D01*
X144663390Y-82827880D02*
X144711009Y-82780261D01*
X144711009Y-82780261D02*
X144806247Y-82732642D01*
X144806247Y-82732642D02*
X145044342Y-82732642D01*
X145044342Y-82732642D02*
X145139580Y-82780261D01*
X145139580Y-82780261D02*
X145187200Y-82827880D01*
X145187200Y-82827880D02*
X145234819Y-82923118D01*
X145234819Y-82923118D02*
X145234819Y-83161213D01*
X145234819Y-83161213D02*
X145187200Y-83256451D01*
X145187200Y-83256451D02*
X145139580Y-83304070D01*
X161565819Y-93082833D02*
X162280104Y-93082833D01*
X162280104Y-93082833D02*
X162422961Y-93130452D01*
X162422961Y-93130452D02*
X162518200Y-93225690D01*
X162518200Y-93225690D02*
X162565819Y-93368547D01*
X162565819Y-93368547D02*
X162565819Y-93463785D01*
X162565819Y-92606642D02*
X161565819Y-92606642D01*
X161565819Y-92606642D02*
X161565819Y-92225690D01*
X161565819Y-92225690D02*
X161613438Y-92130452D01*
X161613438Y-92130452D02*
X161661057Y-92082833D01*
X161661057Y-92082833D02*
X161756295Y-92035214D01*
X161756295Y-92035214D02*
X161899152Y-92035214D01*
X161899152Y-92035214D02*
X161994390Y-92082833D01*
X161994390Y-92082833D02*
X162042009Y-92130452D01*
X162042009Y-92130452D02*
X162089628Y-92225690D01*
X162089628Y-92225690D02*
X162089628Y-92606642D01*
X161565819Y-91701880D02*
X161565819Y-91082833D01*
X161565819Y-91082833D02*
X161946771Y-91416166D01*
X161946771Y-91416166D02*
X161946771Y-91273309D01*
X161946771Y-91273309D02*
X161994390Y-91178071D01*
X161994390Y-91178071D02*
X162042009Y-91130452D01*
X162042009Y-91130452D02*
X162137247Y-91082833D01*
X162137247Y-91082833D02*
X162375342Y-91082833D01*
X162375342Y-91082833D02*
X162470580Y-91130452D01*
X162470580Y-91130452D02*
X162518200Y-91178071D01*
X162518200Y-91178071D02*
X162565819Y-91273309D01*
X162565819Y-91273309D02*
X162565819Y-91559023D01*
X162565819Y-91559023D02*
X162518200Y-91654261D01*
X162518200Y-91654261D02*
X162470580Y-91701880D01*
X138451819Y-92828833D02*
X139166104Y-92828833D01*
X139166104Y-92828833D02*
X139308961Y-92876452D01*
X139308961Y-92876452D02*
X139404200Y-92971690D01*
X139404200Y-92971690D02*
X139451819Y-93114547D01*
X139451819Y-93114547D02*
X139451819Y-93209785D01*
X139451819Y-92352642D02*
X138451819Y-92352642D01*
X138451819Y-92352642D02*
X138451819Y-91971690D01*
X138451819Y-91971690D02*
X138499438Y-91876452D01*
X138499438Y-91876452D02*
X138547057Y-91828833D01*
X138547057Y-91828833D02*
X138642295Y-91781214D01*
X138642295Y-91781214D02*
X138785152Y-91781214D01*
X138785152Y-91781214D02*
X138880390Y-91828833D01*
X138880390Y-91828833D02*
X138928009Y-91876452D01*
X138928009Y-91876452D02*
X138975628Y-91971690D01*
X138975628Y-91971690D02*
X138975628Y-92352642D01*
X138785152Y-90924071D02*
X139451819Y-90924071D01*
X138404200Y-91162166D02*
X139118485Y-91400261D01*
X139118485Y-91400261D02*
X139118485Y-90781214D01*
X107907666Y-80044319D02*
X107907666Y-80758604D01*
X107907666Y-80758604D02*
X107860047Y-80901461D01*
X107860047Y-80901461D02*
X107764809Y-80996700D01*
X107764809Y-80996700D02*
X107621952Y-81044319D01*
X107621952Y-81044319D02*
X107526714Y-81044319D01*
X108907666Y-81044319D02*
X108336238Y-81044319D01*
X108621952Y-81044319D02*
X108621952Y-80044319D01*
X108621952Y-80044319D02*
X108526714Y-80187176D01*
X108526714Y-80187176D02*
X108431476Y-80282414D01*
X108431476Y-80282414D02*
X108336238Y-80330033D01*
X207793819Y-85462833D02*
X208508104Y-85462833D01*
X208508104Y-85462833D02*
X208650961Y-85510452D01*
X208650961Y-85510452D02*
X208746200Y-85605690D01*
X208746200Y-85605690D02*
X208793819Y-85748547D01*
X208793819Y-85748547D02*
X208793819Y-85843785D01*
X208793819Y-84986642D02*
X207793819Y-84986642D01*
X207793819Y-84986642D02*
X207793819Y-84605690D01*
X207793819Y-84605690D02*
X207841438Y-84510452D01*
X207841438Y-84510452D02*
X207889057Y-84462833D01*
X207889057Y-84462833D02*
X207984295Y-84415214D01*
X207984295Y-84415214D02*
X208127152Y-84415214D01*
X208127152Y-84415214D02*
X208222390Y-84462833D01*
X208222390Y-84462833D02*
X208270009Y-84510452D01*
X208270009Y-84510452D02*
X208317628Y-84605690D01*
X208317628Y-84605690D02*
X208317628Y-84986642D01*
X207793819Y-83510452D02*
X207793819Y-83986642D01*
X207793819Y-83986642D02*
X208270009Y-84034261D01*
X208270009Y-84034261D02*
X208222390Y-83986642D01*
X208222390Y-83986642D02*
X208174771Y-83891404D01*
X208174771Y-83891404D02*
X208174771Y-83653309D01*
X208174771Y-83653309D02*
X208222390Y-83558071D01*
X208222390Y-83558071D02*
X208270009Y-83510452D01*
X208270009Y-83510452D02*
X208365247Y-83462833D01*
X208365247Y-83462833D02*
X208603342Y-83462833D01*
X208603342Y-83462833D02*
X208698580Y-83510452D01*
X208698580Y-83510452D02*
X208746200Y-83558071D01*
X208746200Y-83558071D02*
X208793819Y-83653309D01*
X208793819Y-83653309D02*
X208793819Y-83891404D01*
X208793819Y-83891404D02*
X208746200Y-83986642D01*
X208746200Y-83986642D02*
X208698580Y-84034261D01*
X163565476Y-120730319D02*
X163565476Y-121444604D01*
X163565476Y-121444604D02*
X163517857Y-121587461D01*
X163517857Y-121587461D02*
X163422619Y-121682700D01*
X163422619Y-121682700D02*
X163279762Y-121730319D01*
X163279762Y-121730319D02*
X163184524Y-121730319D01*
X164470238Y-121063652D02*
X164470238Y-121730319D01*
X164232143Y-120682700D02*
X163994048Y-121396985D01*
X163994048Y-121396985D02*
X164613095Y-121396985D01*
X165184524Y-120730319D02*
X165279762Y-120730319D01*
X165279762Y-120730319D02*
X165375000Y-120777938D01*
X165375000Y-120777938D02*
X165422619Y-120825557D01*
X165422619Y-120825557D02*
X165470238Y-120920795D01*
X165470238Y-120920795D02*
X165517857Y-121111271D01*
X165517857Y-121111271D02*
X165517857Y-121349366D01*
X165517857Y-121349366D02*
X165470238Y-121539842D01*
X165470238Y-121539842D02*
X165422619Y-121635080D01*
X165422619Y-121635080D02*
X165375000Y-121682700D01*
X165375000Y-121682700D02*
X165279762Y-121730319D01*
X165279762Y-121730319D02*
X165184524Y-121730319D01*
X165184524Y-121730319D02*
X165089286Y-121682700D01*
X165089286Y-121682700D02*
X165041667Y-121635080D01*
X165041667Y-121635080D02*
X164994048Y-121539842D01*
X164994048Y-121539842D02*
X164946429Y-121349366D01*
X164946429Y-121349366D02*
X164946429Y-121111271D01*
X164946429Y-121111271D02*
X164994048Y-120920795D01*
X164994048Y-120920795D02*
X165041667Y-120825557D01*
X165041667Y-120825557D02*
X165089286Y-120777938D01*
X165089286Y-120777938D02*
X165184524Y-120730319D01*
X73240819Y-82224594D02*
X72240819Y-82224594D01*
X73240819Y-81653166D02*
X72669390Y-82081737D01*
X72240819Y-81653166D02*
X72812247Y-82224594D01*
X72336057Y-81272213D02*
X72288438Y-81224594D01*
X72288438Y-81224594D02*
X72240819Y-81129356D01*
X72240819Y-81129356D02*
X72240819Y-80891261D01*
X72240819Y-80891261D02*
X72288438Y-80796023D01*
X72288438Y-80796023D02*
X72336057Y-80748404D01*
X72336057Y-80748404D02*
X72431295Y-80700785D01*
X72431295Y-80700785D02*
X72526533Y-80700785D01*
X72526533Y-80700785D02*
X72669390Y-80748404D01*
X72669390Y-80748404D02*
X73240819Y-81319832D01*
X73240819Y-81319832D02*
X73240819Y-80700785D01*
X173796905Y-81822319D02*
X173796905Y-80822319D01*
X174368333Y-81822319D02*
X173939762Y-81250890D01*
X174368333Y-80822319D02*
X173796905Y-81393747D01*
X174701667Y-80822319D02*
X175320714Y-80822319D01*
X175320714Y-80822319D02*
X174987381Y-81203271D01*
X174987381Y-81203271D02*
X175130238Y-81203271D01*
X175130238Y-81203271D02*
X175225476Y-81250890D01*
X175225476Y-81250890D02*
X175273095Y-81298509D01*
X175273095Y-81298509D02*
X175320714Y-81393747D01*
X175320714Y-81393747D02*
X175320714Y-81631842D01*
X175320714Y-81631842D02*
X175273095Y-81727080D01*
X175273095Y-81727080D02*
X175225476Y-81774700D01*
X175225476Y-81774700D02*
X175130238Y-81822319D01*
X175130238Y-81822319D02*
X174844524Y-81822319D01*
X174844524Y-81822319D02*
X174749286Y-81774700D01*
X174749286Y-81774700D02*
X174701667Y-81727080D01*
X184679819Y-92970833D02*
X185394104Y-92970833D01*
X185394104Y-92970833D02*
X185536961Y-93018452D01*
X185536961Y-93018452D02*
X185632200Y-93113690D01*
X185632200Y-93113690D02*
X185679819Y-93256547D01*
X185679819Y-93256547D02*
X185679819Y-93351785D01*
X185679819Y-92494642D02*
X184679819Y-92494642D01*
X184679819Y-92494642D02*
X184679819Y-92113690D01*
X184679819Y-92113690D02*
X184727438Y-92018452D01*
X184727438Y-92018452D02*
X184775057Y-91970833D01*
X184775057Y-91970833D02*
X184870295Y-91923214D01*
X184870295Y-91923214D02*
X185013152Y-91923214D01*
X185013152Y-91923214D02*
X185108390Y-91970833D01*
X185108390Y-91970833D02*
X185156009Y-92018452D01*
X185156009Y-92018452D02*
X185203628Y-92113690D01*
X185203628Y-92113690D02*
X185203628Y-92494642D01*
X184775057Y-91542261D02*
X184727438Y-91494642D01*
X184727438Y-91494642D02*
X184679819Y-91399404D01*
X184679819Y-91399404D02*
X184679819Y-91161309D01*
X184679819Y-91161309D02*
X184727438Y-91066071D01*
X184727438Y-91066071D02*
X184775057Y-91018452D01*
X184775057Y-91018452D02*
X184870295Y-90970833D01*
X184870295Y-90970833D02*
X184965533Y-90970833D01*
X184965533Y-90970833D02*
X185108390Y-91018452D01*
X185108390Y-91018452D02*
X185679819Y-91589880D01*
X185679819Y-91589880D02*
X185679819Y-90970833D01*
X161565819Y-85462833D02*
X162280104Y-85462833D01*
X162280104Y-85462833D02*
X162422961Y-85510452D01*
X162422961Y-85510452D02*
X162518200Y-85605690D01*
X162518200Y-85605690D02*
X162565819Y-85748547D01*
X162565819Y-85748547D02*
X162565819Y-85843785D01*
X162565819Y-84986642D02*
X161565819Y-84986642D01*
X161565819Y-84986642D02*
X161565819Y-84605690D01*
X161565819Y-84605690D02*
X161613438Y-84510452D01*
X161613438Y-84510452D02*
X161661057Y-84462833D01*
X161661057Y-84462833D02*
X161756295Y-84415214D01*
X161756295Y-84415214D02*
X161899152Y-84415214D01*
X161899152Y-84415214D02*
X161994390Y-84462833D01*
X161994390Y-84462833D02*
X162042009Y-84510452D01*
X162042009Y-84510452D02*
X162089628Y-84605690D01*
X162089628Y-84605690D02*
X162089628Y-84986642D01*
X161565819Y-84081880D02*
X161565819Y-83415214D01*
X161565819Y-83415214D02*
X162565819Y-83843785D01*
D11*
%TO.C,JP6*%
X183125000Y-83229500D02*
X183725000Y-83229500D01*
X184425000Y-83929500D02*
X184425000Y-85329500D01*
X182425000Y-85329500D02*
X182425000Y-83929500D01*
X183725000Y-86029500D02*
X183125000Y-86029500D01*
X184425000Y-83929500D02*
G75*
G03*
X183725000Y-83229500I-699999J1D01*
G01*
X183125000Y-83229500D02*
G75*
G03*
X182425000Y-83929500I-1J-699999D01*
G01*
X183725000Y-86029500D02*
G75*
G03*
X184425000Y-85329500I0J700000D01*
G01*
X182425000Y-85329500D02*
G75*
G03*
X183125000Y-86029500I700000J0D01*
G01*
%TO.C,J3*%
X105915000Y-109745500D02*
X105915000Y-122565500D01*
X105915000Y-109745500D02*
X108515000Y-109745500D01*
X105915000Y-122565500D02*
X111115000Y-122565500D01*
X108515000Y-109745500D02*
X108515000Y-112345500D01*
X108515000Y-112345500D02*
X111115000Y-112345500D01*
X109785000Y-109745500D02*
X111115000Y-109745500D01*
X111115000Y-109745500D02*
X111115000Y-111075500D01*
X111115000Y-112345500D02*
X111115000Y-122565500D01*
%TO.C,D6*%
X177305000Y-79295500D02*
X176655000Y-79295500D01*
X176655000Y-80415500D02*
X176655000Y-78175500D01*
X176655000Y-78175500D02*
X172415000Y-78175500D01*
X176055000Y-80415500D02*
X176055000Y-78175500D01*
X175935000Y-80415500D02*
X175935000Y-78175500D01*
X175815000Y-80415500D02*
X175815000Y-78175500D01*
X172415000Y-80415500D02*
X176655000Y-80415500D01*
X172415000Y-78175500D02*
X172415000Y-80415500D01*
X171765000Y-79295500D02*
X172415000Y-79295500D01*
%TO.C,JP11*%
X142231000Y-90737500D02*
X142831000Y-90737500D01*
X143531000Y-91437500D02*
X143531000Y-92837500D01*
X141531000Y-92837500D02*
X141531000Y-91437500D01*
X142831000Y-93537500D02*
X142231000Y-93537500D01*
X143531000Y-91437500D02*
G75*
G03*
X142831000Y-90737500I-699999J1D01*
G01*
X142231000Y-90737500D02*
G75*
G03*
X141531000Y-91437500I-1J-699999D01*
G01*
X142831000Y-93537500D02*
G75*
G03*
X143531000Y-92837500I0J700000D01*
G01*
X141531000Y-92837500D02*
G75*
G03*
X142231000Y-93537500I700000J0D01*
G01*
%TO.C,K6*%
X73703500Y-100600000D02*
X73703500Y-99390000D01*
X75003500Y-100600000D02*
X73703500Y-100600000D01*
X73853500Y-100440000D02*
X94443500Y-100440000D01*
X94443500Y-100440000D02*
X94443500Y-90060000D01*
X73853500Y-96760000D02*
X74893500Y-96760000D01*
X74913500Y-96760000D02*
X74913500Y-93760000D01*
X75063500Y-95590000D02*
X76263500Y-95590000D01*
X75693500Y-95590000D02*
X75693500Y-96690000D01*
X75863500Y-95590000D02*
X75463500Y-94890000D01*
X76263500Y-95590000D02*
X76263500Y-94890000D01*
X75063500Y-94890000D02*
X75063500Y-95590000D01*
X75693500Y-94890000D02*
X75693500Y-93790000D01*
X76263500Y-94890000D02*
X75063500Y-94890000D01*
X74913500Y-93760000D02*
X73853500Y-93760000D01*
X73853500Y-90060000D02*
X73853500Y-100440000D01*
X94443500Y-90060000D02*
X73853500Y-90060000D01*
%TO.C,K5*%
X123211000Y-82317500D02*
X124421000Y-82317500D01*
X123211000Y-83617500D02*
X123211000Y-82317500D01*
X123371000Y-82467500D02*
X123371000Y-103057500D01*
X123371000Y-103057500D02*
X133751000Y-103057500D01*
X127051000Y-82467500D02*
X127051000Y-83507500D01*
X127051000Y-83527500D02*
X130051000Y-83527500D01*
X128221000Y-83677500D02*
X128221000Y-84877500D01*
X128221000Y-84307500D02*
X127121000Y-84307500D01*
X128221000Y-84477500D02*
X128921000Y-84077500D01*
X128221000Y-84877500D02*
X128921000Y-84877500D01*
X128921000Y-83677500D02*
X128221000Y-83677500D01*
X128921000Y-84307500D02*
X130021000Y-84307500D01*
X128921000Y-84877500D02*
X128921000Y-83677500D01*
X130051000Y-83527500D02*
X130051000Y-82467500D01*
X133751000Y-82467500D02*
X123371000Y-82467500D01*
X133751000Y-103057500D02*
X133751000Y-82467500D01*
%TO.C,JP12*%
X119371000Y-90849500D02*
X119971000Y-90849500D01*
X120671000Y-91549500D02*
X120671000Y-92949500D01*
X118671000Y-92949500D02*
X118671000Y-91549500D01*
X119971000Y-93649500D02*
X119371000Y-93649500D01*
X120671000Y-91549500D02*
G75*
G03*
X119971000Y-90849500I-699999J1D01*
G01*
X119371000Y-90849500D02*
G75*
G03*
X118671000Y-91549500I-1J-699999D01*
G01*
X119971000Y-93649500D02*
G75*
G03*
X120671000Y-92949500I0J700000D01*
G01*
X118671000Y-92949500D02*
G75*
G03*
X119371000Y-93649500I700000J0D01*
G01*
%TO.C,JP16*%
X119971000Y-85775500D02*
X119371000Y-85775500D01*
X118671000Y-85075500D02*
X118671000Y-83675500D01*
X120671000Y-83675500D02*
X120671000Y-85075500D01*
X119371000Y-82975500D02*
X119971000Y-82975500D01*
X118671000Y-85075500D02*
G75*
G03*
X119371000Y-85775500I699999J-1D01*
G01*
X119971000Y-85775500D02*
G75*
G03*
X120671000Y-85075500I1J699999D01*
G01*
X119371000Y-82975500D02*
G75*
G03*
X118671000Y-83675500I0J-700000D01*
G01*
X120671000Y-83675500D02*
G75*
G03*
X119971000Y-82975500I-700000J0D01*
G01*
%TO.C,D8*%
X131331000Y-78787500D02*
X130681000Y-78787500D01*
X130681000Y-79907500D02*
X130681000Y-77667500D01*
X130681000Y-77667500D02*
X126441000Y-77667500D01*
X130081000Y-79907500D02*
X130081000Y-77667500D01*
X129961000Y-79907500D02*
X129961000Y-77667500D01*
X129841000Y-79907500D02*
X129841000Y-77667500D01*
X126441000Y-79907500D02*
X130681000Y-79907500D01*
X126441000Y-77667500D02*
X126441000Y-79907500D01*
X125791000Y-78787500D02*
X126441000Y-78787500D01*
%TO.C,JP9*%
X188459000Y-90849500D02*
X189059000Y-90849500D01*
X189759000Y-91549500D02*
X189759000Y-92949500D01*
X187759000Y-92949500D02*
X187759000Y-91549500D01*
X189059000Y-93649500D02*
X188459000Y-93649500D01*
X189759000Y-91549500D02*
G75*
G03*
X189059000Y-90849500I-699999J1D01*
G01*
X188459000Y-90849500D02*
G75*
G03*
X187759000Y-91549500I-1J-699999D01*
G01*
X189059000Y-93649500D02*
G75*
G03*
X189759000Y-92949500I0J700000D01*
G01*
X187759000Y-92949500D02*
G75*
G03*
X188459000Y-93649500I700000J0D01*
G01*
%TO.C,JP13*%
X189059000Y-85775500D02*
X188459000Y-85775500D01*
X187759000Y-85075500D02*
X187759000Y-83675500D01*
X189759000Y-83675500D02*
X189759000Y-85075500D01*
X188459000Y-82975500D02*
X189059000Y-82975500D01*
X187759000Y-85075500D02*
G75*
G03*
X188459000Y-85775500I699999J-1D01*
G01*
X189059000Y-85775500D02*
G75*
G03*
X189759000Y-85075500I1J699999D01*
G01*
X188459000Y-82975500D02*
G75*
G03*
X187759000Y-83675500I0J-700000D01*
G01*
X189759000Y-83675500D02*
G75*
G03*
X189059000Y-82975500I-700000J0D01*
G01*
%TO.C,JP10*%
X165345000Y-90737500D02*
X165945000Y-90737500D01*
X166645000Y-91437500D02*
X166645000Y-92837500D01*
X164645000Y-92837500D02*
X164645000Y-91437500D01*
X165945000Y-93537500D02*
X165345000Y-93537500D01*
X166645000Y-91437500D02*
G75*
G03*
X165945000Y-90737500I-699999J1D01*
G01*
X165345000Y-90737500D02*
G75*
G03*
X164645000Y-91437500I-1J-699999D01*
G01*
X165945000Y-93537500D02*
G75*
G03*
X166645000Y-92837500I0J700000D01*
G01*
X164645000Y-92837500D02*
G75*
G03*
X165345000Y-93537500I700000J0D01*
G01*
%TO.C,D10*%
X70173500Y-92480000D02*
X70173500Y-93130000D01*
X71293500Y-93130000D02*
X69053500Y-93130000D01*
X69053500Y-93130000D02*
X69053500Y-97370000D01*
X71293500Y-93730000D02*
X69053500Y-93730000D01*
X71293500Y-93850000D02*
X69053500Y-93850000D01*
X71293500Y-93970000D02*
X69053500Y-93970000D01*
X71293500Y-97370000D02*
X71293500Y-93130000D01*
X69053500Y-97370000D02*
X71293500Y-97370000D01*
X70173500Y-98020000D02*
X70173500Y-97370000D01*
%TO.C,K8*%
X73703500Y-114570000D02*
X73703500Y-113360000D01*
X75003500Y-114570000D02*
X73703500Y-114570000D01*
X73853500Y-114410000D02*
X94443500Y-114410000D01*
X94443500Y-114410000D02*
X94443500Y-104030000D01*
X73853500Y-110730000D02*
X74893500Y-110730000D01*
X74913500Y-110730000D02*
X74913500Y-107730000D01*
X75063500Y-109560000D02*
X76263500Y-109560000D01*
X75693500Y-109560000D02*
X75693500Y-110660000D01*
X75863500Y-109560000D02*
X75463500Y-108860000D01*
X76263500Y-109560000D02*
X76263500Y-108860000D01*
X75063500Y-108860000D02*
X75063500Y-109560000D01*
X75693500Y-108860000D02*
X75693500Y-107760000D01*
X76263500Y-108860000D02*
X75063500Y-108860000D01*
X74913500Y-107730000D02*
X73853500Y-107730000D01*
X73853500Y-104030000D02*
X73853500Y-114410000D01*
X94443500Y-104030000D02*
X73853500Y-104030000D01*
%TO.C,D12*%
X70173500Y-106450000D02*
X70173500Y-107100000D01*
X71293500Y-107100000D02*
X69053500Y-107100000D01*
X69053500Y-107100000D02*
X69053500Y-111340000D01*
X71293500Y-107700000D02*
X69053500Y-107700000D01*
X71293500Y-107820000D02*
X69053500Y-107820000D01*
X71293500Y-107940000D02*
X69053500Y-107940000D01*
X71293500Y-111340000D02*
X71293500Y-107100000D01*
X69053500Y-111340000D02*
X71293500Y-111340000D01*
X70173500Y-111990000D02*
X70173500Y-111340000D01*
%TO.C,JP14*%
X165945000Y-86029500D02*
X165345000Y-86029500D01*
X164645000Y-85329500D02*
X164645000Y-83929500D01*
X166645000Y-83929500D02*
X166645000Y-85329500D01*
X165345000Y-83229500D02*
X165945000Y-83229500D01*
X164645000Y-85329500D02*
G75*
G03*
X165345000Y-86029500I699999J-1D01*
G01*
X165945000Y-86029500D02*
G75*
G03*
X166645000Y-85329500I1J699999D01*
G01*
X165345000Y-83229500D02*
G75*
G03*
X164645000Y-83929500I0J-700000D01*
G01*
X166645000Y-83929500D02*
G75*
G03*
X165945000Y-83229500I-700000J0D01*
G01*
%TO.C,J18*%
X168977000Y-111005500D02*
X156157000Y-111005500D01*
X168977000Y-111005500D02*
X168977000Y-113605500D01*
X156157000Y-111005500D02*
X156157000Y-116205500D01*
X168977000Y-113605500D02*
X166377000Y-113605500D01*
X166377000Y-113605500D02*
X166377000Y-116205500D01*
X168977000Y-114875500D02*
X168977000Y-116205500D01*
X168977000Y-116205500D02*
X167647000Y-116205500D01*
X166377000Y-116205500D02*
X156157000Y-116205500D01*
%TO.C,K7*%
X73671000Y-128540000D02*
X73671000Y-127330000D01*
X74971000Y-128540000D02*
X73671000Y-128540000D01*
X73821000Y-128380000D02*
X94411000Y-128380000D01*
X94411000Y-128380000D02*
X94411000Y-118000000D01*
X73821000Y-124700000D02*
X74861000Y-124700000D01*
X74881000Y-124700000D02*
X74881000Y-121700000D01*
X75031000Y-123530000D02*
X76231000Y-123530000D01*
X75661000Y-123530000D02*
X75661000Y-124630000D01*
X75831000Y-123530000D02*
X75431000Y-122830000D01*
X76231000Y-123530000D02*
X76231000Y-122830000D01*
X75031000Y-122830000D02*
X75031000Y-123530000D01*
X75661000Y-122830000D02*
X75661000Y-121730000D01*
X76231000Y-122830000D02*
X75031000Y-122830000D01*
X74881000Y-121700000D02*
X73821000Y-121700000D01*
X73821000Y-118000000D02*
X73821000Y-128380000D01*
X94411000Y-118000000D02*
X73821000Y-118000000D01*
%TO.C,D11*%
X70141000Y-120420000D02*
X70141000Y-121070000D01*
X71261000Y-121070000D02*
X69021000Y-121070000D01*
X69021000Y-121070000D02*
X69021000Y-125310000D01*
X71261000Y-121670000D02*
X69021000Y-121670000D01*
X71261000Y-121790000D02*
X69021000Y-121790000D01*
X71261000Y-121910000D02*
X69021000Y-121910000D01*
X71261000Y-125310000D02*
X71261000Y-121070000D01*
X69021000Y-125310000D02*
X71261000Y-125310000D01*
X70141000Y-125960000D02*
X70141000Y-125310000D01*
%TO.C,K1*%
X192299000Y-82317500D02*
X193509000Y-82317500D01*
X192299000Y-83617500D02*
X192299000Y-82317500D01*
X192459000Y-82467500D02*
X192459000Y-103057500D01*
X192459000Y-103057500D02*
X202839000Y-103057500D01*
X196139000Y-82467500D02*
X196139000Y-83507500D01*
X196139000Y-83527500D02*
X199139000Y-83527500D01*
X197309000Y-83677500D02*
X197309000Y-84877500D01*
X197309000Y-84307500D02*
X196209000Y-84307500D01*
X197309000Y-84477500D02*
X198009000Y-84077500D01*
X197309000Y-84877500D02*
X198009000Y-84877500D01*
X198009000Y-83677500D02*
X197309000Y-83677500D01*
X198009000Y-84307500D02*
X199109000Y-84307500D01*
X198009000Y-84877500D02*
X198009000Y-83677500D01*
X199139000Y-83527500D02*
X199139000Y-82467500D01*
X202839000Y-82467500D02*
X192459000Y-82467500D01*
X202839000Y-103057500D02*
X202839000Y-82467500D01*
%TO.C,D9*%
X70173500Y-78764000D02*
X70173500Y-79414000D01*
X71293500Y-79414000D02*
X69053500Y-79414000D01*
X69053500Y-79414000D02*
X69053500Y-83654000D01*
X71293500Y-80014000D02*
X69053500Y-80014000D01*
X71293500Y-80134000D02*
X69053500Y-80134000D01*
X71293500Y-80254000D02*
X69053500Y-80254000D01*
X71293500Y-83654000D02*
X71293500Y-79414000D01*
X69053500Y-83654000D02*
X71293500Y-83654000D01*
X70173500Y-84304000D02*
X70173500Y-83654000D01*
%TO.C,D7*%
X154191000Y-79295500D02*
X153541000Y-79295500D01*
X153541000Y-80415500D02*
X153541000Y-78175500D01*
X153541000Y-78175500D02*
X149301000Y-78175500D01*
X152941000Y-80415500D02*
X152941000Y-78175500D01*
X152821000Y-80415500D02*
X152821000Y-78175500D01*
X152701000Y-80415500D02*
X152701000Y-78175500D01*
X149301000Y-80415500D02*
X153541000Y-80415500D01*
X149301000Y-78175500D02*
X149301000Y-80415500D01*
X148651000Y-79295500D02*
X149301000Y-79295500D01*
%TO.C,D5*%
X200419000Y-79295500D02*
X199769000Y-79295500D01*
X199769000Y-80415500D02*
X199769000Y-78175500D01*
X199769000Y-78175500D02*
X195529000Y-78175500D01*
X199169000Y-80415500D02*
X199169000Y-78175500D01*
X199049000Y-80415500D02*
X199049000Y-78175500D01*
X198929000Y-80415500D02*
X198929000Y-78175500D01*
X195529000Y-80415500D02*
X199769000Y-80415500D01*
X195529000Y-78175500D02*
X195529000Y-80415500D01*
X194879000Y-79295500D02*
X195529000Y-79295500D01*
%TO.C,J19*%
X191523000Y-116419500D02*
X204343000Y-116419500D01*
X191523000Y-116419500D02*
X191523000Y-113819500D01*
X204343000Y-116419500D02*
X204343000Y-111219500D01*
X191523000Y-113819500D02*
X194123000Y-113819500D01*
X194123000Y-113819500D02*
X194123000Y-111219500D01*
X191523000Y-112549500D02*
X191523000Y-111219500D01*
X191523000Y-111219500D02*
X192853000Y-111219500D01*
X194123000Y-111219500D02*
X204343000Y-111219500D01*
%TO.C,JP8*%
X136897000Y-82975500D02*
X137497000Y-82975500D01*
X138197000Y-83675500D02*
X138197000Y-85075500D01*
X136197000Y-85075500D02*
X136197000Y-83675500D01*
X137497000Y-85775500D02*
X136897000Y-85775500D01*
X138197000Y-83675500D02*
G75*
G03*
X137497000Y-82975500I-699999J1D01*
G01*
X136897000Y-82975500D02*
G75*
G03*
X136197000Y-83675500I-1J-699999D01*
G01*
X137497000Y-85775500D02*
G75*
G03*
X138197000Y-85075500I0J700000D01*
G01*
X136197000Y-85075500D02*
G75*
G03*
X136897000Y-85775500I700000J0D01*
G01*
%TO.C,JP1*%
X206239000Y-90595500D02*
X206839000Y-90595500D01*
X207539000Y-91295500D02*
X207539000Y-92695500D01*
X205539000Y-92695500D02*
X205539000Y-91295500D01*
X206839000Y-93395500D02*
X206239000Y-93395500D01*
X207539000Y-91295500D02*
G75*
G03*
X206839000Y-90595500I-699999J1D01*
G01*
X206239000Y-90595500D02*
G75*
G03*
X205539000Y-91295500I-1J-699999D01*
G01*
X206839000Y-93395500D02*
G75*
G03*
X207539000Y-92695500I0J700000D01*
G01*
X205539000Y-92695500D02*
G75*
G03*
X206239000Y-93395500I700000J0D01*
G01*
%TO.C,K4*%
X146071000Y-82317500D02*
X147281000Y-82317500D01*
X146071000Y-83617500D02*
X146071000Y-82317500D01*
X146231000Y-82467500D02*
X146231000Y-103057500D01*
X146231000Y-103057500D02*
X156611000Y-103057500D01*
X149911000Y-82467500D02*
X149911000Y-83507500D01*
X149911000Y-83527500D02*
X152911000Y-83527500D01*
X151081000Y-83677500D02*
X151081000Y-84877500D01*
X151081000Y-84307500D02*
X149981000Y-84307500D01*
X151081000Y-84477500D02*
X151781000Y-84077500D01*
X151081000Y-84877500D02*
X151781000Y-84877500D01*
X151781000Y-83677500D02*
X151081000Y-83677500D01*
X151781000Y-84307500D02*
X152881000Y-84307500D01*
X151781000Y-84877500D02*
X151781000Y-83677500D01*
X152911000Y-83527500D02*
X152911000Y-82467500D01*
X156611000Y-82467500D02*
X146231000Y-82467500D01*
X156611000Y-103057500D02*
X156611000Y-82467500D01*
%TO.C,JP15*%
X142831000Y-85775500D02*
X142231000Y-85775500D01*
X141531000Y-85075500D02*
X141531000Y-83675500D01*
X143531000Y-83675500D02*
X143531000Y-85075500D01*
X142231000Y-82975500D02*
X142831000Y-82975500D01*
X141531000Y-85075500D02*
G75*
G03*
X142231000Y-85775500I699999J-1D01*
G01*
X142831000Y-85775500D02*
G75*
G03*
X143531000Y-85075500I1J699999D01*
G01*
X142231000Y-82975500D02*
G75*
G03*
X141531000Y-83675500I0J-700000D01*
G01*
X143531000Y-83675500D02*
G75*
G03*
X142831000Y-82975500I-700000J0D01*
G01*
%TO.C,JP3*%
X160011000Y-90849500D02*
X160611000Y-90849500D01*
X161311000Y-91549500D02*
X161311000Y-92949500D01*
X159311000Y-92949500D02*
X159311000Y-91549500D01*
X160611000Y-93649500D02*
X160011000Y-93649500D01*
X161311000Y-91549500D02*
G75*
G03*
X160611000Y-90849500I-699999J1D01*
G01*
X160011000Y-90849500D02*
G75*
G03*
X159311000Y-91549500I-1J-699999D01*
G01*
X160611000Y-93649500D02*
G75*
G03*
X161311000Y-92949500I0J700000D01*
G01*
X159311000Y-92949500D02*
G75*
G03*
X160011000Y-93649500I700000J0D01*
G01*
%TO.C,JP4*%
X136897000Y-90595500D02*
X137497000Y-90595500D01*
X138197000Y-91295500D02*
X138197000Y-92695500D01*
X136197000Y-92695500D02*
X136197000Y-91295500D01*
X137497000Y-93395500D02*
X136897000Y-93395500D01*
X138197000Y-91295500D02*
G75*
G03*
X137497000Y-90595500I-699999J1D01*
G01*
X136897000Y-90595500D02*
G75*
G03*
X136197000Y-91295500I-1J-699999D01*
G01*
X137497000Y-93395500D02*
G75*
G03*
X138197000Y-92695500I0J700000D01*
G01*
X136197000Y-92695500D02*
G75*
G03*
X136897000Y-93395500I700000J0D01*
G01*
%TO.C,J1*%
X105641000Y-82029500D02*
X105641000Y-94849500D01*
X105641000Y-82029500D02*
X108241000Y-82029500D01*
X105641000Y-94849500D02*
X110841000Y-94849500D01*
X108241000Y-82029500D02*
X108241000Y-84629500D01*
X108241000Y-84629500D02*
X110841000Y-84629500D01*
X109511000Y-82029500D02*
X110841000Y-82029500D01*
X110841000Y-82029500D02*
X110841000Y-83359500D01*
X110841000Y-84629500D02*
X110841000Y-94849500D01*
%TO.C,JP5*%
X206239000Y-83229500D02*
X206839000Y-83229500D01*
X207539000Y-83929500D02*
X207539000Y-85329500D01*
X205539000Y-85329500D02*
X205539000Y-83929500D01*
X206839000Y-86029500D02*
X206239000Y-86029500D01*
X207539000Y-83929500D02*
G75*
G03*
X206839000Y-83229500I-699999J1D01*
G01*
X206239000Y-83229500D02*
G75*
G03*
X205539000Y-83929500I-1J-699999D01*
G01*
X206839000Y-86029500D02*
G75*
G03*
X207539000Y-85329500I0J700000D01*
G01*
X205539000Y-85329500D02*
G75*
G03*
X206239000Y-86029500I700000J0D01*
G01*
%TO.C,K2*%
X73736000Y-86836500D02*
X73736000Y-85626500D01*
X75036000Y-86836500D02*
X73736000Y-86836500D01*
X73886000Y-86676500D02*
X94476000Y-86676500D01*
X94476000Y-86676500D02*
X94476000Y-76296500D01*
X73886000Y-82996500D02*
X74926000Y-82996500D01*
X74946000Y-82996500D02*
X74946000Y-79996500D01*
X75096000Y-81826500D02*
X76296000Y-81826500D01*
X75726000Y-81826500D02*
X75726000Y-82926500D01*
X75896000Y-81826500D02*
X75496000Y-81126500D01*
X76296000Y-81826500D02*
X76296000Y-81126500D01*
X75096000Y-81126500D02*
X75096000Y-81826500D01*
X75726000Y-81126500D02*
X75726000Y-80026500D01*
X76296000Y-81126500D02*
X75096000Y-81126500D01*
X74946000Y-79996500D02*
X73886000Y-79996500D01*
X73886000Y-76296500D02*
X73886000Y-86676500D01*
X94476000Y-76296500D02*
X73886000Y-76296500D01*
%TO.C,K3*%
X169185000Y-82317500D02*
X170395000Y-82317500D01*
X169185000Y-83617500D02*
X169185000Y-82317500D01*
X169345000Y-82467500D02*
X169345000Y-103057500D01*
X169345000Y-103057500D02*
X179725000Y-103057500D01*
X173025000Y-82467500D02*
X173025000Y-83507500D01*
X173025000Y-83527500D02*
X176025000Y-83527500D01*
X174195000Y-83677500D02*
X174195000Y-84877500D01*
X174195000Y-84307500D02*
X173095000Y-84307500D01*
X174195000Y-84477500D02*
X174895000Y-84077500D01*
X174195000Y-84877500D02*
X174895000Y-84877500D01*
X174895000Y-83677500D02*
X174195000Y-83677500D01*
X174895000Y-84307500D02*
X175995000Y-84307500D01*
X174895000Y-84877500D02*
X174895000Y-83677500D01*
X176025000Y-83527500D02*
X176025000Y-82467500D01*
X179725000Y-82467500D02*
X169345000Y-82467500D01*
X179725000Y-103057500D02*
X179725000Y-82467500D01*
%TO.C,JP2*%
X183125000Y-90737500D02*
X183725000Y-90737500D01*
X184425000Y-91437500D02*
X184425000Y-92837500D01*
X182425000Y-92837500D02*
X182425000Y-91437500D01*
X183725000Y-93537500D02*
X183125000Y-93537500D01*
X184425000Y-91437500D02*
G75*
G03*
X183725000Y-90737500I-699999J1D01*
G01*
X183125000Y-90737500D02*
G75*
G03*
X182425000Y-91437500I-1J-699999D01*
G01*
X183725000Y-93537500D02*
G75*
G03*
X184425000Y-92837500I0J700000D01*
G01*
X182425000Y-92837500D02*
G75*
G03*
X183125000Y-93537500I700000J0D01*
G01*
%TO.C,JP7*%
X160011000Y-83229500D02*
X160611000Y-83229500D01*
X161311000Y-83929500D02*
X161311000Y-85329500D01*
X159311000Y-85329500D02*
X159311000Y-83929500D01*
X160611000Y-86029500D02*
X160011000Y-86029500D01*
X161311000Y-83929500D02*
G75*
G03*
X160611000Y-83229500I-699999J1D01*
G01*
X160011000Y-83229500D02*
G75*
G03*
X159311000Y-83929500I-1J-699999D01*
G01*
X160611000Y-86029500D02*
G75*
G03*
X161311000Y-85329500I0J700000D01*
G01*
X159311000Y-85329500D02*
G75*
G03*
X160011000Y-86029500I700000J0D01*
G01*
%TD*%
M02*
