%TF.GenerationSoftware,KiCad,Pcbnew,7.0.6*%
%TF.CreationDate,2023-11-23T12:55:46+01:00*%
%TF.ProjectId,xlrmale,786c726d-616c-4652-9e6b-696361645f70,1*%
%TF.SameCoordinates,Original*%
%TF.FileFunction,Legend,Top*%
%TF.FilePolarity,Positive*%
%FSLAX46Y46*%
G04 Gerber Fmt 4.6, Leading zero omitted, Abs format (unit mm)*
G04 Created by KiCad (PCBNEW 7.0.6) date 2023-11-23 12:55:46*
%MOMM*%
%LPD*%
G01*
G04 APERTURE LIST*
%ADD10C,0.150000*%
%ADD11C,0.120000*%
G04 APERTURE END LIST*
D10*
X143510000Y-110490000D02*
X153670000Y-110490000D01*
X153670000Y-116840000D01*
X143510000Y-116840000D01*
X143510000Y-110490000D01*
X154530588Y-115757438D02*
X154435350Y-115709819D01*
X154435350Y-115709819D02*
X154292493Y-115709819D01*
X154292493Y-115709819D02*
X154149636Y-115757438D01*
X154149636Y-115757438D02*
X154054398Y-115852676D01*
X154054398Y-115852676D02*
X154006779Y-115947914D01*
X154006779Y-115947914D02*
X153959160Y-116138390D01*
X153959160Y-116138390D02*
X153959160Y-116281247D01*
X153959160Y-116281247D02*
X154006779Y-116471723D01*
X154006779Y-116471723D02*
X154054398Y-116566961D01*
X154054398Y-116566961D02*
X154149636Y-116662200D01*
X154149636Y-116662200D02*
X154292493Y-116709819D01*
X154292493Y-116709819D02*
X154387731Y-116709819D01*
X154387731Y-116709819D02*
X154530588Y-116662200D01*
X154530588Y-116662200D02*
X154578207Y-116614580D01*
X154578207Y-116614580D02*
X154578207Y-116281247D01*
X154578207Y-116281247D02*
X154387731Y-116281247D01*
X155006779Y-116709819D02*
X155006779Y-115709819D01*
X155006779Y-115709819D02*
X155578207Y-116709819D01*
X155578207Y-116709819D02*
X155578207Y-115709819D01*
X156054398Y-116709819D02*
X156054398Y-115709819D01*
X156054398Y-115709819D02*
X156292493Y-115709819D01*
X156292493Y-115709819D02*
X156435350Y-115757438D01*
X156435350Y-115757438D02*
X156530588Y-115852676D01*
X156530588Y-115852676D02*
X156578207Y-115947914D01*
X156578207Y-115947914D02*
X156625826Y-116138390D01*
X156625826Y-116138390D02*
X156625826Y-116281247D01*
X156625826Y-116281247D02*
X156578207Y-116471723D01*
X156578207Y-116471723D02*
X156530588Y-116566961D01*
X156530588Y-116566961D02*
X156435350Y-116662200D01*
X156435350Y-116662200D02*
X156292493Y-116709819D01*
X156292493Y-116709819D02*
X156054398Y-116709819D01*
X158292493Y-116709819D02*
X157816303Y-116709819D01*
X157816303Y-116709819D02*
X157816303Y-115709819D01*
X158625827Y-116709819D02*
X158625827Y-116043152D01*
X158625827Y-115709819D02*
X158578208Y-115757438D01*
X158578208Y-115757438D02*
X158625827Y-115805057D01*
X158625827Y-115805057D02*
X158673446Y-115757438D01*
X158673446Y-115757438D02*
X158625827Y-115709819D01*
X158625827Y-115709819D02*
X158625827Y-115805057D01*
X158959160Y-116043152D02*
X159340112Y-116043152D01*
X159102017Y-116709819D02*
X159102017Y-115852676D01*
X159102017Y-115852676D02*
X159149636Y-115757438D01*
X159149636Y-115757438D02*
X159244874Y-115709819D01*
X159244874Y-115709819D02*
X159340112Y-115709819D01*
X159530589Y-116043152D02*
X159911541Y-116043152D01*
X159673446Y-115709819D02*
X159673446Y-116566961D01*
X159673446Y-116566961D02*
X159721065Y-116662200D01*
X159721065Y-116662200D02*
X159816303Y-116709819D01*
X159816303Y-116709819D02*
X159911541Y-116709819D01*
X127460476Y-79402819D02*
X127460476Y-80117104D01*
X127460476Y-80117104D02*
X127412857Y-80259961D01*
X127412857Y-80259961D02*
X127317619Y-80355200D01*
X127317619Y-80355200D02*
X127174762Y-80402819D01*
X127174762Y-80402819D02*
X127079524Y-80402819D01*
X128460476Y-80402819D02*
X127889048Y-80402819D01*
X128174762Y-80402819D02*
X128174762Y-79402819D01*
X128174762Y-79402819D02*
X128079524Y-79545676D01*
X128079524Y-79545676D02*
X127984286Y-79640914D01*
X127984286Y-79640914D02*
X127889048Y-79688533D01*
X129317619Y-79736152D02*
X129317619Y-80402819D01*
X129079524Y-79355200D02*
X128841429Y-80069485D01*
X128841429Y-80069485D02*
X129460476Y-80069485D01*
X150796666Y-111284819D02*
X150796666Y-111999104D01*
X150796666Y-111999104D02*
X150749047Y-112141961D01*
X150749047Y-112141961D02*
X150653809Y-112237200D01*
X150653809Y-112237200D02*
X150510952Y-112284819D01*
X150510952Y-112284819D02*
X150415714Y-112284819D01*
X151225238Y-111380057D02*
X151272857Y-111332438D01*
X151272857Y-111332438D02*
X151368095Y-111284819D01*
X151368095Y-111284819D02*
X151606190Y-111284819D01*
X151606190Y-111284819D02*
X151701428Y-111332438D01*
X151701428Y-111332438D02*
X151749047Y-111380057D01*
X151749047Y-111380057D02*
X151796666Y-111475295D01*
X151796666Y-111475295D02*
X151796666Y-111570533D01*
X151796666Y-111570533D02*
X151749047Y-111713390D01*
X151749047Y-111713390D02*
X151177619Y-112284819D01*
X151177619Y-112284819D02*
X151796666Y-112284819D01*
X100110476Y-79402819D02*
X100110476Y-80117104D01*
X100110476Y-80117104D02*
X100062857Y-80259961D01*
X100062857Y-80259961D02*
X99967619Y-80355200D01*
X99967619Y-80355200D02*
X99824762Y-80402819D01*
X99824762Y-80402819D02*
X99729524Y-80402819D01*
X101110476Y-80402819D02*
X100539048Y-80402819D01*
X100824762Y-80402819D02*
X100824762Y-79402819D01*
X100824762Y-79402819D02*
X100729524Y-79545676D01*
X100729524Y-79545676D02*
X100634286Y-79640914D01*
X100634286Y-79640914D02*
X100539048Y-79688533D01*
X101443810Y-79402819D02*
X102062857Y-79402819D01*
X102062857Y-79402819D02*
X101729524Y-79783771D01*
X101729524Y-79783771D02*
X101872381Y-79783771D01*
X101872381Y-79783771D02*
X101967619Y-79831390D01*
X101967619Y-79831390D02*
X102015238Y-79879009D01*
X102015238Y-79879009D02*
X102062857Y-79974247D01*
X102062857Y-79974247D02*
X102062857Y-80212342D01*
X102062857Y-80212342D02*
X102015238Y-80307580D01*
X102015238Y-80307580D02*
X101967619Y-80355200D01*
X101967619Y-80355200D02*
X101872381Y-80402819D01*
X101872381Y-80402819D02*
X101586667Y-80402819D01*
X101586667Y-80402819D02*
X101491429Y-80355200D01*
X101491429Y-80355200D02*
X101443810Y-80307580D01*
X145240476Y-111214819D02*
X145240476Y-111929104D01*
X145240476Y-111929104D02*
X145192857Y-112071961D01*
X145192857Y-112071961D02*
X145097619Y-112167200D01*
X145097619Y-112167200D02*
X144954762Y-112214819D01*
X144954762Y-112214819D02*
X144859524Y-112214819D01*
X145621429Y-111214819D02*
X146240476Y-111214819D01*
X146240476Y-111214819D02*
X145907143Y-111595771D01*
X145907143Y-111595771D02*
X146050000Y-111595771D01*
X146050000Y-111595771D02*
X146145238Y-111643390D01*
X146145238Y-111643390D02*
X146192857Y-111691009D01*
X146192857Y-111691009D02*
X146240476Y-111786247D01*
X146240476Y-111786247D02*
X146240476Y-112024342D01*
X146240476Y-112024342D02*
X146192857Y-112119580D01*
X146192857Y-112119580D02*
X146145238Y-112167200D01*
X146145238Y-112167200D02*
X146050000Y-112214819D01*
X146050000Y-112214819D02*
X145764286Y-112214819D01*
X145764286Y-112214819D02*
X145669048Y-112167200D01*
X145669048Y-112167200D02*
X145621429Y-112119580D01*
X147097619Y-111548152D02*
X147097619Y-112214819D01*
X146859524Y-111167200D02*
X146621429Y-111881485D01*
X146621429Y-111881485D02*
X147240476Y-111881485D01*
X182160476Y-79402819D02*
X182160476Y-80117104D01*
X182160476Y-80117104D02*
X182112857Y-80259961D01*
X182112857Y-80259961D02*
X182017619Y-80355200D01*
X182017619Y-80355200D02*
X181874762Y-80402819D01*
X181874762Y-80402819D02*
X181779524Y-80402819D01*
X183160476Y-80402819D02*
X182589048Y-80402819D01*
X182874762Y-80402819D02*
X182874762Y-79402819D01*
X182874762Y-79402819D02*
X182779524Y-79545676D01*
X182779524Y-79545676D02*
X182684286Y-79640914D01*
X182684286Y-79640914D02*
X182589048Y-79688533D01*
X184017619Y-79402819D02*
X183827143Y-79402819D01*
X183827143Y-79402819D02*
X183731905Y-79450438D01*
X183731905Y-79450438D02*
X183684286Y-79498057D01*
X183684286Y-79498057D02*
X183589048Y-79640914D01*
X183589048Y-79640914D02*
X183541429Y-79831390D01*
X183541429Y-79831390D02*
X183541429Y-80212342D01*
X183541429Y-80212342D02*
X183589048Y-80307580D01*
X183589048Y-80307580D02*
X183636667Y-80355200D01*
X183636667Y-80355200D02*
X183731905Y-80402819D01*
X183731905Y-80402819D02*
X183922381Y-80402819D01*
X183922381Y-80402819D02*
X184017619Y-80355200D01*
X184017619Y-80355200D02*
X184065238Y-80307580D01*
X184065238Y-80307580D02*
X184112857Y-80212342D01*
X184112857Y-80212342D02*
X184112857Y-79974247D01*
X184112857Y-79974247D02*
X184065238Y-79879009D01*
X184065238Y-79879009D02*
X184017619Y-79831390D01*
X184017619Y-79831390D02*
X183922381Y-79783771D01*
X183922381Y-79783771D02*
X183731905Y-79783771D01*
X183731905Y-79783771D02*
X183636667Y-79831390D01*
X183636667Y-79831390D02*
X183589048Y-79879009D01*
X183589048Y-79879009D02*
X183541429Y-79974247D01*
X154810476Y-79402819D02*
X154810476Y-80117104D01*
X154810476Y-80117104D02*
X154762857Y-80259961D01*
X154762857Y-80259961D02*
X154667619Y-80355200D01*
X154667619Y-80355200D02*
X154524762Y-80402819D01*
X154524762Y-80402819D02*
X154429524Y-80402819D01*
X155810476Y-80402819D02*
X155239048Y-80402819D01*
X155524762Y-80402819D02*
X155524762Y-79402819D01*
X155524762Y-79402819D02*
X155429524Y-79545676D01*
X155429524Y-79545676D02*
X155334286Y-79640914D01*
X155334286Y-79640914D02*
X155239048Y-79688533D01*
X156715238Y-79402819D02*
X156239048Y-79402819D01*
X156239048Y-79402819D02*
X156191429Y-79879009D01*
X156191429Y-79879009D02*
X156239048Y-79831390D01*
X156239048Y-79831390D02*
X156334286Y-79783771D01*
X156334286Y-79783771D02*
X156572381Y-79783771D01*
X156572381Y-79783771D02*
X156667619Y-79831390D01*
X156667619Y-79831390D02*
X156715238Y-79879009D01*
X156715238Y-79879009D02*
X156762857Y-79974247D01*
X156762857Y-79974247D02*
X156762857Y-80212342D01*
X156762857Y-80212342D02*
X156715238Y-80307580D01*
X156715238Y-80307580D02*
X156667619Y-80355200D01*
X156667619Y-80355200D02*
X156572381Y-80402819D01*
X156572381Y-80402819D02*
X156334286Y-80402819D01*
X156334286Y-80402819D02*
X156239048Y-80355200D01*
X156239048Y-80355200D02*
X156191429Y-80307580D01*
D11*
%TO.C,J14*%
X117370000Y-86708000D02*
X117370000Y-91948000D01*
X121720000Y-103478000D02*
X121720000Y-102198000D01*
X121720000Y-103478000D02*
X122220000Y-103548000D01*
X122220000Y-103548000D02*
X122400000Y-103548000D01*
X123710000Y-103548000D02*
X123640000Y-103548000D01*
X123710000Y-103548000D02*
X123710000Y-106748000D01*
X124030000Y-102198000D02*
X121720000Y-102198000D01*
X124030000Y-102198000D02*
X124030000Y-101998000D01*
X125210000Y-103548000D02*
X125210000Y-106748000D01*
X125210000Y-103548000D02*
X131330000Y-103548000D01*
X125210000Y-106748000D02*
X123710000Y-106748000D01*
X128270000Y-80648000D02*
X123930000Y-80648000D01*
X131330000Y-103548000D02*
X131330000Y-106748000D01*
X131670000Y-81588000D02*
X131670000Y-81398000D01*
X132830000Y-103548000D02*
X132830000Y-106748000D01*
X132830000Y-103548000D02*
X132900000Y-103548000D01*
X132830000Y-106748000D02*
X131330000Y-106748000D01*
X134140000Y-103548000D02*
X136200000Y-103548000D01*
X139170000Y-96898000D02*
X139170000Y-91948000D01*
X120519999Y-80098001D02*
G75*
G03*
X116871035Y-84533578I-2149999J-1949999D01*
G01*
X117369999Y-86708000D02*
G75*
G03*
X116875384Y-84539705I-5000002J-1D01*
G01*
X122400000Y-103548000D02*
G75*
G03*
X123639479Y-103548769I620000J420000D01*
G01*
X120525549Y-80102695D02*
G75*
G03*
X123930000Y-80648000I3404456J10354724D01*
G01*
X130095209Y-100044586D02*
G75*
G03*
X126460000Y-100048000I-1825209J8096586D01*
G01*
X131460458Y-81107752D02*
G75*
G03*
X128270000Y-80648000I-3190458J-10840248D01*
G01*
X131670000Y-81398000D02*
G75*
G03*
X131464232Y-81110323I-290000J10000D01*
G01*
X132900000Y-103548000D02*
G75*
G03*
X134139479Y-103548769I620000J420000D01*
G01*
X139170001Y-96898000D02*
G75*
G03*
X140275277Y-100320002I5849999J0D01*
G01*
X136200000Y-103548000D02*
G75*
G03*
X140275343Y-100318807I1970000J1700000D01*
G01*
X119570000Y-82048000D02*
G75*
G03*
X119570000Y-82048000I-1200000J0D01*
G01*
X139170000Y-91948000D02*
G75*
G03*
X139170000Y-91948000I-10900000J0D01*
G01*
X139370000Y-101848000D02*
G75*
G03*
X139370000Y-101848000I-1200000J0D01*
G01*
%TO.C,J13*%
X90020000Y-86708000D02*
X90020000Y-91948000D01*
X94370000Y-103478000D02*
X94370000Y-102198000D01*
X94370000Y-103478000D02*
X94870000Y-103548000D01*
X94870000Y-103548000D02*
X95050000Y-103548000D01*
X96360000Y-103548000D02*
X96290000Y-103548000D01*
X96360000Y-103548000D02*
X96360000Y-106748000D01*
X96680000Y-102198000D02*
X94370000Y-102198000D01*
X96680000Y-102198000D02*
X96680000Y-101998000D01*
X97860000Y-103548000D02*
X97860000Y-106748000D01*
X97860000Y-103548000D02*
X103980000Y-103548000D01*
X97860000Y-106748000D02*
X96360000Y-106748000D01*
X100920000Y-80648000D02*
X96580000Y-80648000D01*
X103980000Y-103548000D02*
X103980000Y-106748000D01*
X104320000Y-81588000D02*
X104320000Y-81398000D01*
X105480000Y-103548000D02*
X105480000Y-106748000D01*
X105480000Y-103548000D02*
X105550000Y-103548000D01*
X105480000Y-106748000D02*
X103980000Y-106748000D01*
X106790000Y-103548000D02*
X108850000Y-103548000D01*
X111820000Y-96898000D02*
X111820000Y-91948000D01*
X93169999Y-80098001D02*
G75*
G03*
X89521035Y-84533578I-2149999J-1949999D01*
G01*
X90019999Y-86708000D02*
G75*
G03*
X89525384Y-84539705I-5000002J-1D01*
G01*
X95050000Y-103548000D02*
G75*
G03*
X96289479Y-103548769I620000J420000D01*
G01*
X93175549Y-80102695D02*
G75*
G03*
X96580000Y-80648000I3404456J10354724D01*
G01*
X102745209Y-100044586D02*
G75*
G03*
X99110000Y-100048000I-1825209J8096586D01*
G01*
X104110458Y-81107752D02*
G75*
G03*
X100920000Y-80648000I-3190458J-10840248D01*
G01*
X104320000Y-81398000D02*
G75*
G03*
X104114232Y-81110323I-290000J10000D01*
G01*
X105550000Y-103548000D02*
G75*
G03*
X106789479Y-103548769I620000J420000D01*
G01*
X111820001Y-96898000D02*
G75*
G03*
X112925277Y-100320002I5849999J0D01*
G01*
X108850000Y-103548000D02*
G75*
G03*
X112925343Y-100318807I1970000J1700000D01*
G01*
X92220000Y-82048000D02*
G75*
G03*
X92220000Y-82048000I-1200000J0D01*
G01*
X111820000Y-91948000D02*
G75*
G03*
X111820000Y-91948000I-10900000J0D01*
G01*
X112020000Y-101848000D02*
G75*
G03*
X112020000Y-101848000I-1200000J0D01*
G01*
%TO.C,J16*%
X172070000Y-86708000D02*
X172070000Y-91948000D01*
X176420000Y-103478000D02*
X176420000Y-102198000D01*
X176420000Y-103478000D02*
X176920000Y-103548000D01*
X176920000Y-103548000D02*
X177100000Y-103548000D01*
X178410000Y-103548000D02*
X178340000Y-103548000D01*
X178410000Y-103548000D02*
X178410000Y-106748000D01*
X178730000Y-102198000D02*
X176420000Y-102198000D01*
X178730000Y-102198000D02*
X178730000Y-101998000D01*
X179910000Y-103548000D02*
X179910000Y-106748000D01*
X179910000Y-103548000D02*
X186030000Y-103548000D01*
X179910000Y-106748000D02*
X178410000Y-106748000D01*
X182970000Y-80648000D02*
X178630000Y-80648000D01*
X186030000Y-103548000D02*
X186030000Y-106748000D01*
X186370000Y-81588000D02*
X186370000Y-81398000D01*
X187530000Y-103548000D02*
X187530000Y-106748000D01*
X187530000Y-103548000D02*
X187600000Y-103548000D01*
X187530000Y-106748000D02*
X186030000Y-106748000D01*
X188840000Y-103548000D02*
X190900000Y-103548000D01*
X193870000Y-96898000D02*
X193870000Y-91948000D01*
X175219999Y-80098001D02*
G75*
G03*
X171571035Y-84533578I-2149999J-1949999D01*
G01*
X172069999Y-86708000D02*
G75*
G03*
X171575384Y-84539705I-5000002J-1D01*
G01*
X177100000Y-103548000D02*
G75*
G03*
X178339479Y-103548769I620000J420000D01*
G01*
X175225549Y-80102695D02*
G75*
G03*
X178630000Y-80648000I3404456J10354724D01*
G01*
X184795209Y-100044586D02*
G75*
G03*
X181160000Y-100048000I-1825209J8096586D01*
G01*
X186160458Y-81107752D02*
G75*
G03*
X182970000Y-80648000I-3190458J-10840248D01*
G01*
X186370000Y-81398000D02*
G75*
G03*
X186164232Y-81110323I-290000J10000D01*
G01*
X187600000Y-103548000D02*
G75*
G03*
X188839479Y-103548769I620000J420000D01*
G01*
X193870001Y-96898000D02*
G75*
G03*
X194975277Y-100320002I5849999J0D01*
G01*
X190900000Y-103548000D02*
G75*
G03*
X194975343Y-100318807I1970000J1700000D01*
G01*
X174270000Y-82048000D02*
G75*
G03*
X174270000Y-82048000I-1200000J0D01*
G01*
X193870000Y-91948000D02*
G75*
G03*
X193870000Y-91948000I-10900000J0D01*
G01*
X194070000Y-101848000D02*
G75*
G03*
X194070000Y-101848000I-1200000J0D01*
G01*
%TO.C,J15*%
X144720000Y-86708000D02*
X144720000Y-91948000D01*
X149070000Y-103478000D02*
X149070000Y-102198000D01*
X149070000Y-103478000D02*
X149570000Y-103548000D01*
X149570000Y-103548000D02*
X149750000Y-103548000D01*
X151060000Y-103548000D02*
X150990000Y-103548000D01*
X151060000Y-103548000D02*
X151060000Y-106748000D01*
X151380000Y-102198000D02*
X149070000Y-102198000D01*
X151380000Y-102198000D02*
X151380000Y-101998000D01*
X152560000Y-103548000D02*
X152560000Y-106748000D01*
X152560000Y-103548000D02*
X158680000Y-103548000D01*
X152560000Y-106748000D02*
X151060000Y-106748000D01*
X155620000Y-80648000D02*
X151280000Y-80648000D01*
X158680000Y-103548000D02*
X158680000Y-106748000D01*
X159020000Y-81588000D02*
X159020000Y-81398000D01*
X160180000Y-103548000D02*
X160180000Y-106748000D01*
X160180000Y-103548000D02*
X160250000Y-103548000D01*
X160180000Y-106748000D02*
X158680000Y-106748000D01*
X161490000Y-103548000D02*
X163550000Y-103548000D01*
X166520000Y-96898000D02*
X166520000Y-91948000D01*
X147869999Y-80098001D02*
G75*
G03*
X144221035Y-84533578I-2149999J-1949999D01*
G01*
X144719999Y-86708000D02*
G75*
G03*
X144225384Y-84539705I-5000002J-1D01*
G01*
X149750000Y-103548000D02*
G75*
G03*
X150989479Y-103548769I620000J420000D01*
G01*
X147875549Y-80102695D02*
G75*
G03*
X151280000Y-80648000I3404456J10354724D01*
G01*
X157445209Y-100044586D02*
G75*
G03*
X153810000Y-100048000I-1825209J8096586D01*
G01*
X158810458Y-81107752D02*
G75*
G03*
X155620000Y-80648000I-3190458J-10840248D01*
G01*
X159020000Y-81398000D02*
G75*
G03*
X158814232Y-81110323I-290000J10000D01*
G01*
X160250000Y-103548000D02*
G75*
G03*
X161489479Y-103548769I620000J420000D01*
G01*
X166520001Y-96898000D02*
G75*
G03*
X167625277Y-100320002I5849999J0D01*
G01*
X163550000Y-103548000D02*
G75*
G03*
X167625343Y-100318807I1970000J1700000D01*
G01*
X146920000Y-82048000D02*
G75*
G03*
X146920000Y-82048000I-1200000J0D01*
G01*
X166520000Y-91948000D02*
G75*
G03*
X166520000Y-91948000I-10900000J0D01*
G01*
X166720000Y-101848000D02*
G75*
G03*
X166720000Y-101848000I-1200000J0D01*
G01*
%TD*%
M02*
