%TF.GenerationSoftware,KiCad,Pcbnew,7.0.6*%
%TF.CreationDate,2023-11-23T12:55:46+01:00*%
%TF.ProjectId,xlrmale,786c726d-616c-4652-9e6b-696361645f70,1*%
%TF.SameCoordinates,Original*%
%TF.FileFunction,Copper,L2,Bot*%
%TF.FilePolarity,Positive*%
%FSLAX46Y46*%
G04 Gerber Fmt 4.6, Leading zero omitted, Abs format (unit mm)*
G04 Created by KiCad (PCBNEW 7.0.6) date 2023-11-23 12:55:46*
%MOMM*%
%LPD*%
G01*
G04 APERTURE LIST*
G04 Aperture macros list*
%AMRoundRect*
0 Rectangle with rounded corners*
0 $1 Rounding radius*
0 $2 $3 $4 $5 $6 $7 $8 $9 X,Y pos of 4 corners*
0 Add a 4 corners polygon primitive as box body*
4,1,4,$2,$3,$4,$5,$6,$7,$8,$9,$2,$3,0*
0 Add four circle primitives for the rounded corners*
1,1,$1+$1,$2,$3*
1,1,$1+$1,$4,$5*
1,1,$1+$1,$6,$7*
1,1,$1+$1,$8,$9*
0 Add four rect primitives between the rounded corners*
20,1,$1+$1,$2,$3,$4,$5,0*
20,1,$1+$1,$4,$5,$6,$7,0*
20,1,$1+$1,$6,$7,$8,$9,0*
20,1,$1+$1,$8,$9,$2,$3,0*%
G04 Aperture macros list end*
%TA.AperFunction,ComponentPad*%
%ADD10C,3.400000*%
%TD*%
%TA.AperFunction,ComponentPad*%
%ADD11C,2.900000*%
%TD*%
%TA.AperFunction,ComponentPad*%
%ADD12RoundRect,0.249999X-1.025001X-1.025001X1.025001X-1.025001X1.025001X1.025001X-1.025001X1.025001X0*%
%TD*%
%TA.AperFunction,ComponentPad*%
%ADD13R,1.700000X1.700000*%
%TD*%
%TA.AperFunction,ComponentPad*%
%ADD14O,1.700000X1.700000*%
%TD*%
%TA.AperFunction,Conductor*%
%ADD15C,0.250000*%
%TD*%
G04 APERTURE END LIST*
D10*
%TO.P,J14,1*%
%TO.N,N/C*%
X124460000Y-91948000D03*
%TO.P,J14,2*%
X132080000Y-91948000D03*
%TO.P,J14,3*%
X128270000Y-95758000D03*
D11*
%TO.P,J14,G*%
X128270000Y-100203000D03*
%TD*%
D12*
%TO.P,J2,1,Pin_1*%
%TO.N,N/C*%
X151130000Y-114300000D03*
%TD*%
D10*
%TO.P,J13,1*%
%TO.N,N/C*%
X97110000Y-91948000D03*
%TO.P,J13,2*%
X104730000Y-91948000D03*
%TO.P,J13,3*%
X100920000Y-95758000D03*
D11*
%TO.P,J13,G*%
X100920000Y-100203000D03*
%TD*%
D13*
%TO.P,J31,1,Pin_1*%
%TO.N,N/C*%
X129316000Y-115590000D03*
D14*
%TO.P,J31,2,Pin_2*%
X129316000Y-113050000D03*
%TO.P,J31,3,Pin_3*%
X131856000Y-115590000D03*
%TO.P,J31,4,Pin_4*%
X131856000Y-113050000D03*
%TO.P,J31,5,Pin_5*%
X134396000Y-115590000D03*
%TO.P,J31,6,Pin_6*%
X134396000Y-113050000D03*
%TO.P,J31,7,Pin_7*%
X136936000Y-115590000D03*
%TO.P,J31,8,Pin_8*%
X136936000Y-113050000D03*
%TO.P,J31,9,Pin_9*%
X139476000Y-115590000D03*
%TO.P,J31,10,Pin_10*%
X139476000Y-113050000D03*
%TD*%
D12*
%TO.P,J34,1,Pin_1*%
%TO.N,N/C*%
X146050000Y-114300000D03*
%TD*%
D10*
%TO.P,J16,1*%
%TO.N,N/C*%
X179160000Y-91948000D03*
%TO.P,J16,2*%
X186780000Y-91948000D03*
%TO.P,J16,3*%
X182970000Y-95758000D03*
D11*
%TO.P,J16,G*%
X182970000Y-100203000D03*
%TD*%
D10*
%TO.P,J15,1*%
%TO.N,N/C*%
X151810000Y-91948000D03*
%TO.P,J15,2*%
X159430000Y-91948000D03*
%TO.P,J15,3*%
X155620000Y-95758000D03*
D11*
%TO.P,J15,G*%
X155620000Y-100203000D03*
%TD*%
D15*
%TO.N,*%
X153835000Y-89923000D02*
X177135000Y-89923000D01*
X122435000Y-89923000D02*
X124460000Y-91948000D01*
X151810000Y-91948000D02*
X153835000Y-89923000D01*
X99135000Y-89923000D02*
X122435000Y-89923000D01*
X126485000Y-89923000D02*
X149785000Y-89923000D01*
X149785000Y-89923000D02*
X151810000Y-91948000D01*
X177135000Y-89923000D02*
X179160000Y-91948000D01*
X124460000Y-91948000D02*
X126485000Y-89923000D01*
X97110000Y-91948000D02*
X99135000Y-89923000D01*
X135686000Y-111760000D02*
X134396000Y-113050000D01*
X138176000Y-113411701D02*
X138176000Y-112628299D01*
X139064299Y-114300000D02*
X138176000Y-113411701D01*
X146050000Y-114300000D02*
X139064299Y-114300000D01*
X138176000Y-112628299D02*
X137307701Y-111760000D01*
X137307701Y-111760000D02*
X135686000Y-111760000D01*
X134396000Y-113050000D02*
X134396000Y-115590000D01*
X147135173Y-112522000D02*
X163899173Y-95758000D01*
X163899173Y-95758000D02*
X182970000Y-95758000D01*
X163583000Y-97783000D02*
X148590000Y-112776000D01*
X139476000Y-113050000D02*
X140004000Y-112522000D01*
X148590000Y-112776000D02*
X148590000Y-115316000D01*
X140004000Y-112522000D02*
X147135173Y-112522000D01*
X186780000Y-91948000D02*
X186780000Y-94811783D01*
X140218000Y-116332000D02*
X139476000Y-115590000D01*
X148590000Y-115316000D02*
X147574000Y-116332000D01*
X147574000Y-116332000D02*
X140218000Y-116332000D01*
X186780000Y-94811783D02*
X183808783Y-97783000D01*
X183808783Y-97783000D02*
X163583000Y-97783000D01*
%TD*%
%TA.AperFunction,NonConductor*%
G36*
X193866177Y-76220185D02*
G01*
X193886819Y-76236819D01*
X196813181Y-79163181D01*
X196846666Y-79224504D01*
X196849500Y-79250862D01*
X196849500Y-116329137D01*
X196829815Y-116396176D01*
X196813181Y-116416818D01*
X193886819Y-119343181D01*
X193825496Y-119376666D01*
X193799138Y-119379500D01*
X88140862Y-119379500D01*
X88073823Y-119359815D01*
X88053181Y-119343181D01*
X85126819Y-116416819D01*
X85093334Y-116355496D01*
X85090500Y-116329138D01*
X85090500Y-113050000D01*
X127960341Y-113050000D01*
X127980936Y-113285403D01*
X127980938Y-113285413D01*
X128042094Y-113513655D01*
X128042096Y-113513659D01*
X128042097Y-113513663D01*
X128111871Y-113663294D01*
X128141965Y-113727830D01*
X128141967Y-113727834D01*
X128250281Y-113882521D01*
X128277504Y-113921400D01*
X128277506Y-113921402D01*
X128399430Y-114043326D01*
X128432915Y-114104649D01*
X128427931Y-114174341D01*
X128386059Y-114230274D01*
X128355083Y-114247189D01*
X128223669Y-114296203D01*
X128223664Y-114296206D01*
X128108455Y-114382452D01*
X128108452Y-114382455D01*
X128022206Y-114497664D01*
X128022202Y-114497671D01*
X127971908Y-114632517D01*
X127965501Y-114692116D01*
X127965500Y-114692135D01*
X127965500Y-116487870D01*
X127965501Y-116487876D01*
X127971908Y-116547483D01*
X128022202Y-116682328D01*
X128022206Y-116682335D01*
X128108452Y-116797544D01*
X128108455Y-116797547D01*
X128223664Y-116883793D01*
X128223671Y-116883797D01*
X128358517Y-116934091D01*
X128358516Y-116934091D01*
X128365444Y-116934835D01*
X128418127Y-116940500D01*
X130213872Y-116940499D01*
X130273483Y-116934091D01*
X130408331Y-116883796D01*
X130523546Y-116797546D01*
X130609796Y-116682331D01*
X130658810Y-116550916D01*
X130700681Y-116494984D01*
X130766145Y-116470566D01*
X130834418Y-116485417D01*
X130862673Y-116506569D01*
X130984599Y-116628495D01*
X131081384Y-116696264D01*
X131178165Y-116764032D01*
X131178167Y-116764033D01*
X131178170Y-116764035D01*
X131392337Y-116863903D01*
X131620592Y-116925063D01*
X131797034Y-116940500D01*
X131855999Y-116945659D01*
X131856000Y-116945659D01*
X131856001Y-116945659D01*
X131914966Y-116940500D01*
X132091408Y-116925063D01*
X132319663Y-116863903D01*
X132533830Y-116764035D01*
X132727401Y-116628495D01*
X132894495Y-116461401D01*
X133024426Y-116275840D01*
X133079001Y-116232217D01*
X133148499Y-116225023D01*
X133210854Y-116256546D01*
X133227574Y-116275841D01*
X133357505Y-116461401D01*
X133524599Y-116628495D01*
X133621384Y-116696264D01*
X133718165Y-116764032D01*
X133718167Y-116764033D01*
X133718170Y-116764035D01*
X133932337Y-116863903D01*
X134160592Y-116925063D01*
X134337034Y-116940500D01*
X134395999Y-116945659D01*
X134396000Y-116945659D01*
X134396001Y-116945659D01*
X134454966Y-116940500D01*
X134631408Y-116925063D01*
X134859663Y-116863903D01*
X135073830Y-116764035D01*
X135267401Y-116628495D01*
X135434495Y-116461401D01*
X135564426Y-116275841D01*
X135619002Y-116232217D01*
X135688500Y-116225023D01*
X135750855Y-116256546D01*
X135767575Y-116275842D01*
X135866287Y-116416818D01*
X135897505Y-116461401D01*
X136064599Y-116628495D01*
X136161384Y-116696265D01*
X136258165Y-116764032D01*
X136258167Y-116764033D01*
X136258170Y-116764035D01*
X136472337Y-116863903D01*
X136700592Y-116925063D01*
X136877034Y-116940500D01*
X136935999Y-116945659D01*
X136936000Y-116945659D01*
X136936001Y-116945659D01*
X136994966Y-116940500D01*
X137171408Y-116925063D01*
X137399663Y-116863903D01*
X137613830Y-116764035D01*
X137807401Y-116628495D01*
X137974495Y-116461401D01*
X138104426Y-116275841D01*
X138159002Y-116232217D01*
X138228500Y-116225023D01*
X138290855Y-116256546D01*
X138307575Y-116275842D01*
X138406287Y-116416818D01*
X138437505Y-116461401D01*
X138604599Y-116628495D01*
X138701384Y-116696265D01*
X138798165Y-116764032D01*
X138798167Y-116764033D01*
X138798170Y-116764035D01*
X139012337Y-116863903D01*
X139240592Y-116925063D01*
X139417034Y-116940500D01*
X139475999Y-116945659D01*
X139476000Y-116945659D01*
X139476001Y-116945659D01*
X139534966Y-116940500D01*
X139711408Y-116925063D01*
X139856206Y-116886264D01*
X139926055Y-116887927D01*
X139948037Y-116897377D01*
X139985908Y-116918197D01*
X140005316Y-116923180D01*
X140023717Y-116929480D01*
X140042104Y-116937437D01*
X140085488Y-116944308D01*
X140088119Y-116944725D01*
X140093839Y-116945909D01*
X140138981Y-116957500D01*
X140159016Y-116957500D01*
X140178414Y-116959026D01*
X140198194Y-116962159D01*
X140198195Y-116962160D01*
X140198195Y-116962159D01*
X140198196Y-116962160D01*
X140244583Y-116957775D01*
X140250422Y-116957500D01*
X147491257Y-116957500D01*
X147506877Y-116959224D01*
X147506904Y-116958939D01*
X147514660Y-116959671D01*
X147514667Y-116959673D01*
X147583814Y-116957500D01*
X147613350Y-116957500D01*
X147620228Y-116956630D01*
X147626041Y-116956172D01*
X147672627Y-116954709D01*
X147691869Y-116949117D01*
X147710912Y-116945174D01*
X147730792Y-116942664D01*
X147774122Y-116925507D01*
X147779646Y-116923617D01*
X147783396Y-116922527D01*
X147824390Y-116910618D01*
X147841629Y-116900422D01*
X147859103Y-116891862D01*
X147877727Y-116884488D01*
X147877727Y-116884487D01*
X147877732Y-116884486D01*
X147915449Y-116857082D01*
X147920305Y-116853892D01*
X147960420Y-116830170D01*
X147974589Y-116815999D01*
X147989379Y-116803368D01*
X148005587Y-116791594D01*
X148035299Y-116755676D01*
X148039212Y-116751376D01*
X148973787Y-115816802D01*
X148986042Y-115806986D01*
X148985859Y-115806764D01*
X148991866Y-115801792D01*
X148991877Y-115801786D01*
X149022775Y-115768882D01*
X149039227Y-115751364D01*
X149049671Y-115740918D01*
X149060120Y-115730471D01*
X149064379Y-115724978D01*
X149068152Y-115720561D01*
X149100062Y-115686582D01*
X149109715Y-115669020D01*
X149120389Y-115652770D01*
X149132673Y-115636936D01*
X149151180Y-115594167D01*
X149153749Y-115588924D01*
X149171581Y-115556489D01*
X149221128Y-115507226D01*
X149289443Y-115492570D01*
X149354837Y-115517175D01*
X149396548Y-115573228D01*
X149397940Y-115577201D01*
X149409910Y-115613324D01*
X149420185Y-115644332D01*
X149420187Y-115644337D01*
X149438092Y-115673366D01*
X149512288Y-115793656D01*
X149636344Y-115917712D01*
X149785665Y-116009814D01*
X149952202Y-116064999D01*
X150054990Y-116075500D01*
X150054995Y-116075500D01*
X152205005Y-116075500D01*
X152205010Y-116075500D01*
X152307798Y-116064999D01*
X152474335Y-116009814D01*
X152623656Y-115917712D01*
X152747712Y-115793656D01*
X152839814Y-115644335D01*
X152894999Y-115477798D01*
X152905500Y-115375010D01*
X152905500Y-113224990D01*
X152894999Y-113122202D01*
X152839814Y-112955665D01*
X152747712Y-112806344D01*
X152623656Y-112682288D01*
X152474335Y-112590186D01*
X152307798Y-112535001D01*
X152307796Y-112535000D01*
X152205017Y-112524500D01*
X152205010Y-112524500D01*
X150054990Y-112524500D01*
X150054986Y-112524500D01*
X150054970Y-112524501D01*
X150035408Y-112526499D01*
X149966715Y-112513727D01*
X149915832Y-112465845D01*
X149898914Y-112398055D01*
X149921332Y-112331879D01*
X149935123Y-112315466D01*
X163805771Y-98444819D01*
X163867095Y-98411334D01*
X163893453Y-98408500D01*
X181739860Y-98408500D01*
X181806899Y-98428185D01*
X181852654Y-98480989D01*
X181862598Y-98550147D01*
X181833573Y-98613703D01*
X181814170Y-98631767D01*
X181689439Y-98725138D01*
X181689421Y-98725154D01*
X181492154Y-98922421D01*
X181492138Y-98922439D01*
X181324945Y-99145784D01*
X181324940Y-99145792D01*
X181191233Y-99390657D01*
X181191231Y-99390661D01*
X181093727Y-99652083D01*
X181034422Y-99924700D01*
X181014518Y-100202998D01*
X181014518Y-100203001D01*
X181034422Y-100481299D01*
X181093727Y-100753916D01*
X181093729Y-100753923D01*
X181154266Y-100916230D01*
X181191231Y-101015338D01*
X181191233Y-101015342D01*
X181324940Y-101260207D01*
X181324945Y-101260215D01*
X181492138Y-101483560D01*
X181492154Y-101483578D01*
X181689421Y-101680845D01*
X181689439Y-101680861D01*
X181912784Y-101848054D01*
X181912792Y-101848059D01*
X182157657Y-101981766D01*
X182157659Y-101981767D01*
X182157663Y-101981769D01*
X182419077Y-102079271D01*
X182510179Y-102099089D01*
X182691700Y-102138577D01*
X182691702Y-102138577D01*
X182691706Y-102138578D01*
X182939014Y-102156265D01*
X182969999Y-102158482D01*
X182970000Y-102158482D01*
X182970001Y-102158482D01*
X182997881Y-102156487D01*
X183248294Y-102138578D01*
X183520923Y-102079271D01*
X183782337Y-101981769D01*
X184027213Y-101848056D01*
X184250568Y-101680855D01*
X184447855Y-101483568D01*
X184615056Y-101260213D01*
X184748769Y-101015337D01*
X184846271Y-100753923D01*
X184905578Y-100481294D01*
X184925482Y-100203000D01*
X184905578Y-99924706D01*
X184846271Y-99652077D01*
X184748769Y-99390663D01*
X184615056Y-99145787D01*
X184615054Y-99145784D01*
X184447861Y-98922439D01*
X184447845Y-98922421D01*
X184250578Y-98725154D01*
X184250560Y-98725138D01*
X184043599Y-98570210D01*
X184001727Y-98514277D01*
X183996743Y-98444585D01*
X184030228Y-98383262D01*
X184054785Y-98364213D01*
X184059173Y-98361618D01*
X184076412Y-98351422D01*
X184093886Y-98342862D01*
X184112510Y-98335488D01*
X184112510Y-98335487D01*
X184112515Y-98335486D01*
X184150232Y-98308082D01*
X184155088Y-98304892D01*
X184195203Y-98281170D01*
X184209372Y-98266999D01*
X184224162Y-98254368D01*
X184240370Y-98242594D01*
X184270082Y-98206676D01*
X184273995Y-98202376D01*
X187163788Y-95312584D01*
X187176042Y-95302769D01*
X187175859Y-95302547D01*
X187181866Y-95297575D01*
X187181877Y-95297569D01*
X187217316Y-95259830D01*
X187229227Y-95247147D01*
X187239671Y-95236701D01*
X187250120Y-95226254D01*
X187254379Y-95220761D01*
X187258152Y-95216344D01*
X187290062Y-95182365D01*
X187299713Y-95164807D01*
X187310396Y-95148544D01*
X187322673Y-95132719D01*
X187341185Y-95089936D01*
X187343738Y-95084724D01*
X187366197Y-95043875D01*
X187371180Y-95024463D01*
X187377481Y-95006063D01*
X187385437Y-94987679D01*
X187392729Y-94941635D01*
X187393906Y-94935954D01*
X187405500Y-94890802D01*
X187405500Y-94870765D01*
X187407027Y-94851365D01*
X187410160Y-94831587D01*
X187405775Y-94785198D01*
X187405500Y-94779360D01*
X187405500Y-94148353D01*
X187425185Y-94081314D01*
X187477989Y-94035559D01*
X187489627Y-94030938D01*
X187623902Y-93985359D01*
X187882611Y-93857778D01*
X188122454Y-93697520D01*
X188339327Y-93507327D01*
X188529520Y-93290454D01*
X188689778Y-93050611D01*
X188817359Y-92791902D01*
X188910081Y-92518753D01*
X188966356Y-92235839D01*
X188985222Y-91948000D01*
X188966356Y-91660161D01*
X188910081Y-91377247D01*
X188817359Y-91104098D01*
X188689778Y-90845389D01*
X188529520Y-90605546D01*
X188490141Y-90560643D01*
X188339327Y-90388672D01*
X188122452Y-90198478D01*
X187882613Y-90038223D01*
X187882606Y-90038219D01*
X187623905Y-89910642D01*
X187350760Y-89817921D01*
X187350754Y-89817919D01*
X187350753Y-89817919D01*
X187350751Y-89817918D01*
X187350745Y-89817917D01*
X187067849Y-89761646D01*
X187067839Y-89761644D01*
X186780000Y-89742778D01*
X186779999Y-89742778D01*
X186636080Y-89752211D01*
X186492161Y-89761644D01*
X186492155Y-89761645D01*
X186492150Y-89761646D01*
X186209254Y-89817917D01*
X186209239Y-89817921D01*
X185936094Y-89910642D01*
X185677393Y-90038219D01*
X185677386Y-90038223D01*
X185437547Y-90198478D01*
X185220672Y-90388672D01*
X185030478Y-90605547D01*
X184870223Y-90845386D01*
X184870219Y-90845393D01*
X184742642Y-91104094D01*
X184649921Y-91377239D01*
X184649917Y-91377254D01*
X184593646Y-91660150D01*
X184593644Y-91660162D01*
X184574778Y-91947999D01*
X184593644Y-92235837D01*
X184593646Y-92235849D01*
X184649917Y-92518745D01*
X184649921Y-92518760D01*
X184742642Y-92791905D01*
X184870219Y-93050606D01*
X184870223Y-93050613D01*
X185030478Y-93290452D01*
X185220672Y-93507327D01*
X185437547Y-93697521D01*
X185677386Y-93857776D01*
X185677393Y-93857780D01*
X185936093Y-93985357D01*
X185936096Y-93985358D01*
X185936098Y-93985359D01*
X186070360Y-94030934D01*
X186127512Y-94071122D01*
X186153866Y-94135831D01*
X186154500Y-94148353D01*
X186154500Y-94501329D01*
X186134815Y-94568368D01*
X186118181Y-94589010D01*
X185333780Y-95373410D01*
X185272457Y-95406895D01*
X185202765Y-95401911D01*
X185146832Y-95360039D01*
X185124482Y-95309920D01*
X185100081Y-95187247D01*
X185007359Y-94914098D01*
X184879778Y-94655389D01*
X184835425Y-94589010D01*
X184719521Y-94415547D01*
X184529327Y-94198672D01*
X184312452Y-94008478D01*
X184072613Y-93848223D01*
X184072606Y-93848219D01*
X183813905Y-93720642D01*
X183540760Y-93627921D01*
X183540754Y-93627919D01*
X183540753Y-93627919D01*
X183540751Y-93627918D01*
X183540745Y-93627917D01*
X183257849Y-93571646D01*
X183257839Y-93571644D01*
X182970000Y-93552778D01*
X182682161Y-93571644D01*
X182682155Y-93571645D01*
X182682150Y-93571646D01*
X182399254Y-93627917D01*
X182399239Y-93627921D01*
X182126094Y-93720642D01*
X181867393Y-93848219D01*
X181867386Y-93848223D01*
X181627547Y-94008478D01*
X181410672Y-94198672D01*
X181220478Y-94415547D01*
X181060223Y-94655386D01*
X181060219Y-94655393D01*
X180932642Y-94914094D01*
X180887065Y-95048359D01*
X180846876Y-95105513D01*
X180782167Y-95131866D01*
X180769646Y-95132500D01*
X163981911Y-95132500D01*
X163966294Y-95130776D01*
X163966267Y-95131062D01*
X163958505Y-95130327D01*
X163889377Y-95132500D01*
X163859823Y-95132500D01*
X163859102Y-95132590D01*
X163852930Y-95133369D01*
X163847118Y-95133826D01*
X163800546Y-95135290D01*
X163800545Y-95135290D01*
X163781302Y-95140881D01*
X163762252Y-95144825D01*
X163742384Y-95147334D01*
X163742382Y-95147335D01*
X163699057Y-95164488D01*
X163693530Y-95166380D01*
X163648783Y-95179381D01*
X163648782Y-95179382D01*
X163631540Y-95189579D01*
X163614072Y-95198137D01*
X163595442Y-95205513D01*
X163595440Y-95205514D01*
X163557749Y-95232898D01*
X163552867Y-95236105D01*
X163512752Y-95259830D01*
X163498581Y-95274000D01*
X163483796Y-95286628D01*
X163467585Y-95298407D01*
X163437882Y-95334310D01*
X163433950Y-95338631D01*
X157577415Y-101195165D01*
X157516092Y-101228650D01*
X157446400Y-101223666D01*
X157390467Y-101181794D01*
X157366050Y-101116330D01*
X157380902Y-101048057D01*
X157398769Y-101015337D01*
X157496271Y-100753923D01*
X157555578Y-100481294D01*
X157575482Y-100203000D01*
X157555578Y-99924706D01*
X157496271Y-99652077D01*
X157398769Y-99390663D01*
X157265056Y-99145787D01*
X157265054Y-99145784D01*
X157097861Y-98922439D01*
X157097845Y-98922421D01*
X156900578Y-98725154D01*
X156900560Y-98725138D01*
X156677215Y-98557945D01*
X156677207Y-98557940D01*
X156432342Y-98424233D01*
X156432338Y-98424231D01*
X156301504Y-98375433D01*
X156170923Y-98326729D01*
X156170919Y-98326728D01*
X156170916Y-98326727D01*
X155898299Y-98267422D01*
X155620001Y-98247518D01*
X155619999Y-98247518D01*
X155341700Y-98267422D01*
X155069083Y-98326727D01*
X155069078Y-98326728D01*
X155069077Y-98326729D01*
X155025823Y-98342862D01*
X154807661Y-98424231D01*
X154807657Y-98424233D01*
X154562792Y-98557940D01*
X154562784Y-98557945D01*
X154339439Y-98725138D01*
X154339421Y-98725154D01*
X154142154Y-98922421D01*
X154142138Y-98922439D01*
X153974945Y-99145784D01*
X153974940Y-99145792D01*
X153841233Y-99390657D01*
X153841231Y-99390661D01*
X153743727Y-99652083D01*
X153684422Y-99924700D01*
X153664518Y-100202998D01*
X153664518Y-100203001D01*
X153684422Y-100481299D01*
X153743727Y-100753916D01*
X153743729Y-100753923D01*
X153804266Y-100916230D01*
X153841231Y-101015338D01*
X153841233Y-101015342D01*
X153974940Y-101260207D01*
X153974945Y-101260215D01*
X154142138Y-101483560D01*
X154142154Y-101483578D01*
X154339421Y-101680845D01*
X154339439Y-101680861D01*
X154562784Y-101848054D01*
X154562792Y-101848059D01*
X154807657Y-101981766D01*
X154807659Y-101981767D01*
X154807663Y-101981769D01*
X155069077Y-102079271D01*
X155160179Y-102099089D01*
X155341700Y-102138577D01*
X155341702Y-102138577D01*
X155341706Y-102138578D01*
X155589014Y-102156265D01*
X155619999Y-102158482D01*
X155620000Y-102158482D01*
X155620001Y-102158482D01*
X155647881Y-102156487D01*
X155898294Y-102138578D01*
X156170923Y-102079271D01*
X156432337Y-101981769D01*
X156465056Y-101963902D01*
X156533327Y-101949050D01*
X156598792Y-101973465D01*
X156640665Y-102029398D01*
X156645651Y-102099089D01*
X156612167Y-102160413D01*
X156612165Y-102160415D01*
X146912401Y-111860181D01*
X146851078Y-111893666D01*
X146824720Y-111896500D01*
X140222254Y-111896500D01*
X140158960Y-111877914D01*
X140158522Y-111878674D01*
X140155391Y-111876866D01*
X140155215Y-111876815D01*
X140154679Y-111876455D01*
X140153830Y-111875965D01*
X140119981Y-111860181D01*
X139939663Y-111776097D01*
X139939659Y-111776096D01*
X139939655Y-111776094D01*
X139711413Y-111714938D01*
X139711403Y-111714936D01*
X139476001Y-111694341D01*
X139475999Y-111694341D01*
X139240596Y-111714936D01*
X139240586Y-111714938D01*
X139012344Y-111776094D01*
X139012335Y-111776098D01*
X138798171Y-111875964D01*
X138798169Y-111875965D01*
X138604594Y-112011508D01*
X138604190Y-112011847D01*
X138603976Y-112011940D01*
X138600164Y-112014610D01*
X138599627Y-112013843D01*
X138540178Y-112039850D01*
X138471187Y-112028800D01*
X138436818Y-112004526D01*
X137808504Y-111376212D01*
X137798681Y-111363950D01*
X137798460Y-111364134D01*
X137793487Y-111358123D01*
X137774860Y-111340631D01*
X137743065Y-111310773D01*
X137732620Y-111300328D01*
X137722176Y-111289883D01*
X137716687Y-111285625D01*
X137712262Y-111281847D01*
X137678283Y-111249938D01*
X137678281Y-111249936D01*
X137678278Y-111249935D01*
X137660730Y-111240288D01*
X137644464Y-111229604D01*
X137628634Y-111217325D01*
X137585869Y-111198818D01*
X137580623Y-111196248D01*
X137539794Y-111173803D01*
X137539793Y-111173802D01*
X137520394Y-111168822D01*
X137501982Y-111162518D01*
X137483599Y-111154562D01*
X137483593Y-111154560D01*
X137437575Y-111147272D01*
X137431853Y-111146087D01*
X137386722Y-111134500D01*
X137386720Y-111134500D01*
X137366685Y-111134500D01*
X137347287Y-111132973D01*
X137339863Y-111131797D01*
X137327506Y-111129840D01*
X137327505Y-111129840D01*
X137281117Y-111134225D01*
X137275279Y-111134500D01*
X135768737Y-111134500D01*
X135753120Y-111132776D01*
X135753093Y-111133062D01*
X135745331Y-111132327D01*
X135676203Y-111134500D01*
X135646650Y-111134500D01*
X135645929Y-111134590D01*
X135639757Y-111135369D01*
X135633945Y-111135826D01*
X135587372Y-111137290D01*
X135587369Y-111137291D01*
X135568126Y-111142881D01*
X135549083Y-111146825D01*
X135529204Y-111149336D01*
X135529203Y-111149337D01*
X135485878Y-111166490D01*
X135480352Y-111168382D01*
X135435608Y-111181383D01*
X135435604Y-111181385D01*
X135418365Y-111191580D01*
X135400898Y-111200137D01*
X135382269Y-111207512D01*
X135382267Y-111207513D01*
X135344564Y-111234906D01*
X135339682Y-111238112D01*
X135299580Y-111261828D01*
X135285408Y-111276000D01*
X135270623Y-111288628D01*
X135254412Y-111300407D01*
X135224709Y-111336310D01*
X135220777Y-111340631D01*
X134851646Y-111709761D01*
X134790323Y-111743246D01*
X134731873Y-111741855D01*
X134631408Y-111714937D01*
X134396001Y-111694341D01*
X134395999Y-111694341D01*
X134160596Y-111714936D01*
X134160586Y-111714938D01*
X133932344Y-111776094D01*
X133932335Y-111776098D01*
X133718171Y-111875964D01*
X133718169Y-111875965D01*
X133524597Y-112011505D01*
X133357508Y-112178594D01*
X133227574Y-112364160D01*
X133172997Y-112407784D01*
X133103498Y-112414977D01*
X133041144Y-112383455D01*
X133024429Y-112364164D01*
X132894495Y-112178599D01*
X132894493Y-112178596D01*
X132727402Y-112011506D01*
X132727395Y-112011501D01*
X132533834Y-111875967D01*
X132533830Y-111875965D01*
X132499981Y-111860181D01*
X132319663Y-111776097D01*
X132319659Y-111776096D01*
X132319655Y-111776094D01*
X132091413Y-111714938D01*
X132091403Y-111714936D01*
X131856001Y-111694341D01*
X131855999Y-111694341D01*
X131620596Y-111714936D01*
X131620586Y-111714938D01*
X131392344Y-111776094D01*
X131392335Y-111776098D01*
X131178171Y-111875964D01*
X131178169Y-111875965D01*
X130984597Y-112011505D01*
X130817505Y-112178597D01*
X130687575Y-112364158D01*
X130632998Y-112407783D01*
X130563500Y-112414977D01*
X130501145Y-112383454D01*
X130484425Y-112364158D01*
X130354494Y-112178597D01*
X130187402Y-112011506D01*
X130187395Y-112011501D01*
X129993834Y-111875967D01*
X129993830Y-111875965D01*
X129959981Y-111860181D01*
X129779663Y-111776097D01*
X129779659Y-111776096D01*
X129779655Y-111776094D01*
X129551413Y-111714938D01*
X129551403Y-111714936D01*
X129316001Y-111694341D01*
X129315999Y-111694341D01*
X129080596Y-111714936D01*
X129080586Y-111714938D01*
X128852344Y-111776094D01*
X128852335Y-111776098D01*
X128638171Y-111875964D01*
X128638169Y-111875965D01*
X128444597Y-112011505D01*
X128277505Y-112178597D01*
X128141965Y-112372169D01*
X128141964Y-112372171D01*
X128042098Y-112586335D01*
X128042094Y-112586344D01*
X127980938Y-112814586D01*
X127980936Y-112814596D01*
X127960341Y-113049999D01*
X127960341Y-113050000D01*
X85090500Y-113050000D01*
X85090500Y-100203001D01*
X98964518Y-100203001D01*
X98984422Y-100481299D01*
X99043727Y-100753916D01*
X99043729Y-100753923D01*
X99104266Y-100916230D01*
X99141231Y-101015338D01*
X99141233Y-101015342D01*
X99274940Y-101260207D01*
X99274945Y-101260215D01*
X99442138Y-101483560D01*
X99442154Y-101483578D01*
X99639421Y-101680845D01*
X99639439Y-101680861D01*
X99862784Y-101848054D01*
X99862792Y-101848059D01*
X100107657Y-101981766D01*
X100107659Y-101981767D01*
X100107663Y-101981769D01*
X100369077Y-102079271D01*
X100460179Y-102099089D01*
X100641700Y-102138577D01*
X100641702Y-102138577D01*
X100641706Y-102138578D01*
X100889014Y-102156265D01*
X100919999Y-102158482D01*
X100920000Y-102158482D01*
X100920001Y-102158482D01*
X100947881Y-102156487D01*
X101198294Y-102138578D01*
X101470923Y-102079271D01*
X101732337Y-101981769D01*
X101977213Y-101848056D01*
X102200568Y-101680855D01*
X102397855Y-101483568D01*
X102565056Y-101260213D01*
X102698769Y-101015337D01*
X102796271Y-100753923D01*
X102855578Y-100481294D01*
X102875482Y-100203001D01*
X126314518Y-100203001D01*
X126334422Y-100481299D01*
X126393727Y-100753916D01*
X126393729Y-100753923D01*
X126454266Y-100916230D01*
X126491231Y-101015338D01*
X126491233Y-101015342D01*
X126624940Y-101260207D01*
X126624945Y-101260215D01*
X126792138Y-101483560D01*
X126792154Y-101483578D01*
X126989421Y-101680845D01*
X126989439Y-101680861D01*
X127212784Y-101848054D01*
X127212792Y-101848059D01*
X127457657Y-101981766D01*
X127457659Y-101981767D01*
X127457663Y-101981769D01*
X127719077Y-102079271D01*
X127810179Y-102099089D01*
X127991700Y-102138577D01*
X127991702Y-102138577D01*
X127991706Y-102138578D01*
X128239014Y-102156265D01*
X128269999Y-102158482D01*
X128270000Y-102158482D01*
X128270001Y-102158482D01*
X128297881Y-102156487D01*
X128548294Y-102138578D01*
X128820923Y-102079271D01*
X129082337Y-101981769D01*
X129327213Y-101848056D01*
X129550568Y-101680855D01*
X129747855Y-101483568D01*
X129915056Y-101260213D01*
X130048769Y-101015337D01*
X130146271Y-100753923D01*
X130205578Y-100481294D01*
X130225482Y-100203000D01*
X130205578Y-99924706D01*
X130146271Y-99652077D01*
X130048769Y-99390663D01*
X129915056Y-99145787D01*
X129915054Y-99145784D01*
X129747861Y-98922439D01*
X129747845Y-98922421D01*
X129550578Y-98725154D01*
X129550560Y-98725138D01*
X129327215Y-98557945D01*
X129327207Y-98557940D01*
X129082342Y-98424233D01*
X129082338Y-98424231D01*
X128951504Y-98375433D01*
X128820923Y-98326729D01*
X128820919Y-98326728D01*
X128820916Y-98326727D01*
X128548299Y-98267422D01*
X128270001Y-98247518D01*
X128269999Y-98247518D01*
X127991700Y-98267422D01*
X127719083Y-98326727D01*
X127719078Y-98326728D01*
X127719077Y-98326729D01*
X127675823Y-98342862D01*
X127457661Y-98424231D01*
X127457657Y-98424233D01*
X127212792Y-98557940D01*
X127212784Y-98557945D01*
X126989439Y-98725138D01*
X126989421Y-98725154D01*
X126792154Y-98922421D01*
X126792138Y-98922439D01*
X126624945Y-99145784D01*
X126624940Y-99145792D01*
X126491233Y-99390657D01*
X126491231Y-99390661D01*
X126393727Y-99652083D01*
X126334422Y-99924700D01*
X126314518Y-100202998D01*
X126314518Y-100203001D01*
X102875482Y-100203001D01*
X102875482Y-100203000D01*
X102855578Y-99924706D01*
X102796271Y-99652077D01*
X102698769Y-99390663D01*
X102565056Y-99145787D01*
X102565054Y-99145784D01*
X102397861Y-98922439D01*
X102397845Y-98922421D01*
X102200578Y-98725154D01*
X102200560Y-98725138D01*
X101977215Y-98557945D01*
X101977207Y-98557940D01*
X101732342Y-98424233D01*
X101732338Y-98424231D01*
X101601504Y-98375433D01*
X101470923Y-98326729D01*
X101470919Y-98326728D01*
X101470916Y-98326727D01*
X101198299Y-98267422D01*
X100920001Y-98247518D01*
X100919999Y-98247518D01*
X100641700Y-98267422D01*
X100369083Y-98326727D01*
X100369078Y-98326728D01*
X100369077Y-98326729D01*
X100325823Y-98342862D01*
X100107661Y-98424231D01*
X100107657Y-98424233D01*
X99862792Y-98557940D01*
X99862784Y-98557945D01*
X99639439Y-98725138D01*
X99639421Y-98725154D01*
X99442154Y-98922421D01*
X99442138Y-98922439D01*
X99274945Y-99145784D01*
X99274940Y-99145792D01*
X99141233Y-99390657D01*
X99141231Y-99390661D01*
X99043727Y-99652083D01*
X98984422Y-99924700D01*
X98964518Y-100202998D01*
X98964518Y-100203001D01*
X85090500Y-100203001D01*
X85090500Y-95758000D01*
X98714778Y-95758000D01*
X98733644Y-96045837D01*
X98733646Y-96045849D01*
X98789917Y-96328745D01*
X98789921Y-96328760D01*
X98882642Y-96601905D01*
X99010219Y-96860606D01*
X99010223Y-96860613D01*
X99170478Y-97100452D01*
X99360672Y-97317327D01*
X99577546Y-97507520D01*
X99817389Y-97667778D01*
X100076098Y-97795359D01*
X100349247Y-97888081D01*
X100632161Y-97944356D01*
X100920000Y-97963222D01*
X101207839Y-97944356D01*
X101490753Y-97888081D01*
X101763902Y-97795359D01*
X102022611Y-97667778D01*
X102262454Y-97507520D01*
X102479327Y-97317327D01*
X102669520Y-97100454D01*
X102829778Y-96860611D01*
X102957359Y-96601902D01*
X103050081Y-96328753D01*
X103106356Y-96045839D01*
X103125222Y-95758000D01*
X103125222Y-95757999D01*
X126064778Y-95757999D01*
X126083644Y-96045837D01*
X126083646Y-96045849D01*
X126139917Y-96328745D01*
X126139921Y-96328760D01*
X126232642Y-96601905D01*
X126360219Y-96860606D01*
X126360223Y-96860613D01*
X126520478Y-97100452D01*
X126710672Y-97317327D01*
X126927546Y-97507520D01*
X127167389Y-97667778D01*
X127426098Y-97795359D01*
X127699247Y-97888081D01*
X127982161Y-97944356D01*
X128270000Y-97963222D01*
X128557839Y-97944356D01*
X128840753Y-97888081D01*
X129113902Y-97795359D01*
X129372611Y-97667778D01*
X129612454Y-97507520D01*
X129829327Y-97317327D01*
X130019520Y-97100454D01*
X130179778Y-96860611D01*
X130307359Y-96601902D01*
X130400081Y-96328753D01*
X130456356Y-96045839D01*
X130475222Y-95758000D01*
X153414778Y-95758000D01*
X153433644Y-96045837D01*
X153433646Y-96045849D01*
X153489917Y-96328745D01*
X153489921Y-96328760D01*
X153582642Y-96601905D01*
X153710219Y-96860606D01*
X153710223Y-96860613D01*
X153870478Y-97100452D01*
X154060672Y-97317327D01*
X154277546Y-97507520D01*
X154517389Y-97667778D01*
X154776098Y-97795359D01*
X155049247Y-97888081D01*
X155332161Y-97944356D01*
X155620000Y-97963222D01*
X155907839Y-97944356D01*
X156190753Y-97888081D01*
X156463902Y-97795359D01*
X156722611Y-97667778D01*
X156962454Y-97507520D01*
X157179327Y-97317327D01*
X157369520Y-97100454D01*
X157529778Y-96860611D01*
X157657359Y-96601902D01*
X157750081Y-96328753D01*
X157806356Y-96045839D01*
X157825222Y-95758000D01*
X157806356Y-95470161D01*
X157750081Y-95187247D01*
X157657359Y-94914098D01*
X157529778Y-94655389D01*
X157485425Y-94589010D01*
X157369521Y-94415547D01*
X157179327Y-94198672D01*
X156962452Y-94008478D01*
X156722613Y-93848223D01*
X156722606Y-93848219D01*
X156463905Y-93720642D01*
X156190760Y-93627921D01*
X156190754Y-93627919D01*
X156190753Y-93627919D01*
X156190751Y-93627918D01*
X156190745Y-93627917D01*
X155907849Y-93571646D01*
X155907839Y-93571644D01*
X155620000Y-93552778D01*
X155332161Y-93571644D01*
X155332155Y-93571645D01*
X155332150Y-93571646D01*
X155049254Y-93627917D01*
X155049239Y-93627921D01*
X154776094Y-93720642D01*
X154517393Y-93848219D01*
X154517386Y-93848223D01*
X154277547Y-94008478D01*
X154060672Y-94198672D01*
X153870478Y-94415547D01*
X153710223Y-94655386D01*
X153710219Y-94655393D01*
X153582642Y-94914094D01*
X153489921Y-95187239D01*
X153489917Y-95187254D01*
X153433646Y-95470150D01*
X153433644Y-95470162D01*
X153414778Y-95758000D01*
X130475222Y-95758000D01*
X130456356Y-95470161D01*
X130400081Y-95187247D01*
X130307359Y-94914098D01*
X130179778Y-94655389D01*
X130135425Y-94589010D01*
X130019521Y-94415547D01*
X129829327Y-94198672D01*
X129612452Y-94008478D01*
X129372613Y-93848223D01*
X129372606Y-93848219D01*
X129113905Y-93720642D01*
X128840760Y-93627921D01*
X128840754Y-93627919D01*
X128840753Y-93627919D01*
X128840751Y-93627918D01*
X128840745Y-93627917D01*
X128557849Y-93571646D01*
X128557839Y-93571644D01*
X128270000Y-93552778D01*
X127982161Y-93571644D01*
X127982155Y-93571645D01*
X127982150Y-93571646D01*
X127699254Y-93627917D01*
X127699239Y-93627921D01*
X127426094Y-93720642D01*
X127167393Y-93848219D01*
X127167386Y-93848223D01*
X126927547Y-94008478D01*
X126710672Y-94198672D01*
X126520478Y-94415547D01*
X126360223Y-94655386D01*
X126360219Y-94655393D01*
X126232642Y-94914094D01*
X126139921Y-95187239D01*
X126139917Y-95187254D01*
X126083646Y-95470150D01*
X126083644Y-95470162D01*
X126064778Y-95757999D01*
X103125222Y-95757999D01*
X103106356Y-95470161D01*
X103050081Y-95187247D01*
X102957359Y-94914098D01*
X102829778Y-94655389D01*
X102785425Y-94589010D01*
X102669521Y-94415547D01*
X102479327Y-94198672D01*
X102262452Y-94008478D01*
X102022613Y-93848223D01*
X102022606Y-93848219D01*
X101763905Y-93720642D01*
X101490760Y-93627921D01*
X101490754Y-93627919D01*
X101490753Y-93627919D01*
X101490751Y-93627918D01*
X101490745Y-93627917D01*
X101207849Y-93571646D01*
X101207839Y-93571644D01*
X100920000Y-93552778D01*
X100919999Y-93552778D01*
X100776080Y-93562210D01*
X100632161Y-93571644D01*
X100632155Y-93571645D01*
X100632150Y-93571646D01*
X100349254Y-93627917D01*
X100349239Y-93627921D01*
X100076094Y-93720642D01*
X99817393Y-93848219D01*
X99817386Y-93848223D01*
X99577547Y-94008478D01*
X99360672Y-94198672D01*
X99170478Y-94415547D01*
X99010223Y-94655386D01*
X99010219Y-94655393D01*
X98882642Y-94914094D01*
X98789921Y-95187239D01*
X98789917Y-95187254D01*
X98733646Y-95470150D01*
X98733644Y-95470162D01*
X98714778Y-95758000D01*
X85090500Y-95758000D01*
X85090500Y-91948000D01*
X94904778Y-91948000D01*
X94923644Y-92235837D01*
X94923646Y-92235849D01*
X94979917Y-92518745D01*
X94979921Y-92518760D01*
X95072642Y-92791905D01*
X95200219Y-93050606D01*
X95200223Y-93050613D01*
X95360478Y-93290452D01*
X95550672Y-93507327D01*
X95767547Y-93697521D01*
X95993083Y-93848219D01*
X96007389Y-93857778D01*
X96266098Y-93985359D01*
X96539247Y-94078081D01*
X96822161Y-94134356D01*
X97110000Y-94153222D01*
X97397839Y-94134356D01*
X97680753Y-94078081D01*
X97953902Y-93985359D01*
X98212611Y-93857778D01*
X98452454Y-93697520D01*
X98669327Y-93507327D01*
X98859520Y-93290454D01*
X99019778Y-93050611D01*
X99147359Y-92791902D01*
X99240081Y-92518753D01*
X99296356Y-92235839D01*
X99315222Y-91948000D01*
X99296356Y-91660161D01*
X99240081Y-91377247D01*
X99147359Y-91104098D01*
X99084647Y-90976932D01*
X99072651Y-90908103D01*
X99099773Y-90843711D01*
X99108156Y-90834432D01*
X99357773Y-90584817D01*
X99419096Y-90551334D01*
X99445453Y-90548500D01*
X102786610Y-90548500D01*
X102853649Y-90568185D01*
X102899404Y-90620989D01*
X102909348Y-90690147D01*
X102889713Y-90741388D01*
X102841437Y-90813637D01*
X102820219Y-90845393D01*
X102692642Y-91104094D01*
X102599921Y-91377239D01*
X102599917Y-91377254D01*
X102543646Y-91660150D01*
X102543644Y-91660162D01*
X102524778Y-91948000D01*
X102543644Y-92235837D01*
X102543646Y-92235849D01*
X102599917Y-92518745D01*
X102599921Y-92518760D01*
X102692642Y-92791905D01*
X102820219Y-93050606D01*
X102820223Y-93050613D01*
X102980478Y-93290452D01*
X103170672Y-93507327D01*
X103387547Y-93697521D01*
X103613083Y-93848219D01*
X103627389Y-93857778D01*
X103886098Y-93985359D01*
X104159247Y-94078081D01*
X104442161Y-94134356D01*
X104730000Y-94153222D01*
X105017839Y-94134356D01*
X105300753Y-94078081D01*
X105573902Y-93985359D01*
X105832611Y-93857778D01*
X106072454Y-93697520D01*
X106289327Y-93507327D01*
X106479520Y-93290454D01*
X106639778Y-93050611D01*
X106767359Y-92791902D01*
X106860081Y-92518753D01*
X106916356Y-92235839D01*
X106935222Y-91948000D01*
X106916356Y-91660161D01*
X106860081Y-91377247D01*
X106767359Y-91104098D01*
X106639778Y-90845389D01*
X106570287Y-90741388D01*
X106549410Y-90674713D01*
X106567895Y-90607333D01*
X106619873Y-90560643D01*
X106673390Y-90548500D01*
X122124548Y-90548500D01*
X122191587Y-90568185D01*
X122212229Y-90584819D01*
X122461819Y-90834409D01*
X122495304Y-90895732D01*
X122490320Y-90965424D01*
X122485351Y-90976933D01*
X122422646Y-91104087D01*
X122422639Y-91104102D01*
X122329921Y-91377239D01*
X122329917Y-91377254D01*
X122273646Y-91660150D01*
X122273644Y-91660162D01*
X122254778Y-91947999D01*
X122273644Y-92235837D01*
X122273646Y-92235849D01*
X122329917Y-92518745D01*
X122329921Y-92518760D01*
X122422642Y-92791905D01*
X122550219Y-93050606D01*
X122550223Y-93050613D01*
X122710478Y-93290452D01*
X122900672Y-93507327D01*
X123117547Y-93697521D01*
X123343083Y-93848219D01*
X123357389Y-93857778D01*
X123616098Y-93985359D01*
X123889247Y-94078081D01*
X124172161Y-94134356D01*
X124460000Y-94153222D01*
X124747839Y-94134356D01*
X125030753Y-94078081D01*
X125303902Y-93985359D01*
X125562611Y-93857778D01*
X125802454Y-93697520D01*
X126019327Y-93507327D01*
X126209520Y-93290454D01*
X126369778Y-93050611D01*
X126497359Y-92791902D01*
X126590081Y-92518753D01*
X126646356Y-92235839D01*
X126665222Y-91948000D01*
X126646356Y-91660161D01*
X126590081Y-91377247D01*
X126497359Y-91104098D01*
X126434647Y-90976932D01*
X126422651Y-90908103D01*
X126449773Y-90843711D01*
X126458156Y-90834432D01*
X126707773Y-90584817D01*
X126769096Y-90551334D01*
X126795453Y-90548500D01*
X130136610Y-90548500D01*
X130203649Y-90568185D01*
X130249404Y-90620989D01*
X130259348Y-90690147D01*
X130239713Y-90741388D01*
X130191437Y-90813637D01*
X130170219Y-90845393D01*
X130042642Y-91104094D01*
X129949921Y-91377239D01*
X129949917Y-91377254D01*
X129893646Y-91660150D01*
X129893644Y-91660162D01*
X129874778Y-91947999D01*
X129893644Y-92235837D01*
X129893646Y-92235849D01*
X129949917Y-92518745D01*
X129949921Y-92518760D01*
X130042642Y-92791905D01*
X130170219Y-93050606D01*
X130170223Y-93050613D01*
X130330478Y-93290452D01*
X130520672Y-93507327D01*
X130737547Y-93697521D01*
X130963083Y-93848219D01*
X130977389Y-93857778D01*
X131236098Y-93985359D01*
X131509247Y-94078081D01*
X131792161Y-94134356D01*
X132080000Y-94153222D01*
X132367839Y-94134356D01*
X132650753Y-94078081D01*
X132923902Y-93985359D01*
X133182611Y-93857778D01*
X133422454Y-93697520D01*
X133639327Y-93507327D01*
X133829520Y-93290454D01*
X133989778Y-93050611D01*
X134117359Y-92791902D01*
X134210081Y-92518753D01*
X134266356Y-92235839D01*
X134285222Y-91948000D01*
X134266356Y-91660161D01*
X134210081Y-91377247D01*
X134117359Y-91104098D01*
X133989778Y-90845389D01*
X133920287Y-90741388D01*
X133899410Y-90674713D01*
X133917895Y-90607333D01*
X133969873Y-90560643D01*
X134023390Y-90548500D01*
X149474548Y-90548500D01*
X149541587Y-90568185D01*
X149562229Y-90584819D01*
X149811819Y-90834409D01*
X149845304Y-90895732D01*
X149840320Y-90965424D01*
X149835351Y-90976933D01*
X149772646Y-91104087D01*
X149772639Y-91104102D01*
X149679921Y-91377239D01*
X149679917Y-91377254D01*
X149623646Y-91660150D01*
X149623644Y-91660162D01*
X149604778Y-91948000D01*
X149623644Y-92235837D01*
X149623646Y-92235849D01*
X149679917Y-92518745D01*
X149679921Y-92518760D01*
X149772642Y-92791905D01*
X149900219Y-93050606D01*
X149900223Y-93050613D01*
X150060478Y-93290452D01*
X150250672Y-93507327D01*
X150467547Y-93697521D01*
X150693083Y-93848219D01*
X150707389Y-93857778D01*
X150966098Y-93985359D01*
X151239247Y-94078081D01*
X151522161Y-94134356D01*
X151810000Y-94153222D01*
X152097839Y-94134356D01*
X152380753Y-94078081D01*
X152653902Y-93985359D01*
X152912611Y-93857778D01*
X153152454Y-93697520D01*
X153369327Y-93507327D01*
X153559520Y-93290454D01*
X153719778Y-93050611D01*
X153847359Y-92791902D01*
X153940081Y-92518753D01*
X153996356Y-92235839D01*
X154015222Y-91948000D01*
X153996356Y-91660161D01*
X153940081Y-91377247D01*
X153847359Y-91104098D01*
X153784647Y-90976932D01*
X153772651Y-90908103D01*
X153799773Y-90843711D01*
X153808156Y-90834432D01*
X154057773Y-90584817D01*
X154119096Y-90551334D01*
X154145453Y-90548500D01*
X157486610Y-90548500D01*
X157553649Y-90568185D01*
X157599404Y-90620989D01*
X157609348Y-90690147D01*
X157589713Y-90741388D01*
X157541437Y-90813637D01*
X157520219Y-90845393D01*
X157392642Y-91104094D01*
X157299921Y-91377239D01*
X157299917Y-91377254D01*
X157243646Y-91660150D01*
X157243644Y-91660162D01*
X157224778Y-91947999D01*
X157243644Y-92235837D01*
X157243646Y-92235849D01*
X157299917Y-92518745D01*
X157299921Y-92518760D01*
X157392642Y-92791905D01*
X157520219Y-93050606D01*
X157520223Y-93050613D01*
X157680478Y-93290452D01*
X157870672Y-93507327D01*
X158087547Y-93697521D01*
X158313083Y-93848219D01*
X158327389Y-93857778D01*
X158586098Y-93985359D01*
X158859247Y-94078081D01*
X159142161Y-94134356D01*
X159430000Y-94153222D01*
X159717839Y-94134356D01*
X160000753Y-94078081D01*
X160273902Y-93985359D01*
X160532611Y-93857778D01*
X160772454Y-93697520D01*
X160989327Y-93507327D01*
X161179520Y-93290454D01*
X161339778Y-93050611D01*
X161467359Y-92791902D01*
X161560081Y-92518753D01*
X161616356Y-92235839D01*
X161635222Y-91948000D01*
X161616356Y-91660161D01*
X161560081Y-91377247D01*
X161467359Y-91104098D01*
X161339778Y-90845389D01*
X161270287Y-90741388D01*
X161249410Y-90674713D01*
X161267895Y-90607333D01*
X161319873Y-90560643D01*
X161373390Y-90548500D01*
X176824548Y-90548500D01*
X176891587Y-90568185D01*
X176912229Y-90584819D01*
X177161819Y-90834409D01*
X177195304Y-90895732D01*
X177190320Y-90965424D01*
X177185351Y-90976933D01*
X177122646Y-91104087D01*
X177122639Y-91104102D01*
X177029921Y-91377239D01*
X177029917Y-91377254D01*
X176973646Y-91660150D01*
X176973644Y-91660162D01*
X176954778Y-91947999D01*
X176973644Y-92235837D01*
X176973646Y-92235849D01*
X177029917Y-92518745D01*
X177029921Y-92518760D01*
X177122642Y-92791905D01*
X177250219Y-93050606D01*
X177250223Y-93050613D01*
X177410478Y-93290452D01*
X177600672Y-93507327D01*
X177817547Y-93697521D01*
X178043083Y-93848219D01*
X178057389Y-93857778D01*
X178316098Y-93985359D01*
X178589247Y-94078081D01*
X178872161Y-94134356D01*
X179160000Y-94153222D01*
X179447839Y-94134356D01*
X179730753Y-94078081D01*
X180003902Y-93985359D01*
X180262611Y-93857778D01*
X180502454Y-93697520D01*
X180719327Y-93507327D01*
X180909520Y-93290454D01*
X181069778Y-93050611D01*
X181197359Y-92791902D01*
X181290081Y-92518753D01*
X181346356Y-92235839D01*
X181365222Y-91948000D01*
X181346356Y-91660161D01*
X181290081Y-91377247D01*
X181197359Y-91104098D01*
X181069778Y-90845389D01*
X180909520Y-90605546D01*
X180870141Y-90560643D01*
X180719327Y-90388672D01*
X180502452Y-90198478D01*
X180262613Y-90038223D01*
X180262606Y-90038219D01*
X180003905Y-89910642D01*
X179730760Y-89817921D01*
X179730754Y-89817919D01*
X179730753Y-89817919D01*
X179730751Y-89817918D01*
X179730745Y-89817917D01*
X179447849Y-89761646D01*
X179447839Y-89761644D01*
X179160000Y-89742778D01*
X178872161Y-89761644D01*
X178872155Y-89761645D01*
X178872150Y-89761646D01*
X178589254Y-89817917D01*
X178589239Y-89817921D01*
X178316101Y-89910639D01*
X178188933Y-89973350D01*
X178120100Y-89985345D01*
X178055710Y-89958223D01*
X178046409Y-89949818D01*
X177635803Y-89539212D01*
X177625980Y-89526950D01*
X177625759Y-89527134D01*
X177620786Y-89521123D01*
X177602159Y-89503631D01*
X177570364Y-89473773D01*
X177559919Y-89463328D01*
X177549475Y-89452883D01*
X177543986Y-89448625D01*
X177539561Y-89444847D01*
X177505582Y-89412938D01*
X177505580Y-89412936D01*
X177505577Y-89412935D01*
X177488029Y-89403288D01*
X177471763Y-89392604D01*
X177455933Y-89380325D01*
X177413168Y-89361818D01*
X177407922Y-89359248D01*
X177367093Y-89336803D01*
X177367092Y-89336802D01*
X177347693Y-89331822D01*
X177329281Y-89325518D01*
X177310898Y-89317562D01*
X177310892Y-89317560D01*
X177264874Y-89310272D01*
X177259152Y-89309087D01*
X177214021Y-89297500D01*
X177214019Y-89297500D01*
X177193984Y-89297500D01*
X177174586Y-89295973D01*
X177167162Y-89294797D01*
X177154805Y-89292840D01*
X177154804Y-89292840D01*
X177108416Y-89297225D01*
X177102578Y-89297500D01*
X153917737Y-89297500D01*
X153902120Y-89295776D01*
X153902093Y-89296062D01*
X153894331Y-89295327D01*
X153825203Y-89297500D01*
X153795650Y-89297500D01*
X153794929Y-89297590D01*
X153788757Y-89298369D01*
X153782945Y-89298826D01*
X153736372Y-89300290D01*
X153736369Y-89300291D01*
X153717126Y-89305881D01*
X153698083Y-89309825D01*
X153678204Y-89312336D01*
X153678203Y-89312337D01*
X153634878Y-89329490D01*
X153629352Y-89331382D01*
X153584608Y-89344383D01*
X153584604Y-89344385D01*
X153567365Y-89354580D01*
X153549898Y-89363137D01*
X153531269Y-89370512D01*
X153531267Y-89370513D01*
X153493564Y-89397906D01*
X153488682Y-89401112D01*
X153448580Y-89424828D01*
X153434408Y-89439000D01*
X153419623Y-89451628D01*
X153403412Y-89463407D01*
X153373709Y-89499310D01*
X153369777Y-89503631D01*
X152923589Y-89949818D01*
X152862266Y-89983303D01*
X152792574Y-89978319D01*
X152781065Y-89973350D01*
X152733346Y-89949818D01*
X152653902Y-89910641D01*
X152653898Y-89910639D01*
X152380760Y-89817921D01*
X152380754Y-89817919D01*
X152380753Y-89817919D01*
X152380751Y-89817918D01*
X152380745Y-89817917D01*
X152097849Y-89761646D01*
X152097839Y-89761644D01*
X151810000Y-89742778D01*
X151522161Y-89761644D01*
X151522155Y-89761645D01*
X151522150Y-89761646D01*
X151239254Y-89817917D01*
X151239239Y-89817921D01*
X150966101Y-89910639D01*
X150838933Y-89973350D01*
X150770100Y-89985345D01*
X150705710Y-89958223D01*
X150696409Y-89949818D01*
X150285803Y-89539212D01*
X150275980Y-89526950D01*
X150275759Y-89527134D01*
X150270786Y-89521123D01*
X150252159Y-89503631D01*
X150220364Y-89473773D01*
X150209919Y-89463328D01*
X150199475Y-89452883D01*
X150193986Y-89448625D01*
X150189561Y-89444847D01*
X150155582Y-89412938D01*
X150155580Y-89412936D01*
X150155577Y-89412935D01*
X150138029Y-89403288D01*
X150121763Y-89392604D01*
X150105933Y-89380325D01*
X150063168Y-89361818D01*
X150057922Y-89359248D01*
X150017093Y-89336803D01*
X150017092Y-89336802D01*
X149997693Y-89331822D01*
X149979281Y-89325518D01*
X149960898Y-89317562D01*
X149960892Y-89317560D01*
X149914874Y-89310272D01*
X149909152Y-89309087D01*
X149864021Y-89297500D01*
X149864019Y-89297500D01*
X149843984Y-89297500D01*
X149824586Y-89295973D01*
X149817162Y-89294797D01*
X149804805Y-89292840D01*
X149804804Y-89292840D01*
X149758416Y-89297225D01*
X149752578Y-89297500D01*
X126567737Y-89297500D01*
X126552120Y-89295776D01*
X126552093Y-89296062D01*
X126544331Y-89295327D01*
X126475203Y-89297500D01*
X126445650Y-89297500D01*
X126444929Y-89297590D01*
X126438757Y-89298369D01*
X126432945Y-89298826D01*
X126386372Y-89300290D01*
X126386369Y-89300291D01*
X126367126Y-89305881D01*
X126348083Y-89309825D01*
X126328204Y-89312336D01*
X126328203Y-89312337D01*
X126284878Y-89329490D01*
X126279352Y-89331382D01*
X126234608Y-89344383D01*
X126234604Y-89344385D01*
X126217365Y-89354580D01*
X126199898Y-89363137D01*
X126181269Y-89370512D01*
X126181267Y-89370513D01*
X126143564Y-89397906D01*
X126138682Y-89401112D01*
X126098580Y-89424828D01*
X126084408Y-89439000D01*
X126069623Y-89451628D01*
X126053412Y-89463407D01*
X126023709Y-89499310D01*
X126019777Y-89503631D01*
X125573589Y-89949818D01*
X125512266Y-89983303D01*
X125442574Y-89978319D01*
X125431065Y-89973350D01*
X125383346Y-89949818D01*
X125303902Y-89910641D01*
X125303898Y-89910639D01*
X125030760Y-89817921D01*
X125030754Y-89817919D01*
X125030753Y-89817919D01*
X125030751Y-89817918D01*
X125030745Y-89817917D01*
X124747849Y-89761646D01*
X124747839Y-89761644D01*
X124460000Y-89742778D01*
X124172161Y-89761644D01*
X124172155Y-89761645D01*
X124172150Y-89761646D01*
X123889254Y-89817917D01*
X123889239Y-89817921D01*
X123616101Y-89910639D01*
X123488933Y-89973350D01*
X123420100Y-89985345D01*
X123355710Y-89958223D01*
X123346409Y-89949818D01*
X122935803Y-89539212D01*
X122925980Y-89526950D01*
X122925759Y-89527134D01*
X122920786Y-89521123D01*
X122902159Y-89503631D01*
X122870364Y-89473773D01*
X122859919Y-89463328D01*
X122849475Y-89452883D01*
X122843986Y-89448625D01*
X122839561Y-89444847D01*
X122805582Y-89412938D01*
X122805580Y-89412936D01*
X122805577Y-89412935D01*
X122788029Y-89403288D01*
X122771763Y-89392604D01*
X122755933Y-89380325D01*
X122713168Y-89361818D01*
X122707922Y-89359248D01*
X122667093Y-89336803D01*
X122667092Y-89336802D01*
X122647693Y-89331822D01*
X122629281Y-89325518D01*
X122610898Y-89317562D01*
X122610892Y-89317560D01*
X122564874Y-89310272D01*
X122559152Y-89309087D01*
X122514021Y-89297500D01*
X122514019Y-89297500D01*
X122493984Y-89297500D01*
X122474586Y-89295973D01*
X122467162Y-89294797D01*
X122454805Y-89292840D01*
X122454804Y-89292840D01*
X122408416Y-89297225D01*
X122402578Y-89297500D01*
X99217737Y-89297500D01*
X99202120Y-89295776D01*
X99202093Y-89296062D01*
X99194331Y-89295327D01*
X99125203Y-89297500D01*
X99095650Y-89297500D01*
X99094929Y-89297590D01*
X99088757Y-89298369D01*
X99082945Y-89298826D01*
X99036372Y-89300290D01*
X99036369Y-89300291D01*
X99017126Y-89305881D01*
X98998083Y-89309825D01*
X98978204Y-89312336D01*
X98978203Y-89312337D01*
X98934878Y-89329490D01*
X98929352Y-89331382D01*
X98884608Y-89344383D01*
X98884604Y-89344385D01*
X98867365Y-89354580D01*
X98849898Y-89363137D01*
X98831269Y-89370512D01*
X98831267Y-89370513D01*
X98793564Y-89397906D01*
X98788682Y-89401112D01*
X98748580Y-89424828D01*
X98734408Y-89439000D01*
X98719623Y-89451628D01*
X98703412Y-89463407D01*
X98673709Y-89499310D01*
X98669777Y-89503631D01*
X98223589Y-89949818D01*
X98162266Y-89983303D01*
X98092574Y-89978319D01*
X98081065Y-89973350D01*
X98033346Y-89949818D01*
X97953902Y-89910641D01*
X97953898Y-89910639D01*
X97680760Y-89817921D01*
X97680754Y-89817919D01*
X97680753Y-89817919D01*
X97680751Y-89817918D01*
X97680745Y-89817917D01*
X97397849Y-89761646D01*
X97397839Y-89761644D01*
X97110000Y-89742778D01*
X97109999Y-89742778D01*
X96966080Y-89752211D01*
X96822161Y-89761644D01*
X96822155Y-89761645D01*
X96822150Y-89761646D01*
X96539254Y-89817917D01*
X96539239Y-89817921D01*
X96266094Y-89910642D01*
X96007393Y-90038219D01*
X96007386Y-90038223D01*
X95767547Y-90198478D01*
X95550672Y-90388672D01*
X95360478Y-90605547D01*
X95200223Y-90845386D01*
X95200219Y-90845393D01*
X95072642Y-91104094D01*
X94979921Y-91377239D01*
X94979917Y-91377254D01*
X94923646Y-91660150D01*
X94923644Y-91660162D01*
X94904778Y-91948000D01*
X85090500Y-91948000D01*
X85090500Y-79250862D01*
X85110185Y-79183823D01*
X85126819Y-79163181D01*
X88053181Y-76236819D01*
X88114504Y-76203334D01*
X88140862Y-76200500D01*
X193799138Y-76200500D01*
X193866177Y-76220185D01*
G37*
%TD.AperFunction*%
%TA.AperFunction,NonConductor*%
G36*
X180836685Y-96403185D02*
G01*
X180882440Y-96455989D01*
X180887065Y-96467641D01*
X180932642Y-96601905D01*
X181060219Y-96860606D01*
X181060221Y-96860609D01*
X181060222Y-96860611D01*
X181129712Y-96964611D01*
X181150590Y-97031287D01*
X181132105Y-97098667D01*
X181080127Y-97145357D01*
X181026610Y-97157500D01*
X163683625Y-97157500D01*
X163616586Y-97137815D01*
X163570831Y-97085011D01*
X163560887Y-97015853D01*
X163589912Y-96952297D01*
X163595944Y-96945819D01*
X164121945Y-96419819D01*
X164183268Y-96386334D01*
X164209626Y-96383500D01*
X180769646Y-96383500D01*
X180836685Y-96403185D01*
G37*
%TD.AperFunction*%
%TA.AperFunction,NonConductor*%
G36*
X144217539Y-113167185D02*
G01*
X144263294Y-113219989D01*
X144274500Y-113271500D01*
X144274500Y-113550500D01*
X144254815Y-113617539D01*
X144202011Y-113663294D01*
X144150500Y-113674500D01*
X140868407Y-113674500D01*
X140801368Y-113654815D01*
X140755613Y-113602011D01*
X140745669Y-113532853D01*
X140748632Y-113518407D01*
X140759263Y-113478727D01*
X140811063Y-113285408D01*
X140813225Y-113260691D01*
X140838677Y-113195625D01*
X140895267Y-113154646D01*
X140936753Y-113147500D01*
X144150500Y-113147500D01*
X144217539Y-113167185D01*
G37*
%TD.AperFunction*%
%TA.AperFunction,NonConductor*%
G36*
X130670855Y-113716546D02*
G01*
X130687575Y-113735842D01*
X130817501Y-113921396D01*
X130817506Y-113921402D01*
X130984597Y-114088493D01*
X130984603Y-114088498D01*
X131170158Y-114218425D01*
X131213783Y-114273002D01*
X131220977Y-114342500D01*
X131189454Y-114404855D01*
X131170158Y-114421575D01*
X130984600Y-114551503D01*
X130862673Y-114673430D01*
X130801350Y-114706914D01*
X130731658Y-114701930D01*
X130675725Y-114660058D01*
X130658810Y-114629081D01*
X130609797Y-114497671D01*
X130609793Y-114497664D01*
X130523547Y-114382455D01*
X130523544Y-114382452D01*
X130408335Y-114296206D01*
X130408328Y-114296202D01*
X130276917Y-114247189D01*
X130220983Y-114205318D01*
X130196566Y-114139853D01*
X130211418Y-114071580D01*
X130232563Y-114043332D01*
X130354495Y-113921401D01*
X130484426Y-113735841D01*
X130539002Y-113692217D01*
X130608500Y-113685023D01*
X130670855Y-113716546D01*
G37*
%TD.AperFunction*%
%TA.AperFunction,NonConductor*%
G36*
X135750855Y-113716546D02*
G01*
X135767575Y-113735842D01*
X135897501Y-113921396D01*
X135897506Y-113921402D01*
X136064597Y-114088493D01*
X136064603Y-114088498D01*
X136250158Y-114218425D01*
X136293783Y-114273002D01*
X136300977Y-114342500D01*
X136269454Y-114404855D01*
X136250158Y-114421575D01*
X136064597Y-114551505D01*
X135897508Y-114718594D01*
X135767574Y-114904159D01*
X135712997Y-114947784D01*
X135643498Y-114954976D01*
X135581144Y-114923454D01*
X135564424Y-114904158D01*
X135434494Y-114718597D01*
X135267402Y-114551506D01*
X135267401Y-114551505D01*
X135190508Y-114497664D01*
X135081839Y-114421573D01*
X135038216Y-114366997D01*
X135031023Y-114297498D01*
X135062545Y-114235144D01*
X135081831Y-114218432D01*
X135267401Y-114088495D01*
X135434495Y-113921401D01*
X135564426Y-113735841D01*
X135619002Y-113692217D01*
X135688500Y-113685023D01*
X135750855Y-113716546D01*
G37*
%TD.AperFunction*%
%TA.AperFunction,NonConductor*%
G36*
X137940773Y-114071180D02*
G01*
X137975181Y-114095472D01*
X138430527Y-114550818D01*
X138464012Y-114612141D01*
X138459028Y-114681833D01*
X138440311Y-114713955D01*
X138440610Y-114714164D01*
X138438106Y-114717738D01*
X138437837Y-114718202D01*
X138437508Y-114718594D01*
X138307575Y-114904158D01*
X138252998Y-114947783D01*
X138183500Y-114954977D01*
X138121145Y-114923454D01*
X138104425Y-114904158D01*
X137974494Y-114718597D01*
X137807402Y-114551506D01*
X137807401Y-114551505D01*
X137621842Y-114421575D01*
X137621841Y-114421574D01*
X137578216Y-114366997D01*
X137571024Y-114297498D01*
X137602546Y-114235144D01*
X137621836Y-114218428D01*
X137807401Y-114088495D01*
X137807415Y-114088480D01*
X137807776Y-114088179D01*
X137807980Y-114088089D01*
X137811837Y-114085389D01*
X137812379Y-114086163D01*
X137871779Y-114060154D01*
X137940773Y-114071180D01*
G37*
%TD.AperFunction*%
%TA.AperFunction,NonConductor*%
G36*
X133210854Y-113716546D02*
G01*
X133227574Y-113735841D01*
X133357505Y-113921401D01*
X133357506Y-113921402D01*
X133524597Y-114088493D01*
X133524603Y-114088498D01*
X133534563Y-114095472D01*
X133710159Y-114218426D01*
X133753783Y-114273001D01*
X133760977Y-114342499D01*
X133729454Y-114404854D01*
X133710159Y-114421574D01*
X133524594Y-114551508D01*
X133357508Y-114718594D01*
X133227574Y-114904160D01*
X133172997Y-114947784D01*
X133103498Y-114954977D01*
X133041144Y-114923455D01*
X133024429Y-114904164D01*
X132894495Y-114718599D01*
X132894493Y-114718596D01*
X132727402Y-114551506D01*
X132727396Y-114551501D01*
X132541842Y-114421575D01*
X132498217Y-114366998D01*
X132491023Y-114297500D01*
X132522546Y-114235145D01*
X132541842Y-114218425D01*
X132654054Y-114139853D01*
X132727401Y-114088495D01*
X132894495Y-113921401D01*
X133024426Y-113735840D01*
X133079001Y-113692217D01*
X133148499Y-113685023D01*
X133210854Y-113716546D01*
G37*
%TD.AperFunction*%
%TA.AperFunction,NonConductor*%
G36*
X144217539Y-114945185D02*
G01*
X144263294Y-114997989D01*
X144274500Y-115049500D01*
X144274500Y-115375017D01*
X144285000Y-115477794D01*
X144285000Y-115477796D01*
X144285001Y-115477798D01*
X144306772Y-115543498D01*
X144309174Y-115613324D01*
X144273443Y-115673366D01*
X144210922Y-115704559D01*
X144189066Y-115706500D01*
X140955476Y-115706500D01*
X140888437Y-115686815D01*
X140842682Y-115634011D01*
X140831948Y-115593307D01*
X140830541Y-115577224D01*
X140811063Y-115354592D01*
X140749903Y-115126337D01*
X140738509Y-115101904D01*
X140728018Y-115032827D01*
X140756538Y-114969043D01*
X140815014Y-114930804D01*
X140850892Y-114925500D01*
X144150500Y-114925500D01*
X144217539Y-114945185D01*
G37*
%TD.AperFunction*%
M02*
