M48
; DRILL file {KiCad 7.0.6} date Thu Nov 23 12:55:44 2023
; FORMAT={-:-/ absolute / inch / decimal}
; #@! TF.CreationDate,2023-11-23T12:55:44+01:00
; #@! TF.GenerationSoftware,Kicad,Pcbnew,7.0.6
; #@! TF.FileFunction,Plated,1,2,PTH
FMAT,2
INCH
; #@! TA.AperFunction,Plated,PTH,ComponentDrill
T1C0.0394
; #@! TA.AperFunction,Plated,PTH,ComponentDrill
T2C0.0472
; #@! TA.AperFunction,Plated,PTH,ComponentDrill
T3C0.0610
; #@! TA.AperFunction,Plated,PTH,ComponentDrill
T4C0.0630
%
G90
G05
T1
X5.0912Y-4.4508
X5.0912Y-4.5508
X5.1912Y-4.4508
X5.1912Y-4.5508
X5.2912Y-4.4508
X5.2912Y-4.5508
X5.3912Y-4.4508
X5.3912Y-4.5508
X5.4912Y-4.4508
X5.4912Y-4.5508
T2
X3.9732Y-3.945
X5.05Y-3.945
X6.1268Y-3.945
X7.2035Y-3.945
T3
X5.75Y-4.5
X5.95Y-4.5
T4
X3.8232Y-3.62
X3.9732Y-3.77
X4.1232Y-3.62
X4.9Y-3.62
X5.05Y-3.77
X5.2Y-3.62
X5.9768Y-3.62
X6.1268Y-3.77
X6.2768Y-3.62
X7.0535Y-3.62
X7.2035Y-3.77
X7.3535Y-3.62
T0
M30
