%TF.GenerationSoftware,KiCad,Pcbnew,7.0.6*%
%TF.CreationDate,2023-11-23T12:55:46+01:00*%
%TF.ProjectId,xlrmale,786c726d-616c-4652-9e6b-696361645f70,1*%
%TF.SameCoordinates,Original*%
%TF.FileFunction,Legend,Bot*%
%TF.FilePolarity,Positive*%
%FSLAX46Y46*%
G04 Gerber Fmt 4.6, Leading zero omitted, Abs format (unit mm)*
G04 Created by KiCad (PCBNEW 7.0.6) date 2023-11-23 12:55:46*
%MOMM*%
%LPD*%
G01*
G04 APERTURE LIST*
%ADD10C,0.150000*%
%ADD11C,0.120000*%
G04 APERTURE END LIST*
D10*
X126000819Y-113510476D02*
X126715104Y-113510476D01*
X126715104Y-113510476D02*
X126857961Y-113462857D01*
X126857961Y-113462857D02*
X126953200Y-113367619D01*
X126953200Y-113367619D02*
X127000819Y-113224762D01*
X127000819Y-113224762D02*
X127000819Y-113129524D01*
X126000819Y-113891429D02*
X126000819Y-114510476D01*
X126000819Y-114510476D02*
X126381771Y-114177143D01*
X126381771Y-114177143D02*
X126381771Y-114320000D01*
X126381771Y-114320000D02*
X126429390Y-114415238D01*
X126429390Y-114415238D02*
X126477009Y-114462857D01*
X126477009Y-114462857D02*
X126572247Y-114510476D01*
X126572247Y-114510476D02*
X126810342Y-114510476D01*
X126810342Y-114510476D02*
X126905580Y-114462857D01*
X126905580Y-114462857D02*
X126953200Y-114415238D01*
X126953200Y-114415238D02*
X127000819Y-114320000D01*
X127000819Y-114320000D02*
X127000819Y-114034286D01*
X127000819Y-114034286D02*
X126953200Y-113939048D01*
X126953200Y-113939048D02*
X126905580Y-113891429D01*
X127000819Y-115462857D02*
X127000819Y-114891429D01*
X127000819Y-115177143D02*
X126000819Y-115177143D01*
X126000819Y-115177143D02*
X126143676Y-115081905D01*
X126143676Y-115081905D02*
X126238914Y-114986667D01*
X126238914Y-114986667D02*
X126286533Y-114891429D01*
D11*
%TO.C,J31*%
X140806000Y-111720000D02*
X140806000Y-116920000D01*
X127986000Y-111720000D02*
X140806000Y-111720000D01*
X127986000Y-111720000D02*
X127986000Y-114320000D01*
X130586000Y-114320000D02*
X130586000Y-116920000D01*
X127986000Y-114320000D02*
X130586000Y-114320000D01*
X127986000Y-115590000D02*
X127986000Y-116920000D01*
X130586000Y-116920000D02*
X140806000Y-116920000D01*
X127986000Y-116920000D02*
X129316000Y-116920000D01*
%TD*%
M02*
