%TF.GenerationSoftware,KiCad,Pcbnew,7.0.6*%
%TF.CreationDate,2023-11-23T12:55:43+01:00*%
%TF.ProjectId,xlrmale,786c726d-616c-4652-9e6b-696361645f70,1*%
%TF.SameCoordinates,Original*%
%TF.FileFunction,Drillmap*%
%TF.FilePolarity,Positive*%
%FSLAX45Y45*%
G04 Gerber Fmt 4.5, Leading zero omitted, Abs format (unit mm)*
G04 Created by KiCad (PCBNEW 7.0.6) date 2023-11-23 12:55:43*
%MOMM*%
%LPD*%
G01*
G04 APERTURE LIST*
%ADD10C,0.100000*%
%ADD11C,0.200000*%
G04 APERTURE END LIST*
D10*
X8509000Y-7620000D02*
X19685000Y-7620000D01*
X19685000Y-11938000D01*
X8509000Y-11938000D01*
X8509000Y-7620000D01*
D11*
X8764777Y-12254484D02*
X8764777Y-12054484D01*
X8764777Y-12054484D02*
X8812396Y-12054484D01*
X8812396Y-12054484D02*
X8840967Y-12064008D01*
X8840967Y-12064008D02*
X8860015Y-12083055D01*
X8860015Y-12083055D02*
X8869539Y-12102103D01*
X8869539Y-12102103D02*
X8879063Y-12140198D01*
X8879063Y-12140198D02*
X8879063Y-12168769D01*
X8879063Y-12168769D02*
X8869539Y-12206865D01*
X8869539Y-12206865D02*
X8860015Y-12225912D01*
X8860015Y-12225912D02*
X8840967Y-12244960D01*
X8840967Y-12244960D02*
X8812396Y-12254484D01*
X8812396Y-12254484D02*
X8764777Y-12254484D01*
X8964777Y-12254484D02*
X8964777Y-12121150D01*
X8964777Y-12159246D02*
X8974301Y-12140198D01*
X8974301Y-12140198D02*
X8983824Y-12130674D01*
X8983824Y-12130674D02*
X9002872Y-12121150D01*
X9002872Y-12121150D02*
X9021920Y-12121150D01*
X9088586Y-12254484D02*
X9088586Y-12121150D01*
X9088586Y-12054484D02*
X9079063Y-12064008D01*
X9079063Y-12064008D02*
X9088586Y-12073531D01*
X9088586Y-12073531D02*
X9098110Y-12064008D01*
X9098110Y-12064008D02*
X9088586Y-12054484D01*
X9088586Y-12054484D02*
X9088586Y-12073531D01*
X9212396Y-12254484D02*
X9193348Y-12244960D01*
X9193348Y-12244960D02*
X9183824Y-12225912D01*
X9183824Y-12225912D02*
X9183824Y-12054484D01*
X9317158Y-12254484D02*
X9298110Y-12244960D01*
X9298110Y-12244960D02*
X9288586Y-12225912D01*
X9288586Y-12225912D02*
X9288586Y-12054484D01*
X9545729Y-12254484D02*
X9545729Y-12054484D01*
X9545729Y-12054484D02*
X9612396Y-12197341D01*
X9612396Y-12197341D02*
X9679063Y-12054484D01*
X9679063Y-12054484D02*
X9679063Y-12254484D01*
X9860015Y-12254484D02*
X9860015Y-12149722D01*
X9860015Y-12149722D02*
X9850491Y-12130674D01*
X9850491Y-12130674D02*
X9831444Y-12121150D01*
X9831444Y-12121150D02*
X9793348Y-12121150D01*
X9793348Y-12121150D02*
X9774301Y-12130674D01*
X9860015Y-12244960D02*
X9840967Y-12254484D01*
X9840967Y-12254484D02*
X9793348Y-12254484D01*
X9793348Y-12254484D02*
X9774301Y-12244960D01*
X9774301Y-12244960D02*
X9764777Y-12225912D01*
X9764777Y-12225912D02*
X9764777Y-12206865D01*
X9764777Y-12206865D02*
X9774301Y-12187817D01*
X9774301Y-12187817D02*
X9793348Y-12178293D01*
X9793348Y-12178293D02*
X9840967Y-12178293D01*
X9840967Y-12178293D02*
X9860015Y-12168769D01*
X9955253Y-12121150D02*
X9955253Y-12321150D01*
X9955253Y-12130674D02*
X9974301Y-12121150D01*
X9974301Y-12121150D02*
X10012396Y-12121150D01*
X10012396Y-12121150D02*
X10031444Y-12130674D01*
X10031444Y-12130674D02*
X10040967Y-12140198D01*
X10040967Y-12140198D02*
X10050491Y-12159246D01*
X10050491Y-12159246D02*
X10050491Y-12216388D01*
X10050491Y-12216388D02*
X10040967Y-12235436D01*
X10040967Y-12235436D02*
X10031444Y-12244960D01*
X10031444Y-12244960D02*
X10012396Y-12254484D01*
X10012396Y-12254484D02*
X9974301Y-12254484D01*
X9974301Y-12254484D02*
X9955253Y-12244960D01*
X10136205Y-12235436D02*
X10145729Y-12244960D01*
X10145729Y-12244960D02*
X10136205Y-12254484D01*
X10136205Y-12254484D02*
X10126682Y-12244960D01*
X10126682Y-12244960D02*
X10136205Y-12235436D01*
X10136205Y-12235436D02*
X10136205Y-12254484D01*
X10136205Y-12130674D02*
X10145729Y-12140198D01*
X10145729Y-12140198D02*
X10136205Y-12149722D01*
X10136205Y-12149722D02*
X10126682Y-12140198D01*
X10126682Y-12140198D02*
X10136205Y-12130674D01*
X10136205Y-12130674D02*
X10136205Y-12149722D01*
M02*
