%TF.GenerationSoftware,KiCad,Pcbnew,7.0.6*%
%TF.CreationDate,2023-11-23T12:55:43+01:00*%
%TF.ProjectId,xlrmale,786c726d-616c-4652-9e6b-696361645f70,1*%
%TF.SameCoordinates,Original*%
%TF.FileFunction,Drillmap*%
%TF.FilePolarity,Positive*%
%FSLAX45Y45*%
G04 Gerber Fmt 4.5, Leading zero omitted, Abs format (unit mm)*
G04 Created by KiCad (PCBNEW 7.0.6) date 2023-11-23 12:55:43*
%MOMM*%
%LPD*%
G01*
G04 APERTURE LIST*
%ADD10C,0.100000*%
%ADD11C,0.200000*%
%ADD12C,0.120000*%
%ADD13C,0.155000*%
%ADD14C,0.160000*%
G04 APERTURE END LIST*
D10*
X8509000Y-7620000D02*
X19685000Y-7620000D01*
X19685000Y-11938000D01*
X8509000Y-11938000D01*
X8509000Y-7620000D01*
D11*
D10*
X12881600Y-11255000D02*
X12981600Y-11355000D01*
X12981600Y-11255000D02*
X12881600Y-11355000D01*
X12881600Y-11509000D02*
X12981600Y-11609000D01*
X12981600Y-11509000D02*
X12881600Y-11609000D01*
X13135600Y-11255000D02*
X13235600Y-11355000D01*
X13235600Y-11255000D02*
X13135600Y-11355000D01*
X13135600Y-11509000D02*
X13235600Y-11609000D01*
X13235600Y-11509000D02*
X13135600Y-11609000D01*
X13389600Y-11255000D02*
X13489600Y-11355000D01*
X13489600Y-11255000D02*
X13389600Y-11355000D01*
X13389600Y-11509000D02*
X13489600Y-11609000D01*
X13489600Y-11509000D02*
X13389600Y-11609000D01*
X13643600Y-11255000D02*
X13743600Y-11355000D01*
X13743600Y-11255000D02*
X13643600Y-11355000D01*
X13643600Y-11509000D02*
X13743600Y-11609000D01*
X13743600Y-11509000D02*
X13643600Y-11609000D01*
X13897600Y-11255000D02*
X13997600Y-11355000D01*
X13997600Y-11255000D02*
X13897600Y-11355000D01*
X13897600Y-11509000D02*
X13997600Y-11609000D01*
X13997600Y-11509000D02*
X13897600Y-11609000D01*
D12*
X10152000Y-10020300D02*
G75*
G03*
X10152000Y-10020300I-60000J0D01*
G01*
X12887000Y-10020300D02*
G75*
G03*
X12887000Y-10020300I-60000J0D01*
G01*
X15622000Y-10020300D02*
G75*
G03*
X15622000Y-10020300I-60000J0D01*
G01*
X18357000Y-10020300D02*
G75*
G03*
X18357000Y-10020300I-60000J0D01*
G01*
D13*
X14605000Y-11352500D02*
X14605000Y-11507500D01*
X14527500Y-11430000D02*
X14682500Y-11430000D01*
X15113000Y-11352500D02*
X15113000Y-11507500D01*
X15035500Y-11430000D02*
X15190500Y-11430000D01*
D14*
X9767569Y-9251369D02*
X9767569Y-9138231D01*
X9654431Y-9138231D01*
X9654431Y-9251369D01*
X9767569Y-9251369D01*
X10148569Y-9632369D02*
X10148569Y-9519231D01*
X10035431Y-9519231D01*
X10035431Y-9632369D01*
X10148569Y-9632369D01*
X10529569Y-9251369D02*
X10529569Y-9138231D01*
X10416431Y-9138231D01*
X10416431Y-9251369D01*
X10529569Y-9251369D01*
X12502569Y-9251369D02*
X12502569Y-9138231D01*
X12389431Y-9138231D01*
X12389431Y-9251369D01*
X12502569Y-9251369D01*
X12883569Y-9632369D02*
X12883569Y-9519231D01*
X12770431Y-9519231D01*
X12770431Y-9632369D01*
X12883569Y-9632369D01*
X13264569Y-9251369D02*
X13264569Y-9138231D01*
X13151431Y-9138231D01*
X13151431Y-9251369D01*
X13264569Y-9251369D01*
X15237569Y-9251369D02*
X15237569Y-9138231D01*
X15124431Y-9138231D01*
X15124431Y-9251369D01*
X15237569Y-9251369D01*
X15618569Y-9632369D02*
X15618569Y-9519231D01*
X15505431Y-9519231D01*
X15505431Y-9632369D01*
X15618569Y-9632369D01*
X15999569Y-9251369D02*
X15999569Y-9138231D01*
X15886431Y-9138231D01*
X15886431Y-9251369D01*
X15999569Y-9251369D01*
X17972569Y-9251369D02*
X17972569Y-9138231D01*
X17859431Y-9138231D01*
X17859431Y-9251369D01*
X17972569Y-9251369D01*
X18353569Y-9632369D02*
X18353569Y-9519231D01*
X18240431Y-9519231D01*
X18240431Y-9632369D01*
X18353569Y-9632369D01*
X18734569Y-9251369D02*
X18734569Y-9138231D01*
X18621431Y-9138231D01*
X18621431Y-9251369D01*
X18734569Y-9251369D01*
D11*
X8764777Y-12254484D02*
X8764777Y-12054484D01*
X8764777Y-12054484D02*
X8812396Y-12054484D01*
X8812396Y-12054484D02*
X8840967Y-12064008D01*
X8840967Y-12064008D02*
X8860015Y-12083055D01*
X8860015Y-12083055D02*
X8869539Y-12102103D01*
X8869539Y-12102103D02*
X8879063Y-12140198D01*
X8879063Y-12140198D02*
X8879063Y-12168769D01*
X8879063Y-12168769D02*
X8869539Y-12206865D01*
X8869539Y-12206865D02*
X8860015Y-12225912D01*
X8860015Y-12225912D02*
X8840967Y-12244960D01*
X8840967Y-12244960D02*
X8812396Y-12254484D01*
X8812396Y-12254484D02*
X8764777Y-12254484D01*
X8964777Y-12254484D02*
X8964777Y-12121150D01*
X8964777Y-12159246D02*
X8974301Y-12140198D01*
X8974301Y-12140198D02*
X8983824Y-12130674D01*
X8983824Y-12130674D02*
X9002872Y-12121150D01*
X9002872Y-12121150D02*
X9021920Y-12121150D01*
X9088586Y-12254484D02*
X9088586Y-12121150D01*
X9088586Y-12054484D02*
X9079063Y-12064008D01*
X9079063Y-12064008D02*
X9088586Y-12073531D01*
X9088586Y-12073531D02*
X9098110Y-12064008D01*
X9098110Y-12064008D02*
X9088586Y-12054484D01*
X9088586Y-12054484D02*
X9088586Y-12073531D01*
X9212396Y-12254484D02*
X9193348Y-12244960D01*
X9193348Y-12244960D02*
X9183824Y-12225912D01*
X9183824Y-12225912D02*
X9183824Y-12054484D01*
X9317158Y-12254484D02*
X9298110Y-12244960D01*
X9298110Y-12244960D02*
X9288586Y-12225912D01*
X9288586Y-12225912D02*
X9288586Y-12054484D01*
X9545729Y-12254484D02*
X9545729Y-12054484D01*
X9545729Y-12054484D02*
X9612396Y-12197341D01*
X9612396Y-12197341D02*
X9679063Y-12054484D01*
X9679063Y-12054484D02*
X9679063Y-12254484D01*
X9860015Y-12254484D02*
X9860015Y-12149722D01*
X9860015Y-12149722D02*
X9850491Y-12130674D01*
X9850491Y-12130674D02*
X9831444Y-12121150D01*
X9831444Y-12121150D02*
X9793348Y-12121150D01*
X9793348Y-12121150D02*
X9774301Y-12130674D01*
X9860015Y-12244960D02*
X9840967Y-12254484D01*
X9840967Y-12254484D02*
X9793348Y-12254484D01*
X9793348Y-12254484D02*
X9774301Y-12244960D01*
X9774301Y-12244960D02*
X9764777Y-12225912D01*
X9764777Y-12225912D02*
X9764777Y-12206865D01*
X9764777Y-12206865D02*
X9774301Y-12187817D01*
X9774301Y-12187817D02*
X9793348Y-12178293D01*
X9793348Y-12178293D02*
X9840967Y-12178293D01*
X9840967Y-12178293D02*
X9860015Y-12168769D01*
X9955253Y-12121150D02*
X9955253Y-12321150D01*
X9955253Y-12130674D02*
X9974301Y-12121150D01*
X9974301Y-12121150D02*
X10012396Y-12121150D01*
X10012396Y-12121150D02*
X10031444Y-12130674D01*
X10031444Y-12130674D02*
X10040967Y-12140198D01*
X10040967Y-12140198D02*
X10050491Y-12159246D01*
X10050491Y-12159246D02*
X10050491Y-12216388D01*
X10050491Y-12216388D02*
X10040967Y-12235436D01*
X10040967Y-12235436D02*
X10031444Y-12244960D01*
X10031444Y-12244960D02*
X10012396Y-12254484D01*
X10012396Y-12254484D02*
X9974301Y-12254484D01*
X9974301Y-12254484D02*
X9955253Y-12244960D01*
X10136205Y-12235436D02*
X10145729Y-12244960D01*
X10145729Y-12244960D02*
X10136205Y-12254484D01*
X10136205Y-12254484D02*
X10126682Y-12244960D01*
X10126682Y-12244960D02*
X10136205Y-12235436D01*
X10136205Y-12235436D02*
X10136205Y-12254484D01*
X10136205Y-12130674D02*
X10145729Y-12140198D01*
X10145729Y-12140198D02*
X10136205Y-12149722D01*
X10136205Y-12149722D02*
X10126682Y-12140198D01*
X10126682Y-12140198D02*
X10136205Y-12130674D01*
X10136205Y-12130674D02*
X10136205Y-12149722D01*
D10*
X8404000Y-12533000D02*
X8504000Y-12633000D01*
X8504000Y-12533000D02*
X8404000Y-12633000D01*
D11*
X8869539Y-12674484D02*
X8755253Y-12674484D01*
X8812396Y-12674484D02*
X8812396Y-12474484D01*
X8812396Y-12474484D02*
X8793348Y-12503055D01*
X8793348Y-12503055D02*
X8774301Y-12522103D01*
X8774301Y-12522103D02*
X8755253Y-12531627D01*
X8955253Y-12655436D02*
X8964777Y-12664960D01*
X8964777Y-12664960D02*
X8955253Y-12674484D01*
X8955253Y-12674484D02*
X8945729Y-12664960D01*
X8945729Y-12664960D02*
X8955253Y-12655436D01*
X8955253Y-12655436D02*
X8955253Y-12674484D01*
X9088586Y-12474484D02*
X9107634Y-12474484D01*
X9107634Y-12474484D02*
X9126682Y-12484008D01*
X9126682Y-12484008D02*
X9136205Y-12493531D01*
X9136205Y-12493531D02*
X9145729Y-12512579D01*
X9145729Y-12512579D02*
X9155253Y-12550674D01*
X9155253Y-12550674D02*
X9155253Y-12598293D01*
X9155253Y-12598293D02*
X9145729Y-12636388D01*
X9145729Y-12636388D02*
X9136205Y-12655436D01*
X9136205Y-12655436D02*
X9126682Y-12664960D01*
X9126682Y-12664960D02*
X9107634Y-12674484D01*
X9107634Y-12674484D02*
X9088586Y-12674484D01*
X9088586Y-12674484D02*
X9069539Y-12664960D01*
X9069539Y-12664960D02*
X9060015Y-12655436D01*
X9060015Y-12655436D02*
X9050491Y-12636388D01*
X9050491Y-12636388D02*
X9040967Y-12598293D01*
X9040967Y-12598293D02*
X9040967Y-12550674D01*
X9040967Y-12550674D02*
X9050491Y-12512579D01*
X9050491Y-12512579D02*
X9060015Y-12493531D01*
X9060015Y-12493531D02*
X9069539Y-12484008D01*
X9069539Y-12484008D02*
X9088586Y-12474484D01*
X9279063Y-12474484D02*
X9298110Y-12474484D01*
X9298110Y-12474484D02*
X9317158Y-12484008D01*
X9317158Y-12484008D02*
X9326682Y-12493531D01*
X9326682Y-12493531D02*
X9336205Y-12512579D01*
X9336205Y-12512579D02*
X9345729Y-12550674D01*
X9345729Y-12550674D02*
X9345729Y-12598293D01*
X9345729Y-12598293D02*
X9336205Y-12636388D01*
X9336205Y-12636388D02*
X9326682Y-12655436D01*
X9326682Y-12655436D02*
X9317158Y-12664960D01*
X9317158Y-12664960D02*
X9298110Y-12674484D01*
X9298110Y-12674484D02*
X9279063Y-12674484D01*
X9279063Y-12674484D02*
X9260015Y-12664960D01*
X9260015Y-12664960D02*
X9250491Y-12655436D01*
X9250491Y-12655436D02*
X9240967Y-12636388D01*
X9240967Y-12636388D02*
X9231444Y-12598293D01*
X9231444Y-12598293D02*
X9231444Y-12550674D01*
X9231444Y-12550674D02*
X9240967Y-12512579D01*
X9240967Y-12512579D02*
X9250491Y-12493531D01*
X9250491Y-12493531D02*
X9260015Y-12484008D01*
X9260015Y-12484008D02*
X9279063Y-12474484D01*
X9469539Y-12474484D02*
X9488586Y-12474484D01*
X9488586Y-12474484D02*
X9507634Y-12484008D01*
X9507634Y-12484008D02*
X9517158Y-12493531D01*
X9517158Y-12493531D02*
X9526682Y-12512579D01*
X9526682Y-12512579D02*
X9536205Y-12550674D01*
X9536205Y-12550674D02*
X9536205Y-12598293D01*
X9536205Y-12598293D02*
X9526682Y-12636388D01*
X9526682Y-12636388D02*
X9517158Y-12655436D01*
X9517158Y-12655436D02*
X9507634Y-12664960D01*
X9507634Y-12664960D02*
X9488586Y-12674484D01*
X9488586Y-12674484D02*
X9469539Y-12674484D01*
X9469539Y-12674484D02*
X9450491Y-12664960D01*
X9450491Y-12664960D02*
X9440967Y-12655436D01*
X9440967Y-12655436D02*
X9431444Y-12636388D01*
X9431444Y-12636388D02*
X9421920Y-12598293D01*
X9421920Y-12598293D02*
X9421920Y-12550674D01*
X9421920Y-12550674D02*
X9431444Y-12512579D01*
X9431444Y-12512579D02*
X9440967Y-12493531D01*
X9440967Y-12493531D02*
X9450491Y-12484008D01*
X9450491Y-12484008D02*
X9469539Y-12474484D01*
X9621920Y-12674484D02*
X9621920Y-12541150D01*
X9621920Y-12560198D02*
X9631444Y-12550674D01*
X9631444Y-12550674D02*
X9650491Y-12541150D01*
X9650491Y-12541150D02*
X9679063Y-12541150D01*
X9679063Y-12541150D02*
X9698110Y-12550674D01*
X9698110Y-12550674D02*
X9707634Y-12569722D01*
X9707634Y-12569722D02*
X9707634Y-12674484D01*
X9707634Y-12569722D02*
X9717158Y-12550674D01*
X9717158Y-12550674D02*
X9736205Y-12541150D01*
X9736205Y-12541150D02*
X9764777Y-12541150D01*
X9764777Y-12541150D02*
X9783825Y-12550674D01*
X9783825Y-12550674D02*
X9793348Y-12569722D01*
X9793348Y-12569722D02*
X9793348Y-12674484D01*
X9888586Y-12674484D02*
X9888586Y-12541150D01*
X9888586Y-12560198D02*
X9898110Y-12550674D01*
X9898110Y-12550674D02*
X9917158Y-12541150D01*
X9917158Y-12541150D02*
X9945729Y-12541150D01*
X9945729Y-12541150D02*
X9964777Y-12550674D01*
X9964777Y-12550674D02*
X9974301Y-12569722D01*
X9974301Y-12569722D02*
X9974301Y-12674484D01*
X9974301Y-12569722D02*
X9983825Y-12550674D01*
X9983825Y-12550674D02*
X10002872Y-12541150D01*
X10002872Y-12541150D02*
X10031444Y-12541150D01*
X10031444Y-12541150D02*
X10050491Y-12550674D01*
X10050491Y-12550674D02*
X10060015Y-12569722D01*
X10060015Y-12569722D02*
X10060015Y-12674484D01*
X10450491Y-12464960D02*
X10279063Y-12722103D01*
X10707634Y-12474484D02*
X10726682Y-12474484D01*
X10726682Y-12474484D02*
X10745729Y-12484008D01*
X10745729Y-12484008D02*
X10755253Y-12493531D01*
X10755253Y-12493531D02*
X10764777Y-12512579D01*
X10764777Y-12512579D02*
X10774301Y-12550674D01*
X10774301Y-12550674D02*
X10774301Y-12598293D01*
X10774301Y-12598293D02*
X10764777Y-12636388D01*
X10764777Y-12636388D02*
X10755253Y-12655436D01*
X10755253Y-12655436D02*
X10745729Y-12664960D01*
X10745729Y-12664960D02*
X10726682Y-12674484D01*
X10726682Y-12674484D02*
X10707634Y-12674484D01*
X10707634Y-12674484D02*
X10688587Y-12664960D01*
X10688587Y-12664960D02*
X10679063Y-12655436D01*
X10679063Y-12655436D02*
X10669539Y-12636388D01*
X10669539Y-12636388D02*
X10660015Y-12598293D01*
X10660015Y-12598293D02*
X10660015Y-12550674D01*
X10660015Y-12550674D02*
X10669539Y-12512579D01*
X10669539Y-12512579D02*
X10679063Y-12493531D01*
X10679063Y-12493531D02*
X10688587Y-12484008D01*
X10688587Y-12484008D02*
X10707634Y-12474484D01*
X10860015Y-12655436D02*
X10869539Y-12664960D01*
X10869539Y-12664960D02*
X10860015Y-12674484D01*
X10860015Y-12674484D02*
X10850491Y-12664960D01*
X10850491Y-12664960D02*
X10860015Y-12655436D01*
X10860015Y-12655436D02*
X10860015Y-12674484D01*
X10993348Y-12474484D02*
X11012396Y-12474484D01*
X11012396Y-12474484D02*
X11031444Y-12484008D01*
X11031444Y-12484008D02*
X11040968Y-12493531D01*
X11040968Y-12493531D02*
X11050491Y-12512579D01*
X11050491Y-12512579D02*
X11060015Y-12550674D01*
X11060015Y-12550674D02*
X11060015Y-12598293D01*
X11060015Y-12598293D02*
X11050491Y-12636388D01*
X11050491Y-12636388D02*
X11040968Y-12655436D01*
X11040968Y-12655436D02*
X11031444Y-12664960D01*
X11031444Y-12664960D02*
X11012396Y-12674484D01*
X11012396Y-12674484D02*
X10993348Y-12674484D01*
X10993348Y-12674484D02*
X10974301Y-12664960D01*
X10974301Y-12664960D02*
X10964777Y-12655436D01*
X10964777Y-12655436D02*
X10955253Y-12636388D01*
X10955253Y-12636388D02*
X10945729Y-12598293D01*
X10945729Y-12598293D02*
X10945729Y-12550674D01*
X10945729Y-12550674D02*
X10955253Y-12512579D01*
X10955253Y-12512579D02*
X10964777Y-12493531D01*
X10964777Y-12493531D02*
X10974301Y-12484008D01*
X10974301Y-12484008D02*
X10993348Y-12474484D01*
X11126682Y-12474484D02*
X11250491Y-12474484D01*
X11250491Y-12474484D02*
X11183825Y-12550674D01*
X11183825Y-12550674D02*
X11212396Y-12550674D01*
X11212396Y-12550674D02*
X11231444Y-12560198D01*
X11231444Y-12560198D02*
X11240967Y-12569722D01*
X11240967Y-12569722D02*
X11250491Y-12588769D01*
X11250491Y-12588769D02*
X11250491Y-12636388D01*
X11250491Y-12636388D02*
X11240967Y-12655436D01*
X11240967Y-12655436D02*
X11231444Y-12664960D01*
X11231444Y-12664960D02*
X11212396Y-12674484D01*
X11212396Y-12674484D02*
X11155253Y-12674484D01*
X11155253Y-12674484D02*
X11136206Y-12664960D01*
X11136206Y-12664960D02*
X11126682Y-12655436D01*
X11345729Y-12674484D02*
X11383825Y-12674484D01*
X11383825Y-12674484D02*
X11402872Y-12664960D01*
X11402872Y-12664960D02*
X11412396Y-12655436D01*
X11412396Y-12655436D02*
X11431444Y-12626865D01*
X11431444Y-12626865D02*
X11440967Y-12588769D01*
X11440967Y-12588769D02*
X11440967Y-12512579D01*
X11440967Y-12512579D02*
X11431444Y-12493531D01*
X11431444Y-12493531D02*
X11421920Y-12484008D01*
X11421920Y-12484008D02*
X11402872Y-12474484D01*
X11402872Y-12474484D02*
X11364777Y-12474484D01*
X11364777Y-12474484D02*
X11345729Y-12484008D01*
X11345729Y-12484008D02*
X11336206Y-12493531D01*
X11336206Y-12493531D02*
X11326682Y-12512579D01*
X11326682Y-12512579D02*
X11326682Y-12560198D01*
X11326682Y-12560198D02*
X11336206Y-12579246D01*
X11336206Y-12579246D02*
X11345729Y-12588769D01*
X11345729Y-12588769D02*
X11364777Y-12598293D01*
X11364777Y-12598293D02*
X11402872Y-12598293D01*
X11402872Y-12598293D02*
X11421920Y-12588769D01*
X11421920Y-12588769D02*
X11431444Y-12579246D01*
X11431444Y-12579246D02*
X11440967Y-12560198D01*
X11612396Y-12541150D02*
X11612396Y-12674484D01*
X11564777Y-12464960D02*
X11517158Y-12607817D01*
X11517158Y-12607817D02*
X11640967Y-12607817D01*
X11707634Y-12474484D02*
X11707634Y-12512579D01*
X11783825Y-12474484D02*
X11783825Y-12512579D01*
X12079063Y-12750674D02*
X12069539Y-12741150D01*
X12069539Y-12741150D02*
X12050491Y-12712579D01*
X12050491Y-12712579D02*
X12040968Y-12693531D01*
X12040968Y-12693531D02*
X12031444Y-12664960D01*
X12031444Y-12664960D02*
X12021920Y-12617341D01*
X12021920Y-12617341D02*
X12021920Y-12579246D01*
X12021920Y-12579246D02*
X12031444Y-12531627D01*
X12031444Y-12531627D02*
X12040968Y-12503055D01*
X12040968Y-12503055D02*
X12050491Y-12484008D01*
X12050491Y-12484008D02*
X12069539Y-12455436D01*
X12069539Y-12455436D02*
X12079063Y-12445912D01*
X12260015Y-12674484D02*
X12145729Y-12674484D01*
X12202872Y-12674484D02*
X12202872Y-12474484D01*
X12202872Y-12474484D02*
X12183825Y-12503055D01*
X12183825Y-12503055D02*
X12164777Y-12522103D01*
X12164777Y-12522103D02*
X12145729Y-12531627D01*
X12383825Y-12474484D02*
X12402872Y-12474484D01*
X12402872Y-12474484D02*
X12421920Y-12484008D01*
X12421920Y-12484008D02*
X12431444Y-12493531D01*
X12431444Y-12493531D02*
X12440968Y-12512579D01*
X12440968Y-12512579D02*
X12450491Y-12550674D01*
X12450491Y-12550674D02*
X12450491Y-12598293D01*
X12450491Y-12598293D02*
X12440968Y-12636388D01*
X12440968Y-12636388D02*
X12431444Y-12655436D01*
X12431444Y-12655436D02*
X12421920Y-12664960D01*
X12421920Y-12664960D02*
X12402872Y-12674484D01*
X12402872Y-12674484D02*
X12383825Y-12674484D01*
X12383825Y-12674484D02*
X12364777Y-12664960D01*
X12364777Y-12664960D02*
X12355253Y-12655436D01*
X12355253Y-12655436D02*
X12345729Y-12636388D01*
X12345729Y-12636388D02*
X12336206Y-12598293D01*
X12336206Y-12598293D02*
X12336206Y-12550674D01*
X12336206Y-12550674D02*
X12345729Y-12512579D01*
X12345729Y-12512579D02*
X12355253Y-12493531D01*
X12355253Y-12493531D02*
X12364777Y-12484008D01*
X12364777Y-12484008D02*
X12383825Y-12474484D01*
X12688587Y-12674484D02*
X12688587Y-12474484D01*
X12774301Y-12674484D02*
X12774301Y-12569722D01*
X12774301Y-12569722D02*
X12764777Y-12550674D01*
X12764777Y-12550674D02*
X12745730Y-12541150D01*
X12745730Y-12541150D02*
X12717158Y-12541150D01*
X12717158Y-12541150D02*
X12698110Y-12550674D01*
X12698110Y-12550674D02*
X12688587Y-12560198D01*
X12898110Y-12674484D02*
X12879063Y-12664960D01*
X12879063Y-12664960D02*
X12869539Y-12655436D01*
X12869539Y-12655436D02*
X12860015Y-12636388D01*
X12860015Y-12636388D02*
X12860015Y-12579246D01*
X12860015Y-12579246D02*
X12869539Y-12560198D01*
X12869539Y-12560198D02*
X12879063Y-12550674D01*
X12879063Y-12550674D02*
X12898110Y-12541150D01*
X12898110Y-12541150D02*
X12926682Y-12541150D01*
X12926682Y-12541150D02*
X12945730Y-12550674D01*
X12945730Y-12550674D02*
X12955253Y-12560198D01*
X12955253Y-12560198D02*
X12964777Y-12579246D01*
X12964777Y-12579246D02*
X12964777Y-12636388D01*
X12964777Y-12636388D02*
X12955253Y-12655436D01*
X12955253Y-12655436D02*
X12945730Y-12664960D01*
X12945730Y-12664960D02*
X12926682Y-12674484D01*
X12926682Y-12674484D02*
X12898110Y-12674484D01*
X13079063Y-12674484D02*
X13060015Y-12664960D01*
X13060015Y-12664960D02*
X13050491Y-12645912D01*
X13050491Y-12645912D02*
X13050491Y-12474484D01*
X13231444Y-12664960D02*
X13212396Y-12674484D01*
X13212396Y-12674484D02*
X13174301Y-12674484D01*
X13174301Y-12674484D02*
X13155253Y-12664960D01*
X13155253Y-12664960D02*
X13145730Y-12645912D01*
X13145730Y-12645912D02*
X13145730Y-12569722D01*
X13145730Y-12569722D02*
X13155253Y-12550674D01*
X13155253Y-12550674D02*
X13174301Y-12541150D01*
X13174301Y-12541150D02*
X13212396Y-12541150D01*
X13212396Y-12541150D02*
X13231444Y-12550674D01*
X13231444Y-12550674D02*
X13240968Y-12569722D01*
X13240968Y-12569722D02*
X13240968Y-12588769D01*
X13240968Y-12588769D02*
X13145730Y-12607817D01*
X13317158Y-12664960D02*
X13336206Y-12674484D01*
X13336206Y-12674484D02*
X13374301Y-12674484D01*
X13374301Y-12674484D02*
X13393349Y-12664960D01*
X13393349Y-12664960D02*
X13402872Y-12645912D01*
X13402872Y-12645912D02*
X13402872Y-12636388D01*
X13402872Y-12636388D02*
X13393349Y-12617341D01*
X13393349Y-12617341D02*
X13374301Y-12607817D01*
X13374301Y-12607817D02*
X13345730Y-12607817D01*
X13345730Y-12607817D02*
X13326682Y-12598293D01*
X13326682Y-12598293D02*
X13317158Y-12579246D01*
X13317158Y-12579246D02*
X13317158Y-12569722D01*
X13317158Y-12569722D02*
X13326682Y-12550674D01*
X13326682Y-12550674D02*
X13345730Y-12541150D01*
X13345730Y-12541150D02*
X13374301Y-12541150D01*
X13374301Y-12541150D02*
X13393349Y-12550674D01*
X13469539Y-12750674D02*
X13479063Y-12741150D01*
X13479063Y-12741150D02*
X13498111Y-12712579D01*
X13498111Y-12712579D02*
X13507634Y-12693531D01*
X13507634Y-12693531D02*
X13517158Y-12664960D01*
X13517158Y-12664960D02*
X13526682Y-12617341D01*
X13526682Y-12617341D02*
X13526682Y-12579246D01*
X13526682Y-12579246D02*
X13517158Y-12531627D01*
X13517158Y-12531627D02*
X13507634Y-12503055D01*
X13507634Y-12503055D02*
X13498111Y-12484008D01*
X13498111Y-12484008D02*
X13479063Y-12455436D01*
X13479063Y-12455436D02*
X13469539Y-12445912D01*
D12*
X8504000Y-12847000D02*
G75*
G03*
X8504000Y-12847000I-60000J0D01*
G01*
D11*
X8869539Y-12938484D02*
X8755253Y-12938484D01*
X8812396Y-12938484D02*
X8812396Y-12738484D01*
X8812396Y-12738484D02*
X8793348Y-12767055D01*
X8793348Y-12767055D02*
X8774301Y-12786103D01*
X8774301Y-12786103D02*
X8755253Y-12795627D01*
X8955253Y-12919436D02*
X8964777Y-12928960D01*
X8964777Y-12928960D02*
X8955253Y-12938484D01*
X8955253Y-12938484D02*
X8945729Y-12928960D01*
X8945729Y-12928960D02*
X8955253Y-12919436D01*
X8955253Y-12919436D02*
X8955253Y-12938484D01*
X9040967Y-12757531D02*
X9050491Y-12748008D01*
X9050491Y-12748008D02*
X9069539Y-12738484D01*
X9069539Y-12738484D02*
X9117158Y-12738484D01*
X9117158Y-12738484D02*
X9136205Y-12748008D01*
X9136205Y-12748008D02*
X9145729Y-12757531D01*
X9145729Y-12757531D02*
X9155253Y-12776579D01*
X9155253Y-12776579D02*
X9155253Y-12795627D01*
X9155253Y-12795627D02*
X9145729Y-12824198D01*
X9145729Y-12824198D02*
X9031444Y-12938484D01*
X9031444Y-12938484D02*
X9155253Y-12938484D01*
X9279063Y-12738484D02*
X9298110Y-12738484D01*
X9298110Y-12738484D02*
X9317158Y-12748008D01*
X9317158Y-12748008D02*
X9326682Y-12757531D01*
X9326682Y-12757531D02*
X9336205Y-12776579D01*
X9336205Y-12776579D02*
X9345729Y-12814674D01*
X9345729Y-12814674D02*
X9345729Y-12862293D01*
X9345729Y-12862293D02*
X9336205Y-12900388D01*
X9336205Y-12900388D02*
X9326682Y-12919436D01*
X9326682Y-12919436D02*
X9317158Y-12928960D01*
X9317158Y-12928960D02*
X9298110Y-12938484D01*
X9298110Y-12938484D02*
X9279063Y-12938484D01*
X9279063Y-12938484D02*
X9260015Y-12928960D01*
X9260015Y-12928960D02*
X9250491Y-12919436D01*
X9250491Y-12919436D02*
X9240967Y-12900388D01*
X9240967Y-12900388D02*
X9231444Y-12862293D01*
X9231444Y-12862293D02*
X9231444Y-12814674D01*
X9231444Y-12814674D02*
X9240967Y-12776579D01*
X9240967Y-12776579D02*
X9250491Y-12757531D01*
X9250491Y-12757531D02*
X9260015Y-12748008D01*
X9260015Y-12748008D02*
X9279063Y-12738484D01*
X9469539Y-12738484D02*
X9488586Y-12738484D01*
X9488586Y-12738484D02*
X9507634Y-12748008D01*
X9507634Y-12748008D02*
X9517158Y-12757531D01*
X9517158Y-12757531D02*
X9526682Y-12776579D01*
X9526682Y-12776579D02*
X9536205Y-12814674D01*
X9536205Y-12814674D02*
X9536205Y-12862293D01*
X9536205Y-12862293D02*
X9526682Y-12900388D01*
X9526682Y-12900388D02*
X9517158Y-12919436D01*
X9517158Y-12919436D02*
X9507634Y-12928960D01*
X9507634Y-12928960D02*
X9488586Y-12938484D01*
X9488586Y-12938484D02*
X9469539Y-12938484D01*
X9469539Y-12938484D02*
X9450491Y-12928960D01*
X9450491Y-12928960D02*
X9440967Y-12919436D01*
X9440967Y-12919436D02*
X9431444Y-12900388D01*
X9431444Y-12900388D02*
X9421920Y-12862293D01*
X9421920Y-12862293D02*
X9421920Y-12814674D01*
X9421920Y-12814674D02*
X9431444Y-12776579D01*
X9431444Y-12776579D02*
X9440967Y-12757531D01*
X9440967Y-12757531D02*
X9450491Y-12748008D01*
X9450491Y-12748008D02*
X9469539Y-12738484D01*
X9621920Y-12938484D02*
X9621920Y-12805150D01*
X9621920Y-12824198D02*
X9631444Y-12814674D01*
X9631444Y-12814674D02*
X9650491Y-12805150D01*
X9650491Y-12805150D02*
X9679063Y-12805150D01*
X9679063Y-12805150D02*
X9698110Y-12814674D01*
X9698110Y-12814674D02*
X9707634Y-12833722D01*
X9707634Y-12833722D02*
X9707634Y-12938484D01*
X9707634Y-12833722D02*
X9717158Y-12814674D01*
X9717158Y-12814674D02*
X9736205Y-12805150D01*
X9736205Y-12805150D02*
X9764777Y-12805150D01*
X9764777Y-12805150D02*
X9783825Y-12814674D01*
X9783825Y-12814674D02*
X9793348Y-12833722D01*
X9793348Y-12833722D02*
X9793348Y-12938484D01*
X9888586Y-12938484D02*
X9888586Y-12805150D01*
X9888586Y-12824198D02*
X9898110Y-12814674D01*
X9898110Y-12814674D02*
X9917158Y-12805150D01*
X9917158Y-12805150D02*
X9945729Y-12805150D01*
X9945729Y-12805150D02*
X9964777Y-12814674D01*
X9964777Y-12814674D02*
X9974301Y-12833722D01*
X9974301Y-12833722D02*
X9974301Y-12938484D01*
X9974301Y-12833722D02*
X9983825Y-12814674D01*
X9983825Y-12814674D02*
X10002872Y-12805150D01*
X10002872Y-12805150D02*
X10031444Y-12805150D01*
X10031444Y-12805150D02*
X10050491Y-12814674D01*
X10050491Y-12814674D02*
X10060015Y-12833722D01*
X10060015Y-12833722D02*
X10060015Y-12938484D01*
X10450491Y-12728960D02*
X10279063Y-12986103D01*
X10707634Y-12738484D02*
X10726682Y-12738484D01*
X10726682Y-12738484D02*
X10745729Y-12748008D01*
X10745729Y-12748008D02*
X10755253Y-12757531D01*
X10755253Y-12757531D02*
X10764777Y-12776579D01*
X10764777Y-12776579D02*
X10774301Y-12814674D01*
X10774301Y-12814674D02*
X10774301Y-12862293D01*
X10774301Y-12862293D02*
X10764777Y-12900388D01*
X10764777Y-12900388D02*
X10755253Y-12919436D01*
X10755253Y-12919436D02*
X10745729Y-12928960D01*
X10745729Y-12928960D02*
X10726682Y-12938484D01*
X10726682Y-12938484D02*
X10707634Y-12938484D01*
X10707634Y-12938484D02*
X10688587Y-12928960D01*
X10688587Y-12928960D02*
X10679063Y-12919436D01*
X10679063Y-12919436D02*
X10669539Y-12900388D01*
X10669539Y-12900388D02*
X10660015Y-12862293D01*
X10660015Y-12862293D02*
X10660015Y-12814674D01*
X10660015Y-12814674D02*
X10669539Y-12776579D01*
X10669539Y-12776579D02*
X10679063Y-12757531D01*
X10679063Y-12757531D02*
X10688587Y-12748008D01*
X10688587Y-12748008D02*
X10707634Y-12738484D01*
X10860015Y-12919436D02*
X10869539Y-12928960D01*
X10869539Y-12928960D02*
X10860015Y-12938484D01*
X10860015Y-12938484D02*
X10850491Y-12928960D01*
X10850491Y-12928960D02*
X10860015Y-12919436D01*
X10860015Y-12919436D02*
X10860015Y-12938484D01*
X10993348Y-12738484D02*
X11012396Y-12738484D01*
X11012396Y-12738484D02*
X11031444Y-12748008D01*
X11031444Y-12748008D02*
X11040968Y-12757531D01*
X11040968Y-12757531D02*
X11050491Y-12776579D01*
X11050491Y-12776579D02*
X11060015Y-12814674D01*
X11060015Y-12814674D02*
X11060015Y-12862293D01*
X11060015Y-12862293D02*
X11050491Y-12900388D01*
X11050491Y-12900388D02*
X11040968Y-12919436D01*
X11040968Y-12919436D02*
X11031444Y-12928960D01*
X11031444Y-12928960D02*
X11012396Y-12938484D01*
X11012396Y-12938484D02*
X10993348Y-12938484D01*
X10993348Y-12938484D02*
X10974301Y-12928960D01*
X10974301Y-12928960D02*
X10964777Y-12919436D01*
X10964777Y-12919436D02*
X10955253Y-12900388D01*
X10955253Y-12900388D02*
X10945729Y-12862293D01*
X10945729Y-12862293D02*
X10945729Y-12814674D01*
X10945729Y-12814674D02*
X10955253Y-12776579D01*
X10955253Y-12776579D02*
X10964777Y-12757531D01*
X10964777Y-12757531D02*
X10974301Y-12748008D01*
X10974301Y-12748008D02*
X10993348Y-12738484D01*
X11231444Y-12805150D02*
X11231444Y-12938484D01*
X11183825Y-12728960D02*
X11136206Y-12871817D01*
X11136206Y-12871817D02*
X11260015Y-12871817D01*
X11317158Y-12738484D02*
X11450491Y-12738484D01*
X11450491Y-12738484D02*
X11364777Y-12938484D01*
X11517158Y-12757531D02*
X11526682Y-12748008D01*
X11526682Y-12748008D02*
X11545729Y-12738484D01*
X11545729Y-12738484D02*
X11593348Y-12738484D01*
X11593348Y-12738484D02*
X11612396Y-12748008D01*
X11612396Y-12748008D02*
X11621920Y-12757531D01*
X11621920Y-12757531D02*
X11631444Y-12776579D01*
X11631444Y-12776579D02*
X11631444Y-12795627D01*
X11631444Y-12795627D02*
X11621920Y-12824198D01*
X11621920Y-12824198D02*
X11507634Y-12938484D01*
X11507634Y-12938484D02*
X11631444Y-12938484D01*
X11707634Y-12738484D02*
X11707634Y-12776579D01*
X11783825Y-12738484D02*
X11783825Y-12776579D01*
X12079063Y-13014674D02*
X12069539Y-13005150D01*
X12069539Y-13005150D02*
X12050491Y-12976579D01*
X12050491Y-12976579D02*
X12040968Y-12957531D01*
X12040968Y-12957531D02*
X12031444Y-12928960D01*
X12031444Y-12928960D02*
X12021920Y-12881341D01*
X12021920Y-12881341D02*
X12021920Y-12843246D01*
X12021920Y-12843246D02*
X12031444Y-12795627D01*
X12031444Y-12795627D02*
X12040968Y-12767055D01*
X12040968Y-12767055D02*
X12050491Y-12748008D01*
X12050491Y-12748008D02*
X12069539Y-12719436D01*
X12069539Y-12719436D02*
X12079063Y-12709912D01*
X12240968Y-12805150D02*
X12240968Y-12938484D01*
X12193348Y-12728960D02*
X12145729Y-12871817D01*
X12145729Y-12871817D02*
X12269539Y-12871817D01*
X12498110Y-12938484D02*
X12498110Y-12738484D01*
X12583825Y-12938484D02*
X12583825Y-12833722D01*
X12583825Y-12833722D02*
X12574301Y-12814674D01*
X12574301Y-12814674D02*
X12555253Y-12805150D01*
X12555253Y-12805150D02*
X12526682Y-12805150D01*
X12526682Y-12805150D02*
X12507634Y-12814674D01*
X12507634Y-12814674D02*
X12498110Y-12824198D01*
X12707634Y-12938484D02*
X12688587Y-12928960D01*
X12688587Y-12928960D02*
X12679063Y-12919436D01*
X12679063Y-12919436D02*
X12669539Y-12900388D01*
X12669539Y-12900388D02*
X12669539Y-12843246D01*
X12669539Y-12843246D02*
X12679063Y-12824198D01*
X12679063Y-12824198D02*
X12688587Y-12814674D01*
X12688587Y-12814674D02*
X12707634Y-12805150D01*
X12707634Y-12805150D02*
X12736206Y-12805150D01*
X12736206Y-12805150D02*
X12755253Y-12814674D01*
X12755253Y-12814674D02*
X12764777Y-12824198D01*
X12764777Y-12824198D02*
X12774301Y-12843246D01*
X12774301Y-12843246D02*
X12774301Y-12900388D01*
X12774301Y-12900388D02*
X12764777Y-12919436D01*
X12764777Y-12919436D02*
X12755253Y-12928960D01*
X12755253Y-12928960D02*
X12736206Y-12938484D01*
X12736206Y-12938484D02*
X12707634Y-12938484D01*
X12888587Y-12938484D02*
X12869539Y-12928960D01*
X12869539Y-12928960D02*
X12860015Y-12909912D01*
X12860015Y-12909912D02*
X12860015Y-12738484D01*
X13040968Y-12928960D02*
X13021920Y-12938484D01*
X13021920Y-12938484D02*
X12983825Y-12938484D01*
X12983825Y-12938484D02*
X12964777Y-12928960D01*
X12964777Y-12928960D02*
X12955253Y-12909912D01*
X12955253Y-12909912D02*
X12955253Y-12833722D01*
X12955253Y-12833722D02*
X12964777Y-12814674D01*
X12964777Y-12814674D02*
X12983825Y-12805150D01*
X12983825Y-12805150D02*
X13021920Y-12805150D01*
X13021920Y-12805150D02*
X13040968Y-12814674D01*
X13040968Y-12814674D02*
X13050491Y-12833722D01*
X13050491Y-12833722D02*
X13050491Y-12852769D01*
X13050491Y-12852769D02*
X12955253Y-12871817D01*
X13126682Y-12928960D02*
X13145730Y-12938484D01*
X13145730Y-12938484D02*
X13183825Y-12938484D01*
X13183825Y-12938484D02*
X13202872Y-12928960D01*
X13202872Y-12928960D02*
X13212396Y-12909912D01*
X13212396Y-12909912D02*
X13212396Y-12900388D01*
X13212396Y-12900388D02*
X13202872Y-12881341D01*
X13202872Y-12881341D02*
X13183825Y-12871817D01*
X13183825Y-12871817D02*
X13155253Y-12871817D01*
X13155253Y-12871817D02*
X13136206Y-12862293D01*
X13136206Y-12862293D02*
X13126682Y-12843246D01*
X13126682Y-12843246D02*
X13126682Y-12833722D01*
X13126682Y-12833722D02*
X13136206Y-12814674D01*
X13136206Y-12814674D02*
X13155253Y-12805150D01*
X13155253Y-12805150D02*
X13183825Y-12805150D01*
X13183825Y-12805150D02*
X13202872Y-12814674D01*
X13279063Y-13014674D02*
X13288587Y-13005150D01*
X13288587Y-13005150D02*
X13307634Y-12976579D01*
X13307634Y-12976579D02*
X13317158Y-12957531D01*
X13317158Y-12957531D02*
X13326682Y-12928960D01*
X13326682Y-12928960D02*
X13336206Y-12881341D01*
X13336206Y-12881341D02*
X13336206Y-12843246D01*
X13336206Y-12843246D02*
X13326682Y-12795627D01*
X13326682Y-12795627D02*
X13317158Y-12767055D01*
X13317158Y-12767055D02*
X13307634Y-12748008D01*
X13307634Y-12748008D02*
X13288587Y-12719436D01*
X13288587Y-12719436D02*
X13279063Y-12709912D01*
D13*
X8426500Y-13033500D02*
X8426500Y-13188500D01*
X8349000Y-13111000D02*
X8504000Y-13111000D01*
D11*
X8869539Y-13202484D02*
X8755253Y-13202484D01*
X8812396Y-13202484D02*
X8812396Y-13002484D01*
X8812396Y-13002484D02*
X8793348Y-13031055D01*
X8793348Y-13031055D02*
X8774301Y-13050103D01*
X8774301Y-13050103D02*
X8755253Y-13059627D01*
X8955253Y-13183436D02*
X8964777Y-13192960D01*
X8964777Y-13192960D02*
X8955253Y-13202484D01*
X8955253Y-13202484D02*
X8945729Y-13192960D01*
X8945729Y-13192960D02*
X8955253Y-13183436D01*
X8955253Y-13183436D02*
X8955253Y-13202484D01*
X9145729Y-13002484D02*
X9050491Y-13002484D01*
X9050491Y-13002484D02*
X9040967Y-13097722D01*
X9040967Y-13097722D02*
X9050491Y-13088198D01*
X9050491Y-13088198D02*
X9069539Y-13078674D01*
X9069539Y-13078674D02*
X9117158Y-13078674D01*
X9117158Y-13078674D02*
X9136205Y-13088198D01*
X9136205Y-13088198D02*
X9145729Y-13097722D01*
X9145729Y-13097722D02*
X9155253Y-13116769D01*
X9155253Y-13116769D02*
X9155253Y-13164388D01*
X9155253Y-13164388D02*
X9145729Y-13183436D01*
X9145729Y-13183436D02*
X9136205Y-13192960D01*
X9136205Y-13192960D02*
X9117158Y-13202484D01*
X9117158Y-13202484D02*
X9069539Y-13202484D01*
X9069539Y-13202484D02*
X9050491Y-13192960D01*
X9050491Y-13192960D02*
X9040967Y-13183436D01*
X9336205Y-13002484D02*
X9240967Y-13002484D01*
X9240967Y-13002484D02*
X9231444Y-13097722D01*
X9231444Y-13097722D02*
X9240967Y-13088198D01*
X9240967Y-13088198D02*
X9260015Y-13078674D01*
X9260015Y-13078674D02*
X9307634Y-13078674D01*
X9307634Y-13078674D02*
X9326682Y-13088198D01*
X9326682Y-13088198D02*
X9336205Y-13097722D01*
X9336205Y-13097722D02*
X9345729Y-13116769D01*
X9345729Y-13116769D02*
X9345729Y-13164388D01*
X9345729Y-13164388D02*
X9336205Y-13183436D01*
X9336205Y-13183436D02*
X9326682Y-13192960D01*
X9326682Y-13192960D02*
X9307634Y-13202484D01*
X9307634Y-13202484D02*
X9260015Y-13202484D01*
X9260015Y-13202484D02*
X9240967Y-13192960D01*
X9240967Y-13192960D02*
X9231444Y-13183436D01*
X9469539Y-13002484D02*
X9488586Y-13002484D01*
X9488586Y-13002484D02*
X9507634Y-13012008D01*
X9507634Y-13012008D02*
X9517158Y-13021531D01*
X9517158Y-13021531D02*
X9526682Y-13040579D01*
X9526682Y-13040579D02*
X9536205Y-13078674D01*
X9536205Y-13078674D02*
X9536205Y-13126293D01*
X9536205Y-13126293D02*
X9526682Y-13164388D01*
X9526682Y-13164388D02*
X9517158Y-13183436D01*
X9517158Y-13183436D02*
X9507634Y-13192960D01*
X9507634Y-13192960D02*
X9488586Y-13202484D01*
X9488586Y-13202484D02*
X9469539Y-13202484D01*
X9469539Y-13202484D02*
X9450491Y-13192960D01*
X9450491Y-13192960D02*
X9440967Y-13183436D01*
X9440967Y-13183436D02*
X9431444Y-13164388D01*
X9431444Y-13164388D02*
X9421920Y-13126293D01*
X9421920Y-13126293D02*
X9421920Y-13078674D01*
X9421920Y-13078674D02*
X9431444Y-13040579D01*
X9431444Y-13040579D02*
X9440967Y-13021531D01*
X9440967Y-13021531D02*
X9450491Y-13012008D01*
X9450491Y-13012008D02*
X9469539Y-13002484D01*
X9621920Y-13202484D02*
X9621920Y-13069150D01*
X9621920Y-13088198D02*
X9631444Y-13078674D01*
X9631444Y-13078674D02*
X9650491Y-13069150D01*
X9650491Y-13069150D02*
X9679063Y-13069150D01*
X9679063Y-13069150D02*
X9698110Y-13078674D01*
X9698110Y-13078674D02*
X9707634Y-13097722D01*
X9707634Y-13097722D02*
X9707634Y-13202484D01*
X9707634Y-13097722D02*
X9717158Y-13078674D01*
X9717158Y-13078674D02*
X9736205Y-13069150D01*
X9736205Y-13069150D02*
X9764777Y-13069150D01*
X9764777Y-13069150D02*
X9783825Y-13078674D01*
X9783825Y-13078674D02*
X9793348Y-13097722D01*
X9793348Y-13097722D02*
X9793348Y-13202484D01*
X9888586Y-13202484D02*
X9888586Y-13069150D01*
X9888586Y-13088198D02*
X9898110Y-13078674D01*
X9898110Y-13078674D02*
X9917158Y-13069150D01*
X9917158Y-13069150D02*
X9945729Y-13069150D01*
X9945729Y-13069150D02*
X9964777Y-13078674D01*
X9964777Y-13078674D02*
X9974301Y-13097722D01*
X9974301Y-13097722D02*
X9974301Y-13202484D01*
X9974301Y-13097722D02*
X9983825Y-13078674D01*
X9983825Y-13078674D02*
X10002872Y-13069150D01*
X10002872Y-13069150D02*
X10031444Y-13069150D01*
X10031444Y-13069150D02*
X10050491Y-13078674D01*
X10050491Y-13078674D02*
X10060015Y-13097722D01*
X10060015Y-13097722D02*
X10060015Y-13202484D01*
X10450491Y-12992960D02*
X10279063Y-13250103D01*
X10707634Y-13002484D02*
X10726682Y-13002484D01*
X10726682Y-13002484D02*
X10745729Y-13012008D01*
X10745729Y-13012008D02*
X10755253Y-13021531D01*
X10755253Y-13021531D02*
X10764777Y-13040579D01*
X10764777Y-13040579D02*
X10774301Y-13078674D01*
X10774301Y-13078674D02*
X10774301Y-13126293D01*
X10774301Y-13126293D02*
X10764777Y-13164388D01*
X10764777Y-13164388D02*
X10755253Y-13183436D01*
X10755253Y-13183436D02*
X10745729Y-13192960D01*
X10745729Y-13192960D02*
X10726682Y-13202484D01*
X10726682Y-13202484D02*
X10707634Y-13202484D01*
X10707634Y-13202484D02*
X10688587Y-13192960D01*
X10688587Y-13192960D02*
X10679063Y-13183436D01*
X10679063Y-13183436D02*
X10669539Y-13164388D01*
X10669539Y-13164388D02*
X10660015Y-13126293D01*
X10660015Y-13126293D02*
X10660015Y-13078674D01*
X10660015Y-13078674D02*
X10669539Y-13040579D01*
X10669539Y-13040579D02*
X10679063Y-13021531D01*
X10679063Y-13021531D02*
X10688587Y-13012008D01*
X10688587Y-13012008D02*
X10707634Y-13002484D01*
X10860015Y-13183436D02*
X10869539Y-13192960D01*
X10869539Y-13192960D02*
X10860015Y-13202484D01*
X10860015Y-13202484D02*
X10850491Y-13192960D01*
X10850491Y-13192960D02*
X10860015Y-13183436D01*
X10860015Y-13183436D02*
X10860015Y-13202484D01*
X10993348Y-13002484D02*
X11012396Y-13002484D01*
X11012396Y-13002484D02*
X11031444Y-13012008D01*
X11031444Y-13012008D02*
X11040968Y-13021531D01*
X11040968Y-13021531D02*
X11050491Y-13040579D01*
X11050491Y-13040579D02*
X11060015Y-13078674D01*
X11060015Y-13078674D02*
X11060015Y-13126293D01*
X11060015Y-13126293D02*
X11050491Y-13164388D01*
X11050491Y-13164388D02*
X11040968Y-13183436D01*
X11040968Y-13183436D02*
X11031444Y-13192960D01*
X11031444Y-13192960D02*
X11012396Y-13202484D01*
X11012396Y-13202484D02*
X10993348Y-13202484D01*
X10993348Y-13202484D02*
X10974301Y-13192960D01*
X10974301Y-13192960D02*
X10964777Y-13183436D01*
X10964777Y-13183436D02*
X10955253Y-13164388D01*
X10955253Y-13164388D02*
X10945729Y-13126293D01*
X10945729Y-13126293D02*
X10945729Y-13078674D01*
X10945729Y-13078674D02*
X10955253Y-13040579D01*
X10955253Y-13040579D02*
X10964777Y-13021531D01*
X10964777Y-13021531D02*
X10974301Y-13012008D01*
X10974301Y-13012008D02*
X10993348Y-13002484D01*
X11231444Y-13002484D02*
X11193348Y-13002484D01*
X11193348Y-13002484D02*
X11174301Y-13012008D01*
X11174301Y-13012008D02*
X11164777Y-13021531D01*
X11164777Y-13021531D02*
X11145729Y-13050103D01*
X11145729Y-13050103D02*
X11136206Y-13088198D01*
X11136206Y-13088198D02*
X11136206Y-13164388D01*
X11136206Y-13164388D02*
X11145729Y-13183436D01*
X11145729Y-13183436D02*
X11155253Y-13192960D01*
X11155253Y-13192960D02*
X11174301Y-13202484D01*
X11174301Y-13202484D02*
X11212396Y-13202484D01*
X11212396Y-13202484D02*
X11231444Y-13192960D01*
X11231444Y-13192960D02*
X11240967Y-13183436D01*
X11240967Y-13183436D02*
X11250491Y-13164388D01*
X11250491Y-13164388D02*
X11250491Y-13116769D01*
X11250491Y-13116769D02*
X11240967Y-13097722D01*
X11240967Y-13097722D02*
X11231444Y-13088198D01*
X11231444Y-13088198D02*
X11212396Y-13078674D01*
X11212396Y-13078674D02*
X11174301Y-13078674D01*
X11174301Y-13078674D02*
X11155253Y-13088198D01*
X11155253Y-13088198D02*
X11145729Y-13097722D01*
X11145729Y-13097722D02*
X11136206Y-13116769D01*
X11440967Y-13202484D02*
X11326682Y-13202484D01*
X11383825Y-13202484D02*
X11383825Y-13002484D01*
X11383825Y-13002484D02*
X11364777Y-13031055D01*
X11364777Y-13031055D02*
X11345729Y-13050103D01*
X11345729Y-13050103D02*
X11326682Y-13059627D01*
X11564777Y-13002484D02*
X11583825Y-13002484D01*
X11583825Y-13002484D02*
X11602872Y-13012008D01*
X11602872Y-13012008D02*
X11612396Y-13021531D01*
X11612396Y-13021531D02*
X11621920Y-13040579D01*
X11621920Y-13040579D02*
X11631444Y-13078674D01*
X11631444Y-13078674D02*
X11631444Y-13126293D01*
X11631444Y-13126293D02*
X11621920Y-13164388D01*
X11621920Y-13164388D02*
X11612396Y-13183436D01*
X11612396Y-13183436D02*
X11602872Y-13192960D01*
X11602872Y-13192960D02*
X11583825Y-13202484D01*
X11583825Y-13202484D02*
X11564777Y-13202484D01*
X11564777Y-13202484D02*
X11545729Y-13192960D01*
X11545729Y-13192960D02*
X11536206Y-13183436D01*
X11536206Y-13183436D02*
X11526682Y-13164388D01*
X11526682Y-13164388D02*
X11517158Y-13126293D01*
X11517158Y-13126293D02*
X11517158Y-13078674D01*
X11517158Y-13078674D02*
X11526682Y-13040579D01*
X11526682Y-13040579D02*
X11536206Y-13021531D01*
X11536206Y-13021531D02*
X11545729Y-13012008D01*
X11545729Y-13012008D02*
X11564777Y-13002484D01*
X11707634Y-13002484D02*
X11707634Y-13040579D01*
X11783825Y-13002484D02*
X11783825Y-13040579D01*
X12079063Y-13278674D02*
X12069539Y-13269150D01*
X12069539Y-13269150D02*
X12050491Y-13240579D01*
X12050491Y-13240579D02*
X12040968Y-13221531D01*
X12040968Y-13221531D02*
X12031444Y-13192960D01*
X12031444Y-13192960D02*
X12021920Y-13145341D01*
X12021920Y-13145341D02*
X12021920Y-13107246D01*
X12021920Y-13107246D02*
X12031444Y-13059627D01*
X12031444Y-13059627D02*
X12040968Y-13031055D01*
X12040968Y-13031055D02*
X12050491Y-13012008D01*
X12050491Y-13012008D02*
X12069539Y-12983436D01*
X12069539Y-12983436D02*
X12079063Y-12973912D01*
X12145729Y-13021531D02*
X12155253Y-13012008D01*
X12155253Y-13012008D02*
X12174301Y-13002484D01*
X12174301Y-13002484D02*
X12221920Y-13002484D01*
X12221920Y-13002484D02*
X12240968Y-13012008D01*
X12240968Y-13012008D02*
X12250491Y-13021531D01*
X12250491Y-13021531D02*
X12260015Y-13040579D01*
X12260015Y-13040579D02*
X12260015Y-13059627D01*
X12260015Y-13059627D02*
X12250491Y-13088198D01*
X12250491Y-13088198D02*
X12136206Y-13202484D01*
X12136206Y-13202484D02*
X12260015Y-13202484D01*
X12498110Y-13202484D02*
X12498110Y-13002484D01*
X12583825Y-13202484D02*
X12583825Y-13097722D01*
X12583825Y-13097722D02*
X12574301Y-13078674D01*
X12574301Y-13078674D02*
X12555253Y-13069150D01*
X12555253Y-13069150D02*
X12526682Y-13069150D01*
X12526682Y-13069150D02*
X12507634Y-13078674D01*
X12507634Y-13078674D02*
X12498110Y-13088198D01*
X12707634Y-13202484D02*
X12688587Y-13192960D01*
X12688587Y-13192960D02*
X12679063Y-13183436D01*
X12679063Y-13183436D02*
X12669539Y-13164388D01*
X12669539Y-13164388D02*
X12669539Y-13107246D01*
X12669539Y-13107246D02*
X12679063Y-13088198D01*
X12679063Y-13088198D02*
X12688587Y-13078674D01*
X12688587Y-13078674D02*
X12707634Y-13069150D01*
X12707634Y-13069150D02*
X12736206Y-13069150D01*
X12736206Y-13069150D02*
X12755253Y-13078674D01*
X12755253Y-13078674D02*
X12764777Y-13088198D01*
X12764777Y-13088198D02*
X12774301Y-13107246D01*
X12774301Y-13107246D02*
X12774301Y-13164388D01*
X12774301Y-13164388D02*
X12764777Y-13183436D01*
X12764777Y-13183436D02*
X12755253Y-13192960D01*
X12755253Y-13192960D02*
X12736206Y-13202484D01*
X12736206Y-13202484D02*
X12707634Y-13202484D01*
X12888587Y-13202484D02*
X12869539Y-13192960D01*
X12869539Y-13192960D02*
X12860015Y-13173912D01*
X12860015Y-13173912D02*
X12860015Y-13002484D01*
X13040968Y-13192960D02*
X13021920Y-13202484D01*
X13021920Y-13202484D02*
X12983825Y-13202484D01*
X12983825Y-13202484D02*
X12964777Y-13192960D01*
X12964777Y-13192960D02*
X12955253Y-13173912D01*
X12955253Y-13173912D02*
X12955253Y-13097722D01*
X12955253Y-13097722D02*
X12964777Y-13078674D01*
X12964777Y-13078674D02*
X12983825Y-13069150D01*
X12983825Y-13069150D02*
X13021920Y-13069150D01*
X13021920Y-13069150D02*
X13040968Y-13078674D01*
X13040968Y-13078674D02*
X13050491Y-13097722D01*
X13050491Y-13097722D02*
X13050491Y-13116769D01*
X13050491Y-13116769D02*
X12955253Y-13135817D01*
X13126682Y-13192960D02*
X13145730Y-13202484D01*
X13145730Y-13202484D02*
X13183825Y-13202484D01*
X13183825Y-13202484D02*
X13202872Y-13192960D01*
X13202872Y-13192960D02*
X13212396Y-13173912D01*
X13212396Y-13173912D02*
X13212396Y-13164388D01*
X13212396Y-13164388D02*
X13202872Y-13145341D01*
X13202872Y-13145341D02*
X13183825Y-13135817D01*
X13183825Y-13135817D02*
X13155253Y-13135817D01*
X13155253Y-13135817D02*
X13136206Y-13126293D01*
X13136206Y-13126293D02*
X13126682Y-13107246D01*
X13126682Y-13107246D02*
X13126682Y-13097722D01*
X13126682Y-13097722D02*
X13136206Y-13078674D01*
X13136206Y-13078674D02*
X13155253Y-13069150D01*
X13155253Y-13069150D02*
X13183825Y-13069150D01*
X13183825Y-13069150D02*
X13202872Y-13078674D01*
X13279063Y-13278674D02*
X13288587Y-13269150D01*
X13288587Y-13269150D02*
X13307634Y-13240579D01*
X13307634Y-13240579D02*
X13317158Y-13221531D01*
X13317158Y-13221531D02*
X13326682Y-13192960D01*
X13326682Y-13192960D02*
X13336206Y-13145341D01*
X13336206Y-13145341D02*
X13336206Y-13107246D01*
X13336206Y-13107246D02*
X13326682Y-13059627D01*
X13326682Y-13059627D02*
X13317158Y-13031055D01*
X13317158Y-13031055D02*
X13307634Y-13012008D01*
X13307634Y-13012008D02*
X13288587Y-12983436D01*
X13288587Y-12983436D02*
X13279063Y-12973912D01*
D14*
X8480569Y-13442569D02*
X8480569Y-13329431D01*
X8367431Y-13329431D01*
X8367431Y-13442569D01*
X8480569Y-13442569D01*
D11*
X8869539Y-13477484D02*
X8755253Y-13477484D01*
X8812396Y-13477484D02*
X8812396Y-13277484D01*
X8812396Y-13277484D02*
X8793348Y-13306055D01*
X8793348Y-13306055D02*
X8774301Y-13325103D01*
X8774301Y-13325103D02*
X8755253Y-13334627D01*
X8955253Y-13458436D02*
X8964777Y-13467960D01*
X8964777Y-13467960D02*
X8955253Y-13477484D01*
X8955253Y-13477484D02*
X8945729Y-13467960D01*
X8945729Y-13467960D02*
X8955253Y-13458436D01*
X8955253Y-13458436D02*
X8955253Y-13477484D01*
X9136205Y-13277484D02*
X9098110Y-13277484D01*
X9098110Y-13277484D02*
X9079063Y-13287008D01*
X9079063Y-13287008D02*
X9069539Y-13296531D01*
X9069539Y-13296531D02*
X9050491Y-13325103D01*
X9050491Y-13325103D02*
X9040967Y-13363198D01*
X9040967Y-13363198D02*
X9040967Y-13439388D01*
X9040967Y-13439388D02*
X9050491Y-13458436D01*
X9050491Y-13458436D02*
X9060015Y-13467960D01*
X9060015Y-13467960D02*
X9079063Y-13477484D01*
X9079063Y-13477484D02*
X9117158Y-13477484D01*
X9117158Y-13477484D02*
X9136205Y-13467960D01*
X9136205Y-13467960D02*
X9145729Y-13458436D01*
X9145729Y-13458436D02*
X9155253Y-13439388D01*
X9155253Y-13439388D02*
X9155253Y-13391769D01*
X9155253Y-13391769D02*
X9145729Y-13372722D01*
X9145729Y-13372722D02*
X9136205Y-13363198D01*
X9136205Y-13363198D02*
X9117158Y-13353674D01*
X9117158Y-13353674D02*
X9079063Y-13353674D01*
X9079063Y-13353674D02*
X9060015Y-13363198D01*
X9060015Y-13363198D02*
X9050491Y-13372722D01*
X9050491Y-13372722D02*
X9040967Y-13391769D01*
X9279063Y-13277484D02*
X9298110Y-13277484D01*
X9298110Y-13277484D02*
X9317158Y-13287008D01*
X9317158Y-13287008D02*
X9326682Y-13296531D01*
X9326682Y-13296531D02*
X9336205Y-13315579D01*
X9336205Y-13315579D02*
X9345729Y-13353674D01*
X9345729Y-13353674D02*
X9345729Y-13401293D01*
X9345729Y-13401293D02*
X9336205Y-13439388D01*
X9336205Y-13439388D02*
X9326682Y-13458436D01*
X9326682Y-13458436D02*
X9317158Y-13467960D01*
X9317158Y-13467960D02*
X9298110Y-13477484D01*
X9298110Y-13477484D02*
X9279063Y-13477484D01*
X9279063Y-13477484D02*
X9260015Y-13467960D01*
X9260015Y-13467960D02*
X9250491Y-13458436D01*
X9250491Y-13458436D02*
X9240967Y-13439388D01*
X9240967Y-13439388D02*
X9231444Y-13401293D01*
X9231444Y-13401293D02*
X9231444Y-13353674D01*
X9231444Y-13353674D02*
X9240967Y-13315579D01*
X9240967Y-13315579D02*
X9250491Y-13296531D01*
X9250491Y-13296531D02*
X9260015Y-13287008D01*
X9260015Y-13287008D02*
X9279063Y-13277484D01*
X9469539Y-13277484D02*
X9488586Y-13277484D01*
X9488586Y-13277484D02*
X9507634Y-13287008D01*
X9507634Y-13287008D02*
X9517158Y-13296531D01*
X9517158Y-13296531D02*
X9526682Y-13315579D01*
X9526682Y-13315579D02*
X9536205Y-13353674D01*
X9536205Y-13353674D02*
X9536205Y-13401293D01*
X9536205Y-13401293D02*
X9526682Y-13439388D01*
X9526682Y-13439388D02*
X9517158Y-13458436D01*
X9517158Y-13458436D02*
X9507634Y-13467960D01*
X9507634Y-13467960D02*
X9488586Y-13477484D01*
X9488586Y-13477484D02*
X9469539Y-13477484D01*
X9469539Y-13477484D02*
X9450491Y-13467960D01*
X9450491Y-13467960D02*
X9440967Y-13458436D01*
X9440967Y-13458436D02*
X9431444Y-13439388D01*
X9431444Y-13439388D02*
X9421920Y-13401293D01*
X9421920Y-13401293D02*
X9421920Y-13353674D01*
X9421920Y-13353674D02*
X9431444Y-13315579D01*
X9431444Y-13315579D02*
X9440967Y-13296531D01*
X9440967Y-13296531D02*
X9450491Y-13287008D01*
X9450491Y-13287008D02*
X9469539Y-13277484D01*
X9621920Y-13477484D02*
X9621920Y-13344150D01*
X9621920Y-13363198D02*
X9631444Y-13353674D01*
X9631444Y-13353674D02*
X9650491Y-13344150D01*
X9650491Y-13344150D02*
X9679063Y-13344150D01*
X9679063Y-13344150D02*
X9698110Y-13353674D01*
X9698110Y-13353674D02*
X9707634Y-13372722D01*
X9707634Y-13372722D02*
X9707634Y-13477484D01*
X9707634Y-13372722D02*
X9717158Y-13353674D01*
X9717158Y-13353674D02*
X9736205Y-13344150D01*
X9736205Y-13344150D02*
X9764777Y-13344150D01*
X9764777Y-13344150D02*
X9783825Y-13353674D01*
X9783825Y-13353674D02*
X9793348Y-13372722D01*
X9793348Y-13372722D02*
X9793348Y-13477484D01*
X9888586Y-13477484D02*
X9888586Y-13344150D01*
X9888586Y-13363198D02*
X9898110Y-13353674D01*
X9898110Y-13353674D02*
X9917158Y-13344150D01*
X9917158Y-13344150D02*
X9945729Y-13344150D01*
X9945729Y-13344150D02*
X9964777Y-13353674D01*
X9964777Y-13353674D02*
X9974301Y-13372722D01*
X9974301Y-13372722D02*
X9974301Y-13477484D01*
X9974301Y-13372722D02*
X9983825Y-13353674D01*
X9983825Y-13353674D02*
X10002872Y-13344150D01*
X10002872Y-13344150D02*
X10031444Y-13344150D01*
X10031444Y-13344150D02*
X10050491Y-13353674D01*
X10050491Y-13353674D02*
X10060015Y-13372722D01*
X10060015Y-13372722D02*
X10060015Y-13477484D01*
X10450491Y-13267960D02*
X10279063Y-13525103D01*
X10707634Y-13277484D02*
X10726682Y-13277484D01*
X10726682Y-13277484D02*
X10745729Y-13287008D01*
X10745729Y-13287008D02*
X10755253Y-13296531D01*
X10755253Y-13296531D02*
X10764777Y-13315579D01*
X10764777Y-13315579D02*
X10774301Y-13353674D01*
X10774301Y-13353674D02*
X10774301Y-13401293D01*
X10774301Y-13401293D02*
X10764777Y-13439388D01*
X10764777Y-13439388D02*
X10755253Y-13458436D01*
X10755253Y-13458436D02*
X10745729Y-13467960D01*
X10745729Y-13467960D02*
X10726682Y-13477484D01*
X10726682Y-13477484D02*
X10707634Y-13477484D01*
X10707634Y-13477484D02*
X10688587Y-13467960D01*
X10688587Y-13467960D02*
X10679063Y-13458436D01*
X10679063Y-13458436D02*
X10669539Y-13439388D01*
X10669539Y-13439388D02*
X10660015Y-13401293D01*
X10660015Y-13401293D02*
X10660015Y-13353674D01*
X10660015Y-13353674D02*
X10669539Y-13315579D01*
X10669539Y-13315579D02*
X10679063Y-13296531D01*
X10679063Y-13296531D02*
X10688587Y-13287008D01*
X10688587Y-13287008D02*
X10707634Y-13277484D01*
X10860015Y-13458436D02*
X10869539Y-13467960D01*
X10869539Y-13467960D02*
X10860015Y-13477484D01*
X10860015Y-13477484D02*
X10850491Y-13467960D01*
X10850491Y-13467960D02*
X10860015Y-13458436D01*
X10860015Y-13458436D02*
X10860015Y-13477484D01*
X10993348Y-13277484D02*
X11012396Y-13277484D01*
X11012396Y-13277484D02*
X11031444Y-13287008D01*
X11031444Y-13287008D02*
X11040968Y-13296531D01*
X11040968Y-13296531D02*
X11050491Y-13315579D01*
X11050491Y-13315579D02*
X11060015Y-13353674D01*
X11060015Y-13353674D02*
X11060015Y-13401293D01*
X11060015Y-13401293D02*
X11050491Y-13439388D01*
X11050491Y-13439388D02*
X11040968Y-13458436D01*
X11040968Y-13458436D02*
X11031444Y-13467960D01*
X11031444Y-13467960D02*
X11012396Y-13477484D01*
X11012396Y-13477484D02*
X10993348Y-13477484D01*
X10993348Y-13477484D02*
X10974301Y-13467960D01*
X10974301Y-13467960D02*
X10964777Y-13458436D01*
X10964777Y-13458436D02*
X10955253Y-13439388D01*
X10955253Y-13439388D02*
X10945729Y-13401293D01*
X10945729Y-13401293D02*
X10945729Y-13353674D01*
X10945729Y-13353674D02*
X10955253Y-13315579D01*
X10955253Y-13315579D02*
X10964777Y-13296531D01*
X10964777Y-13296531D02*
X10974301Y-13287008D01*
X10974301Y-13287008D02*
X10993348Y-13277484D01*
X11231444Y-13277484D02*
X11193348Y-13277484D01*
X11193348Y-13277484D02*
X11174301Y-13287008D01*
X11174301Y-13287008D02*
X11164777Y-13296531D01*
X11164777Y-13296531D02*
X11145729Y-13325103D01*
X11145729Y-13325103D02*
X11136206Y-13363198D01*
X11136206Y-13363198D02*
X11136206Y-13439388D01*
X11136206Y-13439388D02*
X11145729Y-13458436D01*
X11145729Y-13458436D02*
X11155253Y-13467960D01*
X11155253Y-13467960D02*
X11174301Y-13477484D01*
X11174301Y-13477484D02*
X11212396Y-13477484D01*
X11212396Y-13477484D02*
X11231444Y-13467960D01*
X11231444Y-13467960D02*
X11240967Y-13458436D01*
X11240967Y-13458436D02*
X11250491Y-13439388D01*
X11250491Y-13439388D02*
X11250491Y-13391769D01*
X11250491Y-13391769D02*
X11240967Y-13372722D01*
X11240967Y-13372722D02*
X11231444Y-13363198D01*
X11231444Y-13363198D02*
X11212396Y-13353674D01*
X11212396Y-13353674D02*
X11174301Y-13353674D01*
X11174301Y-13353674D02*
X11155253Y-13363198D01*
X11155253Y-13363198D02*
X11145729Y-13372722D01*
X11145729Y-13372722D02*
X11136206Y-13391769D01*
X11317158Y-13277484D02*
X11440967Y-13277484D01*
X11440967Y-13277484D02*
X11374301Y-13353674D01*
X11374301Y-13353674D02*
X11402872Y-13353674D01*
X11402872Y-13353674D02*
X11421920Y-13363198D01*
X11421920Y-13363198D02*
X11431444Y-13372722D01*
X11431444Y-13372722D02*
X11440967Y-13391769D01*
X11440967Y-13391769D02*
X11440967Y-13439388D01*
X11440967Y-13439388D02*
X11431444Y-13458436D01*
X11431444Y-13458436D02*
X11421920Y-13467960D01*
X11421920Y-13467960D02*
X11402872Y-13477484D01*
X11402872Y-13477484D02*
X11345729Y-13477484D01*
X11345729Y-13477484D02*
X11326682Y-13467960D01*
X11326682Y-13467960D02*
X11317158Y-13458436D01*
X11564777Y-13277484D02*
X11583825Y-13277484D01*
X11583825Y-13277484D02*
X11602872Y-13287008D01*
X11602872Y-13287008D02*
X11612396Y-13296531D01*
X11612396Y-13296531D02*
X11621920Y-13315579D01*
X11621920Y-13315579D02*
X11631444Y-13353674D01*
X11631444Y-13353674D02*
X11631444Y-13401293D01*
X11631444Y-13401293D02*
X11621920Y-13439388D01*
X11621920Y-13439388D02*
X11612396Y-13458436D01*
X11612396Y-13458436D02*
X11602872Y-13467960D01*
X11602872Y-13467960D02*
X11583825Y-13477484D01*
X11583825Y-13477484D02*
X11564777Y-13477484D01*
X11564777Y-13477484D02*
X11545729Y-13467960D01*
X11545729Y-13467960D02*
X11536206Y-13458436D01*
X11536206Y-13458436D02*
X11526682Y-13439388D01*
X11526682Y-13439388D02*
X11517158Y-13401293D01*
X11517158Y-13401293D02*
X11517158Y-13353674D01*
X11517158Y-13353674D02*
X11526682Y-13315579D01*
X11526682Y-13315579D02*
X11536206Y-13296531D01*
X11536206Y-13296531D02*
X11545729Y-13287008D01*
X11545729Y-13287008D02*
X11564777Y-13277484D01*
X11707634Y-13277484D02*
X11707634Y-13315579D01*
X11783825Y-13277484D02*
X11783825Y-13315579D01*
X12079063Y-13553674D02*
X12069539Y-13544150D01*
X12069539Y-13544150D02*
X12050491Y-13515579D01*
X12050491Y-13515579D02*
X12040968Y-13496531D01*
X12040968Y-13496531D02*
X12031444Y-13467960D01*
X12031444Y-13467960D02*
X12021920Y-13420341D01*
X12021920Y-13420341D02*
X12021920Y-13382246D01*
X12021920Y-13382246D02*
X12031444Y-13334627D01*
X12031444Y-13334627D02*
X12040968Y-13306055D01*
X12040968Y-13306055D02*
X12050491Y-13287008D01*
X12050491Y-13287008D02*
X12069539Y-13258436D01*
X12069539Y-13258436D02*
X12079063Y-13248912D01*
X12260015Y-13477484D02*
X12145729Y-13477484D01*
X12202872Y-13477484D02*
X12202872Y-13277484D01*
X12202872Y-13277484D02*
X12183825Y-13306055D01*
X12183825Y-13306055D02*
X12164777Y-13325103D01*
X12164777Y-13325103D02*
X12145729Y-13334627D01*
X12336206Y-13296531D02*
X12345729Y-13287008D01*
X12345729Y-13287008D02*
X12364777Y-13277484D01*
X12364777Y-13277484D02*
X12412396Y-13277484D01*
X12412396Y-13277484D02*
X12431444Y-13287008D01*
X12431444Y-13287008D02*
X12440968Y-13296531D01*
X12440968Y-13296531D02*
X12450491Y-13315579D01*
X12450491Y-13315579D02*
X12450491Y-13334627D01*
X12450491Y-13334627D02*
X12440968Y-13363198D01*
X12440968Y-13363198D02*
X12326682Y-13477484D01*
X12326682Y-13477484D02*
X12450491Y-13477484D01*
X12688587Y-13477484D02*
X12688587Y-13277484D01*
X12774301Y-13477484D02*
X12774301Y-13372722D01*
X12774301Y-13372722D02*
X12764777Y-13353674D01*
X12764777Y-13353674D02*
X12745730Y-13344150D01*
X12745730Y-13344150D02*
X12717158Y-13344150D01*
X12717158Y-13344150D02*
X12698110Y-13353674D01*
X12698110Y-13353674D02*
X12688587Y-13363198D01*
X12898110Y-13477484D02*
X12879063Y-13467960D01*
X12879063Y-13467960D02*
X12869539Y-13458436D01*
X12869539Y-13458436D02*
X12860015Y-13439388D01*
X12860015Y-13439388D02*
X12860015Y-13382246D01*
X12860015Y-13382246D02*
X12869539Y-13363198D01*
X12869539Y-13363198D02*
X12879063Y-13353674D01*
X12879063Y-13353674D02*
X12898110Y-13344150D01*
X12898110Y-13344150D02*
X12926682Y-13344150D01*
X12926682Y-13344150D02*
X12945730Y-13353674D01*
X12945730Y-13353674D02*
X12955253Y-13363198D01*
X12955253Y-13363198D02*
X12964777Y-13382246D01*
X12964777Y-13382246D02*
X12964777Y-13439388D01*
X12964777Y-13439388D02*
X12955253Y-13458436D01*
X12955253Y-13458436D02*
X12945730Y-13467960D01*
X12945730Y-13467960D02*
X12926682Y-13477484D01*
X12926682Y-13477484D02*
X12898110Y-13477484D01*
X13079063Y-13477484D02*
X13060015Y-13467960D01*
X13060015Y-13467960D02*
X13050491Y-13448912D01*
X13050491Y-13448912D02*
X13050491Y-13277484D01*
X13231444Y-13467960D02*
X13212396Y-13477484D01*
X13212396Y-13477484D02*
X13174301Y-13477484D01*
X13174301Y-13477484D02*
X13155253Y-13467960D01*
X13155253Y-13467960D02*
X13145730Y-13448912D01*
X13145730Y-13448912D02*
X13145730Y-13372722D01*
X13145730Y-13372722D02*
X13155253Y-13353674D01*
X13155253Y-13353674D02*
X13174301Y-13344150D01*
X13174301Y-13344150D02*
X13212396Y-13344150D01*
X13212396Y-13344150D02*
X13231444Y-13353674D01*
X13231444Y-13353674D02*
X13240968Y-13372722D01*
X13240968Y-13372722D02*
X13240968Y-13391769D01*
X13240968Y-13391769D02*
X13145730Y-13410817D01*
X13317158Y-13467960D02*
X13336206Y-13477484D01*
X13336206Y-13477484D02*
X13374301Y-13477484D01*
X13374301Y-13477484D02*
X13393349Y-13467960D01*
X13393349Y-13467960D02*
X13402872Y-13448912D01*
X13402872Y-13448912D02*
X13402872Y-13439388D01*
X13402872Y-13439388D02*
X13393349Y-13420341D01*
X13393349Y-13420341D02*
X13374301Y-13410817D01*
X13374301Y-13410817D02*
X13345730Y-13410817D01*
X13345730Y-13410817D02*
X13326682Y-13401293D01*
X13326682Y-13401293D02*
X13317158Y-13382246D01*
X13317158Y-13382246D02*
X13317158Y-13372722D01*
X13317158Y-13372722D02*
X13326682Y-13353674D01*
X13326682Y-13353674D02*
X13345730Y-13344150D01*
X13345730Y-13344150D02*
X13374301Y-13344150D01*
X13374301Y-13344150D02*
X13393349Y-13353674D01*
X13469539Y-13553674D02*
X13479063Y-13544150D01*
X13479063Y-13544150D02*
X13498111Y-13515579D01*
X13498111Y-13515579D02*
X13507634Y-13496531D01*
X13507634Y-13496531D02*
X13517158Y-13467960D01*
X13517158Y-13467960D02*
X13526682Y-13420341D01*
X13526682Y-13420341D02*
X13526682Y-13382246D01*
X13526682Y-13382246D02*
X13517158Y-13334627D01*
X13517158Y-13334627D02*
X13507634Y-13306055D01*
X13507634Y-13306055D02*
X13498111Y-13287008D01*
X13498111Y-13287008D02*
X13479063Y-13258436D01*
X13479063Y-13258436D02*
X13469539Y-13248912D01*
M02*
