%TF.GenerationSoftware,KiCad,Pcbnew,7.0.6*%
%TF.CreationDate,2023-11-21T22:10:31+01:00*%
%TF.ProjectId,EF_matrix,45465f6d-6174-4726-9978-2e6b69636164,rev?*%
%TF.SameCoordinates,Original*%
%TF.FileFunction,Legend,Top*%
%TF.FilePolarity,Positive*%
%FSLAX46Y46*%
G04 Gerber Fmt 4.6, Leading zero omitted, Abs format (unit mm)*
G04 Created by KiCad (PCBNEW 7.0.6) date 2023-11-21 22:10:31*
%MOMM*%
%LPD*%
G01*
G04 APERTURE LIST*
%ADD10C,0.150000*%
%ADD11C,0.120000*%
G04 APERTURE END LIST*
D10*
X170735500Y-107227052D02*
X180895500Y-107227052D01*
X180895500Y-95797052D01*
X170735500Y-95797052D01*
X170735500Y-107227052D01*
X170735500Y-71667052D02*
X180895500Y-71667052D01*
X180895500Y-55157052D01*
X170735500Y-55157052D01*
X170735500Y-71667052D01*
X130095500Y-118657052D02*
X147875500Y-118657052D01*
X147875500Y-108497052D01*
X130095500Y-108497052D01*
X130095500Y-118657052D01*
X158035500Y-33567052D02*
X169465500Y-33567052D01*
X169465500Y-17057052D01*
X158035500Y-17057052D01*
X158035500Y-33567052D01*
X170735500Y-89447052D02*
X180895500Y-89447052D01*
X180895500Y-72937052D01*
X170735500Y-72937052D01*
X170735500Y-89447052D01*
X158035500Y-67857052D02*
X169465500Y-67857052D01*
X169465500Y-51347052D01*
X158035500Y-51347052D01*
X158035500Y-67857052D01*
X158035500Y-118657052D02*
X174545500Y-118657052D01*
X174545500Y-108497052D01*
X158035500Y-108497052D01*
X158035500Y-118657052D01*
X169128720Y-109897232D02*
X169128720Y-110897232D01*
X168652530Y-110563899D02*
X168652530Y-109897232D01*
X168652530Y-110468661D02*
X168604911Y-110516280D01*
X168604911Y-110516280D02*
X168509673Y-110563899D01*
X168509673Y-110563899D02*
X168366816Y-110563899D01*
X168366816Y-110563899D02*
X168271578Y-110516280D01*
X168271578Y-110516280D02*
X168223959Y-110421042D01*
X168223959Y-110421042D02*
X168223959Y-109897232D01*
X167747768Y-110563899D02*
X167747768Y-109563899D01*
X167747768Y-110516280D02*
X167652530Y-110563899D01*
X167652530Y-110563899D02*
X167462054Y-110563899D01*
X167462054Y-110563899D02*
X167366816Y-110516280D01*
X167366816Y-110516280D02*
X167319197Y-110468661D01*
X167319197Y-110468661D02*
X167271578Y-110373423D01*
X167271578Y-110373423D02*
X167271578Y-110087709D01*
X167271578Y-110087709D02*
X167319197Y-109992471D01*
X167319197Y-109992471D02*
X167366816Y-109944852D01*
X167366816Y-109944852D02*
X167462054Y-109897232D01*
X167462054Y-109897232D02*
X167652530Y-109897232D01*
X167652530Y-109897232D02*
X167747768Y-109944852D01*
X166414435Y-110563899D02*
X166414435Y-109897232D01*
X166843006Y-110563899D02*
X166843006Y-110040090D01*
X166843006Y-110040090D02*
X166795387Y-109944852D01*
X166795387Y-109944852D02*
X166700149Y-109897232D01*
X166700149Y-109897232D02*
X166557292Y-109897232D01*
X166557292Y-109897232D02*
X166462054Y-109944852D01*
X166462054Y-109944852D02*
X166414435Y-109992471D01*
X166081101Y-110563899D02*
X165700149Y-110563899D01*
X165938244Y-110897232D02*
X165938244Y-110040090D01*
X165938244Y-110040090D02*
X165890625Y-109944852D01*
X165890625Y-109944852D02*
X165795387Y-109897232D01*
X165795387Y-109897232D02*
X165700149Y-109897232D01*
X164652529Y-110801994D02*
X164604910Y-110849613D01*
X164604910Y-110849613D02*
X164509672Y-110897232D01*
X164509672Y-110897232D02*
X164271577Y-110897232D01*
X164271577Y-110897232D02*
X164176339Y-110849613D01*
X164176339Y-110849613D02*
X164128720Y-110801994D01*
X164128720Y-110801994D02*
X164081101Y-110706756D01*
X164081101Y-110706756D02*
X164081101Y-110611518D01*
X164081101Y-110611518D02*
X164128720Y-110468661D01*
X164128720Y-110468661D02*
X164700148Y-109897232D01*
X164700148Y-109897232D02*
X164081101Y-109897232D01*
X160445319Y-27674082D02*
X160445319Y-28150272D01*
X160445319Y-28150272D02*
X159445319Y-28150272D01*
X159921509Y-27340748D02*
X159921509Y-27007415D01*
X160445319Y-26864558D02*
X160445319Y-27340748D01*
X160445319Y-27340748D02*
X159445319Y-27340748D01*
X159445319Y-27340748D02*
X159445319Y-26864558D01*
X160445319Y-26435986D02*
X159445319Y-26435986D01*
X159445319Y-26435986D02*
X159445319Y-26197891D01*
X159445319Y-26197891D02*
X159492938Y-26055034D01*
X159492938Y-26055034D02*
X159588176Y-25959796D01*
X159588176Y-25959796D02*
X159683414Y-25912177D01*
X159683414Y-25912177D02*
X159873890Y-25864558D01*
X159873890Y-25864558D02*
X160016747Y-25864558D01*
X160016747Y-25864558D02*
X160207223Y-25912177D01*
X160207223Y-25912177D02*
X160302461Y-25959796D01*
X160302461Y-25959796D02*
X160397700Y-26055034D01*
X160397700Y-26055034D02*
X160445319Y-26197891D01*
X160445319Y-26197891D02*
X160445319Y-26435986D01*
X160445319Y-24674081D02*
X159445319Y-24674081D01*
X159445319Y-24674081D02*
X159445319Y-24293129D01*
X159445319Y-24293129D02*
X159492938Y-24197891D01*
X159492938Y-24197891D02*
X159540557Y-24150272D01*
X159540557Y-24150272D02*
X159635795Y-24102653D01*
X159635795Y-24102653D02*
X159778652Y-24102653D01*
X159778652Y-24102653D02*
X159873890Y-24150272D01*
X159873890Y-24150272D02*
X159921509Y-24197891D01*
X159921509Y-24197891D02*
X159969128Y-24293129D01*
X159969128Y-24293129D02*
X159969128Y-24674081D01*
X160445319Y-23245510D02*
X159921509Y-23245510D01*
X159921509Y-23245510D02*
X159826271Y-23293129D01*
X159826271Y-23293129D02*
X159778652Y-23388367D01*
X159778652Y-23388367D02*
X159778652Y-23578843D01*
X159778652Y-23578843D02*
X159826271Y-23674081D01*
X160397700Y-23245510D02*
X160445319Y-23340748D01*
X160445319Y-23340748D02*
X160445319Y-23578843D01*
X160445319Y-23578843D02*
X160397700Y-23674081D01*
X160397700Y-23674081D02*
X160302461Y-23721700D01*
X160302461Y-23721700D02*
X160207223Y-23721700D01*
X160207223Y-23721700D02*
X160111985Y-23674081D01*
X160111985Y-23674081D02*
X160064366Y-23578843D01*
X160064366Y-23578843D02*
X160064366Y-23340748D01*
X160064366Y-23340748D02*
X160016747Y-23245510D01*
X159778652Y-22769319D02*
X160445319Y-22769319D01*
X159873890Y-22769319D02*
X159826271Y-22721700D01*
X159826271Y-22721700D02*
X159778652Y-22626462D01*
X159778652Y-22626462D02*
X159778652Y-22483605D01*
X159778652Y-22483605D02*
X159826271Y-22388367D01*
X159826271Y-22388367D02*
X159921509Y-22340748D01*
X159921509Y-22340748D02*
X160445319Y-22340748D01*
X160397700Y-21483605D02*
X160445319Y-21578843D01*
X160445319Y-21578843D02*
X160445319Y-21769319D01*
X160445319Y-21769319D02*
X160397700Y-21864557D01*
X160397700Y-21864557D02*
X160302461Y-21912176D01*
X160302461Y-21912176D02*
X159921509Y-21912176D01*
X159921509Y-21912176D02*
X159826271Y-21864557D01*
X159826271Y-21864557D02*
X159778652Y-21769319D01*
X159778652Y-21769319D02*
X159778652Y-21578843D01*
X159778652Y-21578843D02*
X159826271Y-21483605D01*
X159826271Y-21483605D02*
X159921509Y-21435986D01*
X159921509Y-21435986D02*
X160016747Y-21435986D01*
X160016747Y-21435986D02*
X160111985Y-21912176D01*
X160445319Y-20864557D02*
X160397700Y-20959795D01*
X160397700Y-20959795D02*
X160302461Y-21007414D01*
X160302461Y-21007414D02*
X159445319Y-21007414D01*
X159445319Y-62249796D02*
X159445319Y-62059320D01*
X159445319Y-62059320D02*
X159492938Y-61964082D01*
X159492938Y-61964082D02*
X159588176Y-61868844D01*
X159588176Y-61868844D02*
X159778652Y-61821225D01*
X159778652Y-61821225D02*
X160111985Y-61821225D01*
X160111985Y-61821225D02*
X160302461Y-61868844D01*
X160302461Y-61868844D02*
X160397700Y-61964082D01*
X160397700Y-61964082D02*
X160445319Y-62059320D01*
X160445319Y-62059320D02*
X160445319Y-62249796D01*
X160445319Y-62249796D02*
X160397700Y-62345034D01*
X160397700Y-62345034D02*
X160302461Y-62440272D01*
X160302461Y-62440272D02*
X160111985Y-62487891D01*
X160111985Y-62487891D02*
X159778652Y-62487891D01*
X159778652Y-62487891D02*
X159588176Y-62440272D01*
X159588176Y-62440272D02*
X159492938Y-62345034D01*
X159492938Y-62345034D02*
X159445319Y-62249796D01*
X159778652Y-60964082D02*
X160445319Y-60964082D01*
X159778652Y-61392653D02*
X160302461Y-61392653D01*
X160302461Y-61392653D02*
X160397700Y-61345034D01*
X160397700Y-61345034D02*
X160445319Y-61249796D01*
X160445319Y-61249796D02*
X160445319Y-61106939D01*
X160445319Y-61106939D02*
X160397700Y-61011701D01*
X160397700Y-61011701D02*
X160350080Y-60964082D01*
X159778652Y-60630748D02*
X159778652Y-60249796D01*
X159445319Y-60487891D02*
X160302461Y-60487891D01*
X160302461Y-60487891D02*
X160397700Y-60440272D01*
X160397700Y-60440272D02*
X160445319Y-60345034D01*
X160445319Y-60345034D02*
X160445319Y-60249796D01*
X159778652Y-59916462D02*
X160778652Y-59916462D01*
X159826271Y-59916462D02*
X159778652Y-59821224D01*
X159778652Y-59821224D02*
X159778652Y-59630748D01*
X159778652Y-59630748D02*
X159826271Y-59535510D01*
X159826271Y-59535510D02*
X159873890Y-59487891D01*
X159873890Y-59487891D02*
X159969128Y-59440272D01*
X159969128Y-59440272D02*
X160254842Y-59440272D01*
X160254842Y-59440272D02*
X160350080Y-59487891D01*
X160350080Y-59487891D02*
X160397700Y-59535510D01*
X160397700Y-59535510D02*
X160445319Y-59630748D01*
X160445319Y-59630748D02*
X160445319Y-59821224D01*
X160445319Y-59821224D02*
X160397700Y-59916462D01*
X159778652Y-58583129D02*
X160445319Y-58583129D01*
X159778652Y-59011700D02*
X160302461Y-59011700D01*
X160302461Y-59011700D02*
X160397700Y-58964081D01*
X160397700Y-58964081D02*
X160445319Y-58868843D01*
X160445319Y-58868843D02*
X160445319Y-58725986D01*
X160445319Y-58725986D02*
X160397700Y-58630748D01*
X160397700Y-58630748D02*
X160350080Y-58583129D01*
X159778652Y-58249795D02*
X159778652Y-57868843D01*
X159445319Y-58106938D02*
X160302461Y-58106938D01*
X160302461Y-58106938D02*
X160397700Y-58059319D01*
X160397700Y-58059319D02*
X160445319Y-57964081D01*
X160445319Y-57964081D02*
X160445319Y-57868843D01*
X141188720Y-109897232D02*
X141188720Y-110897232D01*
X140712530Y-110563899D02*
X140712530Y-109897232D01*
X140712530Y-110468661D02*
X140664911Y-110516280D01*
X140664911Y-110516280D02*
X140569673Y-110563899D01*
X140569673Y-110563899D02*
X140426816Y-110563899D01*
X140426816Y-110563899D02*
X140331578Y-110516280D01*
X140331578Y-110516280D02*
X140283959Y-110421042D01*
X140283959Y-110421042D02*
X140283959Y-109897232D01*
X139807768Y-110563899D02*
X139807768Y-109563899D01*
X139807768Y-110516280D02*
X139712530Y-110563899D01*
X139712530Y-110563899D02*
X139522054Y-110563899D01*
X139522054Y-110563899D02*
X139426816Y-110516280D01*
X139426816Y-110516280D02*
X139379197Y-110468661D01*
X139379197Y-110468661D02*
X139331578Y-110373423D01*
X139331578Y-110373423D02*
X139331578Y-110087709D01*
X139331578Y-110087709D02*
X139379197Y-109992471D01*
X139379197Y-109992471D02*
X139426816Y-109944852D01*
X139426816Y-109944852D02*
X139522054Y-109897232D01*
X139522054Y-109897232D02*
X139712530Y-109897232D01*
X139712530Y-109897232D02*
X139807768Y-109944852D01*
X138474435Y-110563899D02*
X138474435Y-109897232D01*
X138903006Y-110563899D02*
X138903006Y-110040090D01*
X138903006Y-110040090D02*
X138855387Y-109944852D01*
X138855387Y-109944852D02*
X138760149Y-109897232D01*
X138760149Y-109897232D02*
X138617292Y-109897232D01*
X138617292Y-109897232D02*
X138522054Y-109944852D01*
X138522054Y-109944852D02*
X138474435Y-109992471D01*
X138141101Y-110563899D02*
X137760149Y-110563899D01*
X137998244Y-110897232D02*
X137998244Y-110040090D01*
X137998244Y-110040090D02*
X137950625Y-109944852D01*
X137950625Y-109944852D02*
X137855387Y-109897232D01*
X137855387Y-109897232D02*
X137760149Y-109897232D01*
X136141101Y-109897232D02*
X136712529Y-109897232D01*
X136426815Y-109897232D02*
X136426815Y-110897232D01*
X136426815Y-110897232D02*
X136522053Y-110754375D01*
X136522053Y-110754375D02*
X136617291Y-110659137D01*
X136617291Y-110659137D02*
X136712529Y-110611518D01*
X179495319Y-67520272D02*
X178495319Y-67520272D01*
X178495319Y-67520272D02*
X179209604Y-67186939D01*
X179209604Y-67186939D02*
X178495319Y-66853606D01*
X178495319Y-66853606D02*
X179495319Y-66853606D01*
X178828652Y-65948844D02*
X179495319Y-65948844D01*
X178828652Y-66377415D02*
X179352461Y-66377415D01*
X179352461Y-66377415D02*
X179447700Y-66329796D01*
X179447700Y-66329796D02*
X179495319Y-66234558D01*
X179495319Y-66234558D02*
X179495319Y-66091701D01*
X179495319Y-66091701D02*
X179447700Y-65996463D01*
X179447700Y-65996463D02*
X179400080Y-65948844D01*
X178828652Y-65615510D02*
X178828652Y-65234558D01*
X178495319Y-65472653D02*
X179352461Y-65472653D01*
X179352461Y-65472653D02*
X179447700Y-65425034D01*
X179447700Y-65425034D02*
X179495319Y-65329796D01*
X179495319Y-65329796D02*
X179495319Y-65234558D01*
X179447700Y-64520272D02*
X179495319Y-64615510D01*
X179495319Y-64615510D02*
X179495319Y-64805986D01*
X179495319Y-64805986D02*
X179447700Y-64901224D01*
X179447700Y-64901224D02*
X179352461Y-64948843D01*
X179352461Y-64948843D02*
X178971509Y-64948843D01*
X178971509Y-64948843D02*
X178876271Y-64901224D01*
X178876271Y-64901224D02*
X178828652Y-64805986D01*
X178828652Y-64805986D02*
X178828652Y-64615510D01*
X178828652Y-64615510D02*
X178876271Y-64520272D01*
X178876271Y-64520272D02*
X178971509Y-64472653D01*
X178971509Y-64472653D02*
X179066747Y-64472653D01*
X179066747Y-64472653D02*
X179161985Y-64948843D01*
X179447700Y-63329795D02*
X179495319Y-63186938D01*
X179495319Y-63186938D02*
X179495319Y-62948843D01*
X179495319Y-62948843D02*
X179447700Y-62853605D01*
X179447700Y-62853605D02*
X179400080Y-62805986D01*
X179400080Y-62805986D02*
X179304842Y-62758367D01*
X179304842Y-62758367D02*
X179209604Y-62758367D01*
X179209604Y-62758367D02*
X179114366Y-62805986D01*
X179114366Y-62805986D02*
X179066747Y-62853605D01*
X179066747Y-62853605D02*
X179019128Y-62948843D01*
X179019128Y-62948843D02*
X178971509Y-63139319D01*
X178971509Y-63139319D02*
X178923890Y-63234557D01*
X178923890Y-63234557D02*
X178876271Y-63282176D01*
X178876271Y-63282176D02*
X178781033Y-63329795D01*
X178781033Y-63329795D02*
X178685795Y-63329795D01*
X178685795Y-63329795D02*
X178590557Y-63282176D01*
X178590557Y-63282176D02*
X178542938Y-63234557D01*
X178542938Y-63234557D02*
X178495319Y-63139319D01*
X178495319Y-63139319D02*
X178495319Y-62901224D01*
X178495319Y-62901224D02*
X178542938Y-62758367D01*
X178828652Y-62425033D02*
X179495319Y-62234557D01*
X179495319Y-62234557D02*
X179019128Y-62044081D01*
X179019128Y-62044081D02*
X179495319Y-61853605D01*
X179495319Y-61853605D02*
X178828652Y-61663129D01*
X179495319Y-61282176D02*
X178828652Y-61282176D01*
X178495319Y-61282176D02*
X178542938Y-61329795D01*
X178542938Y-61329795D02*
X178590557Y-61282176D01*
X178590557Y-61282176D02*
X178542938Y-61234557D01*
X178542938Y-61234557D02*
X178495319Y-61282176D01*
X178495319Y-61282176D02*
X178590557Y-61282176D01*
X178828652Y-60948843D02*
X178828652Y-60567891D01*
X178495319Y-60805986D02*
X179352461Y-60805986D01*
X179352461Y-60805986D02*
X179447700Y-60758367D01*
X179447700Y-60758367D02*
X179495319Y-60663129D01*
X179495319Y-60663129D02*
X179495319Y-60567891D01*
X179447700Y-59805986D02*
X179495319Y-59901224D01*
X179495319Y-59901224D02*
X179495319Y-60091700D01*
X179495319Y-60091700D02*
X179447700Y-60186938D01*
X179447700Y-60186938D02*
X179400080Y-60234557D01*
X179400080Y-60234557D02*
X179304842Y-60282176D01*
X179304842Y-60282176D02*
X179019128Y-60282176D01*
X179019128Y-60282176D02*
X178923890Y-60234557D01*
X178923890Y-60234557D02*
X178876271Y-60186938D01*
X178876271Y-60186938D02*
X178828652Y-60091700D01*
X178828652Y-60091700D02*
X178828652Y-59901224D01*
X178828652Y-59901224D02*
X178876271Y-59805986D01*
X179495319Y-59377414D02*
X178495319Y-59377414D01*
X179495319Y-58948843D02*
X178971509Y-58948843D01*
X178971509Y-58948843D02*
X178876271Y-58996462D01*
X178876271Y-58996462D02*
X178828652Y-59091700D01*
X178828652Y-59091700D02*
X178828652Y-59234557D01*
X178828652Y-59234557D02*
X178876271Y-59329795D01*
X178876271Y-59329795D02*
X178923890Y-59377414D01*
X179495319Y-85300272D02*
X178495319Y-85300272D01*
X178828652Y-84824082D02*
X179495319Y-84824082D01*
X178923890Y-84824082D02*
X178876271Y-84776463D01*
X178876271Y-84776463D02*
X178828652Y-84681225D01*
X178828652Y-84681225D02*
X178828652Y-84538368D01*
X178828652Y-84538368D02*
X178876271Y-84443130D01*
X178876271Y-84443130D02*
X178971509Y-84395511D01*
X178971509Y-84395511D02*
X179495319Y-84395511D01*
X178828652Y-83919320D02*
X179828652Y-83919320D01*
X178876271Y-83919320D02*
X178828652Y-83824082D01*
X178828652Y-83824082D02*
X178828652Y-83633606D01*
X178828652Y-83633606D02*
X178876271Y-83538368D01*
X178876271Y-83538368D02*
X178923890Y-83490749D01*
X178923890Y-83490749D02*
X179019128Y-83443130D01*
X179019128Y-83443130D02*
X179304842Y-83443130D01*
X179304842Y-83443130D02*
X179400080Y-83490749D01*
X179400080Y-83490749D02*
X179447700Y-83538368D01*
X179447700Y-83538368D02*
X179495319Y-83633606D01*
X179495319Y-83633606D02*
X179495319Y-83824082D01*
X179495319Y-83824082D02*
X179447700Y-83919320D01*
X178828652Y-82585987D02*
X179495319Y-82585987D01*
X178828652Y-83014558D02*
X179352461Y-83014558D01*
X179352461Y-83014558D02*
X179447700Y-82966939D01*
X179447700Y-82966939D02*
X179495319Y-82871701D01*
X179495319Y-82871701D02*
X179495319Y-82728844D01*
X179495319Y-82728844D02*
X179447700Y-82633606D01*
X179447700Y-82633606D02*
X179400080Y-82585987D01*
X178828652Y-82252653D02*
X178828652Y-81871701D01*
X178495319Y-82109796D02*
X179352461Y-82109796D01*
X179352461Y-82109796D02*
X179447700Y-82062177D01*
X179447700Y-82062177D02*
X179495319Y-81966939D01*
X179495319Y-81966939D02*
X179495319Y-81871701D01*
X179447700Y-80824081D02*
X179495319Y-80681224D01*
X179495319Y-80681224D02*
X179495319Y-80443129D01*
X179495319Y-80443129D02*
X179447700Y-80347891D01*
X179447700Y-80347891D02*
X179400080Y-80300272D01*
X179400080Y-80300272D02*
X179304842Y-80252653D01*
X179304842Y-80252653D02*
X179209604Y-80252653D01*
X179209604Y-80252653D02*
X179114366Y-80300272D01*
X179114366Y-80300272D02*
X179066747Y-80347891D01*
X179066747Y-80347891D02*
X179019128Y-80443129D01*
X179019128Y-80443129D02*
X178971509Y-80633605D01*
X178971509Y-80633605D02*
X178923890Y-80728843D01*
X178923890Y-80728843D02*
X178876271Y-80776462D01*
X178876271Y-80776462D02*
X178781033Y-80824081D01*
X178781033Y-80824081D02*
X178685795Y-80824081D01*
X178685795Y-80824081D02*
X178590557Y-80776462D01*
X178590557Y-80776462D02*
X178542938Y-80728843D01*
X178542938Y-80728843D02*
X178495319Y-80633605D01*
X178495319Y-80633605D02*
X178495319Y-80395510D01*
X178495319Y-80395510D02*
X178542938Y-80252653D01*
X178828652Y-79919319D02*
X179495319Y-79728843D01*
X179495319Y-79728843D02*
X179019128Y-79538367D01*
X179019128Y-79538367D02*
X179495319Y-79347891D01*
X179495319Y-79347891D02*
X178828652Y-79157415D01*
X179495319Y-78776462D02*
X178828652Y-78776462D01*
X178495319Y-78776462D02*
X178542938Y-78824081D01*
X178542938Y-78824081D02*
X178590557Y-78776462D01*
X178590557Y-78776462D02*
X178542938Y-78728843D01*
X178542938Y-78728843D02*
X178495319Y-78776462D01*
X178495319Y-78776462D02*
X178590557Y-78776462D01*
X178828652Y-78443129D02*
X178828652Y-78062177D01*
X178495319Y-78300272D02*
X179352461Y-78300272D01*
X179352461Y-78300272D02*
X179447700Y-78252653D01*
X179447700Y-78252653D02*
X179495319Y-78157415D01*
X179495319Y-78157415D02*
X179495319Y-78062177D01*
X179447700Y-77300272D02*
X179495319Y-77395510D01*
X179495319Y-77395510D02*
X179495319Y-77585986D01*
X179495319Y-77585986D02*
X179447700Y-77681224D01*
X179447700Y-77681224D02*
X179400080Y-77728843D01*
X179400080Y-77728843D02*
X179304842Y-77776462D01*
X179304842Y-77776462D02*
X179019128Y-77776462D01*
X179019128Y-77776462D02*
X178923890Y-77728843D01*
X178923890Y-77728843D02*
X178876271Y-77681224D01*
X178876271Y-77681224D02*
X178828652Y-77585986D01*
X178828652Y-77585986D02*
X178828652Y-77395510D01*
X178828652Y-77395510D02*
X178876271Y-77300272D01*
X179495319Y-76871700D02*
X178495319Y-76871700D01*
X179495319Y-76443129D02*
X178971509Y-76443129D01*
X178971509Y-76443129D02*
X178876271Y-76490748D01*
X178876271Y-76490748D02*
X178828652Y-76585986D01*
X178828652Y-76585986D02*
X178828652Y-76728843D01*
X178828652Y-76728843D02*
X178876271Y-76824081D01*
X178876271Y-76824081D02*
X178923890Y-76871700D01*
X178495319Y-103874082D02*
X178495319Y-104350272D01*
X178495319Y-104350272D02*
X178971509Y-104397891D01*
X178971509Y-104397891D02*
X178923890Y-104350272D01*
X178923890Y-104350272D02*
X178876271Y-104255034D01*
X178876271Y-104255034D02*
X178876271Y-104016939D01*
X178876271Y-104016939D02*
X178923890Y-103921701D01*
X178923890Y-103921701D02*
X178971509Y-103874082D01*
X178971509Y-103874082D02*
X179066747Y-103826463D01*
X179066747Y-103826463D02*
X179304842Y-103826463D01*
X179304842Y-103826463D02*
X179400080Y-103874082D01*
X179400080Y-103874082D02*
X179447700Y-103921701D01*
X179447700Y-103921701D02*
X179495319Y-104016939D01*
X179495319Y-104016939D02*
X179495319Y-104255034D01*
X179495319Y-104255034D02*
X179447700Y-104350272D01*
X179447700Y-104350272D02*
X179400080Y-104397891D01*
X178495319Y-103540748D02*
X179495319Y-103207415D01*
X179495319Y-103207415D02*
X178495319Y-102874082D01*
X179495319Y-101778843D02*
X178495319Y-101778843D01*
X178495319Y-101778843D02*
X178495319Y-101540748D01*
X178495319Y-101540748D02*
X178542938Y-101397891D01*
X178542938Y-101397891D02*
X178638176Y-101302653D01*
X178638176Y-101302653D02*
X178733414Y-101255034D01*
X178733414Y-101255034D02*
X178923890Y-101207415D01*
X178923890Y-101207415D02*
X179066747Y-101207415D01*
X179066747Y-101207415D02*
X179257223Y-101255034D01*
X179257223Y-101255034D02*
X179352461Y-101302653D01*
X179352461Y-101302653D02*
X179447700Y-101397891D01*
X179447700Y-101397891D02*
X179495319Y-101540748D01*
X179495319Y-101540748D02*
X179495319Y-101778843D01*
X179400080Y-100207415D02*
X179447700Y-100255034D01*
X179447700Y-100255034D02*
X179495319Y-100397891D01*
X179495319Y-100397891D02*
X179495319Y-100493129D01*
X179495319Y-100493129D02*
X179447700Y-100635986D01*
X179447700Y-100635986D02*
X179352461Y-100731224D01*
X179352461Y-100731224D02*
X179257223Y-100778843D01*
X179257223Y-100778843D02*
X179066747Y-100826462D01*
X179066747Y-100826462D02*
X178923890Y-100826462D01*
X178923890Y-100826462D02*
X178733414Y-100778843D01*
X178733414Y-100778843D02*
X178638176Y-100731224D01*
X178638176Y-100731224D02*
X178542938Y-100635986D01*
X178542938Y-100635986D02*
X178495319Y-100493129D01*
X178495319Y-100493129D02*
X178495319Y-100397891D01*
X178495319Y-100397891D02*
X178542938Y-100255034D01*
X178542938Y-100255034D02*
X178590557Y-100207415D01*
X179495319Y-99016938D02*
X178495319Y-99016938D01*
X178828652Y-98540748D02*
X179495319Y-98540748D01*
X178923890Y-98540748D02*
X178876271Y-98493129D01*
X178876271Y-98493129D02*
X178828652Y-98397891D01*
X178828652Y-98397891D02*
X178828652Y-98255034D01*
X178828652Y-98255034D02*
X178876271Y-98159796D01*
X178876271Y-98159796D02*
X178971509Y-98112177D01*
X178971509Y-98112177D02*
X179495319Y-98112177D01*
X17854819Y-155106666D02*
X17378628Y-155439999D01*
X17854819Y-155678094D02*
X16854819Y-155678094D01*
X16854819Y-155678094D02*
X16854819Y-155297142D01*
X16854819Y-155297142D02*
X16902438Y-155201904D01*
X16902438Y-155201904D02*
X16950057Y-155154285D01*
X16950057Y-155154285D02*
X17045295Y-155106666D01*
X17045295Y-155106666D02*
X17188152Y-155106666D01*
X17188152Y-155106666D02*
X17283390Y-155154285D01*
X17283390Y-155154285D02*
X17331009Y-155201904D01*
X17331009Y-155201904D02*
X17378628Y-155297142D01*
X17378628Y-155297142D02*
X17378628Y-155678094D01*
X16854819Y-154201904D02*
X16854819Y-154678094D01*
X16854819Y-154678094D02*
X17331009Y-154725713D01*
X17331009Y-154725713D02*
X17283390Y-154678094D01*
X17283390Y-154678094D02*
X17235771Y-154582856D01*
X17235771Y-154582856D02*
X17235771Y-154344761D01*
X17235771Y-154344761D02*
X17283390Y-154249523D01*
X17283390Y-154249523D02*
X17331009Y-154201904D01*
X17331009Y-154201904D02*
X17426247Y-154154285D01*
X17426247Y-154154285D02*
X17664342Y-154154285D01*
X17664342Y-154154285D02*
X17759580Y-154201904D01*
X17759580Y-154201904D02*
X17807200Y-154249523D01*
X17807200Y-154249523D02*
X17854819Y-154344761D01*
X17854819Y-154344761D02*
X17854819Y-154582856D01*
X17854819Y-154582856D02*
X17807200Y-154678094D01*
X17807200Y-154678094D02*
X17759580Y-154725713D01*
X27992666Y-100762819D02*
X27992666Y-101477104D01*
X27992666Y-101477104D02*
X27945047Y-101619961D01*
X27945047Y-101619961D02*
X27849809Y-101715200D01*
X27849809Y-101715200D02*
X27706952Y-101762819D01*
X27706952Y-101762819D02*
X27611714Y-101762819D01*
X28897428Y-100762819D02*
X28706952Y-100762819D01*
X28706952Y-100762819D02*
X28611714Y-100810438D01*
X28611714Y-100810438D02*
X28564095Y-100858057D01*
X28564095Y-100858057D02*
X28468857Y-101000914D01*
X28468857Y-101000914D02*
X28421238Y-101191390D01*
X28421238Y-101191390D02*
X28421238Y-101572342D01*
X28421238Y-101572342D02*
X28468857Y-101667580D01*
X28468857Y-101667580D02*
X28516476Y-101715200D01*
X28516476Y-101715200D02*
X28611714Y-101762819D01*
X28611714Y-101762819D02*
X28802190Y-101762819D01*
X28802190Y-101762819D02*
X28897428Y-101715200D01*
X28897428Y-101715200D02*
X28945047Y-101667580D01*
X28945047Y-101667580D02*
X28992666Y-101572342D01*
X28992666Y-101572342D02*
X28992666Y-101334247D01*
X28992666Y-101334247D02*
X28945047Y-101239009D01*
X28945047Y-101239009D02*
X28897428Y-101191390D01*
X28897428Y-101191390D02*
X28802190Y-101143771D01*
X28802190Y-101143771D02*
X28611714Y-101143771D01*
X28611714Y-101143771D02*
X28516476Y-101191390D01*
X28516476Y-101191390D02*
X28468857Y-101239009D01*
X28468857Y-101239009D02*
X28421238Y-101334247D01*
X131548405Y-150502871D02*
X131548405Y-149502871D01*
X132119833Y-150502871D02*
X131691262Y-149931442D01*
X132119833Y-149502871D02*
X131548405Y-150074299D01*
X132500786Y-149598109D02*
X132548405Y-149550490D01*
X132548405Y-149550490D02*
X132643643Y-149502871D01*
X132643643Y-149502871D02*
X132881738Y-149502871D01*
X132881738Y-149502871D02*
X132976976Y-149550490D01*
X132976976Y-149550490D02*
X133024595Y-149598109D01*
X133024595Y-149598109D02*
X133072214Y-149693347D01*
X133072214Y-149693347D02*
X133072214Y-149788585D01*
X133072214Y-149788585D02*
X133024595Y-149931442D01*
X133024595Y-149931442D02*
X132453167Y-150502871D01*
X132453167Y-150502871D02*
X133072214Y-150502871D01*
X171530319Y-59268575D02*
X172244604Y-59268575D01*
X172244604Y-59268575D02*
X172387461Y-59316194D01*
X172387461Y-59316194D02*
X172482700Y-59411432D01*
X172482700Y-59411432D02*
X172530319Y-59554289D01*
X172530319Y-59554289D02*
X172530319Y-59649527D01*
X171863652Y-58363813D02*
X172530319Y-58363813D01*
X171482700Y-58601908D02*
X172196985Y-58840003D01*
X172196985Y-58840003D02*
X172196985Y-58220956D01*
X171530319Y-57649527D02*
X171530319Y-57554289D01*
X171530319Y-57554289D02*
X171577938Y-57459051D01*
X171577938Y-57459051D02*
X171625557Y-57411432D01*
X171625557Y-57411432D02*
X171720795Y-57363813D01*
X171720795Y-57363813D02*
X171911271Y-57316194D01*
X171911271Y-57316194D02*
X172149366Y-57316194D01*
X172149366Y-57316194D02*
X172339842Y-57363813D01*
X172339842Y-57363813D02*
X172435080Y-57411432D01*
X172435080Y-57411432D02*
X172482700Y-57459051D01*
X172482700Y-57459051D02*
X172530319Y-57554289D01*
X172530319Y-57554289D02*
X172530319Y-57649527D01*
X172530319Y-57649527D02*
X172482700Y-57744765D01*
X172482700Y-57744765D02*
X172435080Y-57792384D01*
X172435080Y-57792384D02*
X172339842Y-57840003D01*
X172339842Y-57840003D02*
X172149366Y-57887622D01*
X172149366Y-57887622D02*
X171911271Y-57887622D01*
X171911271Y-57887622D02*
X171720795Y-57840003D01*
X171720795Y-57840003D02*
X171625557Y-57792384D01*
X171625557Y-57792384D02*
X171577938Y-57744765D01*
X171577938Y-57744765D02*
X171530319Y-57649527D01*
X134596166Y-60177871D02*
X134596166Y-60892156D01*
X134596166Y-60892156D02*
X134548547Y-61035013D01*
X134548547Y-61035013D02*
X134453309Y-61130252D01*
X134453309Y-61130252D02*
X134310452Y-61177871D01*
X134310452Y-61177871D02*
X134215214Y-61177871D01*
X135072357Y-61177871D02*
X135072357Y-60177871D01*
X135072357Y-60177871D02*
X135453309Y-60177871D01*
X135453309Y-60177871D02*
X135548547Y-60225490D01*
X135548547Y-60225490D02*
X135596166Y-60273109D01*
X135596166Y-60273109D02*
X135643785Y-60368347D01*
X135643785Y-60368347D02*
X135643785Y-60511204D01*
X135643785Y-60511204D02*
X135596166Y-60606442D01*
X135596166Y-60606442D02*
X135548547Y-60654061D01*
X135548547Y-60654061D02*
X135453309Y-60701680D01*
X135453309Y-60701680D02*
X135072357Y-60701680D01*
X135977119Y-60177871D02*
X136643785Y-60177871D01*
X136643785Y-60177871D02*
X136215214Y-61177871D01*
X70644819Y-94789523D02*
X71359104Y-94789523D01*
X71359104Y-94789523D02*
X71501961Y-94837142D01*
X71501961Y-94837142D02*
X71597200Y-94932380D01*
X71597200Y-94932380D02*
X71644819Y-95075237D01*
X71644819Y-95075237D02*
X71644819Y-95170475D01*
X70740057Y-94360951D02*
X70692438Y-94313332D01*
X70692438Y-94313332D02*
X70644819Y-94218094D01*
X70644819Y-94218094D02*
X70644819Y-93979999D01*
X70644819Y-93979999D02*
X70692438Y-93884761D01*
X70692438Y-93884761D02*
X70740057Y-93837142D01*
X70740057Y-93837142D02*
X70835295Y-93789523D01*
X70835295Y-93789523D02*
X70930533Y-93789523D01*
X70930533Y-93789523D02*
X71073390Y-93837142D01*
X71073390Y-93837142D02*
X71644819Y-94408570D01*
X71644819Y-94408570D02*
X71644819Y-93789523D01*
X70740057Y-93408570D02*
X70692438Y-93360951D01*
X70692438Y-93360951D02*
X70644819Y-93265713D01*
X70644819Y-93265713D02*
X70644819Y-93027618D01*
X70644819Y-93027618D02*
X70692438Y-92932380D01*
X70692438Y-92932380D02*
X70740057Y-92884761D01*
X70740057Y-92884761D02*
X70835295Y-92837142D01*
X70835295Y-92837142D02*
X70930533Y-92837142D01*
X70930533Y-92837142D02*
X71073390Y-92884761D01*
X71073390Y-92884761D02*
X71644819Y-93456189D01*
X71644819Y-93456189D02*
X71644819Y-92837142D01*
X134596166Y-13949871D02*
X134596166Y-14664156D01*
X134596166Y-14664156D02*
X134548547Y-14807013D01*
X134548547Y-14807013D02*
X134453309Y-14902252D01*
X134453309Y-14902252D02*
X134310452Y-14949871D01*
X134310452Y-14949871D02*
X134215214Y-14949871D01*
X135072357Y-14949871D02*
X135072357Y-13949871D01*
X135072357Y-13949871D02*
X135453309Y-13949871D01*
X135453309Y-13949871D02*
X135548547Y-13997490D01*
X135548547Y-13997490D02*
X135596166Y-14045109D01*
X135596166Y-14045109D02*
X135643785Y-14140347D01*
X135643785Y-14140347D02*
X135643785Y-14283204D01*
X135643785Y-14283204D02*
X135596166Y-14378442D01*
X135596166Y-14378442D02*
X135548547Y-14426061D01*
X135548547Y-14426061D02*
X135453309Y-14473680D01*
X135453309Y-14473680D02*
X135072357Y-14473680D01*
X136548547Y-13949871D02*
X136072357Y-13949871D01*
X136072357Y-13949871D02*
X136024738Y-14426061D01*
X136024738Y-14426061D02*
X136072357Y-14378442D01*
X136072357Y-14378442D02*
X136167595Y-14330823D01*
X136167595Y-14330823D02*
X136405690Y-14330823D01*
X136405690Y-14330823D02*
X136500928Y-14378442D01*
X136500928Y-14378442D02*
X136548547Y-14426061D01*
X136548547Y-14426061D02*
X136596166Y-14521299D01*
X136596166Y-14521299D02*
X136596166Y-14759394D01*
X136596166Y-14759394D02*
X136548547Y-14854632D01*
X136548547Y-14854632D02*
X136500928Y-14902252D01*
X136500928Y-14902252D02*
X136405690Y-14949871D01*
X136405690Y-14949871D02*
X136167595Y-14949871D01*
X136167595Y-14949871D02*
X136072357Y-14902252D01*
X136072357Y-14902252D02*
X136024738Y-14854632D01*
X130844319Y-114926385D02*
X131558604Y-114926385D01*
X131558604Y-114926385D02*
X131701461Y-114974004D01*
X131701461Y-114974004D02*
X131796700Y-115069242D01*
X131796700Y-115069242D02*
X131844319Y-115212099D01*
X131844319Y-115212099D02*
X131844319Y-115307337D01*
X131844319Y-113926385D02*
X131844319Y-114497813D01*
X131844319Y-114212099D02*
X130844319Y-114212099D01*
X130844319Y-114212099D02*
X130987176Y-114307337D01*
X130987176Y-114307337D02*
X131082414Y-114402575D01*
X131082414Y-114402575D02*
X131130033Y-114497813D01*
X142104166Y-37063871D02*
X142104166Y-37778156D01*
X142104166Y-37778156D02*
X142056547Y-37921013D01*
X142056547Y-37921013D02*
X141961309Y-38016252D01*
X141961309Y-38016252D02*
X141818452Y-38063871D01*
X141818452Y-38063871D02*
X141723214Y-38063871D01*
X142580357Y-38063871D02*
X142580357Y-37063871D01*
X142580357Y-37063871D02*
X142961309Y-37063871D01*
X142961309Y-37063871D02*
X143056547Y-37111490D01*
X143056547Y-37111490D02*
X143104166Y-37159109D01*
X143104166Y-37159109D02*
X143151785Y-37254347D01*
X143151785Y-37254347D02*
X143151785Y-37397204D01*
X143151785Y-37397204D02*
X143104166Y-37492442D01*
X143104166Y-37492442D02*
X143056547Y-37540061D01*
X143056547Y-37540061D02*
X142961309Y-37587680D01*
X142961309Y-37587680D02*
X142580357Y-37587680D01*
X143532738Y-37159109D02*
X143580357Y-37111490D01*
X143580357Y-37111490D02*
X143675595Y-37063871D01*
X143675595Y-37063871D02*
X143913690Y-37063871D01*
X143913690Y-37063871D02*
X144008928Y-37111490D01*
X144008928Y-37111490D02*
X144056547Y-37159109D01*
X144056547Y-37159109D02*
X144104166Y-37254347D01*
X144104166Y-37254347D02*
X144104166Y-37349585D01*
X144104166Y-37349585D02*
X144056547Y-37492442D01*
X144056547Y-37492442D02*
X143485119Y-38063871D01*
X143485119Y-38063871D02*
X144104166Y-38063871D01*
X132622319Y-49037146D02*
X131622319Y-49037146D01*
X132622319Y-48465718D02*
X132050890Y-48894289D01*
X131622319Y-48465718D02*
X132193747Y-49037146D01*
X131622319Y-48132384D02*
X131622319Y-47513337D01*
X131622319Y-47513337D02*
X132003271Y-47846670D01*
X132003271Y-47846670D02*
X132003271Y-47703813D01*
X132003271Y-47703813D02*
X132050890Y-47608575D01*
X132050890Y-47608575D02*
X132098509Y-47560956D01*
X132098509Y-47560956D02*
X132193747Y-47513337D01*
X132193747Y-47513337D02*
X132431842Y-47513337D01*
X132431842Y-47513337D02*
X132527080Y-47560956D01*
X132527080Y-47560956D02*
X132574700Y-47608575D01*
X132574700Y-47608575D02*
X132622319Y-47703813D01*
X132622319Y-47703813D02*
X132622319Y-47989527D01*
X132622319Y-47989527D02*
X132574700Y-48084765D01*
X132574700Y-48084765D02*
X132527080Y-48132384D01*
X42436905Y-143814819D02*
X42436905Y-142814819D01*
X42436905Y-142814819D02*
X42675000Y-142814819D01*
X42675000Y-142814819D02*
X42817857Y-142862438D01*
X42817857Y-142862438D02*
X42913095Y-142957676D01*
X42913095Y-142957676D02*
X42960714Y-143052914D01*
X42960714Y-143052914D02*
X43008333Y-143243390D01*
X43008333Y-143243390D02*
X43008333Y-143386247D01*
X43008333Y-143386247D02*
X42960714Y-143576723D01*
X42960714Y-143576723D02*
X42913095Y-143671961D01*
X42913095Y-143671961D02*
X42817857Y-143767200D01*
X42817857Y-143767200D02*
X42675000Y-143814819D01*
X42675000Y-143814819D02*
X42436905Y-143814819D01*
X43389286Y-142910057D02*
X43436905Y-142862438D01*
X43436905Y-142862438D02*
X43532143Y-142814819D01*
X43532143Y-142814819D02*
X43770238Y-142814819D01*
X43770238Y-142814819D02*
X43865476Y-142862438D01*
X43865476Y-142862438D02*
X43913095Y-142910057D01*
X43913095Y-142910057D02*
X43960714Y-143005295D01*
X43960714Y-143005295D02*
X43960714Y-143100533D01*
X43960714Y-143100533D02*
X43913095Y-143243390D01*
X43913095Y-143243390D02*
X43341667Y-143814819D01*
X43341667Y-143814819D02*
X43960714Y-143814819D01*
X82420476Y-15902819D02*
X82420476Y-16617104D01*
X82420476Y-16617104D02*
X82372857Y-16759961D01*
X82372857Y-16759961D02*
X82277619Y-16855200D01*
X82277619Y-16855200D02*
X82134762Y-16902819D01*
X82134762Y-16902819D02*
X82039524Y-16902819D01*
X83420476Y-16902819D02*
X82849048Y-16902819D01*
X83134762Y-16902819D02*
X83134762Y-15902819D01*
X83134762Y-15902819D02*
X83039524Y-16045676D01*
X83039524Y-16045676D02*
X82944286Y-16140914D01*
X82944286Y-16140914D02*
X82849048Y-16188533D01*
X84325238Y-15902819D02*
X83849048Y-15902819D01*
X83849048Y-15902819D02*
X83801429Y-16379009D01*
X83801429Y-16379009D02*
X83849048Y-16331390D01*
X83849048Y-16331390D02*
X83944286Y-16283771D01*
X83944286Y-16283771D02*
X84182381Y-16283771D01*
X84182381Y-16283771D02*
X84277619Y-16331390D01*
X84277619Y-16331390D02*
X84325238Y-16379009D01*
X84325238Y-16379009D02*
X84372857Y-16474247D01*
X84372857Y-16474247D02*
X84372857Y-16712342D01*
X84372857Y-16712342D02*
X84325238Y-16807580D01*
X84325238Y-16807580D02*
X84277619Y-16855200D01*
X84277619Y-16855200D02*
X84182381Y-16902819D01*
X84182381Y-16902819D02*
X83944286Y-16902819D01*
X83944286Y-16902819D02*
X83849048Y-16855200D01*
X83849048Y-16855200D02*
X83801429Y-16807580D01*
X43254819Y-155106666D02*
X42778628Y-155439999D01*
X43254819Y-155678094D02*
X42254819Y-155678094D01*
X42254819Y-155678094D02*
X42254819Y-155297142D01*
X42254819Y-155297142D02*
X42302438Y-155201904D01*
X42302438Y-155201904D02*
X42350057Y-155154285D01*
X42350057Y-155154285D02*
X42445295Y-155106666D01*
X42445295Y-155106666D02*
X42588152Y-155106666D01*
X42588152Y-155106666D02*
X42683390Y-155154285D01*
X42683390Y-155154285D02*
X42731009Y-155201904D01*
X42731009Y-155201904D02*
X42778628Y-155297142D01*
X42778628Y-155297142D02*
X42778628Y-155678094D01*
X42588152Y-154249523D02*
X43254819Y-154249523D01*
X42207200Y-154487618D02*
X42921485Y-154725713D01*
X42921485Y-154725713D02*
X42921485Y-154106666D01*
X133865976Y-35329871D02*
X133865976Y-36044156D01*
X133865976Y-36044156D02*
X133818357Y-36187013D01*
X133818357Y-36187013D02*
X133723119Y-36282252D01*
X133723119Y-36282252D02*
X133580262Y-36329871D01*
X133580262Y-36329871D02*
X133485024Y-36329871D01*
X134342167Y-36329871D02*
X134342167Y-35329871D01*
X134342167Y-35329871D02*
X134723119Y-35329871D01*
X134723119Y-35329871D02*
X134818357Y-35377490D01*
X134818357Y-35377490D02*
X134865976Y-35425109D01*
X134865976Y-35425109D02*
X134913595Y-35520347D01*
X134913595Y-35520347D02*
X134913595Y-35663204D01*
X134913595Y-35663204D02*
X134865976Y-35758442D01*
X134865976Y-35758442D02*
X134818357Y-35806061D01*
X134818357Y-35806061D02*
X134723119Y-35853680D01*
X134723119Y-35853680D02*
X134342167Y-35853680D01*
X135865976Y-36329871D02*
X135294548Y-36329871D01*
X135580262Y-36329871D02*
X135580262Y-35329871D01*
X135580262Y-35329871D02*
X135485024Y-35472728D01*
X135485024Y-35472728D02*
X135389786Y-35567966D01*
X135389786Y-35567966D02*
X135294548Y-35615585D01*
X136199310Y-35329871D02*
X136818357Y-35329871D01*
X136818357Y-35329871D02*
X136485024Y-35710823D01*
X136485024Y-35710823D02*
X136627881Y-35710823D01*
X136627881Y-35710823D02*
X136723119Y-35758442D01*
X136723119Y-35758442D02*
X136770738Y-35806061D01*
X136770738Y-35806061D02*
X136818357Y-35901299D01*
X136818357Y-35901299D02*
X136818357Y-36139394D01*
X136818357Y-36139394D02*
X136770738Y-36234632D01*
X136770738Y-36234632D02*
X136723119Y-36282252D01*
X136723119Y-36282252D02*
X136627881Y-36329871D01*
X136627881Y-36329871D02*
X136342167Y-36329871D01*
X136342167Y-36329871D02*
X136246929Y-36282252D01*
X136246929Y-36282252D02*
X136199310Y-36234632D01*
X81960666Y-57582819D02*
X81960666Y-58297104D01*
X81960666Y-58297104D02*
X81913047Y-58439961D01*
X81913047Y-58439961D02*
X81817809Y-58535200D01*
X81817809Y-58535200D02*
X81674952Y-58582819D01*
X81674952Y-58582819D02*
X81579714Y-58582819D01*
X82484476Y-58582819D02*
X82674952Y-58582819D01*
X82674952Y-58582819D02*
X82770190Y-58535200D01*
X82770190Y-58535200D02*
X82817809Y-58487580D01*
X82817809Y-58487580D02*
X82913047Y-58344723D01*
X82913047Y-58344723D02*
X82960666Y-58154247D01*
X82960666Y-58154247D02*
X82960666Y-57773295D01*
X82960666Y-57773295D02*
X82913047Y-57678057D01*
X82913047Y-57678057D02*
X82865428Y-57630438D01*
X82865428Y-57630438D02*
X82770190Y-57582819D01*
X82770190Y-57582819D02*
X82579714Y-57582819D01*
X82579714Y-57582819D02*
X82484476Y-57630438D01*
X82484476Y-57630438D02*
X82436857Y-57678057D01*
X82436857Y-57678057D02*
X82389238Y-57773295D01*
X82389238Y-57773295D02*
X82389238Y-58011390D01*
X82389238Y-58011390D02*
X82436857Y-58106628D01*
X82436857Y-58106628D02*
X82484476Y-58154247D01*
X82484476Y-58154247D02*
X82579714Y-58201866D01*
X82579714Y-58201866D02*
X82770190Y-58201866D01*
X82770190Y-58201866D02*
X82865428Y-58154247D01*
X82865428Y-58154247D02*
X82913047Y-58106628D01*
X82913047Y-58106628D02*
X82960666Y-58011390D01*
X128010319Y-95011146D02*
X127010319Y-95011146D01*
X127010319Y-95011146D02*
X127010319Y-94773051D01*
X127010319Y-94773051D02*
X127057938Y-94630194D01*
X127057938Y-94630194D02*
X127153176Y-94534956D01*
X127153176Y-94534956D02*
X127248414Y-94487337D01*
X127248414Y-94487337D02*
X127438890Y-94439718D01*
X127438890Y-94439718D02*
X127581747Y-94439718D01*
X127581747Y-94439718D02*
X127772223Y-94487337D01*
X127772223Y-94487337D02*
X127867461Y-94534956D01*
X127867461Y-94534956D02*
X127962700Y-94630194D01*
X127962700Y-94630194D02*
X128010319Y-94773051D01*
X128010319Y-94773051D02*
X128010319Y-95011146D01*
X127438890Y-93868289D02*
X127391271Y-93963527D01*
X127391271Y-93963527D02*
X127343652Y-94011146D01*
X127343652Y-94011146D02*
X127248414Y-94058765D01*
X127248414Y-94058765D02*
X127200795Y-94058765D01*
X127200795Y-94058765D02*
X127105557Y-94011146D01*
X127105557Y-94011146D02*
X127057938Y-93963527D01*
X127057938Y-93963527D02*
X127010319Y-93868289D01*
X127010319Y-93868289D02*
X127010319Y-93677813D01*
X127010319Y-93677813D02*
X127057938Y-93582575D01*
X127057938Y-93582575D02*
X127105557Y-93534956D01*
X127105557Y-93534956D02*
X127200795Y-93487337D01*
X127200795Y-93487337D02*
X127248414Y-93487337D01*
X127248414Y-93487337D02*
X127343652Y-93534956D01*
X127343652Y-93534956D02*
X127391271Y-93582575D01*
X127391271Y-93582575D02*
X127438890Y-93677813D01*
X127438890Y-93677813D02*
X127438890Y-93868289D01*
X127438890Y-93868289D02*
X127486509Y-93963527D01*
X127486509Y-93963527D02*
X127534128Y-94011146D01*
X127534128Y-94011146D02*
X127629366Y-94058765D01*
X127629366Y-94058765D02*
X127819842Y-94058765D01*
X127819842Y-94058765D02*
X127915080Y-94011146D01*
X127915080Y-94011146D02*
X127962700Y-93963527D01*
X127962700Y-93963527D02*
X128010319Y-93868289D01*
X128010319Y-93868289D02*
X128010319Y-93677813D01*
X128010319Y-93677813D02*
X127962700Y-93582575D01*
X127962700Y-93582575D02*
X127915080Y-93534956D01*
X127915080Y-93534956D02*
X127819842Y-93487337D01*
X127819842Y-93487337D02*
X127629366Y-93487337D01*
X127629366Y-93487337D02*
X127534128Y-93534956D01*
X127534128Y-93534956D02*
X127486509Y-93582575D01*
X127486509Y-93582575D02*
X127438890Y-93677813D01*
X131842319Y-90724956D02*
X130842319Y-90724956D01*
X131842319Y-90153528D02*
X131270890Y-90582099D01*
X130842319Y-90153528D02*
X131413747Y-90724956D01*
X142216166Y-31729871D02*
X142216166Y-32444156D01*
X142216166Y-32444156D02*
X142168547Y-32587013D01*
X142168547Y-32587013D02*
X142073309Y-32682252D01*
X142073309Y-32682252D02*
X141930452Y-32729871D01*
X141930452Y-32729871D02*
X141835214Y-32729871D01*
X142692357Y-32729871D02*
X142692357Y-31729871D01*
X142692357Y-31729871D02*
X143073309Y-31729871D01*
X143073309Y-31729871D02*
X143168547Y-31777490D01*
X143168547Y-31777490D02*
X143216166Y-31825109D01*
X143216166Y-31825109D02*
X143263785Y-31920347D01*
X143263785Y-31920347D02*
X143263785Y-32063204D01*
X143263785Y-32063204D02*
X143216166Y-32158442D01*
X143216166Y-32158442D02*
X143168547Y-32206061D01*
X143168547Y-32206061D02*
X143073309Y-32253680D01*
X143073309Y-32253680D02*
X142692357Y-32253680D01*
X143739976Y-32729871D02*
X143930452Y-32729871D01*
X143930452Y-32729871D02*
X144025690Y-32682252D01*
X144025690Y-32682252D02*
X144073309Y-32634632D01*
X144073309Y-32634632D02*
X144168547Y-32491775D01*
X144168547Y-32491775D02*
X144216166Y-32301299D01*
X144216166Y-32301299D02*
X144216166Y-31920347D01*
X144216166Y-31920347D02*
X144168547Y-31825109D01*
X144168547Y-31825109D02*
X144120928Y-31777490D01*
X144120928Y-31777490D02*
X144025690Y-31729871D01*
X144025690Y-31729871D02*
X143835214Y-31729871D01*
X143835214Y-31729871D02*
X143739976Y-31777490D01*
X143739976Y-31777490D02*
X143692357Y-31825109D01*
X143692357Y-31825109D02*
X143644738Y-31920347D01*
X143644738Y-31920347D02*
X143644738Y-32158442D01*
X143644738Y-32158442D02*
X143692357Y-32253680D01*
X143692357Y-32253680D02*
X143739976Y-32301299D01*
X143739976Y-32301299D02*
X143835214Y-32348918D01*
X143835214Y-32348918D02*
X144025690Y-32348918D01*
X144025690Y-32348918D02*
X144120928Y-32301299D01*
X144120928Y-32301299D02*
X144168547Y-32253680D01*
X144168547Y-32253680D02*
X144216166Y-32158442D01*
X171530319Y-77048575D02*
X172244604Y-77048575D01*
X172244604Y-77048575D02*
X172387461Y-77096194D01*
X172387461Y-77096194D02*
X172482700Y-77191432D01*
X172482700Y-77191432D02*
X172530319Y-77334289D01*
X172530319Y-77334289D02*
X172530319Y-77429527D01*
X171530319Y-76667622D02*
X171530319Y-76048575D01*
X171530319Y-76048575D02*
X171911271Y-76381908D01*
X171911271Y-76381908D02*
X171911271Y-76239051D01*
X171911271Y-76239051D02*
X171958890Y-76143813D01*
X171958890Y-76143813D02*
X172006509Y-76096194D01*
X172006509Y-76096194D02*
X172101747Y-76048575D01*
X172101747Y-76048575D02*
X172339842Y-76048575D01*
X172339842Y-76048575D02*
X172435080Y-76096194D01*
X172435080Y-76096194D02*
X172482700Y-76143813D01*
X172482700Y-76143813D02*
X172530319Y-76239051D01*
X172530319Y-76239051D02*
X172530319Y-76524765D01*
X172530319Y-76524765D02*
X172482700Y-76620003D01*
X172482700Y-76620003D02*
X172435080Y-76667622D01*
X172530319Y-75572384D02*
X172530319Y-75381908D01*
X172530319Y-75381908D02*
X172482700Y-75286670D01*
X172482700Y-75286670D02*
X172435080Y-75239051D01*
X172435080Y-75239051D02*
X172292223Y-75143813D01*
X172292223Y-75143813D02*
X172101747Y-75096194D01*
X172101747Y-75096194D02*
X171720795Y-75096194D01*
X171720795Y-75096194D02*
X171625557Y-75143813D01*
X171625557Y-75143813D02*
X171577938Y-75191432D01*
X171577938Y-75191432D02*
X171530319Y-75286670D01*
X171530319Y-75286670D02*
X171530319Y-75477146D01*
X171530319Y-75477146D02*
X171577938Y-75572384D01*
X171577938Y-75572384D02*
X171625557Y-75620003D01*
X171625557Y-75620003D02*
X171720795Y-75667622D01*
X171720795Y-75667622D02*
X171958890Y-75667622D01*
X171958890Y-75667622D02*
X172054128Y-75620003D01*
X172054128Y-75620003D02*
X172101747Y-75572384D01*
X172101747Y-75572384D02*
X172149366Y-75477146D01*
X172149366Y-75477146D02*
X172149366Y-75286670D01*
X172149366Y-75286670D02*
X172101747Y-75191432D01*
X172101747Y-75191432D02*
X172054128Y-75143813D01*
X172054128Y-75143813D02*
X171958890Y-75096194D01*
X78406666Y-47784819D02*
X78406666Y-48499104D01*
X78406666Y-48499104D02*
X78359047Y-48641961D01*
X78359047Y-48641961D02*
X78263809Y-48737200D01*
X78263809Y-48737200D02*
X78120952Y-48784819D01*
X78120952Y-48784819D02*
X78025714Y-48784819D01*
X78835238Y-47880057D02*
X78882857Y-47832438D01*
X78882857Y-47832438D02*
X78978095Y-47784819D01*
X78978095Y-47784819D02*
X79216190Y-47784819D01*
X79216190Y-47784819D02*
X79311428Y-47832438D01*
X79311428Y-47832438D02*
X79359047Y-47880057D01*
X79359047Y-47880057D02*
X79406666Y-47975295D01*
X79406666Y-47975295D02*
X79406666Y-48070533D01*
X79406666Y-48070533D02*
X79359047Y-48213390D01*
X79359047Y-48213390D02*
X78787619Y-48784819D01*
X78787619Y-48784819D02*
X79406666Y-48784819D01*
X127454819Y-44513333D02*
X126978628Y-44846666D01*
X127454819Y-45084761D02*
X126454819Y-45084761D01*
X126454819Y-45084761D02*
X126454819Y-44703809D01*
X126454819Y-44703809D02*
X126502438Y-44608571D01*
X126502438Y-44608571D02*
X126550057Y-44560952D01*
X126550057Y-44560952D02*
X126645295Y-44513333D01*
X126645295Y-44513333D02*
X126788152Y-44513333D01*
X126788152Y-44513333D02*
X126883390Y-44560952D01*
X126883390Y-44560952D02*
X126931009Y-44608571D01*
X126931009Y-44608571D02*
X126978628Y-44703809D01*
X126978628Y-44703809D02*
X126978628Y-45084761D01*
X126931009Y-44084761D02*
X126931009Y-43751428D01*
X127454819Y-43608571D02*
X127454819Y-44084761D01*
X127454819Y-44084761D02*
X126454819Y-44084761D01*
X126454819Y-44084761D02*
X126454819Y-43608571D01*
X126931009Y-42846666D02*
X126931009Y-43179999D01*
X127454819Y-43179999D02*
X126454819Y-43179999D01*
X126454819Y-43179999D02*
X126454819Y-42703809D01*
X126454819Y-42179999D02*
X126692914Y-42179999D01*
X126597676Y-42418094D02*
X126692914Y-42179999D01*
X126692914Y-42179999D02*
X126597676Y-41941904D01*
X126883390Y-42322856D02*
X126692914Y-42179999D01*
X126692914Y-42179999D02*
X126883390Y-42037142D01*
X126454819Y-41418094D02*
X126692914Y-41418094D01*
X126597676Y-41656189D02*
X126692914Y-41418094D01*
X126692914Y-41418094D02*
X126597676Y-41179999D01*
X126883390Y-41560951D02*
X126692914Y-41418094D01*
X126692914Y-41418094D02*
X126883390Y-41275237D01*
X174634819Y-123673333D02*
X174158628Y-124006666D01*
X174634819Y-124244761D02*
X173634819Y-124244761D01*
X173634819Y-124244761D02*
X173634819Y-123863809D01*
X173634819Y-123863809D02*
X173682438Y-123768571D01*
X173682438Y-123768571D02*
X173730057Y-123720952D01*
X173730057Y-123720952D02*
X173825295Y-123673333D01*
X173825295Y-123673333D02*
X173968152Y-123673333D01*
X173968152Y-123673333D02*
X174063390Y-123720952D01*
X174063390Y-123720952D02*
X174111009Y-123768571D01*
X174111009Y-123768571D02*
X174158628Y-123863809D01*
X174158628Y-123863809D02*
X174158628Y-124244761D01*
X174111009Y-123244761D02*
X174111009Y-122911428D01*
X174634819Y-122768571D02*
X174634819Y-123244761D01*
X174634819Y-123244761D02*
X173634819Y-123244761D01*
X173634819Y-123244761D02*
X173634819Y-122768571D01*
X174111009Y-122006666D02*
X174111009Y-122339999D01*
X174634819Y-122339999D02*
X173634819Y-122339999D01*
X173634819Y-122339999D02*
X173634819Y-121863809D01*
X173634819Y-121339999D02*
X173872914Y-121339999D01*
X173777676Y-121578094D02*
X173872914Y-121339999D01*
X173872914Y-121339999D02*
X173777676Y-121101904D01*
X174063390Y-121482856D02*
X173872914Y-121339999D01*
X173872914Y-121339999D02*
X174063390Y-121197142D01*
X173634819Y-120578094D02*
X173872914Y-120578094D01*
X173777676Y-120816189D02*
X173872914Y-120578094D01*
X173872914Y-120578094D02*
X173777676Y-120339999D01*
X174063390Y-120720951D02*
X173872914Y-120578094D01*
X173872914Y-120578094D02*
X174063390Y-120435237D01*
X132622319Y-95011146D02*
X131622319Y-95011146D01*
X132622319Y-94439718D02*
X132050890Y-94868289D01*
X131622319Y-94439718D02*
X132193747Y-95011146D01*
X131622319Y-93534956D02*
X131622319Y-94011146D01*
X131622319Y-94011146D02*
X132098509Y-94058765D01*
X132098509Y-94058765D02*
X132050890Y-94011146D01*
X132050890Y-94011146D02*
X132003271Y-93915908D01*
X132003271Y-93915908D02*
X132003271Y-93677813D01*
X132003271Y-93677813D02*
X132050890Y-93582575D01*
X132050890Y-93582575D02*
X132098509Y-93534956D01*
X132098509Y-93534956D02*
X132193747Y-93487337D01*
X132193747Y-93487337D02*
X132431842Y-93487337D01*
X132431842Y-93487337D02*
X132527080Y-93534956D01*
X132527080Y-93534956D02*
X132574700Y-93582575D01*
X132574700Y-93582575D02*
X132622319Y-93677813D01*
X132622319Y-93677813D02*
X132622319Y-93915908D01*
X132622319Y-93915908D02*
X132574700Y-94011146D01*
X132574700Y-94011146D02*
X132527080Y-94058765D01*
X17036905Y-143814819D02*
X17036905Y-142814819D01*
X17036905Y-142814819D02*
X17275000Y-142814819D01*
X17275000Y-142814819D02*
X17417857Y-142862438D01*
X17417857Y-142862438D02*
X17513095Y-142957676D01*
X17513095Y-142957676D02*
X17560714Y-143052914D01*
X17560714Y-143052914D02*
X17608333Y-143243390D01*
X17608333Y-143243390D02*
X17608333Y-143386247D01*
X17608333Y-143386247D02*
X17560714Y-143576723D01*
X17560714Y-143576723D02*
X17513095Y-143671961D01*
X17513095Y-143671961D02*
X17417857Y-143767200D01*
X17417857Y-143767200D02*
X17275000Y-143814819D01*
X17275000Y-143814819D02*
X17036905Y-143814819D01*
X18560714Y-143814819D02*
X17989286Y-143814819D01*
X18275000Y-143814819D02*
X18275000Y-142814819D01*
X18275000Y-142814819D02*
X18179762Y-142957676D01*
X18179762Y-142957676D02*
X18084524Y-143052914D01*
X18084524Y-143052914D02*
X17989286Y-143100533D01*
X134596166Y-37063871D02*
X134596166Y-37778156D01*
X134596166Y-37778156D02*
X134548547Y-37921013D01*
X134548547Y-37921013D02*
X134453309Y-38016252D01*
X134453309Y-38016252D02*
X134310452Y-38063871D01*
X134310452Y-38063871D02*
X134215214Y-38063871D01*
X135072357Y-38063871D02*
X135072357Y-37063871D01*
X135072357Y-37063871D02*
X135453309Y-37063871D01*
X135453309Y-37063871D02*
X135548547Y-37111490D01*
X135548547Y-37111490D02*
X135596166Y-37159109D01*
X135596166Y-37159109D02*
X135643785Y-37254347D01*
X135643785Y-37254347D02*
X135643785Y-37397204D01*
X135643785Y-37397204D02*
X135596166Y-37492442D01*
X135596166Y-37492442D02*
X135548547Y-37540061D01*
X135548547Y-37540061D02*
X135453309Y-37587680D01*
X135453309Y-37587680D02*
X135072357Y-37587680D01*
X136500928Y-37063871D02*
X136310452Y-37063871D01*
X136310452Y-37063871D02*
X136215214Y-37111490D01*
X136215214Y-37111490D02*
X136167595Y-37159109D01*
X136167595Y-37159109D02*
X136072357Y-37301966D01*
X136072357Y-37301966D02*
X136024738Y-37492442D01*
X136024738Y-37492442D02*
X136024738Y-37873394D01*
X136024738Y-37873394D02*
X136072357Y-37968632D01*
X136072357Y-37968632D02*
X136119976Y-38016252D01*
X136119976Y-38016252D02*
X136215214Y-38063871D01*
X136215214Y-38063871D02*
X136405690Y-38063871D01*
X136405690Y-38063871D02*
X136500928Y-38016252D01*
X136500928Y-38016252D02*
X136548547Y-37968632D01*
X136548547Y-37968632D02*
X136596166Y-37873394D01*
X136596166Y-37873394D02*
X136596166Y-37635299D01*
X136596166Y-37635299D02*
X136548547Y-37540061D01*
X136548547Y-37540061D02*
X136500928Y-37492442D01*
X136500928Y-37492442D02*
X136405690Y-37444823D01*
X136405690Y-37444823D02*
X136215214Y-37444823D01*
X136215214Y-37444823D02*
X136119976Y-37492442D01*
X136119976Y-37492442D02*
X136072357Y-37540061D01*
X136072357Y-37540061D02*
X136024738Y-37635299D01*
X158560319Y-114652385D02*
X159274604Y-114652385D01*
X159274604Y-114652385D02*
X159417461Y-114700004D01*
X159417461Y-114700004D02*
X159512700Y-114795242D01*
X159512700Y-114795242D02*
X159560319Y-114938099D01*
X159560319Y-114938099D02*
X159560319Y-115033337D01*
X158560319Y-114271432D02*
X158560319Y-113652385D01*
X158560319Y-113652385D02*
X158941271Y-113985718D01*
X158941271Y-113985718D02*
X158941271Y-113842861D01*
X158941271Y-113842861D02*
X158988890Y-113747623D01*
X158988890Y-113747623D02*
X159036509Y-113700004D01*
X159036509Y-113700004D02*
X159131747Y-113652385D01*
X159131747Y-113652385D02*
X159369842Y-113652385D01*
X159369842Y-113652385D02*
X159465080Y-113700004D01*
X159465080Y-113700004D02*
X159512700Y-113747623D01*
X159512700Y-113747623D02*
X159560319Y-113842861D01*
X159560319Y-113842861D02*
X159560319Y-114128575D01*
X159560319Y-114128575D02*
X159512700Y-114223813D01*
X159512700Y-114223813D02*
X159465080Y-114271432D01*
X54910666Y-57582819D02*
X54910666Y-58297104D01*
X54910666Y-58297104D02*
X54863047Y-58439961D01*
X54863047Y-58439961D02*
X54767809Y-58535200D01*
X54767809Y-58535200D02*
X54624952Y-58582819D01*
X54624952Y-58582819D02*
X54529714Y-58582819D01*
X55291619Y-57582819D02*
X55958285Y-57582819D01*
X55958285Y-57582819D02*
X55529714Y-58582819D01*
X145311905Y-150535371D02*
X145311905Y-149535371D01*
X145883333Y-150535371D02*
X145454762Y-149963942D01*
X145883333Y-149535371D02*
X145311905Y-150106799D01*
X146740476Y-149535371D02*
X146550000Y-149535371D01*
X146550000Y-149535371D02*
X146454762Y-149582990D01*
X146454762Y-149582990D02*
X146407143Y-149630609D01*
X146407143Y-149630609D02*
X146311905Y-149773466D01*
X146311905Y-149773466D02*
X146264286Y-149963942D01*
X146264286Y-149963942D02*
X146264286Y-150344894D01*
X146264286Y-150344894D02*
X146311905Y-150440132D01*
X146311905Y-150440132D02*
X146359524Y-150487752D01*
X146359524Y-150487752D02*
X146454762Y-150535371D01*
X146454762Y-150535371D02*
X146645238Y-150535371D01*
X146645238Y-150535371D02*
X146740476Y-150487752D01*
X146740476Y-150487752D02*
X146788095Y-150440132D01*
X146788095Y-150440132D02*
X146835714Y-150344894D01*
X146835714Y-150344894D02*
X146835714Y-150106799D01*
X146835714Y-150106799D02*
X146788095Y-150011561D01*
X146788095Y-150011561D02*
X146740476Y-149963942D01*
X146740476Y-149963942D02*
X146645238Y-149916323D01*
X146645238Y-149916323D02*
X146454762Y-149916323D01*
X146454762Y-149916323D02*
X146359524Y-149963942D01*
X146359524Y-149963942D02*
X146311905Y-150011561D01*
X146311905Y-150011561D02*
X146264286Y-150106799D01*
X68654819Y-155106666D02*
X68178628Y-155439999D01*
X68654819Y-155678094D02*
X67654819Y-155678094D01*
X67654819Y-155678094D02*
X67654819Y-155297142D01*
X67654819Y-155297142D02*
X67702438Y-155201904D01*
X67702438Y-155201904D02*
X67750057Y-155154285D01*
X67750057Y-155154285D02*
X67845295Y-155106666D01*
X67845295Y-155106666D02*
X67988152Y-155106666D01*
X67988152Y-155106666D02*
X68083390Y-155154285D01*
X68083390Y-155154285D02*
X68131009Y-155201904D01*
X68131009Y-155201904D02*
X68178628Y-155297142D01*
X68178628Y-155297142D02*
X68178628Y-155678094D01*
X67654819Y-154773332D02*
X67654819Y-154154285D01*
X67654819Y-154154285D02*
X68035771Y-154487618D01*
X68035771Y-154487618D02*
X68035771Y-154344761D01*
X68035771Y-154344761D02*
X68083390Y-154249523D01*
X68083390Y-154249523D02*
X68131009Y-154201904D01*
X68131009Y-154201904D02*
X68226247Y-154154285D01*
X68226247Y-154154285D02*
X68464342Y-154154285D01*
X68464342Y-154154285D02*
X68559580Y-154201904D01*
X68559580Y-154201904D02*
X68607200Y-154249523D01*
X68607200Y-154249523D02*
X68654819Y-154344761D01*
X68654819Y-154344761D02*
X68654819Y-154630475D01*
X68654819Y-154630475D02*
X68607200Y-154725713D01*
X68607200Y-154725713D02*
X68559580Y-154773332D01*
X171530319Y-87208575D02*
X172244604Y-87208575D01*
X172244604Y-87208575D02*
X172387461Y-87256194D01*
X172387461Y-87256194D02*
X172482700Y-87351432D01*
X172482700Y-87351432D02*
X172530319Y-87494289D01*
X172530319Y-87494289D02*
X172530319Y-87589527D01*
X171530319Y-86827622D02*
X171530319Y-86208575D01*
X171530319Y-86208575D02*
X171911271Y-86541908D01*
X171911271Y-86541908D02*
X171911271Y-86399051D01*
X171911271Y-86399051D02*
X171958890Y-86303813D01*
X171958890Y-86303813D02*
X172006509Y-86256194D01*
X172006509Y-86256194D02*
X172101747Y-86208575D01*
X172101747Y-86208575D02*
X172339842Y-86208575D01*
X172339842Y-86208575D02*
X172435080Y-86256194D01*
X172435080Y-86256194D02*
X172482700Y-86303813D01*
X172482700Y-86303813D02*
X172530319Y-86399051D01*
X172530319Y-86399051D02*
X172530319Y-86684765D01*
X172530319Y-86684765D02*
X172482700Y-86780003D01*
X172482700Y-86780003D02*
X172435080Y-86827622D01*
X171530319Y-85351432D02*
X171530319Y-85541908D01*
X171530319Y-85541908D02*
X171577938Y-85637146D01*
X171577938Y-85637146D02*
X171625557Y-85684765D01*
X171625557Y-85684765D02*
X171768414Y-85780003D01*
X171768414Y-85780003D02*
X171958890Y-85827622D01*
X171958890Y-85827622D02*
X172339842Y-85827622D01*
X172339842Y-85827622D02*
X172435080Y-85780003D01*
X172435080Y-85780003D02*
X172482700Y-85732384D01*
X172482700Y-85732384D02*
X172530319Y-85637146D01*
X172530319Y-85637146D02*
X172530319Y-85446670D01*
X172530319Y-85446670D02*
X172482700Y-85351432D01*
X172482700Y-85351432D02*
X172435080Y-85303813D01*
X172435080Y-85303813D02*
X172339842Y-85256194D01*
X172339842Y-85256194D02*
X172101747Y-85256194D01*
X172101747Y-85256194D02*
X172006509Y-85303813D01*
X172006509Y-85303813D02*
X171958890Y-85351432D01*
X171958890Y-85351432D02*
X171911271Y-85446670D01*
X171911271Y-85446670D02*
X171911271Y-85637146D01*
X171911271Y-85637146D02*
X171958890Y-85732384D01*
X171958890Y-85732384D02*
X172006509Y-85780003D01*
X172006509Y-85780003D02*
X172101747Y-85827622D01*
X141739976Y-100817871D02*
X141739976Y-101532156D01*
X141739976Y-101532156D02*
X141692357Y-101675013D01*
X141692357Y-101675013D02*
X141597119Y-101770252D01*
X141597119Y-101770252D02*
X141454262Y-101817871D01*
X141454262Y-101817871D02*
X141359024Y-101817871D01*
X142216167Y-101817871D02*
X142216167Y-100817871D01*
X142216167Y-100817871D02*
X142597119Y-100817871D01*
X142597119Y-100817871D02*
X142692357Y-100865490D01*
X142692357Y-100865490D02*
X142739976Y-100913109D01*
X142739976Y-100913109D02*
X142787595Y-101008347D01*
X142787595Y-101008347D02*
X142787595Y-101151204D01*
X142787595Y-101151204D02*
X142739976Y-101246442D01*
X142739976Y-101246442D02*
X142692357Y-101294061D01*
X142692357Y-101294061D02*
X142597119Y-101341680D01*
X142597119Y-101341680D02*
X142216167Y-101341680D01*
X143739976Y-101817871D02*
X143168548Y-101817871D01*
X143454262Y-101817871D02*
X143454262Y-100817871D01*
X143454262Y-100817871D02*
X143359024Y-100960728D01*
X143359024Y-100960728D02*
X143263786Y-101055966D01*
X143263786Y-101055966D02*
X143168548Y-101103585D01*
X144120929Y-100913109D02*
X144168548Y-100865490D01*
X144168548Y-100865490D02*
X144263786Y-100817871D01*
X144263786Y-100817871D02*
X144501881Y-100817871D01*
X144501881Y-100817871D02*
X144597119Y-100865490D01*
X144597119Y-100865490D02*
X144644738Y-100913109D01*
X144644738Y-100913109D02*
X144692357Y-101008347D01*
X144692357Y-101008347D02*
X144692357Y-101103585D01*
X144692357Y-101103585D02*
X144644738Y-101246442D01*
X144644738Y-101246442D02*
X144073310Y-101817871D01*
X144073310Y-101817871D02*
X144692357Y-101817871D01*
X55070476Y-15902819D02*
X55070476Y-16617104D01*
X55070476Y-16617104D02*
X55022857Y-16759961D01*
X55022857Y-16759961D02*
X54927619Y-16855200D01*
X54927619Y-16855200D02*
X54784762Y-16902819D01*
X54784762Y-16902819D02*
X54689524Y-16902819D01*
X56070476Y-16902819D02*
X55499048Y-16902819D01*
X55784762Y-16902819D02*
X55784762Y-15902819D01*
X55784762Y-15902819D02*
X55689524Y-16045676D01*
X55689524Y-16045676D02*
X55594286Y-16140914D01*
X55594286Y-16140914D02*
X55499048Y-16188533D01*
X56927619Y-16236152D02*
X56927619Y-16902819D01*
X56689524Y-15855200D02*
X56451429Y-16569485D01*
X56451429Y-16569485D02*
X57070476Y-16569485D01*
X141627976Y-77957871D02*
X141627976Y-78672156D01*
X141627976Y-78672156D02*
X141580357Y-78815013D01*
X141580357Y-78815013D02*
X141485119Y-78910252D01*
X141485119Y-78910252D02*
X141342262Y-78957871D01*
X141342262Y-78957871D02*
X141247024Y-78957871D01*
X142104167Y-78957871D02*
X142104167Y-77957871D01*
X142104167Y-77957871D02*
X142485119Y-77957871D01*
X142485119Y-77957871D02*
X142580357Y-78005490D01*
X142580357Y-78005490D02*
X142627976Y-78053109D01*
X142627976Y-78053109D02*
X142675595Y-78148347D01*
X142675595Y-78148347D02*
X142675595Y-78291204D01*
X142675595Y-78291204D02*
X142627976Y-78386442D01*
X142627976Y-78386442D02*
X142580357Y-78434061D01*
X142580357Y-78434061D02*
X142485119Y-78481680D01*
X142485119Y-78481680D02*
X142104167Y-78481680D01*
X143627976Y-78957871D02*
X143056548Y-78957871D01*
X143342262Y-78957871D02*
X143342262Y-77957871D01*
X143342262Y-77957871D02*
X143247024Y-78100728D01*
X143247024Y-78100728D02*
X143151786Y-78195966D01*
X143151786Y-78195966D02*
X143056548Y-78243585D01*
X144580357Y-78957871D02*
X144008929Y-78957871D01*
X144294643Y-78957871D02*
X144294643Y-77957871D01*
X144294643Y-77957871D02*
X144199405Y-78100728D01*
X144199405Y-78100728D02*
X144104167Y-78195966D01*
X144104167Y-78195966D02*
X144008929Y-78243585D01*
X70644819Y-137969523D02*
X71359104Y-137969523D01*
X71359104Y-137969523D02*
X71501961Y-138017142D01*
X71501961Y-138017142D02*
X71597200Y-138112380D01*
X71597200Y-138112380D02*
X71644819Y-138255237D01*
X71644819Y-138255237D02*
X71644819Y-138350475D01*
X70740057Y-137540951D02*
X70692438Y-137493332D01*
X70692438Y-137493332D02*
X70644819Y-137398094D01*
X70644819Y-137398094D02*
X70644819Y-137159999D01*
X70644819Y-137159999D02*
X70692438Y-137064761D01*
X70692438Y-137064761D02*
X70740057Y-137017142D01*
X70740057Y-137017142D02*
X70835295Y-136969523D01*
X70835295Y-136969523D02*
X70930533Y-136969523D01*
X70930533Y-136969523D02*
X71073390Y-137017142D01*
X71073390Y-137017142D02*
X71644819Y-137588570D01*
X71644819Y-137588570D02*
X71644819Y-136969523D01*
X70644819Y-136636189D02*
X70644819Y-136017142D01*
X70644819Y-136017142D02*
X71025771Y-136350475D01*
X71025771Y-136350475D02*
X71025771Y-136207618D01*
X71025771Y-136207618D02*
X71073390Y-136112380D01*
X71073390Y-136112380D02*
X71121009Y-136064761D01*
X71121009Y-136064761D02*
X71216247Y-136017142D01*
X71216247Y-136017142D02*
X71454342Y-136017142D01*
X71454342Y-136017142D02*
X71549580Y-136064761D01*
X71549580Y-136064761D02*
X71597200Y-136112380D01*
X71597200Y-136112380D02*
X71644819Y-136207618D01*
X71644819Y-136207618D02*
X71644819Y-136493332D01*
X71644819Y-136493332D02*
X71597200Y-136588570D01*
X71597200Y-136588570D02*
X71549580Y-136636189D01*
X29146666Y-146114819D02*
X28813333Y-145638628D01*
X28575238Y-146114819D02*
X28575238Y-145114819D01*
X28575238Y-145114819D02*
X28956190Y-145114819D01*
X28956190Y-145114819D02*
X29051428Y-145162438D01*
X29051428Y-145162438D02*
X29099047Y-145210057D01*
X29099047Y-145210057D02*
X29146666Y-145305295D01*
X29146666Y-145305295D02*
X29146666Y-145448152D01*
X29146666Y-145448152D02*
X29099047Y-145543390D01*
X29099047Y-145543390D02*
X29051428Y-145591009D01*
X29051428Y-145591009D02*
X28956190Y-145638628D01*
X28956190Y-145638628D02*
X28575238Y-145638628D01*
X29575238Y-145591009D02*
X29908571Y-145591009D01*
X30051428Y-146114819D02*
X29575238Y-146114819D01*
X29575238Y-146114819D02*
X29575238Y-145114819D01*
X29575238Y-145114819D02*
X30051428Y-145114819D01*
X30813333Y-145591009D02*
X30480000Y-145591009D01*
X30480000Y-146114819D02*
X30480000Y-145114819D01*
X30480000Y-145114819D02*
X30956190Y-145114819D01*
X31480000Y-145114819D02*
X31480000Y-145352914D01*
X31241905Y-145257676D02*
X31480000Y-145352914D01*
X31480000Y-145352914D02*
X31718095Y-145257676D01*
X31337143Y-145543390D02*
X31480000Y-145352914D01*
X31480000Y-145352914D02*
X31622857Y-145543390D01*
X32241905Y-145114819D02*
X32241905Y-145352914D01*
X32003810Y-145257676D02*
X32241905Y-145352914D01*
X32241905Y-145352914D02*
X32480000Y-145257676D01*
X32099048Y-145543390D02*
X32241905Y-145352914D01*
X32241905Y-145352914D02*
X32384762Y-145543390D01*
X108534476Y-57582819D02*
X108534476Y-58297104D01*
X108534476Y-58297104D02*
X108486857Y-58439961D01*
X108486857Y-58439961D02*
X108391619Y-58535200D01*
X108391619Y-58535200D02*
X108248762Y-58582819D01*
X108248762Y-58582819D02*
X108153524Y-58582819D01*
X109534476Y-58582819D02*
X108963048Y-58582819D01*
X109248762Y-58582819D02*
X109248762Y-57582819D01*
X109248762Y-57582819D02*
X109153524Y-57725676D01*
X109153524Y-57725676D02*
X109058286Y-57820914D01*
X109058286Y-57820914D02*
X108963048Y-57868533D01*
X110486857Y-58582819D02*
X109915429Y-58582819D01*
X110201143Y-58582819D02*
X110201143Y-57582819D01*
X110201143Y-57582819D02*
X110105905Y-57725676D01*
X110105905Y-57725676D02*
X110010667Y-57820914D01*
X110010667Y-57820914D02*
X109915429Y-57868533D01*
X171530319Y-69428575D02*
X172244604Y-69428575D01*
X172244604Y-69428575D02*
X172387461Y-69476194D01*
X172387461Y-69476194D02*
X172482700Y-69571432D01*
X172482700Y-69571432D02*
X172530319Y-69714289D01*
X172530319Y-69714289D02*
X172530319Y-69809527D01*
X171530319Y-69047622D02*
X171530319Y-68428575D01*
X171530319Y-68428575D02*
X171911271Y-68761908D01*
X171911271Y-68761908D02*
X171911271Y-68619051D01*
X171911271Y-68619051D02*
X171958890Y-68523813D01*
X171958890Y-68523813D02*
X172006509Y-68476194D01*
X172006509Y-68476194D02*
X172101747Y-68428575D01*
X172101747Y-68428575D02*
X172339842Y-68428575D01*
X172339842Y-68428575D02*
X172435080Y-68476194D01*
X172435080Y-68476194D02*
X172482700Y-68523813D01*
X172482700Y-68523813D02*
X172530319Y-68619051D01*
X172530319Y-68619051D02*
X172530319Y-68904765D01*
X172530319Y-68904765D02*
X172482700Y-69000003D01*
X172482700Y-69000003D02*
X172435080Y-69047622D01*
X171530319Y-68095241D02*
X171530319Y-67428575D01*
X171530319Y-67428575D02*
X172530319Y-67857146D01*
X133865976Y-104417871D02*
X133865976Y-105132156D01*
X133865976Y-105132156D02*
X133818357Y-105275013D01*
X133818357Y-105275013D02*
X133723119Y-105370252D01*
X133723119Y-105370252D02*
X133580262Y-105417871D01*
X133580262Y-105417871D02*
X133485024Y-105417871D01*
X134342167Y-105417871D02*
X134342167Y-104417871D01*
X134342167Y-104417871D02*
X134723119Y-104417871D01*
X134723119Y-104417871D02*
X134818357Y-104465490D01*
X134818357Y-104465490D02*
X134865976Y-104513109D01*
X134865976Y-104513109D02*
X134913595Y-104608347D01*
X134913595Y-104608347D02*
X134913595Y-104751204D01*
X134913595Y-104751204D02*
X134865976Y-104846442D01*
X134865976Y-104846442D02*
X134818357Y-104894061D01*
X134818357Y-104894061D02*
X134723119Y-104941680D01*
X134723119Y-104941680D02*
X134342167Y-104941680D01*
X135865976Y-105417871D02*
X135294548Y-105417871D01*
X135580262Y-105417871D02*
X135580262Y-104417871D01*
X135580262Y-104417871D02*
X135485024Y-104560728D01*
X135485024Y-104560728D02*
X135389786Y-104655966D01*
X135389786Y-104655966D02*
X135294548Y-104703585D01*
X136723119Y-104417871D02*
X136532643Y-104417871D01*
X136532643Y-104417871D02*
X136437405Y-104465490D01*
X136437405Y-104465490D02*
X136389786Y-104513109D01*
X136389786Y-104513109D02*
X136294548Y-104655966D01*
X136294548Y-104655966D02*
X136246929Y-104846442D01*
X136246929Y-104846442D02*
X136246929Y-105227394D01*
X136246929Y-105227394D02*
X136294548Y-105322632D01*
X136294548Y-105322632D02*
X136342167Y-105370252D01*
X136342167Y-105370252D02*
X136437405Y-105417871D01*
X136437405Y-105417871D02*
X136627881Y-105417871D01*
X136627881Y-105417871D02*
X136723119Y-105370252D01*
X136723119Y-105370252D02*
X136770738Y-105322632D01*
X136770738Y-105322632D02*
X136818357Y-105227394D01*
X136818357Y-105227394D02*
X136818357Y-104989299D01*
X136818357Y-104989299D02*
X136770738Y-104894061D01*
X136770738Y-104894061D02*
X136723119Y-104846442D01*
X136723119Y-104846442D02*
X136627881Y-104798823D01*
X136627881Y-104798823D02*
X136437405Y-104798823D01*
X136437405Y-104798823D02*
X136342167Y-104846442D01*
X136342167Y-104846442D02*
X136294548Y-104894061D01*
X136294548Y-104894061D02*
X136246929Y-104989299D01*
X128264319Y-49037146D02*
X127264319Y-49037146D01*
X127264319Y-49037146D02*
X127264319Y-48799051D01*
X127264319Y-48799051D02*
X127311938Y-48656194D01*
X127311938Y-48656194D02*
X127407176Y-48560956D01*
X127407176Y-48560956D02*
X127502414Y-48513337D01*
X127502414Y-48513337D02*
X127692890Y-48465718D01*
X127692890Y-48465718D02*
X127835747Y-48465718D01*
X127835747Y-48465718D02*
X128026223Y-48513337D01*
X128026223Y-48513337D02*
X128121461Y-48560956D01*
X128121461Y-48560956D02*
X128216700Y-48656194D01*
X128216700Y-48656194D02*
X128264319Y-48799051D01*
X128264319Y-48799051D02*
X128264319Y-49037146D01*
X127264319Y-47608575D02*
X127264319Y-47799051D01*
X127264319Y-47799051D02*
X127311938Y-47894289D01*
X127311938Y-47894289D02*
X127359557Y-47941908D01*
X127359557Y-47941908D02*
X127502414Y-48037146D01*
X127502414Y-48037146D02*
X127692890Y-48084765D01*
X127692890Y-48084765D02*
X128073842Y-48084765D01*
X128073842Y-48084765D02*
X128169080Y-48037146D01*
X128169080Y-48037146D02*
X128216700Y-47989527D01*
X128216700Y-47989527D02*
X128264319Y-47894289D01*
X128264319Y-47894289D02*
X128264319Y-47703813D01*
X128264319Y-47703813D02*
X128216700Y-47608575D01*
X128216700Y-47608575D02*
X128169080Y-47560956D01*
X128169080Y-47560956D02*
X128073842Y-47513337D01*
X128073842Y-47513337D02*
X127835747Y-47513337D01*
X127835747Y-47513337D02*
X127740509Y-47560956D01*
X127740509Y-47560956D02*
X127692890Y-47608575D01*
X127692890Y-47608575D02*
X127645271Y-47703813D01*
X127645271Y-47703813D02*
X127645271Y-47894289D01*
X127645271Y-47894289D02*
X127692890Y-47989527D01*
X127692890Y-47989527D02*
X127740509Y-48037146D01*
X127740509Y-48037146D02*
X127835747Y-48084765D01*
X132350319Y-44750956D02*
X131350319Y-44750956D01*
X132350319Y-44179528D02*
X131778890Y-44608099D01*
X131350319Y-44179528D02*
X131921747Y-44750956D01*
X171530319Y-64348575D02*
X172244604Y-64348575D01*
X172244604Y-64348575D02*
X172387461Y-64396194D01*
X172387461Y-64396194D02*
X172482700Y-64491432D01*
X172482700Y-64491432D02*
X172530319Y-64634289D01*
X172530319Y-64634289D02*
X172530319Y-64729527D01*
X171530319Y-63967622D02*
X171530319Y-63348575D01*
X171530319Y-63348575D02*
X171911271Y-63681908D01*
X171911271Y-63681908D02*
X171911271Y-63539051D01*
X171911271Y-63539051D02*
X171958890Y-63443813D01*
X171958890Y-63443813D02*
X172006509Y-63396194D01*
X172006509Y-63396194D02*
X172101747Y-63348575D01*
X172101747Y-63348575D02*
X172339842Y-63348575D01*
X172339842Y-63348575D02*
X172435080Y-63396194D01*
X172435080Y-63396194D02*
X172482700Y-63443813D01*
X172482700Y-63443813D02*
X172530319Y-63539051D01*
X172530319Y-63539051D02*
X172530319Y-63824765D01*
X172530319Y-63824765D02*
X172482700Y-63920003D01*
X172482700Y-63920003D02*
X172435080Y-63967622D01*
X171958890Y-62777146D02*
X171911271Y-62872384D01*
X171911271Y-62872384D02*
X171863652Y-62920003D01*
X171863652Y-62920003D02*
X171768414Y-62967622D01*
X171768414Y-62967622D02*
X171720795Y-62967622D01*
X171720795Y-62967622D02*
X171625557Y-62920003D01*
X171625557Y-62920003D02*
X171577938Y-62872384D01*
X171577938Y-62872384D02*
X171530319Y-62777146D01*
X171530319Y-62777146D02*
X171530319Y-62586670D01*
X171530319Y-62586670D02*
X171577938Y-62491432D01*
X171577938Y-62491432D02*
X171625557Y-62443813D01*
X171625557Y-62443813D02*
X171720795Y-62396194D01*
X171720795Y-62396194D02*
X171768414Y-62396194D01*
X171768414Y-62396194D02*
X171863652Y-62443813D01*
X171863652Y-62443813D02*
X171911271Y-62491432D01*
X171911271Y-62491432D02*
X171958890Y-62586670D01*
X171958890Y-62586670D02*
X171958890Y-62777146D01*
X171958890Y-62777146D02*
X172006509Y-62872384D01*
X172006509Y-62872384D02*
X172054128Y-62920003D01*
X172054128Y-62920003D02*
X172149366Y-62967622D01*
X172149366Y-62967622D02*
X172339842Y-62967622D01*
X172339842Y-62967622D02*
X172435080Y-62920003D01*
X172435080Y-62920003D02*
X172482700Y-62872384D01*
X172482700Y-62872384D02*
X172530319Y-62777146D01*
X172530319Y-62777146D02*
X172530319Y-62586670D01*
X172530319Y-62586670D02*
X172482700Y-62491432D01*
X172482700Y-62491432D02*
X172435080Y-62443813D01*
X172435080Y-62443813D02*
X172339842Y-62396194D01*
X172339842Y-62396194D02*
X172149366Y-62396194D01*
X172149366Y-62396194D02*
X172054128Y-62443813D01*
X172054128Y-62443813D02*
X172006509Y-62491432D01*
X172006509Y-62491432D02*
X171958890Y-62586670D01*
X93236905Y-143814819D02*
X93236905Y-142814819D01*
X93236905Y-142814819D02*
X93475000Y-142814819D01*
X93475000Y-142814819D02*
X93617857Y-142862438D01*
X93617857Y-142862438D02*
X93713095Y-142957676D01*
X93713095Y-142957676D02*
X93760714Y-143052914D01*
X93760714Y-143052914D02*
X93808333Y-143243390D01*
X93808333Y-143243390D02*
X93808333Y-143386247D01*
X93808333Y-143386247D02*
X93760714Y-143576723D01*
X93760714Y-143576723D02*
X93713095Y-143671961D01*
X93713095Y-143671961D02*
X93617857Y-143767200D01*
X93617857Y-143767200D02*
X93475000Y-143814819D01*
X93475000Y-143814819D02*
X93236905Y-143814819D01*
X94665476Y-143148152D02*
X94665476Y-143814819D01*
X94427381Y-142767200D02*
X94189286Y-143481485D01*
X94189286Y-143481485D02*
X94808333Y-143481485D01*
X82486666Y-146114819D02*
X82153333Y-145638628D01*
X81915238Y-146114819D02*
X81915238Y-145114819D01*
X81915238Y-145114819D02*
X82296190Y-145114819D01*
X82296190Y-145114819D02*
X82391428Y-145162438D01*
X82391428Y-145162438D02*
X82439047Y-145210057D01*
X82439047Y-145210057D02*
X82486666Y-145305295D01*
X82486666Y-145305295D02*
X82486666Y-145448152D01*
X82486666Y-145448152D02*
X82439047Y-145543390D01*
X82439047Y-145543390D02*
X82391428Y-145591009D01*
X82391428Y-145591009D02*
X82296190Y-145638628D01*
X82296190Y-145638628D02*
X81915238Y-145638628D01*
X82915238Y-145591009D02*
X83248571Y-145591009D01*
X83391428Y-146114819D02*
X82915238Y-146114819D01*
X82915238Y-146114819D02*
X82915238Y-145114819D01*
X82915238Y-145114819D02*
X83391428Y-145114819D01*
X84153333Y-145591009D02*
X83820000Y-145591009D01*
X83820000Y-146114819D02*
X83820000Y-145114819D01*
X83820000Y-145114819D02*
X84296190Y-145114819D01*
X84820000Y-145114819D02*
X84820000Y-145352914D01*
X84581905Y-145257676D02*
X84820000Y-145352914D01*
X84820000Y-145352914D02*
X85058095Y-145257676D01*
X84677143Y-145543390D02*
X84820000Y-145352914D01*
X84820000Y-145352914D02*
X84962857Y-145543390D01*
X85581905Y-145114819D02*
X85581905Y-145352914D01*
X85343810Y-145257676D02*
X85581905Y-145352914D01*
X85581905Y-145352914D02*
X85820000Y-145257676D01*
X85439048Y-145543390D02*
X85581905Y-145352914D01*
X85581905Y-145352914D02*
X85724762Y-145543390D01*
X142216166Y-60177871D02*
X142216166Y-60892156D01*
X142216166Y-60892156D02*
X142168547Y-61035013D01*
X142168547Y-61035013D02*
X142073309Y-61130252D01*
X142073309Y-61130252D02*
X141930452Y-61177871D01*
X141930452Y-61177871D02*
X141835214Y-61177871D01*
X142692357Y-61177871D02*
X142692357Y-60177871D01*
X142692357Y-60177871D02*
X143073309Y-60177871D01*
X143073309Y-60177871D02*
X143168547Y-60225490D01*
X143168547Y-60225490D02*
X143216166Y-60273109D01*
X143216166Y-60273109D02*
X143263785Y-60368347D01*
X143263785Y-60368347D02*
X143263785Y-60511204D01*
X143263785Y-60511204D02*
X143216166Y-60606442D01*
X143216166Y-60606442D02*
X143168547Y-60654061D01*
X143168547Y-60654061D02*
X143073309Y-60701680D01*
X143073309Y-60701680D02*
X142692357Y-60701680D01*
X143597119Y-60177871D02*
X144216166Y-60177871D01*
X144216166Y-60177871D02*
X143882833Y-60558823D01*
X143882833Y-60558823D02*
X144025690Y-60558823D01*
X144025690Y-60558823D02*
X144120928Y-60606442D01*
X144120928Y-60606442D02*
X144168547Y-60654061D01*
X144168547Y-60654061D02*
X144216166Y-60749299D01*
X144216166Y-60749299D02*
X144216166Y-60987394D01*
X144216166Y-60987394D02*
X144168547Y-61082632D01*
X144168547Y-61082632D02*
X144120928Y-61130252D01*
X144120928Y-61130252D02*
X144025690Y-61177871D01*
X144025690Y-61177871D02*
X143739976Y-61177871D01*
X143739976Y-61177871D02*
X143644738Y-61130252D01*
X143644738Y-61130252D02*
X143597119Y-61082632D01*
X132622319Y-72151146D02*
X131622319Y-72151146D01*
X132622319Y-71579718D02*
X132050890Y-72008289D01*
X131622319Y-71579718D02*
X132193747Y-72151146D01*
X131955652Y-70722575D02*
X132622319Y-70722575D01*
X131574700Y-70960670D02*
X132288985Y-71198765D01*
X132288985Y-71198765D02*
X132288985Y-70579718D01*
X72850476Y-47714819D02*
X72850476Y-48429104D01*
X72850476Y-48429104D02*
X72802857Y-48571961D01*
X72802857Y-48571961D02*
X72707619Y-48667200D01*
X72707619Y-48667200D02*
X72564762Y-48714819D01*
X72564762Y-48714819D02*
X72469524Y-48714819D01*
X73231429Y-47714819D02*
X73850476Y-47714819D01*
X73850476Y-47714819D02*
X73517143Y-48095771D01*
X73517143Y-48095771D02*
X73660000Y-48095771D01*
X73660000Y-48095771D02*
X73755238Y-48143390D01*
X73755238Y-48143390D02*
X73802857Y-48191009D01*
X73802857Y-48191009D02*
X73850476Y-48286247D01*
X73850476Y-48286247D02*
X73850476Y-48524342D01*
X73850476Y-48524342D02*
X73802857Y-48619580D01*
X73802857Y-48619580D02*
X73755238Y-48667200D01*
X73755238Y-48667200D02*
X73660000Y-48714819D01*
X73660000Y-48714819D02*
X73374286Y-48714819D01*
X73374286Y-48714819D02*
X73279048Y-48667200D01*
X73279048Y-48667200D02*
X73231429Y-48619580D01*
X74707619Y-48048152D02*
X74707619Y-48714819D01*
X74469524Y-47667200D02*
X74231429Y-48381485D01*
X74231429Y-48381485D02*
X74850476Y-48381485D01*
X163809976Y-32205871D02*
X163809976Y-32920156D01*
X163809976Y-32920156D02*
X163762357Y-33063013D01*
X163762357Y-33063013D02*
X163667119Y-33158252D01*
X163667119Y-33158252D02*
X163524262Y-33205871D01*
X163524262Y-33205871D02*
X163429024Y-33205871D01*
X164809976Y-33205871D02*
X164238548Y-33205871D01*
X164524262Y-33205871D02*
X164524262Y-32205871D01*
X164524262Y-32205871D02*
X164429024Y-32348728D01*
X164429024Y-32348728D02*
X164333786Y-32443966D01*
X164333786Y-32443966D02*
X164238548Y-32491585D01*
X165286167Y-33205871D02*
X165476643Y-33205871D01*
X165476643Y-33205871D02*
X165571881Y-33158252D01*
X165571881Y-33158252D02*
X165619500Y-33110632D01*
X165619500Y-33110632D02*
X165714738Y-32967775D01*
X165714738Y-32967775D02*
X165762357Y-32777299D01*
X165762357Y-32777299D02*
X165762357Y-32396347D01*
X165762357Y-32396347D02*
X165714738Y-32301109D01*
X165714738Y-32301109D02*
X165667119Y-32253490D01*
X165667119Y-32253490D02*
X165571881Y-32205871D01*
X165571881Y-32205871D02*
X165381405Y-32205871D01*
X165381405Y-32205871D02*
X165286167Y-32253490D01*
X165286167Y-32253490D02*
X165238548Y-32301109D01*
X165238548Y-32301109D02*
X165190929Y-32396347D01*
X165190929Y-32396347D02*
X165190929Y-32634442D01*
X165190929Y-32634442D02*
X165238548Y-32729680D01*
X165238548Y-32729680D02*
X165286167Y-32777299D01*
X165286167Y-32777299D02*
X165381405Y-32824918D01*
X165381405Y-32824918D02*
X165571881Y-32824918D01*
X165571881Y-32824918D02*
X165667119Y-32777299D01*
X165667119Y-32777299D02*
X165714738Y-32729680D01*
X165714738Y-32729680D02*
X165762357Y-32634442D01*
X141962166Y-13949871D02*
X141962166Y-14664156D01*
X141962166Y-14664156D02*
X141914547Y-14807013D01*
X141914547Y-14807013D02*
X141819309Y-14902252D01*
X141819309Y-14902252D02*
X141676452Y-14949871D01*
X141676452Y-14949871D02*
X141581214Y-14949871D01*
X142438357Y-14949871D02*
X142438357Y-13949871D01*
X142438357Y-13949871D02*
X142819309Y-13949871D01*
X142819309Y-13949871D02*
X142914547Y-13997490D01*
X142914547Y-13997490D02*
X142962166Y-14045109D01*
X142962166Y-14045109D02*
X143009785Y-14140347D01*
X143009785Y-14140347D02*
X143009785Y-14283204D01*
X143009785Y-14283204D02*
X142962166Y-14378442D01*
X142962166Y-14378442D02*
X142914547Y-14426061D01*
X142914547Y-14426061D02*
X142819309Y-14473680D01*
X142819309Y-14473680D02*
X142438357Y-14473680D01*
X143962166Y-14949871D02*
X143390738Y-14949871D01*
X143676452Y-14949871D02*
X143676452Y-13949871D01*
X143676452Y-13949871D02*
X143581214Y-14092728D01*
X143581214Y-14092728D02*
X143485976Y-14187966D01*
X143485976Y-14187966D02*
X143390738Y-14235585D01*
X81616476Y-100762819D02*
X81616476Y-101477104D01*
X81616476Y-101477104D02*
X81568857Y-101619961D01*
X81568857Y-101619961D02*
X81473619Y-101715200D01*
X81473619Y-101715200D02*
X81330762Y-101762819D01*
X81330762Y-101762819D02*
X81235524Y-101762819D01*
X82616476Y-101762819D02*
X82045048Y-101762819D01*
X82330762Y-101762819D02*
X82330762Y-100762819D01*
X82330762Y-100762819D02*
X82235524Y-100905676D01*
X82235524Y-100905676D02*
X82140286Y-101000914D01*
X82140286Y-101000914D02*
X82045048Y-101048533D01*
X83235524Y-100762819D02*
X83330762Y-100762819D01*
X83330762Y-100762819D02*
X83426000Y-100810438D01*
X83426000Y-100810438D02*
X83473619Y-100858057D01*
X83473619Y-100858057D02*
X83521238Y-100953295D01*
X83521238Y-100953295D02*
X83568857Y-101143771D01*
X83568857Y-101143771D02*
X83568857Y-101381866D01*
X83568857Y-101381866D02*
X83521238Y-101572342D01*
X83521238Y-101572342D02*
X83473619Y-101667580D01*
X83473619Y-101667580D02*
X83426000Y-101715200D01*
X83426000Y-101715200D02*
X83330762Y-101762819D01*
X83330762Y-101762819D02*
X83235524Y-101762819D01*
X83235524Y-101762819D02*
X83140286Y-101715200D01*
X83140286Y-101715200D02*
X83092667Y-101667580D01*
X83092667Y-101667580D02*
X83045048Y-101572342D01*
X83045048Y-101572342D02*
X82997429Y-101381866D01*
X82997429Y-101381866D02*
X82997429Y-101143771D01*
X82997429Y-101143771D02*
X83045048Y-100953295D01*
X83045048Y-100953295D02*
X83092667Y-100858057D01*
X83092667Y-100858057D02*
X83140286Y-100810438D01*
X83140286Y-100810438D02*
X83235524Y-100762819D01*
X55042666Y-100762819D02*
X55042666Y-101477104D01*
X55042666Y-101477104D02*
X54995047Y-101619961D01*
X54995047Y-101619961D02*
X54899809Y-101715200D01*
X54899809Y-101715200D02*
X54756952Y-101762819D01*
X54756952Y-101762819D02*
X54661714Y-101762819D01*
X55661714Y-101191390D02*
X55566476Y-101143771D01*
X55566476Y-101143771D02*
X55518857Y-101096152D01*
X55518857Y-101096152D02*
X55471238Y-101000914D01*
X55471238Y-101000914D02*
X55471238Y-100953295D01*
X55471238Y-100953295D02*
X55518857Y-100858057D01*
X55518857Y-100858057D02*
X55566476Y-100810438D01*
X55566476Y-100810438D02*
X55661714Y-100762819D01*
X55661714Y-100762819D02*
X55852190Y-100762819D01*
X55852190Y-100762819D02*
X55947428Y-100810438D01*
X55947428Y-100810438D02*
X55995047Y-100858057D01*
X55995047Y-100858057D02*
X56042666Y-100953295D01*
X56042666Y-100953295D02*
X56042666Y-101000914D01*
X56042666Y-101000914D02*
X55995047Y-101096152D01*
X55995047Y-101096152D02*
X55947428Y-101143771D01*
X55947428Y-101143771D02*
X55852190Y-101191390D01*
X55852190Y-101191390D02*
X55661714Y-101191390D01*
X55661714Y-101191390D02*
X55566476Y-101239009D01*
X55566476Y-101239009D02*
X55518857Y-101286628D01*
X55518857Y-101286628D02*
X55471238Y-101381866D01*
X55471238Y-101381866D02*
X55471238Y-101572342D01*
X55471238Y-101572342D02*
X55518857Y-101667580D01*
X55518857Y-101667580D02*
X55566476Y-101715200D01*
X55566476Y-101715200D02*
X55661714Y-101762819D01*
X55661714Y-101762819D02*
X55852190Y-101762819D01*
X55852190Y-101762819D02*
X55947428Y-101715200D01*
X55947428Y-101715200D02*
X55995047Y-101667580D01*
X55995047Y-101667580D02*
X56042666Y-101572342D01*
X56042666Y-101572342D02*
X56042666Y-101381866D01*
X56042666Y-101381866D02*
X55995047Y-101286628D01*
X55995047Y-101286628D02*
X55947428Y-101239009D01*
X55947428Y-101239009D02*
X55852190Y-101191390D01*
X134342166Y-83291871D02*
X134342166Y-84006156D01*
X134342166Y-84006156D02*
X134294547Y-84149013D01*
X134294547Y-84149013D02*
X134199309Y-84244252D01*
X134199309Y-84244252D02*
X134056452Y-84291871D01*
X134056452Y-84291871D02*
X133961214Y-84291871D01*
X134818357Y-84291871D02*
X134818357Y-83291871D01*
X134818357Y-83291871D02*
X135199309Y-83291871D01*
X135199309Y-83291871D02*
X135294547Y-83339490D01*
X135294547Y-83339490D02*
X135342166Y-83387109D01*
X135342166Y-83387109D02*
X135389785Y-83482347D01*
X135389785Y-83482347D02*
X135389785Y-83625204D01*
X135389785Y-83625204D02*
X135342166Y-83720442D01*
X135342166Y-83720442D02*
X135294547Y-83768061D01*
X135294547Y-83768061D02*
X135199309Y-83815680D01*
X135199309Y-83815680D02*
X134818357Y-83815680D01*
X135961214Y-83720442D02*
X135865976Y-83672823D01*
X135865976Y-83672823D02*
X135818357Y-83625204D01*
X135818357Y-83625204D02*
X135770738Y-83529966D01*
X135770738Y-83529966D02*
X135770738Y-83482347D01*
X135770738Y-83482347D02*
X135818357Y-83387109D01*
X135818357Y-83387109D02*
X135865976Y-83339490D01*
X135865976Y-83339490D02*
X135961214Y-83291871D01*
X135961214Y-83291871D02*
X136151690Y-83291871D01*
X136151690Y-83291871D02*
X136246928Y-83339490D01*
X136246928Y-83339490D02*
X136294547Y-83387109D01*
X136294547Y-83387109D02*
X136342166Y-83482347D01*
X136342166Y-83482347D02*
X136342166Y-83529966D01*
X136342166Y-83529966D02*
X136294547Y-83625204D01*
X136294547Y-83625204D02*
X136246928Y-83672823D01*
X136246928Y-83672823D02*
X136151690Y-83720442D01*
X136151690Y-83720442D02*
X135961214Y-83720442D01*
X135961214Y-83720442D02*
X135865976Y-83768061D01*
X135865976Y-83768061D02*
X135818357Y-83815680D01*
X135818357Y-83815680D02*
X135770738Y-83910918D01*
X135770738Y-83910918D02*
X135770738Y-84101394D01*
X135770738Y-84101394D02*
X135818357Y-84196632D01*
X135818357Y-84196632D02*
X135865976Y-84244252D01*
X135865976Y-84244252D02*
X135961214Y-84291871D01*
X135961214Y-84291871D02*
X136151690Y-84291871D01*
X136151690Y-84291871D02*
X136246928Y-84244252D01*
X136246928Y-84244252D02*
X136294547Y-84196632D01*
X136294547Y-84196632D02*
X136342166Y-84101394D01*
X136342166Y-84101394D02*
X136342166Y-83910918D01*
X136342166Y-83910918D02*
X136294547Y-83815680D01*
X136294547Y-83815680D02*
X136246928Y-83768061D01*
X136246928Y-83768061D02*
X136151690Y-83720442D01*
X133865976Y-81557871D02*
X133865976Y-82272156D01*
X133865976Y-82272156D02*
X133818357Y-82415013D01*
X133818357Y-82415013D02*
X133723119Y-82510252D01*
X133723119Y-82510252D02*
X133580262Y-82557871D01*
X133580262Y-82557871D02*
X133485024Y-82557871D01*
X134342167Y-82557871D02*
X134342167Y-81557871D01*
X134342167Y-81557871D02*
X134723119Y-81557871D01*
X134723119Y-81557871D02*
X134818357Y-81605490D01*
X134818357Y-81605490D02*
X134865976Y-81653109D01*
X134865976Y-81653109D02*
X134913595Y-81748347D01*
X134913595Y-81748347D02*
X134913595Y-81891204D01*
X134913595Y-81891204D02*
X134865976Y-81986442D01*
X134865976Y-81986442D02*
X134818357Y-82034061D01*
X134818357Y-82034061D02*
X134723119Y-82081680D01*
X134723119Y-82081680D02*
X134342167Y-82081680D01*
X135865976Y-82557871D02*
X135294548Y-82557871D01*
X135580262Y-82557871D02*
X135580262Y-81557871D01*
X135580262Y-81557871D02*
X135485024Y-81700728D01*
X135485024Y-81700728D02*
X135389786Y-81795966D01*
X135389786Y-81795966D02*
X135294548Y-81843585D01*
X136770738Y-81557871D02*
X136294548Y-81557871D01*
X136294548Y-81557871D02*
X136246929Y-82034061D01*
X136246929Y-82034061D02*
X136294548Y-81986442D01*
X136294548Y-81986442D02*
X136389786Y-81938823D01*
X136389786Y-81938823D02*
X136627881Y-81938823D01*
X136627881Y-81938823D02*
X136723119Y-81986442D01*
X136723119Y-81986442D02*
X136770738Y-82034061D01*
X136770738Y-82034061D02*
X136818357Y-82129299D01*
X136818357Y-82129299D02*
X136818357Y-82367394D01*
X136818357Y-82367394D02*
X136770738Y-82462632D01*
X136770738Y-82462632D02*
X136723119Y-82510252D01*
X136723119Y-82510252D02*
X136627881Y-82557871D01*
X136627881Y-82557871D02*
X136389786Y-82557871D01*
X136389786Y-82557871D02*
X136294548Y-82510252D01*
X136294548Y-82510252D02*
X136246929Y-82462632D01*
X171530319Y-82128575D02*
X172244604Y-82128575D01*
X172244604Y-82128575D02*
X172387461Y-82176194D01*
X172387461Y-82176194D02*
X172482700Y-82271432D01*
X172482700Y-82271432D02*
X172530319Y-82414289D01*
X172530319Y-82414289D02*
X172530319Y-82509527D01*
X171530319Y-81747622D02*
X171530319Y-81128575D01*
X171530319Y-81128575D02*
X171911271Y-81461908D01*
X171911271Y-81461908D02*
X171911271Y-81319051D01*
X171911271Y-81319051D02*
X171958890Y-81223813D01*
X171958890Y-81223813D02*
X172006509Y-81176194D01*
X172006509Y-81176194D02*
X172101747Y-81128575D01*
X172101747Y-81128575D02*
X172339842Y-81128575D01*
X172339842Y-81128575D02*
X172435080Y-81176194D01*
X172435080Y-81176194D02*
X172482700Y-81223813D01*
X172482700Y-81223813D02*
X172530319Y-81319051D01*
X172530319Y-81319051D02*
X172530319Y-81604765D01*
X172530319Y-81604765D02*
X172482700Y-81700003D01*
X172482700Y-81700003D02*
X172435080Y-81747622D01*
X171530319Y-80223813D02*
X171530319Y-80700003D01*
X171530319Y-80700003D02*
X172006509Y-80747622D01*
X172006509Y-80747622D02*
X171958890Y-80700003D01*
X171958890Y-80700003D02*
X171911271Y-80604765D01*
X171911271Y-80604765D02*
X171911271Y-80366670D01*
X171911271Y-80366670D02*
X171958890Y-80271432D01*
X171958890Y-80271432D02*
X172006509Y-80223813D01*
X172006509Y-80223813D02*
X172101747Y-80176194D01*
X172101747Y-80176194D02*
X172339842Y-80176194D01*
X172339842Y-80176194D02*
X172435080Y-80223813D01*
X172435080Y-80223813D02*
X172482700Y-80271432D01*
X172482700Y-80271432D02*
X172530319Y-80366670D01*
X172530319Y-80366670D02*
X172530319Y-80604765D01*
X172530319Y-80604765D02*
X172482700Y-80700003D01*
X172482700Y-80700003D02*
X172435080Y-80747622D01*
X174034819Y-21673333D02*
X173558628Y-22006666D01*
X174034819Y-22244761D02*
X173034819Y-22244761D01*
X173034819Y-22244761D02*
X173034819Y-21863809D01*
X173034819Y-21863809D02*
X173082438Y-21768571D01*
X173082438Y-21768571D02*
X173130057Y-21720952D01*
X173130057Y-21720952D02*
X173225295Y-21673333D01*
X173225295Y-21673333D02*
X173368152Y-21673333D01*
X173368152Y-21673333D02*
X173463390Y-21720952D01*
X173463390Y-21720952D02*
X173511009Y-21768571D01*
X173511009Y-21768571D02*
X173558628Y-21863809D01*
X173558628Y-21863809D02*
X173558628Y-22244761D01*
X173511009Y-21244761D02*
X173511009Y-20911428D01*
X174034819Y-20768571D02*
X174034819Y-21244761D01*
X174034819Y-21244761D02*
X173034819Y-21244761D01*
X173034819Y-21244761D02*
X173034819Y-20768571D01*
X173511009Y-20006666D02*
X173511009Y-20339999D01*
X174034819Y-20339999D02*
X173034819Y-20339999D01*
X173034819Y-20339999D02*
X173034819Y-19863809D01*
X173034819Y-19339999D02*
X173272914Y-19339999D01*
X173177676Y-19578094D02*
X173272914Y-19339999D01*
X173272914Y-19339999D02*
X173177676Y-19101904D01*
X173463390Y-19482856D02*
X173272914Y-19339999D01*
X173272914Y-19339999D02*
X173463390Y-19197142D01*
X173034819Y-18578094D02*
X173272914Y-18578094D01*
X173177676Y-18816189D02*
X173272914Y-18578094D01*
X173272914Y-18578094D02*
X173177676Y-18339999D01*
X173463390Y-18720951D02*
X173272914Y-18578094D01*
X173272914Y-18578094D02*
X173463390Y-18435237D01*
X128518319Y-25923146D02*
X127518319Y-25923146D01*
X127518319Y-25923146D02*
X127518319Y-25685051D01*
X127518319Y-25685051D02*
X127565938Y-25542194D01*
X127565938Y-25542194D02*
X127661176Y-25446956D01*
X127661176Y-25446956D02*
X127756414Y-25399337D01*
X127756414Y-25399337D02*
X127946890Y-25351718D01*
X127946890Y-25351718D02*
X128089747Y-25351718D01*
X128089747Y-25351718D02*
X128280223Y-25399337D01*
X128280223Y-25399337D02*
X128375461Y-25446956D01*
X128375461Y-25446956D02*
X128470700Y-25542194D01*
X128470700Y-25542194D02*
X128518319Y-25685051D01*
X128518319Y-25685051D02*
X128518319Y-25923146D01*
X127518319Y-24446956D02*
X127518319Y-24923146D01*
X127518319Y-24923146D02*
X127994509Y-24970765D01*
X127994509Y-24970765D02*
X127946890Y-24923146D01*
X127946890Y-24923146D02*
X127899271Y-24827908D01*
X127899271Y-24827908D02*
X127899271Y-24589813D01*
X127899271Y-24589813D02*
X127946890Y-24494575D01*
X127946890Y-24494575D02*
X127994509Y-24446956D01*
X127994509Y-24446956D02*
X128089747Y-24399337D01*
X128089747Y-24399337D02*
X128327842Y-24399337D01*
X128327842Y-24399337D02*
X128423080Y-24446956D01*
X128423080Y-24446956D02*
X128470700Y-24494575D01*
X128470700Y-24494575D02*
X128518319Y-24589813D01*
X128518319Y-24589813D02*
X128518319Y-24827908D01*
X128518319Y-24827908D02*
X128470700Y-24923146D01*
X128470700Y-24923146D02*
X128423080Y-24970765D01*
X132350319Y-21636956D02*
X131350319Y-21636956D01*
X132350319Y-21065528D02*
X131778890Y-21494099D01*
X131350319Y-21065528D02*
X131921747Y-21636956D01*
X171530319Y-104988575D02*
X172244604Y-104988575D01*
X172244604Y-104988575D02*
X172387461Y-105036194D01*
X172387461Y-105036194D02*
X172482700Y-105131432D01*
X172482700Y-105131432D02*
X172530319Y-105274289D01*
X172530319Y-105274289D02*
X172530319Y-105369527D01*
X171530319Y-104607622D02*
X171530319Y-103988575D01*
X171530319Y-103988575D02*
X171911271Y-104321908D01*
X171911271Y-104321908D02*
X171911271Y-104179051D01*
X171911271Y-104179051D02*
X171958890Y-104083813D01*
X171958890Y-104083813D02*
X172006509Y-104036194D01*
X172006509Y-104036194D02*
X172101747Y-103988575D01*
X172101747Y-103988575D02*
X172339842Y-103988575D01*
X172339842Y-103988575D02*
X172435080Y-104036194D01*
X172435080Y-104036194D02*
X172482700Y-104083813D01*
X172482700Y-104083813D02*
X172530319Y-104179051D01*
X172530319Y-104179051D02*
X172530319Y-104464765D01*
X172530319Y-104464765D02*
X172482700Y-104560003D01*
X172482700Y-104560003D02*
X172435080Y-104607622D01*
X171625557Y-103607622D02*
X171577938Y-103560003D01*
X171577938Y-103560003D02*
X171530319Y-103464765D01*
X171530319Y-103464765D02*
X171530319Y-103226670D01*
X171530319Y-103226670D02*
X171577938Y-103131432D01*
X171577938Y-103131432D02*
X171625557Y-103083813D01*
X171625557Y-103083813D02*
X171720795Y-103036194D01*
X171720795Y-103036194D02*
X171816033Y-103036194D01*
X171816033Y-103036194D02*
X171958890Y-103083813D01*
X171958890Y-103083813D02*
X172530319Y-103655241D01*
X172530319Y-103655241D02*
X172530319Y-103036194D01*
X128518319Y-72151146D02*
X127518319Y-72151146D01*
X127518319Y-72151146D02*
X127518319Y-71913051D01*
X127518319Y-71913051D02*
X127565938Y-71770194D01*
X127565938Y-71770194D02*
X127661176Y-71674956D01*
X127661176Y-71674956D02*
X127756414Y-71627337D01*
X127756414Y-71627337D02*
X127946890Y-71579718D01*
X127946890Y-71579718D02*
X128089747Y-71579718D01*
X128089747Y-71579718D02*
X128280223Y-71627337D01*
X128280223Y-71627337D02*
X128375461Y-71674956D01*
X128375461Y-71674956D02*
X128470700Y-71770194D01*
X128470700Y-71770194D02*
X128518319Y-71913051D01*
X128518319Y-71913051D02*
X128518319Y-72151146D01*
X127518319Y-71246384D02*
X127518319Y-70579718D01*
X127518319Y-70579718D02*
X128518319Y-71008289D01*
X132350319Y-67864956D02*
X131350319Y-67864956D01*
X132350319Y-67293528D02*
X131778890Y-67722099D01*
X131350319Y-67293528D02*
X131921747Y-67864956D01*
X131849905Y-155401371D02*
X131849905Y-154401371D01*
X131849905Y-154401371D02*
X132088000Y-154401371D01*
X132088000Y-154401371D02*
X132230857Y-154448990D01*
X132230857Y-154448990D02*
X132326095Y-154544228D01*
X132326095Y-154544228D02*
X132373714Y-154639466D01*
X132373714Y-154639466D02*
X132421333Y-154829942D01*
X132421333Y-154829942D02*
X132421333Y-154972799D01*
X132421333Y-154972799D02*
X132373714Y-155163275D01*
X132373714Y-155163275D02*
X132326095Y-155258513D01*
X132326095Y-155258513D02*
X132230857Y-155353752D01*
X132230857Y-155353752D02*
X132088000Y-155401371D01*
X132088000Y-155401371D02*
X131849905Y-155401371D01*
X132897524Y-155401371D02*
X133088000Y-155401371D01*
X133088000Y-155401371D02*
X133183238Y-155353752D01*
X133183238Y-155353752D02*
X133230857Y-155306132D01*
X133230857Y-155306132D02*
X133326095Y-155163275D01*
X133326095Y-155163275D02*
X133373714Y-154972799D01*
X133373714Y-154972799D02*
X133373714Y-154591847D01*
X133373714Y-154591847D02*
X133326095Y-154496609D01*
X133326095Y-154496609D02*
X133278476Y-154448990D01*
X133278476Y-154448990D02*
X133183238Y-154401371D01*
X133183238Y-154401371D02*
X132992762Y-154401371D01*
X132992762Y-154401371D02*
X132897524Y-154448990D01*
X132897524Y-154448990D02*
X132849905Y-154496609D01*
X132849905Y-154496609D02*
X132802286Y-154591847D01*
X132802286Y-154591847D02*
X132802286Y-154829942D01*
X132802286Y-154829942D02*
X132849905Y-154925180D01*
X132849905Y-154925180D02*
X132897524Y-154972799D01*
X132897524Y-154972799D02*
X132992762Y-155020418D01*
X132992762Y-155020418D02*
X133183238Y-155020418D01*
X133183238Y-155020418D02*
X133278476Y-154972799D01*
X133278476Y-154972799D02*
X133326095Y-154925180D01*
X133326095Y-154925180D02*
X133373714Y-154829942D01*
X128262095Y-151315371D02*
X128262095Y-150315371D01*
X128833523Y-151315371D02*
X128404952Y-150743942D01*
X128833523Y-150315371D02*
X128262095Y-150886799D01*
X132622319Y-25923146D02*
X131622319Y-25923146D01*
X132622319Y-25351718D02*
X132050890Y-25780289D01*
X131622319Y-25351718D02*
X132193747Y-25923146D01*
X132622319Y-24399337D02*
X132622319Y-24970765D01*
X132622319Y-24685051D02*
X131622319Y-24685051D01*
X131622319Y-24685051D02*
X131765176Y-24780289D01*
X131765176Y-24780289D02*
X131860414Y-24875527D01*
X131860414Y-24875527D02*
X131908033Y-24970765D01*
X109770476Y-15902819D02*
X109770476Y-16617104D01*
X109770476Y-16617104D02*
X109722857Y-16759961D01*
X109722857Y-16759961D02*
X109627619Y-16855200D01*
X109627619Y-16855200D02*
X109484762Y-16902819D01*
X109484762Y-16902819D02*
X109389524Y-16902819D01*
X110770476Y-16902819D02*
X110199048Y-16902819D01*
X110484762Y-16902819D02*
X110484762Y-15902819D01*
X110484762Y-15902819D02*
X110389524Y-16045676D01*
X110389524Y-16045676D02*
X110294286Y-16140914D01*
X110294286Y-16140914D02*
X110199048Y-16188533D01*
X111627619Y-15902819D02*
X111437143Y-15902819D01*
X111437143Y-15902819D02*
X111341905Y-15950438D01*
X111341905Y-15950438D02*
X111294286Y-15998057D01*
X111294286Y-15998057D02*
X111199048Y-16140914D01*
X111199048Y-16140914D02*
X111151429Y-16331390D01*
X111151429Y-16331390D02*
X111151429Y-16712342D01*
X111151429Y-16712342D02*
X111199048Y-16807580D01*
X111199048Y-16807580D02*
X111246667Y-16855200D01*
X111246667Y-16855200D02*
X111341905Y-16902819D01*
X111341905Y-16902819D02*
X111532381Y-16902819D01*
X111532381Y-16902819D02*
X111627619Y-16855200D01*
X111627619Y-16855200D02*
X111675238Y-16807580D01*
X111675238Y-16807580D02*
X111722857Y-16712342D01*
X111722857Y-16712342D02*
X111722857Y-16474247D01*
X111722857Y-16474247D02*
X111675238Y-16379009D01*
X111675238Y-16379009D02*
X111627619Y-16331390D01*
X111627619Y-16331390D02*
X111532381Y-16283771D01*
X111532381Y-16283771D02*
X111341905Y-16283771D01*
X111341905Y-16283771D02*
X111246667Y-16331390D01*
X111246667Y-16331390D02*
X111199048Y-16379009D01*
X111199048Y-16379009D02*
X111151429Y-16474247D01*
X141962166Y-83291871D02*
X141962166Y-84006156D01*
X141962166Y-84006156D02*
X141914547Y-84149013D01*
X141914547Y-84149013D02*
X141819309Y-84244252D01*
X141819309Y-84244252D02*
X141676452Y-84291871D01*
X141676452Y-84291871D02*
X141581214Y-84291871D01*
X142438357Y-84291871D02*
X142438357Y-83291871D01*
X142438357Y-83291871D02*
X142819309Y-83291871D01*
X142819309Y-83291871D02*
X142914547Y-83339490D01*
X142914547Y-83339490D02*
X142962166Y-83387109D01*
X142962166Y-83387109D02*
X143009785Y-83482347D01*
X143009785Y-83482347D02*
X143009785Y-83625204D01*
X143009785Y-83625204D02*
X142962166Y-83720442D01*
X142962166Y-83720442D02*
X142914547Y-83768061D01*
X142914547Y-83768061D02*
X142819309Y-83815680D01*
X142819309Y-83815680D02*
X142438357Y-83815680D01*
X143866928Y-83625204D02*
X143866928Y-84291871D01*
X143628833Y-83244252D02*
X143390738Y-83958537D01*
X143390738Y-83958537D02*
X144009785Y-83958537D01*
X134119976Y-58443871D02*
X134119976Y-59158156D01*
X134119976Y-59158156D02*
X134072357Y-59301013D01*
X134072357Y-59301013D02*
X133977119Y-59396252D01*
X133977119Y-59396252D02*
X133834262Y-59443871D01*
X133834262Y-59443871D02*
X133739024Y-59443871D01*
X134596167Y-59443871D02*
X134596167Y-58443871D01*
X134596167Y-58443871D02*
X134977119Y-58443871D01*
X134977119Y-58443871D02*
X135072357Y-58491490D01*
X135072357Y-58491490D02*
X135119976Y-58539109D01*
X135119976Y-58539109D02*
X135167595Y-58634347D01*
X135167595Y-58634347D02*
X135167595Y-58777204D01*
X135167595Y-58777204D02*
X135119976Y-58872442D01*
X135119976Y-58872442D02*
X135072357Y-58920061D01*
X135072357Y-58920061D02*
X134977119Y-58967680D01*
X134977119Y-58967680D02*
X134596167Y-58967680D01*
X136119976Y-59443871D02*
X135548548Y-59443871D01*
X135834262Y-59443871D02*
X135834262Y-58443871D01*
X135834262Y-58443871D02*
X135739024Y-58586728D01*
X135739024Y-58586728D02*
X135643786Y-58681966D01*
X135643786Y-58681966D02*
X135548548Y-58729585D01*
X136977119Y-58777204D02*
X136977119Y-59443871D01*
X136739024Y-58396252D02*
X136500929Y-59110537D01*
X136500929Y-59110537D02*
X137119976Y-59110537D01*
X145089714Y-155655371D02*
X145089714Y-154655371D01*
X145089714Y-154655371D02*
X145327809Y-154655371D01*
X145327809Y-154655371D02*
X145470666Y-154702990D01*
X145470666Y-154702990D02*
X145565904Y-154798228D01*
X145565904Y-154798228D02*
X145613523Y-154893466D01*
X145613523Y-154893466D02*
X145661142Y-155083942D01*
X145661142Y-155083942D02*
X145661142Y-155226799D01*
X145661142Y-155226799D02*
X145613523Y-155417275D01*
X145613523Y-155417275D02*
X145565904Y-155512513D01*
X145565904Y-155512513D02*
X145470666Y-155607752D01*
X145470666Y-155607752D02*
X145327809Y-155655371D01*
X145327809Y-155655371D02*
X145089714Y-155655371D01*
X146613523Y-155655371D02*
X146042095Y-155655371D01*
X146327809Y-155655371D02*
X146327809Y-154655371D01*
X146327809Y-154655371D02*
X146232571Y-154798228D01*
X146232571Y-154798228D02*
X146137333Y-154893466D01*
X146137333Y-154893466D02*
X146042095Y-154941085D01*
X147232571Y-154655371D02*
X147327809Y-154655371D01*
X147327809Y-154655371D02*
X147423047Y-154702990D01*
X147423047Y-154702990D02*
X147470666Y-154750609D01*
X147470666Y-154750609D02*
X147518285Y-154845847D01*
X147518285Y-154845847D02*
X147565904Y-155036323D01*
X147565904Y-155036323D02*
X147565904Y-155274418D01*
X147565904Y-155274418D02*
X147518285Y-155464894D01*
X147518285Y-155464894D02*
X147470666Y-155560132D01*
X147470666Y-155560132D02*
X147423047Y-155607752D01*
X147423047Y-155607752D02*
X147327809Y-155655371D01*
X147327809Y-155655371D02*
X147232571Y-155655371D01*
X147232571Y-155655371D02*
X147137333Y-155607752D01*
X147137333Y-155607752D02*
X147089714Y-155560132D01*
X147089714Y-155560132D02*
X147042095Y-155464894D01*
X147042095Y-155464894D02*
X146994476Y-155274418D01*
X146994476Y-155274418D02*
X146994476Y-155036323D01*
X146994476Y-155036323D02*
X147042095Y-154845847D01*
X147042095Y-154845847D02*
X147089714Y-154750609D01*
X147089714Y-154750609D02*
X147137333Y-154702990D01*
X147137333Y-154702990D02*
X147232571Y-154655371D01*
X141978095Y-151315371D02*
X141978095Y-150315371D01*
X142549523Y-151315371D02*
X142120952Y-150743942D01*
X142549523Y-150315371D02*
X141978095Y-150886799D01*
X108666476Y-100762819D02*
X108666476Y-101477104D01*
X108666476Y-101477104D02*
X108618857Y-101619961D01*
X108618857Y-101619961D02*
X108523619Y-101715200D01*
X108523619Y-101715200D02*
X108380762Y-101762819D01*
X108380762Y-101762819D02*
X108285524Y-101762819D01*
X109666476Y-101762819D02*
X109095048Y-101762819D01*
X109380762Y-101762819D02*
X109380762Y-100762819D01*
X109380762Y-100762819D02*
X109285524Y-100905676D01*
X109285524Y-100905676D02*
X109190286Y-101000914D01*
X109190286Y-101000914D02*
X109095048Y-101048533D01*
X110047429Y-100858057D02*
X110095048Y-100810438D01*
X110095048Y-100810438D02*
X110190286Y-100762819D01*
X110190286Y-100762819D02*
X110428381Y-100762819D01*
X110428381Y-100762819D02*
X110523619Y-100810438D01*
X110523619Y-100810438D02*
X110571238Y-100858057D01*
X110571238Y-100858057D02*
X110618857Y-100953295D01*
X110618857Y-100953295D02*
X110618857Y-101048533D01*
X110618857Y-101048533D02*
X110571238Y-101191390D01*
X110571238Y-101191390D02*
X109999810Y-101762819D01*
X109999810Y-101762819D02*
X110618857Y-101762819D01*
X97354819Y-155106666D02*
X96878628Y-155439999D01*
X97354819Y-155678094D02*
X96354819Y-155678094D01*
X96354819Y-155678094D02*
X96354819Y-155297142D01*
X96354819Y-155297142D02*
X96402438Y-155201904D01*
X96402438Y-155201904D02*
X96450057Y-155154285D01*
X96450057Y-155154285D02*
X96545295Y-155106666D01*
X96545295Y-155106666D02*
X96688152Y-155106666D01*
X96688152Y-155106666D02*
X96783390Y-155154285D01*
X96783390Y-155154285D02*
X96831009Y-155201904D01*
X96831009Y-155201904D02*
X96878628Y-155297142D01*
X96878628Y-155297142D02*
X96878628Y-155678094D01*
X97354819Y-154154285D02*
X97354819Y-154725713D01*
X97354819Y-154439999D02*
X96354819Y-154439999D01*
X96354819Y-154439999D02*
X96497676Y-154535237D01*
X96497676Y-154535237D02*
X96592914Y-154630475D01*
X96592914Y-154630475D02*
X96640533Y-154725713D01*
X141627976Y-54843871D02*
X141627976Y-55558156D01*
X141627976Y-55558156D02*
X141580357Y-55701013D01*
X141580357Y-55701013D02*
X141485119Y-55796252D01*
X141485119Y-55796252D02*
X141342262Y-55843871D01*
X141342262Y-55843871D02*
X141247024Y-55843871D01*
X142104167Y-55843871D02*
X142104167Y-54843871D01*
X142104167Y-54843871D02*
X142485119Y-54843871D01*
X142485119Y-54843871D02*
X142580357Y-54891490D01*
X142580357Y-54891490D02*
X142627976Y-54939109D01*
X142627976Y-54939109D02*
X142675595Y-55034347D01*
X142675595Y-55034347D02*
X142675595Y-55177204D01*
X142675595Y-55177204D02*
X142627976Y-55272442D01*
X142627976Y-55272442D02*
X142580357Y-55320061D01*
X142580357Y-55320061D02*
X142485119Y-55367680D01*
X142485119Y-55367680D02*
X142104167Y-55367680D01*
X143627976Y-55843871D02*
X143056548Y-55843871D01*
X143342262Y-55843871D02*
X143342262Y-54843871D01*
X143342262Y-54843871D02*
X143247024Y-54986728D01*
X143247024Y-54986728D02*
X143151786Y-55081966D01*
X143151786Y-55081966D02*
X143056548Y-55129585D01*
X144247024Y-54843871D02*
X144342262Y-54843871D01*
X144342262Y-54843871D02*
X144437500Y-54891490D01*
X144437500Y-54891490D02*
X144485119Y-54939109D01*
X144485119Y-54939109D02*
X144532738Y-55034347D01*
X144532738Y-55034347D02*
X144580357Y-55224823D01*
X144580357Y-55224823D02*
X144580357Y-55462918D01*
X144580357Y-55462918D02*
X144532738Y-55653394D01*
X144532738Y-55653394D02*
X144485119Y-55748632D01*
X144485119Y-55748632D02*
X144437500Y-55796252D01*
X144437500Y-55796252D02*
X144342262Y-55843871D01*
X144342262Y-55843871D02*
X144247024Y-55843871D01*
X144247024Y-55843871D02*
X144151786Y-55796252D01*
X144151786Y-55796252D02*
X144104167Y-55748632D01*
X144104167Y-55748632D02*
X144056548Y-55653394D01*
X144056548Y-55653394D02*
X144008929Y-55462918D01*
X144008929Y-55462918D02*
X144008929Y-55224823D01*
X144008929Y-55224823D02*
X144056548Y-55034347D01*
X144056548Y-55034347D02*
X144104167Y-54939109D01*
X144104167Y-54939109D02*
X144151786Y-54891490D01*
X144151786Y-54891490D02*
X144247024Y-54843871D01*
X158805714Y-155147371D02*
X158805714Y-154147371D01*
X158805714Y-154147371D02*
X159043809Y-154147371D01*
X159043809Y-154147371D02*
X159186666Y-154194990D01*
X159186666Y-154194990D02*
X159281904Y-154290228D01*
X159281904Y-154290228D02*
X159329523Y-154385466D01*
X159329523Y-154385466D02*
X159377142Y-154575942D01*
X159377142Y-154575942D02*
X159377142Y-154718799D01*
X159377142Y-154718799D02*
X159329523Y-154909275D01*
X159329523Y-154909275D02*
X159281904Y-155004513D01*
X159281904Y-155004513D02*
X159186666Y-155099752D01*
X159186666Y-155099752D02*
X159043809Y-155147371D01*
X159043809Y-155147371D02*
X158805714Y-155147371D01*
X160329523Y-155147371D02*
X159758095Y-155147371D01*
X160043809Y-155147371D02*
X160043809Y-154147371D01*
X160043809Y-154147371D02*
X159948571Y-154290228D01*
X159948571Y-154290228D02*
X159853333Y-154385466D01*
X159853333Y-154385466D02*
X159758095Y-154433085D01*
X160710476Y-154242609D02*
X160758095Y-154194990D01*
X160758095Y-154194990D02*
X160853333Y-154147371D01*
X160853333Y-154147371D02*
X161091428Y-154147371D01*
X161091428Y-154147371D02*
X161186666Y-154194990D01*
X161186666Y-154194990D02*
X161234285Y-154242609D01*
X161234285Y-154242609D02*
X161281904Y-154337847D01*
X161281904Y-154337847D02*
X161281904Y-154433085D01*
X161281904Y-154433085D02*
X161234285Y-154575942D01*
X161234285Y-154575942D02*
X160662857Y-155147371D01*
X160662857Y-155147371D02*
X161281904Y-155147371D01*
X155948095Y-151315371D02*
X155948095Y-150315371D01*
X156519523Y-151315371D02*
X156090952Y-150743942D01*
X156519523Y-150315371D02*
X155948095Y-150886799D01*
X67836905Y-143814819D02*
X67836905Y-142814819D01*
X67836905Y-142814819D02*
X68075000Y-142814819D01*
X68075000Y-142814819D02*
X68217857Y-142862438D01*
X68217857Y-142862438D02*
X68313095Y-142957676D01*
X68313095Y-142957676D02*
X68360714Y-143052914D01*
X68360714Y-143052914D02*
X68408333Y-143243390D01*
X68408333Y-143243390D02*
X68408333Y-143386247D01*
X68408333Y-143386247D02*
X68360714Y-143576723D01*
X68360714Y-143576723D02*
X68313095Y-143671961D01*
X68313095Y-143671961D02*
X68217857Y-143767200D01*
X68217857Y-143767200D02*
X68075000Y-143814819D01*
X68075000Y-143814819D02*
X67836905Y-143814819D01*
X68741667Y-142814819D02*
X69360714Y-142814819D01*
X69360714Y-142814819D02*
X69027381Y-143195771D01*
X69027381Y-143195771D02*
X69170238Y-143195771D01*
X69170238Y-143195771D02*
X69265476Y-143243390D01*
X69265476Y-143243390D02*
X69313095Y-143291009D01*
X69313095Y-143291009D02*
X69360714Y-143386247D01*
X69360714Y-143386247D02*
X69360714Y-143624342D01*
X69360714Y-143624342D02*
X69313095Y-143719580D01*
X69313095Y-143719580D02*
X69265476Y-143767200D01*
X69265476Y-143767200D02*
X69170238Y-143814819D01*
X69170238Y-143814819D02*
X68884524Y-143814819D01*
X68884524Y-143814819D02*
X68789286Y-143767200D01*
X68789286Y-143767200D02*
X68741667Y-143719580D01*
X173251905Y-150567871D02*
X173251905Y-149567871D01*
X173823333Y-150567871D02*
X173394762Y-149996442D01*
X173823333Y-149567871D02*
X173251905Y-150139299D01*
X174156667Y-149567871D02*
X174823333Y-149567871D01*
X174823333Y-149567871D02*
X174394762Y-150567871D01*
X27720476Y-15902819D02*
X27720476Y-16617104D01*
X27720476Y-16617104D02*
X27672857Y-16759961D01*
X27672857Y-16759961D02*
X27577619Y-16855200D01*
X27577619Y-16855200D02*
X27434762Y-16902819D01*
X27434762Y-16902819D02*
X27339524Y-16902819D01*
X28720476Y-16902819D02*
X28149048Y-16902819D01*
X28434762Y-16902819D02*
X28434762Y-15902819D01*
X28434762Y-15902819D02*
X28339524Y-16045676D01*
X28339524Y-16045676D02*
X28244286Y-16140914D01*
X28244286Y-16140914D02*
X28149048Y-16188533D01*
X29053810Y-15902819D02*
X29672857Y-15902819D01*
X29672857Y-15902819D02*
X29339524Y-16283771D01*
X29339524Y-16283771D02*
X29482381Y-16283771D01*
X29482381Y-16283771D02*
X29577619Y-16331390D01*
X29577619Y-16331390D02*
X29625238Y-16379009D01*
X29625238Y-16379009D02*
X29672857Y-16474247D01*
X29672857Y-16474247D02*
X29672857Y-16712342D01*
X29672857Y-16712342D02*
X29625238Y-16807580D01*
X29625238Y-16807580D02*
X29577619Y-16855200D01*
X29577619Y-16855200D02*
X29482381Y-16902819D01*
X29482381Y-16902819D02*
X29196667Y-16902819D01*
X29196667Y-16902819D02*
X29101429Y-16855200D01*
X29101429Y-16855200D02*
X29053810Y-16807580D01*
X171530319Y-99908575D02*
X172244604Y-99908575D01*
X172244604Y-99908575D02*
X172387461Y-99956194D01*
X172387461Y-99956194D02*
X172482700Y-100051432D01*
X172482700Y-100051432D02*
X172530319Y-100194289D01*
X172530319Y-100194289D02*
X172530319Y-100289527D01*
X171530319Y-99527622D02*
X171530319Y-98908575D01*
X171530319Y-98908575D02*
X171911271Y-99241908D01*
X171911271Y-99241908D02*
X171911271Y-99099051D01*
X171911271Y-99099051D02*
X171958890Y-99003813D01*
X171958890Y-99003813D02*
X172006509Y-98956194D01*
X172006509Y-98956194D02*
X172101747Y-98908575D01*
X172101747Y-98908575D02*
X172339842Y-98908575D01*
X172339842Y-98908575D02*
X172435080Y-98956194D01*
X172435080Y-98956194D02*
X172482700Y-99003813D01*
X172482700Y-99003813D02*
X172530319Y-99099051D01*
X172530319Y-99099051D02*
X172530319Y-99384765D01*
X172530319Y-99384765D02*
X172482700Y-99480003D01*
X172482700Y-99480003D02*
X172435080Y-99527622D01*
X171530319Y-98575241D02*
X171530319Y-97956194D01*
X171530319Y-97956194D02*
X171911271Y-98289527D01*
X171911271Y-98289527D02*
X171911271Y-98146670D01*
X171911271Y-98146670D02*
X171958890Y-98051432D01*
X171958890Y-98051432D02*
X172006509Y-98003813D01*
X172006509Y-98003813D02*
X172101747Y-97956194D01*
X172101747Y-97956194D02*
X172339842Y-97956194D01*
X172339842Y-97956194D02*
X172435080Y-98003813D01*
X172435080Y-98003813D02*
X172482700Y-98051432D01*
X172482700Y-98051432D02*
X172530319Y-98146670D01*
X172530319Y-98146670D02*
X172530319Y-98432384D01*
X172530319Y-98432384D02*
X172482700Y-98527622D01*
X172482700Y-98527622D02*
X172435080Y-98575241D01*
X163595976Y-51871871D02*
X163595976Y-52586156D01*
X163595976Y-52586156D02*
X163548357Y-52729013D01*
X163548357Y-52729013D02*
X163453119Y-52824252D01*
X163453119Y-52824252D02*
X163310262Y-52871871D01*
X163310262Y-52871871D02*
X163215024Y-52871871D01*
X164595976Y-52871871D02*
X164024548Y-52871871D01*
X164310262Y-52871871D02*
X164310262Y-51871871D01*
X164310262Y-51871871D02*
X164215024Y-52014728D01*
X164215024Y-52014728D02*
X164119786Y-52109966D01*
X164119786Y-52109966D02*
X164024548Y-52157585D01*
X165167405Y-52300442D02*
X165072167Y-52252823D01*
X165072167Y-52252823D02*
X165024548Y-52205204D01*
X165024548Y-52205204D02*
X164976929Y-52109966D01*
X164976929Y-52109966D02*
X164976929Y-52062347D01*
X164976929Y-52062347D02*
X165024548Y-51967109D01*
X165024548Y-51967109D02*
X165072167Y-51919490D01*
X165072167Y-51919490D02*
X165167405Y-51871871D01*
X165167405Y-51871871D02*
X165357881Y-51871871D01*
X165357881Y-51871871D02*
X165453119Y-51919490D01*
X165453119Y-51919490D02*
X165500738Y-51967109D01*
X165500738Y-51967109D02*
X165548357Y-52062347D01*
X165548357Y-52062347D02*
X165548357Y-52109966D01*
X165548357Y-52109966D02*
X165500738Y-52205204D01*
X165500738Y-52205204D02*
X165453119Y-52252823D01*
X165453119Y-52252823D02*
X165357881Y-52300442D01*
X165357881Y-52300442D02*
X165167405Y-52300442D01*
X165167405Y-52300442D02*
X165072167Y-52348061D01*
X165072167Y-52348061D02*
X165024548Y-52395680D01*
X165024548Y-52395680D02*
X164976929Y-52490918D01*
X164976929Y-52490918D02*
X164976929Y-52681394D01*
X164976929Y-52681394D02*
X165024548Y-52776632D01*
X165024548Y-52776632D02*
X165072167Y-52824252D01*
X165072167Y-52824252D02*
X165167405Y-52871871D01*
X165167405Y-52871871D02*
X165357881Y-52871871D01*
X165357881Y-52871871D02*
X165453119Y-52824252D01*
X165453119Y-52824252D02*
X165500738Y-52776632D01*
X165500738Y-52776632D02*
X165548357Y-52681394D01*
X165548357Y-52681394D02*
X165548357Y-52490918D01*
X165548357Y-52490918D02*
X165500738Y-52395680D01*
X165500738Y-52395680D02*
X165453119Y-52348061D01*
X165453119Y-52348061D02*
X165357881Y-52300442D01*
X75724819Y-94789523D02*
X76439104Y-94789523D01*
X76439104Y-94789523D02*
X76581961Y-94837142D01*
X76581961Y-94837142D02*
X76677200Y-94932380D01*
X76677200Y-94932380D02*
X76724819Y-95075237D01*
X76724819Y-95075237D02*
X76724819Y-95170475D01*
X75820057Y-94360951D02*
X75772438Y-94313332D01*
X75772438Y-94313332D02*
X75724819Y-94218094D01*
X75724819Y-94218094D02*
X75724819Y-93979999D01*
X75724819Y-93979999D02*
X75772438Y-93884761D01*
X75772438Y-93884761D02*
X75820057Y-93837142D01*
X75820057Y-93837142D02*
X75915295Y-93789523D01*
X75915295Y-93789523D02*
X76010533Y-93789523D01*
X76010533Y-93789523D02*
X76153390Y-93837142D01*
X76153390Y-93837142D02*
X76724819Y-94408570D01*
X76724819Y-94408570D02*
X76724819Y-93789523D01*
X75724819Y-92884761D02*
X75724819Y-93360951D01*
X75724819Y-93360951D02*
X76201009Y-93408570D01*
X76201009Y-93408570D02*
X76153390Y-93360951D01*
X76153390Y-93360951D02*
X76105771Y-93265713D01*
X76105771Y-93265713D02*
X76105771Y-93027618D01*
X76105771Y-93027618D02*
X76153390Y-92932380D01*
X76153390Y-92932380D02*
X76201009Y-92884761D01*
X76201009Y-92884761D02*
X76296247Y-92837142D01*
X76296247Y-92837142D02*
X76534342Y-92837142D01*
X76534342Y-92837142D02*
X76629580Y-92884761D01*
X76629580Y-92884761D02*
X76677200Y-92932380D01*
X76677200Y-92932380D02*
X76724819Y-93027618D01*
X76724819Y-93027618D02*
X76724819Y-93265713D01*
X76724819Y-93265713D02*
X76677200Y-93360951D01*
X76677200Y-93360951D02*
X76629580Y-93408570D01*
X127454819Y-113093333D02*
X126978628Y-113426666D01*
X127454819Y-113664761D02*
X126454819Y-113664761D01*
X126454819Y-113664761D02*
X126454819Y-113283809D01*
X126454819Y-113283809D02*
X126502438Y-113188571D01*
X126502438Y-113188571D02*
X126550057Y-113140952D01*
X126550057Y-113140952D02*
X126645295Y-113093333D01*
X126645295Y-113093333D02*
X126788152Y-113093333D01*
X126788152Y-113093333D02*
X126883390Y-113140952D01*
X126883390Y-113140952D02*
X126931009Y-113188571D01*
X126931009Y-113188571D02*
X126978628Y-113283809D01*
X126978628Y-113283809D02*
X126978628Y-113664761D01*
X126931009Y-112664761D02*
X126931009Y-112331428D01*
X127454819Y-112188571D02*
X127454819Y-112664761D01*
X127454819Y-112664761D02*
X126454819Y-112664761D01*
X126454819Y-112664761D02*
X126454819Y-112188571D01*
X126931009Y-111426666D02*
X126931009Y-111759999D01*
X127454819Y-111759999D02*
X126454819Y-111759999D01*
X126454819Y-111759999D02*
X126454819Y-111283809D01*
X126454819Y-110759999D02*
X126692914Y-110759999D01*
X126597676Y-110998094D02*
X126692914Y-110759999D01*
X126692914Y-110759999D02*
X126597676Y-110521904D01*
X126883390Y-110902856D02*
X126692914Y-110759999D01*
X126692914Y-110759999D02*
X126883390Y-110617142D01*
X126454819Y-109998094D02*
X126692914Y-109998094D01*
X126597676Y-110236189D02*
X126692914Y-109998094D01*
X126692914Y-109998094D02*
X126597676Y-109759999D01*
X126883390Y-110140951D02*
X126692914Y-109998094D01*
X126692914Y-109998094D02*
X126883390Y-109855237D01*
X172775714Y-155179871D02*
X172775714Y-154179871D01*
X172775714Y-154179871D02*
X173013809Y-154179871D01*
X173013809Y-154179871D02*
X173156666Y-154227490D01*
X173156666Y-154227490D02*
X173251904Y-154322728D01*
X173251904Y-154322728D02*
X173299523Y-154417966D01*
X173299523Y-154417966D02*
X173347142Y-154608442D01*
X173347142Y-154608442D02*
X173347142Y-154751299D01*
X173347142Y-154751299D02*
X173299523Y-154941775D01*
X173299523Y-154941775D02*
X173251904Y-155037013D01*
X173251904Y-155037013D02*
X173156666Y-155132252D01*
X173156666Y-155132252D02*
X173013809Y-155179871D01*
X173013809Y-155179871D02*
X172775714Y-155179871D01*
X174299523Y-155179871D02*
X173728095Y-155179871D01*
X174013809Y-155179871D02*
X174013809Y-154179871D01*
X174013809Y-154179871D02*
X173918571Y-154322728D01*
X173918571Y-154322728D02*
X173823333Y-154417966D01*
X173823333Y-154417966D02*
X173728095Y-154465585D01*
X175251904Y-155179871D02*
X174680476Y-155179871D01*
X174966190Y-155179871D02*
X174966190Y-154179871D01*
X174966190Y-154179871D02*
X174870952Y-154322728D01*
X174870952Y-154322728D02*
X174775714Y-154417966D01*
X174775714Y-154417966D02*
X174680476Y-154465585D01*
X169918095Y-151347871D02*
X169918095Y-150347871D01*
X170489523Y-151347871D02*
X170060952Y-150776442D01*
X170489523Y-150347871D02*
X169918095Y-150919299D01*
X75724819Y-137969523D02*
X76439104Y-137969523D01*
X76439104Y-137969523D02*
X76581961Y-138017142D01*
X76581961Y-138017142D02*
X76677200Y-138112380D01*
X76677200Y-138112380D02*
X76724819Y-138255237D01*
X76724819Y-138255237D02*
X76724819Y-138350475D01*
X75820057Y-137540951D02*
X75772438Y-137493332D01*
X75772438Y-137493332D02*
X75724819Y-137398094D01*
X75724819Y-137398094D02*
X75724819Y-137159999D01*
X75724819Y-137159999D02*
X75772438Y-137064761D01*
X75772438Y-137064761D02*
X75820057Y-137017142D01*
X75820057Y-137017142D02*
X75915295Y-136969523D01*
X75915295Y-136969523D02*
X76010533Y-136969523D01*
X76010533Y-136969523D02*
X76153390Y-137017142D01*
X76153390Y-137017142D02*
X76724819Y-137588570D01*
X76724819Y-137588570D02*
X76724819Y-136969523D01*
X75724819Y-136112380D02*
X75724819Y-136302856D01*
X75724819Y-136302856D02*
X75772438Y-136398094D01*
X75772438Y-136398094D02*
X75820057Y-136445713D01*
X75820057Y-136445713D02*
X75962914Y-136540951D01*
X75962914Y-136540951D02*
X76153390Y-136588570D01*
X76153390Y-136588570D02*
X76534342Y-136588570D01*
X76534342Y-136588570D02*
X76629580Y-136540951D01*
X76629580Y-136540951D02*
X76677200Y-136493332D01*
X76677200Y-136493332D02*
X76724819Y-136398094D01*
X76724819Y-136398094D02*
X76724819Y-136207618D01*
X76724819Y-136207618D02*
X76677200Y-136112380D01*
X76677200Y-136112380D02*
X76629580Y-136064761D01*
X76629580Y-136064761D02*
X76534342Y-136017142D01*
X76534342Y-136017142D02*
X76296247Y-136017142D01*
X76296247Y-136017142D02*
X76201009Y-136064761D01*
X76201009Y-136064761D02*
X76153390Y-136112380D01*
X76153390Y-136112380D02*
X76105771Y-136207618D01*
X76105771Y-136207618D02*
X76105771Y-136398094D01*
X76105771Y-136398094D02*
X76153390Y-136493332D01*
X76153390Y-136493332D02*
X76201009Y-136540951D01*
X76201009Y-136540951D02*
X76296247Y-136588570D01*
X159281905Y-150535371D02*
X159281905Y-149535371D01*
X159853333Y-150535371D02*
X159424762Y-149963942D01*
X159853333Y-149535371D02*
X159281905Y-150106799D01*
X160424762Y-149963942D02*
X160329524Y-149916323D01*
X160329524Y-149916323D02*
X160281905Y-149868704D01*
X160281905Y-149868704D02*
X160234286Y-149773466D01*
X160234286Y-149773466D02*
X160234286Y-149725847D01*
X160234286Y-149725847D02*
X160281905Y-149630609D01*
X160281905Y-149630609D02*
X160329524Y-149582990D01*
X160329524Y-149582990D02*
X160424762Y-149535371D01*
X160424762Y-149535371D02*
X160615238Y-149535371D01*
X160615238Y-149535371D02*
X160710476Y-149582990D01*
X160710476Y-149582990D02*
X160758095Y-149630609D01*
X160758095Y-149630609D02*
X160805714Y-149725847D01*
X160805714Y-149725847D02*
X160805714Y-149773466D01*
X160805714Y-149773466D02*
X160758095Y-149868704D01*
X160758095Y-149868704D02*
X160710476Y-149916323D01*
X160710476Y-149916323D02*
X160615238Y-149963942D01*
X160615238Y-149963942D02*
X160424762Y-149963942D01*
X160424762Y-149963942D02*
X160329524Y-150011561D01*
X160329524Y-150011561D02*
X160281905Y-150059180D01*
X160281905Y-150059180D02*
X160234286Y-150154418D01*
X160234286Y-150154418D02*
X160234286Y-150344894D01*
X160234286Y-150344894D02*
X160281905Y-150440132D01*
X160281905Y-150440132D02*
X160329524Y-150487752D01*
X160329524Y-150487752D02*
X160424762Y-150535371D01*
X160424762Y-150535371D02*
X160615238Y-150535371D01*
X160615238Y-150535371D02*
X160710476Y-150487752D01*
X160710476Y-150487752D02*
X160758095Y-150440132D01*
X160758095Y-150440132D02*
X160805714Y-150344894D01*
X160805714Y-150344894D02*
X160805714Y-150154418D01*
X160805714Y-150154418D02*
X160758095Y-150059180D01*
X160758095Y-150059180D02*
X160710476Y-150011561D01*
X160710476Y-150011561D02*
X160615238Y-149963942D01*
X27860666Y-57582819D02*
X27860666Y-58297104D01*
X27860666Y-58297104D02*
X27813047Y-58439961D01*
X27813047Y-58439961D02*
X27717809Y-58535200D01*
X27717809Y-58535200D02*
X27574952Y-58582819D01*
X27574952Y-58582819D02*
X27479714Y-58582819D01*
X28813047Y-57582819D02*
X28336857Y-57582819D01*
X28336857Y-57582819D02*
X28289238Y-58059009D01*
X28289238Y-58059009D02*
X28336857Y-58011390D01*
X28336857Y-58011390D02*
X28432095Y-57963771D01*
X28432095Y-57963771D02*
X28670190Y-57963771D01*
X28670190Y-57963771D02*
X28765428Y-58011390D01*
X28765428Y-58011390D02*
X28813047Y-58059009D01*
X28813047Y-58059009D02*
X28860666Y-58154247D01*
X28860666Y-58154247D02*
X28860666Y-58392342D01*
X28860666Y-58392342D02*
X28813047Y-58487580D01*
X28813047Y-58487580D02*
X28765428Y-58535200D01*
X28765428Y-58535200D02*
X28670190Y-58582819D01*
X28670190Y-58582819D02*
X28432095Y-58582819D01*
X28432095Y-58582819D02*
X28336857Y-58535200D01*
X28336857Y-58535200D02*
X28289238Y-58487580D01*
D11*
%TO.C,R5*%
X19785000Y-155167064D02*
X19785000Y-154712936D01*
X18315000Y-155167064D02*
X18315000Y-154712936D01*
%TO.C,J6*%
X17426000Y-114808000D02*
X17426000Y-109568000D01*
X17426000Y-120068000D02*
X17696000Y-119918000D01*
X17426000Y-120928000D02*
X17426000Y-120068000D01*
X17816000Y-121568000D02*
X17426000Y-120928000D01*
X18426000Y-121228000D02*
X17816000Y-121568000D01*
X23766000Y-124838000D02*
X23766000Y-129608000D01*
X25266000Y-129608000D02*
X23766000Y-129608000D01*
X25266000Y-129608000D02*
X25266000Y-125538000D01*
X27386000Y-125848000D02*
X27386000Y-127108000D01*
X28066000Y-127308000D02*
X27586000Y-127308000D01*
X28266000Y-125708000D02*
X28266000Y-127108000D01*
X31386000Y-125538000D02*
X31386000Y-125538000D01*
X31386000Y-129608000D02*
X31386000Y-125538000D01*
X32886000Y-127308000D02*
X38226000Y-127308000D01*
X32886000Y-129608000D02*
X31386000Y-129608000D01*
X32886000Y-129608000D02*
X32886000Y-127308000D01*
X39226000Y-120048000D02*
X39226000Y-108688000D01*
X17426000Y-109568000D02*
G75*
G03*
X16369311Y-106490431I-5009993J2D01*
G01*
X19756000Y-102678001D02*
G75*
G03*
X16374021Y-106498968I-1330000J-2229999D01*
G01*
X17696000Y-119917999D02*
G75*
G03*
X18166785Y-118759372I-480000J869999D01*
G01*
X19723798Y-121501832D02*
G75*
G03*
X18426000Y-121228000I-807798J-616169D01*
G01*
X23766000Y-124838000D02*
G75*
G03*
X23699636Y-124678864I-199996J10002D01*
G01*
X39226000Y-108688000D02*
G75*
G03*
X24006950Y-103077263I-10899999J-6119998D01*
G01*
X19756000Y-102678000D02*
G75*
G03*
X24017919Y-103074158I2550000J4310003D01*
G01*
X25457697Y-125328798D02*
G75*
G03*
X25266000Y-125538000I18304J-209202D01*
G01*
X27385999Y-125848000D02*
G75*
G03*
X27227582Y-125652371I-200001J-1D01*
G01*
X27386000Y-127108000D02*
G75*
G03*
X27586000Y-127308000I200001J1D01*
G01*
X28066000Y-127308000D02*
G75*
G03*
X28266000Y-127108000I-1J200001D01*
G01*
X31385999Y-125538000D02*
G75*
G03*
X31186991Y-125328289I-209999J0D01*
G01*
X38056000Y-125897999D02*
G75*
G03*
X37720454Y-123617394I170000J1189999D01*
G01*
X38226000Y-127308000D02*
G75*
G03*
X40277619Y-123110858I0J2600000D01*
G01*
X39226000Y-120048000D02*
G75*
G03*
X40278470Y-123113283I4990000J0D01*
G01*
X19626000Y-104908000D02*
G75*
G03*
X19626000Y-104908000I-1200000J0D01*
G01*
X36226000Y-114808000D02*
G75*
G03*
X36226000Y-114808000I-7900000J0D01*
G01*
X37926000Y-114808000D02*
G75*
G03*
X37926000Y-114808000I-9600000J0D01*
G01*
X39226000Y-114808000D02*
G75*
G03*
X39226000Y-114808000I-10900000J0D01*
G01*
%TO.C,K2*%
X137636500Y-149098052D02*
X136426500Y-149098052D01*
X137636500Y-147798052D02*
X137636500Y-149098052D01*
X137476500Y-148948052D02*
X137476500Y-128358052D01*
X137476500Y-128358052D02*
X127096500Y-128358052D01*
X133796500Y-148948052D02*
X133796500Y-147908052D01*
X133796500Y-147888052D02*
X130796500Y-147888052D01*
X132626500Y-147738052D02*
X132626500Y-146538052D01*
X132626500Y-147108052D02*
X133726500Y-147108052D01*
X132626500Y-146938052D02*
X131926500Y-147338052D01*
X132626500Y-146538052D02*
X131926500Y-146538052D01*
X131926500Y-147738052D02*
X132626500Y-147738052D01*
X131926500Y-147108052D02*
X130826500Y-147108052D01*
X131926500Y-146538052D02*
X131926500Y-147738052D01*
X130796500Y-147888052D02*
X130796500Y-148948052D01*
X127096500Y-148948052D02*
X137476500Y-148948052D01*
X127096500Y-128358052D02*
X127096500Y-148948052D01*
%TO.C,JP7*%
X134029500Y-62823052D02*
X134029500Y-62223052D01*
X134729500Y-61523052D02*
X136129500Y-61523052D01*
X136129500Y-63523052D02*
X134729500Y-63523052D01*
X136829500Y-62223052D02*
X136829500Y-62823052D01*
X134729500Y-61523052D02*
G75*
G03*
X134029500Y-62223052I-1J-699999D01*
G01*
X134029500Y-62823052D02*
G75*
G03*
X134729500Y-63523052I699999J-1D01*
G01*
X136829500Y-62223052D02*
G75*
G03*
X136129500Y-61523052I-700000J0D01*
G01*
X136129500Y-63523052D02*
G75*
G03*
X136829500Y-62823052I0J700000D01*
G01*
%TO.C,JP5*%
X134029500Y-16595052D02*
X134029500Y-15995052D01*
X134729500Y-15295052D02*
X136129500Y-15295052D01*
X136129500Y-17295052D02*
X134729500Y-17295052D01*
X136829500Y-15995052D02*
X136829500Y-16595052D01*
X134729500Y-15295052D02*
G75*
G03*
X134029500Y-15995052I-1J-699999D01*
G01*
X134029500Y-16595052D02*
G75*
G03*
X134729500Y-17295052I699999J-1D01*
G01*
X136829500Y-15995052D02*
G75*
G03*
X136129500Y-15295052I-700000J0D01*
G01*
X136129500Y-17295052D02*
G75*
G03*
X136829500Y-16595052I0J700000D01*
G01*
%TO.C,J1*%
X132829500Y-117193052D02*
X145649500Y-117193052D01*
X132829500Y-117193052D02*
X132829500Y-114593052D01*
X145649500Y-117193052D02*
X145649500Y-111993052D01*
X132829500Y-114593052D02*
X135429500Y-114593052D01*
X135429500Y-114593052D02*
X135429500Y-111993052D01*
X132829500Y-113323052D02*
X132829500Y-111993052D01*
X132829500Y-111993052D02*
X134159500Y-111993052D01*
X135429500Y-111993052D02*
X145649500Y-111993052D01*
%TO.C,JP2*%
X141537500Y-39709052D02*
X141537500Y-39109052D01*
X142237500Y-38409052D02*
X143637500Y-38409052D01*
X143637500Y-40409052D02*
X142237500Y-40409052D01*
X144337500Y-39109052D02*
X144337500Y-39709052D01*
X142237500Y-38409052D02*
G75*
G03*
X141537500Y-39109052I-1J-699999D01*
G01*
X141537500Y-39709052D02*
G75*
G03*
X142237500Y-40409052I699999J-1D01*
G01*
X144337500Y-39109052D02*
G75*
G03*
X143637500Y-38409052I-700000J0D01*
G01*
X143637500Y-40409052D02*
G75*
G03*
X144337500Y-39709052I0J700000D01*
G01*
%TO.C,K3*%
X133117500Y-53649052D02*
X133117500Y-52439052D01*
X134417500Y-53649052D02*
X133117500Y-53649052D01*
X133267500Y-53489052D02*
X153857500Y-53489052D01*
X153857500Y-53489052D02*
X153857500Y-43109052D01*
X133267500Y-49809052D02*
X134307500Y-49809052D01*
X134327500Y-49809052D02*
X134327500Y-46809052D01*
X134477500Y-48639052D02*
X135677500Y-48639052D01*
X135107500Y-48639052D02*
X135107500Y-49739052D01*
X135277500Y-48639052D02*
X134877500Y-47939052D01*
X135677500Y-48639052D02*
X135677500Y-47939052D01*
X134477500Y-47939052D02*
X134477500Y-48639052D01*
X135107500Y-47939052D02*
X135107500Y-46839052D01*
X135677500Y-47939052D02*
X134477500Y-47939052D01*
X134327500Y-46809052D02*
X133267500Y-46809052D01*
X133267500Y-43109052D02*
X133267500Y-53489052D01*
X153857500Y-43109052D02*
X133267500Y-43109052D01*
%TO.C,D2*%
X45675000Y-147320000D02*
G75*
G03*
X45675000Y-147320000I-2500000J0D01*
G01*
X40615000Y-148864830D02*
G75*
G03*
X46165000Y-147319538I2560000J1544830D01*
G01*
X46164999Y-147320462D02*
G75*
G03*
X40615001Y-145775170I-2989999J462D01*
G01*
X40615000Y-145775000D02*
X40615000Y-148865000D01*
%TO.C,J15*%
X72330000Y-23208000D02*
X72330000Y-28448000D01*
X76680000Y-39978000D02*
X76680000Y-38698000D01*
X76680000Y-39978000D02*
X77180000Y-40048000D01*
X77180000Y-40048000D02*
X77360000Y-40048000D01*
X78670000Y-40048000D02*
X78600000Y-40048000D01*
X78670000Y-40048000D02*
X78670000Y-43248000D01*
X78990000Y-38698000D02*
X76680000Y-38698000D01*
X78990000Y-38698000D02*
X78990000Y-38498000D01*
X80170000Y-40048000D02*
X80170000Y-43248000D01*
X80170000Y-40048000D02*
X86290000Y-40048000D01*
X80170000Y-43248000D02*
X78670000Y-43248000D01*
X83230000Y-17148000D02*
X78890000Y-17148000D01*
X86290000Y-40048000D02*
X86290000Y-43248000D01*
X86630000Y-18088000D02*
X86630000Y-17898000D01*
X87790000Y-40048000D02*
X87790000Y-43248000D01*
X87790000Y-40048000D02*
X87860000Y-40048000D01*
X87790000Y-43248000D02*
X86290000Y-43248000D01*
X89100000Y-40048000D02*
X91160000Y-40048000D01*
X94130000Y-33398000D02*
X94130000Y-28448000D01*
X75479999Y-16598001D02*
G75*
G03*
X71831035Y-21033578I-2149999J-1949999D01*
G01*
X72329999Y-23208000D02*
G75*
G03*
X71835384Y-21039705I-5000002J-1D01*
G01*
X77360000Y-40048000D02*
G75*
G03*
X78599479Y-40048769I620000J420000D01*
G01*
X75485549Y-16602695D02*
G75*
G03*
X78890000Y-17148000I3404456J10354724D01*
G01*
X85055209Y-36544586D02*
G75*
G03*
X81420000Y-36548000I-1825209J8096586D01*
G01*
X86420458Y-17607752D02*
G75*
G03*
X83230000Y-17148000I-3190458J-10840248D01*
G01*
X86630000Y-17898000D02*
G75*
G03*
X86424232Y-17610323I-290000J10000D01*
G01*
X87860000Y-40048000D02*
G75*
G03*
X89099479Y-40048769I620000J420000D01*
G01*
X94130001Y-33398000D02*
G75*
G03*
X95235277Y-36820002I5849999J0D01*
G01*
X91160000Y-40048000D02*
G75*
G03*
X95235343Y-36818807I1970000J1700000D01*
G01*
X74530000Y-18548000D02*
G75*
G03*
X74530000Y-18548000I-1200000J0D01*
G01*
X94130000Y-28448000D02*
G75*
G03*
X94130000Y-28448000I-10900000J0D01*
G01*
X94330000Y-38348000D02*
G75*
G03*
X94330000Y-38348000I-1200000J0D01*
G01*
%TO.C,R4*%
X45185000Y-155167064D02*
X45185000Y-154712936D01*
X43715000Y-155167064D02*
X43715000Y-154712936D01*
%TO.C,JP13*%
X136575500Y-33775052D02*
X136575500Y-34375052D01*
X135875500Y-35075052D02*
X134475500Y-35075052D01*
X134475500Y-33075052D02*
X135875500Y-33075052D01*
X133775500Y-34375052D02*
X133775500Y-33775052D01*
X135875500Y-35075052D02*
G75*
G03*
X136575500Y-34375052I1J699999D01*
G01*
X136575500Y-33775052D02*
G75*
G03*
X135875500Y-33075052I-699999J1D01*
G01*
X133775500Y-34375052D02*
G75*
G03*
X134475500Y-35075052I700000J0D01*
G01*
X134475500Y-33075052D02*
G75*
G03*
X133775500Y-33775052I0J-700000D01*
G01*
%TO.C,J9*%
X71394000Y-71628000D02*
X71394000Y-66388000D01*
X71394000Y-76888000D02*
X71664000Y-76738000D01*
X71394000Y-77748000D02*
X71394000Y-76888000D01*
X71784000Y-78388000D02*
X71394000Y-77748000D01*
X72394000Y-78048000D02*
X71784000Y-78388000D01*
X77734000Y-81658000D02*
X77734000Y-86428000D01*
X79234000Y-86428000D02*
X77734000Y-86428000D01*
X79234000Y-86428000D02*
X79234000Y-82358000D01*
X81354000Y-82668000D02*
X81354000Y-83928000D01*
X82034000Y-84128000D02*
X81554000Y-84128000D01*
X82234000Y-82528000D02*
X82234000Y-83928000D01*
X85354000Y-82358000D02*
X85354000Y-82358000D01*
X85354000Y-86428000D02*
X85354000Y-82358000D01*
X86854000Y-84128000D02*
X92194000Y-84128000D01*
X86854000Y-86428000D02*
X85354000Y-86428000D01*
X86854000Y-86428000D02*
X86854000Y-84128000D01*
X93194000Y-76868000D02*
X93194000Y-65508000D01*
X71394000Y-66388000D02*
G75*
G03*
X70337311Y-63310431I-5009993J2D01*
G01*
X73724000Y-59498001D02*
G75*
G03*
X70342021Y-63318968I-1330000J-2229999D01*
G01*
X71664000Y-76737999D02*
G75*
G03*
X72134785Y-75579372I-480000J869999D01*
G01*
X73691798Y-78321832D02*
G75*
G03*
X72394000Y-78048000I-807798J-616169D01*
G01*
X77734000Y-81658000D02*
G75*
G03*
X77667636Y-81498864I-199996J10002D01*
G01*
X93194000Y-65508000D02*
G75*
G03*
X77974950Y-59897263I-10899999J-6119998D01*
G01*
X73724000Y-59498000D02*
G75*
G03*
X77985919Y-59894158I2550000J4310003D01*
G01*
X79425697Y-82148798D02*
G75*
G03*
X79234000Y-82358000I18304J-209202D01*
G01*
X81353999Y-82668000D02*
G75*
G03*
X81195582Y-82472371I-200001J-1D01*
G01*
X81354000Y-83928000D02*
G75*
G03*
X81554000Y-84128000I200001J1D01*
G01*
X82034000Y-84128000D02*
G75*
G03*
X82234000Y-83928000I-1J200001D01*
G01*
X85353999Y-82358000D02*
G75*
G03*
X85154991Y-82148289I-209999J0D01*
G01*
X92024000Y-82717999D02*
G75*
G03*
X91688454Y-80437394I170000J1189999D01*
G01*
X92194000Y-84128000D02*
G75*
G03*
X94245619Y-79930858I0J2600000D01*
G01*
X93194000Y-76868000D02*
G75*
G03*
X94246470Y-79933283I4990000J0D01*
G01*
X73594000Y-61728000D02*
G75*
G03*
X73594000Y-61728000I-1200000J0D01*
G01*
X90194000Y-71628000D02*
G75*
G03*
X90194000Y-71628000I-7900000J0D01*
G01*
X91894000Y-71628000D02*
G75*
G03*
X91894000Y-71628000I-9600000J0D01*
G01*
X93194000Y-71628000D02*
G75*
G03*
X93194000Y-71628000I-10900000J0D01*
G01*
%TO.C,D8*%
X129587500Y-91503052D02*
X129587500Y-92153052D01*
X130707500Y-92153052D02*
X128467500Y-92153052D01*
X128467500Y-92153052D02*
X128467500Y-96393052D01*
X130707500Y-92753052D02*
X128467500Y-92753052D01*
X130707500Y-92873052D02*
X128467500Y-92873052D01*
X130707500Y-92993052D02*
X128467500Y-92993052D01*
X130707500Y-96393052D02*
X130707500Y-92153052D01*
X128467500Y-96393052D02*
X130707500Y-96393052D01*
X129587500Y-97043052D02*
X129587500Y-96393052D01*
%TO.C,JP9*%
X141649500Y-34375052D02*
X141649500Y-33775052D01*
X142349500Y-33075052D02*
X143749500Y-33075052D01*
X143749500Y-35075052D02*
X142349500Y-35075052D01*
X144449500Y-33775052D02*
X144449500Y-34375052D01*
X142349500Y-33075052D02*
G75*
G03*
X141649500Y-33775052I-1J-699999D01*
G01*
X141649500Y-34375052D02*
G75*
G03*
X142349500Y-35075052I699999J-1D01*
G01*
X144449500Y-33775052D02*
G75*
G03*
X143749500Y-33075052I-700000J0D01*
G01*
X143749500Y-35075052D02*
G75*
G03*
X144449500Y-34375052I0J700000D01*
G01*
%TO.C,K5*%
X133117500Y-99623052D02*
X133117500Y-98413052D01*
X134417500Y-99623052D02*
X133117500Y-99623052D01*
X133267500Y-99463052D02*
X153857500Y-99463052D01*
X153857500Y-99463052D02*
X153857500Y-89083052D01*
X133267500Y-95783052D02*
X134307500Y-95783052D01*
X134327500Y-95783052D02*
X134327500Y-92783052D01*
X134477500Y-94613052D02*
X135677500Y-94613052D01*
X135107500Y-94613052D02*
X135107500Y-95713052D01*
X135277500Y-94613052D02*
X134877500Y-93913052D01*
X135677500Y-94613052D02*
X135677500Y-93913052D01*
X134477500Y-93913052D02*
X134477500Y-94613052D01*
X135107500Y-93913052D02*
X135107500Y-92813052D01*
X135677500Y-93913052D02*
X134477500Y-93913052D01*
X134327500Y-92783052D02*
X133267500Y-92783052D01*
X133267500Y-89083052D02*
X133267500Y-99463052D01*
X153857500Y-89083052D02*
X133267500Y-89083052D01*
%TO.C,D1*%
X20275000Y-147320000D02*
G75*
G03*
X20275000Y-147320000I-2500000J0D01*
G01*
X15215000Y-148864830D02*
G75*
G03*
X20765000Y-147319538I2560000J1544830D01*
G01*
X20764999Y-147320462D02*
G75*
G03*
X15215001Y-145775170I-2989999J462D01*
G01*
X15215000Y-145775000D02*
X15215000Y-148865000D01*
%TO.C,JP6*%
X134029500Y-39709052D02*
X134029500Y-39109052D01*
X134729500Y-38409052D02*
X136129500Y-38409052D01*
X136129500Y-40409052D02*
X134729500Y-40409052D01*
X136829500Y-39109052D02*
X136829500Y-39709052D01*
X134729500Y-38409052D02*
G75*
G03*
X134029500Y-39109052I-1J-699999D01*
G01*
X134029500Y-39709052D02*
G75*
G03*
X134729500Y-40409052I699999J-1D01*
G01*
X136829500Y-39109052D02*
G75*
G03*
X136129500Y-38409052I-700000J0D01*
G01*
X136129500Y-40409052D02*
G75*
G03*
X136829500Y-39709052I0J700000D01*
G01*
%TO.C,J3*%
X160545500Y-116919052D02*
X173365500Y-116919052D01*
X160545500Y-116919052D02*
X160545500Y-114319052D01*
X173365500Y-116919052D02*
X173365500Y-111719052D01*
X160545500Y-114319052D02*
X163145500Y-114319052D01*
X163145500Y-114319052D02*
X163145500Y-111719052D01*
X160545500Y-113049052D02*
X160545500Y-111719052D01*
X160545500Y-111719052D02*
X161875500Y-111719052D01*
X163145500Y-111719052D02*
X173365500Y-111719052D01*
%TO.C,J7*%
X44344000Y-71628000D02*
X44344000Y-66388000D01*
X44344000Y-76888000D02*
X44614000Y-76738000D01*
X44344000Y-77748000D02*
X44344000Y-76888000D01*
X44734000Y-78388000D02*
X44344000Y-77748000D01*
X45344000Y-78048000D02*
X44734000Y-78388000D01*
X50684000Y-81658000D02*
X50684000Y-86428000D01*
X52184000Y-86428000D02*
X50684000Y-86428000D01*
X52184000Y-86428000D02*
X52184000Y-82358000D01*
X54304000Y-82668000D02*
X54304000Y-83928000D01*
X54984000Y-84128000D02*
X54504000Y-84128000D01*
X55184000Y-82528000D02*
X55184000Y-83928000D01*
X58304000Y-82358000D02*
X58304000Y-82358000D01*
X58304000Y-86428000D02*
X58304000Y-82358000D01*
X59804000Y-84128000D02*
X65144000Y-84128000D01*
X59804000Y-86428000D02*
X58304000Y-86428000D01*
X59804000Y-86428000D02*
X59804000Y-84128000D01*
X66144000Y-76868000D02*
X66144000Y-65508000D01*
X44344000Y-66388000D02*
G75*
G03*
X43287311Y-63310431I-5009993J2D01*
G01*
X46674000Y-59498001D02*
G75*
G03*
X43292021Y-63318968I-1330000J-2229999D01*
G01*
X44614000Y-76737999D02*
G75*
G03*
X45084785Y-75579372I-480000J869999D01*
G01*
X46641798Y-78321832D02*
G75*
G03*
X45344000Y-78048000I-807798J-616169D01*
G01*
X50684000Y-81658000D02*
G75*
G03*
X50617636Y-81498864I-199996J10002D01*
G01*
X66144000Y-65508000D02*
G75*
G03*
X50924950Y-59897263I-10899999J-6119998D01*
G01*
X46674000Y-59498000D02*
G75*
G03*
X50935919Y-59894158I2550000J4310003D01*
G01*
X52375697Y-82148798D02*
G75*
G03*
X52184000Y-82358000I18304J-209202D01*
G01*
X54303999Y-82668000D02*
G75*
G03*
X54145582Y-82472371I-200001J-1D01*
G01*
X54304000Y-83928000D02*
G75*
G03*
X54504000Y-84128000I200001J1D01*
G01*
X54984000Y-84128000D02*
G75*
G03*
X55184000Y-83928000I-1J200001D01*
G01*
X58303999Y-82358000D02*
G75*
G03*
X58104991Y-82148289I-209999J0D01*
G01*
X64974000Y-82717999D02*
G75*
G03*
X64638454Y-80437394I170000J1189999D01*
G01*
X65144000Y-84128000D02*
G75*
G03*
X67195619Y-79930858I0J2600000D01*
G01*
X66144000Y-76868000D02*
G75*
G03*
X67196470Y-79933283I4990000J0D01*
G01*
X46544000Y-61728000D02*
G75*
G03*
X46544000Y-61728000I-1200000J0D01*
G01*
X63144000Y-71628000D02*
G75*
G03*
X63144000Y-71628000I-7900000J0D01*
G01*
X64844000Y-71628000D02*
G75*
G03*
X64844000Y-71628000I-9600000J0D01*
G01*
X66144000Y-71628000D02*
G75*
G03*
X66144000Y-71628000I-10900000J0D01*
G01*
%TO.C,K6*%
X151400000Y-149130552D02*
X150190000Y-149130552D01*
X151400000Y-147830552D02*
X151400000Y-149130552D01*
X151240000Y-148980552D02*
X151240000Y-128390552D01*
X151240000Y-128390552D02*
X140860000Y-128390552D01*
X147560000Y-148980552D02*
X147560000Y-147940552D01*
X147560000Y-147920552D02*
X144560000Y-147920552D01*
X146390000Y-147770552D02*
X146390000Y-146570552D01*
X146390000Y-147140552D02*
X147490000Y-147140552D01*
X146390000Y-146970552D02*
X145690000Y-147370552D01*
X146390000Y-146570552D02*
X145690000Y-146570552D01*
X145690000Y-147770552D02*
X146390000Y-147770552D01*
X145690000Y-147140552D02*
X144590000Y-147140552D01*
X145690000Y-146570552D02*
X145690000Y-147770552D01*
X144560000Y-147920552D02*
X144560000Y-148980552D01*
X140860000Y-148980552D02*
X151240000Y-148980552D01*
X140860000Y-128390552D02*
X140860000Y-148980552D01*
%TO.C,R3*%
X70585000Y-155167064D02*
X70585000Y-154712936D01*
X69115000Y-155167064D02*
X69115000Y-154712936D01*
%TO.C,JP12*%
X141649500Y-103463052D02*
X141649500Y-102863052D01*
X142349500Y-102163052D02*
X143749500Y-102163052D01*
X143749500Y-104163052D02*
X142349500Y-104163052D01*
X144449500Y-102863052D02*
X144449500Y-103463052D01*
X142349500Y-102163052D02*
G75*
G03*
X141649500Y-102863052I-1J-699999D01*
G01*
X141649500Y-103463052D02*
G75*
G03*
X142349500Y-104163052I699999J-1D01*
G01*
X144449500Y-102863052D02*
G75*
G03*
X143749500Y-102163052I-700000J0D01*
G01*
X143749500Y-104163052D02*
G75*
G03*
X144449500Y-103463052I0J700000D01*
G01*
%TO.C,J14*%
X44980000Y-23208000D02*
X44980000Y-28448000D01*
X49330000Y-39978000D02*
X49330000Y-38698000D01*
X49330000Y-39978000D02*
X49830000Y-40048000D01*
X49830000Y-40048000D02*
X50010000Y-40048000D01*
X51320000Y-40048000D02*
X51250000Y-40048000D01*
X51320000Y-40048000D02*
X51320000Y-43248000D01*
X51640000Y-38698000D02*
X49330000Y-38698000D01*
X51640000Y-38698000D02*
X51640000Y-38498000D01*
X52820000Y-40048000D02*
X52820000Y-43248000D01*
X52820000Y-40048000D02*
X58940000Y-40048000D01*
X52820000Y-43248000D02*
X51320000Y-43248000D01*
X55880000Y-17148000D02*
X51540000Y-17148000D01*
X58940000Y-40048000D02*
X58940000Y-43248000D01*
X59280000Y-18088000D02*
X59280000Y-17898000D01*
X60440000Y-40048000D02*
X60440000Y-43248000D01*
X60440000Y-40048000D02*
X60510000Y-40048000D01*
X60440000Y-43248000D02*
X58940000Y-43248000D01*
X61750000Y-40048000D02*
X63810000Y-40048000D01*
X66780000Y-33398000D02*
X66780000Y-28448000D01*
X48129999Y-16598001D02*
G75*
G03*
X44481035Y-21033578I-2149999J-1949999D01*
G01*
X44979999Y-23208000D02*
G75*
G03*
X44485384Y-21039705I-5000002J-1D01*
G01*
X50010000Y-40048000D02*
G75*
G03*
X51249479Y-40048769I620000J420000D01*
G01*
X48135549Y-16602695D02*
G75*
G03*
X51540000Y-17148000I3404456J10354724D01*
G01*
X57705209Y-36544586D02*
G75*
G03*
X54070000Y-36548000I-1825209J8096586D01*
G01*
X59070458Y-17607752D02*
G75*
G03*
X55880000Y-17148000I-3190458J-10840248D01*
G01*
X59280000Y-17898000D02*
G75*
G03*
X59074232Y-17610323I-290000J10000D01*
G01*
X60510000Y-40048000D02*
G75*
G03*
X61749479Y-40048769I620000J420000D01*
G01*
X66780001Y-33398000D02*
G75*
G03*
X67885277Y-36820002I5849999J0D01*
G01*
X63810000Y-40048000D02*
G75*
G03*
X67885343Y-36818807I1970000J1700000D01*
G01*
X47180000Y-18548000D02*
G75*
G03*
X47180000Y-18548000I-1200000J0D01*
G01*
X66780000Y-28448000D02*
G75*
G03*
X66780000Y-28448000I-10900000J0D01*
G01*
X66980000Y-38348000D02*
G75*
G03*
X66980000Y-38348000I-1200000J0D01*
G01*
%TO.C,JP11*%
X141537500Y-80603052D02*
X141537500Y-80003052D01*
X142237500Y-79303052D02*
X143637500Y-79303052D01*
X143637500Y-81303052D02*
X142237500Y-81303052D01*
X144337500Y-80003052D02*
X144337500Y-80603052D01*
X142237500Y-79303052D02*
G75*
G03*
X141537500Y-80003052I-1J-699999D01*
G01*
X141537500Y-80603052D02*
G75*
G03*
X142237500Y-81303052I699999J-1D01*
G01*
X144337500Y-80003052D02*
G75*
G03*
X143637500Y-79303052I-700000J0D01*
G01*
X143637500Y-81303052D02*
G75*
G03*
X144337500Y-80603052I0J700000D01*
G01*
%TO.C,J11*%
X98444000Y-71628000D02*
X98444000Y-66388000D01*
X98444000Y-76888000D02*
X98714000Y-76738000D01*
X98444000Y-77748000D02*
X98444000Y-76888000D01*
X98834000Y-78388000D02*
X98444000Y-77748000D01*
X99444000Y-78048000D02*
X98834000Y-78388000D01*
X104784000Y-81658000D02*
X104784000Y-86428000D01*
X106284000Y-86428000D02*
X104784000Y-86428000D01*
X106284000Y-86428000D02*
X106284000Y-82358000D01*
X108404000Y-82668000D02*
X108404000Y-83928000D01*
X109084000Y-84128000D02*
X108604000Y-84128000D01*
X109284000Y-82528000D02*
X109284000Y-83928000D01*
X112404000Y-82358000D02*
X112404000Y-82358000D01*
X112404000Y-86428000D02*
X112404000Y-82358000D01*
X113904000Y-84128000D02*
X119244000Y-84128000D01*
X113904000Y-86428000D02*
X112404000Y-86428000D01*
X113904000Y-86428000D02*
X113904000Y-84128000D01*
X120244000Y-76868000D02*
X120244000Y-65508000D01*
X98444000Y-66388000D02*
G75*
G03*
X97387311Y-63310431I-5009993J2D01*
G01*
X100774000Y-59498001D02*
G75*
G03*
X97392021Y-63318968I-1330000J-2229999D01*
G01*
X98714000Y-76737999D02*
G75*
G03*
X99184785Y-75579372I-480000J869999D01*
G01*
X100741798Y-78321832D02*
G75*
G03*
X99444000Y-78048000I-807798J-616169D01*
G01*
X104784000Y-81658000D02*
G75*
G03*
X104717636Y-81498864I-199996J10002D01*
G01*
X120244000Y-65508000D02*
G75*
G03*
X105024950Y-59897263I-10899999J-6119998D01*
G01*
X100774000Y-59498000D02*
G75*
G03*
X105035919Y-59894158I2550000J4310003D01*
G01*
X106475697Y-82148798D02*
G75*
G03*
X106284000Y-82358000I18304J-209202D01*
G01*
X108403999Y-82668000D02*
G75*
G03*
X108245582Y-82472371I-200001J-1D01*
G01*
X108404000Y-83928000D02*
G75*
G03*
X108604000Y-84128000I200001J1D01*
G01*
X109084000Y-84128000D02*
G75*
G03*
X109284000Y-83928000I-1J200001D01*
G01*
X112403999Y-82358000D02*
G75*
G03*
X112204991Y-82148289I-209999J0D01*
G01*
X119074000Y-82717999D02*
G75*
G03*
X118738454Y-80437394I170000J1189999D01*
G01*
X119244000Y-84128000D02*
G75*
G03*
X121295619Y-79930858I0J2600000D01*
G01*
X120244000Y-76868000D02*
G75*
G03*
X121296470Y-79933283I4990000J0D01*
G01*
X100644000Y-61728000D02*
G75*
G03*
X100644000Y-61728000I-1200000J0D01*
G01*
X117244000Y-71628000D02*
G75*
G03*
X117244000Y-71628000I-7900000J0D01*
G01*
X118944000Y-71628000D02*
G75*
G03*
X118944000Y-71628000I-9600000J0D01*
G01*
X120244000Y-71628000D02*
G75*
G03*
X120244000Y-71628000I-10900000J0D01*
G01*
%TO.C,JP16*%
X136575500Y-102863052D02*
X136575500Y-103463052D01*
X135875500Y-104163052D02*
X134475500Y-104163052D01*
X134475500Y-102163052D02*
X135875500Y-102163052D01*
X133775500Y-103463052D02*
X133775500Y-102863052D01*
X135875500Y-104163052D02*
G75*
G03*
X136575500Y-103463052I1J699999D01*
G01*
X136575500Y-102863052D02*
G75*
G03*
X135875500Y-102163052I-699999J1D01*
G01*
X133775500Y-103463052D02*
G75*
G03*
X134475500Y-104163052I700000J0D01*
G01*
X134475500Y-102163052D02*
G75*
G03*
X133775500Y-102863052I0J-700000D01*
G01*
%TO.C,D6*%
X130095500Y-45529052D02*
X130095500Y-46179052D01*
X131215500Y-46179052D02*
X128975500Y-46179052D01*
X128975500Y-46179052D02*
X128975500Y-50419052D01*
X131215500Y-46779052D02*
X128975500Y-46779052D01*
X131215500Y-46899052D02*
X128975500Y-46899052D01*
X131215500Y-47019052D02*
X128975500Y-47019052D01*
X131215500Y-50419052D02*
X131215500Y-46179052D01*
X128975500Y-50419052D02*
X131215500Y-50419052D01*
X130095500Y-51069052D02*
X130095500Y-50419052D01*
%TO.C,D4*%
X96475000Y-147320000D02*
G75*
G03*
X96475000Y-147320000I-2500000J0D01*
G01*
X91415000Y-148864830D02*
G75*
G03*
X96965000Y-147319538I2560000J1544830D01*
G01*
X96964999Y-147320462D02*
G75*
G03*
X91415001Y-145775170I-2989999J462D01*
G01*
X91415000Y-145775000D02*
X91415000Y-148865000D01*
%TO.C,JP3*%
X141649500Y-62823052D02*
X141649500Y-62223052D01*
X142349500Y-61523052D02*
X143749500Y-61523052D01*
X143749500Y-63523052D02*
X142349500Y-63523052D01*
X144449500Y-62223052D02*
X144449500Y-62823052D01*
X142349500Y-61523052D02*
G75*
G03*
X141649500Y-62223052I-1J-699999D01*
G01*
X141649500Y-62823052D02*
G75*
G03*
X142349500Y-63523052I699999J-1D01*
G01*
X144449500Y-62223052D02*
G75*
G03*
X143749500Y-61523052I-700000J0D01*
G01*
X143749500Y-63523052D02*
G75*
G03*
X144449500Y-62823052I0J700000D01*
G01*
%TO.C,K4*%
X133117500Y-76763052D02*
X133117500Y-75553052D01*
X134417500Y-76763052D02*
X133117500Y-76763052D01*
X133267500Y-76603052D02*
X153857500Y-76603052D01*
X153857500Y-76603052D02*
X153857500Y-66223052D01*
X133267500Y-72923052D02*
X134307500Y-72923052D01*
X134327500Y-72923052D02*
X134327500Y-69923052D01*
X134477500Y-71753052D02*
X135677500Y-71753052D01*
X135107500Y-71753052D02*
X135107500Y-72853052D01*
X135277500Y-71753052D02*
X134877500Y-71053052D01*
X135677500Y-71753052D02*
X135677500Y-71053052D01*
X134477500Y-71053052D02*
X134477500Y-71753052D01*
X135107500Y-71053052D02*
X135107500Y-69953052D01*
X135677500Y-71053052D02*
X134477500Y-71053052D01*
X134327500Y-69923052D02*
X133267500Y-69923052D01*
X133267500Y-66223052D02*
X133267500Y-76603052D01*
X153857500Y-66223052D02*
X133267500Y-66223052D01*
%TO.C,J19*%
X167219500Y-31311052D02*
X167219500Y-18491052D01*
X167219500Y-31311052D02*
X164619500Y-31311052D01*
X167219500Y-18491052D02*
X162019500Y-18491052D01*
X164619500Y-31311052D02*
X164619500Y-28711052D01*
X164619500Y-28711052D02*
X162019500Y-28711052D01*
X163349500Y-31311052D02*
X162019500Y-31311052D01*
X162019500Y-31311052D02*
X162019500Y-29981052D01*
X162019500Y-28711052D02*
X162019500Y-18491052D01*
%TO.C,JP1*%
X141395500Y-16595052D02*
X141395500Y-15995052D01*
X142095500Y-15295052D02*
X143495500Y-15295052D01*
X143495500Y-17295052D02*
X142095500Y-17295052D01*
X144195500Y-15995052D02*
X144195500Y-16595052D01*
X142095500Y-15295052D02*
G75*
G03*
X141395500Y-15995052I-1J-699999D01*
G01*
X141395500Y-16595052D02*
G75*
G03*
X142095500Y-17295052I699999J-1D01*
G01*
X144195500Y-15995052D02*
G75*
G03*
X143495500Y-15295052I-700000J0D01*
G01*
X143495500Y-17295052D02*
G75*
G03*
X144195500Y-16595052I0J700000D01*
G01*
%TO.C,J10*%
X71526000Y-114808000D02*
X71526000Y-109568000D01*
X71526000Y-120068000D02*
X71796000Y-119918000D01*
X71526000Y-120928000D02*
X71526000Y-120068000D01*
X71916000Y-121568000D02*
X71526000Y-120928000D01*
X72526000Y-121228000D02*
X71916000Y-121568000D01*
X77866000Y-124838000D02*
X77866000Y-129608000D01*
X79366000Y-129608000D02*
X77866000Y-129608000D01*
X79366000Y-129608000D02*
X79366000Y-125538000D01*
X81486000Y-125848000D02*
X81486000Y-127108000D01*
X82166000Y-127308000D02*
X81686000Y-127308000D01*
X82366000Y-125708000D02*
X82366000Y-127108000D01*
X85486000Y-125538000D02*
X85486000Y-125538000D01*
X85486000Y-129608000D02*
X85486000Y-125538000D01*
X86986000Y-127308000D02*
X92326000Y-127308000D01*
X86986000Y-129608000D02*
X85486000Y-129608000D01*
X86986000Y-129608000D02*
X86986000Y-127308000D01*
X93326000Y-120048000D02*
X93326000Y-108688000D01*
X71526000Y-109568000D02*
G75*
G03*
X70469311Y-106490431I-5009993J2D01*
G01*
X73856000Y-102678001D02*
G75*
G03*
X70474021Y-106498968I-1330000J-2229999D01*
G01*
X71796000Y-119917999D02*
G75*
G03*
X72266785Y-118759372I-480000J869999D01*
G01*
X73823798Y-121501832D02*
G75*
G03*
X72526000Y-121228000I-807798J-616169D01*
G01*
X77866000Y-124838000D02*
G75*
G03*
X77799636Y-124678864I-199996J10002D01*
G01*
X93326000Y-108688000D02*
G75*
G03*
X78106950Y-103077263I-10899999J-6119998D01*
G01*
X73856000Y-102678000D02*
G75*
G03*
X78117919Y-103074158I2550000J4310003D01*
G01*
X79557697Y-125328798D02*
G75*
G03*
X79366000Y-125538000I18304J-209202D01*
G01*
X81485999Y-125848000D02*
G75*
G03*
X81327582Y-125652371I-200001J-1D01*
G01*
X81486000Y-127108000D02*
G75*
G03*
X81686000Y-127308000I200001J1D01*
G01*
X82166000Y-127308000D02*
G75*
G03*
X82366000Y-127108000I-1J200001D01*
G01*
X85485999Y-125538000D02*
G75*
G03*
X85286991Y-125328289I-209999J0D01*
G01*
X92156000Y-125897999D02*
G75*
G03*
X91820454Y-123617394I170000J1189999D01*
G01*
X92326000Y-127308000D02*
G75*
G03*
X94377619Y-123110858I0J2600000D01*
G01*
X93326000Y-120048000D02*
G75*
G03*
X94378470Y-123113283I4990000J0D01*
G01*
X73726000Y-104908000D02*
G75*
G03*
X73726000Y-104908000I-1200000J0D01*
G01*
X90326000Y-114808000D02*
G75*
G03*
X90326000Y-114808000I-7900000J0D01*
G01*
X92026000Y-114808000D02*
G75*
G03*
X92026000Y-114808000I-9600000J0D01*
G01*
X93326000Y-114808000D02*
G75*
G03*
X93326000Y-114808000I-10900000J0D01*
G01*
%TO.C,J8*%
X44476000Y-114808000D02*
X44476000Y-109568000D01*
X44476000Y-120068000D02*
X44746000Y-119918000D01*
X44476000Y-120928000D02*
X44476000Y-120068000D01*
X44866000Y-121568000D02*
X44476000Y-120928000D01*
X45476000Y-121228000D02*
X44866000Y-121568000D01*
X50816000Y-124838000D02*
X50816000Y-129608000D01*
X52316000Y-129608000D02*
X50816000Y-129608000D01*
X52316000Y-129608000D02*
X52316000Y-125538000D01*
X54436000Y-125848000D02*
X54436000Y-127108000D01*
X55116000Y-127308000D02*
X54636000Y-127308000D01*
X55316000Y-125708000D02*
X55316000Y-127108000D01*
X58436000Y-125538000D02*
X58436000Y-125538000D01*
X58436000Y-129608000D02*
X58436000Y-125538000D01*
X59936000Y-127308000D02*
X65276000Y-127308000D01*
X59936000Y-129608000D02*
X58436000Y-129608000D01*
X59936000Y-129608000D02*
X59936000Y-127308000D01*
X66276000Y-120048000D02*
X66276000Y-108688000D01*
X44476000Y-109568000D02*
G75*
G03*
X43419311Y-106490431I-5009993J2D01*
G01*
X46806000Y-102678001D02*
G75*
G03*
X43424021Y-106498968I-1330000J-2229999D01*
G01*
X44746000Y-119917999D02*
G75*
G03*
X45216785Y-118759372I-480000J869999D01*
G01*
X46773798Y-121501832D02*
G75*
G03*
X45476000Y-121228000I-807798J-616169D01*
G01*
X50816000Y-124838000D02*
G75*
G03*
X50749636Y-124678864I-199996J10002D01*
G01*
X66276000Y-108688000D02*
G75*
G03*
X51056950Y-103077263I-10899999J-6119998D01*
G01*
X46806000Y-102678000D02*
G75*
G03*
X51067919Y-103074158I2550000J4310003D01*
G01*
X52507697Y-125328798D02*
G75*
G03*
X52316000Y-125538000I18304J-209202D01*
G01*
X54435999Y-125848000D02*
G75*
G03*
X54277582Y-125652371I-200001J-1D01*
G01*
X54436000Y-127108000D02*
G75*
G03*
X54636000Y-127308000I200001J1D01*
G01*
X55116000Y-127308000D02*
G75*
G03*
X55316000Y-127108000I-1J200001D01*
G01*
X58435999Y-125538000D02*
G75*
G03*
X58236991Y-125328289I-209999J0D01*
G01*
X65106000Y-125897999D02*
G75*
G03*
X64770454Y-123617394I170000J1189999D01*
G01*
X65276000Y-127308000D02*
G75*
G03*
X67327619Y-123110858I0J2600000D01*
G01*
X66276000Y-120048000D02*
G75*
G03*
X67328470Y-123113283I4990000J0D01*
G01*
X46676000Y-104908000D02*
G75*
G03*
X46676000Y-104908000I-1200000J0D01*
G01*
X63276000Y-114808000D02*
G75*
G03*
X63276000Y-114808000I-7900000J0D01*
G01*
X64976000Y-114808000D02*
G75*
G03*
X64976000Y-114808000I-9600000J0D01*
G01*
X66276000Y-114808000D02*
G75*
G03*
X66276000Y-114808000I-10900000J0D01*
G01*
%TO.C,JP8*%
X133775500Y-85937052D02*
X133775500Y-85337052D01*
X134475500Y-84637052D02*
X135875500Y-84637052D01*
X135875500Y-86637052D02*
X134475500Y-86637052D01*
X136575500Y-85337052D02*
X136575500Y-85937052D01*
X134475500Y-84637052D02*
G75*
G03*
X133775500Y-85337052I-1J-699999D01*
G01*
X133775500Y-85937052D02*
G75*
G03*
X134475500Y-86637052I699999J-1D01*
G01*
X136575500Y-85337052D02*
G75*
G03*
X135875500Y-84637052I-700000J0D01*
G01*
X135875500Y-86637052D02*
G75*
G03*
X136575500Y-85937052I0J700000D01*
G01*
%TO.C,JP15*%
X136575500Y-80003052D02*
X136575500Y-80603052D01*
X135875500Y-81303052D02*
X134475500Y-81303052D01*
X134475500Y-79303052D02*
X135875500Y-79303052D01*
X133775500Y-80603052D02*
X133775500Y-80003052D01*
X135875500Y-81303052D02*
G75*
G03*
X136575500Y-80603052I1J699999D01*
G01*
X136575500Y-80003052D02*
G75*
G03*
X135875500Y-79303052I-699999J1D01*
G01*
X133775500Y-80603052D02*
G75*
G03*
X134475500Y-81303052I700000J0D01*
G01*
X134475500Y-79303052D02*
G75*
G03*
X133775500Y-80003052I0J-700000D01*
G01*
%TO.C,D5*%
X130095500Y-22415052D02*
X130095500Y-23065052D01*
X131215500Y-23065052D02*
X128975500Y-23065052D01*
X128975500Y-23065052D02*
X128975500Y-27305052D01*
X131215500Y-23665052D02*
X128975500Y-23665052D01*
X131215500Y-23785052D02*
X128975500Y-23785052D01*
X131215500Y-23905052D02*
X128975500Y-23905052D01*
X131215500Y-27305052D02*
X131215500Y-23065052D01*
X128975500Y-27305052D02*
X131215500Y-27305052D01*
X130095500Y-27955052D02*
X130095500Y-27305052D01*
%TO.C,D7*%
X130095500Y-68643052D02*
X130095500Y-69293052D01*
X131215500Y-69293052D02*
X128975500Y-69293052D01*
X128975500Y-69293052D02*
X128975500Y-73533052D01*
X131215500Y-69893052D02*
X128975500Y-69893052D01*
X131215500Y-70013052D02*
X128975500Y-70013052D01*
X131215500Y-70133052D02*
X128975500Y-70133052D01*
X131215500Y-73533052D02*
X131215500Y-69293052D01*
X128975500Y-73533052D02*
X131215500Y-73533052D01*
X130095500Y-74183052D02*
X130095500Y-73533052D01*
%TO.C,D9*%
X129564000Y-152660552D02*
X130214000Y-152660552D01*
X130214000Y-151540552D02*
X130214000Y-153780552D01*
X130214000Y-153780552D02*
X134454000Y-153780552D01*
X130814000Y-151540552D02*
X130814000Y-153780552D01*
X130934000Y-151540552D02*
X130934000Y-153780552D01*
X131054000Y-151540552D02*
X131054000Y-153780552D01*
X134454000Y-151540552D02*
X130214000Y-151540552D01*
X134454000Y-153780552D02*
X134454000Y-151540552D01*
X135104000Y-152660552D02*
X134454000Y-152660552D01*
%TO.C,K1*%
X133117500Y-30535052D02*
X133117500Y-29325052D01*
X134417500Y-30535052D02*
X133117500Y-30535052D01*
X133267500Y-30375052D02*
X153857500Y-30375052D01*
X153857500Y-30375052D02*
X153857500Y-19995052D01*
X133267500Y-26695052D02*
X134307500Y-26695052D01*
X134327500Y-26695052D02*
X134327500Y-23695052D01*
X134477500Y-25525052D02*
X135677500Y-25525052D01*
X135107500Y-25525052D02*
X135107500Y-26625052D01*
X135277500Y-25525052D02*
X134877500Y-24825052D01*
X135677500Y-25525052D02*
X135677500Y-24825052D01*
X134477500Y-24825052D02*
X134477500Y-25525052D01*
X135107500Y-24825052D02*
X135107500Y-23725052D01*
X135677500Y-24825052D02*
X134477500Y-24825052D01*
X134327500Y-23695052D02*
X133267500Y-23695052D01*
X133267500Y-19995052D02*
X133267500Y-30375052D01*
X153857500Y-19995052D02*
X133267500Y-19995052D01*
%TO.C,J16*%
X99680000Y-23208000D02*
X99680000Y-28448000D01*
X104030000Y-39978000D02*
X104030000Y-38698000D01*
X104030000Y-39978000D02*
X104530000Y-40048000D01*
X104530000Y-40048000D02*
X104710000Y-40048000D01*
X106020000Y-40048000D02*
X105950000Y-40048000D01*
X106020000Y-40048000D02*
X106020000Y-43248000D01*
X106340000Y-38698000D02*
X104030000Y-38698000D01*
X106340000Y-38698000D02*
X106340000Y-38498000D01*
X107520000Y-40048000D02*
X107520000Y-43248000D01*
X107520000Y-40048000D02*
X113640000Y-40048000D01*
X107520000Y-43248000D02*
X106020000Y-43248000D01*
X110580000Y-17148000D02*
X106240000Y-17148000D01*
X113640000Y-40048000D02*
X113640000Y-43248000D01*
X113980000Y-18088000D02*
X113980000Y-17898000D01*
X115140000Y-40048000D02*
X115140000Y-43248000D01*
X115140000Y-40048000D02*
X115210000Y-40048000D01*
X115140000Y-43248000D02*
X113640000Y-43248000D01*
X116450000Y-40048000D02*
X118510000Y-40048000D01*
X121480000Y-33398000D02*
X121480000Y-28448000D01*
X102829999Y-16598001D02*
G75*
G03*
X99181035Y-21033578I-2149999J-1949999D01*
G01*
X99679999Y-23208000D02*
G75*
G03*
X99185384Y-21039705I-5000002J-1D01*
G01*
X104710000Y-40048000D02*
G75*
G03*
X105949479Y-40048769I620000J420000D01*
G01*
X102835549Y-16602695D02*
G75*
G03*
X106240000Y-17148000I3404456J10354724D01*
G01*
X112405209Y-36544586D02*
G75*
G03*
X108770000Y-36548000I-1825209J8096586D01*
G01*
X113770458Y-17607752D02*
G75*
G03*
X110580000Y-17148000I-3190458J-10840248D01*
G01*
X113980000Y-17898000D02*
G75*
G03*
X113774232Y-17610323I-290000J10000D01*
G01*
X115210000Y-40048000D02*
G75*
G03*
X116449479Y-40048769I620000J420000D01*
G01*
X121480001Y-33398000D02*
G75*
G03*
X122585277Y-36820002I5849999J0D01*
G01*
X118510000Y-40048000D02*
G75*
G03*
X122585343Y-36818807I1970000J1700000D01*
G01*
X101880000Y-18548000D02*
G75*
G03*
X101880000Y-18548000I-1200000J0D01*
G01*
X121480000Y-28448000D02*
G75*
G03*
X121480000Y-28448000I-10900000J0D01*
G01*
X121680000Y-38348000D02*
G75*
G03*
X121680000Y-38348000I-1200000J0D01*
G01*
%TO.C,JP4*%
X141395500Y-85937052D02*
X141395500Y-85337052D01*
X142095500Y-84637052D02*
X143495500Y-84637052D01*
X143495500Y-86637052D02*
X142095500Y-86637052D01*
X144195500Y-85337052D02*
X144195500Y-85937052D01*
X142095500Y-84637052D02*
G75*
G03*
X141395500Y-85337052I-1J-699999D01*
G01*
X141395500Y-85937052D02*
G75*
G03*
X142095500Y-86637052I699999J-1D01*
G01*
X144195500Y-85337052D02*
G75*
G03*
X143495500Y-84637052I-700000J0D01*
G01*
X143495500Y-86637052D02*
G75*
G03*
X144195500Y-85937052I0J700000D01*
G01*
%TO.C,JP14*%
X136829500Y-56889052D02*
X136829500Y-57489052D01*
X136129500Y-58189052D02*
X134729500Y-58189052D01*
X134729500Y-56189052D02*
X136129500Y-56189052D01*
X134029500Y-57489052D02*
X134029500Y-56889052D01*
X136129500Y-58189052D02*
G75*
G03*
X136829500Y-57489052I1J699999D01*
G01*
X136829500Y-56889052D02*
G75*
G03*
X136129500Y-56189052I-699999J1D01*
G01*
X134029500Y-57489052D02*
G75*
G03*
X134729500Y-58189052I700000J0D01*
G01*
X134729500Y-56189052D02*
G75*
G03*
X134029500Y-56889052I0J-700000D01*
G01*
%TO.C,D10*%
X143280000Y-152660552D02*
X143930000Y-152660552D01*
X143930000Y-151540552D02*
X143930000Y-153780552D01*
X143930000Y-153780552D02*
X148170000Y-153780552D01*
X144530000Y-151540552D02*
X144530000Y-153780552D01*
X144650000Y-151540552D02*
X144650000Y-153780552D01*
X144770000Y-151540552D02*
X144770000Y-153780552D01*
X148170000Y-151540552D02*
X143930000Y-151540552D01*
X148170000Y-153780552D02*
X148170000Y-151540552D01*
X148820000Y-152660552D02*
X148170000Y-152660552D01*
%TO.C,J12*%
X98576000Y-114808000D02*
X98576000Y-109568000D01*
X98576000Y-120068000D02*
X98846000Y-119918000D01*
X98576000Y-120928000D02*
X98576000Y-120068000D01*
X98966000Y-121568000D02*
X98576000Y-120928000D01*
X99576000Y-121228000D02*
X98966000Y-121568000D01*
X104916000Y-124838000D02*
X104916000Y-129608000D01*
X106416000Y-129608000D02*
X104916000Y-129608000D01*
X106416000Y-129608000D02*
X106416000Y-125538000D01*
X108536000Y-125848000D02*
X108536000Y-127108000D01*
X109216000Y-127308000D02*
X108736000Y-127308000D01*
X109416000Y-125708000D02*
X109416000Y-127108000D01*
X112536000Y-125538000D02*
X112536000Y-125538000D01*
X112536000Y-129608000D02*
X112536000Y-125538000D01*
X114036000Y-127308000D02*
X119376000Y-127308000D01*
X114036000Y-129608000D02*
X112536000Y-129608000D01*
X114036000Y-129608000D02*
X114036000Y-127308000D01*
X120376000Y-120048000D02*
X120376000Y-108688000D01*
X98576000Y-109568000D02*
G75*
G03*
X97519311Y-106490431I-5009993J2D01*
G01*
X100906000Y-102678001D02*
G75*
G03*
X97524021Y-106498968I-1330000J-2229999D01*
G01*
X98846000Y-119917999D02*
G75*
G03*
X99316785Y-118759372I-480000J869999D01*
G01*
X100873798Y-121501832D02*
G75*
G03*
X99576000Y-121228000I-807798J-616169D01*
G01*
X104916000Y-124838000D02*
G75*
G03*
X104849636Y-124678864I-199996J10002D01*
G01*
X120376000Y-108688000D02*
G75*
G03*
X105156950Y-103077263I-10899999J-6119998D01*
G01*
X100906000Y-102678000D02*
G75*
G03*
X105167919Y-103074158I2550000J4310003D01*
G01*
X106607697Y-125328798D02*
G75*
G03*
X106416000Y-125538000I18304J-209202D01*
G01*
X108535999Y-125848000D02*
G75*
G03*
X108377582Y-125652371I-200001J-1D01*
G01*
X108536000Y-127108000D02*
G75*
G03*
X108736000Y-127308000I200001J1D01*
G01*
X109216000Y-127308000D02*
G75*
G03*
X109416000Y-127108000I-1J200001D01*
G01*
X112535999Y-125538000D02*
G75*
G03*
X112336991Y-125328289I-209999J0D01*
G01*
X119206000Y-125897999D02*
G75*
G03*
X118870454Y-123617394I170000J1189999D01*
G01*
X119376000Y-127308000D02*
G75*
G03*
X121427619Y-123110858I0J2600000D01*
G01*
X120376000Y-120048000D02*
G75*
G03*
X121428470Y-123113283I4990000J0D01*
G01*
X100776000Y-104908000D02*
G75*
G03*
X100776000Y-104908000I-1200000J0D01*
G01*
X117376000Y-114808000D02*
G75*
G03*
X117376000Y-114808000I-7900000J0D01*
G01*
X119076000Y-114808000D02*
G75*
G03*
X119076000Y-114808000I-9600000J0D01*
G01*
X120376000Y-114808000D02*
G75*
G03*
X120376000Y-114808000I-10900000J0D01*
G01*
%TO.C,R1*%
X94515000Y-154712936D02*
X94515000Y-155167064D01*
X95985000Y-154712936D02*
X95985000Y-155167064D01*
%TO.C,JP10*%
X141537500Y-57489052D02*
X141537500Y-56889052D01*
X142237500Y-56189052D02*
X143637500Y-56189052D01*
X143637500Y-58189052D02*
X142237500Y-58189052D01*
X144337500Y-56889052D02*
X144337500Y-57489052D01*
X142237500Y-56189052D02*
G75*
G03*
X141537500Y-56889052I-1J-699999D01*
G01*
X141537500Y-57489052D02*
G75*
G03*
X142237500Y-58189052I699999J-1D01*
G01*
X144337500Y-56889052D02*
G75*
G03*
X143637500Y-56189052I-700000J0D01*
G01*
X143637500Y-58189052D02*
G75*
G03*
X144337500Y-57489052I0J700000D01*
G01*
%TO.C,D12*%
X157250000Y-152660552D02*
X157900000Y-152660552D01*
X157900000Y-151540552D02*
X157900000Y-153780552D01*
X157900000Y-153780552D02*
X162140000Y-153780552D01*
X158500000Y-151540552D02*
X158500000Y-153780552D01*
X158620000Y-151540552D02*
X158620000Y-153780552D01*
X158740000Y-151540552D02*
X158740000Y-153780552D01*
X162140000Y-151540552D02*
X157900000Y-151540552D01*
X162140000Y-153780552D02*
X162140000Y-151540552D01*
X162790000Y-152660552D02*
X162140000Y-152660552D01*
%TO.C,D3*%
X71075000Y-147320000D02*
G75*
G03*
X71075000Y-147320000I-2500000J0D01*
G01*
X66015000Y-148864830D02*
G75*
G03*
X71565000Y-147319538I2560000J1544830D01*
G01*
X71564999Y-147320462D02*
G75*
G03*
X66015001Y-145775170I-2989999J462D01*
G01*
X66015000Y-145775000D02*
X66015000Y-148865000D01*
%TO.C,K7*%
X179340000Y-149163052D02*
X178130000Y-149163052D01*
X179340000Y-147863052D02*
X179340000Y-149163052D01*
X179180000Y-149013052D02*
X179180000Y-128423052D01*
X179180000Y-128423052D02*
X168800000Y-128423052D01*
X175500000Y-149013052D02*
X175500000Y-147973052D01*
X175500000Y-147953052D02*
X172500000Y-147953052D01*
X174330000Y-147803052D02*
X174330000Y-146603052D01*
X174330000Y-147173052D02*
X175430000Y-147173052D01*
X174330000Y-147003052D02*
X173630000Y-147403052D01*
X174330000Y-146603052D02*
X173630000Y-146603052D01*
X173630000Y-147803052D02*
X174330000Y-147803052D01*
X173630000Y-147173052D02*
X172530000Y-147173052D01*
X173630000Y-146603052D02*
X173630000Y-147803052D01*
X172500000Y-147953052D02*
X172500000Y-149013052D01*
X168800000Y-149013052D02*
X179180000Y-149013052D01*
X168800000Y-128423052D02*
X168800000Y-149013052D01*
%TO.C,J13*%
X17630000Y-23208000D02*
X17630000Y-28448000D01*
X21980000Y-39978000D02*
X21980000Y-38698000D01*
X21980000Y-39978000D02*
X22480000Y-40048000D01*
X22480000Y-40048000D02*
X22660000Y-40048000D01*
X23970000Y-40048000D02*
X23900000Y-40048000D01*
X23970000Y-40048000D02*
X23970000Y-43248000D01*
X24290000Y-38698000D02*
X21980000Y-38698000D01*
X24290000Y-38698000D02*
X24290000Y-38498000D01*
X25470000Y-40048000D02*
X25470000Y-43248000D01*
X25470000Y-40048000D02*
X31590000Y-40048000D01*
X25470000Y-43248000D02*
X23970000Y-43248000D01*
X28530000Y-17148000D02*
X24190000Y-17148000D01*
X31590000Y-40048000D02*
X31590000Y-43248000D01*
X31930000Y-18088000D02*
X31930000Y-17898000D01*
X33090000Y-40048000D02*
X33090000Y-43248000D01*
X33090000Y-40048000D02*
X33160000Y-40048000D01*
X33090000Y-43248000D02*
X31590000Y-43248000D01*
X34400000Y-40048000D02*
X36460000Y-40048000D01*
X39430000Y-33398000D02*
X39430000Y-28448000D01*
X20779999Y-16598001D02*
G75*
G03*
X17131035Y-21033578I-2149999J-1949999D01*
G01*
X17629999Y-23208000D02*
G75*
G03*
X17135384Y-21039705I-5000002J-1D01*
G01*
X22660000Y-40048000D02*
G75*
G03*
X23899479Y-40048769I620000J420000D01*
G01*
X20785549Y-16602695D02*
G75*
G03*
X24190000Y-17148000I3404456J10354724D01*
G01*
X30355209Y-36544586D02*
G75*
G03*
X26720000Y-36548000I-1825209J8096586D01*
G01*
X31720458Y-17607752D02*
G75*
G03*
X28530000Y-17148000I-3190458J-10840248D01*
G01*
X31930000Y-17898000D02*
G75*
G03*
X31724232Y-17610323I-290000J10000D01*
G01*
X33160000Y-40048000D02*
G75*
G03*
X34399479Y-40048769I620000J420000D01*
G01*
X39430001Y-33398000D02*
G75*
G03*
X40535277Y-36820002I5849999J0D01*
G01*
X36460000Y-40048000D02*
G75*
G03*
X40535343Y-36818807I1970000J1700000D01*
G01*
X19830000Y-18548000D02*
G75*
G03*
X19830000Y-18548000I-1200000J0D01*
G01*
X39430000Y-28448000D02*
G75*
G03*
X39430000Y-28448000I-10900000J0D01*
G01*
X39630000Y-38348000D02*
G75*
G03*
X39630000Y-38348000I-1200000J0D01*
G01*
%TO.C,J18*%
X161805500Y-53857052D02*
X161805500Y-66677052D01*
X161805500Y-53857052D02*
X164405500Y-53857052D01*
X161805500Y-66677052D02*
X167005500Y-66677052D01*
X164405500Y-53857052D02*
X164405500Y-56457052D01*
X164405500Y-56457052D02*
X167005500Y-56457052D01*
X165675500Y-53857052D02*
X167005500Y-53857052D01*
X167005500Y-53857052D02*
X167005500Y-55187052D01*
X167005500Y-56457052D02*
X167005500Y-66677052D01*
%TO.C,D11*%
X171220000Y-152693052D02*
X171870000Y-152693052D01*
X171870000Y-151573052D02*
X171870000Y-153813052D01*
X171870000Y-153813052D02*
X176110000Y-153813052D01*
X172470000Y-151573052D02*
X172470000Y-153813052D01*
X172590000Y-151573052D02*
X172590000Y-153813052D01*
X172710000Y-151573052D02*
X172710000Y-153813052D01*
X176110000Y-151573052D02*
X171870000Y-151573052D01*
X176110000Y-153813052D02*
X176110000Y-151573052D01*
X176760000Y-152693052D02*
X176110000Y-152693052D01*
%TO.C,K8*%
X165370000Y-149130552D02*
X164160000Y-149130552D01*
X165370000Y-147830552D02*
X165370000Y-149130552D01*
X165210000Y-148980552D02*
X165210000Y-128390552D01*
X165210000Y-128390552D02*
X154830000Y-128390552D01*
X161530000Y-148980552D02*
X161530000Y-147940552D01*
X161530000Y-147920552D02*
X158530000Y-147920552D01*
X160360000Y-147770552D02*
X160360000Y-146570552D01*
X160360000Y-147140552D02*
X161460000Y-147140552D01*
X160360000Y-146970552D02*
X159660000Y-147370552D01*
X160360000Y-146570552D02*
X159660000Y-146570552D01*
X159660000Y-147770552D02*
X160360000Y-147770552D01*
X159660000Y-147140552D02*
X158560000Y-147140552D01*
X159660000Y-146570552D02*
X159660000Y-147770552D01*
X158530000Y-147920552D02*
X158530000Y-148980552D01*
X154830000Y-148980552D02*
X165210000Y-148980552D01*
X154830000Y-128390552D02*
X154830000Y-148980552D01*
%TO.C,J5*%
X17294000Y-71628000D02*
X17294000Y-66388000D01*
X17294000Y-76888000D02*
X17564000Y-76738000D01*
X17294000Y-77748000D02*
X17294000Y-76888000D01*
X17684000Y-78388000D02*
X17294000Y-77748000D01*
X18294000Y-78048000D02*
X17684000Y-78388000D01*
X23634000Y-81658000D02*
X23634000Y-86428000D01*
X25134000Y-86428000D02*
X23634000Y-86428000D01*
X25134000Y-86428000D02*
X25134000Y-82358000D01*
X27254000Y-82668000D02*
X27254000Y-83928000D01*
X27934000Y-84128000D02*
X27454000Y-84128000D01*
X28134000Y-82528000D02*
X28134000Y-83928000D01*
X31254000Y-82358000D02*
X31254000Y-82358000D01*
X31254000Y-86428000D02*
X31254000Y-82358000D01*
X32754000Y-84128000D02*
X38094000Y-84128000D01*
X32754000Y-86428000D02*
X31254000Y-86428000D01*
X32754000Y-86428000D02*
X32754000Y-84128000D01*
X39094000Y-76868000D02*
X39094000Y-65508000D01*
X17294000Y-66388000D02*
G75*
G03*
X16237311Y-63310431I-5009993J2D01*
G01*
X19624000Y-59498001D02*
G75*
G03*
X16242021Y-63318968I-1330000J-2229999D01*
G01*
X17564000Y-76737999D02*
G75*
G03*
X18034785Y-75579372I-480000J869999D01*
G01*
X19591798Y-78321832D02*
G75*
G03*
X18294000Y-78048000I-807798J-616169D01*
G01*
X23634000Y-81658000D02*
G75*
G03*
X23567636Y-81498864I-199996J10002D01*
G01*
X39094000Y-65508000D02*
G75*
G03*
X23874950Y-59897263I-10899999J-6119998D01*
G01*
X19624000Y-59498000D02*
G75*
G03*
X23885919Y-59894158I2550000J4310003D01*
G01*
X25325697Y-82148798D02*
G75*
G03*
X25134000Y-82358000I18304J-209202D01*
G01*
X27253999Y-82668000D02*
G75*
G03*
X27095582Y-82472371I-200001J-1D01*
G01*
X27254000Y-83928000D02*
G75*
G03*
X27454000Y-84128000I200001J1D01*
G01*
X27934000Y-84128000D02*
G75*
G03*
X28134000Y-83928000I-1J200001D01*
G01*
X31253999Y-82358000D02*
G75*
G03*
X31054991Y-82148289I-209999J0D01*
G01*
X37924000Y-82717999D02*
G75*
G03*
X37588454Y-80437394I170000J1189999D01*
G01*
X38094000Y-84128000D02*
G75*
G03*
X40145619Y-79930858I0J2600000D01*
G01*
X39094000Y-76868000D02*
G75*
G03*
X40146470Y-79933283I4990000J0D01*
G01*
X19494000Y-61728000D02*
G75*
G03*
X19494000Y-61728000I-1200000J0D01*
G01*
X36094000Y-71628000D02*
G75*
G03*
X36094000Y-71628000I-7900000J0D01*
G01*
X37794000Y-71628000D02*
G75*
G03*
X37794000Y-71628000I-9600000J0D01*
G01*
X39094000Y-71628000D02*
G75*
G03*
X39094000Y-71628000I-10900000J0D01*
G01*
%TD*%
M02*
