M48
; DRILL file {KiCad 7.0.6} date Thu Nov 23 12:49:03 2023
; FORMAT={-:-/ absolute / inch / decimal}
; #@! TF.CreationDate,2023-11-23T12:49:03+01:00
; #@! TF.GenerationSoftware,Kicad,Pcbnew,7.0.6
; #@! TF.FileFunction,Plated,1,2,PTH
FMAT,2
INCH
; #@! TA.AperFunction,Plated,PTH,ViaDrill
T1C0.0157
; #@! TA.AperFunction,Plated,PTH,ComponentDrill
T2C0.0197
; #@! TA.AperFunction,Plated,PTH,ComponentDrill
T3C0.0276
; #@! TA.AperFunction,Plated,PTH,ComponentDrill
T4C0.0315
; #@! TA.AperFunction,Plated,PTH,ComponentDrill
T5C0.0354
; #@! TA.AperFunction,Plated,PTH,ComponentDrill
T6C0.0394
; #@! TA.AperFunction,Plated,PTH,ComponentDrill
T7C0.0472
; #@! TA.AperFunction,Plated,PTH,ComponentDrill
T8C0.0610
; #@! TA.AperFunction,Plated,PTH,ComponentDrill
T9C0.0630
; #@! TA.AperFunction,Plated,PTH,ComponentDrill
T10C0.1260
%
G90
G05
T1
X5.9534Y-3.901
X5.9815Y-3.6885
X5.9815Y-3.9285
X6.0115Y-3.7185
X6.0115Y-3.9585
X6.1315Y-3.7985
X6.2615Y-3.0385
X6.2627Y-3.3398
X6.3115Y-3.3707
X6.3415Y-3.3985
X6.3715Y-3.4285
X6.4015Y-3.5685
X6.4233Y-3.6013
X6.4815Y-4.2085
X6.5315Y-3.7885
X6.5315Y-4.1985
X6.56Y-4.1658
X6.6015Y-4.1285
X6.6315Y-4.0985
X7.0115Y-2.8585
X7.1115Y-3.0385
X7.1222Y-4.752
X7.5115Y-3.1085
X7.7515Y-4.3785
X7.9515Y-4.3085
X8.2015Y-3.1085
X8.4115Y-3.1085
X8.6515Y-4.3685
X8.8315Y-4.2385
X9.1115Y-3.1085
X9.3215Y-3.1085
X9.5615Y-4.4985
X9.7815Y-4.2185
X9.8415Y-4.4085
X9.8915Y-4.0685
X9.8915Y-4.3085
X9.9015Y-4.1285
X10.0215Y-3.1085
X10.2315Y-3.1085
X10.2915Y-4.5785
X10.3715Y-4.5485
X10.4315Y-4.6085
X10.4718Y-4.0685
X10.5215Y-4.1185
X10.9315Y-3.1085
T2
X1.1055Y-7.2
X1.1332Y-7.1332
X1.1332Y-7.2668
X1.2Y-7.1055
X1.2Y-7.2945
X1.2668Y-7.1332
X1.2668Y-7.2668
X1.2945Y-7.2
X3.2055Y-7.2
X3.2332Y-7.1332
X3.2332Y-7.2668
X3.3Y-7.1055
X3.3Y-7.2945
X3.3668Y-7.1332
X3.3668Y-7.2668
X3.3945Y-7.2
X6.662Y-4.9095
X6.6896Y-4.8427
X6.6896Y-4.9763
X6.7565Y-4.815
X6.7565Y-5.004
X6.8233Y-4.8427
X6.8233Y-4.9763
X6.8509Y-4.9095
X7.3313Y-2.9367
X7.3589Y-2.8699
X7.3589Y-3.0035
X7.4258Y-2.8422
X7.4258Y-3.0312
X7.4926Y-2.8699
X7.4926Y-3.0035
X7.5202Y-2.9367
X10.0285Y-2.9367
X10.0562Y-2.8699
X10.0562Y-3.0035
X10.123Y-2.8422
X10.123Y-3.0312
X10.1898Y-2.8699
X10.1898Y-3.0035
X10.2175Y-2.9367
X10.6777Y-4.8859
X10.7054Y-4.8191
X10.7054Y-4.9527
X10.7722Y-4.7914
X10.7722Y-4.9804
X10.839Y-4.8191
X10.839Y-4.9527
X10.8667Y-4.8859
T3
X5.7615Y-4.5867
X5.7615Y-4.8867
X5.7627Y-3.4867
X5.7627Y-3.7867
X5.7627Y-4.0367
X5.7627Y-4.3367
X5.764Y-2.9448
X5.764Y-3.2448
X6.0615Y-4.5867
X6.0615Y-4.8867
X6.0627Y-3.4867
X6.0627Y-3.7867
X6.0627Y-4.0367
X6.0627Y-4.3367
X6.064Y-2.9448
X6.064Y-3.2448
X6.2615Y-4.5867
X6.2615Y-4.8867
X6.2627Y-3.4867
X6.2627Y-3.7867
X6.2627Y-4.0367
X6.2627Y-4.3367
X6.264Y-2.9448
X6.264Y-3.2448
X6.4615Y-4.5867
X6.4615Y-4.8867
X6.4627Y-3.4867
X6.4627Y-3.7867
X6.4627Y-4.0367
X6.4627Y-4.3367
X6.464Y-2.9448
X6.464Y-3.2448
X7.7115Y-3.1885
X7.7115Y-3.4885
X7.7115Y-3.6885
X7.7115Y-3.8885
X8.0115Y-3.1885
X8.0115Y-3.4885
X8.0115Y-3.6885
X8.0115Y-3.8885
X8.6115Y-3.1885
X8.6115Y-3.4885
X8.6115Y-3.6885
X8.6115Y-3.8885
X8.9115Y-3.1885
X8.9115Y-3.4885
X8.9115Y-3.6885
X8.9115Y-3.8885
X9.5215Y-3.1885
X9.5215Y-3.4885
X9.5215Y-3.6885
X9.5215Y-3.8885
X9.8215Y-3.1885
X9.8215Y-3.4885
X9.8215Y-3.6885
X9.8215Y-3.8885
X10.4315Y-3.1885
X10.4315Y-3.4885
X10.4315Y-3.6885
X10.4315Y-3.8885
X10.7315Y-3.1885
X10.7315Y-3.4885
X10.7315Y-3.6885
X10.7315Y-3.8885
T4
X5.5615Y-4.5867
X5.5615Y-4.8867
X5.5627Y-2.9467
X5.5627Y-3.2467
X5.5627Y-3.4867
X5.5627Y-3.7867
X5.5627Y-4.0367
X5.5627Y-4.3367
X7.7115Y-2.9885
X8.0115Y-2.9885
X8.6115Y-3.0085
X8.9115Y-3.0085
X9.5215Y-3.0085
X9.8215Y-3.0085
X10.4315Y-3.0085
X10.7315Y-3.0085
T5
X0.6498Y-7.1
X0.7498Y-7.1
X1.6498Y-7.1
X1.7498Y-7.1
X2.6498Y-7.1
X2.7498Y-7.1
X3.6498Y-7.1
X3.7498Y-7.1
T6
X2.0488Y-7.3492
X2.0488Y-7.4492
X2.1488Y-7.3492
X2.1488Y-7.4492
X2.2112Y-4.2508
X2.2112Y-4.3508
X2.2212Y-6.4104
X2.2212Y-6.5104
X2.2412Y-1.9508
X2.2412Y-2.0508
X2.2488Y-7.3492
X2.2488Y-7.4492
X2.3112Y-4.2508
X2.3112Y-4.3508
X2.3212Y-6.4104
X2.3212Y-6.5104
X2.3412Y-1.9508
X2.3412Y-2.0508
X2.3488Y-7.3492
X2.3488Y-7.4492
X2.4112Y-4.2508
X2.4112Y-4.3508
X2.4212Y-6.4104
X2.4212Y-6.5104
X2.4412Y-1.9508
X2.4412Y-2.0508
X2.4488Y-7.3492
X2.4488Y-7.4492
X2.5112Y-4.2508
X2.5112Y-4.3508
X2.5212Y-6.4104
X2.5212Y-6.5104
X2.5412Y-1.9508
X2.5412Y-2.0508
X2.6112Y-4.2508
X2.6112Y-4.3508
X2.6212Y-6.4104
X2.6212Y-6.5104
X2.6412Y-1.9508
X2.6412Y-2.0508
X7.0115Y-3.1685
X7.0115Y-3.2685
X7.0115Y-3.3685
X7.0115Y-3.4685
X7.0115Y-3.5685
X7.0222Y-4.2597
X7.0222Y-4.3597
X7.0222Y-4.4597
X7.0222Y-4.5597
X7.0222Y-4.6597
X7.1115Y-3.1685
X7.1115Y-3.2685
X7.1115Y-3.3685
X7.1115Y-3.4685
X7.1115Y-3.5685
X7.1222Y-4.2597
X7.1222Y-4.3597
X7.1222Y-4.4597
X7.1222Y-4.5597
X7.1222Y-4.6597
X9.0003Y-4.3093
X9.0003Y-4.4093
X9.1003Y-4.3093
X9.1003Y-4.4093
X9.2003Y-4.3093
X9.2003Y-4.4093
X9.3003Y-4.3093
X9.3003Y-4.4093
X9.4003Y-4.3093
X9.4003Y-4.4093
X10.3926Y-4.3178
X10.3926Y-4.4178
X10.4926Y-4.3178
X10.4926Y-4.4178
X10.5926Y-4.3178
X10.5926Y-4.4178
X10.6926Y-4.3178
X10.6926Y-4.4178
X10.7926Y-4.3178
X10.7926Y-4.4178
T7
X1.11Y-3.5952
X1.1152Y-5.7548
X1.1232Y-1.445
X1.4348Y-3.82
X1.44Y-5.9796
X2.175Y-3.5952
X2.1802Y-5.7548
X2.2Y-1.445
X2.4998Y-3.82
X2.505Y-5.9796
X3.2399Y-3.5952
X3.2451Y-5.7548
X3.2768Y-1.445
X3.5647Y-3.82
X3.5699Y-5.9796
X4.3049Y-3.5952
X4.3101Y-5.7548
X4.3535Y-1.445
X4.6297Y-3.82
X4.6349Y-5.9796
T8
X2.9Y-2.0
X2.9Y-4.3
X2.9Y-6.4596
X3.1Y-2.0
X3.1Y-4.3
X3.1Y-6.4596
X7.4715Y-4.7585
X7.6715Y-4.7585
X8.1715Y-4.7585
X8.3715Y-4.7585
X8.5715Y-4.7585
X8.8715Y-4.7585
X9.0715Y-4.7585
X9.2715Y-4.7585
T9
X0.96Y-3.42
X0.9652Y-5.5796
X0.9732Y-1.12
X1.1232Y-1.27
X1.26Y-3.42
X1.2652Y-5.5796
X1.2732Y-1.12
X2.025Y-3.42
X2.0302Y-5.5796
X2.05Y-1.12
X2.2Y-1.27
X2.325Y-3.42
X2.3302Y-5.5796
X2.35Y-1.12
X3.0899Y-3.42
X3.0951Y-5.5796
X3.1268Y-1.12
X3.2768Y-1.27
X3.3899Y-3.42
X3.3951Y-5.5796
X3.4268Y-1.12
X4.1549Y-3.42
X4.1601Y-5.5796
X4.2035Y-1.12
X4.3535Y-1.27
X4.4549Y-3.42
X4.4601Y-5.5796
X4.5035Y-1.12
T10
X1.2Y-7.2
X3.3Y-7.2
X6.7565Y-4.9095
X7.4258Y-2.9367
X10.123Y-2.9367
X10.7722Y-4.8859
T0
M30
