%TF.GenerationSoftware,KiCad,Pcbnew,7.0.6*%
%TF.CreationDate,2023-11-23T12:49:08+01:00*%
%TF.ProjectId,EF_matrix,45465f6d-6174-4726-9978-2e6b69636164,rev?*%
%TF.SameCoordinates,Original*%
%TF.FileFunction,Soldermask,Top*%
%TF.FilePolarity,Negative*%
%FSLAX46Y46*%
G04 Gerber Fmt 4.6, Leading zero omitted, Abs format (unit mm)*
G04 Created by KiCad (PCBNEW 7.0.6) date 2023-11-23 12:49:08*
%MOMM*%
%LPD*%
G01*
G04 APERTURE LIST*
G04 Aperture macros list*
%AMRoundRect*
0 Rectangle with rounded corners*
0 $1 Rounding radius*
0 $2 $3 $4 $5 $6 $7 $8 $9 X,Y pos of 4 corners*
0 Add a 4 corners polygon primitive as box body*
4,1,4,$2,$3,$4,$5,$6,$7,$8,$9,$2,$3,0*
0 Add four circle primitives for the rounded corners*
1,1,$1+$1,$2,$3*
1,1,$1+$1,$4,$5*
1,1,$1+$1,$6,$7*
1,1,$1+$1,$8,$9*
0 Add four rect primitives between the rounded corners*
20,1,$1+$1,$2,$3,$4,$5,0*
20,1,$1+$1,$4,$5,$6,$7,0*
20,1,$1+$1,$6,$7,$8,$9,0*
20,1,$1+$1,$8,$9,$2,$3,0*%
%AMFreePoly0*
4,1,19,0.000000,0.744911,0.071157,0.744911,0.207708,0.704816,0.327430,0.627875,0.420627,0.520320,0.479746,0.390866,0.500000,0.250000,0.500000,-0.250000,0.479746,-0.390866,0.420627,-0.520320,0.327430,-0.627875,0.207708,-0.704816,0.071157,-0.744911,0.000000,-0.744911,0.000000,-0.750000,-0.500000,-0.750000,-0.500000,0.750000,0.000000,0.750000,0.000000,0.744911,0.000000,0.744911,
$1*%
%AMFreePoly1*
4,1,19,0.500000,-0.750000,0.000000,-0.750000,0.000000,-0.744911,-0.071157,-0.744911,-0.207708,-0.704816,-0.327430,-0.627875,-0.420627,-0.520320,-0.479746,-0.390866,-0.500000,-0.250000,-0.500000,0.250000,-0.479746,0.390866,-0.420627,0.520320,-0.327430,0.627875,-0.207708,0.704816,-0.071157,0.744911,0.000000,0.744911,0.000000,0.750000,0.500000,0.750000,0.500000,-0.750000,0.500000,-0.750000,
$1*%
G04 Aperture macros list end*
%ADD10RoundRect,0.250000X0.450000X-0.262500X0.450000X0.262500X-0.450000X0.262500X-0.450000X-0.262500X0*%
%ADD11C,3.400000*%
%ADD12C,2.900000*%
%ADD13C,1.400000*%
%ADD14R,1.400000X1.400000*%
%ADD15RoundRect,0.249999X-1.025001X-1.025001X1.025001X-1.025001X1.025001X1.025001X-1.025001X1.025001X0*%
%ADD16FreePoly0,270.000000*%
%ADD17FreePoly1,270.000000*%
%ADD18RoundRect,0.249999X1.025001X-1.025001X1.025001X1.025001X-1.025001X1.025001X-1.025001X-1.025001X0*%
%ADD19O,1.700000X1.700000*%
%ADD20R,1.700000X1.700000*%
%ADD21C,1.800000*%
%ADD22R,1.800000X1.800000*%
%ADD23FreePoly0,90.000000*%
%ADD24FreePoly1,90.000000*%
%ADD25O,1.600000X1.600000*%
%ADD26R,1.600000X1.600000*%
%ADD27C,0.800000*%
%ADD28C,6.400000*%
%ADD29RoundRect,0.250000X-0.450000X0.262500X-0.450000X-0.262500X0.450000X-0.262500X0.450000X0.262500X0*%
G04 APERTURE END LIST*
D10*
%TO.C,R5*%
X19050000Y-187047500D03*
X19050000Y-188872500D03*
%TD*%
D11*
%TO.C,J6*%
X32136000Y-141722000D03*
X24516000Y-141722000D03*
D12*
X28326000Y-146172000D03*
X36576000Y-151882000D03*
%TD*%
D13*
%TO.C,K2*%
X146406000Y-74798000D03*
X154026000Y-74798000D03*
X159106000Y-74798000D03*
X164186000Y-74798000D03*
X164186000Y-82418000D03*
X159106000Y-82418000D03*
X154026000Y-82418000D03*
D14*
X146406000Y-82418000D03*
%TD*%
D15*
%TO.C,J40*%
X235495000Y-120867000D03*
%TD*%
D16*
%TO.C,JP7*%
X231431000Y-82401000D03*
D17*
X231431000Y-81101000D03*
%TD*%
D18*
%TO.C,J22*%
X73660000Y-109220000D03*
%TD*%
D16*
%TO.C,JP5*%
X277659000Y-82401000D03*
D17*
X277659000Y-81101000D03*
%TD*%
D19*
%TO.C,J1*%
X178091000Y-90641000D03*
X180631000Y-90641000D03*
X178091000Y-88101000D03*
X180631000Y-88101000D03*
X178091000Y-85561000D03*
X180631000Y-85561000D03*
X178091000Y-83021000D03*
X180631000Y-83021000D03*
X178091000Y-80481000D03*
D20*
X180631000Y-80481000D03*
%TD*%
D16*
%TO.C,JP2*%
X254545000Y-89909000D03*
D17*
X254545000Y-88609000D03*
%TD*%
D13*
%TO.C,K3*%
X249465000Y-80989000D03*
X249465000Y-88609000D03*
X249465000Y-93689000D03*
X249465000Y-98769000D03*
X241845000Y-98769000D03*
X241845000Y-93689000D03*
X241845000Y-88609000D03*
D14*
X241845000Y-80989000D03*
%TD*%
D21*
%TO.C,D2*%
X44445000Y-180340000D03*
D22*
X41905000Y-180340000D03*
%TD*%
D12*
%TO.C,J15*%
X83230000Y-36703000D03*
D11*
X83230000Y-32258000D03*
X87040000Y-28448000D03*
X79420000Y-28448000D03*
%TD*%
D10*
%TO.C,R4*%
X44450000Y-187047500D03*
X44450000Y-188872500D03*
%TD*%
D23*
%TO.C,JP13*%
X259879000Y-80847000D03*
D24*
X259879000Y-82147000D03*
%TD*%
D11*
%TO.C,J9*%
X86104000Y-86868000D03*
X78484000Y-86868000D03*
D12*
X82294000Y-91318000D03*
X90544000Y-97028000D03*
%TD*%
D25*
%TO.C,D8*%
X195871000Y-75909000D03*
D26*
X203491000Y-75909000D03*
%TD*%
D16*
%TO.C,JP9*%
X259879000Y-90021000D03*
D17*
X259879000Y-88721000D03*
%TD*%
D15*
%TO.C,J39*%
X217715000Y-120867000D03*
%TD*%
%TO.C,J2*%
X78740000Y-50800000D03*
%TD*%
D27*
%TO.C,REF\u002A\u002A*%
X259524052Y-74591500D03*
X258821108Y-76288556D03*
X258821108Y-72894444D03*
X257124052Y-76991500D03*
D28*
X257124052Y-74591500D03*
D27*
X257124052Y-72191500D03*
X255426996Y-76288556D03*
X255426996Y-72894444D03*
X254724052Y-74591500D03*
%TD*%
%TO.C,REF\u002A\u002A*%
X174014052Y-124701500D03*
X173311108Y-126398556D03*
X173311108Y-123004444D03*
X171614052Y-127101500D03*
D28*
X171614052Y-124701500D03*
D27*
X171614052Y-122301500D03*
X169916996Y-126398556D03*
X169916996Y-123004444D03*
X169214052Y-124701500D03*
%TD*%
D13*
%TO.C,K5*%
X203491000Y-80989000D03*
X203491000Y-88609000D03*
X203491000Y-93689000D03*
X203491000Y-98769000D03*
X195871000Y-98769000D03*
X195871000Y-93689000D03*
X195871000Y-88609000D03*
D14*
X195871000Y-80989000D03*
%TD*%
D21*
%TO.C,D1*%
X19045000Y-180340000D03*
D22*
X16505000Y-180340000D03*
%TD*%
D16*
%TO.C,JP6*%
X254545000Y-82401000D03*
D17*
X254545000Y-81101000D03*
%TD*%
D19*
%TO.C,J3*%
X178365000Y-118357000D03*
X180905000Y-118357000D03*
X178365000Y-115817000D03*
X180905000Y-115817000D03*
X178365000Y-113277000D03*
X180905000Y-113277000D03*
X178365000Y-110737000D03*
X180905000Y-110737000D03*
X178365000Y-108197000D03*
D20*
X180905000Y-108197000D03*
%TD*%
D11*
%TO.C,J7*%
X59054000Y-86868000D03*
X51434000Y-86868000D03*
D12*
X55244000Y-91318000D03*
X63494000Y-97028000D03*
%TD*%
D13*
%TO.C,K6*%
X146373500Y-88561500D03*
X153993500Y-88561500D03*
X159073500Y-88561500D03*
X164153500Y-88561500D03*
X164153500Y-96181500D03*
X159073500Y-96181500D03*
X153993500Y-96181500D03*
D14*
X146373500Y-96181500D03*
%TD*%
D10*
%TO.C,R3*%
X69850000Y-187047500D03*
X69850000Y-188872500D03*
%TD*%
D15*
%TO.C,J36*%
X207555000Y-120867000D03*
%TD*%
D16*
%TO.C,JP12*%
X190791000Y-90021000D03*
D17*
X190791000Y-88721000D03*
%TD*%
D12*
%TO.C,J14*%
X55880000Y-36703000D03*
D11*
X55880000Y-32258000D03*
X59690000Y-28448000D03*
X52070000Y-28448000D03*
%TD*%
D16*
%TO.C,JP11*%
X213651000Y-89909000D03*
D17*
X213651000Y-88609000D03*
%TD*%
D18*
%TO.C,J23*%
X73660000Y-164074000D03*
%TD*%
D27*
%TO.C,REF\u002A\u002A*%
X32880000Y-182880000D03*
X32177056Y-184577056D03*
X32177056Y-181182944D03*
X30480000Y-185280000D03*
D28*
X30480000Y-182880000D03*
D27*
X30480000Y-180480000D03*
X28782944Y-184577056D03*
X28782944Y-181182944D03*
X28080000Y-182880000D03*
%TD*%
D11*
%TO.C,J11*%
X113154000Y-86868000D03*
X105534000Y-86868000D03*
D12*
X109344000Y-91318000D03*
X117594000Y-97028000D03*
%TD*%
D15*
%TO.C,J37*%
X225335000Y-120867000D03*
%TD*%
D23*
%TO.C,JP16*%
X190791000Y-80847000D03*
D24*
X190791000Y-82147000D03*
%TD*%
D25*
%TO.C,D6*%
X241845000Y-76417000D03*
D26*
X249465000Y-76417000D03*
%TD*%
D15*
%TO.C,J38*%
X230415000Y-120867000D03*
%TD*%
D21*
%TO.C,D4*%
X95245000Y-180340000D03*
D22*
X92705000Y-180340000D03*
%TD*%
D27*
%TO.C,REF\u002A\u002A*%
X86220000Y-182880000D03*
X85517056Y-184577056D03*
X85517056Y-181182944D03*
X83820000Y-185280000D03*
D28*
X83820000Y-182880000D03*
D27*
X83820000Y-180480000D03*
X82122944Y-184577056D03*
X82122944Y-181182944D03*
X81420000Y-182880000D03*
%TD*%
D16*
%TO.C,JP3*%
X231431000Y-90021000D03*
D17*
X231431000Y-88721000D03*
%TD*%
D13*
%TO.C,K4*%
X226351000Y-80989000D03*
X226351000Y-88609000D03*
X226351000Y-93689000D03*
X226351000Y-98769000D03*
X218731000Y-98769000D03*
X218731000Y-93689000D03*
X218731000Y-88609000D03*
D14*
X218731000Y-80989000D03*
%TD*%
D15*
%TO.C,J34*%
X73660000Y-50800000D03*
%TD*%
D19*
%TO.C,J19*%
X274133000Y-112211000D03*
X274133000Y-109671000D03*
X271593000Y-112211000D03*
X271593000Y-109671000D03*
X269053000Y-112211000D03*
X269053000Y-109671000D03*
X266513000Y-112211000D03*
X266513000Y-109671000D03*
X263973000Y-112211000D03*
D20*
X263973000Y-109671000D03*
%TD*%
D16*
%TO.C,JP1*%
X277659000Y-89767000D03*
D17*
X277659000Y-88467000D03*
%TD*%
D11*
%TO.C,J10*%
X86236000Y-141722000D03*
X78616000Y-141722000D03*
D12*
X82426000Y-146172000D03*
X90676000Y-151882000D03*
%TD*%
D11*
%TO.C,J8*%
X59186000Y-141722000D03*
X51566000Y-141722000D03*
D12*
X55376000Y-146172000D03*
X63626000Y-151882000D03*
%TD*%
D16*
%TO.C,JP8*%
X208317000Y-82147000D03*
D17*
X208317000Y-80847000D03*
%TD*%
D23*
%TO.C,JP15*%
X213651000Y-80847000D03*
D24*
X213651000Y-82147000D03*
%TD*%
D15*
%TO.C,J35*%
X212635000Y-120867000D03*
%TD*%
D27*
%TO.C,REF\u002A\u002A*%
X276014052Y-124101500D03*
X275311108Y-125798556D03*
X275311108Y-122404444D03*
X273614052Y-126501500D03*
D28*
X273614052Y-124101500D03*
D27*
X273614052Y-121701500D03*
X271916996Y-125798556D03*
X271916996Y-122404444D03*
X271214052Y-124101500D03*
%TD*%
D25*
%TO.C,D5*%
X264959000Y-76417000D03*
D26*
X272579000Y-76417000D03*
%TD*%
D15*
%TO.C,J32*%
X189775000Y-120867000D03*
%TD*%
D25*
%TO.C,D7*%
X218731000Y-76417000D03*
D26*
X226351000Y-76417000D03*
%TD*%
D25*
%TO.C,D9*%
X141293500Y-82465500D03*
D26*
X141293500Y-74845500D03*
%TD*%
D13*
%TO.C,K1*%
X272579000Y-80989000D03*
X272579000Y-88609000D03*
X272579000Y-93689000D03*
X272579000Y-98769000D03*
X264959000Y-98769000D03*
X264959000Y-93689000D03*
X264959000Y-88609000D03*
D14*
X264959000Y-80989000D03*
%TD*%
D12*
%TO.C,J16*%
X110580000Y-36703000D03*
D11*
X110580000Y-32258000D03*
X114390000Y-28448000D03*
X106770000Y-28448000D03*
%TD*%
D16*
%TO.C,JP4*%
X208317000Y-89767000D03*
D17*
X208317000Y-88467000D03*
%TD*%
D23*
%TO.C,JP14*%
X236765000Y-81101000D03*
D24*
X236765000Y-82401000D03*
%TD*%
D25*
%TO.C,D10*%
X141293500Y-96181500D03*
D26*
X141293500Y-88561500D03*
%TD*%
D11*
%TO.C,J12*%
X113286000Y-141722000D03*
X105666000Y-141722000D03*
D12*
X109476000Y-146172000D03*
X117726000Y-151882000D03*
%TD*%
D29*
%TO.C,R1*%
X95250000Y-188872500D03*
X95250000Y-187047500D03*
%TD*%
D16*
%TO.C,JP10*%
X236765000Y-89909000D03*
D17*
X236765000Y-88609000D03*
%TD*%
D25*
%TO.C,D12*%
X141293500Y-110151500D03*
D26*
X141293500Y-102531500D03*
%TD*%
D21*
%TO.C,D3*%
X69845000Y-180340000D03*
D22*
X67305000Y-180340000D03*
%TD*%
D13*
%TO.C,K7*%
X146341000Y-116501500D03*
X153961000Y-116501500D03*
X159041000Y-116501500D03*
X164121000Y-116501500D03*
X164121000Y-124121500D03*
X159041000Y-124121500D03*
X153961000Y-124121500D03*
D14*
X146341000Y-124121500D03*
%TD*%
D12*
%TO.C,J13*%
X28530000Y-36703000D03*
D11*
X28530000Y-32258000D03*
X32340000Y-28448000D03*
X24720000Y-28448000D03*
%TD*%
D15*
%TO.C,J33*%
X194855000Y-120867000D03*
%TD*%
D19*
%TO.C,J18*%
X228607000Y-109457000D03*
X228607000Y-111997000D03*
X231147000Y-109457000D03*
X231147000Y-111997000D03*
X233687000Y-109457000D03*
X233687000Y-111997000D03*
X236227000Y-109457000D03*
X236227000Y-111997000D03*
X238767000Y-109457000D03*
D20*
X238767000Y-111997000D03*
%TD*%
D18*
%TO.C,J25*%
X78740000Y-109220000D03*
%TD*%
D27*
%TO.C,REF\u002A\u002A*%
X191014052Y-74591500D03*
X190311108Y-76288556D03*
X190311108Y-72894444D03*
X188614052Y-76991500D03*
D28*
X188614052Y-74591500D03*
D27*
X188614052Y-72191500D03*
X186916996Y-76288556D03*
X186916996Y-72894444D03*
X186214052Y-74591500D03*
%TD*%
D25*
%TO.C,D11*%
X141261000Y-124121500D03*
D26*
X141261000Y-116501500D03*
%TD*%
D18*
%TO.C,J26*%
X78740000Y-164074000D03*
%TD*%
D13*
%TO.C,K8*%
X146373500Y-102531500D03*
X153993500Y-102531500D03*
X159073500Y-102531500D03*
X164153500Y-102531500D03*
X164153500Y-110151500D03*
X159073500Y-110151500D03*
X153993500Y-110151500D03*
D14*
X146373500Y-110151500D03*
%TD*%
D11*
%TO.C,J5*%
X32004000Y-86868000D03*
X24384000Y-86868000D03*
D12*
X28194000Y-91318000D03*
X36444000Y-97028000D03*
%TD*%
D19*
%TO.C,J20*%
X52040000Y-189210000D03*
X52040000Y-186670000D03*
X54580000Y-189210000D03*
X54580000Y-186670000D03*
X57120000Y-189210000D03*
X57120000Y-186670000D03*
X59660000Y-189210000D03*
X59660000Y-186670000D03*
X62200000Y-189210000D03*
D20*
X62200000Y-186670000D03*
%TD*%
D19*
%TO.C,J31*%
X67086000Y-49550000D03*
X67086000Y-52090000D03*
X64546000Y-49550000D03*
X64546000Y-52090000D03*
X62006000Y-49550000D03*
X62006000Y-52090000D03*
X59466000Y-49550000D03*
X59466000Y-52090000D03*
X56926000Y-49550000D03*
D20*
X56926000Y-52090000D03*
%TD*%
%TO.C,J17*%
X56164000Y-110510000D03*
D19*
X56164000Y-107970000D03*
X58704000Y-110510000D03*
X58704000Y-107970000D03*
X61244000Y-110510000D03*
X61244000Y-107970000D03*
X63784000Y-110510000D03*
X63784000Y-107970000D03*
X66324000Y-110510000D03*
X66324000Y-107970000D03*
%TD*%
D20*
%TO.C,J4*%
X56418000Y-165364000D03*
D19*
X56418000Y-162824000D03*
X58958000Y-165364000D03*
X58958000Y-162824000D03*
X61498000Y-165364000D03*
X61498000Y-162824000D03*
X64038000Y-165364000D03*
X64038000Y-162824000D03*
X66578000Y-165364000D03*
X66578000Y-162824000D03*
%TD*%
M02*
