%TF.GenerationSoftware,KiCad,Pcbnew,7.0.6*%
%TF.CreationDate,2023-11-23T12:49:05+01:00*%
%TF.ProjectId,EF_matrix,45465f6d-6174-4726-9978-2e6b69636164,rev?*%
%TF.SameCoordinates,Original*%
%TF.FileFunction,Drillmap*%
%TF.FilePolarity,Positive*%
%FSLAX45Y45*%
G04 Gerber Fmt 4.5, Leading zero omitted, Abs format (unit mm)*
G04 Created by KiCad (PCBNEW 7.0.6) date 2023-11-23 12:49:05*
%MOMM*%
%LPD*%
G01*
G04 APERTURE LIST*
%ADD10C,0.100000*%
%ADD11C,0.200000*%
%ADD12C,0.040000*%
%ADD13C,0.050000*%
%ADD14C,0.070000*%
%ADD15C,0.080000*%
%ADD16C,0.090000*%
%ADD17C,0.120000*%
%ADD18C,0.155000*%
%ADD19C,0.160000*%
%ADD20C,0.320000*%
G04 APERTURE END LIST*
D10*
X1270000Y-12597400D02*
X12446000Y-12597400D01*
X12446000Y-16915400D01*
X1270000Y-16915400D01*
X1270000Y-12597400D01*
X1270000Y-1270000D02*
X12446000Y-1270000D01*
X12446000Y-5588000D01*
X1270000Y-5588000D01*
X1270000Y-1270000D01*
X1270000Y-17526000D02*
X9906000Y-17526000D01*
X9906000Y-19558000D01*
X1270000Y-19558000D01*
X1270000Y-17526000D01*
X1270000Y-7112000D02*
X12446000Y-7112000D01*
X12446000Y-11430000D01*
X1270000Y-11430000D01*
X1270000Y-7112000D01*
X28125405Y-7078150D02*
X13647405Y-7078150D01*
X13647405Y-12920150D01*
X28125405Y-12920150D01*
X28125405Y-7078150D01*
D11*
D12*
X15101586Y-9888469D02*
X15141586Y-9928469D01*
X15141586Y-9888469D02*
X15101586Y-9928469D01*
X15172900Y-9348900D02*
X15212900Y-9388900D01*
X15212900Y-9348900D02*
X15172900Y-9388900D01*
X15172900Y-9958500D02*
X15212900Y-9998500D01*
X15212900Y-9958500D02*
X15172900Y-9998500D01*
X15249100Y-9425100D02*
X15289100Y-9465100D01*
X15289100Y-9425100D02*
X15249100Y-9465100D01*
X15249100Y-10034700D02*
X15289100Y-10074700D01*
X15289100Y-10034700D02*
X15249100Y-10074700D01*
X15553900Y-9628300D02*
X15593900Y-9668300D01*
X15593900Y-9628300D02*
X15553900Y-9668300D01*
X15884100Y-7697900D02*
X15924100Y-7737900D01*
X15924100Y-7697900D02*
X15884100Y-7737900D01*
X15887350Y-8463150D02*
X15927350Y-8503150D01*
X15927350Y-8463150D02*
X15887350Y-8503150D01*
X16011100Y-8541625D02*
X16051100Y-8581625D01*
X16051100Y-8541625D02*
X16011100Y-8581625D01*
X16087300Y-8612300D02*
X16127300Y-8652300D01*
X16127300Y-8612300D02*
X16087300Y-8652300D01*
X16163500Y-8688500D02*
X16203500Y-8728500D01*
X16203500Y-8688500D02*
X16163500Y-8728500D01*
X16239700Y-9044100D02*
X16279700Y-9084100D01*
X16279700Y-9044100D02*
X16239700Y-9084100D01*
X16295142Y-9127264D02*
X16335142Y-9167264D01*
X16335142Y-9127264D02*
X16295142Y-9167264D01*
X16442900Y-10669700D02*
X16482900Y-10709700D01*
X16482900Y-10669700D02*
X16442900Y-10709700D01*
X16569900Y-9602900D02*
X16609900Y-9642900D01*
X16609900Y-9602900D02*
X16569900Y-9642900D01*
X16569900Y-10644300D02*
X16609900Y-10684300D01*
X16609900Y-10644300D02*
X16569900Y-10684300D01*
X16642350Y-10561136D02*
X16682350Y-10601136D01*
X16682350Y-10561136D02*
X16642350Y-10601136D01*
X16747700Y-10466500D02*
X16787700Y-10506500D01*
X16787700Y-10466500D02*
X16747700Y-10506500D01*
X16823900Y-10390300D02*
X16863900Y-10430300D01*
X16863900Y-10390300D02*
X16823900Y-10430300D01*
X17789100Y-7240700D02*
X17829100Y-7280700D01*
X17829100Y-7240700D02*
X17789100Y-7280700D01*
X18043100Y-7697900D02*
X18083100Y-7737900D01*
X18083100Y-7697900D02*
X18043100Y-7737900D01*
X18070500Y-12050150D02*
X18110500Y-12090150D01*
X18110500Y-12050150D02*
X18070500Y-12090150D01*
X19059100Y-7875700D02*
X19099100Y-7915700D01*
X19099100Y-7875700D02*
X19059100Y-7915700D01*
X19668700Y-11101500D02*
X19708700Y-11141500D01*
X19708700Y-11101500D02*
X19668700Y-11141500D01*
X20176700Y-10923700D02*
X20216700Y-10963700D01*
X20216700Y-10923700D02*
X20176700Y-10963700D01*
X20811700Y-7875700D02*
X20851700Y-7915700D01*
X20851700Y-7875700D02*
X20811700Y-7915700D01*
X21345100Y-7875700D02*
X21385100Y-7915700D01*
X21385100Y-7875700D02*
X21345100Y-7915700D01*
X21954700Y-11076100D02*
X21994700Y-11116100D01*
X21994700Y-11076100D02*
X21954700Y-11116100D01*
X22411900Y-10745900D02*
X22451900Y-10785900D01*
X22451900Y-10745900D02*
X22411900Y-10785900D01*
X23123100Y-7875700D02*
X23163100Y-7915700D01*
X23163100Y-7875700D02*
X23123100Y-7915700D01*
X23656500Y-7875700D02*
X23696500Y-7915700D01*
X23696500Y-7875700D02*
X23656500Y-7915700D01*
X24266100Y-11406300D02*
X24306100Y-11446300D01*
X24306100Y-11406300D02*
X24266100Y-11446300D01*
X24824900Y-10695100D02*
X24864900Y-10735100D01*
X24864900Y-10695100D02*
X24824900Y-10735100D01*
X24977300Y-11177700D02*
X25017300Y-11217700D01*
X25017300Y-11177700D02*
X24977300Y-11217700D01*
X25104300Y-10314100D02*
X25144300Y-10354100D01*
X25144300Y-10314100D02*
X25104300Y-10354100D01*
X25104300Y-10923700D02*
X25144300Y-10963700D01*
X25144300Y-10923700D02*
X25104300Y-10963700D01*
X25129700Y-10466500D02*
X25169700Y-10506500D01*
X25169700Y-10466500D02*
X25129700Y-10506500D01*
X25434500Y-7875700D02*
X25474500Y-7915700D01*
X25474500Y-7875700D02*
X25434500Y-7915700D01*
X25967900Y-7875700D02*
X26007900Y-7915700D01*
X26007900Y-7875700D02*
X25967900Y-7915700D01*
X26120300Y-11609500D02*
X26160300Y-11649500D01*
X26160300Y-11609500D02*
X26120300Y-11649500D01*
X26323500Y-11533300D02*
X26363500Y-11573300D01*
X26363500Y-11533300D02*
X26323500Y-11573300D01*
X26475900Y-11685700D02*
X26515900Y-11725700D01*
X26515900Y-11685700D02*
X26475900Y-11725700D01*
X26578400Y-10314100D02*
X26618400Y-10354100D01*
X26618400Y-10314100D02*
X26578400Y-10354100D01*
X26704500Y-10441100D02*
X26744500Y-10481100D01*
X26744500Y-10441100D02*
X26704500Y-10481100D01*
X27745900Y-7875700D02*
X27785900Y-7915700D01*
X27785900Y-7875700D02*
X27745900Y-7915700D01*
D13*
X2833000Y-18288000D02*
G75*
G03*
X2833000Y-18288000I-25000J0D01*
G01*
X2903294Y-18118294D02*
G75*
G03*
X2903294Y-18118294I-25000J0D01*
G01*
X2903294Y-18457706D02*
G75*
G03*
X2903294Y-18457706I-25000J0D01*
G01*
X3073000Y-18048000D02*
G75*
G03*
X3073000Y-18048000I-25000J0D01*
G01*
X3073000Y-18528000D02*
G75*
G03*
X3073000Y-18528000I-25000J0D01*
G01*
X3242706Y-18118294D02*
G75*
G03*
X3242706Y-18118294I-25000J0D01*
G01*
X3242706Y-18457706D02*
G75*
G03*
X3242706Y-18457706I-25000J0D01*
G01*
X3313000Y-18288000D02*
G75*
G03*
X3313000Y-18288000I-25000J0D01*
G01*
X8167000Y-18288000D02*
G75*
G03*
X8167000Y-18288000I-25000J0D01*
G01*
X8237294Y-18118294D02*
G75*
G03*
X8237294Y-18118294I-25000J0D01*
G01*
X8237294Y-18457706D02*
G75*
G03*
X8237294Y-18457706I-25000J0D01*
G01*
X8407000Y-18048000D02*
G75*
G03*
X8407000Y-18048000I-25000J0D01*
G01*
X8407000Y-18528000D02*
G75*
G03*
X8407000Y-18528000I-25000J0D01*
G01*
X8576706Y-18118294D02*
G75*
G03*
X8576706Y-18118294I-25000J0D01*
G01*
X8576706Y-18457706D02*
G75*
G03*
X8576706Y-18457706I-25000J0D01*
G01*
X8647000Y-18288000D02*
G75*
G03*
X8647000Y-18288000I-25000J0D01*
G01*
X16946405Y-12470150D02*
G75*
G03*
X16946405Y-12470150I-25000J0D01*
G01*
X17016700Y-12300444D02*
G75*
G03*
X17016700Y-12300444I-25000J0D01*
G01*
X17016700Y-12639856D02*
G75*
G03*
X17016700Y-12639856I-25000J0D01*
G01*
X17186405Y-12230150D02*
G75*
G03*
X17186405Y-12230150I-25000J0D01*
G01*
X17186405Y-12710150D02*
G75*
G03*
X17186405Y-12710150I-25000J0D01*
G01*
X17356111Y-12300444D02*
G75*
G03*
X17356111Y-12300444I-25000J0D01*
G01*
X17356111Y-12639856D02*
G75*
G03*
X17356111Y-12639856I-25000J0D01*
G01*
X17426405Y-12470150D02*
G75*
G03*
X17426405Y-12470150I-25000J0D01*
G01*
X18646405Y-7459150D02*
G75*
G03*
X18646405Y-7459150I-25000J0D01*
G01*
X18716700Y-7289444D02*
G75*
G03*
X18716700Y-7289444I-25000J0D01*
G01*
X18716700Y-7628856D02*
G75*
G03*
X18716700Y-7628856I-25000J0D01*
G01*
X18886405Y-7219150D02*
G75*
G03*
X18886405Y-7219150I-25000J0D01*
G01*
X18886405Y-7699150D02*
G75*
G03*
X18886405Y-7699150I-25000J0D01*
G01*
X19056111Y-7289444D02*
G75*
G03*
X19056111Y-7289444I-25000J0D01*
G01*
X19056111Y-7628856D02*
G75*
G03*
X19056111Y-7628856I-25000J0D01*
G01*
X19126405Y-7459150D02*
G75*
G03*
X19126405Y-7459150I-25000J0D01*
G01*
X25497405Y-7459150D02*
G75*
G03*
X25497405Y-7459150I-25000J0D01*
G01*
X25567700Y-7289444D02*
G75*
G03*
X25567700Y-7289444I-25000J0D01*
G01*
X25567700Y-7628856D02*
G75*
G03*
X25567700Y-7628856I-25000J0D01*
G01*
X25737405Y-7219150D02*
G75*
G03*
X25737405Y-7219150I-25000J0D01*
G01*
X25737405Y-7699150D02*
G75*
G03*
X25737405Y-7699150I-25000J0D01*
G01*
X25907111Y-7289444D02*
G75*
G03*
X25907111Y-7289444I-25000J0D01*
G01*
X25907111Y-7628856D02*
G75*
G03*
X25907111Y-7628856I-25000J0D01*
G01*
X25977405Y-7459150D02*
G75*
G03*
X25977405Y-7459150I-25000J0D01*
G01*
X27146405Y-12410150D02*
G75*
G03*
X27146405Y-12410150I-25000J0D01*
G01*
X27216700Y-12240444D02*
G75*
G03*
X27216700Y-12240444I-25000J0D01*
G01*
X27216700Y-12579856D02*
G75*
G03*
X27216700Y-12579856I-25000J0D01*
G01*
X27386405Y-12170150D02*
G75*
G03*
X27386405Y-12170150I-25000J0D01*
G01*
X27386405Y-12650150D02*
G75*
G03*
X27386405Y-12650150I-25000J0D01*
G01*
X27556111Y-12240444D02*
G75*
G03*
X27556111Y-12240444I-25000J0D01*
G01*
X27556111Y-12579856D02*
G75*
G03*
X27556111Y-12579856I-25000J0D01*
G01*
X27626405Y-12410150D02*
G75*
G03*
X27626405Y-12410150I-25000J0D01*
G01*
D14*
X14634100Y-11615150D02*
X14634100Y-11685150D01*
X14599100Y-11650150D02*
X14669100Y-11650150D01*
X14634100Y-12377150D02*
X14634100Y-12447150D01*
X14599100Y-12412150D02*
X14669100Y-12412150D01*
X14637350Y-8821150D02*
X14637350Y-8891150D01*
X14602350Y-8856150D02*
X14672350Y-8856150D01*
X14637350Y-9583150D02*
X14637350Y-9653150D01*
X14602350Y-9618150D02*
X14672350Y-9618150D01*
X14637350Y-10218150D02*
X14637350Y-10288150D01*
X14602350Y-10253150D02*
X14672350Y-10253150D01*
X14637350Y-10980150D02*
X14637350Y-11050150D01*
X14602350Y-11015150D02*
X14672350Y-11015150D01*
X14640600Y-7444800D02*
X14640600Y-7514800D01*
X14605600Y-7479800D02*
X14675600Y-7479800D01*
X14640600Y-8206800D02*
X14640600Y-8276800D01*
X14605600Y-8241800D02*
X14675600Y-8241800D01*
X15396100Y-11615150D02*
X15396100Y-11685150D01*
X15361100Y-11650150D02*
X15431100Y-11650150D01*
X15396100Y-12377150D02*
X15396100Y-12447150D01*
X15361100Y-12412150D02*
X15431100Y-12412150D01*
X15399350Y-8821150D02*
X15399350Y-8891150D01*
X15364350Y-8856150D02*
X15434350Y-8856150D01*
X15399350Y-9583150D02*
X15399350Y-9653150D01*
X15364350Y-9618150D02*
X15434350Y-9618150D01*
X15399350Y-10218150D02*
X15399350Y-10288150D01*
X15364350Y-10253150D02*
X15434350Y-10253150D01*
X15399350Y-10980150D02*
X15399350Y-11050150D01*
X15364350Y-11015150D02*
X15434350Y-11015150D01*
X15402600Y-7444800D02*
X15402600Y-7514800D01*
X15367600Y-7479800D02*
X15437600Y-7479800D01*
X15402600Y-8206800D02*
X15402600Y-8276800D01*
X15367600Y-8241800D02*
X15437600Y-8241800D01*
X15904100Y-11615150D02*
X15904100Y-11685150D01*
X15869100Y-11650150D02*
X15939100Y-11650150D01*
X15904100Y-12377150D02*
X15904100Y-12447150D01*
X15869100Y-12412150D02*
X15939100Y-12412150D01*
X15907350Y-8821150D02*
X15907350Y-8891150D01*
X15872350Y-8856150D02*
X15942350Y-8856150D01*
X15907350Y-9583150D02*
X15907350Y-9653150D01*
X15872350Y-9618150D02*
X15942350Y-9618150D01*
X15907350Y-10218150D02*
X15907350Y-10288150D01*
X15872350Y-10253150D02*
X15942350Y-10253150D01*
X15907350Y-10980150D02*
X15907350Y-11050150D01*
X15872350Y-11015150D02*
X15942350Y-11015150D01*
X15910600Y-7444800D02*
X15910600Y-7514800D01*
X15875600Y-7479800D02*
X15945600Y-7479800D01*
X15910600Y-8206800D02*
X15910600Y-8276800D01*
X15875600Y-8241800D02*
X15945600Y-8241800D01*
X16412100Y-11615150D02*
X16412100Y-11685150D01*
X16377100Y-11650150D02*
X16447100Y-11650150D01*
X16412100Y-12377150D02*
X16412100Y-12447150D01*
X16377100Y-12412150D02*
X16447100Y-12412150D01*
X16415350Y-8821150D02*
X16415350Y-8891150D01*
X16380350Y-8856150D02*
X16450350Y-8856150D01*
X16415350Y-9583150D02*
X16415350Y-9653150D01*
X16380350Y-9618150D02*
X16450350Y-9618150D01*
X16415350Y-10218150D02*
X16415350Y-10288150D01*
X16380350Y-10253150D02*
X16450350Y-10253150D01*
X16415350Y-10980150D02*
X16415350Y-11050150D01*
X16380350Y-11015150D02*
X16450350Y-11015150D01*
X16418600Y-7444800D02*
X16418600Y-7514800D01*
X16383600Y-7479800D02*
X16453600Y-7479800D01*
X16418600Y-8206800D02*
X16418600Y-8276800D01*
X16383600Y-8241800D02*
X16453600Y-8241800D01*
X19587100Y-8063900D02*
X19587100Y-8133900D01*
X19552100Y-8098900D02*
X19622100Y-8098900D01*
X19587100Y-8825900D02*
X19587100Y-8895900D01*
X19552100Y-8860900D02*
X19622100Y-8860900D01*
X19587100Y-9333900D02*
X19587100Y-9403900D01*
X19552100Y-9368900D02*
X19622100Y-9368900D01*
X19587100Y-9841900D02*
X19587100Y-9911900D01*
X19552100Y-9876900D02*
X19622100Y-9876900D01*
X20349100Y-8063900D02*
X20349100Y-8133900D01*
X20314100Y-8098900D02*
X20384100Y-8098900D01*
X20349100Y-8825900D02*
X20349100Y-8895900D01*
X20314100Y-8860900D02*
X20384100Y-8860900D01*
X20349100Y-9333900D02*
X20349100Y-9403900D01*
X20314100Y-9368900D02*
X20384100Y-9368900D01*
X20349100Y-9841900D02*
X20349100Y-9911900D01*
X20314100Y-9876900D02*
X20384100Y-9876900D01*
X21873100Y-8063900D02*
X21873100Y-8133900D01*
X21838100Y-8098900D02*
X21908100Y-8098900D01*
X21873100Y-8825900D02*
X21873100Y-8895900D01*
X21838100Y-8860900D02*
X21908100Y-8860900D01*
X21873100Y-9333900D02*
X21873100Y-9403900D01*
X21838100Y-9368900D02*
X21908100Y-9368900D01*
X21873100Y-9841900D02*
X21873100Y-9911900D01*
X21838100Y-9876900D02*
X21908100Y-9876900D01*
X22635100Y-8063900D02*
X22635100Y-8133900D01*
X22600100Y-8098900D02*
X22670100Y-8098900D01*
X22635100Y-8825900D02*
X22635100Y-8895900D01*
X22600100Y-8860900D02*
X22670100Y-8860900D01*
X22635100Y-9333900D02*
X22635100Y-9403900D01*
X22600100Y-9368900D02*
X22670100Y-9368900D01*
X22635100Y-9841900D02*
X22635100Y-9911900D01*
X22600100Y-9876900D02*
X22670100Y-9876900D01*
X24184500Y-8063900D02*
X24184500Y-8133900D01*
X24149500Y-8098900D02*
X24219500Y-8098900D01*
X24184500Y-8825900D02*
X24184500Y-8895900D01*
X24149500Y-8860900D02*
X24219500Y-8860900D01*
X24184500Y-9333900D02*
X24184500Y-9403900D01*
X24149500Y-9368900D02*
X24219500Y-9368900D01*
X24184500Y-9841900D02*
X24184500Y-9911900D01*
X24149500Y-9876900D02*
X24219500Y-9876900D01*
X24946500Y-8063900D02*
X24946500Y-8133900D01*
X24911500Y-8098900D02*
X24981500Y-8098900D01*
X24946500Y-8825900D02*
X24946500Y-8895900D01*
X24911500Y-8860900D02*
X24981500Y-8860900D01*
X24946500Y-9333900D02*
X24946500Y-9403900D01*
X24911500Y-9368900D02*
X24981500Y-9368900D01*
X24946500Y-9841900D02*
X24946500Y-9911900D01*
X24911500Y-9876900D02*
X24981500Y-9876900D01*
X26495900Y-8063900D02*
X26495900Y-8133900D01*
X26460900Y-8098900D02*
X26530900Y-8098900D01*
X26495900Y-8825900D02*
X26495900Y-8895900D01*
X26460900Y-8860900D02*
X26530900Y-8860900D01*
X26495900Y-9333900D02*
X26495900Y-9403900D01*
X26460900Y-9368900D02*
X26530900Y-9368900D01*
X26495900Y-9841900D02*
X26495900Y-9911900D01*
X26460900Y-9876900D02*
X26530900Y-9876900D01*
X27257900Y-8063900D02*
X27257900Y-8133900D01*
X27222900Y-8098900D02*
X27292900Y-8098900D01*
X27257900Y-8825900D02*
X27257900Y-8895900D01*
X27222900Y-8860900D02*
X27292900Y-8860900D01*
X27257900Y-9333900D02*
X27257900Y-9403900D01*
X27222900Y-9368900D02*
X27292900Y-9368900D01*
X27257900Y-9841900D02*
X27257900Y-9911900D01*
X27222900Y-9876900D02*
X27292900Y-9876900D01*
D15*
X14154384Y-11678434D02*
X14154384Y-11621865D01*
X14097815Y-11621865D01*
X14097815Y-11678434D01*
X14154384Y-11678434D01*
X14154384Y-12440434D02*
X14154384Y-12383865D01*
X14097815Y-12383865D01*
X14097815Y-12440434D01*
X14154384Y-12440434D01*
X14157634Y-7512834D02*
X14157634Y-7456265D01*
X14101065Y-7456265D01*
X14101065Y-7512834D01*
X14157634Y-7512834D01*
X14157634Y-8274834D02*
X14157634Y-8218265D01*
X14101065Y-8218265D01*
X14101065Y-8274834D01*
X14157634Y-8274834D01*
X14157634Y-8884435D02*
X14157634Y-8827866D01*
X14101065Y-8827866D01*
X14101065Y-8884435D01*
X14157634Y-8884435D01*
X14157634Y-9646435D02*
X14157634Y-9589866D01*
X14101065Y-9589866D01*
X14101065Y-9646435D01*
X14157634Y-9646435D01*
X14157634Y-10281435D02*
X14157634Y-10224866D01*
X14101065Y-10224866D01*
X14101065Y-10281435D01*
X14157634Y-10281435D01*
X14157634Y-11043435D02*
X14157634Y-10986866D01*
X14101065Y-10986866D01*
X14101065Y-11043435D01*
X14157634Y-11043435D01*
X19615385Y-7619184D02*
X19615385Y-7562615D01*
X19558816Y-7562615D01*
X19558816Y-7619184D01*
X19615385Y-7619184D01*
X20377385Y-7619184D02*
X20377385Y-7562615D01*
X20320816Y-7562615D01*
X20320816Y-7619184D01*
X20377385Y-7619184D01*
X21901385Y-7669984D02*
X21901385Y-7613415D01*
X21844816Y-7613415D01*
X21844816Y-7669984D01*
X21901385Y-7669984D01*
X22663384Y-7669984D02*
X22663384Y-7613415D01*
X22606815Y-7613415D01*
X22606815Y-7669984D01*
X22663384Y-7669984D01*
X24212784Y-7669984D02*
X24212784Y-7613415D01*
X24156215Y-7613415D01*
X24156215Y-7669984D01*
X24212784Y-7669984D01*
X24974784Y-7669984D02*
X24974784Y-7613415D01*
X24918215Y-7613415D01*
X24918215Y-7669984D01*
X24974784Y-7669984D01*
X26524184Y-7669984D02*
X26524184Y-7613415D01*
X26467615Y-7613415D01*
X26467615Y-7669984D01*
X26524184Y-7669984D01*
X27286184Y-7669984D02*
X27286184Y-7613415D01*
X27229615Y-7613415D01*
X27229615Y-7669984D01*
X27286184Y-7669984D01*
D16*
X1650500Y-18079000D02*
X1695500Y-18034000D01*
X1650500Y-17989000D01*
X1605500Y-18034000D01*
X1650500Y-18079000D01*
X1904500Y-18079000D02*
X1949500Y-18034000D01*
X1904500Y-17989000D01*
X1859500Y-18034000D01*
X1904500Y-18079000D01*
X4190500Y-18079000D02*
X4235500Y-18034000D01*
X4190500Y-17989000D01*
X4145500Y-18034000D01*
X4190500Y-18079000D01*
X4444500Y-18079000D02*
X4489500Y-18034000D01*
X4444500Y-17989000D01*
X4399500Y-18034000D01*
X4444500Y-18079000D01*
X6730500Y-18079000D02*
X6775500Y-18034000D01*
X6730500Y-17989000D01*
X6685500Y-18034000D01*
X6730500Y-18079000D01*
X6984500Y-18079000D02*
X7029500Y-18034000D01*
X6984500Y-17989000D01*
X6939500Y-18034000D01*
X6984500Y-18079000D01*
X9270500Y-18079000D02*
X9315500Y-18034000D01*
X9270500Y-17989000D01*
X9225500Y-18034000D01*
X9270500Y-18079000D01*
X9524500Y-18079000D02*
X9569500Y-18034000D01*
X9524500Y-17989000D01*
X9479500Y-18034000D01*
X9524500Y-18079000D01*
D10*
X5154000Y-18617000D02*
X5254000Y-18717000D01*
X5254000Y-18617000D02*
X5154000Y-18717000D01*
X5254000Y-18667000D02*
G75*
G03*
X5254000Y-18667000I-50000J0D01*
G01*
X5154000Y-18871000D02*
X5254000Y-18971000D01*
X5254000Y-18871000D02*
X5154000Y-18971000D01*
X5254000Y-18921000D02*
G75*
G03*
X5254000Y-18921000I-50000J0D01*
G01*
X5408000Y-18617000D02*
X5508000Y-18717000D01*
X5508000Y-18617000D02*
X5408000Y-18717000D01*
X5508000Y-18667000D02*
G75*
G03*
X5508000Y-18667000I-50000J0D01*
G01*
X5408000Y-18871000D02*
X5508000Y-18971000D01*
X5508000Y-18871000D02*
X5408000Y-18971000D01*
X5508000Y-18921000D02*
G75*
G03*
X5508000Y-18921000I-50000J0D01*
G01*
X5566400Y-10747000D02*
X5666400Y-10847000D01*
X5666400Y-10747000D02*
X5566400Y-10847000D01*
X5666400Y-10797000D02*
G75*
G03*
X5666400Y-10797000I-50000J0D01*
G01*
X5566400Y-11001000D02*
X5666400Y-11101000D01*
X5666400Y-11001000D02*
X5566400Y-11101000D01*
X5666400Y-11051000D02*
G75*
G03*
X5666400Y-11051000I-50000J0D01*
G01*
X5591800Y-16232400D02*
X5691800Y-16332400D01*
X5691800Y-16232400D02*
X5591800Y-16332400D01*
X5691800Y-16282400D02*
G75*
G03*
X5691800Y-16282400I-50000J0D01*
G01*
X5591800Y-16486400D02*
X5691800Y-16586400D01*
X5691800Y-16486400D02*
X5591800Y-16586400D01*
X5691800Y-16536400D02*
G75*
G03*
X5691800Y-16536400I-50000J0D01*
G01*
X5642600Y-4905000D02*
X5742600Y-5005000D01*
X5742600Y-4905000D02*
X5642600Y-5005000D01*
X5742600Y-4955000D02*
G75*
G03*
X5742600Y-4955000I-50000J0D01*
G01*
X5642600Y-5159000D02*
X5742600Y-5259000D01*
X5742600Y-5159000D02*
X5642600Y-5259000D01*
X5742600Y-5209000D02*
G75*
G03*
X5742600Y-5209000I-50000J0D01*
G01*
X5662000Y-18617000D02*
X5762000Y-18717000D01*
X5762000Y-18617000D02*
X5662000Y-18717000D01*
X5762000Y-18667000D02*
G75*
G03*
X5762000Y-18667000I-50000J0D01*
G01*
X5662000Y-18871000D02*
X5762000Y-18971000D01*
X5762000Y-18871000D02*
X5662000Y-18971000D01*
X5762000Y-18921000D02*
G75*
G03*
X5762000Y-18921000I-50000J0D01*
G01*
X5820400Y-10747000D02*
X5920400Y-10847000D01*
X5920400Y-10747000D02*
X5820400Y-10847000D01*
X5920400Y-10797000D02*
G75*
G03*
X5920400Y-10797000I-50000J0D01*
G01*
X5820400Y-11001000D02*
X5920400Y-11101000D01*
X5920400Y-11001000D02*
X5820400Y-11101000D01*
X5920400Y-11051000D02*
G75*
G03*
X5920400Y-11051000I-50000J0D01*
G01*
X5845800Y-16232400D02*
X5945800Y-16332400D01*
X5945800Y-16232400D02*
X5845800Y-16332400D01*
X5945800Y-16282400D02*
G75*
G03*
X5945800Y-16282400I-50000J0D01*
G01*
X5845800Y-16486400D02*
X5945800Y-16586400D01*
X5945800Y-16486400D02*
X5845800Y-16586400D01*
X5945800Y-16536400D02*
G75*
G03*
X5945800Y-16536400I-50000J0D01*
G01*
X5896600Y-4905000D02*
X5996600Y-5005000D01*
X5996600Y-4905000D02*
X5896600Y-5005000D01*
X5996600Y-4955000D02*
G75*
G03*
X5996600Y-4955000I-50000J0D01*
G01*
X5896600Y-5159000D02*
X5996600Y-5259000D01*
X5996600Y-5159000D02*
X5896600Y-5259000D01*
X5996600Y-5209000D02*
G75*
G03*
X5996600Y-5209000I-50000J0D01*
G01*
X5916000Y-18617000D02*
X6016000Y-18717000D01*
X6016000Y-18617000D02*
X5916000Y-18717000D01*
X6016000Y-18667000D02*
G75*
G03*
X6016000Y-18667000I-50000J0D01*
G01*
X5916000Y-18871000D02*
X6016000Y-18971000D01*
X6016000Y-18871000D02*
X5916000Y-18971000D01*
X6016000Y-18921000D02*
G75*
G03*
X6016000Y-18921000I-50000J0D01*
G01*
X6074400Y-10747000D02*
X6174400Y-10847000D01*
X6174400Y-10747000D02*
X6074400Y-10847000D01*
X6174400Y-10797000D02*
G75*
G03*
X6174400Y-10797000I-50000J0D01*
G01*
X6074400Y-11001000D02*
X6174400Y-11101000D01*
X6174400Y-11001000D02*
X6074400Y-11101000D01*
X6174400Y-11051000D02*
G75*
G03*
X6174400Y-11051000I-50000J0D01*
G01*
X6099800Y-16232400D02*
X6199800Y-16332400D01*
X6199800Y-16232400D02*
X6099800Y-16332400D01*
X6199800Y-16282400D02*
G75*
G03*
X6199800Y-16282400I-50000J0D01*
G01*
X6099800Y-16486400D02*
X6199800Y-16586400D01*
X6199800Y-16486400D02*
X6099800Y-16586400D01*
X6199800Y-16536400D02*
G75*
G03*
X6199800Y-16536400I-50000J0D01*
G01*
X6150600Y-4905000D02*
X6250600Y-5005000D01*
X6250600Y-4905000D02*
X6150600Y-5005000D01*
X6250600Y-4955000D02*
G75*
G03*
X6250600Y-4955000I-50000J0D01*
G01*
X6150600Y-5159000D02*
X6250600Y-5259000D01*
X6250600Y-5159000D02*
X6150600Y-5259000D01*
X6250600Y-5209000D02*
G75*
G03*
X6250600Y-5209000I-50000J0D01*
G01*
X6170000Y-18617000D02*
X6270000Y-18717000D01*
X6270000Y-18617000D02*
X6170000Y-18717000D01*
X6270000Y-18667000D02*
G75*
G03*
X6270000Y-18667000I-50000J0D01*
G01*
X6170000Y-18871000D02*
X6270000Y-18971000D01*
X6270000Y-18871000D02*
X6170000Y-18971000D01*
X6270000Y-18921000D02*
G75*
G03*
X6270000Y-18921000I-50000J0D01*
G01*
X6328400Y-10747000D02*
X6428400Y-10847000D01*
X6428400Y-10747000D02*
X6328400Y-10847000D01*
X6428400Y-10797000D02*
G75*
G03*
X6428400Y-10797000I-50000J0D01*
G01*
X6328400Y-11001000D02*
X6428400Y-11101000D01*
X6428400Y-11001000D02*
X6328400Y-11101000D01*
X6428400Y-11051000D02*
G75*
G03*
X6428400Y-11051000I-50000J0D01*
G01*
X6353800Y-16232400D02*
X6453800Y-16332400D01*
X6453800Y-16232400D02*
X6353800Y-16332400D01*
X6453800Y-16282400D02*
G75*
G03*
X6453800Y-16282400I-50000J0D01*
G01*
X6353800Y-16486400D02*
X6453800Y-16586400D01*
X6453800Y-16486400D02*
X6353800Y-16586400D01*
X6453800Y-16536400D02*
G75*
G03*
X6453800Y-16536400I-50000J0D01*
G01*
X6404600Y-4905000D02*
X6504600Y-5005000D01*
X6504600Y-4905000D02*
X6404600Y-5005000D01*
X6504600Y-4955000D02*
G75*
G03*
X6504600Y-4955000I-50000J0D01*
G01*
X6404600Y-5159000D02*
X6504600Y-5259000D01*
X6504600Y-5159000D02*
X6404600Y-5259000D01*
X6504600Y-5209000D02*
G75*
G03*
X6504600Y-5209000I-50000J0D01*
G01*
X6582400Y-10747000D02*
X6682400Y-10847000D01*
X6682400Y-10747000D02*
X6582400Y-10847000D01*
X6682400Y-10797000D02*
G75*
G03*
X6682400Y-10797000I-50000J0D01*
G01*
X6582400Y-11001000D02*
X6682400Y-11101000D01*
X6682400Y-11001000D02*
X6582400Y-11101000D01*
X6682400Y-11051000D02*
G75*
G03*
X6682400Y-11051000I-50000J0D01*
G01*
X6607800Y-16232400D02*
X6707800Y-16332400D01*
X6707800Y-16232400D02*
X6607800Y-16332400D01*
X6707800Y-16282400D02*
G75*
G03*
X6707800Y-16282400I-50000J0D01*
G01*
X6607800Y-16486400D02*
X6707800Y-16586400D01*
X6707800Y-16486400D02*
X6607800Y-16586400D01*
X6707800Y-16536400D02*
G75*
G03*
X6707800Y-16536400I-50000J0D01*
G01*
X6658600Y-4905000D02*
X6758600Y-5005000D01*
X6758600Y-4905000D02*
X6658600Y-5005000D01*
X6758600Y-4955000D02*
G75*
G03*
X6758600Y-4955000I-50000J0D01*
G01*
X6658600Y-5159000D02*
X6758600Y-5259000D01*
X6758600Y-5159000D02*
X6658600Y-5259000D01*
X6758600Y-5209000D02*
G75*
G03*
X6758600Y-5209000I-50000J0D01*
G01*
X17759100Y-7998100D02*
X17859100Y-8098100D01*
X17859100Y-7998100D02*
X17759100Y-8098100D01*
X17859100Y-8048100D02*
G75*
G03*
X17859100Y-8048100I-50000J0D01*
G01*
X17759100Y-8252100D02*
X17859100Y-8352100D01*
X17859100Y-8252100D02*
X17759100Y-8352100D01*
X17859100Y-8302100D02*
G75*
G03*
X17859100Y-8302100I-50000J0D01*
G01*
X17759100Y-8506100D02*
X17859100Y-8606100D01*
X17859100Y-8506100D02*
X17759100Y-8606100D01*
X17859100Y-8556100D02*
G75*
G03*
X17859100Y-8556100I-50000J0D01*
G01*
X17759100Y-8760100D02*
X17859100Y-8860100D01*
X17859100Y-8760100D02*
X17759100Y-8860100D01*
X17859100Y-8810100D02*
G75*
G03*
X17859100Y-8810100I-50000J0D01*
G01*
X17759100Y-9014100D02*
X17859100Y-9114100D01*
X17859100Y-9014100D02*
X17759100Y-9114100D01*
X17859100Y-9064100D02*
G75*
G03*
X17859100Y-9064100I-50000J0D01*
G01*
X17786500Y-10769700D02*
X17886500Y-10869700D01*
X17886500Y-10769700D02*
X17786500Y-10869700D01*
X17886500Y-10819700D02*
G75*
G03*
X17886500Y-10819700I-50000J0D01*
G01*
X17786500Y-11023700D02*
X17886500Y-11123700D01*
X17886500Y-11023700D02*
X17786500Y-11123700D01*
X17886500Y-11073700D02*
G75*
G03*
X17886500Y-11073700I-50000J0D01*
G01*
X17786500Y-11277700D02*
X17886500Y-11377700D01*
X17886500Y-11277700D02*
X17786500Y-11377700D01*
X17886500Y-11327700D02*
G75*
G03*
X17886500Y-11327700I-50000J0D01*
G01*
X17786500Y-11531700D02*
X17886500Y-11631700D01*
X17886500Y-11531700D02*
X17786500Y-11631700D01*
X17886500Y-11581700D02*
G75*
G03*
X17886500Y-11581700I-50000J0D01*
G01*
X17786500Y-11785700D02*
X17886500Y-11885700D01*
X17886500Y-11785700D02*
X17786500Y-11885700D01*
X17886500Y-11835700D02*
G75*
G03*
X17886500Y-11835700I-50000J0D01*
G01*
X18013100Y-7998100D02*
X18113100Y-8098100D01*
X18113100Y-7998100D02*
X18013100Y-8098100D01*
X18113100Y-8048100D02*
G75*
G03*
X18113100Y-8048100I-50000J0D01*
G01*
X18013100Y-8252100D02*
X18113100Y-8352100D01*
X18113100Y-8252100D02*
X18013100Y-8352100D01*
X18113100Y-8302100D02*
G75*
G03*
X18113100Y-8302100I-50000J0D01*
G01*
X18013100Y-8506100D02*
X18113100Y-8606100D01*
X18113100Y-8506100D02*
X18013100Y-8606100D01*
X18113100Y-8556100D02*
G75*
G03*
X18113100Y-8556100I-50000J0D01*
G01*
X18013100Y-8760100D02*
X18113100Y-8860100D01*
X18113100Y-8760100D02*
X18013100Y-8860100D01*
X18113100Y-8810100D02*
G75*
G03*
X18113100Y-8810100I-50000J0D01*
G01*
X18013100Y-9014100D02*
X18113100Y-9114100D01*
X18113100Y-9014100D02*
X18013100Y-9114100D01*
X18113100Y-9064100D02*
G75*
G03*
X18113100Y-9064100I-50000J0D01*
G01*
X18040500Y-10769700D02*
X18140500Y-10869700D01*
X18140500Y-10769700D02*
X18040500Y-10869700D01*
X18140500Y-10819700D02*
G75*
G03*
X18140500Y-10819700I-50000J0D01*
G01*
X18040500Y-11023700D02*
X18140500Y-11123700D01*
X18140500Y-11023700D02*
X18040500Y-11123700D01*
X18140500Y-11073700D02*
G75*
G03*
X18140500Y-11073700I-50000J0D01*
G01*
X18040500Y-11277700D02*
X18140500Y-11377700D01*
X18140500Y-11277700D02*
X18040500Y-11377700D01*
X18140500Y-11327700D02*
G75*
G03*
X18140500Y-11327700I-50000J0D01*
G01*
X18040500Y-11531700D02*
X18140500Y-11631700D01*
X18140500Y-11531700D02*
X18040500Y-11631700D01*
X18140500Y-11581700D02*
G75*
G03*
X18140500Y-11581700I-50000J0D01*
G01*
X18040500Y-11785700D02*
X18140500Y-11885700D01*
X18140500Y-11785700D02*
X18040500Y-11885700D01*
X18140500Y-11835700D02*
G75*
G03*
X18140500Y-11835700I-50000J0D01*
G01*
X22810700Y-10895700D02*
X22910700Y-10995700D01*
X22910700Y-10895700D02*
X22810700Y-10995700D01*
X22910700Y-10945700D02*
G75*
G03*
X22910700Y-10945700I-50000J0D01*
G01*
X22810700Y-11149700D02*
X22910700Y-11249700D01*
X22910700Y-11149700D02*
X22810700Y-11249700D01*
X22910700Y-11199700D02*
G75*
G03*
X22910700Y-11199700I-50000J0D01*
G01*
X23064700Y-10895700D02*
X23164700Y-10995700D01*
X23164700Y-10895700D02*
X23064700Y-10995700D01*
X23164700Y-10945700D02*
G75*
G03*
X23164700Y-10945700I-50000J0D01*
G01*
X23064700Y-11149700D02*
X23164700Y-11249700D01*
X23164700Y-11149700D02*
X23064700Y-11249700D01*
X23164700Y-11199700D02*
G75*
G03*
X23164700Y-11199700I-50000J0D01*
G01*
X23318700Y-10895700D02*
X23418700Y-10995700D01*
X23418700Y-10895700D02*
X23318700Y-10995700D01*
X23418700Y-10945700D02*
G75*
G03*
X23418700Y-10945700I-50000J0D01*
G01*
X23318700Y-11149700D02*
X23418700Y-11249700D01*
X23418700Y-11149700D02*
X23318700Y-11249700D01*
X23418700Y-11199700D02*
G75*
G03*
X23418700Y-11199700I-50000J0D01*
G01*
X23572700Y-10895700D02*
X23672700Y-10995700D01*
X23672700Y-10895700D02*
X23572700Y-10995700D01*
X23672700Y-10945700D02*
G75*
G03*
X23672700Y-10945700I-50000J0D01*
G01*
X23572700Y-11149700D02*
X23672700Y-11249700D01*
X23672700Y-11149700D02*
X23572700Y-11249700D01*
X23672700Y-11199700D02*
G75*
G03*
X23672700Y-11199700I-50000J0D01*
G01*
X23826700Y-10895700D02*
X23926700Y-10995700D01*
X23926700Y-10895700D02*
X23826700Y-10995700D01*
X23926700Y-10945700D02*
G75*
G03*
X23926700Y-10945700I-50000J0D01*
G01*
X23826700Y-11149700D02*
X23926700Y-11249700D01*
X23926700Y-11149700D02*
X23826700Y-11249700D01*
X23926700Y-11199700D02*
G75*
G03*
X23926700Y-11199700I-50000J0D01*
G01*
X26347300Y-10917100D02*
X26447300Y-11017100D01*
X26447300Y-10917100D02*
X26347300Y-11017100D01*
X26447300Y-10967100D02*
G75*
G03*
X26447300Y-10967100I-50000J0D01*
G01*
X26347300Y-11171100D02*
X26447300Y-11271100D01*
X26447300Y-11171100D02*
X26347300Y-11271100D01*
X26447300Y-11221100D02*
G75*
G03*
X26447300Y-11221100I-50000J0D01*
G01*
X26601300Y-10917100D02*
X26701300Y-11017100D01*
X26701300Y-10917100D02*
X26601300Y-11017100D01*
X26701300Y-10967100D02*
G75*
G03*
X26701300Y-10967100I-50000J0D01*
G01*
X26601300Y-11171100D02*
X26701300Y-11271100D01*
X26701300Y-11171100D02*
X26601300Y-11271100D01*
X26701300Y-11221100D02*
G75*
G03*
X26701300Y-11221100I-50000J0D01*
G01*
X26855300Y-10917100D02*
X26955300Y-11017100D01*
X26955300Y-10917100D02*
X26855300Y-11017100D01*
X26955300Y-10967100D02*
G75*
G03*
X26955300Y-10967100I-50000J0D01*
G01*
X26855300Y-11171100D02*
X26955300Y-11271100D01*
X26955300Y-11171100D02*
X26855300Y-11271100D01*
X26955300Y-11221100D02*
G75*
G03*
X26955300Y-11221100I-50000J0D01*
G01*
X27109300Y-10917100D02*
X27209300Y-11017100D01*
X27209300Y-10917100D02*
X27109300Y-11017100D01*
X27209300Y-10967100D02*
G75*
G03*
X27209300Y-10967100I-50000J0D01*
G01*
X27109300Y-11171100D02*
X27209300Y-11271100D01*
X27209300Y-11171100D02*
X27109300Y-11271100D01*
X27209300Y-11221100D02*
G75*
G03*
X27209300Y-11221100I-50000J0D01*
G01*
X27363300Y-10917100D02*
X27463300Y-11017100D01*
X27463300Y-10917100D02*
X27363300Y-11017100D01*
X27463300Y-10967100D02*
G75*
G03*
X27463300Y-10967100I-50000J0D01*
G01*
X27363300Y-11171100D02*
X27463300Y-11271100D01*
X27463300Y-11171100D02*
X27363300Y-11271100D01*
X27463300Y-11221100D02*
G75*
G03*
X27463300Y-11221100I-50000J0D01*
G01*
D17*
X2759400Y-9071800D02*
X2879400Y-9191800D01*
X2879400Y-9071800D02*
X2759400Y-9191800D01*
X2819400Y-9071800D02*
X2819400Y-9191800D01*
X2759400Y-9131800D02*
X2879400Y-9131800D01*
X2772600Y-14557200D02*
X2892600Y-14677200D01*
X2892600Y-14557200D02*
X2772600Y-14677200D01*
X2832600Y-14557200D02*
X2832600Y-14677200D01*
X2772600Y-14617200D02*
X2892600Y-14617200D01*
X2793000Y-3610300D02*
X2913000Y-3730300D01*
X2913000Y-3610300D02*
X2793000Y-3730300D01*
X2853000Y-3610300D02*
X2853000Y-3730300D01*
X2793000Y-3670300D02*
X2913000Y-3670300D01*
X3584400Y-9642800D02*
X3704400Y-9762800D01*
X3704400Y-9642800D02*
X3584400Y-9762800D01*
X3644400Y-9642800D02*
X3644400Y-9762800D01*
X3584400Y-9702800D02*
X3704400Y-9702800D01*
X3597600Y-15128200D02*
X3717600Y-15248200D01*
X3717600Y-15128200D02*
X3597600Y-15248200D01*
X3657600Y-15128200D02*
X3657600Y-15248200D01*
X3597600Y-15188200D02*
X3717600Y-15188200D01*
X5464400Y-9071800D02*
X5584400Y-9191800D01*
X5584400Y-9071800D02*
X5464400Y-9191800D01*
X5524400Y-9071800D02*
X5524400Y-9191800D01*
X5464400Y-9131800D02*
X5584400Y-9131800D01*
X5477600Y-14557200D02*
X5597600Y-14677200D01*
X5597600Y-14557200D02*
X5477600Y-14677200D01*
X5537600Y-14557200D02*
X5537600Y-14677200D01*
X5477600Y-14617200D02*
X5597600Y-14617200D01*
X5528000Y-3610300D02*
X5648000Y-3730300D01*
X5648000Y-3610300D02*
X5528000Y-3730300D01*
X5588000Y-3610300D02*
X5588000Y-3730300D01*
X5528000Y-3670300D02*
X5648000Y-3670300D01*
X6289400Y-9642800D02*
X6409400Y-9762800D01*
X6409400Y-9642800D02*
X6289400Y-9762800D01*
X6349400Y-9642800D02*
X6349400Y-9762800D01*
X6289400Y-9702800D02*
X6409400Y-9702800D01*
X6302600Y-15128200D02*
X6422600Y-15248200D01*
X6422600Y-15128200D02*
X6302600Y-15248200D01*
X6362600Y-15128200D02*
X6362600Y-15248200D01*
X6302600Y-15188200D02*
X6422600Y-15188200D01*
X8169400Y-9071800D02*
X8289400Y-9191800D01*
X8289400Y-9071800D02*
X8169400Y-9191800D01*
X8229400Y-9071800D02*
X8229400Y-9191800D01*
X8169400Y-9131800D02*
X8289400Y-9131800D01*
X8182600Y-14557200D02*
X8302600Y-14677200D01*
X8302600Y-14557200D02*
X8182600Y-14677200D01*
X8242600Y-14557200D02*
X8242600Y-14677200D01*
X8182600Y-14617200D02*
X8302600Y-14617200D01*
X8263000Y-3610300D02*
X8383000Y-3730300D01*
X8383000Y-3610300D02*
X8263000Y-3730300D01*
X8323000Y-3610300D02*
X8323000Y-3730300D01*
X8263000Y-3670300D02*
X8383000Y-3670300D01*
X8994400Y-9642800D02*
X9114400Y-9762800D01*
X9114400Y-9642800D02*
X8994400Y-9762800D01*
X9054400Y-9642800D02*
X9054400Y-9762800D01*
X8994400Y-9702800D02*
X9114400Y-9702800D01*
X9007600Y-15128200D02*
X9127600Y-15248200D01*
X9127600Y-15128200D02*
X9007600Y-15248200D01*
X9067600Y-15128200D02*
X9067600Y-15248200D01*
X9007600Y-15188200D02*
X9127600Y-15188200D01*
X10874400Y-9071800D02*
X10994400Y-9191800D01*
X10994400Y-9071800D02*
X10874400Y-9191800D01*
X10934400Y-9071800D02*
X10934400Y-9191800D01*
X10874400Y-9131800D02*
X10994400Y-9131800D01*
X10887600Y-14557200D02*
X11007600Y-14677200D01*
X11007600Y-14557200D02*
X10887600Y-14677200D01*
X10947600Y-14557200D02*
X10947600Y-14677200D01*
X10887600Y-14617200D02*
X11007600Y-14617200D01*
X10998000Y-3610300D02*
X11118000Y-3730300D01*
X11118000Y-3610300D02*
X10998000Y-3730300D01*
X11058000Y-3610300D02*
X11058000Y-3730300D01*
X10998000Y-3670300D02*
X11118000Y-3670300D01*
X11699400Y-9642800D02*
X11819400Y-9762800D01*
X11819400Y-9642800D02*
X11699400Y-9762800D01*
X11759400Y-9642800D02*
X11759400Y-9762800D01*
X11699400Y-9702800D02*
X11819400Y-9702800D01*
X11712600Y-15128200D02*
X11832600Y-15248200D01*
X11832600Y-15128200D02*
X11712600Y-15248200D01*
X11772600Y-15128200D02*
X11772600Y-15248200D01*
X11712600Y-15188200D02*
X11832600Y-15188200D01*
D18*
X7288500Y-5002500D02*
X7443500Y-5157500D01*
X7443500Y-5002500D02*
X7288500Y-5157500D01*
X7420801Y-5134801D02*
X7420801Y-5025199D01*
X7311199Y-5025199D01*
X7311199Y-5134801D01*
X7420801Y-5134801D01*
X7288500Y-10844500D02*
X7443500Y-10999500D01*
X7443500Y-10844500D02*
X7288500Y-10999500D01*
X7420801Y-10976801D02*
X7420801Y-10867199D01*
X7311199Y-10867199D01*
X7311199Y-10976801D01*
X7420801Y-10976801D01*
X7288500Y-16329900D02*
X7443500Y-16484900D01*
X7443500Y-16329900D02*
X7288500Y-16484900D01*
X7420801Y-16462201D02*
X7420801Y-16352599D01*
X7311199Y-16352599D01*
X7311199Y-16462201D01*
X7420801Y-16462201D01*
X7796500Y-5002500D02*
X7951500Y-5157500D01*
X7951500Y-5002500D02*
X7796500Y-5157500D01*
X7928801Y-5134801D02*
X7928801Y-5025199D01*
X7819199Y-5025199D01*
X7819199Y-5134801D01*
X7928801Y-5134801D01*
X7796500Y-10844500D02*
X7951500Y-10999500D01*
X7951500Y-10844500D02*
X7796500Y-10999500D01*
X7928801Y-10976801D02*
X7928801Y-10867199D01*
X7819199Y-10867199D01*
X7819199Y-10976801D01*
X7928801Y-10976801D01*
X7796500Y-16329900D02*
X7951500Y-16484900D01*
X7951500Y-16329900D02*
X7796500Y-16484900D01*
X7928801Y-16462201D02*
X7928801Y-16352599D01*
X7819199Y-16352599D01*
X7819199Y-16462201D01*
X7928801Y-16462201D01*
X18900000Y-12009200D02*
X19055000Y-12164200D01*
X19055000Y-12009200D02*
X18900000Y-12164200D01*
X19032301Y-12141501D02*
X19032301Y-12031899D01*
X18922699Y-12031899D01*
X18922699Y-12141501D01*
X19032301Y-12141501D01*
X19408000Y-12009200D02*
X19563000Y-12164200D01*
X19563000Y-12009200D02*
X19408000Y-12164200D01*
X19540301Y-12141501D02*
X19540301Y-12031899D01*
X19430699Y-12031899D01*
X19430699Y-12141501D01*
X19540301Y-12141501D01*
X20678000Y-12009200D02*
X20833000Y-12164200D01*
X20833000Y-12009200D02*
X20678000Y-12164200D01*
X20810301Y-12141501D02*
X20810301Y-12031899D01*
X20700699Y-12031899D01*
X20700699Y-12141501D01*
X20810301Y-12141501D01*
X21186000Y-12009200D02*
X21341000Y-12164200D01*
X21341000Y-12009200D02*
X21186000Y-12164200D01*
X21318301Y-12141501D02*
X21318301Y-12031899D01*
X21208699Y-12031899D01*
X21208699Y-12141501D01*
X21318301Y-12141501D01*
X21694000Y-12009200D02*
X21849000Y-12164200D01*
X21849000Y-12009200D02*
X21694000Y-12164200D01*
X21826301Y-12141501D02*
X21826301Y-12031899D01*
X21716699Y-12031899D01*
X21716699Y-12141501D01*
X21826301Y-12141501D01*
X22456000Y-12009200D02*
X22611000Y-12164200D01*
X22611000Y-12009200D02*
X22456000Y-12164200D01*
X22588301Y-12141501D02*
X22588301Y-12031899D01*
X22478699Y-12031899D01*
X22478699Y-12141501D01*
X22588301Y-12141501D01*
X22964000Y-12009200D02*
X23119000Y-12164200D01*
X23119000Y-12009200D02*
X22964000Y-12164200D01*
X23096301Y-12141501D02*
X23096301Y-12031899D01*
X22986699Y-12031899D01*
X22986699Y-12141501D01*
X23096301Y-12141501D01*
X23472000Y-12009200D02*
X23627000Y-12164200D01*
X23627000Y-12009200D02*
X23472000Y-12164200D01*
X23604301Y-12141501D02*
X23604301Y-12031899D01*
X23494699Y-12031899D01*
X23494699Y-12141501D01*
X23604301Y-12141501D01*
D19*
X2358400Y-8606800D02*
X2518400Y-8766800D01*
X2518400Y-8606800D02*
X2358400Y-8766800D01*
X2438400Y-8766800D02*
X2518400Y-8686800D01*
X2438400Y-8606800D01*
X2358400Y-8686800D01*
X2438400Y-8766800D01*
X2371600Y-14092200D02*
X2531600Y-14252200D01*
X2531600Y-14092200D02*
X2371600Y-14252200D01*
X2451600Y-14252200D02*
X2531600Y-14172200D01*
X2451600Y-14092200D01*
X2371600Y-14172200D01*
X2451600Y-14252200D01*
X2392000Y-2764800D02*
X2552000Y-2924800D01*
X2552000Y-2764800D02*
X2392000Y-2924800D01*
X2472000Y-2924800D02*
X2552000Y-2844800D01*
X2472000Y-2764800D01*
X2392000Y-2844800D01*
X2472000Y-2924800D01*
X2773000Y-3145800D02*
X2933000Y-3305800D01*
X2933000Y-3145800D02*
X2773000Y-3305800D01*
X2853000Y-3305800D02*
X2933000Y-3225800D01*
X2853000Y-3145800D01*
X2773000Y-3225800D01*
X2853000Y-3305800D01*
X3120400Y-8606800D02*
X3280400Y-8766800D01*
X3280400Y-8606800D02*
X3120400Y-8766800D01*
X3200400Y-8766800D02*
X3280400Y-8686800D01*
X3200400Y-8606800D01*
X3120400Y-8686800D01*
X3200400Y-8766800D01*
X3133600Y-14092200D02*
X3293600Y-14252200D01*
X3293600Y-14092200D02*
X3133600Y-14252200D01*
X3213600Y-14252200D02*
X3293600Y-14172200D01*
X3213600Y-14092200D01*
X3133600Y-14172200D01*
X3213600Y-14252200D01*
X3154000Y-2764800D02*
X3314000Y-2924800D01*
X3314000Y-2764800D02*
X3154000Y-2924800D01*
X3234000Y-2924800D02*
X3314000Y-2844800D01*
X3234000Y-2764800D01*
X3154000Y-2844800D01*
X3234000Y-2924800D01*
X5063400Y-8606800D02*
X5223400Y-8766800D01*
X5223400Y-8606800D02*
X5063400Y-8766800D01*
X5143400Y-8766800D02*
X5223400Y-8686800D01*
X5143400Y-8606800D01*
X5063400Y-8686800D01*
X5143400Y-8766800D01*
X5076600Y-14092200D02*
X5236600Y-14252200D01*
X5236600Y-14092200D02*
X5076600Y-14252200D01*
X5156600Y-14252200D02*
X5236600Y-14172200D01*
X5156600Y-14092200D01*
X5076600Y-14172200D01*
X5156600Y-14252200D01*
X5127000Y-2764800D02*
X5287000Y-2924800D01*
X5287000Y-2764800D02*
X5127000Y-2924800D01*
X5207000Y-2924800D02*
X5287000Y-2844800D01*
X5207000Y-2764800D01*
X5127000Y-2844800D01*
X5207000Y-2924800D01*
X5508000Y-3145800D02*
X5668000Y-3305800D01*
X5668000Y-3145800D02*
X5508000Y-3305800D01*
X5588000Y-3305800D02*
X5668000Y-3225800D01*
X5588000Y-3145800D01*
X5508000Y-3225800D01*
X5588000Y-3305800D01*
X5825400Y-8606800D02*
X5985400Y-8766800D01*
X5985400Y-8606800D02*
X5825400Y-8766800D01*
X5905400Y-8766800D02*
X5985400Y-8686800D01*
X5905400Y-8606800D01*
X5825400Y-8686800D01*
X5905400Y-8766800D01*
X5838600Y-14092200D02*
X5998600Y-14252200D01*
X5998600Y-14092200D02*
X5838600Y-14252200D01*
X5918600Y-14252200D02*
X5998600Y-14172200D01*
X5918600Y-14092200D01*
X5838600Y-14172200D01*
X5918600Y-14252200D01*
X5889000Y-2764800D02*
X6049000Y-2924800D01*
X6049000Y-2764800D02*
X5889000Y-2924800D01*
X5969000Y-2924800D02*
X6049000Y-2844800D01*
X5969000Y-2764800D01*
X5889000Y-2844800D01*
X5969000Y-2924800D01*
X7768400Y-8606800D02*
X7928400Y-8766800D01*
X7928400Y-8606800D02*
X7768400Y-8766800D01*
X7848400Y-8766800D02*
X7928400Y-8686800D01*
X7848400Y-8606800D01*
X7768400Y-8686800D01*
X7848400Y-8766800D01*
X7781600Y-14092200D02*
X7941600Y-14252200D01*
X7941600Y-14092200D02*
X7781600Y-14252200D01*
X7861600Y-14252200D02*
X7941600Y-14172200D01*
X7861600Y-14092200D01*
X7781600Y-14172200D01*
X7861600Y-14252200D01*
X7862000Y-2764800D02*
X8022000Y-2924800D01*
X8022000Y-2764800D02*
X7862000Y-2924800D01*
X7942000Y-2924800D02*
X8022000Y-2844800D01*
X7942000Y-2764800D01*
X7862000Y-2844800D01*
X7942000Y-2924800D01*
X8243000Y-3145800D02*
X8403000Y-3305800D01*
X8403000Y-3145800D02*
X8243000Y-3305800D01*
X8323000Y-3305800D02*
X8403000Y-3225800D01*
X8323000Y-3145800D01*
X8243000Y-3225800D01*
X8323000Y-3305800D01*
X8530400Y-8606800D02*
X8690400Y-8766800D01*
X8690400Y-8606800D02*
X8530400Y-8766800D01*
X8610400Y-8766800D02*
X8690400Y-8686800D01*
X8610400Y-8606800D01*
X8530400Y-8686800D01*
X8610400Y-8766800D01*
X8543600Y-14092200D02*
X8703600Y-14252200D01*
X8703600Y-14092200D02*
X8543600Y-14252200D01*
X8623600Y-14252200D02*
X8703600Y-14172200D01*
X8623600Y-14092200D01*
X8543600Y-14172200D01*
X8623600Y-14252200D01*
X8624000Y-2764800D02*
X8784000Y-2924800D01*
X8784000Y-2764800D02*
X8624000Y-2924800D01*
X8704000Y-2924800D02*
X8784000Y-2844800D01*
X8704000Y-2764800D01*
X8624000Y-2844800D01*
X8704000Y-2924800D01*
X10473400Y-8606800D02*
X10633400Y-8766800D01*
X10633400Y-8606800D02*
X10473400Y-8766800D01*
X10553400Y-8766800D02*
X10633400Y-8686800D01*
X10553400Y-8606800D01*
X10473400Y-8686800D01*
X10553400Y-8766800D01*
X10486600Y-14092200D02*
X10646600Y-14252200D01*
X10646600Y-14092200D02*
X10486600Y-14252200D01*
X10566600Y-14252200D02*
X10646600Y-14172200D01*
X10566600Y-14092200D01*
X10486600Y-14172200D01*
X10566600Y-14252200D01*
X10597000Y-2764800D02*
X10757000Y-2924800D01*
X10757000Y-2764800D02*
X10597000Y-2924800D01*
X10677000Y-2924800D02*
X10757000Y-2844800D01*
X10677000Y-2764800D01*
X10597000Y-2844800D01*
X10677000Y-2924800D01*
X10978000Y-3145800D02*
X11138000Y-3305800D01*
X11138000Y-3145800D02*
X10978000Y-3305800D01*
X11058000Y-3305800D02*
X11138000Y-3225800D01*
X11058000Y-3145800D01*
X10978000Y-3225800D01*
X11058000Y-3305800D01*
X11235400Y-8606800D02*
X11395400Y-8766800D01*
X11395400Y-8606800D02*
X11235400Y-8766800D01*
X11315400Y-8766800D02*
X11395400Y-8686800D01*
X11315400Y-8606800D01*
X11235400Y-8686800D01*
X11315400Y-8766800D01*
X11248600Y-14092200D02*
X11408600Y-14252200D01*
X11408600Y-14092200D02*
X11248600Y-14252200D01*
X11328600Y-14252200D02*
X11408600Y-14172200D01*
X11328600Y-14092200D01*
X11248600Y-14172200D01*
X11328600Y-14252200D01*
X11359000Y-2764800D02*
X11519000Y-2924800D01*
X11519000Y-2764800D02*
X11359000Y-2924800D01*
X11439000Y-2924800D02*
X11519000Y-2844800D01*
X11439000Y-2764800D01*
X11359000Y-2844800D01*
X11439000Y-2924800D01*
D20*
X3048000Y-18128000D02*
X3048000Y-18448000D01*
X2888000Y-18288000D02*
X3208000Y-18288000D01*
X3208000Y-18288000D02*
G75*
G03*
X3208000Y-18288000I-160000J0D01*
G01*
X8382000Y-18128000D02*
X8382000Y-18448000D01*
X8222000Y-18288000D02*
X8542000Y-18288000D01*
X8542000Y-18288000D02*
G75*
G03*
X8542000Y-18288000I-160000J0D01*
G01*
X17161405Y-12310150D02*
X17161405Y-12630150D01*
X17001405Y-12470150D02*
X17321405Y-12470150D01*
X17321405Y-12470150D02*
G75*
G03*
X17321405Y-12470150I-160000J0D01*
G01*
X18861405Y-7299150D02*
X18861405Y-7619150D01*
X18701405Y-7459150D02*
X19021405Y-7459150D01*
X19021405Y-7459150D02*
G75*
G03*
X19021405Y-7459150I-160000J0D01*
G01*
X25712405Y-7299150D02*
X25712405Y-7619150D01*
X25552405Y-7459150D02*
X25872405Y-7459150D01*
X25872405Y-7459150D02*
G75*
G03*
X25872405Y-7459150I-160000J0D01*
G01*
X27361405Y-12250150D02*
X27361405Y-12570150D01*
X27201405Y-12410150D02*
X27521405Y-12410150D01*
X27521405Y-12410150D02*
G75*
G03*
X27521405Y-12410150I-160000J0D01*
G01*
D11*
X1525777Y-19874484D02*
X1525777Y-19674484D01*
X1525777Y-19674484D02*
X1573396Y-19674484D01*
X1573396Y-19674484D02*
X1601967Y-19684008D01*
X1601967Y-19684008D02*
X1621015Y-19703055D01*
X1621015Y-19703055D02*
X1630539Y-19722103D01*
X1630539Y-19722103D02*
X1640062Y-19760198D01*
X1640062Y-19760198D02*
X1640062Y-19788770D01*
X1640062Y-19788770D02*
X1630539Y-19826865D01*
X1630539Y-19826865D02*
X1621015Y-19845912D01*
X1621015Y-19845912D02*
X1601967Y-19864960D01*
X1601967Y-19864960D02*
X1573396Y-19874484D01*
X1573396Y-19874484D02*
X1525777Y-19874484D01*
X1725777Y-19874484D02*
X1725777Y-19741150D01*
X1725777Y-19779246D02*
X1735301Y-19760198D01*
X1735301Y-19760198D02*
X1744824Y-19750674D01*
X1744824Y-19750674D02*
X1763872Y-19741150D01*
X1763872Y-19741150D02*
X1782920Y-19741150D01*
X1849586Y-19874484D02*
X1849586Y-19741150D01*
X1849586Y-19674484D02*
X1840062Y-19684008D01*
X1840062Y-19684008D02*
X1849586Y-19693531D01*
X1849586Y-19693531D02*
X1859110Y-19684008D01*
X1859110Y-19684008D02*
X1849586Y-19674484D01*
X1849586Y-19674484D02*
X1849586Y-19693531D01*
X1973396Y-19874484D02*
X1954348Y-19864960D01*
X1954348Y-19864960D02*
X1944824Y-19845912D01*
X1944824Y-19845912D02*
X1944824Y-19674484D01*
X2078158Y-19874484D02*
X2059110Y-19864960D01*
X2059110Y-19864960D02*
X2049586Y-19845912D01*
X2049586Y-19845912D02*
X2049586Y-19674484D01*
X2306729Y-19874484D02*
X2306729Y-19674484D01*
X2306729Y-19674484D02*
X2373396Y-19817341D01*
X2373396Y-19817341D02*
X2440063Y-19674484D01*
X2440063Y-19674484D02*
X2440063Y-19874484D01*
X2621015Y-19874484D02*
X2621015Y-19769722D01*
X2621015Y-19769722D02*
X2611491Y-19750674D01*
X2611491Y-19750674D02*
X2592444Y-19741150D01*
X2592444Y-19741150D02*
X2554348Y-19741150D01*
X2554348Y-19741150D02*
X2535301Y-19750674D01*
X2621015Y-19864960D02*
X2601967Y-19874484D01*
X2601967Y-19874484D02*
X2554348Y-19874484D01*
X2554348Y-19874484D02*
X2535301Y-19864960D01*
X2535301Y-19864960D02*
X2525777Y-19845912D01*
X2525777Y-19845912D02*
X2525777Y-19826865D01*
X2525777Y-19826865D02*
X2535301Y-19807817D01*
X2535301Y-19807817D02*
X2554348Y-19798293D01*
X2554348Y-19798293D02*
X2601967Y-19798293D01*
X2601967Y-19798293D02*
X2621015Y-19788770D01*
X2716253Y-19741150D02*
X2716253Y-19941150D01*
X2716253Y-19750674D02*
X2735301Y-19741150D01*
X2735301Y-19741150D02*
X2773396Y-19741150D01*
X2773396Y-19741150D02*
X2792444Y-19750674D01*
X2792444Y-19750674D02*
X2801967Y-19760198D01*
X2801967Y-19760198D02*
X2811491Y-19779246D01*
X2811491Y-19779246D02*
X2811491Y-19836389D01*
X2811491Y-19836389D02*
X2801967Y-19855436D01*
X2801967Y-19855436D02*
X2792444Y-19864960D01*
X2792444Y-19864960D02*
X2773396Y-19874484D01*
X2773396Y-19874484D02*
X2735301Y-19874484D01*
X2735301Y-19874484D02*
X2716253Y-19864960D01*
X2897205Y-19855436D02*
X2906729Y-19864960D01*
X2906729Y-19864960D02*
X2897205Y-19874484D01*
X2897205Y-19874484D02*
X2887682Y-19864960D01*
X2887682Y-19864960D02*
X2897205Y-19855436D01*
X2897205Y-19855436D02*
X2897205Y-19874484D01*
X2897205Y-19750674D02*
X2906729Y-19760198D01*
X2906729Y-19760198D02*
X2897205Y-19769722D01*
X2897205Y-19769722D02*
X2887682Y-19760198D01*
X2887682Y-19760198D02*
X2897205Y-19750674D01*
X2897205Y-19750674D02*
X2897205Y-19769722D01*
D12*
X1225000Y-20183000D02*
X1265000Y-20223000D01*
X1265000Y-20183000D02*
X1225000Y-20223000D01*
D11*
X1563872Y-20094484D02*
X1582920Y-20094484D01*
X1582920Y-20094484D02*
X1601967Y-20104008D01*
X1601967Y-20104008D02*
X1611491Y-20113531D01*
X1611491Y-20113531D02*
X1621015Y-20132579D01*
X1621015Y-20132579D02*
X1630539Y-20170674D01*
X1630539Y-20170674D02*
X1630539Y-20218293D01*
X1630539Y-20218293D02*
X1621015Y-20256389D01*
X1621015Y-20256389D02*
X1611491Y-20275436D01*
X1611491Y-20275436D02*
X1601967Y-20284960D01*
X1601967Y-20284960D02*
X1582920Y-20294484D01*
X1582920Y-20294484D02*
X1563872Y-20294484D01*
X1563872Y-20294484D02*
X1544824Y-20284960D01*
X1544824Y-20284960D02*
X1535301Y-20275436D01*
X1535301Y-20275436D02*
X1525777Y-20256389D01*
X1525777Y-20256389D02*
X1516253Y-20218293D01*
X1516253Y-20218293D02*
X1516253Y-20170674D01*
X1516253Y-20170674D02*
X1525777Y-20132579D01*
X1525777Y-20132579D02*
X1535301Y-20113531D01*
X1535301Y-20113531D02*
X1544824Y-20104008D01*
X1544824Y-20104008D02*
X1563872Y-20094484D01*
X1716253Y-20275436D02*
X1725777Y-20284960D01*
X1725777Y-20284960D02*
X1716253Y-20294484D01*
X1716253Y-20294484D02*
X1706729Y-20284960D01*
X1706729Y-20284960D02*
X1716253Y-20275436D01*
X1716253Y-20275436D02*
X1716253Y-20294484D01*
X1897205Y-20161150D02*
X1897205Y-20294484D01*
X1849586Y-20084960D02*
X1801967Y-20227817D01*
X1801967Y-20227817D02*
X1925777Y-20227817D01*
X2040062Y-20094484D02*
X2059110Y-20094484D01*
X2059110Y-20094484D02*
X2078158Y-20104008D01*
X2078158Y-20104008D02*
X2087682Y-20113531D01*
X2087682Y-20113531D02*
X2097205Y-20132579D01*
X2097205Y-20132579D02*
X2106729Y-20170674D01*
X2106729Y-20170674D02*
X2106729Y-20218293D01*
X2106729Y-20218293D02*
X2097205Y-20256389D01*
X2097205Y-20256389D02*
X2087682Y-20275436D01*
X2087682Y-20275436D02*
X2078158Y-20284960D01*
X2078158Y-20284960D02*
X2059110Y-20294484D01*
X2059110Y-20294484D02*
X2040062Y-20294484D01*
X2040062Y-20294484D02*
X2021015Y-20284960D01*
X2021015Y-20284960D02*
X2011491Y-20275436D01*
X2011491Y-20275436D02*
X2001967Y-20256389D01*
X2001967Y-20256389D02*
X1992443Y-20218293D01*
X1992443Y-20218293D02*
X1992443Y-20170674D01*
X1992443Y-20170674D02*
X2001967Y-20132579D01*
X2001967Y-20132579D02*
X2011491Y-20113531D01*
X2011491Y-20113531D02*
X2021015Y-20104008D01*
X2021015Y-20104008D02*
X2040062Y-20094484D01*
X2230539Y-20094484D02*
X2249586Y-20094484D01*
X2249586Y-20094484D02*
X2268634Y-20104008D01*
X2268634Y-20104008D02*
X2278158Y-20113531D01*
X2278158Y-20113531D02*
X2287682Y-20132579D01*
X2287682Y-20132579D02*
X2297205Y-20170674D01*
X2297205Y-20170674D02*
X2297205Y-20218293D01*
X2297205Y-20218293D02*
X2287682Y-20256389D01*
X2287682Y-20256389D02*
X2278158Y-20275436D01*
X2278158Y-20275436D02*
X2268634Y-20284960D01*
X2268634Y-20284960D02*
X2249586Y-20294484D01*
X2249586Y-20294484D02*
X2230539Y-20294484D01*
X2230539Y-20294484D02*
X2211491Y-20284960D01*
X2211491Y-20284960D02*
X2201967Y-20275436D01*
X2201967Y-20275436D02*
X2192444Y-20256389D01*
X2192444Y-20256389D02*
X2182920Y-20218293D01*
X2182920Y-20218293D02*
X2182920Y-20170674D01*
X2182920Y-20170674D02*
X2192444Y-20132579D01*
X2192444Y-20132579D02*
X2201967Y-20113531D01*
X2201967Y-20113531D02*
X2211491Y-20104008D01*
X2211491Y-20104008D02*
X2230539Y-20094484D01*
X2382920Y-20294484D02*
X2382920Y-20161150D01*
X2382920Y-20180198D02*
X2392444Y-20170674D01*
X2392444Y-20170674D02*
X2411491Y-20161150D01*
X2411491Y-20161150D02*
X2440063Y-20161150D01*
X2440063Y-20161150D02*
X2459110Y-20170674D01*
X2459110Y-20170674D02*
X2468634Y-20189722D01*
X2468634Y-20189722D02*
X2468634Y-20294484D01*
X2468634Y-20189722D02*
X2478158Y-20170674D01*
X2478158Y-20170674D02*
X2497205Y-20161150D01*
X2497205Y-20161150D02*
X2525777Y-20161150D01*
X2525777Y-20161150D02*
X2544825Y-20170674D01*
X2544825Y-20170674D02*
X2554348Y-20189722D01*
X2554348Y-20189722D02*
X2554348Y-20294484D01*
X2649586Y-20294484D02*
X2649586Y-20161150D01*
X2649586Y-20180198D02*
X2659110Y-20170674D01*
X2659110Y-20170674D02*
X2678158Y-20161150D01*
X2678158Y-20161150D02*
X2706729Y-20161150D01*
X2706729Y-20161150D02*
X2725777Y-20170674D01*
X2725777Y-20170674D02*
X2735301Y-20189722D01*
X2735301Y-20189722D02*
X2735301Y-20294484D01*
X2735301Y-20189722D02*
X2744825Y-20170674D01*
X2744825Y-20170674D02*
X2763872Y-20161150D01*
X2763872Y-20161150D02*
X2792444Y-20161150D01*
X2792444Y-20161150D02*
X2811491Y-20170674D01*
X2811491Y-20170674D02*
X2821015Y-20189722D01*
X2821015Y-20189722D02*
X2821015Y-20294484D01*
X3211491Y-20084960D02*
X3040063Y-20342103D01*
X3468634Y-20094484D02*
X3487682Y-20094484D01*
X3487682Y-20094484D02*
X3506729Y-20104008D01*
X3506729Y-20104008D02*
X3516253Y-20113531D01*
X3516253Y-20113531D02*
X3525777Y-20132579D01*
X3525777Y-20132579D02*
X3535301Y-20170674D01*
X3535301Y-20170674D02*
X3535301Y-20218293D01*
X3535301Y-20218293D02*
X3525777Y-20256389D01*
X3525777Y-20256389D02*
X3516253Y-20275436D01*
X3516253Y-20275436D02*
X3506729Y-20284960D01*
X3506729Y-20284960D02*
X3487682Y-20294484D01*
X3487682Y-20294484D02*
X3468634Y-20294484D01*
X3468634Y-20294484D02*
X3449586Y-20284960D01*
X3449586Y-20284960D02*
X3440063Y-20275436D01*
X3440063Y-20275436D02*
X3430539Y-20256389D01*
X3430539Y-20256389D02*
X3421015Y-20218293D01*
X3421015Y-20218293D02*
X3421015Y-20170674D01*
X3421015Y-20170674D02*
X3430539Y-20132579D01*
X3430539Y-20132579D02*
X3440063Y-20113531D01*
X3440063Y-20113531D02*
X3449586Y-20104008D01*
X3449586Y-20104008D02*
X3468634Y-20094484D01*
X3621015Y-20275436D02*
X3630539Y-20284960D01*
X3630539Y-20284960D02*
X3621015Y-20294484D01*
X3621015Y-20294484D02*
X3611491Y-20284960D01*
X3611491Y-20284960D02*
X3621015Y-20275436D01*
X3621015Y-20275436D02*
X3621015Y-20294484D01*
X3754348Y-20094484D02*
X3773396Y-20094484D01*
X3773396Y-20094484D02*
X3792444Y-20104008D01*
X3792444Y-20104008D02*
X3801967Y-20113531D01*
X3801967Y-20113531D02*
X3811491Y-20132579D01*
X3811491Y-20132579D02*
X3821015Y-20170674D01*
X3821015Y-20170674D02*
X3821015Y-20218293D01*
X3821015Y-20218293D02*
X3811491Y-20256389D01*
X3811491Y-20256389D02*
X3801967Y-20275436D01*
X3801967Y-20275436D02*
X3792444Y-20284960D01*
X3792444Y-20284960D02*
X3773396Y-20294484D01*
X3773396Y-20294484D02*
X3754348Y-20294484D01*
X3754348Y-20294484D02*
X3735301Y-20284960D01*
X3735301Y-20284960D02*
X3725777Y-20275436D01*
X3725777Y-20275436D02*
X3716253Y-20256389D01*
X3716253Y-20256389D02*
X3706729Y-20218293D01*
X3706729Y-20218293D02*
X3706729Y-20170674D01*
X3706729Y-20170674D02*
X3716253Y-20132579D01*
X3716253Y-20132579D02*
X3725777Y-20113531D01*
X3725777Y-20113531D02*
X3735301Y-20104008D01*
X3735301Y-20104008D02*
X3754348Y-20094484D01*
X4011491Y-20294484D02*
X3897206Y-20294484D01*
X3954348Y-20294484D02*
X3954348Y-20094484D01*
X3954348Y-20094484D02*
X3935301Y-20123055D01*
X3935301Y-20123055D02*
X3916253Y-20142103D01*
X3916253Y-20142103D02*
X3897206Y-20151627D01*
X4192444Y-20094484D02*
X4097206Y-20094484D01*
X4097206Y-20094484D02*
X4087682Y-20189722D01*
X4087682Y-20189722D02*
X4097206Y-20180198D01*
X4097206Y-20180198D02*
X4116253Y-20170674D01*
X4116253Y-20170674D02*
X4163872Y-20170674D01*
X4163872Y-20170674D02*
X4182920Y-20180198D01*
X4182920Y-20180198D02*
X4192444Y-20189722D01*
X4192444Y-20189722D02*
X4201968Y-20208770D01*
X4201968Y-20208770D02*
X4201968Y-20256389D01*
X4201968Y-20256389D02*
X4192444Y-20275436D01*
X4192444Y-20275436D02*
X4182920Y-20284960D01*
X4182920Y-20284960D02*
X4163872Y-20294484D01*
X4163872Y-20294484D02*
X4116253Y-20294484D01*
X4116253Y-20294484D02*
X4097206Y-20284960D01*
X4097206Y-20284960D02*
X4087682Y-20275436D01*
X4268634Y-20094484D02*
X4401968Y-20094484D01*
X4401968Y-20094484D02*
X4316253Y-20294484D01*
X4468634Y-20094484D02*
X4468634Y-20132579D01*
X4544825Y-20094484D02*
X4544825Y-20132579D01*
X4840063Y-20370674D02*
X4830539Y-20361150D01*
X4830539Y-20361150D02*
X4811491Y-20332579D01*
X4811491Y-20332579D02*
X4801968Y-20313531D01*
X4801968Y-20313531D02*
X4792444Y-20284960D01*
X4792444Y-20284960D02*
X4782920Y-20237341D01*
X4782920Y-20237341D02*
X4782920Y-20199246D01*
X4782920Y-20199246D02*
X4792444Y-20151627D01*
X4792444Y-20151627D02*
X4801968Y-20123055D01*
X4801968Y-20123055D02*
X4811491Y-20104008D01*
X4811491Y-20104008D02*
X4830539Y-20075436D01*
X4830539Y-20075436D02*
X4840063Y-20065912D01*
X5001968Y-20161150D02*
X5001968Y-20294484D01*
X4954349Y-20084960D02*
X4906730Y-20227817D01*
X4906730Y-20227817D02*
X5030539Y-20227817D01*
X5201968Y-20094484D02*
X5106730Y-20094484D01*
X5106730Y-20094484D02*
X5097206Y-20189722D01*
X5097206Y-20189722D02*
X5106730Y-20180198D01*
X5106730Y-20180198D02*
X5125777Y-20170674D01*
X5125777Y-20170674D02*
X5173396Y-20170674D01*
X5173396Y-20170674D02*
X5192444Y-20180198D01*
X5192444Y-20180198D02*
X5201968Y-20189722D01*
X5201968Y-20189722D02*
X5211491Y-20208770D01*
X5211491Y-20208770D02*
X5211491Y-20256389D01*
X5211491Y-20256389D02*
X5201968Y-20275436D01*
X5201968Y-20275436D02*
X5192444Y-20284960D01*
X5192444Y-20284960D02*
X5173396Y-20294484D01*
X5173396Y-20294484D02*
X5125777Y-20294484D01*
X5125777Y-20294484D02*
X5106730Y-20284960D01*
X5106730Y-20284960D02*
X5097206Y-20275436D01*
X5449587Y-20294484D02*
X5449587Y-20094484D01*
X5535301Y-20294484D02*
X5535301Y-20189722D01*
X5535301Y-20189722D02*
X5525777Y-20170674D01*
X5525777Y-20170674D02*
X5506730Y-20161150D01*
X5506730Y-20161150D02*
X5478158Y-20161150D01*
X5478158Y-20161150D02*
X5459111Y-20170674D01*
X5459111Y-20170674D02*
X5449587Y-20180198D01*
X5659110Y-20294484D02*
X5640063Y-20284960D01*
X5640063Y-20284960D02*
X5630539Y-20275436D01*
X5630539Y-20275436D02*
X5621015Y-20256389D01*
X5621015Y-20256389D02*
X5621015Y-20199246D01*
X5621015Y-20199246D02*
X5630539Y-20180198D01*
X5630539Y-20180198D02*
X5640063Y-20170674D01*
X5640063Y-20170674D02*
X5659110Y-20161150D01*
X5659110Y-20161150D02*
X5687682Y-20161150D01*
X5687682Y-20161150D02*
X5706730Y-20170674D01*
X5706730Y-20170674D02*
X5716253Y-20180198D01*
X5716253Y-20180198D02*
X5725777Y-20199246D01*
X5725777Y-20199246D02*
X5725777Y-20256389D01*
X5725777Y-20256389D02*
X5716253Y-20275436D01*
X5716253Y-20275436D02*
X5706730Y-20284960D01*
X5706730Y-20284960D02*
X5687682Y-20294484D01*
X5687682Y-20294484D02*
X5659110Y-20294484D01*
X5840063Y-20294484D02*
X5821015Y-20284960D01*
X5821015Y-20284960D02*
X5811491Y-20265912D01*
X5811491Y-20265912D02*
X5811491Y-20094484D01*
X5992444Y-20284960D02*
X5973396Y-20294484D01*
X5973396Y-20294484D02*
X5935301Y-20294484D01*
X5935301Y-20294484D02*
X5916253Y-20284960D01*
X5916253Y-20284960D02*
X5906730Y-20265912D01*
X5906730Y-20265912D02*
X5906730Y-20189722D01*
X5906730Y-20189722D02*
X5916253Y-20170674D01*
X5916253Y-20170674D02*
X5935301Y-20161150D01*
X5935301Y-20161150D02*
X5973396Y-20161150D01*
X5973396Y-20161150D02*
X5992444Y-20170674D01*
X5992444Y-20170674D02*
X6001968Y-20189722D01*
X6001968Y-20189722D02*
X6001968Y-20208770D01*
X6001968Y-20208770D02*
X5906730Y-20227817D01*
X6078158Y-20284960D02*
X6097206Y-20294484D01*
X6097206Y-20294484D02*
X6135301Y-20294484D01*
X6135301Y-20294484D02*
X6154349Y-20284960D01*
X6154349Y-20284960D02*
X6163872Y-20265912D01*
X6163872Y-20265912D02*
X6163872Y-20256389D01*
X6163872Y-20256389D02*
X6154349Y-20237341D01*
X6154349Y-20237341D02*
X6135301Y-20227817D01*
X6135301Y-20227817D02*
X6106730Y-20227817D01*
X6106730Y-20227817D02*
X6087682Y-20218293D01*
X6087682Y-20218293D02*
X6078158Y-20199246D01*
X6078158Y-20199246D02*
X6078158Y-20189722D01*
X6078158Y-20189722D02*
X6087682Y-20170674D01*
X6087682Y-20170674D02*
X6106730Y-20161150D01*
X6106730Y-20161150D02*
X6135301Y-20161150D01*
X6135301Y-20161150D02*
X6154349Y-20170674D01*
X6230539Y-20370674D02*
X6240063Y-20361150D01*
X6240063Y-20361150D02*
X6259111Y-20332579D01*
X6259111Y-20332579D02*
X6268634Y-20313531D01*
X6268634Y-20313531D02*
X6278158Y-20284960D01*
X6278158Y-20284960D02*
X6287682Y-20237341D01*
X6287682Y-20237341D02*
X6287682Y-20199246D01*
X6287682Y-20199246D02*
X6278158Y-20151627D01*
X6278158Y-20151627D02*
X6268634Y-20123055D01*
X6268634Y-20123055D02*
X6259111Y-20104008D01*
X6259111Y-20104008D02*
X6240063Y-20075436D01*
X6240063Y-20075436D02*
X6230539Y-20065912D01*
D13*
X1265000Y-20467000D02*
G75*
G03*
X1265000Y-20467000I-25000J0D01*
G01*
D11*
X1563872Y-20358484D02*
X1582920Y-20358484D01*
X1582920Y-20358484D02*
X1601967Y-20368008D01*
X1601967Y-20368008D02*
X1611491Y-20377531D01*
X1611491Y-20377531D02*
X1621015Y-20396579D01*
X1621015Y-20396579D02*
X1630539Y-20434674D01*
X1630539Y-20434674D02*
X1630539Y-20482293D01*
X1630539Y-20482293D02*
X1621015Y-20520389D01*
X1621015Y-20520389D02*
X1611491Y-20539436D01*
X1611491Y-20539436D02*
X1601967Y-20548960D01*
X1601967Y-20548960D02*
X1582920Y-20558484D01*
X1582920Y-20558484D02*
X1563872Y-20558484D01*
X1563872Y-20558484D02*
X1544824Y-20548960D01*
X1544824Y-20548960D02*
X1535301Y-20539436D01*
X1535301Y-20539436D02*
X1525777Y-20520389D01*
X1525777Y-20520389D02*
X1516253Y-20482293D01*
X1516253Y-20482293D02*
X1516253Y-20434674D01*
X1516253Y-20434674D02*
X1525777Y-20396579D01*
X1525777Y-20396579D02*
X1535301Y-20377531D01*
X1535301Y-20377531D02*
X1544824Y-20368008D01*
X1544824Y-20368008D02*
X1563872Y-20358484D01*
X1716253Y-20539436D02*
X1725777Y-20548960D01*
X1725777Y-20548960D02*
X1716253Y-20558484D01*
X1716253Y-20558484D02*
X1706729Y-20548960D01*
X1706729Y-20548960D02*
X1716253Y-20539436D01*
X1716253Y-20539436D02*
X1716253Y-20558484D01*
X1906729Y-20358484D02*
X1811491Y-20358484D01*
X1811491Y-20358484D02*
X1801967Y-20453722D01*
X1801967Y-20453722D02*
X1811491Y-20444198D01*
X1811491Y-20444198D02*
X1830539Y-20434674D01*
X1830539Y-20434674D02*
X1878158Y-20434674D01*
X1878158Y-20434674D02*
X1897205Y-20444198D01*
X1897205Y-20444198D02*
X1906729Y-20453722D01*
X1906729Y-20453722D02*
X1916253Y-20472770D01*
X1916253Y-20472770D02*
X1916253Y-20520389D01*
X1916253Y-20520389D02*
X1906729Y-20539436D01*
X1906729Y-20539436D02*
X1897205Y-20548960D01*
X1897205Y-20548960D02*
X1878158Y-20558484D01*
X1878158Y-20558484D02*
X1830539Y-20558484D01*
X1830539Y-20558484D02*
X1811491Y-20548960D01*
X1811491Y-20548960D02*
X1801967Y-20539436D01*
X2040062Y-20358484D02*
X2059110Y-20358484D01*
X2059110Y-20358484D02*
X2078158Y-20368008D01*
X2078158Y-20368008D02*
X2087682Y-20377531D01*
X2087682Y-20377531D02*
X2097205Y-20396579D01*
X2097205Y-20396579D02*
X2106729Y-20434674D01*
X2106729Y-20434674D02*
X2106729Y-20482293D01*
X2106729Y-20482293D02*
X2097205Y-20520389D01*
X2097205Y-20520389D02*
X2087682Y-20539436D01*
X2087682Y-20539436D02*
X2078158Y-20548960D01*
X2078158Y-20548960D02*
X2059110Y-20558484D01*
X2059110Y-20558484D02*
X2040062Y-20558484D01*
X2040062Y-20558484D02*
X2021015Y-20548960D01*
X2021015Y-20548960D02*
X2011491Y-20539436D01*
X2011491Y-20539436D02*
X2001967Y-20520389D01*
X2001967Y-20520389D02*
X1992443Y-20482293D01*
X1992443Y-20482293D02*
X1992443Y-20434674D01*
X1992443Y-20434674D02*
X2001967Y-20396579D01*
X2001967Y-20396579D02*
X2011491Y-20377531D01*
X2011491Y-20377531D02*
X2021015Y-20368008D01*
X2021015Y-20368008D02*
X2040062Y-20358484D01*
X2230539Y-20358484D02*
X2249586Y-20358484D01*
X2249586Y-20358484D02*
X2268634Y-20368008D01*
X2268634Y-20368008D02*
X2278158Y-20377531D01*
X2278158Y-20377531D02*
X2287682Y-20396579D01*
X2287682Y-20396579D02*
X2297205Y-20434674D01*
X2297205Y-20434674D02*
X2297205Y-20482293D01*
X2297205Y-20482293D02*
X2287682Y-20520389D01*
X2287682Y-20520389D02*
X2278158Y-20539436D01*
X2278158Y-20539436D02*
X2268634Y-20548960D01*
X2268634Y-20548960D02*
X2249586Y-20558484D01*
X2249586Y-20558484D02*
X2230539Y-20558484D01*
X2230539Y-20558484D02*
X2211491Y-20548960D01*
X2211491Y-20548960D02*
X2201967Y-20539436D01*
X2201967Y-20539436D02*
X2192444Y-20520389D01*
X2192444Y-20520389D02*
X2182920Y-20482293D01*
X2182920Y-20482293D02*
X2182920Y-20434674D01*
X2182920Y-20434674D02*
X2192444Y-20396579D01*
X2192444Y-20396579D02*
X2201967Y-20377531D01*
X2201967Y-20377531D02*
X2211491Y-20368008D01*
X2211491Y-20368008D02*
X2230539Y-20358484D01*
X2382920Y-20558484D02*
X2382920Y-20425150D01*
X2382920Y-20444198D02*
X2392444Y-20434674D01*
X2392444Y-20434674D02*
X2411491Y-20425150D01*
X2411491Y-20425150D02*
X2440063Y-20425150D01*
X2440063Y-20425150D02*
X2459110Y-20434674D01*
X2459110Y-20434674D02*
X2468634Y-20453722D01*
X2468634Y-20453722D02*
X2468634Y-20558484D01*
X2468634Y-20453722D02*
X2478158Y-20434674D01*
X2478158Y-20434674D02*
X2497205Y-20425150D01*
X2497205Y-20425150D02*
X2525777Y-20425150D01*
X2525777Y-20425150D02*
X2544825Y-20434674D01*
X2544825Y-20434674D02*
X2554348Y-20453722D01*
X2554348Y-20453722D02*
X2554348Y-20558484D01*
X2649586Y-20558484D02*
X2649586Y-20425150D01*
X2649586Y-20444198D02*
X2659110Y-20434674D01*
X2659110Y-20434674D02*
X2678158Y-20425150D01*
X2678158Y-20425150D02*
X2706729Y-20425150D01*
X2706729Y-20425150D02*
X2725777Y-20434674D01*
X2725777Y-20434674D02*
X2735301Y-20453722D01*
X2735301Y-20453722D02*
X2735301Y-20558484D01*
X2735301Y-20453722D02*
X2744825Y-20434674D01*
X2744825Y-20434674D02*
X2763872Y-20425150D01*
X2763872Y-20425150D02*
X2792444Y-20425150D01*
X2792444Y-20425150D02*
X2811491Y-20434674D01*
X2811491Y-20434674D02*
X2821015Y-20453722D01*
X2821015Y-20453722D02*
X2821015Y-20558484D01*
X3211491Y-20348960D02*
X3040063Y-20606103D01*
X3468634Y-20358484D02*
X3487682Y-20358484D01*
X3487682Y-20358484D02*
X3506729Y-20368008D01*
X3506729Y-20368008D02*
X3516253Y-20377531D01*
X3516253Y-20377531D02*
X3525777Y-20396579D01*
X3525777Y-20396579D02*
X3535301Y-20434674D01*
X3535301Y-20434674D02*
X3535301Y-20482293D01*
X3535301Y-20482293D02*
X3525777Y-20520389D01*
X3525777Y-20520389D02*
X3516253Y-20539436D01*
X3516253Y-20539436D02*
X3506729Y-20548960D01*
X3506729Y-20548960D02*
X3487682Y-20558484D01*
X3487682Y-20558484D02*
X3468634Y-20558484D01*
X3468634Y-20558484D02*
X3449586Y-20548960D01*
X3449586Y-20548960D02*
X3440063Y-20539436D01*
X3440063Y-20539436D02*
X3430539Y-20520389D01*
X3430539Y-20520389D02*
X3421015Y-20482293D01*
X3421015Y-20482293D02*
X3421015Y-20434674D01*
X3421015Y-20434674D02*
X3430539Y-20396579D01*
X3430539Y-20396579D02*
X3440063Y-20377531D01*
X3440063Y-20377531D02*
X3449586Y-20368008D01*
X3449586Y-20368008D02*
X3468634Y-20358484D01*
X3621015Y-20539436D02*
X3630539Y-20548960D01*
X3630539Y-20548960D02*
X3621015Y-20558484D01*
X3621015Y-20558484D02*
X3611491Y-20548960D01*
X3611491Y-20548960D02*
X3621015Y-20539436D01*
X3621015Y-20539436D02*
X3621015Y-20558484D01*
X3754348Y-20358484D02*
X3773396Y-20358484D01*
X3773396Y-20358484D02*
X3792444Y-20368008D01*
X3792444Y-20368008D02*
X3801967Y-20377531D01*
X3801967Y-20377531D02*
X3811491Y-20396579D01*
X3811491Y-20396579D02*
X3821015Y-20434674D01*
X3821015Y-20434674D02*
X3821015Y-20482293D01*
X3821015Y-20482293D02*
X3811491Y-20520389D01*
X3811491Y-20520389D02*
X3801967Y-20539436D01*
X3801967Y-20539436D02*
X3792444Y-20548960D01*
X3792444Y-20548960D02*
X3773396Y-20558484D01*
X3773396Y-20558484D02*
X3754348Y-20558484D01*
X3754348Y-20558484D02*
X3735301Y-20548960D01*
X3735301Y-20548960D02*
X3725777Y-20539436D01*
X3725777Y-20539436D02*
X3716253Y-20520389D01*
X3716253Y-20520389D02*
X3706729Y-20482293D01*
X3706729Y-20482293D02*
X3706729Y-20434674D01*
X3706729Y-20434674D02*
X3716253Y-20396579D01*
X3716253Y-20396579D02*
X3725777Y-20377531D01*
X3725777Y-20377531D02*
X3735301Y-20368008D01*
X3735301Y-20368008D02*
X3754348Y-20358484D01*
X4011491Y-20558484D02*
X3897206Y-20558484D01*
X3954348Y-20558484D02*
X3954348Y-20358484D01*
X3954348Y-20358484D02*
X3935301Y-20387055D01*
X3935301Y-20387055D02*
X3916253Y-20406103D01*
X3916253Y-20406103D02*
X3897206Y-20415627D01*
X4106729Y-20558484D02*
X4144825Y-20558484D01*
X4144825Y-20558484D02*
X4163872Y-20548960D01*
X4163872Y-20548960D02*
X4173396Y-20539436D01*
X4173396Y-20539436D02*
X4192444Y-20510865D01*
X4192444Y-20510865D02*
X4201968Y-20472770D01*
X4201968Y-20472770D02*
X4201968Y-20396579D01*
X4201968Y-20396579D02*
X4192444Y-20377531D01*
X4192444Y-20377531D02*
X4182920Y-20368008D01*
X4182920Y-20368008D02*
X4163872Y-20358484D01*
X4163872Y-20358484D02*
X4125777Y-20358484D01*
X4125777Y-20358484D02*
X4106729Y-20368008D01*
X4106729Y-20368008D02*
X4097206Y-20377531D01*
X4097206Y-20377531D02*
X4087682Y-20396579D01*
X4087682Y-20396579D02*
X4087682Y-20444198D01*
X4087682Y-20444198D02*
X4097206Y-20463246D01*
X4097206Y-20463246D02*
X4106729Y-20472770D01*
X4106729Y-20472770D02*
X4125777Y-20482293D01*
X4125777Y-20482293D02*
X4163872Y-20482293D01*
X4163872Y-20482293D02*
X4182920Y-20472770D01*
X4182920Y-20472770D02*
X4192444Y-20463246D01*
X4192444Y-20463246D02*
X4201968Y-20444198D01*
X4268634Y-20358484D02*
X4401968Y-20358484D01*
X4401968Y-20358484D02*
X4316253Y-20558484D01*
X4468634Y-20358484D02*
X4468634Y-20396579D01*
X4544825Y-20358484D02*
X4544825Y-20396579D01*
X4840063Y-20634674D02*
X4830539Y-20625150D01*
X4830539Y-20625150D02*
X4811491Y-20596579D01*
X4811491Y-20596579D02*
X4801968Y-20577531D01*
X4801968Y-20577531D02*
X4792444Y-20548960D01*
X4792444Y-20548960D02*
X4782920Y-20501341D01*
X4782920Y-20501341D02*
X4782920Y-20463246D01*
X4782920Y-20463246D02*
X4792444Y-20415627D01*
X4792444Y-20415627D02*
X4801968Y-20387055D01*
X4801968Y-20387055D02*
X4811491Y-20368008D01*
X4811491Y-20368008D02*
X4830539Y-20339436D01*
X4830539Y-20339436D02*
X4840063Y-20329912D01*
X5001968Y-20425150D02*
X5001968Y-20558484D01*
X4954349Y-20348960D02*
X4906730Y-20491817D01*
X4906730Y-20491817D02*
X5030539Y-20491817D01*
X5135301Y-20444198D02*
X5116253Y-20434674D01*
X5116253Y-20434674D02*
X5106730Y-20425150D01*
X5106730Y-20425150D02*
X5097206Y-20406103D01*
X5097206Y-20406103D02*
X5097206Y-20396579D01*
X5097206Y-20396579D02*
X5106730Y-20377531D01*
X5106730Y-20377531D02*
X5116253Y-20368008D01*
X5116253Y-20368008D02*
X5135301Y-20358484D01*
X5135301Y-20358484D02*
X5173396Y-20358484D01*
X5173396Y-20358484D02*
X5192444Y-20368008D01*
X5192444Y-20368008D02*
X5201968Y-20377531D01*
X5201968Y-20377531D02*
X5211491Y-20396579D01*
X5211491Y-20396579D02*
X5211491Y-20406103D01*
X5211491Y-20406103D02*
X5201968Y-20425150D01*
X5201968Y-20425150D02*
X5192444Y-20434674D01*
X5192444Y-20434674D02*
X5173396Y-20444198D01*
X5173396Y-20444198D02*
X5135301Y-20444198D01*
X5135301Y-20444198D02*
X5116253Y-20453722D01*
X5116253Y-20453722D02*
X5106730Y-20463246D01*
X5106730Y-20463246D02*
X5097206Y-20482293D01*
X5097206Y-20482293D02*
X5097206Y-20520389D01*
X5097206Y-20520389D02*
X5106730Y-20539436D01*
X5106730Y-20539436D02*
X5116253Y-20548960D01*
X5116253Y-20548960D02*
X5135301Y-20558484D01*
X5135301Y-20558484D02*
X5173396Y-20558484D01*
X5173396Y-20558484D02*
X5192444Y-20548960D01*
X5192444Y-20548960D02*
X5201968Y-20539436D01*
X5201968Y-20539436D02*
X5211491Y-20520389D01*
X5211491Y-20520389D02*
X5211491Y-20482293D01*
X5211491Y-20482293D02*
X5201968Y-20463246D01*
X5201968Y-20463246D02*
X5192444Y-20453722D01*
X5192444Y-20453722D02*
X5173396Y-20444198D01*
X5449587Y-20558484D02*
X5449587Y-20358484D01*
X5535301Y-20558484D02*
X5535301Y-20453722D01*
X5535301Y-20453722D02*
X5525777Y-20434674D01*
X5525777Y-20434674D02*
X5506730Y-20425150D01*
X5506730Y-20425150D02*
X5478158Y-20425150D01*
X5478158Y-20425150D02*
X5459111Y-20434674D01*
X5459111Y-20434674D02*
X5449587Y-20444198D01*
X5659110Y-20558484D02*
X5640063Y-20548960D01*
X5640063Y-20548960D02*
X5630539Y-20539436D01*
X5630539Y-20539436D02*
X5621015Y-20520389D01*
X5621015Y-20520389D02*
X5621015Y-20463246D01*
X5621015Y-20463246D02*
X5630539Y-20444198D01*
X5630539Y-20444198D02*
X5640063Y-20434674D01*
X5640063Y-20434674D02*
X5659110Y-20425150D01*
X5659110Y-20425150D02*
X5687682Y-20425150D01*
X5687682Y-20425150D02*
X5706730Y-20434674D01*
X5706730Y-20434674D02*
X5716253Y-20444198D01*
X5716253Y-20444198D02*
X5725777Y-20463246D01*
X5725777Y-20463246D02*
X5725777Y-20520389D01*
X5725777Y-20520389D02*
X5716253Y-20539436D01*
X5716253Y-20539436D02*
X5706730Y-20548960D01*
X5706730Y-20548960D02*
X5687682Y-20558484D01*
X5687682Y-20558484D02*
X5659110Y-20558484D01*
X5840063Y-20558484D02*
X5821015Y-20548960D01*
X5821015Y-20548960D02*
X5811491Y-20529912D01*
X5811491Y-20529912D02*
X5811491Y-20358484D01*
X5992444Y-20548960D02*
X5973396Y-20558484D01*
X5973396Y-20558484D02*
X5935301Y-20558484D01*
X5935301Y-20558484D02*
X5916253Y-20548960D01*
X5916253Y-20548960D02*
X5906730Y-20529912D01*
X5906730Y-20529912D02*
X5906730Y-20453722D01*
X5906730Y-20453722D02*
X5916253Y-20434674D01*
X5916253Y-20434674D02*
X5935301Y-20425150D01*
X5935301Y-20425150D02*
X5973396Y-20425150D01*
X5973396Y-20425150D02*
X5992444Y-20434674D01*
X5992444Y-20434674D02*
X6001968Y-20453722D01*
X6001968Y-20453722D02*
X6001968Y-20472770D01*
X6001968Y-20472770D02*
X5906730Y-20491817D01*
X6078158Y-20548960D02*
X6097206Y-20558484D01*
X6097206Y-20558484D02*
X6135301Y-20558484D01*
X6135301Y-20558484D02*
X6154349Y-20548960D01*
X6154349Y-20548960D02*
X6163872Y-20529912D01*
X6163872Y-20529912D02*
X6163872Y-20520389D01*
X6163872Y-20520389D02*
X6154349Y-20501341D01*
X6154349Y-20501341D02*
X6135301Y-20491817D01*
X6135301Y-20491817D02*
X6106730Y-20491817D01*
X6106730Y-20491817D02*
X6087682Y-20482293D01*
X6087682Y-20482293D02*
X6078158Y-20463246D01*
X6078158Y-20463246D02*
X6078158Y-20453722D01*
X6078158Y-20453722D02*
X6087682Y-20434674D01*
X6087682Y-20434674D02*
X6106730Y-20425150D01*
X6106730Y-20425150D02*
X6135301Y-20425150D01*
X6135301Y-20425150D02*
X6154349Y-20434674D01*
X6230539Y-20634674D02*
X6240063Y-20625150D01*
X6240063Y-20625150D02*
X6259111Y-20596579D01*
X6259111Y-20596579D02*
X6268634Y-20577531D01*
X6268634Y-20577531D02*
X6278158Y-20548960D01*
X6278158Y-20548960D02*
X6287682Y-20501341D01*
X6287682Y-20501341D02*
X6287682Y-20463246D01*
X6287682Y-20463246D02*
X6278158Y-20415627D01*
X6278158Y-20415627D02*
X6268634Y-20387055D01*
X6268634Y-20387055D02*
X6259111Y-20368008D01*
X6259111Y-20368008D02*
X6240063Y-20339436D01*
X6240063Y-20339436D02*
X6230539Y-20329912D01*
D14*
X1230000Y-20696000D02*
X1230000Y-20766000D01*
X1195000Y-20731000D02*
X1265000Y-20731000D01*
D11*
X1563872Y-20622484D02*
X1582920Y-20622484D01*
X1582920Y-20622484D02*
X1601967Y-20632008D01*
X1601967Y-20632008D02*
X1611491Y-20641531D01*
X1611491Y-20641531D02*
X1621015Y-20660579D01*
X1621015Y-20660579D02*
X1630539Y-20698674D01*
X1630539Y-20698674D02*
X1630539Y-20746293D01*
X1630539Y-20746293D02*
X1621015Y-20784389D01*
X1621015Y-20784389D02*
X1611491Y-20803436D01*
X1611491Y-20803436D02*
X1601967Y-20812960D01*
X1601967Y-20812960D02*
X1582920Y-20822484D01*
X1582920Y-20822484D02*
X1563872Y-20822484D01*
X1563872Y-20822484D02*
X1544824Y-20812960D01*
X1544824Y-20812960D02*
X1535301Y-20803436D01*
X1535301Y-20803436D02*
X1525777Y-20784389D01*
X1525777Y-20784389D02*
X1516253Y-20746293D01*
X1516253Y-20746293D02*
X1516253Y-20698674D01*
X1516253Y-20698674D02*
X1525777Y-20660579D01*
X1525777Y-20660579D02*
X1535301Y-20641531D01*
X1535301Y-20641531D02*
X1544824Y-20632008D01*
X1544824Y-20632008D02*
X1563872Y-20622484D01*
X1716253Y-20803436D02*
X1725777Y-20812960D01*
X1725777Y-20812960D02*
X1716253Y-20822484D01*
X1716253Y-20822484D02*
X1706729Y-20812960D01*
X1706729Y-20812960D02*
X1716253Y-20803436D01*
X1716253Y-20803436D02*
X1716253Y-20822484D01*
X1792443Y-20622484D02*
X1925777Y-20622484D01*
X1925777Y-20622484D02*
X1840062Y-20822484D01*
X2040062Y-20622484D02*
X2059110Y-20622484D01*
X2059110Y-20622484D02*
X2078158Y-20632008D01*
X2078158Y-20632008D02*
X2087682Y-20641531D01*
X2087682Y-20641531D02*
X2097205Y-20660579D01*
X2097205Y-20660579D02*
X2106729Y-20698674D01*
X2106729Y-20698674D02*
X2106729Y-20746293D01*
X2106729Y-20746293D02*
X2097205Y-20784389D01*
X2097205Y-20784389D02*
X2087682Y-20803436D01*
X2087682Y-20803436D02*
X2078158Y-20812960D01*
X2078158Y-20812960D02*
X2059110Y-20822484D01*
X2059110Y-20822484D02*
X2040062Y-20822484D01*
X2040062Y-20822484D02*
X2021015Y-20812960D01*
X2021015Y-20812960D02*
X2011491Y-20803436D01*
X2011491Y-20803436D02*
X2001967Y-20784389D01*
X2001967Y-20784389D02*
X1992443Y-20746293D01*
X1992443Y-20746293D02*
X1992443Y-20698674D01*
X1992443Y-20698674D02*
X2001967Y-20660579D01*
X2001967Y-20660579D02*
X2011491Y-20641531D01*
X2011491Y-20641531D02*
X2021015Y-20632008D01*
X2021015Y-20632008D02*
X2040062Y-20622484D01*
X2230539Y-20622484D02*
X2249586Y-20622484D01*
X2249586Y-20622484D02*
X2268634Y-20632008D01*
X2268634Y-20632008D02*
X2278158Y-20641531D01*
X2278158Y-20641531D02*
X2287682Y-20660579D01*
X2287682Y-20660579D02*
X2297205Y-20698674D01*
X2297205Y-20698674D02*
X2297205Y-20746293D01*
X2297205Y-20746293D02*
X2287682Y-20784389D01*
X2287682Y-20784389D02*
X2278158Y-20803436D01*
X2278158Y-20803436D02*
X2268634Y-20812960D01*
X2268634Y-20812960D02*
X2249586Y-20822484D01*
X2249586Y-20822484D02*
X2230539Y-20822484D01*
X2230539Y-20822484D02*
X2211491Y-20812960D01*
X2211491Y-20812960D02*
X2201967Y-20803436D01*
X2201967Y-20803436D02*
X2192444Y-20784389D01*
X2192444Y-20784389D02*
X2182920Y-20746293D01*
X2182920Y-20746293D02*
X2182920Y-20698674D01*
X2182920Y-20698674D02*
X2192444Y-20660579D01*
X2192444Y-20660579D02*
X2201967Y-20641531D01*
X2201967Y-20641531D02*
X2211491Y-20632008D01*
X2211491Y-20632008D02*
X2230539Y-20622484D01*
X2382920Y-20822484D02*
X2382920Y-20689150D01*
X2382920Y-20708198D02*
X2392444Y-20698674D01*
X2392444Y-20698674D02*
X2411491Y-20689150D01*
X2411491Y-20689150D02*
X2440063Y-20689150D01*
X2440063Y-20689150D02*
X2459110Y-20698674D01*
X2459110Y-20698674D02*
X2468634Y-20717722D01*
X2468634Y-20717722D02*
X2468634Y-20822484D01*
X2468634Y-20717722D02*
X2478158Y-20698674D01*
X2478158Y-20698674D02*
X2497205Y-20689150D01*
X2497205Y-20689150D02*
X2525777Y-20689150D01*
X2525777Y-20689150D02*
X2544825Y-20698674D01*
X2544825Y-20698674D02*
X2554348Y-20717722D01*
X2554348Y-20717722D02*
X2554348Y-20822484D01*
X2649586Y-20822484D02*
X2649586Y-20689150D01*
X2649586Y-20708198D02*
X2659110Y-20698674D01*
X2659110Y-20698674D02*
X2678158Y-20689150D01*
X2678158Y-20689150D02*
X2706729Y-20689150D01*
X2706729Y-20689150D02*
X2725777Y-20698674D01*
X2725777Y-20698674D02*
X2735301Y-20717722D01*
X2735301Y-20717722D02*
X2735301Y-20822484D01*
X2735301Y-20717722D02*
X2744825Y-20698674D01*
X2744825Y-20698674D02*
X2763872Y-20689150D01*
X2763872Y-20689150D02*
X2792444Y-20689150D01*
X2792444Y-20689150D02*
X2811491Y-20698674D01*
X2811491Y-20698674D02*
X2821015Y-20717722D01*
X2821015Y-20717722D02*
X2821015Y-20822484D01*
X3211491Y-20612960D02*
X3040063Y-20870103D01*
X3468634Y-20622484D02*
X3487682Y-20622484D01*
X3487682Y-20622484D02*
X3506729Y-20632008D01*
X3506729Y-20632008D02*
X3516253Y-20641531D01*
X3516253Y-20641531D02*
X3525777Y-20660579D01*
X3525777Y-20660579D02*
X3535301Y-20698674D01*
X3535301Y-20698674D02*
X3535301Y-20746293D01*
X3535301Y-20746293D02*
X3525777Y-20784389D01*
X3525777Y-20784389D02*
X3516253Y-20803436D01*
X3516253Y-20803436D02*
X3506729Y-20812960D01*
X3506729Y-20812960D02*
X3487682Y-20822484D01*
X3487682Y-20822484D02*
X3468634Y-20822484D01*
X3468634Y-20822484D02*
X3449586Y-20812960D01*
X3449586Y-20812960D02*
X3440063Y-20803436D01*
X3440063Y-20803436D02*
X3430539Y-20784389D01*
X3430539Y-20784389D02*
X3421015Y-20746293D01*
X3421015Y-20746293D02*
X3421015Y-20698674D01*
X3421015Y-20698674D02*
X3430539Y-20660579D01*
X3430539Y-20660579D02*
X3440063Y-20641531D01*
X3440063Y-20641531D02*
X3449586Y-20632008D01*
X3449586Y-20632008D02*
X3468634Y-20622484D01*
X3621015Y-20803436D02*
X3630539Y-20812960D01*
X3630539Y-20812960D02*
X3621015Y-20822484D01*
X3621015Y-20822484D02*
X3611491Y-20812960D01*
X3611491Y-20812960D02*
X3621015Y-20803436D01*
X3621015Y-20803436D02*
X3621015Y-20822484D01*
X3754348Y-20622484D02*
X3773396Y-20622484D01*
X3773396Y-20622484D02*
X3792444Y-20632008D01*
X3792444Y-20632008D02*
X3801967Y-20641531D01*
X3801967Y-20641531D02*
X3811491Y-20660579D01*
X3811491Y-20660579D02*
X3821015Y-20698674D01*
X3821015Y-20698674D02*
X3821015Y-20746293D01*
X3821015Y-20746293D02*
X3811491Y-20784389D01*
X3811491Y-20784389D02*
X3801967Y-20803436D01*
X3801967Y-20803436D02*
X3792444Y-20812960D01*
X3792444Y-20812960D02*
X3773396Y-20822484D01*
X3773396Y-20822484D02*
X3754348Y-20822484D01*
X3754348Y-20822484D02*
X3735301Y-20812960D01*
X3735301Y-20812960D02*
X3725777Y-20803436D01*
X3725777Y-20803436D02*
X3716253Y-20784389D01*
X3716253Y-20784389D02*
X3706729Y-20746293D01*
X3706729Y-20746293D02*
X3706729Y-20698674D01*
X3706729Y-20698674D02*
X3716253Y-20660579D01*
X3716253Y-20660579D02*
X3725777Y-20641531D01*
X3725777Y-20641531D02*
X3735301Y-20632008D01*
X3735301Y-20632008D02*
X3754348Y-20622484D01*
X3897206Y-20641531D02*
X3906729Y-20632008D01*
X3906729Y-20632008D02*
X3925777Y-20622484D01*
X3925777Y-20622484D02*
X3973396Y-20622484D01*
X3973396Y-20622484D02*
X3992444Y-20632008D01*
X3992444Y-20632008D02*
X4001967Y-20641531D01*
X4001967Y-20641531D02*
X4011491Y-20660579D01*
X4011491Y-20660579D02*
X4011491Y-20679627D01*
X4011491Y-20679627D02*
X4001967Y-20708198D01*
X4001967Y-20708198D02*
X3887682Y-20822484D01*
X3887682Y-20822484D02*
X4011491Y-20822484D01*
X4078158Y-20622484D02*
X4211491Y-20622484D01*
X4211491Y-20622484D02*
X4125777Y-20822484D01*
X4373396Y-20622484D02*
X4335301Y-20622484D01*
X4335301Y-20622484D02*
X4316253Y-20632008D01*
X4316253Y-20632008D02*
X4306729Y-20641531D01*
X4306729Y-20641531D02*
X4287682Y-20670103D01*
X4287682Y-20670103D02*
X4278158Y-20708198D01*
X4278158Y-20708198D02*
X4278158Y-20784389D01*
X4278158Y-20784389D02*
X4287682Y-20803436D01*
X4287682Y-20803436D02*
X4297206Y-20812960D01*
X4297206Y-20812960D02*
X4316253Y-20822484D01*
X4316253Y-20822484D02*
X4354349Y-20822484D01*
X4354349Y-20822484D02*
X4373396Y-20812960D01*
X4373396Y-20812960D02*
X4382920Y-20803436D01*
X4382920Y-20803436D02*
X4392444Y-20784389D01*
X4392444Y-20784389D02*
X4392444Y-20736770D01*
X4392444Y-20736770D02*
X4382920Y-20717722D01*
X4382920Y-20717722D02*
X4373396Y-20708198D01*
X4373396Y-20708198D02*
X4354349Y-20698674D01*
X4354349Y-20698674D02*
X4316253Y-20698674D01*
X4316253Y-20698674D02*
X4297206Y-20708198D01*
X4297206Y-20708198D02*
X4287682Y-20717722D01*
X4287682Y-20717722D02*
X4278158Y-20736770D01*
X4468634Y-20622484D02*
X4468634Y-20660579D01*
X4544825Y-20622484D02*
X4544825Y-20660579D01*
X4840063Y-20898674D02*
X4830539Y-20889150D01*
X4830539Y-20889150D02*
X4811491Y-20860579D01*
X4811491Y-20860579D02*
X4801968Y-20841531D01*
X4801968Y-20841531D02*
X4792444Y-20812960D01*
X4792444Y-20812960D02*
X4782920Y-20765341D01*
X4782920Y-20765341D02*
X4782920Y-20727246D01*
X4782920Y-20727246D02*
X4792444Y-20679627D01*
X4792444Y-20679627D02*
X4801968Y-20651055D01*
X4801968Y-20651055D02*
X4811491Y-20632008D01*
X4811491Y-20632008D02*
X4830539Y-20603436D01*
X4830539Y-20603436D02*
X4840063Y-20593912D01*
X5001968Y-20622484D02*
X4963872Y-20622484D01*
X4963872Y-20622484D02*
X4944825Y-20632008D01*
X4944825Y-20632008D02*
X4935301Y-20641531D01*
X4935301Y-20641531D02*
X4916253Y-20670103D01*
X4916253Y-20670103D02*
X4906730Y-20708198D01*
X4906730Y-20708198D02*
X4906730Y-20784389D01*
X4906730Y-20784389D02*
X4916253Y-20803436D01*
X4916253Y-20803436D02*
X4925777Y-20812960D01*
X4925777Y-20812960D02*
X4944825Y-20822484D01*
X4944825Y-20822484D02*
X4982920Y-20822484D01*
X4982920Y-20822484D02*
X5001968Y-20812960D01*
X5001968Y-20812960D02*
X5011491Y-20803436D01*
X5011491Y-20803436D02*
X5021015Y-20784389D01*
X5021015Y-20784389D02*
X5021015Y-20736770D01*
X5021015Y-20736770D02*
X5011491Y-20717722D01*
X5011491Y-20717722D02*
X5001968Y-20708198D01*
X5001968Y-20708198D02*
X4982920Y-20698674D01*
X4982920Y-20698674D02*
X4944825Y-20698674D01*
X4944825Y-20698674D02*
X4925777Y-20708198D01*
X4925777Y-20708198D02*
X4916253Y-20717722D01*
X4916253Y-20717722D02*
X4906730Y-20736770D01*
X5192444Y-20689150D02*
X5192444Y-20822484D01*
X5144825Y-20612960D02*
X5097206Y-20755817D01*
X5097206Y-20755817D02*
X5221015Y-20755817D01*
X5449587Y-20822484D02*
X5449587Y-20622484D01*
X5535301Y-20822484D02*
X5535301Y-20717722D01*
X5535301Y-20717722D02*
X5525777Y-20698674D01*
X5525777Y-20698674D02*
X5506730Y-20689150D01*
X5506730Y-20689150D02*
X5478158Y-20689150D01*
X5478158Y-20689150D02*
X5459111Y-20698674D01*
X5459111Y-20698674D02*
X5449587Y-20708198D01*
X5659110Y-20822484D02*
X5640063Y-20812960D01*
X5640063Y-20812960D02*
X5630539Y-20803436D01*
X5630539Y-20803436D02*
X5621015Y-20784389D01*
X5621015Y-20784389D02*
X5621015Y-20727246D01*
X5621015Y-20727246D02*
X5630539Y-20708198D01*
X5630539Y-20708198D02*
X5640063Y-20698674D01*
X5640063Y-20698674D02*
X5659110Y-20689150D01*
X5659110Y-20689150D02*
X5687682Y-20689150D01*
X5687682Y-20689150D02*
X5706730Y-20698674D01*
X5706730Y-20698674D02*
X5716253Y-20708198D01*
X5716253Y-20708198D02*
X5725777Y-20727246D01*
X5725777Y-20727246D02*
X5725777Y-20784389D01*
X5725777Y-20784389D02*
X5716253Y-20803436D01*
X5716253Y-20803436D02*
X5706730Y-20812960D01*
X5706730Y-20812960D02*
X5687682Y-20822484D01*
X5687682Y-20822484D02*
X5659110Y-20822484D01*
X5840063Y-20822484D02*
X5821015Y-20812960D01*
X5821015Y-20812960D02*
X5811491Y-20793912D01*
X5811491Y-20793912D02*
X5811491Y-20622484D01*
X5992444Y-20812960D02*
X5973396Y-20822484D01*
X5973396Y-20822484D02*
X5935301Y-20822484D01*
X5935301Y-20822484D02*
X5916253Y-20812960D01*
X5916253Y-20812960D02*
X5906730Y-20793912D01*
X5906730Y-20793912D02*
X5906730Y-20717722D01*
X5906730Y-20717722D02*
X5916253Y-20698674D01*
X5916253Y-20698674D02*
X5935301Y-20689150D01*
X5935301Y-20689150D02*
X5973396Y-20689150D01*
X5973396Y-20689150D02*
X5992444Y-20698674D01*
X5992444Y-20698674D02*
X6001968Y-20717722D01*
X6001968Y-20717722D02*
X6001968Y-20736770D01*
X6001968Y-20736770D02*
X5906730Y-20755817D01*
X6078158Y-20812960D02*
X6097206Y-20822484D01*
X6097206Y-20822484D02*
X6135301Y-20822484D01*
X6135301Y-20822484D02*
X6154349Y-20812960D01*
X6154349Y-20812960D02*
X6163872Y-20793912D01*
X6163872Y-20793912D02*
X6163872Y-20784389D01*
X6163872Y-20784389D02*
X6154349Y-20765341D01*
X6154349Y-20765341D02*
X6135301Y-20755817D01*
X6135301Y-20755817D02*
X6106730Y-20755817D01*
X6106730Y-20755817D02*
X6087682Y-20746293D01*
X6087682Y-20746293D02*
X6078158Y-20727246D01*
X6078158Y-20727246D02*
X6078158Y-20717722D01*
X6078158Y-20717722D02*
X6087682Y-20698674D01*
X6087682Y-20698674D02*
X6106730Y-20689150D01*
X6106730Y-20689150D02*
X6135301Y-20689150D01*
X6135301Y-20689150D02*
X6154349Y-20698674D01*
X6230539Y-20898674D02*
X6240063Y-20889150D01*
X6240063Y-20889150D02*
X6259111Y-20860579D01*
X6259111Y-20860579D02*
X6268634Y-20841531D01*
X6268634Y-20841531D02*
X6278158Y-20812960D01*
X6278158Y-20812960D02*
X6287682Y-20765341D01*
X6287682Y-20765341D02*
X6287682Y-20727246D01*
X6287682Y-20727246D02*
X6278158Y-20679627D01*
X6278158Y-20679627D02*
X6268634Y-20651055D01*
X6268634Y-20651055D02*
X6259111Y-20632008D01*
X6259111Y-20632008D02*
X6240063Y-20603436D01*
X6240063Y-20603436D02*
X6230539Y-20593912D01*
D15*
X1253285Y-21023285D02*
X1253285Y-20966716D01*
X1196716Y-20966716D01*
X1196716Y-21023285D01*
X1253285Y-21023285D01*
D11*
X1563872Y-20886484D02*
X1582920Y-20886484D01*
X1582920Y-20886484D02*
X1601967Y-20896008D01*
X1601967Y-20896008D02*
X1611491Y-20905531D01*
X1611491Y-20905531D02*
X1621015Y-20924579D01*
X1621015Y-20924579D02*
X1630539Y-20962674D01*
X1630539Y-20962674D02*
X1630539Y-21010293D01*
X1630539Y-21010293D02*
X1621015Y-21048389D01*
X1621015Y-21048389D02*
X1611491Y-21067436D01*
X1611491Y-21067436D02*
X1601967Y-21076960D01*
X1601967Y-21076960D02*
X1582920Y-21086484D01*
X1582920Y-21086484D02*
X1563872Y-21086484D01*
X1563872Y-21086484D02*
X1544824Y-21076960D01*
X1544824Y-21076960D02*
X1535301Y-21067436D01*
X1535301Y-21067436D02*
X1525777Y-21048389D01*
X1525777Y-21048389D02*
X1516253Y-21010293D01*
X1516253Y-21010293D02*
X1516253Y-20962674D01*
X1516253Y-20962674D02*
X1525777Y-20924579D01*
X1525777Y-20924579D02*
X1535301Y-20905531D01*
X1535301Y-20905531D02*
X1544824Y-20896008D01*
X1544824Y-20896008D02*
X1563872Y-20886484D01*
X1716253Y-21067436D02*
X1725777Y-21076960D01*
X1725777Y-21076960D02*
X1716253Y-21086484D01*
X1716253Y-21086484D02*
X1706729Y-21076960D01*
X1706729Y-21076960D02*
X1716253Y-21067436D01*
X1716253Y-21067436D02*
X1716253Y-21086484D01*
X1840062Y-20972198D02*
X1821015Y-20962674D01*
X1821015Y-20962674D02*
X1811491Y-20953150D01*
X1811491Y-20953150D02*
X1801967Y-20934103D01*
X1801967Y-20934103D02*
X1801967Y-20924579D01*
X1801967Y-20924579D02*
X1811491Y-20905531D01*
X1811491Y-20905531D02*
X1821015Y-20896008D01*
X1821015Y-20896008D02*
X1840062Y-20886484D01*
X1840062Y-20886484D02*
X1878158Y-20886484D01*
X1878158Y-20886484D02*
X1897205Y-20896008D01*
X1897205Y-20896008D02*
X1906729Y-20905531D01*
X1906729Y-20905531D02*
X1916253Y-20924579D01*
X1916253Y-20924579D02*
X1916253Y-20934103D01*
X1916253Y-20934103D02*
X1906729Y-20953150D01*
X1906729Y-20953150D02*
X1897205Y-20962674D01*
X1897205Y-20962674D02*
X1878158Y-20972198D01*
X1878158Y-20972198D02*
X1840062Y-20972198D01*
X1840062Y-20972198D02*
X1821015Y-20981722D01*
X1821015Y-20981722D02*
X1811491Y-20991246D01*
X1811491Y-20991246D02*
X1801967Y-21010293D01*
X1801967Y-21010293D02*
X1801967Y-21048389D01*
X1801967Y-21048389D02*
X1811491Y-21067436D01*
X1811491Y-21067436D02*
X1821015Y-21076960D01*
X1821015Y-21076960D02*
X1840062Y-21086484D01*
X1840062Y-21086484D02*
X1878158Y-21086484D01*
X1878158Y-21086484D02*
X1897205Y-21076960D01*
X1897205Y-21076960D02*
X1906729Y-21067436D01*
X1906729Y-21067436D02*
X1916253Y-21048389D01*
X1916253Y-21048389D02*
X1916253Y-21010293D01*
X1916253Y-21010293D02*
X1906729Y-20991246D01*
X1906729Y-20991246D02*
X1897205Y-20981722D01*
X1897205Y-20981722D02*
X1878158Y-20972198D01*
X2040062Y-20886484D02*
X2059110Y-20886484D01*
X2059110Y-20886484D02*
X2078158Y-20896008D01*
X2078158Y-20896008D02*
X2087682Y-20905531D01*
X2087682Y-20905531D02*
X2097205Y-20924579D01*
X2097205Y-20924579D02*
X2106729Y-20962674D01*
X2106729Y-20962674D02*
X2106729Y-21010293D01*
X2106729Y-21010293D02*
X2097205Y-21048389D01*
X2097205Y-21048389D02*
X2087682Y-21067436D01*
X2087682Y-21067436D02*
X2078158Y-21076960D01*
X2078158Y-21076960D02*
X2059110Y-21086484D01*
X2059110Y-21086484D02*
X2040062Y-21086484D01*
X2040062Y-21086484D02*
X2021015Y-21076960D01*
X2021015Y-21076960D02*
X2011491Y-21067436D01*
X2011491Y-21067436D02*
X2001967Y-21048389D01*
X2001967Y-21048389D02*
X1992443Y-21010293D01*
X1992443Y-21010293D02*
X1992443Y-20962674D01*
X1992443Y-20962674D02*
X2001967Y-20924579D01*
X2001967Y-20924579D02*
X2011491Y-20905531D01*
X2011491Y-20905531D02*
X2021015Y-20896008D01*
X2021015Y-20896008D02*
X2040062Y-20886484D01*
X2230539Y-20886484D02*
X2249586Y-20886484D01*
X2249586Y-20886484D02*
X2268634Y-20896008D01*
X2268634Y-20896008D02*
X2278158Y-20905531D01*
X2278158Y-20905531D02*
X2287682Y-20924579D01*
X2287682Y-20924579D02*
X2297205Y-20962674D01*
X2297205Y-20962674D02*
X2297205Y-21010293D01*
X2297205Y-21010293D02*
X2287682Y-21048389D01*
X2287682Y-21048389D02*
X2278158Y-21067436D01*
X2278158Y-21067436D02*
X2268634Y-21076960D01*
X2268634Y-21076960D02*
X2249586Y-21086484D01*
X2249586Y-21086484D02*
X2230539Y-21086484D01*
X2230539Y-21086484D02*
X2211491Y-21076960D01*
X2211491Y-21076960D02*
X2201967Y-21067436D01*
X2201967Y-21067436D02*
X2192444Y-21048389D01*
X2192444Y-21048389D02*
X2182920Y-21010293D01*
X2182920Y-21010293D02*
X2182920Y-20962674D01*
X2182920Y-20962674D02*
X2192444Y-20924579D01*
X2192444Y-20924579D02*
X2201967Y-20905531D01*
X2201967Y-20905531D02*
X2211491Y-20896008D01*
X2211491Y-20896008D02*
X2230539Y-20886484D01*
X2382920Y-21086484D02*
X2382920Y-20953150D01*
X2382920Y-20972198D02*
X2392444Y-20962674D01*
X2392444Y-20962674D02*
X2411491Y-20953150D01*
X2411491Y-20953150D02*
X2440063Y-20953150D01*
X2440063Y-20953150D02*
X2459110Y-20962674D01*
X2459110Y-20962674D02*
X2468634Y-20981722D01*
X2468634Y-20981722D02*
X2468634Y-21086484D01*
X2468634Y-20981722D02*
X2478158Y-20962674D01*
X2478158Y-20962674D02*
X2497205Y-20953150D01*
X2497205Y-20953150D02*
X2525777Y-20953150D01*
X2525777Y-20953150D02*
X2544825Y-20962674D01*
X2544825Y-20962674D02*
X2554348Y-20981722D01*
X2554348Y-20981722D02*
X2554348Y-21086484D01*
X2649586Y-21086484D02*
X2649586Y-20953150D01*
X2649586Y-20972198D02*
X2659110Y-20962674D01*
X2659110Y-20962674D02*
X2678158Y-20953150D01*
X2678158Y-20953150D02*
X2706729Y-20953150D01*
X2706729Y-20953150D02*
X2725777Y-20962674D01*
X2725777Y-20962674D02*
X2735301Y-20981722D01*
X2735301Y-20981722D02*
X2735301Y-21086484D01*
X2735301Y-20981722D02*
X2744825Y-20962674D01*
X2744825Y-20962674D02*
X2763872Y-20953150D01*
X2763872Y-20953150D02*
X2792444Y-20953150D01*
X2792444Y-20953150D02*
X2811491Y-20962674D01*
X2811491Y-20962674D02*
X2821015Y-20981722D01*
X2821015Y-20981722D02*
X2821015Y-21086484D01*
X3211491Y-20876960D02*
X3040063Y-21134103D01*
X3468634Y-20886484D02*
X3487682Y-20886484D01*
X3487682Y-20886484D02*
X3506729Y-20896008D01*
X3506729Y-20896008D02*
X3516253Y-20905531D01*
X3516253Y-20905531D02*
X3525777Y-20924579D01*
X3525777Y-20924579D02*
X3535301Y-20962674D01*
X3535301Y-20962674D02*
X3535301Y-21010293D01*
X3535301Y-21010293D02*
X3525777Y-21048389D01*
X3525777Y-21048389D02*
X3516253Y-21067436D01*
X3516253Y-21067436D02*
X3506729Y-21076960D01*
X3506729Y-21076960D02*
X3487682Y-21086484D01*
X3487682Y-21086484D02*
X3468634Y-21086484D01*
X3468634Y-21086484D02*
X3449586Y-21076960D01*
X3449586Y-21076960D02*
X3440063Y-21067436D01*
X3440063Y-21067436D02*
X3430539Y-21048389D01*
X3430539Y-21048389D02*
X3421015Y-21010293D01*
X3421015Y-21010293D02*
X3421015Y-20962674D01*
X3421015Y-20962674D02*
X3430539Y-20924579D01*
X3430539Y-20924579D02*
X3440063Y-20905531D01*
X3440063Y-20905531D02*
X3449586Y-20896008D01*
X3449586Y-20896008D02*
X3468634Y-20886484D01*
X3621015Y-21067436D02*
X3630539Y-21076960D01*
X3630539Y-21076960D02*
X3621015Y-21086484D01*
X3621015Y-21086484D02*
X3611491Y-21076960D01*
X3611491Y-21076960D02*
X3621015Y-21067436D01*
X3621015Y-21067436D02*
X3621015Y-21086484D01*
X3754348Y-20886484D02*
X3773396Y-20886484D01*
X3773396Y-20886484D02*
X3792444Y-20896008D01*
X3792444Y-20896008D02*
X3801967Y-20905531D01*
X3801967Y-20905531D02*
X3811491Y-20924579D01*
X3811491Y-20924579D02*
X3821015Y-20962674D01*
X3821015Y-20962674D02*
X3821015Y-21010293D01*
X3821015Y-21010293D02*
X3811491Y-21048389D01*
X3811491Y-21048389D02*
X3801967Y-21067436D01*
X3801967Y-21067436D02*
X3792444Y-21076960D01*
X3792444Y-21076960D02*
X3773396Y-21086484D01*
X3773396Y-21086484D02*
X3754348Y-21086484D01*
X3754348Y-21086484D02*
X3735301Y-21076960D01*
X3735301Y-21076960D02*
X3725777Y-21067436D01*
X3725777Y-21067436D02*
X3716253Y-21048389D01*
X3716253Y-21048389D02*
X3706729Y-21010293D01*
X3706729Y-21010293D02*
X3706729Y-20962674D01*
X3706729Y-20962674D02*
X3716253Y-20924579D01*
X3716253Y-20924579D02*
X3725777Y-20905531D01*
X3725777Y-20905531D02*
X3735301Y-20896008D01*
X3735301Y-20896008D02*
X3754348Y-20886484D01*
X3887682Y-20886484D02*
X4011491Y-20886484D01*
X4011491Y-20886484D02*
X3944825Y-20962674D01*
X3944825Y-20962674D02*
X3973396Y-20962674D01*
X3973396Y-20962674D02*
X3992444Y-20972198D01*
X3992444Y-20972198D02*
X4001967Y-20981722D01*
X4001967Y-20981722D02*
X4011491Y-21000770D01*
X4011491Y-21000770D02*
X4011491Y-21048389D01*
X4011491Y-21048389D02*
X4001967Y-21067436D01*
X4001967Y-21067436D02*
X3992444Y-21076960D01*
X3992444Y-21076960D02*
X3973396Y-21086484D01*
X3973396Y-21086484D02*
X3916253Y-21086484D01*
X3916253Y-21086484D02*
X3897206Y-21076960D01*
X3897206Y-21076960D02*
X3887682Y-21067436D01*
X4201968Y-21086484D02*
X4087682Y-21086484D01*
X4144825Y-21086484D02*
X4144825Y-20886484D01*
X4144825Y-20886484D02*
X4125777Y-20915055D01*
X4125777Y-20915055D02*
X4106729Y-20934103D01*
X4106729Y-20934103D02*
X4087682Y-20943627D01*
X4382920Y-20886484D02*
X4287682Y-20886484D01*
X4287682Y-20886484D02*
X4278158Y-20981722D01*
X4278158Y-20981722D02*
X4287682Y-20972198D01*
X4287682Y-20972198D02*
X4306729Y-20962674D01*
X4306729Y-20962674D02*
X4354349Y-20962674D01*
X4354349Y-20962674D02*
X4373396Y-20972198D01*
X4373396Y-20972198D02*
X4382920Y-20981722D01*
X4382920Y-20981722D02*
X4392444Y-21000770D01*
X4392444Y-21000770D02*
X4392444Y-21048389D01*
X4392444Y-21048389D02*
X4382920Y-21067436D01*
X4382920Y-21067436D02*
X4373396Y-21076960D01*
X4373396Y-21076960D02*
X4354349Y-21086484D01*
X4354349Y-21086484D02*
X4306729Y-21086484D01*
X4306729Y-21086484D02*
X4287682Y-21076960D01*
X4287682Y-21076960D02*
X4278158Y-21067436D01*
X4468634Y-20886484D02*
X4468634Y-20924579D01*
X4544825Y-20886484D02*
X4544825Y-20924579D01*
X4840063Y-21162674D02*
X4830539Y-21153150D01*
X4830539Y-21153150D02*
X4811491Y-21124579D01*
X4811491Y-21124579D02*
X4801968Y-21105531D01*
X4801968Y-21105531D02*
X4792444Y-21076960D01*
X4792444Y-21076960D02*
X4782920Y-21029341D01*
X4782920Y-21029341D02*
X4782920Y-20991246D01*
X4782920Y-20991246D02*
X4792444Y-20943627D01*
X4792444Y-20943627D02*
X4801968Y-20915055D01*
X4801968Y-20915055D02*
X4811491Y-20896008D01*
X4811491Y-20896008D02*
X4830539Y-20867436D01*
X4830539Y-20867436D02*
X4840063Y-20857912D01*
X5021015Y-21086484D02*
X4906730Y-21086484D01*
X4963872Y-21086484D02*
X4963872Y-20886484D01*
X4963872Y-20886484D02*
X4944825Y-20915055D01*
X4944825Y-20915055D02*
X4925777Y-20934103D01*
X4925777Y-20934103D02*
X4906730Y-20943627D01*
X5192444Y-20886484D02*
X5154349Y-20886484D01*
X5154349Y-20886484D02*
X5135301Y-20896008D01*
X5135301Y-20896008D02*
X5125777Y-20905531D01*
X5125777Y-20905531D02*
X5106730Y-20934103D01*
X5106730Y-20934103D02*
X5097206Y-20972198D01*
X5097206Y-20972198D02*
X5097206Y-21048389D01*
X5097206Y-21048389D02*
X5106730Y-21067436D01*
X5106730Y-21067436D02*
X5116253Y-21076960D01*
X5116253Y-21076960D02*
X5135301Y-21086484D01*
X5135301Y-21086484D02*
X5173396Y-21086484D01*
X5173396Y-21086484D02*
X5192444Y-21076960D01*
X5192444Y-21076960D02*
X5201968Y-21067436D01*
X5201968Y-21067436D02*
X5211491Y-21048389D01*
X5211491Y-21048389D02*
X5211491Y-21000770D01*
X5211491Y-21000770D02*
X5201968Y-20981722D01*
X5201968Y-20981722D02*
X5192444Y-20972198D01*
X5192444Y-20972198D02*
X5173396Y-20962674D01*
X5173396Y-20962674D02*
X5135301Y-20962674D01*
X5135301Y-20962674D02*
X5116253Y-20972198D01*
X5116253Y-20972198D02*
X5106730Y-20981722D01*
X5106730Y-20981722D02*
X5097206Y-21000770D01*
X5449587Y-21086484D02*
X5449587Y-20886484D01*
X5535301Y-21086484D02*
X5535301Y-20981722D01*
X5535301Y-20981722D02*
X5525777Y-20962674D01*
X5525777Y-20962674D02*
X5506730Y-20953150D01*
X5506730Y-20953150D02*
X5478158Y-20953150D01*
X5478158Y-20953150D02*
X5459111Y-20962674D01*
X5459111Y-20962674D02*
X5449587Y-20972198D01*
X5659110Y-21086484D02*
X5640063Y-21076960D01*
X5640063Y-21076960D02*
X5630539Y-21067436D01*
X5630539Y-21067436D02*
X5621015Y-21048389D01*
X5621015Y-21048389D02*
X5621015Y-20991246D01*
X5621015Y-20991246D02*
X5630539Y-20972198D01*
X5630539Y-20972198D02*
X5640063Y-20962674D01*
X5640063Y-20962674D02*
X5659110Y-20953150D01*
X5659110Y-20953150D02*
X5687682Y-20953150D01*
X5687682Y-20953150D02*
X5706730Y-20962674D01*
X5706730Y-20962674D02*
X5716253Y-20972198D01*
X5716253Y-20972198D02*
X5725777Y-20991246D01*
X5725777Y-20991246D02*
X5725777Y-21048389D01*
X5725777Y-21048389D02*
X5716253Y-21067436D01*
X5716253Y-21067436D02*
X5706730Y-21076960D01*
X5706730Y-21076960D02*
X5687682Y-21086484D01*
X5687682Y-21086484D02*
X5659110Y-21086484D01*
X5840063Y-21086484D02*
X5821015Y-21076960D01*
X5821015Y-21076960D02*
X5811491Y-21057912D01*
X5811491Y-21057912D02*
X5811491Y-20886484D01*
X5992444Y-21076960D02*
X5973396Y-21086484D01*
X5973396Y-21086484D02*
X5935301Y-21086484D01*
X5935301Y-21086484D02*
X5916253Y-21076960D01*
X5916253Y-21076960D02*
X5906730Y-21057912D01*
X5906730Y-21057912D02*
X5906730Y-20981722D01*
X5906730Y-20981722D02*
X5916253Y-20962674D01*
X5916253Y-20962674D02*
X5935301Y-20953150D01*
X5935301Y-20953150D02*
X5973396Y-20953150D01*
X5973396Y-20953150D02*
X5992444Y-20962674D01*
X5992444Y-20962674D02*
X6001968Y-20981722D01*
X6001968Y-20981722D02*
X6001968Y-21000770D01*
X6001968Y-21000770D02*
X5906730Y-21019817D01*
X6078158Y-21076960D02*
X6097206Y-21086484D01*
X6097206Y-21086484D02*
X6135301Y-21086484D01*
X6135301Y-21086484D02*
X6154349Y-21076960D01*
X6154349Y-21076960D02*
X6163872Y-21057912D01*
X6163872Y-21057912D02*
X6163872Y-21048389D01*
X6163872Y-21048389D02*
X6154349Y-21029341D01*
X6154349Y-21029341D02*
X6135301Y-21019817D01*
X6135301Y-21019817D02*
X6106730Y-21019817D01*
X6106730Y-21019817D02*
X6087682Y-21010293D01*
X6087682Y-21010293D02*
X6078158Y-20991246D01*
X6078158Y-20991246D02*
X6078158Y-20981722D01*
X6078158Y-20981722D02*
X6087682Y-20962674D01*
X6087682Y-20962674D02*
X6106730Y-20953150D01*
X6106730Y-20953150D02*
X6135301Y-20953150D01*
X6135301Y-20953150D02*
X6154349Y-20962674D01*
X6230539Y-21162674D02*
X6240063Y-21153150D01*
X6240063Y-21153150D02*
X6259111Y-21124579D01*
X6259111Y-21124579D02*
X6268634Y-21105531D01*
X6268634Y-21105531D02*
X6278158Y-21076960D01*
X6278158Y-21076960D02*
X6287682Y-21029341D01*
X6287682Y-21029341D02*
X6287682Y-20991246D01*
X6287682Y-20991246D02*
X6278158Y-20943627D01*
X6278158Y-20943627D02*
X6268634Y-20915055D01*
X6268634Y-20915055D02*
X6259111Y-20896008D01*
X6259111Y-20896008D02*
X6240063Y-20867436D01*
X6240063Y-20867436D02*
X6230539Y-20857912D01*
D16*
X1220000Y-21304000D02*
X1265000Y-21259000D01*
X1220000Y-21214000D01*
X1175000Y-21259000D01*
X1220000Y-21304000D01*
D11*
X1563872Y-21150484D02*
X1582920Y-21150484D01*
X1582920Y-21150484D02*
X1601967Y-21160008D01*
X1601967Y-21160008D02*
X1611491Y-21169531D01*
X1611491Y-21169531D02*
X1621015Y-21188579D01*
X1621015Y-21188579D02*
X1630539Y-21226674D01*
X1630539Y-21226674D02*
X1630539Y-21274293D01*
X1630539Y-21274293D02*
X1621015Y-21312389D01*
X1621015Y-21312389D02*
X1611491Y-21331436D01*
X1611491Y-21331436D02*
X1601967Y-21340960D01*
X1601967Y-21340960D02*
X1582920Y-21350484D01*
X1582920Y-21350484D02*
X1563872Y-21350484D01*
X1563872Y-21350484D02*
X1544824Y-21340960D01*
X1544824Y-21340960D02*
X1535301Y-21331436D01*
X1535301Y-21331436D02*
X1525777Y-21312389D01*
X1525777Y-21312389D02*
X1516253Y-21274293D01*
X1516253Y-21274293D02*
X1516253Y-21226674D01*
X1516253Y-21226674D02*
X1525777Y-21188579D01*
X1525777Y-21188579D02*
X1535301Y-21169531D01*
X1535301Y-21169531D02*
X1544824Y-21160008D01*
X1544824Y-21160008D02*
X1563872Y-21150484D01*
X1716253Y-21331436D02*
X1725777Y-21340960D01*
X1725777Y-21340960D02*
X1716253Y-21350484D01*
X1716253Y-21350484D02*
X1706729Y-21340960D01*
X1706729Y-21340960D02*
X1716253Y-21331436D01*
X1716253Y-21331436D02*
X1716253Y-21350484D01*
X1821015Y-21350484D02*
X1859110Y-21350484D01*
X1859110Y-21350484D02*
X1878158Y-21340960D01*
X1878158Y-21340960D02*
X1887682Y-21331436D01*
X1887682Y-21331436D02*
X1906729Y-21302865D01*
X1906729Y-21302865D02*
X1916253Y-21264770D01*
X1916253Y-21264770D02*
X1916253Y-21188579D01*
X1916253Y-21188579D02*
X1906729Y-21169531D01*
X1906729Y-21169531D02*
X1897205Y-21160008D01*
X1897205Y-21160008D02*
X1878158Y-21150484D01*
X1878158Y-21150484D02*
X1840062Y-21150484D01*
X1840062Y-21150484D02*
X1821015Y-21160008D01*
X1821015Y-21160008D02*
X1811491Y-21169531D01*
X1811491Y-21169531D02*
X1801967Y-21188579D01*
X1801967Y-21188579D02*
X1801967Y-21236198D01*
X1801967Y-21236198D02*
X1811491Y-21255246D01*
X1811491Y-21255246D02*
X1821015Y-21264770D01*
X1821015Y-21264770D02*
X1840062Y-21274293D01*
X1840062Y-21274293D02*
X1878158Y-21274293D01*
X1878158Y-21274293D02*
X1897205Y-21264770D01*
X1897205Y-21264770D02*
X1906729Y-21255246D01*
X1906729Y-21255246D02*
X1916253Y-21236198D01*
X2040062Y-21150484D02*
X2059110Y-21150484D01*
X2059110Y-21150484D02*
X2078158Y-21160008D01*
X2078158Y-21160008D02*
X2087682Y-21169531D01*
X2087682Y-21169531D02*
X2097205Y-21188579D01*
X2097205Y-21188579D02*
X2106729Y-21226674D01*
X2106729Y-21226674D02*
X2106729Y-21274293D01*
X2106729Y-21274293D02*
X2097205Y-21312389D01*
X2097205Y-21312389D02*
X2087682Y-21331436D01*
X2087682Y-21331436D02*
X2078158Y-21340960D01*
X2078158Y-21340960D02*
X2059110Y-21350484D01*
X2059110Y-21350484D02*
X2040062Y-21350484D01*
X2040062Y-21350484D02*
X2021015Y-21340960D01*
X2021015Y-21340960D02*
X2011491Y-21331436D01*
X2011491Y-21331436D02*
X2001967Y-21312389D01*
X2001967Y-21312389D02*
X1992443Y-21274293D01*
X1992443Y-21274293D02*
X1992443Y-21226674D01*
X1992443Y-21226674D02*
X2001967Y-21188579D01*
X2001967Y-21188579D02*
X2011491Y-21169531D01*
X2011491Y-21169531D02*
X2021015Y-21160008D01*
X2021015Y-21160008D02*
X2040062Y-21150484D01*
X2230539Y-21150484D02*
X2249586Y-21150484D01*
X2249586Y-21150484D02*
X2268634Y-21160008D01*
X2268634Y-21160008D02*
X2278158Y-21169531D01*
X2278158Y-21169531D02*
X2287682Y-21188579D01*
X2287682Y-21188579D02*
X2297205Y-21226674D01*
X2297205Y-21226674D02*
X2297205Y-21274293D01*
X2297205Y-21274293D02*
X2287682Y-21312389D01*
X2287682Y-21312389D02*
X2278158Y-21331436D01*
X2278158Y-21331436D02*
X2268634Y-21340960D01*
X2268634Y-21340960D02*
X2249586Y-21350484D01*
X2249586Y-21350484D02*
X2230539Y-21350484D01*
X2230539Y-21350484D02*
X2211491Y-21340960D01*
X2211491Y-21340960D02*
X2201967Y-21331436D01*
X2201967Y-21331436D02*
X2192444Y-21312389D01*
X2192444Y-21312389D02*
X2182920Y-21274293D01*
X2182920Y-21274293D02*
X2182920Y-21226674D01*
X2182920Y-21226674D02*
X2192444Y-21188579D01*
X2192444Y-21188579D02*
X2201967Y-21169531D01*
X2201967Y-21169531D02*
X2211491Y-21160008D01*
X2211491Y-21160008D02*
X2230539Y-21150484D01*
X2382920Y-21350484D02*
X2382920Y-21217150D01*
X2382920Y-21236198D02*
X2392444Y-21226674D01*
X2392444Y-21226674D02*
X2411491Y-21217150D01*
X2411491Y-21217150D02*
X2440063Y-21217150D01*
X2440063Y-21217150D02*
X2459110Y-21226674D01*
X2459110Y-21226674D02*
X2468634Y-21245722D01*
X2468634Y-21245722D02*
X2468634Y-21350484D01*
X2468634Y-21245722D02*
X2478158Y-21226674D01*
X2478158Y-21226674D02*
X2497205Y-21217150D01*
X2497205Y-21217150D02*
X2525777Y-21217150D01*
X2525777Y-21217150D02*
X2544825Y-21226674D01*
X2544825Y-21226674D02*
X2554348Y-21245722D01*
X2554348Y-21245722D02*
X2554348Y-21350484D01*
X2649586Y-21350484D02*
X2649586Y-21217150D01*
X2649586Y-21236198D02*
X2659110Y-21226674D01*
X2659110Y-21226674D02*
X2678158Y-21217150D01*
X2678158Y-21217150D02*
X2706729Y-21217150D01*
X2706729Y-21217150D02*
X2725777Y-21226674D01*
X2725777Y-21226674D02*
X2735301Y-21245722D01*
X2735301Y-21245722D02*
X2735301Y-21350484D01*
X2735301Y-21245722D02*
X2744825Y-21226674D01*
X2744825Y-21226674D02*
X2763872Y-21217150D01*
X2763872Y-21217150D02*
X2792444Y-21217150D01*
X2792444Y-21217150D02*
X2811491Y-21226674D01*
X2811491Y-21226674D02*
X2821015Y-21245722D01*
X2821015Y-21245722D02*
X2821015Y-21350484D01*
X3211491Y-21140960D02*
X3040063Y-21398103D01*
X3468634Y-21150484D02*
X3487682Y-21150484D01*
X3487682Y-21150484D02*
X3506729Y-21160008D01*
X3506729Y-21160008D02*
X3516253Y-21169531D01*
X3516253Y-21169531D02*
X3525777Y-21188579D01*
X3525777Y-21188579D02*
X3535301Y-21226674D01*
X3535301Y-21226674D02*
X3535301Y-21274293D01*
X3535301Y-21274293D02*
X3525777Y-21312389D01*
X3525777Y-21312389D02*
X3516253Y-21331436D01*
X3516253Y-21331436D02*
X3506729Y-21340960D01*
X3506729Y-21340960D02*
X3487682Y-21350484D01*
X3487682Y-21350484D02*
X3468634Y-21350484D01*
X3468634Y-21350484D02*
X3449586Y-21340960D01*
X3449586Y-21340960D02*
X3440063Y-21331436D01*
X3440063Y-21331436D02*
X3430539Y-21312389D01*
X3430539Y-21312389D02*
X3421015Y-21274293D01*
X3421015Y-21274293D02*
X3421015Y-21226674D01*
X3421015Y-21226674D02*
X3430539Y-21188579D01*
X3430539Y-21188579D02*
X3440063Y-21169531D01*
X3440063Y-21169531D02*
X3449586Y-21160008D01*
X3449586Y-21160008D02*
X3468634Y-21150484D01*
X3621015Y-21331436D02*
X3630539Y-21340960D01*
X3630539Y-21340960D02*
X3621015Y-21350484D01*
X3621015Y-21350484D02*
X3611491Y-21340960D01*
X3611491Y-21340960D02*
X3621015Y-21331436D01*
X3621015Y-21331436D02*
X3621015Y-21350484D01*
X3754348Y-21150484D02*
X3773396Y-21150484D01*
X3773396Y-21150484D02*
X3792444Y-21160008D01*
X3792444Y-21160008D02*
X3801967Y-21169531D01*
X3801967Y-21169531D02*
X3811491Y-21188579D01*
X3811491Y-21188579D02*
X3821015Y-21226674D01*
X3821015Y-21226674D02*
X3821015Y-21274293D01*
X3821015Y-21274293D02*
X3811491Y-21312389D01*
X3811491Y-21312389D02*
X3801967Y-21331436D01*
X3801967Y-21331436D02*
X3792444Y-21340960D01*
X3792444Y-21340960D02*
X3773396Y-21350484D01*
X3773396Y-21350484D02*
X3754348Y-21350484D01*
X3754348Y-21350484D02*
X3735301Y-21340960D01*
X3735301Y-21340960D02*
X3725777Y-21331436D01*
X3725777Y-21331436D02*
X3716253Y-21312389D01*
X3716253Y-21312389D02*
X3706729Y-21274293D01*
X3706729Y-21274293D02*
X3706729Y-21226674D01*
X3706729Y-21226674D02*
X3716253Y-21188579D01*
X3716253Y-21188579D02*
X3725777Y-21169531D01*
X3725777Y-21169531D02*
X3735301Y-21160008D01*
X3735301Y-21160008D02*
X3754348Y-21150484D01*
X3887682Y-21150484D02*
X4011491Y-21150484D01*
X4011491Y-21150484D02*
X3944825Y-21226674D01*
X3944825Y-21226674D02*
X3973396Y-21226674D01*
X3973396Y-21226674D02*
X3992444Y-21236198D01*
X3992444Y-21236198D02*
X4001967Y-21245722D01*
X4001967Y-21245722D02*
X4011491Y-21264770D01*
X4011491Y-21264770D02*
X4011491Y-21312389D01*
X4011491Y-21312389D02*
X4001967Y-21331436D01*
X4001967Y-21331436D02*
X3992444Y-21340960D01*
X3992444Y-21340960D02*
X3973396Y-21350484D01*
X3973396Y-21350484D02*
X3916253Y-21350484D01*
X3916253Y-21350484D02*
X3897206Y-21340960D01*
X3897206Y-21340960D02*
X3887682Y-21331436D01*
X4192444Y-21150484D02*
X4097206Y-21150484D01*
X4097206Y-21150484D02*
X4087682Y-21245722D01*
X4087682Y-21245722D02*
X4097206Y-21236198D01*
X4097206Y-21236198D02*
X4116253Y-21226674D01*
X4116253Y-21226674D02*
X4163872Y-21226674D01*
X4163872Y-21226674D02*
X4182920Y-21236198D01*
X4182920Y-21236198D02*
X4192444Y-21245722D01*
X4192444Y-21245722D02*
X4201968Y-21264770D01*
X4201968Y-21264770D02*
X4201968Y-21312389D01*
X4201968Y-21312389D02*
X4192444Y-21331436D01*
X4192444Y-21331436D02*
X4182920Y-21340960D01*
X4182920Y-21340960D02*
X4163872Y-21350484D01*
X4163872Y-21350484D02*
X4116253Y-21350484D01*
X4116253Y-21350484D02*
X4097206Y-21340960D01*
X4097206Y-21340960D02*
X4087682Y-21331436D01*
X4373396Y-21217150D02*
X4373396Y-21350484D01*
X4325777Y-21140960D02*
X4278158Y-21283817D01*
X4278158Y-21283817D02*
X4401968Y-21283817D01*
X4468634Y-21150484D02*
X4468634Y-21188579D01*
X4544825Y-21150484D02*
X4544825Y-21188579D01*
X4840063Y-21426674D02*
X4830539Y-21417150D01*
X4830539Y-21417150D02*
X4811491Y-21388579D01*
X4811491Y-21388579D02*
X4801968Y-21369531D01*
X4801968Y-21369531D02*
X4792444Y-21340960D01*
X4792444Y-21340960D02*
X4782920Y-21293341D01*
X4782920Y-21293341D02*
X4782920Y-21255246D01*
X4782920Y-21255246D02*
X4792444Y-21207627D01*
X4792444Y-21207627D02*
X4801968Y-21179055D01*
X4801968Y-21179055D02*
X4811491Y-21160008D01*
X4811491Y-21160008D02*
X4830539Y-21131436D01*
X4830539Y-21131436D02*
X4840063Y-21121912D01*
X4944825Y-21236198D02*
X4925777Y-21226674D01*
X4925777Y-21226674D02*
X4916253Y-21217150D01*
X4916253Y-21217150D02*
X4906730Y-21198103D01*
X4906730Y-21198103D02*
X4906730Y-21188579D01*
X4906730Y-21188579D02*
X4916253Y-21169531D01*
X4916253Y-21169531D02*
X4925777Y-21160008D01*
X4925777Y-21160008D02*
X4944825Y-21150484D01*
X4944825Y-21150484D02*
X4982920Y-21150484D01*
X4982920Y-21150484D02*
X5001968Y-21160008D01*
X5001968Y-21160008D02*
X5011491Y-21169531D01*
X5011491Y-21169531D02*
X5021015Y-21188579D01*
X5021015Y-21188579D02*
X5021015Y-21198103D01*
X5021015Y-21198103D02*
X5011491Y-21217150D01*
X5011491Y-21217150D02*
X5001968Y-21226674D01*
X5001968Y-21226674D02*
X4982920Y-21236198D01*
X4982920Y-21236198D02*
X4944825Y-21236198D01*
X4944825Y-21236198D02*
X4925777Y-21245722D01*
X4925777Y-21245722D02*
X4916253Y-21255246D01*
X4916253Y-21255246D02*
X4906730Y-21274293D01*
X4906730Y-21274293D02*
X4906730Y-21312389D01*
X4906730Y-21312389D02*
X4916253Y-21331436D01*
X4916253Y-21331436D02*
X4925777Y-21340960D01*
X4925777Y-21340960D02*
X4944825Y-21350484D01*
X4944825Y-21350484D02*
X4982920Y-21350484D01*
X4982920Y-21350484D02*
X5001968Y-21340960D01*
X5001968Y-21340960D02*
X5011491Y-21331436D01*
X5011491Y-21331436D02*
X5021015Y-21312389D01*
X5021015Y-21312389D02*
X5021015Y-21274293D01*
X5021015Y-21274293D02*
X5011491Y-21255246D01*
X5011491Y-21255246D02*
X5001968Y-21245722D01*
X5001968Y-21245722D02*
X4982920Y-21236198D01*
X5259111Y-21350484D02*
X5259111Y-21150484D01*
X5344825Y-21350484D02*
X5344825Y-21245722D01*
X5344825Y-21245722D02*
X5335301Y-21226674D01*
X5335301Y-21226674D02*
X5316253Y-21217150D01*
X5316253Y-21217150D02*
X5287682Y-21217150D01*
X5287682Y-21217150D02*
X5268634Y-21226674D01*
X5268634Y-21226674D02*
X5259111Y-21236198D01*
X5468634Y-21350484D02*
X5449587Y-21340960D01*
X5449587Y-21340960D02*
X5440063Y-21331436D01*
X5440063Y-21331436D02*
X5430539Y-21312389D01*
X5430539Y-21312389D02*
X5430539Y-21255246D01*
X5430539Y-21255246D02*
X5440063Y-21236198D01*
X5440063Y-21236198D02*
X5449587Y-21226674D01*
X5449587Y-21226674D02*
X5468634Y-21217150D01*
X5468634Y-21217150D02*
X5497206Y-21217150D01*
X5497206Y-21217150D02*
X5516253Y-21226674D01*
X5516253Y-21226674D02*
X5525777Y-21236198D01*
X5525777Y-21236198D02*
X5535301Y-21255246D01*
X5535301Y-21255246D02*
X5535301Y-21312389D01*
X5535301Y-21312389D02*
X5525777Y-21331436D01*
X5525777Y-21331436D02*
X5516253Y-21340960D01*
X5516253Y-21340960D02*
X5497206Y-21350484D01*
X5497206Y-21350484D02*
X5468634Y-21350484D01*
X5649587Y-21350484D02*
X5630539Y-21340960D01*
X5630539Y-21340960D02*
X5621015Y-21321912D01*
X5621015Y-21321912D02*
X5621015Y-21150484D01*
X5801968Y-21340960D02*
X5782920Y-21350484D01*
X5782920Y-21350484D02*
X5744825Y-21350484D01*
X5744825Y-21350484D02*
X5725777Y-21340960D01*
X5725777Y-21340960D02*
X5716253Y-21321912D01*
X5716253Y-21321912D02*
X5716253Y-21245722D01*
X5716253Y-21245722D02*
X5725777Y-21226674D01*
X5725777Y-21226674D02*
X5744825Y-21217150D01*
X5744825Y-21217150D02*
X5782920Y-21217150D01*
X5782920Y-21217150D02*
X5801968Y-21226674D01*
X5801968Y-21226674D02*
X5811491Y-21245722D01*
X5811491Y-21245722D02*
X5811491Y-21264770D01*
X5811491Y-21264770D02*
X5716253Y-21283817D01*
X5887682Y-21340960D02*
X5906730Y-21350484D01*
X5906730Y-21350484D02*
X5944825Y-21350484D01*
X5944825Y-21350484D02*
X5963872Y-21340960D01*
X5963872Y-21340960D02*
X5973396Y-21321912D01*
X5973396Y-21321912D02*
X5973396Y-21312389D01*
X5973396Y-21312389D02*
X5963872Y-21293341D01*
X5963872Y-21293341D02*
X5944825Y-21283817D01*
X5944825Y-21283817D02*
X5916253Y-21283817D01*
X5916253Y-21283817D02*
X5897206Y-21274293D01*
X5897206Y-21274293D02*
X5887682Y-21255246D01*
X5887682Y-21255246D02*
X5887682Y-21245722D01*
X5887682Y-21245722D02*
X5897206Y-21226674D01*
X5897206Y-21226674D02*
X5916253Y-21217150D01*
X5916253Y-21217150D02*
X5944825Y-21217150D01*
X5944825Y-21217150D02*
X5963872Y-21226674D01*
X6040063Y-21426674D02*
X6049587Y-21417150D01*
X6049587Y-21417150D02*
X6068634Y-21388579D01*
X6068634Y-21388579D02*
X6078158Y-21369531D01*
X6078158Y-21369531D02*
X6087682Y-21340960D01*
X6087682Y-21340960D02*
X6097206Y-21293341D01*
X6097206Y-21293341D02*
X6097206Y-21255246D01*
X6097206Y-21255246D02*
X6087682Y-21207627D01*
X6087682Y-21207627D02*
X6078158Y-21179055D01*
X6078158Y-21179055D02*
X6068634Y-21160008D01*
X6068634Y-21160008D02*
X6049587Y-21131436D01*
X6049587Y-21131436D02*
X6040063Y-21121912D01*
D10*
X1165000Y-21473000D02*
X1265000Y-21573000D01*
X1265000Y-21473000D02*
X1165000Y-21573000D01*
X1265000Y-21523000D02*
G75*
G03*
X1265000Y-21523000I-50000J0D01*
G01*
D11*
X1630539Y-21614484D02*
X1516253Y-21614484D01*
X1573396Y-21614484D02*
X1573396Y-21414484D01*
X1573396Y-21414484D02*
X1554348Y-21443055D01*
X1554348Y-21443055D02*
X1535301Y-21462103D01*
X1535301Y-21462103D02*
X1516253Y-21471627D01*
X1716253Y-21595436D02*
X1725777Y-21604960D01*
X1725777Y-21604960D02*
X1716253Y-21614484D01*
X1716253Y-21614484D02*
X1706729Y-21604960D01*
X1706729Y-21604960D02*
X1716253Y-21595436D01*
X1716253Y-21595436D02*
X1716253Y-21614484D01*
X1849586Y-21414484D02*
X1868634Y-21414484D01*
X1868634Y-21414484D02*
X1887682Y-21424008D01*
X1887682Y-21424008D02*
X1897205Y-21433531D01*
X1897205Y-21433531D02*
X1906729Y-21452579D01*
X1906729Y-21452579D02*
X1916253Y-21490674D01*
X1916253Y-21490674D02*
X1916253Y-21538293D01*
X1916253Y-21538293D02*
X1906729Y-21576389D01*
X1906729Y-21576389D02*
X1897205Y-21595436D01*
X1897205Y-21595436D02*
X1887682Y-21604960D01*
X1887682Y-21604960D02*
X1868634Y-21614484D01*
X1868634Y-21614484D02*
X1849586Y-21614484D01*
X1849586Y-21614484D02*
X1830539Y-21604960D01*
X1830539Y-21604960D02*
X1821015Y-21595436D01*
X1821015Y-21595436D02*
X1811491Y-21576389D01*
X1811491Y-21576389D02*
X1801967Y-21538293D01*
X1801967Y-21538293D02*
X1801967Y-21490674D01*
X1801967Y-21490674D02*
X1811491Y-21452579D01*
X1811491Y-21452579D02*
X1821015Y-21433531D01*
X1821015Y-21433531D02*
X1830539Y-21424008D01*
X1830539Y-21424008D02*
X1849586Y-21414484D01*
X2040062Y-21414484D02*
X2059110Y-21414484D01*
X2059110Y-21414484D02*
X2078158Y-21424008D01*
X2078158Y-21424008D02*
X2087682Y-21433531D01*
X2087682Y-21433531D02*
X2097205Y-21452579D01*
X2097205Y-21452579D02*
X2106729Y-21490674D01*
X2106729Y-21490674D02*
X2106729Y-21538293D01*
X2106729Y-21538293D02*
X2097205Y-21576389D01*
X2097205Y-21576389D02*
X2087682Y-21595436D01*
X2087682Y-21595436D02*
X2078158Y-21604960D01*
X2078158Y-21604960D02*
X2059110Y-21614484D01*
X2059110Y-21614484D02*
X2040062Y-21614484D01*
X2040062Y-21614484D02*
X2021015Y-21604960D01*
X2021015Y-21604960D02*
X2011491Y-21595436D01*
X2011491Y-21595436D02*
X2001967Y-21576389D01*
X2001967Y-21576389D02*
X1992443Y-21538293D01*
X1992443Y-21538293D02*
X1992443Y-21490674D01*
X1992443Y-21490674D02*
X2001967Y-21452579D01*
X2001967Y-21452579D02*
X2011491Y-21433531D01*
X2011491Y-21433531D02*
X2021015Y-21424008D01*
X2021015Y-21424008D02*
X2040062Y-21414484D01*
X2230539Y-21414484D02*
X2249586Y-21414484D01*
X2249586Y-21414484D02*
X2268634Y-21424008D01*
X2268634Y-21424008D02*
X2278158Y-21433531D01*
X2278158Y-21433531D02*
X2287682Y-21452579D01*
X2287682Y-21452579D02*
X2297205Y-21490674D01*
X2297205Y-21490674D02*
X2297205Y-21538293D01*
X2297205Y-21538293D02*
X2287682Y-21576389D01*
X2287682Y-21576389D02*
X2278158Y-21595436D01*
X2278158Y-21595436D02*
X2268634Y-21604960D01*
X2268634Y-21604960D02*
X2249586Y-21614484D01*
X2249586Y-21614484D02*
X2230539Y-21614484D01*
X2230539Y-21614484D02*
X2211491Y-21604960D01*
X2211491Y-21604960D02*
X2201967Y-21595436D01*
X2201967Y-21595436D02*
X2192444Y-21576389D01*
X2192444Y-21576389D02*
X2182920Y-21538293D01*
X2182920Y-21538293D02*
X2182920Y-21490674D01*
X2182920Y-21490674D02*
X2192444Y-21452579D01*
X2192444Y-21452579D02*
X2201967Y-21433531D01*
X2201967Y-21433531D02*
X2211491Y-21424008D01*
X2211491Y-21424008D02*
X2230539Y-21414484D01*
X2382920Y-21614484D02*
X2382920Y-21481150D01*
X2382920Y-21500198D02*
X2392444Y-21490674D01*
X2392444Y-21490674D02*
X2411491Y-21481150D01*
X2411491Y-21481150D02*
X2440063Y-21481150D01*
X2440063Y-21481150D02*
X2459110Y-21490674D01*
X2459110Y-21490674D02*
X2468634Y-21509722D01*
X2468634Y-21509722D02*
X2468634Y-21614484D01*
X2468634Y-21509722D02*
X2478158Y-21490674D01*
X2478158Y-21490674D02*
X2497205Y-21481150D01*
X2497205Y-21481150D02*
X2525777Y-21481150D01*
X2525777Y-21481150D02*
X2544825Y-21490674D01*
X2544825Y-21490674D02*
X2554348Y-21509722D01*
X2554348Y-21509722D02*
X2554348Y-21614484D01*
X2649586Y-21614484D02*
X2649586Y-21481150D01*
X2649586Y-21500198D02*
X2659110Y-21490674D01*
X2659110Y-21490674D02*
X2678158Y-21481150D01*
X2678158Y-21481150D02*
X2706729Y-21481150D01*
X2706729Y-21481150D02*
X2725777Y-21490674D01*
X2725777Y-21490674D02*
X2735301Y-21509722D01*
X2735301Y-21509722D02*
X2735301Y-21614484D01*
X2735301Y-21509722D02*
X2744825Y-21490674D01*
X2744825Y-21490674D02*
X2763872Y-21481150D01*
X2763872Y-21481150D02*
X2792444Y-21481150D01*
X2792444Y-21481150D02*
X2811491Y-21490674D01*
X2811491Y-21490674D02*
X2821015Y-21509722D01*
X2821015Y-21509722D02*
X2821015Y-21614484D01*
X3211491Y-21404960D02*
X3040063Y-21662103D01*
X3468634Y-21414484D02*
X3487682Y-21414484D01*
X3487682Y-21414484D02*
X3506729Y-21424008D01*
X3506729Y-21424008D02*
X3516253Y-21433531D01*
X3516253Y-21433531D02*
X3525777Y-21452579D01*
X3525777Y-21452579D02*
X3535301Y-21490674D01*
X3535301Y-21490674D02*
X3535301Y-21538293D01*
X3535301Y-21538293D02*
X3525777Y-21576389D01*
X3525777Y-21576389D02*
X3516253Y-21595436D01*
X3516253Y-21595436D02*
X3506729Y-21604960D01*
X3506729Y-21604960D02*
X3487682Y-21614484D01*
X3487682Y-21614484D02*
X3468634Y-21614484D01*
X3468634Y-21614484D02*
X3449586Y-21604960D01*
X3449586Y-21604960D02*
X3440063Y-21595436D01*
X3440063Y-21595436D02*
X3430539Y-21576389D01*
X3430539Y-21576389D02*
X3421015Y-21538293D01*
X3421015Y-21538293D02*
X3421015Y-21490674D01*
X3421015Y-21490674D02*
X3430539Y-21452579D01*
X3430539Y-21452579D02*
X3440063Y-21433531D01*
X3440063Y-21433531D02*
X3449586Y-21424008D01*
X3449586Y-21424008D02*
X3468634Y-21414484D01*
X3621015Y-21595436D02*
X3630539Y-21604960D01*
X3630539Y-21604960D02*
X3621015Y-21614484D01*
X3621015Y-21614484D02*
X3611491Y-21604960D01*
X3611491Y-21604960D02*
X3621015Y-21595436D01*
X3621015Y-21595436D02*
X3621015Y-21614484D01*
X3754348Y-21414484D02*
X3773396Y-21414484D01*
X3773396Y-21414484D02*
X3792444Y-21424008D01*
X3792444Y-21424008D02*
X3801967Y-21433531D01*
X3801967Y-21433531D02*
X3811491Y-21452579D01*
X3811491Y-21452579D02*
X3821015Y-21490674D01*
X3821015Y-21490674D02*
X3821015Y-21538293D01*
X3821015Y-21538293D02*
X3811491Y-21576389D01*
X3811491Y-21576389D02*
X3801967Y-21595436D01*
X3801967Y-21595436D02*
X3792444Y-21604960D01*
X3792444Y-21604960D02*
X3773396Y-21614484D01*
X3773396Y-21614484D02*
X3754348Y-21614484D01*
X3754348Y-21614484D02*
X3735301Y-21604960D01*
X3735301Y-21604960D02*
X3725777Y-21595436D01*
X3725777Y-21595436D02*
X3716253Y-21576389D01*
X3716253Y-21576389D02*
X3706729Y-21538293D01*
X3706729Y-21538293D02*
X3706729Y-21490674D01*
X3706729Y-21490674D02*
X3716253Y-21452579D01*
X3716253Y-21452579D02*
X3725777Y-21433531D01*
X3725777Y-21433531D02*
X3735301Y-21424008D01*
X3735301Y-21424008D02*
X3754348Y-21414484D01*
X3887682Y-21414484D02*
X4011491Y-21414484D01*
X4011491Y-21414484D02*
X3944825Y-21490674D01*
X3944825Y-21490674D02*
X3973396Y-21490674D01*
X3973396Y-21490674D02*
X3992444Y-21500198D01*
X3992444Y-21500198D02*
X4001967Y-21509722D01*
X4001967Y-21509722D02*
X4011491Y-21528770D01*
X4011491Y-21528770D02*
X4011491Y-21576389D01*
X4011491Y-21576389D02*
X4001967Y-21595436D01*
X4001967Y-21595436D02*
X3992444Y-21604960D01*
X3992444Y-21604960D02*
X3973396Y-21614484D01*
X3973396Y-21614484D02*
X3916253Y-21614484D01*
X3916253Y-21614484D02*
X3897206Y-21604960D01*
X3897206Y-21604960D02*
X3887682Y-21595436D01*
X4106729Y-21614484D02*
X4144825Y-21614484D01*
X4144825Y-21614484D02*
X4163872Y-21604960D01*
X4163872Y-21604960D02*
X4173396Y-21595436D01*
X4173396Y-21595436D02*
X4192444Y-21566865D01*
X4192444Y-21566865D02*
X4201968Y-21528770D01*
X4201968Y-21528770D02*
X4201968Y-21452579D01*
X4201968Y-21452579D02*
X4192444Y-21433531D01*
X4192444Y-21433531D02*
X4182920Y-21424008D01*
X4182920Y-21424008D02*
X4163872Y-21414484D01*
X4163872Y-21414484D02*
X4125777Y-21414484D01*
X4125777Y-21414484D02*
X4106729Y-21424008D01*
X4106729Y-21424008D02*
X4097206Y-21433531D01*
X4097206Y-21433531D02*
X4087682Y-21452579D01*
X4087682Y-21452579D02*
X4087682Y-21500198D01*
X4087682Y-21500198D02*
X4097206Y-21519246D01*
X4097206Y-21519246D02*
X4106729Y-21528770D01*
X4106729Y-21528770D02*
X4125777Y-21538293D01*
X4125777Y-21538293D02*
X4163872Y-21538293D01*
X4163872Y-21538293D02*
X4182920Y-21528770D01*
X4182920Y-21528770D02*
X4192444Y-21519246D01*
X4192444Y-21519246D02*
X4201968Y-21500198D01*
X4373396Y-21481150D02*
X4373396Y-21614484D01*
X4325777Y-21404960D02*
X4278158Y-21547817D01*
X4278158Y-21547817D02*
X4401968Y-21547817D01*
X4468634Y-21414484D02*
X4468634Y-21452579D01*
X4544825Y-21414484D02*
X4544825Y-21452579D01*
X4840063Y-21690674D02*
X4830539Y-21681150D01*
X4830539Y-21681150D02*
X4811491Y-21652579D01*
X4811491Y-21652579D02*
X4801968Y-21633531D01*
X4801968Y-21633531D02*
X4792444Y-21604960D01*
X4792444Y-21604960D02*
X4782920Y-21557341D01*
X4782920Y-21557341D02*
X4782920Y-21519246D01*
X4782920Y-21519246D02*
X4792444Y-21471627D01*
X4792444Y-21471627D02*
X4801968Y-21443055D01*
X4801968Y-21443055D02*
X4811491Y-21424008D01*
X4811491Y-21424008D02*
X4830539Y-21395436D01*
X4830539Y-21395436D02*
X4840063Y-21385912D01*
X4944825Y-21500198D02*
X4925777Y-21490674D01*
X4925777Y-21490674D02*
X4916253Y-21481150D01*
X4916253Y-21481150D02*
X4906730Y-21462103D01*
X4906730Y-21462103D02*
X4906730Y-21452579D01*
X4906730Y-21452579D02*
X4916253Y-21433531D01*
X4916253Y-21433531D02*
X4925777Y-21424008D01*
X4925777Y-21424008D02*
X4944825Y-21414484D01*
X4944825Y-21414484D02*
X4982920Y-21414484D01*
X4982920Y-21414484D02*
X5001968Y-21424008D01*
X5001968Y-21424008D02*
X5011491Y-21433531D01*
X5011491Y-21433531D02*
X5021015Y-21452579D01*
X5021015Y-21452579D02*
X5021015Y-21462103D01*
X5021015Y-21462103D02*
X5011491Y-21481150D01*
X5011491Y-21481150D02*
X5001968Y-21490674D01*
X5001968Y-21490674D02*
X4982920Y-21500198D01*
X4982920Y-21500198D02*
X4944825Y-21500198D01*
X4944825Y-21500198D02*
X4925777Y-21509722D01*
X4925777Y-21509722D02*
X4916253Y-21519246D01*
X4916253Y-21519246D02*
X4906730Y-21538293D01*
X4906730Y-21538293D02*
X4906730Y-21576389D01*
X4906730Y-21576389D02*
X4916253Y-21595436D01*
X4916253Y-21595436D02*
X4925777Y-21604960D01*
X4925777Y-21604960D02*
X4944825Y-21614484D01*
X4944825Y-21614484D02*
X4982920Y-21614484D01*
X4982920Y-21614484D02*
X5001968Y-21604960D01*
X5001968Y-21604960D02*
X5011491Y-21595436D01*
X5011491Y-21595436D02*
X5021015Y-21576389D01*
X5021015Y-21576389D02*
X5021015Y-21538293D01*
X5021015Y-21538293D02*
X5011491Y-21519246D01*
X5011491Y-21519246D02*
X5001968Y-21509722D01*
X5001968Y-21509722D02*
X4982920Y-21500198D01*
X5144825Y-21414484D02*
X5163872Y-21414484D01*
X5163872Y-21414484D02*
X5182920Y-21424008D01*
X5182920Y-21424008D02*
X5192444Y-21433531D01*
X5192444Y-21433531D02*
X5201968Y-21452579D01*
X5201968Y-21452579D02*
X5211491Y-21490674D01*
X5211491Y-21490674D02*
X5211491Y-21538293D01*
X5211491Y-21538293D02*
X5201968Y-21576389D01*
X5201968Y-21576389D02*
X5192444Y-21595436D01*
X5192444Y-21595436D02*
X5182920Y-21604960D01*
X5182920Y-21604960D02*
X5163872Y-21614484D01*
X5163872Y-21614484D02*
X5144825Y-21614484D01*
X5144825Y-21614484D02*
X5125777Y-21604960D01*
X5125777Y-21604960D02*
X5116253Y-21595436D01*
X5116253Y-21595436D02*
X5106730Y-21576389D01*
X5106730Y-21576389D02*
X5097206Y-21538293D01*
X5097206Y-21538293D02*
X5097206Y-21490674D01*
X5097206Y-21490674D02*
X5106730Y-21452579D01*
X5106730Y-21452579D02*
X5116253Y-21433531D01*
X5116253Y-21433531D02*
X5125777Y-21424008D01*
X5125777Y-21424008D02*
X5144825Y-21414484D01*
X5449587Y-21614484D02*
X5449587Y-21414484D01*
X5535301Y-21614484D02*
X5535301Y-21509722D01*
X5535301Y-21509722D02*
X5525777Y-21490674D01*
X5525777Y-21490674D02*
X5506730Y-21481150D01*
X5506730Y-21481150D02*
X5478158Y-21481150D01*
X5478158Y-21481150D02*
X5459111Y-21490674D01*
X5459111Y-21490674D02*
X5449587Y-21500198D01*
X5659110Y-21614484D02*
X5640063Y-21604960D01*
X5640063Y-21604960D02*
X5630539Y-21595436D01*
X5630539Y-21595436D02*
X5621015Y-21576389D01*
X5621015Y-21576389D02*
X5621015Y-21519246D01*
X5621015Y-21519246D02*
X5630539Y-21500198D01*
X5630539Y-21500198D02*
X5640063Y-21490674D01*
X5640063Y-21490674D02*
X5659110Y-21481150D01*
X5659110Y-21481150D02*
X5687682Y-21481150D01*
X5687682Y-21481150D02*
X5706730Y-21490674D01*
X5706730Y-21490674D02*
X5716253Y-21500198D01*
X5716253Y-21500198D02*
X5725777Y-21519246D01*
X5725777Y-21519246D02*
X5725777Y-21576389D01*
X5725777Y-21576389D02*
X5716253Y-21595436D01*
X5716253Y-21595436D02*
X5706730Y-21604960D01*
X5706730Y-21604960D02*
X5687682Y-21614484D01*
X5687682Y-21614484D02*
X5659110Y-21614484D01*
X5840063Y-21614484D02*
X5821015Y-21604960D01*
X5821015Y-21604960D02*
X5811491Y-21585912D01*
X5811491Y-21585912D02*
X5811491Y-21414484D01*
X5992444Y-21604960D02*
X5973396Y-21614484D01*
X5973396Y-21614484D02*
X5935301Y-21614484D01*
X5935301Y-21614484D02*
X5916253Y-21604960D01*
X5916253Y-21604960D02*
X5906730Y-21585912D01*
X5906730Y-21585912D02*
X5906730Y-21509722D01*
X5906730Y-21509722D02*
X5916253Y-21490674D01*
X5916253Y-21490674D02*
X5935301Y-21481150D01*
X5935301Y-21481150D02*
X5973396Y-21481150D01*
X5973396Y-21481150D02*
X5992444Y-21490674D01*
X5992444Y-21490674D02*
X6001968Y-21509722D01*
X6001968Y-21509722D02*
X6001968Y-21528770D01*
X6001968Y-21528770D02*
X5906730Y-21547817D01*
X6078158Y-21604960D02*
X6097206Y-21614484D01*
X6097206Y-21614484D02*
X6135301Y-21614484D01*
X6135301Y-21614484D02*
X6154349Y-21604960D01*
X6154349Y-21604960D02*
X6163872Y-21585912D01*
X6163872Y-21585912D02*
X6163872Y-21576389D01*
X6163872Y-21576389D02*
X6154349Y-21557341D01*
X6154349Y-21557341D02*
X6135301Y-21547817D01*
X6135301Y-21547817D02*
X6106730Y-21547817D01*
X6106730Y-21547817D02*
X6087682Y-21538293D01*
X6087682Y-21538293D02*
X6078158Y-21519246D01*
X6078158Y-21519246D02*
X6078158Y-21509722D01*
X6078158Y-21509722D02*
X6087682Y-21490674D01*
X6087682Y-21490674D02*
X6106730Y-21481150D01*
X6106730Y-21481150D02*
X6135301Y-21481150D01*
X6135301Y-21481150D02*
X6154349Y-21490674D01*
X6230539Y-21690674D02*
X6240063Y-21681150D01*
X6240063Y-21681150D02*
X6259111Y-21652579D01*
X6259111Y-21652579D02*
X6268634Y-21633531D01*
X6268634Y-21633531D02*
X6278158Y-21604960D01*
X6278158Y-21604960D02*
X6287682Y-21557341D01*
X6287682Y-21557341D02*
X6287682Y-21519246D01*
X6287682Y-21519246D02*
X6278158Y-21471627D01*
X6278158Y-21471627D02*
X6268634Y-21443055D01*
X6268634Y-21443055D02*
X6259111Y-21424008D01*
X6259111Y-21424008D02*
X6240063Y-21395436D01*
X6240063Y-21395436D02*
X6230539Y-21385912D01*
D17*
X1145000Y-21727000D02*
X1265000Y-21847000D01*
X1265000Y-21727000D02*
X1145000Y-21847000D01*
X1205000Y-21727000D02*
X1205000Y-21847000D01*
X1145000Y-21787000D02*
X1265000Y-21787000D01*
D11*
X1630539Y-21878484D02*
X1516253Y-21878484D01*
X1573396Y-21878484D02*
X1573396Y-21678484D01*
X1573396Y-21678484D02*
X1554348Y-21707055D01*
X1554348Y-21707055D02*
X1535301Y-21726103D01*
X1535301Y-21726103D02*
X1516253Y-21735627D01*
X1716253Y-21859436D02*
X1725777Y-21868960D01*
X1725777Y-21868960D02*
X1716253Y-21878484D01*
X1716253Y-21878484D02*
X1706729Y-21868960D01*
X1706729Y-21868960D02*
X1716253Y-21859436D01*
X1716253Y-21859436D02*
X1716253Y-21878484D01*
X1801967Y-21697531D02*
X1811491Y-21688008D01*
X1811491Y-21688008D02*
X1830539Y-21678484D01*
X1830539Y-21678484D02*
X1878158Y-21678484D01*
X1878158Y-21678484D02*
X1897205Y-21688008D01*
X1897205Y-21688008D02*
X1906729Y-21697531D01*
X1906729Y-21697531D02*
X1916253Y-21716579D01*
X1916253Y-21716579D02*
X1916253Y-21735627D01*
X1916253Y-21735627D02*
X1906729Y-21764198D01*
X1906729Y-21764198D02*
X1792443Y-21878484D01*
X1792443Y-21878484D02*
X1916253Y-21878484D01*
X2040062Y-21678484D02*
X2059110Y-21678484D01*
X2059110Y-21678484D02*
X2078158Y-21688008D01*
X2078158Y-21688008D02*
X2087682Y-21697531D01*
X2087682Y-21697531D02*
X2097205Y-21716579D01*
X2097205Y-21716579D02*
X2106729Y-21754674D01*
X2106729Y-21754674D02*
X2106729Y-21802293D01*
X2106729Y-21802293D02*
X2097205Y-21840389D01*
X2097205Y-21840389D02*
X2087682Y-21859436D01*
X2087682Y-21859436D02*
X2078158Y-21868960D01*
X2078158Y-21868960D02*
X2059110Y-21878484D01*
X2059110Y-21878484D02*
X2040062Y-21878484D01*
X2040062Y-21878484D02*
X2021015Y-21868960D01*
X2021015Y-21868960D02*
X2011491Y-21859436D01*
X2011491Y-21859436D02*
X2001967Y-21840389D01*
X2001967Y-21840389D02*
X1992443Y-21802293D01*
X1992443Y-21802293D02*
X1992443Y-21754674D01*
X1992443Y-21754674D02*
X2001967Y-21716579D01*
X2001967Y-21716579D02*
X2011491Y-21697531D01*
X2011491Y-21697531D02*
X2021015Y-21688008D01*
X2021015Y-21688008D02*
X2040062Y-21678484D01*
X2230539Y-21678484D02*
X2249586Y-21678484D01*
X2249586Y-21678484D02*
X2268634Y-21688008D01*
X2268634Y-21688008D02*
X2278158Y-21697531D01*
X2278158Y-21697531D02*
X2287682Y-21716579D01*
X2287682Y-21716579D02*
X2297205Y-21754674D01*
X2297205Y-21754674D02*
X2297205Y-21802293D01*
X2297205Y-21802293D02*
X2287682Y-21840389D01*
X2287682Y-21840389D02*
X2278158Y-21859436D01*
X2278158Y-21859436D02*
X2268634Y-21868960D01*
X2268634Y-21868960D02*
X2249586Y-21878484D01*
X2249586Y-21878484D02*
X2230539Y-21878484D01*
X2230539Y-21878484D02*
X2211491Y-21868960D01*
X2211491Y-21868960D02*
X2201967Y-21859436D01*
X2201967Y-21859436D02*
X2192444Y-21840389D01*
X2192444Y-21840389D02*
X2182920Y-21802293D01*
X2182920Y-21802293D02*
X2182920Y-21754674D01*
X2182920Y-21754674D02*
X2192444Y-21716579D01*
X2192444Y-21716579D02*
X2201967Y-21697531D01*
X2201967Y-21697531D02*
X2211491Y-21688008D01*
X2211491Y-21688008D02*
X2230539Y-21678484D01*
X2382920Y-21878484D02*
X2382920Y-21745150D01*
X2382920Y-21764198D02*
X2392444Y-21754674D01*
X2392444Y-21754674D02*
X2411491Y-21745150D01*
X2411491Y-21745150D02*
X2440063Y-21745150D01*
X2440063Y-21745150D02*
X2459110Y-21754674D01*
X2459110Y-21754674D02*
X2468634Y-21773722D01*
X2468634Y-21773722D02*
X2468634Y-21878484D01*
X2468634Y-21773722D02*
X2478158Y-21754674D01*
X2478158Y-21754674D02*
X2497205Y-21745150D01*
X2497205Y-21745150D02*
X2525777Y-21745150D01*
X2525777Y-21745150D02*
X2544825Y-21754674D01*
X2544825Y-21754674D02*
X2554348Y-21773722D01*
X2554348Y-21773722D02*
X2554348Y-21878484D01*
X2649586Y-21878484D02*
X2649586Y-21745150D01*
X2649586Y-21764198D02*
X2659110Y-21754674D01*
X2659110Y-21754674D02*
X2678158Y-21745150D01*
X2678158Y-21745150D02*
X2706729Y-21745150D01*
X2706729Y-21745150D02*
X2725777Y-21754674D01*
X2725777Y-21754674D02*
X2735301Y-21773722D01*
X2735301Y-21773722D02*
X2735301Y-21878484D01*
X2735301Y-21773722D02*
X2744825Y-21754674D01*
X2744825Y-21754674D02*
X2763872Y-21745150D01*
X2763872Y-21745150D02*
X2792444Y-21745150D01*
X2792444Y-21745150D02*
X2811491Y-21754674D01*
X2811491Y-21754674D02*
X2821015Y-21773722D01*
X2821015Y-21773722D02*
X2821015Y-21878484D01*
X3211491Y-21668960D02*
X3040063Y-21926103D01*
X3468634Y-21678484D02*
X3487682Y-21678484D01*
X3487682Y-21678484D02*
X3506729Y-21688008D01*
X3506729Y-21688008D02*
X3516253Y-21697531D01*
X3516253Y-21697531D02*
X3525777Y-21716579D01*
X3525777Y-21716579D02*
X3535301Y-21754674D01*
X3535301Y-21754674D02*
X3535301Y-21802293D01*
X3535301Y-21802293D02*
X3525777Y-21840389D01*
X3525777Y-21840389D02*
X3516253Y-21859436D01*
X3516253Y-21859436D02*
X3506729Y-21868960D01*
X3506729Y-21868960D02*
X3487682Y-21878484D01*
X3487682Y-21878484D02*
X3468634Y-21878484D01*
X3468634Y-21878484D02*
X3449586Y-21868960D01*
X3449586Y-21868960D02*
X3440063Y-21859436D01*
X3440063Y-21859436D02*
X3430539Y-21840389D01*
X3430539Y-21840389D02*
X3421015Y-21802293D01*
X3421015Y-21802293D02*
X3421015Y-21754674D01*
X3421015Y-21754674D02*
X3430539Y-21716579D01*
X3430539Y-21716579D02*
X3440063Y-21697531D01*
X3440063Y-21697531D02*
X3449586Y-21688008D01*
X3449586Y-21688008D02*
X3468634Y-21678484D01*
X3621015Y-21859436D02*
X3630539Y-21868960D01*
X3630539Y-21868960D02*
X3621015Y-21878484D01*
X3621015Y-21878484D02*
X3611491Y-21868960D01*
X3611491Y-21868960D02*
X3621015Y-21859436D01*
X3621015Y-21859436D02*
X3621015Y-21878484D01*
X3754348Y-21678484D02*
X3773396Y-21678484D01*
X3773396Y-21678484D02*
X3792444Y-21688008D01*
X3792444Y-21688008D02*
X3801967Y-21697531D01*
X3801967Y-21697531D02*
X3811491Y-21716579D01*
X3811491Y-21716579D02*
X3821015Y-21754674D01*
X3821015Y-21754674D02*
X3821015Y-21802293D01*
X3821015Y-21802293D02*
X3811491Y-21840389D01*
X3811491Y-21840389D02*
X3801967Y-21859436D01*
X3801967Y-21859436D02*
X3792444Y-21868960D01*
X3792444Y-21868960D02*
X3773396Y-21878484D01*
X3773396Y-21878484D02*
X3754348Y-21878484D01*
X3754348Y-21878484D02*
X3735301Y-21868960D01*
X3735301Y-21868960D02*
X3725777Y-21859436D01*
X3725777Y-21859436D02*
X3716253Y-21840389D01*
X3716253Y-21840389D02*
X3706729Y-21802293D01*
X3706729Y-21802293D02*
X3706729Y-21754674D01*
X3706729Y-21754674D02*
X3716253Y-21716579D01*
X3716253Y-21716579D02*
X3725777Y-21697531D01*
X3725777Y-21697531D02*
X3735301Y-21688008D01*
X3735301Y-21688008D02*
X3754348Y-21678484D01*
X3992444Y-21745150D02*
X3992444Y-21878484D01*
X3944825Y-21668960D02*
X3897206Y-21811817D01*
X3897206Y-21811817D02*
X4021015Y-21811817D01*
X4078158Y-21678484D02*
X4211491Y-21678484D01*
X4211491Y-21678484D02*
X4125777Y-21878484D01*
X4278158Y-21697531D02*
X4287682Y-21688008D01*
X4287682Y-21688008D02*
X4306729Y-21678484D01*
X4306729Y-21678484D02*
X4354349Y-21678484D01*
X4354349Y-21678484D02*
X4373396Y-21688008D01*
X4373396Y-21688008D02*
X4382920Y-21697531D01*
X4382920Y-21697531D02*
X4392444Y-21716579D01*
X4392444Y-21716579D02*
X4392444Y-21735627D01*
X4392444Y-21735627D02*
X4382920Y-21764198D01*
X4382920Y-21764198D02*
X4268634Y-21878484D01*
X4268634Y-21878484D02*
X4392444Y-21878484D01*
X4468634Y-21678484D02*
X4468634Y-21716579D01*
X4544825Y-21678484D02*
X4544825Y-21716579D01*
X4840063Y-21954674D02*
X4830539Y-21945150D01*
X4830539Y-21945150D02*
X4811491Y-21916579D01*
X4811491Y-21916579D02*
X4801968Y-21897531D01*
X4801968Y-21897531D02*
X4792444Y-21868960D01*
X4792444Y-21868960D02*
X4782920Y-21821341D01*
X4782920Y-21821341D02*
X4782920Y-21783246D01*
X4782920Y-21783246D02*
X4792444Y-21735627D01*
X4792444Y-21735627D02*
X4801968Y-21707055D01*
X4801968Y-21707055D02*
X4811491Y-21688008D01*
X4811491Y-21688008D02*
X4830539Y-21659436D01*
X4830539Y-21659436D02*
X4840063Y-21649912D01*
X4906730Y-21697531D02*
X4916253Y-21688008D01*
X4916253Y-21688008D02*
X4935301Y-21678484D01*
X4935301Y-21678484D02*
X4982920Y-21678484D01*
X4982920Y-21678484D02*
X5001968Y-21688008D01*
X5001968Y-21688008D02*
X5011491Y-21697531D01*
X5011491Y-21697531D02*
X5021015Y-21716579D01*
X5021015Y-21716579D02*
X5021015Y-21735627D01*
X5021015Y-21735627D02*
X5011491Y-21764198D01*
X5011491Y-21764198D02*
X4897206Y-21878484D01*
X4897206Y-21878484D02*
X5021015Y-21878484D01*
X5144825Y-21678484D02*
X5163872Y-21678484D01*
X5163872Y-21678484D02*
X5182920Y-21688008D01*
X5182920Y-21688008D02*
X5192444Y-21697531D01*
X5192444Y-21697531D02*
X5201968Y-21716579D01*
X5201968Y-21716579D02*
X5211491Y-21754674D01*
X5211491Y-21754674D02*
X5211491Y-21802293D01*
X5211491Y-21802293D02*
X5201968Y-21840389D01*
X5201968Y-21840389D02*
X5192444Y-21859436D01*
X5192444Y-21859436D02*
X5182920Y-21868960D01*
X5182920Y-21868960D02*
X5163872Y-21878484D01*
X5163872Y-21878484D02*
X5144825Y-21878484D01*
X5144825Y-21878484D02*
X5125777Y-21868960D01*
X5125777Y-21868960D02*
X5116253Y-21859436D01*
X5116253Y-21859436D02*
X5106730Y-21840389D01*
X5106730Y-21840389D02*
X5097206Y-21802293D01*
X5097206Y-21802293D02*
X5097206Y-21754674D01*
X5097206Y-21754674D02*
X5106730Y-21716579D01*
X5106730Y-21716579D02*
X5116253Y-21697531D01*
X5116253Y-21697531D02*
X5125777Y-21688008D01*
X5125777Y-21688008D02*
X5144825Y-21678484D01*
X5449587Y-21878484D02*
X5449587Y-21678484D01*
X5535301Y-21878484D02*
X5535301Y-21773722D01*
X5535301Y-21773722D02*
X5525777Y-21754674D01*
X5525777Y-21754674D02*
X5506730Y-21745150D01*
X5506730Y-21745150D02*
X5478158Y-21745150D01*
X5478158Y-21745150D02*
X5459111Y-21754674D01*
X5459111Y-21754674D02*
X5449587Y-21764198D01*
X5659110Y-21878484D02*
X5640063Y-21868960D01*
X5640063Y-21868960D02*
X5630539Y-21859436D01*
X5630539Y-21859436D02*
X5621015Y-21840389D01*
X5621015Y-21840389D02*
X5621015Y-21783246D01*
X5621015Y-21783246D02*
X5630539Y-21764198D01*
X5630539Y-21764198D02*
X5640063Y-21754674D01*
X5640063Y-21754674D02*
X5659110Y-21745150D01*
X5659110Y-21745150D02*
X5687682Y-21745150D01*
X5687682Y-21745150D02*
X5706730Y-21754674D01*
X5706730Y-21754674D02*
X5716253Y-21764198D01*
X5716253Y-21764198D02*
X5725777Y-21783246D01*
X5725777Y-21783246D02*
X5725777Y-21840389D01*
X5725777Y-21840389D02*
X5716253Y-21859436D01*
X5716253Y-21859436D02*
X5706730Y-21868960D01*
X5706730Y-21868960D02*
X5687682Y-21878484D01*
X5687682Y-21878484D02*
X5659110Y-21878484D01*
X5840063Y-21878484D02*
X5821015Y-21868960D01*
X5821015Y-21868960D02*
X5811491Y-21849912D01*
X5811491Y-21849912D02*
X5811491Y-21678484D01*
X5992444Y-21868960D02*
X5973396Y-21878484D01*
X5973396Y-21878484D02*
X5935301Y-21878484D01*
X5935301Y-21878484D02*
X5916253Y-21868960D01*
X5916253Y-21868960D02*
X5906730Y-21849912D01*
X5906730Y-21849912D02*
X5906730Y-21773722D01*
X5906730Y-21773722D02*
X5916253Y-21754674D01*
X5916253Y-21754674D02*
X5935301Y-21745150D01*
X5935301Y-21745150D02*
X5973396Y-21745150D01*
X5973396Y-21745150D02*
X5992444Y-21754674D01*
X5992444Y-21754674D02*
X6001968Y-21773722D01*
X6001968Y-21773722D02*
X6001968Y-21792770D01*
X6001968Y-21792770D02*
X5906730Y-21811817D01*
X6078158Y-21868960D02*
X6097206Y-21878484D01*
X6097206Y-21878484D02*
X6135301Y-21878484D01*
X6135301Y-21878484D02*
X6154349Y-21868960D01*
X6154349Y-21868960D02*
X6163872Y-21849912D01*
X6163872Y-21849912D02*
X6163872Y-21840389D01*
X6163872Y-21840389D02*
X6154349Y-21821341D01*
X6154349Y-21821341D02*
X6135301Y-21811817D01*
X6135301Y-21811817D02*
X6106730Y-21811817D01*
X6106730Y-21811817D02*
X6087682Y-21802293D01*
X6087682Y-21802293D02*
X6078158Y-21783246D01*
X6078158Y-21783246D02*
X6078158Y-21773722D01*
X6078158Y-21773722D02*
X6087682Y-21754674D01*
X6087682Y-21754674D02*
X6106730Y-21745150D01*
X6106730Y-21745150D02*
X6135301Y-21745150D01*
X6135301Y-21745150D02*
X6154349Y-21754674D01*
X6230539Y-21954674D02*
X6240063Y-21945150D01*
X6240063Y-21945150D02*
X6259111Y-21916579D01*
X6259111Y-21916579D02*
X6268634Y-21897531D01*
X6268634Y-21897531D02*
X6278158Y-21868960D01*
X6278158Y-21868960D02*
X6287682Y-21821341D01*
X6287682Y-21821341D02*
X6287682Y-21783246D01*
X6287682Y-21783246D02*
X6278158Y-21735627D01*
X6278158Y-21735627D02*
X6268634Y-21707055D01*
X6268634Y-21707055D02*
X6259111Y-21688008D01*
X6259111Y-21688008D02*
X6240063Y-21659436D01*
X6240063Y-21659436D02*
X6230539Y-21649912D01*
D18*
X1110000Y-21973500D02*
X1265000Y-22128500D01*
X1265000Y-21973500D02*
X1110000Y-22128500D01*
X1242301Y-22105801D02*
X1242301Y-21996199D01*
X1132699Y-21996199D01*
X1132699Y-22105801D01*
X1242301Y-22105801D01*
D11*
X1630539Y-22142484D02*
X1516253Y-22142484D01*
X1573396Y-22142484D02*
X1573396Y-21942484D01*
X1573396Y-21942484D02*
X1554348Y-21971055D01*
X1554348Y-21971055D02*
X1535301Y-21990103D01*
X1535301Y-21990103D02*
X1516253Y-21999627D01*
X1716253Y-22123436D02*
X1725777Y-22132960D01*
X1725777Y-22132960D02*
X1716253Y-22142484D01*
X1716253Y-22142484D02*
X1706729Y-22132960D01*
X1706729Y-22132960D02*
X1716253Y-22123436D01*
X1716253Y-22123436D02*
X1716253Y-22142484D01*
X1906729Y-21942484D02*
X1811491Y-21942484D01*
X1811491Y-21942484D02*
X1801967Y-22037722D01*
X1801967Y-22037722D02*
X1811491Y-22028198D01*
X1811491Y-22028198D02*
X1830539Y-22018674D01*
X1830539Y-22018674D02*
X1878158Y-22018674D01*
X1878158Y-22018674D02*
X1897205Y-22028198D01*
X1897205Y-22028198D02*
X1906729Y-22037722D01*
X1906729Y-22037722D02*
X1916253Y-22056770D01*
X1916253Y-22056770D02*
X1916253Y-22104389D01*
X1916253Y-22104389D02*
X1906729Y-22123436D01*
X1906729Y-22123436D02*
X1897205Y-22132960D01*
X1897205Y-22132960D02*
X1878158Y-22142484D01*
X1878158Y-22142484D02*
X1830539Y-22142484D01*
X1830539Y-22142484D02*
X1811491Y-22132960D01*
X1811491Y-22132960D02*
X1801967Y-22123436D01*
X2097205Y-21942484D02*
X2001967Y-21942484D01*
X2001967Y-21942484D02*
X1992443Y-22037722D01*
X1992443Y-22037722D02*
X2001967Y-22028198D01*
X2001967Y-22028198D02*
X2021015Y-22018674D01*
X2021015Y-22018674D02*
X2068634Y-22018674D01*
X2068634Y-22018674D02*
X2087682Y-22028198D01*
X2087682Y-22028198D02*
X2097205Y-22037722D01*
X2097205Y-22037722D02*
X2106729Y-22056770D01*
X2106729Y-22056770D02*
X2106729Y-22104389D01*
X2106729Y-22104389D02*
X2097205Y-22123436D01*
X2097205Y-22123436D02*
X2087682Y-22132960D01*
X2087682Y-22132960D02*
X2068634Y-22142484D01*
X2068634Y-22142484D02*
X2021015Y-22142484D01*
X2021015Y-22142484D02*
X2001967Y-22132960D01*
X2001967Y-22132960D02*
X1992443Y-22123436D01*
X2230539Y-21942484D02*
X2249586Y-21942484D01*
X2249586Y-21942484D02*
X2268634Y-21952008D01*
X2268634Y-21952008D02*
X2278158Y-21961531D01*
X2278158Y-21961531D02*
X2287682Y-21980579D01*
X2287682Y-21980579D02*
X2297205Y-22018674D01*
X2297205Y-22018674D02*
X2297205Y-22066293D01*
X2297205Y-22066293D02*
X2287682Y-22104389D01*
X2287682Y-22104389D02*
X2278158Y-22123436D01*
X2278158Y-22123436D02*
X2268634Y-22132960D01*
X2268634Y-22132960D02*
X2249586Y-22142484D01*
X2249586Y-22142484D02*
X2230539Y-22142484D01*
X2230539Y-22142484D02*
X2211491Y-22132960D01*
X2211491Y-22132960D02*
X2201967Y-22123436D01*
X2201967Y-22123436D02*
X2192444Y-22104389D01*
X2192444Y-22104389D02*
X2182920Y-22066293D01*
X2182920Y-22066293D02*
X2182920Y-22018674D01*
X2182920Y-22018674D02*
X2192444Y-21980579D01*
X2192444Y-21980579D02*
X2201967Y-21961531D01*
X2201967Y-21961531D02*
X2211491Y-21952008D01*
X2211491Y-21952008D02*
X2230539Y-21942484D01*
X2382920Y-22142484D02*
X2382920Y-22009150D01*
X2382920Y-22028198D02*
X2392444Y-22018674D01*
X2392444Y-22018674D02*
X2411491Y-22009150D01*
X2411491Y-22009150D02*
X2440063Y-22009150D01*
X2440063Y-22009150D02*
X2459110Y-22018674D01*
X2459110Y-22018674D02*
X2468634Y-22037722D01*
X2468634Y-22037722D02*
X2468634Y-22142484D01*
X2468634Y-22037722D02*
X2478158Y-22018674D01*
X2478158Y-22018674D02*
X2497205Y-22009150D01*
X2497205Y-22009150D02*
X2525777Y-22009150D01*
X2525777Y-22009150D02*
X2544825Y-22018674D01*
X2544825Y-22018674D02*
X2554348Y-22037722D01*
X2554348Y-22037722D02*
X2554348Y-22142484D01*
X2649586Y-22142484D02*
X2649586Y-22009150D01*
X2649586Y-22028198D02*
X2659110Y-22018674D01*
X2659110Y-22018674D02*
X2678158Y-22009150D01*
X2678158Y-22009150D02*
X2706729Y-22009150D01*
X2706729Y-22009150D02*
X2725777Y-22018674D01*
X2725777Y-22018674D02*
X2735301Y-22037722D01*
X2735301Y-22037722D02*
X2735301Y-22142484D01*
X2735301Y-22037722D02*
X2744825Y-22018674D01*
X2744825Y-22018674D02*
X2763872Y-22009150D01*
X2763872Y-22009150D02*
X2792444Y-22009150D01*
X2792444Y-22009150D02*
X2811491Y-22018674D01*
X2811491Y-22018674D02*
X2821015Y-22037722D01*
X2821015Y-22037722D02*
X2821015Y-22142484D01*
X3211491Y-21932960D02*
X3040063Y-22190103D01*
X3468634Y-21942484D02*
X3487682Y-21942484D01*
X3487682Y-21942484D02*
X3506729Y-21952008D01*
X3506729Y-21952008D02*
X3516253Y-21961531D01*
X3516253Y-21961531D02*
X3525777Y-21980579D01*
X3525777Y-21980579D02*
X3535301Y-22018674D01*
X3535301Y-22018674D02*
X3535301Y-22066293D01*
X3535301Y-22066293D02*
X3525777Y-22104389D01*
X3525777Y-22104389D02*
X3516253Y-22123436D01*
X3516253Y-22123436D02*
X3506729Y-22132960D01*
X3506729Y-22132960D02*
X3487682Y-22142484D01*
X3487682Y-22142484D02*
X3468634Y-22142484D01*
X3468634Y-22142484D02*
X3449586Y-22132960D01*
X3449586Y-22132960D02*
X3440063Y-22123436D01*
X3440063Y-22123436D02*
X3430539Y-22104389D01*
X3430539Y-22104389D02*
X3421015Y-22066293D01*
X3421015Y-22066293D02*
X3421015Y-22018674D01*
X3421015Y-22018674D02*
X3430539Y-21980579D01*
X3430539Y-21980579D02*
X3440063Y-21961531D01*
X3440063Y-21961531D02*
X3449586Y-21952008D01*
X3449586Y-21952008D02*
X3468634Y-21942484D01*
X3621015Y-22123436D02*
X3630539Y-22132960D01*
X3630539Y-22132960D02*
X3621015Y-22142484D01*
X3621015Y-22142484D02*
X3611491Y-22132960D01*
X3611491Y-22132960D02*
X3621015Y-22123436D01*
X3621015Y-22123436D02*
X3621015Y-22142484D01*
X3754348Y-21942484D02*
X3773396Y-21942484D01*
X3773396Y-21942484D02*
X3792444Y-21952008D01*
X3792444Y-21952008D02*
X3801967Y-21961531D01*
X3801967Y-21961531D02*
X3811491Y-21980579D01*
X3811491Y-21980579D02*
X3821015Y-22018674D01*
X3821015Y-22018674D02*
X3821015Y-22066293D01*
X3821015Y-22066293D02*
X3811491Y-22104389D01*
X3811491Y-22104389D02*
X3801967Y-22123436D01*
X3801967Y-22123436D02*
X3792444Y-22132960D01*
X3792444Y-22132960D02*
X3773396Y-22142484D01*
X3773396Y-22142484D02*
X3754348Y-22142484D01*
X3754348Y-22142484D02*
X3735301Y-22132960D01*
X3735301Y-22132960D02*
X3725777Y-22123436D01*
X3725777Y-22123436D02*
X3716253Y-22104389D01*
X3716253Y-22104389D02*
X3706729Y-22066293D01*
X3706729Y-22066293D02*
X3706729Y-22018674D01*
X3706729Y-22018674D02*
X3716253Y-21980579D01*
X3716253Y-21980579D02*
X3725777Y-21961531D01*
X3725777Y-21961531D02*
X3735301Y-21952008D01*
X3735301Y-21952008D02*
X3754348Y-21942484D01*
X3992444Y-21942484D02*
X3954348Y-21942484D01*
X3954348Y-21942484D02*
X3935301Y-21952008D01*
X3935301Y-21952008D02*
X3925777Y-21961531D01*
X3925777Y-21961531D02*
X3906729Y-21990103D01*
X3906729Y-21990103D02*
X3897206Y-22028198D01*
X3897206Y-22028198D02*
X3897206Y-22104389D01*
X3897206Y-22104389D02*
X3906729Y-22123436D01*
X3906729Y-22123436D02*
X3916253Y-22132960D01*
X3916253Y-22132960D02*
X3935301Y-22142484D01*
X3935301Y-22142484D02*
X3973396Y-22142484D01*
X3973396Y-22142484D02*
X3992444Y-22132960D01*
X3992444Y-22132960D02*
X4001967Y-22123436D01*
X4001967Y-22123436D02*
X4011491Y-22104389D01*
X4011491Y-22104389D02*
X4011491Y-22056770D01*
X4011491Y-22056770D02*
X4001967Y-22037722D01*
X4001967Y-22037722D02*
X3992444Y-22028198D01*
X3992444Y-22028198D02*
X3973396Y-22018674D01*
X3973396Y-22018674D02*
X3935301Y-22018674D01*
X3935301Y-22018674D02*
X3916253Y-22028198D01*
X3916253Y-22028198D02*
X3906729Y-22037722D01*
X3906729Y-22037722D02*
X3897206Y-22056770D01*
X4201968Y-22142484D02*
X4087682Y-22142484D01*
X4144825Y-22142484D02*
X4144825Y-21942484D01*
X4144825Y-21942484D02*
X4125777Y-21971055D01*
X4125777Y-21971055D02*
X4106729Y-21990103D01*
X4106729Y-21990103D02*
X4087682Y-21999627D01*
X4325777Y-21942484D02*
X4344825Y-21942484D01*
X4344825Y-21942484D02*
X4363872Y-21952008D01*
X4363872Y-21952008D02*
X4373396Y-21961531D01*
X4373396Y-21961531D02*
X4382920Y-21980579D01*
X4382920Y-21980579D02*
X4392444Y-22018674D01*
X4392444Y-22018674D02*
X4392444Y-22066293D01*
X4392444Y-22066293D02*
X4382920Y-22104389D01*
X4382920Y-22104389D02*
X4373396Y-22123436D01*
X4373396Y-22123436D02*
X4363872Y-22132960D01*
X4363872Y-22132960D02*
X4344825Y-22142484D01*
X4344825Y-22142484D02*
X4325777Y-22142484D01*
X4325777Y-22142484D02*
X4306729Y-22132960D01*
X4306729Y-22132960D02*
X4297206Y-22123436D01*
X4297206Y-22123436D02*
X4287682Y-22104389D01*
X4287682Y-22104389D02*
X4278158Y-22066293D01*
X4278158Y-22066293D02*
X4278158Y-22018674D01*
X4278158Y-22018674D02*
X4287682Y-21980579D01*
X4287682Y-21980579D02*
X4297206Y-21961531D01*
X4297206Y-21961531D02*
X4306729Y-21952008D01*
X4306729Y-21952008D02*
X4325777Y-21942484D01*
X4468634Y-21942484D02*
X4468634Y-21980579D01*
X4544825Y-21942484D02*
X4544825Y-21980579D01*
X4840063Y-22218674D02*
X4830539Y-22209150D01*
X4830539Y-22209150D02*
X4811491Y-22180579D01*
X4811491Y-22180579D02*
X4801968Y-22161531D01*
X4801968Y-22161531D02*
X4792444Y-22132960D01*
X4792444Y-22132960D02*
X4782920Y-22085341D01*
X4782920Y-22085341D02*
X4782920Y-22047246D01*
X4782920Y-22047246D02*
X4792444Y-21999627D01*
X4792444Y-21999627D02*
X4801968Y-21971055D01*
X4801968Y-21971055D02*
X4811491Y-21952008D01*
X4811491Y-21952008D02*
X4830539Y-21923436D01*
X4830539Y-21923436D02*
X4840063Y-21913912D01*
X5021015Y-22142484D02*
X4906730Y-22142484D01*
X4963872Y-22142484D02*
X4963872Y-21942484D01*
X4963872Y-21942484D02*
X4944825Y-21971055D01*
X4944825Y-21971055D02*
X4925777Y-21990103D01*
X4925777Y-21990103D02*
X4906730Y-21999627D01*
X5192444Y-22009150D02*
X5192444Y-22142484D01*
X5144825Y-21932960D02*
X5097206Y-22075817D01*
X5097206Y-22075817D02*
X5221015Y-22075817D01*
X5449587Y-22142484D02*
X5449587Y-21942484D01*
X5535301Y-22142484D02*
X5535301Y-22037722D01*
X5535301Y-22037722D02*
X5525777Y-22018674D01*
X5525777Y-22018674D02*
X5506730Y-22009150D01*
X5506730Y-22009150D02*
X5478158Y-22009150D01*
X5478158Y-22009150D02*
X5459111Y-22018674D01*
X5459111Y-22018674D02*
X5449587Y-22028198D01*
X5659110Y-22142484D02*
X5640063Y-22132960D01*
X5640063Y-22132960D02*
X5630539Y-22123436D01*
X5630539Y-22123436D02*
X5621015Y-22104389D01*
X5621015Y-22104389D02*
X5621015Y-22047246D01*
X5621015Y-22047246D02*
X5630539Y-22028198D01*
X5630539Y-22028198D02*
X5640063Y-22018674D01*
X5640063Y-22018674D02*
X5659110Y-22009150D01*
X5659110Y-22009150D02*
X5687682Y-22009150D01*
X5687682Y-22009150D02*
X5706730Y-22018674D01*
X5706730Y-22018674D02*
X5716253Y-22028198D01*
X5716253Y-22028198D02*
X5725777Y-22047246D01*
X5725777Y-22047246D02*
X5725777Y-22104389D01*
X5725777Y-22104389D02*
X5716253Y-22123436D01*
X5716253Y-22123436D02*
X5706730Y-22132960D01*
X5706730Y-22132960D02*
X5687682Y-22142484D01*
X5687682Y-22142484D02*
X5659110Y-22142484D01*
X5840063Y-22142484D02*
X5821015Y-22132960D01*
X5821015Y-22132960D02*
X5811491Y-22113912D01*
X5811491Y-22113912D02*
X5811491Y-21942484D01*
X5992444Y-22132960D02*
X5973396Y-22142484D01*
X5973396Y-22142484D02*
X5935301Y-22142484D01*
X5935301Y-22142484D02*
X5916253Y-22132960D01*
X5916253Y-22132960D02*
X5906730Y-22113912D01*
X5906730Y-22113912D02*
X5906730Y-22037722D01*
X5906730Y-22037722D02*
X5916253Y-22018674D01*
X5916253Y-22018674D02*
X5935301Y-22009150D01*
X5935301Y-22009150D02*
X5973396Y-22009150D01*
X5973396Y-22009150D02*
X5992444Y-22018674D01*
X5992444Y-22018674D02*
X6001968Y-22037722D01*
X6001968Y-22037722D02*
X6001968Y-22056770D01*
X6001968Y-22056770D02*
X5906730Y-22075817D01*
X6078158Y-22132960D02*
X6097206Y-22142484D01*
X6097206Y-22142484D02*
X6135301Y-22142484D01*
X6135301Y-22142484D02*
X6154349Y-22132960D01*
X6154349Y-22132960D02*
X6163872Y-22113912D01*
X6163872Y-22113912D02*
X6163872Y-22104389D01*
X6163872Y-22104389D02*
X6154349Y-22085341D01*
X6154349Y-22085341D02*
X6135301Y-22075817D01*
X6135301Y-22075817D02*
X6106730Y-22075817D01*
X6106730Y-22075817D02*
X6087682Y-22066293D01*
X6087682Y-22066293D02*
X6078158Y-22047246D01*
X6078158Y-22047246D02*
X6078158Y-22037722D01*
X6078158Y-22037722D02*
X6087682Y-22018674D01*
X6087682Y-22018674D02*
X6106730Y-22009150D01*
X6106730Y-22009150D02*
X6135301Y-22009150D01*
X6135301Y-22009150D02*
X6154349Y-22018674D01*
X6230539Y-22218674D02*
X6240063Y-22209150D01*
X6240063Y-22209150D02*
X6259111Y-22180579D01*
X6259111Y-22180579D02*
X6268634Y-22161531D01*
X6268634Y-22161531D02*
X6278158Y-22132960D01*
X6278158Y-22132960D02*
X6287682Y-22085341D01*
X6287682Y-22085341D02*
X6287682Y-22047246D01*
X6287682Y-22047246D02*
X6278158Y-21999627D01*
X6278158Y-21999627D02*
X6268634Y-21971055D01*
X6268634Y-21971055D02*
X6259111Y-21952008D01*
X6259111Y-21952008D02*
X6240063Y-21923436D01*
X6240063Y-21923436D02*
X6230539Y-21913912D01*
D19*
X1105000Y-22246000D02*
X1265000Y-22406000D01*
X1265000Y-22246000D02*
X1105000Y-22406000D01*
X1185000Y-22406000D02*
X1265000Y-22326000D01*
X1185000Y-22246000D01*
X1105000Y-22326000D01*
X1185000Y-22406000D01*
D11*
X1630539Y-22417484D02*
X1516253Y-22417484D01*
X1573396Y-22417484D02*
X1573396Y-22217484D01*
X1573396Y-22217484D02*
X1554348Y-22246055D01*
X1554348Y-22246055D02*
X1535301Y-22265103D01*
X1535301Y-22265103D02*
X1516253Y-22274627D01*
X1716253Y-22398436D02*
X1725777Y-22407960D01*
X1725777Y-22407960D02*
X1716253Y-22417484D01*
X1716253Y-22417484D02*
X1706729Y-22407960D01*
X1706729Y-22407960D02*
X1716253Y-22398436D01*
X1716253Y-22398436D02*
X1716253Y-22417484D01*
X1897205Y-22217484D02*
X1859110Y-22217484D01*
X1859110Y-22217484D02*
X1840062Y-22227008D01*
X1840062Y-22227008D02*
X1830539Y-22236531D01*
X1830539Y-22236531D02*
X1811491Y-22265103D01*
X1811491Y-22265103D02*
X1801967Y-22303198D01*
X1801967Y-22303198D02*
X1801967Y-22379388D01*
X1801967Y-22379388D02*
X1811491Y-22398436D01*
X1811491Y-22398436D02*
X1821015Y-22407960D01*
X1821015Y-22407960D02*
X1840062Y-22417484D01*
X1840062Y-22417484D02*
X1878158Y-22417484D01*
X1878158Y-22417484D02*
X1897205Y-22407960D01*
X1897205Y-22407960D02*
X1906729Y-22398436D01*
X1906729Y-22398436D02*
X1916253Y-22379388D01*
X1916253Y-22379388D02*
X1916253Y-22331770D01*
X1916253Y-22331770D02*
X1906729Y-22312722D01*
X1906729Y-22312722D02*
X1897205Y-22303198D01*
X1897205Y-22303198D02*
X1878158Y-22293674D01*
X1878158Y-22293674D02*
X1840062Y-22293674D01*
X1840062Y-22293674D02*
X1821015Y-22303198D01*
X1821015Y-22303198D02*
X1811491Y-22312722D01*
X1811491Y-22312722D02*
X1801967Y-22331770D01*
X2040062Y-22217484D02*
X2059110Y-22217484D01*
X2059110Y-22217484D02*
X2078158Y-22227008D01*
X2078158Y-22227008D02*
X2087682Y-22236531D01*
X2087682Y-22236531D02*
X2097205Y-22255579D01*
X2097205Y-22255579D02*
X2106729Y-22293674D01*
X2106729Y-22293674D02*
X2106729Y-22341293D01*
X2106729Y-22341293D02*
X2097205Y-22379388D01*
X2097205Y-22379388D02*
X2087682Y-22398436D01*
X2087682Y-22398436D02*
X2078158Y-22407960D01*
X2078158Y-22407960D02*
X2059110Y-22417484D01*
X2059110Y-22417484D02*
X2040062Y-22417484D01*
X2040062Y-22417484D02*
X2021015Y-22407960D01*
X2021015Y-22407960D02*
X2011491Y-22398436D01*
X2011491Y-22398436D02*
X2001967Y-22379388D01*
X2001967Y-22379388D02*
X1992443Y-22341293D01*
X1992443Y-22341293D02*
X1992443Y-22293674D01*
X1992443Y-22293674D02*
X2001967Y-22255579D01*
X2001967Y-22255579D02*
X2011491Y-22236531D01*
X2011491Y-22236531D02*
X2021015Y-22227008D01*
X2021015Y-22227008D02*
X2040062Y-22217484D01*
X2230539Y-22217484D02*
X2249586Y-22217484D01*
X2249586Y-22217484D02*
X2268634Y-22227008D01*
X2268634Y-22227008D02*
X2278158Y-22236531D01*
X2278158Y-22236531D02*
X2287682Y-22255579D01*
X2287682Y-22255579D02*
X2297205Y-22293674D01*
X2297205Y-22293674D02*
X2297205Y-22341293D01*
X2297205Y-22341293D02*
X2287682Y-22379388D01*
X2287682Y-22379388D02*
X2278158Y-22398436D01*
X2278158Y-22398436D02*
X2268634Y-22407960D01*
X2268634Y-22407960D02*
X2249586Y-22417484D01*
X2249586Y-22417484D02*
X2230539Y-22417484D01*
X2230539Y-22417484D02*
X2211491Y-22407960D01*
X2211491Y-22407960D02*
X2201967Y-22398436D01*
X2201967Y-22398436D02*
X2192444Y-22379388D01*
X2192444Y-22379388D02*
X2182920Y-22341293D01*
X2182920Y-22341293D02*
X2182920Y-22293674D01*
X2182920Y-22293674D02*
X2192444Y-22255579D01*
X2192444Y-22255579D02*
X2201967Y-22236531D01*
X2201967Y-22236531D02*
X2211491Y-22227008D01*
X2211491Y-22227008D02*
X2230539Y-22217484D01*
X2382920Y-22417484D02*
X2382920Y-22284150D01*
X2382920Y-22303198D02*
X2392444Y-22293674D01*
X2392444Y-22293674D02*
X2411491Y-22284150D01*
X2411491Y-22284150D02*
X2440063Y-22284150D01*
X2440063Y-22284150D02*
X2459110Y-22293674D01*
X2459110Y-22293674D02*
X2468634Y-22312722D01*
X2468634Y-22312722D02*
X2468634Y-22417484D01*
X2468634Y-22312722D02*
X2478158Y-22293674D01*
X2478158Y-22293674D02*
X2497205Y-22284150D01*
X2497205Y-22284150D02*
X2525777Y-22284150D01*
X2525777Y-22284150D02*
X2544825Y-22293674D01*
X2544825Y-22293674D02*
X2554348Y-22312722D01*
X2554348Y-22312722D02*
X2554348Y-22417484D01*
X2649586Y-22417484D02*
X2649586Y-22284150D01*
X2649586Y-22303198D02*
X2659110Y-22293674D01*
X2659110Y-22293674D02*
X2678158Y-22284150D01*
X2678158Y-22284150D02*
X2706729Y-22284150D01*
X2706729Y-22284150D02*
X2725777Y-22293674D01*
X2725777Y-22293674D02*
X2735301Y-22312722D01*
X2735301Y-22312722D02*
X2735301Y-22417484D01*
X2735301Y-22312722D02*
X2744825Y-22293674D01*
X2744825Y-22293674D02*
X2763872Y-22284150D01*
X2763872Y-22284150D02*
X2792444Y-22284150D01*
X2792444Y-22284150D02*
X2811491Y-22293674D01*
X2811491Y-22293674D02*
X2821015Y-22312722D01*
X2821015Y-22312722D02*
X2821015Y-22417484D01*
X3211491Y-22207960D02*
X3040063Y-22465103D01*
X3468634Y-22217484D02*
X3487682Y-22217484D01*
X3487682Y-22217484D02*
X3506729Y-22227008D01*
X3506729Y-22227008D02*
X3516253Y-22236531D01*
X3516253Y-22236531D02*
X3525777Y-22255579D01*
X3525777Y-22255579D02*
X3535301Y-22293674D01*
X3535301Y-22293674D02*
X3535301Y-22341293D01*
X3535301Y-22341293D02*
X3525777Y-22379388D01*
X3525777Y-22379388D02*
X3516253Y-22398436D01*
X3516253Y-22398436D02*
X3506729Y-22407960D01*
X3506729Y-22407960D02*
X3487682Y-22417484D01*
X3487682Y-22417484D02*
X3468634Y-22417484D01*
X3468634Y-22417484D02*
X3449586Y-22407960D01*
X3449586Y-22407960D02*
X3440063Y-22398436D01*
X3440063Y-22398436D02*
X3430539Y-22379388D01*
X3430539Y-22379388D02*
X3421015Y-22341293D01*
X3421015Y-22341293D02*
X3421015Y-22293674D01*
X3421015Y-22293674D02*
X3430539Y-22255579D01*
X3430539Y-22255579D02*
X3440063Y-22236531D01*
X3440063Y-22236531D02*
X3449586Y-22227008D01*
X3449586Y-22227008D02*
X3468634Y-22217484D01*
X3621015Y-22398436D02*
X3630539Y-22407960D01*
X3630539Y-22407960D02*
X3621015Y-22417484D01*
X3621015Y-22417484D02*
X3611491Y-22407960D01*
X3611491Y-22407960D02*
X3621015Y-22398436D01*
X3621015Y-22398436D02*
X3621015Y-22417484D01*
X3754348Y-22217484D02*
X3773396Y-22217484D01*
X3773396Y-22217484D02*
X3792444Y-22227008D01*
X3792444Y-22227008D02*
X3801967Y-22236531D01*
X3801967Y-22236531D02*
X3811491Y-22255579D01*
X3811491Y-22255579D02*
X3821015Y-22293674D01*
X3821015Y-22293674D02*
X3821015Y-22341293D01*
X3821015Y-22341293D02*
X3811491Y-22379388D01*
X3811491Y-22379388D02*
X3801967Y-22398436D01*
X3801967Y-22398436D02*
X3792444Y-22407960D01*
X3792444Y-22407960D02*
X3773396Y-22417484D01*
X3773396Y-22417484D02*
X3754348Y-22417484D01*
X3754348Y-22417484D02*
X3735301Y-22407960D01*
X3735301Y-22407960D02*
X3725777Y-22398436D01*
X3725777Y-22398436D02*
X3716253Y-22379388D01*
X3716253Y-22379388D02*
X3706729Y-22341293D01*
X3706729Y-22341293D02*
X3706729Y-22293674D01*
X3706729Y-22293674D02*
X3716253Y-22255579D01*
X3716253Y-22255579D02*
X3725777Y-22236531D01*
X3725777Y-22236531D02*
X3735301Y-22227008D01*
X3735301Y-22227008D02*
X3754348Y-22217484D01*
X3992444Y-22217484D02*
X3954348Y-22217484D01*
X3954348Y-22217484D02*
X3935301Y-22227008D01*
X3935301Y-22227008D02*
X3925777Y-22236531D01*
X3925777Y-22236531D02*
X3906729Y-22265103D01*
X3906729Y-22265103D02*
X3897206Y-22303198D01*
X3897206Y-22303198D02*
X3897206Y-22379388D01*
X3897206Y-22379388D02*
X3906729Y-22398436D01*
X3906729Y-22398436D02*
X3916253Y-22407960D01*
X3916253Y-22407960D02*
X3935301Y-22417484D01*
X3935301Y-22417484D02*
X3973396Y-22417484D01*
X3973396Y-22417484D02*
X3992444Y-22407960D01*
X3992444Y-22407960D02*
X4001967Y-22398436D01*
X4001967Y-22398436D02*
X4011491Y-22379388D01*
X4011491Y-22379388D02*
X4011491Y-22331770D01*
X4011491Y-22331770D02*
X4001967Y-22312722D01*
X4001967Y-22312722D02*
X3992444Y-22303198D01*
X3992444Y-22303198D02*
X3973396Y-22293674D01*
X3973396Y-22293674D02*
X3935301Y-22293674D01*
X3935301Y-22293674D02*
X3916253Y-22303198D01*
X3916253Y-22303198D02*
X3906729Y-22312722D01*
X3906729Y-22312722D02*
X3897206Y-22331770D01*
X4078158Y-22217484D02*
X4201968Y-22217484D01*
X4201968Y-22217484D02*
X4135301Y-22293674D01*
X4135301Y-22293674D02*
X4163872Y-22293674D01*
X4163872Y-22293674D02*
X4182920Y-22303198D01*
X4182920Y-22303198D02*
X4192444Y-22312722D01*
X4192444Y-22312722D02*
X4201968Y-22331770D01*
X4201968Y-22331770D02*
X4201968Y-22379388D01*
X4201968Y-22379388D02*
X4192444Y-22398436D01*
X4192444Y-22398436D02*
X4182920Y-22407960D01*
X4182920Y-22407960D02*
X4163872Y-22417484D01*
X4163872Y-22417484D02*
X4106729Y-22417484D01*
X4106729Y-22417484D02*
X4087682Y-22407960D01*
X4087682Y-22407960D02*
X4078158Y-22398436D01*
X4325777Y-22217484D02*
X4344825Y-22217484D01*
X4344825Y-22217484D02*
X4363872Y-22227008D01*
X4363872Y-22227008D02*
X4373396Y-22236531D01*
X4373396Y-22236531D02*
X4382920Y-22255579D01*
X4382920Y-22255579D02*
X4392444Y-22293674D01*
X4392444Y-22293674D02*
X4392444Y-22341293D01*
X4392444Y-22341293D02*
X4382920Y-22379388D01*
X4382920Y-22379388D02*
X4373396Y-22398436D01*
X4373396Y-22398436D02*
X4363872Y-22407960D01*
X4363872Y-22407960D02*
X4344825Y-22417484D01*
X4344825Y-22417484D02*
X4325777Y-22417484D01*
X4325777Y-22417484D02*
X4306729Y-22407960D01*
X4306729Y-22407960D02*
X4297206Y-22398436D01*
X4297206Y-22398436D02*
X4287682Y-22379388D01*
X4287682Y-22379388D02*
X4278158Y-22341293D01*
X4278158Y-22341293D02*
X4278158Y-22293674D01*
X4278158Y-22293674D02*
X4287682Y-22255579D01*
X4287682Y-22255579D02*
X4297206Y-22236531D01*
X4297206Y-22236531D02*
X4306729Y-22227008D01*
X4306729Y-22227008D02*
X4325777Y-22217484D01*
X4468634Y-22217484D02*
X4468634Y-22255579D01*
X4544825Y-22217484D02*
X4544825Y-22255579D01*
X4840063Y-22493674D02*
X4830539Y-22484150D01*
X4830539Y-22484150D02*
X4811491Y-22455579D01*
X4811491Y-22455579D02*
X4801968Y-22436531D01*
X4801968Y-22436531D02*
X4792444Y-22407960D01*
X4792444Y-22407960D02*
X4782920Y-22360341D01*
X4782920Y-22360341D02*
X4782920Y-22322246D01*
X4782920Y-22322246D02*
X4792444Y-22274627D01*
X4792444Y-22274627D02*
X4801968Y-22246055D01*
X4801968Y-22246055D02*
X4811491Y-22227008D01*
X4811491Y-22227008D02*
X4830539Y-22198436D01*
X4830539Y-22198436D02*
X4840063Y-22188912D01*
X4906730Y-22236531D02*
X4916253Y-22227008D01*
X4916253Y-22227008D02*
X4935301Y-22217484D01*
X4935301Y-22217484D02*
X4982920Y-22217484D01*
X4982920Y-22217484D02*
X5001968Y-22227008D01*
X5001968Y-22227008D02*
X5011491Y-22236531D01*
X5011491Y-22236531D02*
X5021015Y-22255579D01*
X5021015Y-22255579D02*
X5021015Y-22274627D01*
X5021015Y-22274627D02*
X5011491Y-22303198D01*
X5011491Y-22303198D02*
X4897206Y-22417484D01*
X4897206Y-22417484D02*
X5021015Y-22417484D01*
X5135301Y-22303198D02*
X5116253Y-22293674D01*
X5116253Y-22293674D02*
X5106730Y-22284150D01*
X5106730Y-22284150D02*
X5097206Y-22265103D01*
X5097206Y-22265103D02*
X5097206Y-22255579D01*
X5097206Y-22255579D02*
X5106730Y-22236531D01*
X5106730Y-22236531D02*
X5116253Y-22227008D01*
X5116253Y-22227008D02*
X5135301Y-22217484D01*
X5135301Y-22217484D02*
X5173396Y-22217484D01*
X5173396Y-22217484D02*
X5192444Y-22227008D01*
X5192444Y-22227008D02*
X5201968Y-22236531D01*
X5201968Y-22236531D02*
X5211491Y-22255579D01*
X5211491Y-22255579D02*
X5211491Y-22265103D01*
X5211491Y-22265103D02*
X5201968Y-22284150D01*
X5201968Y-22284150D02*
X5192444Y-22293674D01*
X5192444Y-22293674D02*
X5173396Y-22303198D01*
X5173396Y-22303198D02*
X5135301Y-22303198D01*
X5135301Y-22303198D02*
X5116253Y-22312722D01*
X5116253Y-22312722D02*
X5106730Y-22322246D01*
X5106730Y-22322246D02*
X5097206Y-22341293D01*
X5097206Y-22341293D02*
X5097206Y-22379388D01*
X5097206Y-22379388D02*
X5106730Y-22398436D01*
X5106730Y-22398436D02*
X5116253Y-22407960D01*
X5116253Y-22407960D02*
X5135301Y-22417484D01*
X5135301Y-22417484D02*
X5173396Y-22417484D01*
X5173396Y-22417484D02*
X5192444Y-22407960D01*
X5192444Y-22407960D02*
X5201968Y-22398436D01*
X5201968Y-22398436D02*
X5211491Y-22379388D01*
X5211491Y-22379388D02*
X5211491Y-22341293D01*
X5211491Y-22341293D02*
X5201968Y-22322246D01*
X5201968Y-22322246D02*
X5192444Y-22312722D01*
X5192444Y-22312722D02*
X5173396Y-22303198D01*
X5449587Y-22417484D02*
X5449587Y-22217484D01*
X5535301Y-22417484D02*
X5535301Y-22312722D01*
X5535301Y-22312722D02*
X5525777Y-22293674D01*
X5525777Y-22293674D02*
X5506730Y-22284150D01*
X5506730Y-22284150D02*
X5478158Y-22284150D01*
X5478158Y-22284150D02*
X5459111Y-22293674D01*
X5459111Y-22293674D02*
X5449587Y-22303198D01*
X5659110Y-22417484D02*
X5640063Y-22407960D01*
X5640063Y-22407960D02*
X5630539Y-22398436D01*
X5630539Y-22398436D02*
X5621015Y-22379388D01*
X5621015Y-22379388D02*
X5621015Y-22322246D01*
X5621015Y-22322246D02*
X5630539Y-22303198D01*
X5630539Y-22303198D02*
X5640063Y-22293674D01*
X5640063Y-22293674D02*
X5659110Y-22284150D01*
X5659110Y-22284150D02*
X5687682Y-22284150D01*
X5687682Y-22284150D02*
X5706730Y-22293674D01*
X5706730Y-22293674D02*
X5716253Y-22303198D01*
X5716253Y-22303198D02*
X5725777Y-22322246D01*
X5725777Y-22322246D02*
X5725777Y-22379388D01*
X5725777Y-22379388D02*
X5716253Y-22398436D01*
X5716253Y-22398436D02*
X5706730Y-22407960D01*
X5706730Y-22407960D02*
X5687682Y-22417484D01*
X5687682Y-22417484D02*
X5659110Y-22417484D01*
X5840063Y-22417484D02*
X5821015Y-22407960D01*
X5821015Y-22407960D02*
X5811491Y-22388912D01*
X5811491Y-22388912D02*
X5811491Y-22217484D01*
X5992444Y-22407960D02*
X5973396Y-22417484D01*
X5973396Y-22417484D02*
X5935301Y-22417484D01*
X5935301Y-22417484D02*
X5916253Y-22407960D01*
X5916253Y-22407960D02*
X5906730Y-22388912D01*
X5906730Y-22388912D02*
X5906730Y-22312722D01*
X5906730Y-22312722D02*
X5916253Y-22293674D01*
X5916253Y-22293674D02*
X5935301Y-22284150D01*
X5935301Y-22284150D02*
X5973396Y-22284150D01*
X5973396Y-22284150D02*
X5992444Y-22293674D01*
X5992444Y-22293674D02*
X6001968Y-22312722D01*
X6001968Y-22312722D02*
X6001968Y-22331770D01*
X6001968Y-22331770D02*
X5906730Y-22350817D01*
X6078158Y-22407960D02*
X6097206Y-22417484D01*
X6097206Y-22417484D02*
X6135301Y-22417484D01*
X6135301Y-22417484D02*
X6154349Y-22407960D01*
X6154349Y-22407960D02*
X6163872Y-22388912D01*
X6163872Y-22388912D02*
X6163872Y-22379388D01*
X6163872Y-22379388D02*
X6154349Y-22360341D01*
X6154349Y-22360341D02*
X6135301Y-22350817D01*
X6135301Y-22350817D02*
X6106730Y-22350817D01*
X6106730Y-22350817D02*
X6087682Y-22341293D01*
X6087682Y-22341293D02*
X6078158Y-22322246D01*
X6078158Y-22322246D02*
X6078158Y-22312722D01*
X6078158Y-22312722D02*
X6087682Y-22293674D01*
X6087682Y-22293674D02*
X6106730Y-22284150D01*
X6106730Y-22284150D02*
X6135301Y-22284150D01*
X6135301Y-22284150D02*
X6154349Y-22293674D01*
X6230539Y-22493674D02*
X6240063Y-22484150D01*
X6240063Y-22484150D02*
X6259111Y-22455579D01*
X6259111Y-22455579D02*
X6268634Y-22436531D01*
X6268634Y-22436531D02*
X6278158Y-22407960D01*
X6278158Y-22407960D02*
X6287682Y-22360341D01*
X6287682Y-22360341D02*
X6287682Y-22322246D01*
X6287682Y-22322246D02*
X6278158Y-22274627D01*
X6278158Y-22274627D02*
X6268634Y-22246055D01*
X6268634Y-22246055D02*
X6259111Y-22227008D01*
X6259111Y-22227008D02*
X6240063Y-22198436D01*
X6240063Y-22198436D02*
X6230539Y-22188912D01*
X1165000Y-22506000D02*
X1165000Y-22706000D01*
X1065000Y-22606000D02*
X1265000Y-22606000D01*
X1265000Y-22606000D02*
G75*
G03*
X1265000Y-22606000I-100000J0D01*
G01*
X1506729Y-22497484D02*
X1630539Y-22497484D01*
X1630539Y-22497484D02*
X1563872Y-22573674D01*
X1563872Y-22573674D02*
X1592443Y-22573674D01*
X1592443Y-22573674D02*
X1611491Y-22583198D01*
X1611491Y-22583198D02*
X1621015Y-22592722D01*
X1621015Y-22592722D02*
X1630539Y-22611769D01*
X1630539Y-22611769D02*
X1630539Y-22659388D01*
X1630539Y-22659388D02*
X1621015Y-22678436D01*
X1621015Y-22678436D02*
X1611491Y-22687960D01*
X1611491Y-22687960D02*
X1592443Y-22697484D01*
X1592443Y-22697484D02*
X1535301Y-22697484D01*
X1535301Y-22697484D02*
X1516253Y-22687960D01*
X1516253Y-22687960D02*
X1506729Y-22678436D01*
X1716253Y-22678436D02*
X1725777Y-22687960D01*
X1725777Y-22687960D02*
X1716253Y-22697484D01*
X1716253Y-22697484D02*
X1706729Y-22687960D01*
X1706729Y-22687960D02*
X1716253Y-22678436D01*
X1716253Y-22678436D02*
X1716253Y-22697484D01*
X1801967Y-22516531D02*
X1811491Y-22507008D01*
X1811491Y-22507008D02*
X1830539Y-22497484D01*
X1830539Y-22497484D02*
X1878158Y-22497484D01*
X1878158Y-22497484D02*
X1897205Y-22507008D01*
X1897205Y-22507008D02*
X1906729Y-22516531D01*
X1906729Y-22516531D02*
X1916253Y-22535579D01*
X1916253Y-22535579D02*
X1916253Y-22554627D01*
X1916253Y-22554627D02*
X1906729Y-22583198D01*
X1906729Y-22583198D02*
X1792443Y-22697484D01*
X1792443Y-22697484D02*
X1916253Y-22697484D01*
X2040062Y-22497484D02*
X2059110Y-22497484D01*
X2059110Y-22497484D02*
X2078158Y-22507008D01*
X2078158Y-22507008D02*
X2087682Y-22516531D01*
X2087682Y-22516531D02*
X2097205Y-22535579D01*
X2097205Y-22535579D02*
X2106729Y-22573674D01*
X2106729Y-22573674D02*
X2106729Y-22621293D01*
X2106729Y-22621293D02*
X2097205Y-22659388D01*
X2097205Y-22659388D02*
X2087682Y-22678436D01*
X2087682Y-22678436D02*
X2078158Y-22687960D01*
X2078158Y-22687960D02*
X2059110Y-22697484D01*
X2059110Y-22697484D02*
X2040062Y-22697484D01*
X2040062Y-22697484D02*
X2021015Y-22687960D01*
X2021015Y-22687960D02*
X2011491Y-22678436D01*
X2011491Y-22678436D02*
X2001967Y-22659388D01*
X2001967Y-22659388D02*
X1992443Y-22621293D01*
X1992443Y-22621293D02*
X1992443Y-22573674D01*
X1992443Y-22573674D02*
X2001967Y-22535579D01*
X2001967Y-22535579D02*
X2011491Y-22516531D01*
X2011491Y-22516531D02*
X2021015Y-22507008D01*
X2021015Y-22507008D02*
X2040062Y-22497484D01*
X2230539Y-22497484D02*
X2249586Y-22497484D01*
X2249586Y-22497484D02*
X2268634Y-22507008D01*
X2268634Y-22507008D02*
X2278158Y-22516531D01*
X2278158Y-22516531D02*
X2287682Y-22535579D01*
X2287682Y-22535579D02*
X2297205Y-22573674D01*
X2297205Y-22573674D02*
X2297205Y-22621293D01*
X2297205Y-22621293D02*
X2287682Y-22659388D01*
X2287682Y-22659388D02*
X2278158Y-22678436D01*
X2278158Y-22678436D02*
X2268634Y-22687960D01*
X2268634Y-22687960D02*
X2249586Y-22697484D01*
X2249586Y-22697484D02*
X2230539Y-22697484D01*
X2230539Y-22697484D02*
X2211491Y-22687960D01*
X2211491Y-22687960D02*
X2201967Y-22678436D01*
X2201967Y-22678436D02*
X2192444Y-22659388D01*
X2192444Y-22659388D02*
X2182920Y-22621293D01*
X2182920Y-22621293D02*
X2182920Y-22573674D01*
X2182920Y-22573674D02*
X2192444Y-22535579D01*
X2192444Y-22535579D02*
X2201967Y-22516531D01*
X2201967Y-22516531D02*
X2211491Y-22507008D01*
X2211491Y-22507008D02*
X2230539Y-22497484D01*
X2382920Y-22697484D02*
X2382920Y-22564150D01*
X2382920Y-22583198D02*
X2392444Y-22573674D01*
X2392444Y-22573674D02*
X2411491Y-22564150D01*
X2411491Y-22564150D02*
X2440063Y-22564150D01*
X2440063Y-22564150D02*
X2459110Y-22573674D01*
X2459110Y-22573674D02*
X2468634Y-22592722D01*
X2468634Y-22592722D02*
X2468634Y-22697484D01*
X2468634Y-22592722D02*
X2478158Y-22573674D01*
X2478158Y-22573674D02*
X2497205Y-22564150D01*
X2497205Y-22564150D02*
X2525777Y-22564150D01*
X2525777Y-22564150D02*
X2544825Y-22573674D01*
X2544825Y-22573674D02*
X2554348Y-22592722D01*
X2554348Y-22592722D02*
X2554348Y-22697484D01*
X2649586Y-22697484D02*
X2649586Y-22564150D01*
X2649586Y-22583198D02*
X2659110Y-22573674D01*
X2659110Y-22573674D02*
X2678158Y-22564150D01*
X2678158Y-22564150D02*
X2706729Y-22564150D01*
X2706729Y-22564150D02*
X2725777Y-22573674D01*
X2725777Y-22573674D02*
X2735301Y-22592722D01*
X2735301Y-22592722D02*
X2735301Y-22697484D01*
X2735301Y-22592722D02*
X2744825Y-22573674D01*
X2744825Y-22573674D02*
X2763872Y-22564150D01*
X2763872Y-22564150D02*
X2792444Y-22564150D01*
X2792444Y-22564150D02*
X2811491Y-22573674D01*
X2811491Y-22573674D02*
X2821015Y-22592722D01*
X2821015Y-22592722D02*
X2821015Y-22697484D01*
X3211491Y-22487960D02*
X3040063Y-22745103D01*
X3468634Y-22497484D02*
X3487682Y-22497484D01*
X3487682Y-22497484D02*
X3506729Y-22507008D01*
X3506729Y-22507008D02*
X3516253Y-22516531D01*
X3516253Y-22516531D02*
X3525777Y-22535579D01*
X3525777Y-22535579D02*
X3535301Y-22573674D01*
X3535301Y-22573674D02*
X3535301Y-22621293D01*
X3535301Y-22621293D02*
X3525777Y-22659388D01*
X3525777Y-22659388D02*
X3516253Y-22678436D01*
X3516253Y-22678436D02*
X3506729Y-22687960D01*
X3506729Y-22687960D02*
X3487682Y-22697484D01*
X3487682Y-22697484D02*
X3468634Y-22697484D01*
X3468634Y-22697484D02*
X3449586Y-22687960D01*
X3449586Y-22687960D02*
X3440063Y-22678436D01*
X3440063Y-22678436D02*
X3430539Y-22659388D01*
X3430539Y-22659388D02*
X3421015Y-22621293D01*
X3421015Y-22621293D02*
X3421015Y-22573674D01*
X3421015Y-22573674D02*
X3430539Y-22535579D01*
X3430539Y-22535579D02*
X3440063Y-22516531D01*
X3440063Y-22516531D02*
X3449586Y-22507008D01*
X3449586Y-22507008D02*
X3468634Y-22497484D01*
X3621015Y-22678436D02*
X3630539Y-22687960D01*
X3630539Y-22687960D02*
X3621015Y-22697484D01*
X3621015Y-22697484D02*
X3611491Y-22687960D01*
X3611491Y-22687960D02*
X3621015Y-22678436D01*
X3621015Y-22678436D02*
X3621015Y-22697484D01*
X3821015Y-22697484D02*
X3706729Y-22697484D01*
X3763872Y-22697484D02*
X3763872Y-22497484D01*
X3763872Y-22497484D02*
X3744825Y-22526055D01*
X3744825Y-22526055D02*
X3725777Y-22545103D01*
X3725777Y-22545103D02*
X3706729Y-22554627D01*
X3897206Y-22516531D02*
X3906729Y-22507008D01*
X3906729Y-22507008D02*
X3925777Y-22497484D01*
X3925777Y-22497484D02*
X3973396Y-22497484D01*
X3973396Y-22497484D02*
X3992444Y-22507008D01*
X3992444Y-22507008D02*
X4001967Y-22516531D01*
X4001967Y-22516531D02*
X4011491Y-22535579D01*
X4011491Y-22535579D02*
X4011491Y-22554627D01*
X4011491Y-22554627D02*
X4001967Y-22583198D01*
X4001967Y-22583198D02*
X3887682Y-22697484D01*
X3887682Y-22697484D02*
X4011491Y-22697484D01*
X4182920Y-22497484D02*
X4144825Y-22497484D01*
X4144825Y-22497484D02*
X4125777Y-22507008D01*
X4125777Y-22507008D02*
X4116253Y-22516531D01*
X4116253Y-22516531D02*
X4097206Y-22545103D01*
X4097206Y-22545103D02*
X4087682Y-22583198D01*
X4087682Y-22583198D02*
X4087682Y-22659388D01*
X4087682Y-22659388D02*
X4097206Y-22678436D01*
X4097206Y-22678436D02*
X4106729Y-22687960D01*
X4106729Y-22687960D02*
X4125777Y-22697484D01*
X4125777Y-22697484D02*
X4163872Y-22697484D01*
X4163872Y-22697484D02*
X4182920Y-22687960D01*
X4182920Y-22687960D02*
X4192444Y-22678436D01*
X4192444Y-22678436D02*
X4201968Y-22659388D01*
X4201968Y-22659388D02*
X4201968Y-22611769D01*
X4201968Y-22611769D02*
X4192444Y-22592722D01*
X4192444Y-22592722D02*
X4182920Y-22583198D01*
X4182920Y-22583198D02*
X4163872Y-22573674D01*
X4163872Y-22573674D02*
X4125777Y-22573674D01*
X4125777Y-22573674D02*
X4106729Y-22583198D01*
X4106729Y-22583198D02*
X4097206Y-22592722D01*
X4097206Y-22592722D02*
X4087682Y-22611769D01*
X4325777Y-22497484D02*
X4344825Y-22497484D01*
X4344825Y-22497484D02*
X4363872Y-22507008D01*
X4363872Y-22507008D02*
X4373396Y-22516531D01*
X4373396Y-22516531D02*
X4382920Y-22535579D01*
X4382920Y-22535579D02*
X4392444Y-22573674D01*
X4392444Y-22573674D02*
X4392444Y-22621293D01*
X4392444Y-22621293D02*
X4382920Y-22659388D01*
X4382920Y-22659388D02*
X4373396Y-22678436D01*
X4373396Y-22678436D02*
X4363872Y-22687960D01*
X4363872Y-22687960D02*
X4344825Y-22697484D01*
X4344825Y-22697484D02*
X4325777Y-22697484D01*
X4325777Y-22697484D02*
X4306729Y-22687960D01*
X4306729Y-22687960D02*
X4297206Y-22678436D01*
X4297206Y-22678436D02*
X4287682Y-22659388D01*
X4287682Y-22659388D02*
X4278158Y-22621293D01*
X4278158Y-22621293D02*
X4278158Y-22573674D01*
X4278158Y-22573674D02*
X4287682Y-22535579D01*
X4287682Y-22535579D02*
X4297206Y-22516531D01*
X4297206Y-22516531D02*
X4306729Y-22507008D01*
X4306729Y-22507008D02*
X4325777Y-22497484D01*
X4468634Y-22497484D02*
X4468634Y-22535579D01*
X4544825Y-22497484D02*
X4544825Y-22535579D01*
X4840063Y-22773674D02*
X4830539Y-22764150D01*
X4830539Y-22764150D02*
X4811491Y-22735579D01*
X4811491Y-22735579D02*
X4801968Y-22716531D01*
X4801968Y-22716531D02*
X4792444Y-22687960D01*
X4792444Y-22687960D02*
X4782920Y-22640341D01*
X4782920Y-22640341D02*
X4782920Y-22602246D01*
X4782920Y-22602246D02*
X4792444Y-22554627D01*
X4792444Y-22554627D02*
X4801968Y-22526055D01*
X4801968Y-22526055D02*
X4811491Y-22507008D01*
X4811491Y-22507008D02*
X4830539Y-22478436D01*
X4830539Y-22478436D02*
X4840063Y-22468912D01*
X5001968Y-22497484D02*
X4963872Y-22497484D01*
X4963872Y-22497484D02*
X4944825Y-22507008D01*
X4944825Y-22507008D02*
X4935301Y-22516531D01*
X4935301Y-22516531D02*
X4916253Y-22545103D01*
X4916253Y-22545103D02*
X4906730Y-22583198D01*
X4906730Y-22583198D02*
X4906730Y-22659388D01*
X4906730Y-22659388D02*
X4916253Y-22678436D01*
X4916253Y-22678436D02*
X4925777Y-22687960D01*
X4925777Y-22687960D02*
X4944825Y-22697484D01*
X4944825Y-22697484D02*
X4982920Y-22697484D01*
X4982920Y-22697484D02*
X5001968Y-22687960D01*
X5001968Y-22687960D02*
X5011491Y-22678436D01*
X5011491Y-22678436D02*
X5021015Y-22659388D01*
X5021015Y-22659388D02*
X5021015Y-22611769D01*
X5021015Y-22611769D02*
X5011491Y-22592722D01*
X5011491Y-22592722D02*
X5001968Y-22583198D01*
X5001968Y-22583198D02*
X4982920Y-22573674D01*
X4982920Y-22573674D02*
X4944825Y-22573674D01*
X4944825Y-22573674D02*
X4925777Y-22583198D01*
X4925777Y-22583198D02*
X4916253Y-22592722D01*
X4916253Y-22592722D02*
X4906730Y-22611769D01*
X5259111Y-22697484D02*
X5259111Y-22497484D01*
X5344825Y-22697484D02*
X5344825Y-22592722D01*
X5344825Y-22592722D02*
X5335301Y-22573674D01*
X5335301Y-22573674D02*
X5316253Y-22564150D01*
X5316253Y-22564150D02*
X5287682Y-22564150D01*
X5287682Y-22564150D02*
X5268634Y-22573674D01*
X5268634Y-22573674D02*
X5259111Y-22583198D01*
X5468634Y-22697484D02*
X5449587Y-22687960D01*
X5449587Y-22687960D02*
X5440063Y-22678436D01*
X5440063Y-22678436D02*
X5430539Y-22659388D01*
X5430539Y-22659388D02*
X5430539Y-22602246D01*
X5430539Y-22602246D02*
X5440063Y-22583198D01*
X5440063Y-22583198D02*
X5449587Y-22573674D01*
X5449587Y-22573674D02*
X5468634Y-22564150D01*
X5468634Y-22564150D02*
X5497206Y-22564150D01*
X5497206Y-22564150D02*
X5516253Y-22573674D01*
X5516253Y-22573674D02*
X5525777Y-22583198D01*
X5525777Y-22583198D02*
X5535301Y-22602246D01*
X5535301Y-22602246D02*
X5535301Y-22659388D01*
X5535301Y-22659388D02*
X5525777Y-22678436D01*
X5525777Y-22678436D02*
X5516253Y-22687960D01*
X5516253Y-22687960D02*
X5497206Y-22697484D01*
X5497206Y-22697484D02*
X5468634Y-22697484D01*
X5649587Y-22697484D02*
X5630539Y-22687960D01*
X5630539Y-22687960D02*
X5621015Y-22668912D01*
X5621015Y-22668912D02*
X5621015Y-22497484D01*
X5801968Y-22687960D02*
X5782920Y-22697484D01*
X5782920Y-22697484D02*
X5744825Y-22697484D01*
X5744825Y-22697484D02*
X5725777Y-22687960D01*
X5725777Y-22687960D02*
X5716253Y-22668912D01*
X5716253Y-22668912D02*
X5716253Y-22592722D01*
X5716253Y-22592722D02*
X5725777Y-22573674D01*
X5725777Y-22573674D02*
X5744825Y-22564150D01*
X5744825Y-22564150D02*
X5782920Y-22564150D01*
X5782920Y-22564150D02*
X5801968Y-22573674D01*
X5801968Y-22573674D02*
X5811491Y-22592722D01*
X5811491Y-22592722D02*
X5811491Y-22611769D01*
X5811491Y-22611769D02*
X5716253Y-22630817D01*
X5887682Y-22687960D02*
X5906730Y-22697484D01*
X5906730Y-22697484D02*
X5944825Y-22697484D01*
X5944825Y-22697484D02*
X5963872Y-22687960D01*
X5963872Y-22687960D02*
X5973396Y-22668912D01*
X5973396Y-22668912D02*
X5973396Y-22659388D01*
X5973396Y-22659388D02*
X5963872Y-22640341D01*
X5963872Y-22640341D02*
X5944825Y-22630817D01*
X5944825Y-22630817D02*
X5916253Y-22630817D01*
X5916253Y-22630817D02*
X5897206Y-22621293D01*
X5897206Y-22621293D02*
X5887682Y-22602246D01*
X5887682Y-22602246D02*
X5887682Y-22592722D01*
X5887682Y-22592722D02*
X5897206Y-22573674D01*
X5897206Y-22573674D02*
X5916253Y-22564150D01*
X5916253Y-22564150D02*
X5944825Y-22564150D01*
X5944825Y-22564150D02*
X5963872Y-22573674D01*
X6040063Y-22773674D02*
X6049587Y-22764150D01*
X6049587Y-22764150D02*
X6068634Y-22735579D01*
X6068634Y-22735579D02*
X6078158Y-22716531D01*
X6078158Y-22716531D02*
X6087682Y-22687960D01*
X6087682Y-22687960D02*
X6097206Y-22640341D01*
X6097206Y-22640341D02*
X6097206Y-22602246D01*
X6097206Y-22602246D02*
X6087682Y-22554627D01*
X6087682Y-22554627D02*
X6078158Y-22526055D01*
X6078158Y-22526055D02*
X6068634Y-22507008D01*
X6068634Y-22507008D02*
X6049587Y-22478436D01*
X6049587Y-22478436D02*
X6040063Y-22468912D01*
M02*
