M48
; DRILL file {KiCad 7.0.6} date Tue Nov 21 22:10:27 2023
; FORMAT={-:-/ absolute / inch / decimal}
; #@! TF.CreationDate,2023-11-21T22:10:27+01:00
; #@! TF.GenerationSoftware,Kicad,Pcbnew,7.0.6
; #@! TF.FileFunction,Plated,1,2,PTH
FMAT,2
INCH
; #@! TA.AperFunction,Plated,PTH,ViaDrill
T1C0.0157
; #@! TA.AperFunction,Plated,PTH,ComponentDrill
T2C0.0197
; #@! TA.AperFunction,Plated,PTH,ComponentDrill
T3C0.0276
; #@! TA.AperFunction,Plated,PTH,ComponentDrill
T4C0.0315
; #@! TA.AperFunction,Plated,PTH,ComponentDrill
T5C0.0354
; #@! TA.AperFunction,Plated,PTH,ComponentDrill
T6C0.0394
; #@! TA.AperFunction,Plated,PTH,ComponentDrill
T7C0.0472
; #@! TA.AperFunction,Plated,PTH,ComponentDrill
T8C0.0610
; #@! TA.AperFunction,Plated,PTH,ComponentDrill
T9C0.0630
; #@! TA.AperFunction,Plated,PTH,ComponentDrill
T10C0.1260
%
G90
G05
T1
X4.9719Y-4.5615
X5.1519Y-4.4615
X5.1519Y-5.3115
X5.2219Y-0.6415
X5.2219Y-1.3415
X5.2219Y-1.5515
X5.2219Y-2.2515
X5.2219Y-2.4615
X5.2219Y-3.1615
X5.2219Y-3.3715
X5.2219Y-4.0615
X5.4531Y-5.3103
X5.484Y-5.2615
X5.5119Y-5.2315
X5.5419Y-5.2015
X5.6819Y-5.1715
X5.7146Y-5.1497
X5.8019Y-5.5915
X5.8319Y-5.5615
X5.9019Y-5.0415
X5.9119Y-5.4415
X6.0143Y-5.6196
X6.0419Y-5.5915
X6.0719Y-5.5615
X6.1819Y-1.1012
X6.1819Y-1.6815
X6.2119Y-4.9415
X6.2319Y-1.0515
X6.2419Y-1.6715
X6.2419Y-4.9715
X6.2791Y-5.013
X6.3119Y-5.0415
X6.3219Y-5.0915
X6.3319Y-1.7915
X6.3519Y-2.7415
X6.4219Y-1.6815
X6.4219Y-3.6215
X6.4819Y-2.9215
X6.4919Y-3.8215
X6.5219Y-1.7315
X6.6119Y-2.0115
X6.6619Y-1.2015
X6.6919Y-1.2815
X6.7219Y-1.1415
X6.8654Y-4.4508
T2
X1.1055Y-5.9
X1.1332Y-5.8332
X1.1332Y-5.9668
X1.2Y-5.8055
X1.2Y-5.9945
X1.2668Y-5.8332
X1.2668Y-5.9668
X1.2945Y-5.9
X3.2055Y-5.9
X3.2332Y-5.8332
X3.2332Y-5.9668
X3.3Y-5.8055
X3.3Y-5.9945
X3.3668Y-5.8332
X3.3668Y-5.9668
X3.3945Y-5.9
X4.9555Y-1.45
X4.9555Y-4.1472
X4.9832Y-1.3832
X4.9832Y-1.5168
X4.9832Y-4.0804
X4.9832Y-4.2141
X5.05Y-1.3555
X5.05Y-1.5445
X5.05Y-4.0528
X5.05Y-4.2417
X5.1168Y-1.3832
X5.1168Y-1.5168
X5.1168Y-4.0804
X5.1168Y-4.2141
X5.1445Y-1.45
X5.1445Y-4.1472
X6.9047Y-0.8008
X6.9283Y-4.8165
X6.9324Y-0.734
X6.9324Y-0.8676
X6.956Y-4.7497
X6.956Y-4.8833
X6.9992Y-0.7063
X6.9992Y-0.8953
X7.0228Y-4.722
X7.0228Y-4.911
X7.066Y-0.734
X7.066Y-0.8676
X7.0896Y-4.7497
X7.0896Y-4.8833
X7.0937Y-0.8008
X7.1173Y-4.8165
T3
X5.0581Y-5.109
X5.0581Y-5.309
X5.0581Y-5.509
X5.0581Y-5.809
X5.3019Y-0.8415
X5.3019Y-1.1415
X5.3019Y-1.7515
X5.3019Y-2.0515
X5.3019Y-2.6615
X5.3019Y-2.9615
X5.3019Y-3.5615
X5.3019Y-3.8615
X5.3581Y-5.109
X5.3581Y-5.309
X5.3581Y-5.509
X5.3581Y-5.809
X5.6Y-5.1103
X5.6Y-5.3103
X5.6Y-5.5103
X5.6Y-5.8103
X5.6019Y-0.8415
X5.6019Y-1.1415
X5.6019Y-1.7515
X5.6019Y-2.0515
X5.6019Y-2.6615
X5.6019Y-2.9615
X5.6019Y-3.5615
X5.6019Y-3.8615
X5.8019Y-0.8415
X5.8019Y-1.1415
X5.8019Y-1.7515
X5.8019Y-2.0515
X5.8019Y-2.6615
X5.8019Y-2.9615
X5.8019Y-3.5615
X5.8019Y-3.8615
X5.9Y-5.1103
X5.9Y-5.3103
X5.9Y-5.5103
X5.9Y-5.8103
X6.0019Y-0.8415
X6.0019Y-1.1415
X6.0019Y-1.7515
X6.0019Y-2.0515
X6.0019Y-2.6615
X6.0019Y-2.9615
X6.0019Y-3.5615
X6.0019Y-3.8615
X6.15Y-5.1103
X6.15Y-5.3103
X6.15Y-5.5103
X6.15Y-5.8103
X6.45Y-5.1103
X6.45Y-5.3103
X6.45Y-5.5103
X6.45Y-5.8103
X6.7Y-5.1115
X6.7Y-5.3115
X6.7Y-5.5115
X6.7Y-5.8115
X7.0Y-5.1115
X7.0Y-5.3115
X7.0Y-5.5115
X7.0Y-5.8115
T4
X5.06Y-6.0103
X5.1019Y-3.5615
X5.1019Y-3.8615
X5.1219Y-0.8415
X5.1219Y-1.1415
X5.1219Y-1.7515
X5.1219Y-2.0515
X5.1219Y-2.6615
X5.1219Y-2.9615
X5.36Y-6.0103
X5.6Y-6.0103
X5.9Y-6.0103
X6.15Y-6.0103
X6.45Y-6.0103
X6.7Y-6.0115
X7.0Y-6.0115
T5
X0.6498Y-5.8
X0.7498Y-5.8
X1.6498Y-5.8
X1.7498Y-5.8
X2.6498Y-5.8
X2.7498Y-5.8
X3.6498Y-5.8
X3.7498Y-5.8
T6
X2.0488Y-6.0492
X2.0488Y-6.1492
X2.1488Y-6.0492
X2.1488Y-6.1492
X2.2112Y-3.6508
X2.2112Y-3.7508
X2.2212Y-5.3508
X2.2212Y-5.4508
X2.2412Y-1.9508
X2.2412Y-2.0508
X2.2488Y-6.0492
X2.2488Y-6.1492
X2.3112Y-3.6508
X2.3112Y-3.7508
X2.3212Y-5.3508
X2.3212Y-5.4508
X2.3412Y-1.9508
X2.3412Y-2.0508
X2.3488Y-6.0492
X2.3488Y-6.1492
X2.4112Y-3.6508
X2.4112Y-3.7508
X2.4212Y-5.3508
X2.4212Y-5.4508
X2.4412Y-1.9508
X2.4412Y-2.0508
X2.4488Y-6.0492
X2.4488Y-6.1492
X2.5112Y-3.6508
X2.5112Y-3.7508
X2.5212Y-5.3508
X2.5212Y-5.4508
X2.5412Y-1.9508
X2.5412Y-2.0508
X2.6112Y-3.6508
X2.6112Y-3.7508
X2.6212Y-5.3508
X2.6212Y-5.4508
X2.6412Y-1.9508
X2.6412Y-2.0508
X5.2819Y-4.4615
X5.2819Y-4.5615
X5.3819Y-4.4615
X5.3819Y-4.5615
X5.4819Y-4.4615
X5.4819Y-4.5615
X5.5819Y-4.4615
X5.5819Y-4.5615
X5.6819Y-4.4615
X5.6819Y-4.5615
X6.3731Y-4.4508
X6.3731Y-4.5508
X6.4227Y-2.1727
X6.4227Y-2.2727
X6.4227Y-2.3727
X6.4227Y-2.4727
X6.4227Y-2.5727
X6.4311Y-0.7804
X6.4311Y-0.8804
X6.4311Y-0.9804
X6.4311Y-1.0804
X6.4311Y-1.1804
X6.4731Y-4.4508
X6.4731Y-4.5508
X6.5227Y-2.1727
X6.5227Y-2.2727
X6.5227Y-2.3727
X6.5227Y-2.4727
X6.5227Y-2.5727
X6.5311Y-0.7804
X6.5311Y-0.8804
X6.5311Y-0.9804
X6.5311Y-1.0804
X6.5311Y-1.1804
X6.5731Y-4.4508
X6.5731Y-4.5508
X6.6731Y-4.4508
X6.6731Y-4.5508
X6.7731Y-4.4508
X6.7731Y-4.5508
T7
X1.11Y-2.9952
X1.1152Y-4.6952
X1.1232Y-1.445
X1.4348Y-3.22
X1.44Y-4.92
X2.175Y-2.9952
X2.1802Y-4.6952
X2.2Y-1.445
X2.4998Y-3.22
X2.505Y-4.92
X3.2399Y-2.9952
X3.2451Y-4.6952
X3.2768Y-1.445
X3.5647Y-3.22
X3.5699Y-4.92
X4.3049Y-2.9952
X4.3101Y-4.6952
X4.3535Y-1.445
X4.6297Y-3.22
X4.6349Y-4.92
T8
X2.9Y-2.0
X2.9Y-3.7
X2.9Y-5.4
X3.1Y-2.0
X3.1Y-3.7
X3.1Y-5.4
X6.8719Y-2.3015
X6.8719Y-2.5015
X6.8719Y-2.7015
X6.8719Y-3.0015
X6.8719Y-3.2015
X6.8719Y-3.4015
X6.8719Y-3.9015
X6.8719Y-4.1015
T9
X0.96Y-2.82
X0.9652Y-4.52
X0.9732Y-1.12
X1.1232Y-1.27
X1.26Y-2.82
X1.2652Y-4.52
X1.2732Y-1.12
X2.025Y-2.82
X2.0302Y-4.52
X2.05Y-1.12
X2.2Y-1.27
X2.325Y-2.82
X2.3302Y-4.52
X2.35Y-1.12
X3.0899Y-2.82
X3.0951Y-4.52
X3.1268Y-1.12
X3.2768Y-1.27
X3.3899Y-2.82
X3.3951Y-4.52
X3.4268Y-1.12
X4.1549Y-2.82
X4.1601Y-4.52
X4.2035Y-1.12
X4.3535Y-1.27
X4.4549Y-2.82
X4.4601Y-4.52
X4.5035Y-1.12
T10
X1.2Y-5.9
X3.3Y-5.9
X5.05Y-1.45
X5.05Y-4.1472
X6.9992Y-0.8008
X7.0228Y-4.8165
T0
M30
