%TF.GenerationSoftware,KiCad,Pcbnew,7.0.6*%
%TF.CreationDate,2023-11-23T12:49:08+01:00*%
%TF.ProjectId,EF_matrix,45465f6d-6174-4726-9978-2e6b69636164,rev?*%
%TF.SameCoordinates,Original*%
%TF.FileFunction,Copper,L1,Top*%
%TF.FilePolarity,Positive*%
%FSLAX46Y46*%
G04 Gerber Fmt 4.6, Leading zero omitted, Abs format (unit mm)*
G04 Created by KiCad (PCBNEW 7.0.6) date 2023-11-23 12:49:08*
%MOMM*%
%LPD*%
G01*
G04 APERTURE LIST*
G04 Aperture macros list*
%AMRoundRect*
0 Rectangle with rounded corners*
0 $1 Rounding radius*
0 $2 $3 $4 $5 $6 $7 $8 $9 X,Y pos of 4 corners*
0 Add a 4 corners polygon primitive as box body*
4,1,4,$2,$3,$4,$5,$6,$7,$8,$9,$2,$3,0*
0 Add four circle primitives for the rounded corners*
1,1,$1+$1,$2,$3*
1,1,$1+$1,$4,$5*
1,1,$1+$1,$6,$7*
1,1,$1+$1,$8,$9*
0 Add four rect primitives between the rounded corners*
20,1,$1+$1,$2,$3,$4,$5,0*
20,1,$1+$1,$4,$5,$6,$7,0*
20,1,$1+$1,$6,$7,$8,$9,0*
20,1,$1+$1,$8,$9,$2,$3,0*%
%AMFreePoly0*
4,1,19,0.000000,0.744911,0.071157,0.744911,0.207708,0.704816,0.327430,0.627875,0.420627,0.520320,0.479746,0.390866,0.500000,0.250000,0.500000,-0.250000,0.479746,-0.390866,0.420627,-0.520320,0.327430,-0.627875,0.207708,-0.704816,0.071157,-0.744911,0.000000,-0.744911,0.000000,-0.750000,-0.500000,-0.750000,-0.500000,0.750000,0.000000,0.750000,0.000000,0.744911,0.000000,0.744911,
$1*%
%AMFreePoly1*
4,1,19,0.500000,-0.750000,0.000000,-0.750000,0.000000,-0.744911,-0.071157,-0.744911,-0.207708,-0.704816,-0.327430,-0.627875,-0.420627,-0.520320,-0.479746,-0.390866,-0.500000,-0.250000,-0.500000,0.250000,-0.479746,0.390866,-0.420627,0.520320,-0.327430,0.627875,-0.207708,0.704816,-0.071157,0.744911,0.000000,0.744911,0.000000,0.750000,0.500000,0.750000,0.500000,-0.750000,0.500000,-0.750000,
$1*%
G04 Aperture macros list end*
%TA.AperFunction,SMDPad,CuDef*%
%ADD10RoundRect,0.250000X0.450000X-0.262500X0.450000X0.262500X-0.450000X0.262500X-0.450000X-0.262500X0*%
%TD*%
%TA.AperFunction,ComponentPad*%
%ADD11C,3.400000*%
%TD*%
%TA.AperFunction,ComponentPad*%
%ADD12C,2.900000*%
%TD*%
%TA.AperFunction,ComponentPad*%
%ADD13C,1.400000*%
%TD*%
%TA.AperFunction,ComponentPad*%
%ADD14R,1.400000X1.400000*%
%TD*%
%TA.AperFunction,ComponentPad*%
%ADD15RoundRect,0.249999X-1.025001X-1.025001X1.025001X-1.025001X1.025001X1.025001X-1.025001X1.025001X0*%
%TD*%
%TA.AperFunction,SMDPad,CuDef*%
%ADD16FreePoly0,270.000000*%
%TD*%
%TA.AperFunction,SMDPad,CuDef*%
%ADD17FreePoly1,270.000000*%
%TD*%
%TA.AperFunction,ComponentPad*%
%ADD18RoundRect,0.249999X1.025001X-1.025001X1.025001X1.025001X-1.025001X1.025001X-1.025001X-1.025001X0*%
%TD*%
%TA.AperFunction,ComponentPad*%
%ADD19O,1.700000X1.700000*%
%TD*%
%TA.AperFunction,ComponentPad*%
%ADD20R,1.700000X1.700000*%
%TD*%
%TA.AperFunction,ComponentPad*%
%ADD21C,1.800000*%
%TD*%
%TA.AperFunction,ComponentPad*%
%ADD22R,1.800000X1.800000*%
%TD*%
%TA.AperFunction,SMDPad,CuDef*%
%ADD23FreePoly0,90.000000*%
%TD*%
%TA.AperFunction,SMDPad,CuDef*%
%ADD24FreePoly1,90.000000*%
%TD*%
%TA.AperFunction,ComponentPad*%
%ADD25O,1.600000X1.600000*%
%TD*%
%TA.AperFunction,ComponentPad*%
%ADD26R,1.600000X1.600000*%
%TD*%
%TA.AperFunction,ComponentPad*%
%ADD27C,0.800000*%
%TD*%
%TA.AperFunction,ComponentPad*%
%ADD28C,6.400000*%
%TD*%
%TA.AperFunction,SMDPad,CuDef*%
%ADD29RoundRect,0.250000X-0.450000X0.262500X-0.450000X-0.262500X0.450000X-0.262500X0.450000X0.262500X0*%
%TD*%
%TA.AperFunction,ViaPad*%
%ADD30C,0.800000*%
%TD*%
%TA.AperFunction,Conductor*%
%ADD31C,0.250000*%
%TD*%
G04 APERTURE END LIST*
D10*
%TO.P,R5,2*%
%TO.N,Net-(D1-A)*%
X19050000Y-187047500D03*
%TO.P,R5,1*%
%TO.N,/Buttonpanel/G1LED*%
X19050000Y-188872500D03*
%TD*%
D11*
%TO.P,J6,1*%
%TO.N,/XLR Input 2/Pin1*%
X32136000Y-141722000D03*
%TO.P,J6,2*%
%TO.N,/XLR Input 2/Channel 1 Hot*%
X24516000Y-141722000D03*
D12*
%TO.P,J6,3*%
%TO.N,/XLR Input 2/Channel 1 Cold*%
X28326000Y-146172000D03*
%TO.P,J6,G*%
%TO.N,unconnected-(J6-PadG)*%
X36576000Y-151882000D03*
%TD*%
D13*
%TO.P,K2,16*%
%TO.N,/Switch F/Control*%
X146406000Y-74798000D03*
%TO.P,K2,13*%
%TO.N,/Mute L/In 2*%
X154026000Y-74798000D03*
%TO.P,K2,11*%
%TO.N,/Switch L/Cold 1 In*%
X159106000Y-74798000D03*
%TO.P,K2,9*%
%TO.N,/Switch L/Cold 2 In*%
X164186000Y-74798000D03*
%TO.P,K2,8*%
%TO.N,/Switch L/Hot 2 In*%
X164186000Y-82418000D03*
%TO.P,K2,6*%
%TO.N,/Switch L/Hot 1 In*%
X159106000Y-82418000D03*
%TO.P,K2,4*%
%TO.N,/Mute L/In 1*%
X154026000Y-82418000D03*
D14*
%TO.P,K2,1*%
%TO.N,GND*%
X146406000Y-82418000D03*
%TD*%
D15*
%TO.P,J40,1,Pin_1*%
%TO.N,Net-(J19-Pin_3)*%
X235495000Y-120867000D03*
%TD*%
D16*
%TO.P,JP7,2,B*%
%TO.N,Net-(JP11-B)*%
X231431000Y-82401000D03*
D17*
%TO.P,JP7,1,A*%
%TO.N,GND*%
X231431000Y-81101000D03*
%TD*%
D18*
%TO.P,J22,1,Pin_1*%
%TO.N,/XLR Input 1/GND_Lift*%
X73660000Y-109220000D03*
%TD*%
D16*
%TO.P,JP5,2,B*%
%TO.N,Net-(JP5-B)*%
X277659000Y-82401000D03*
D17*
%TO.P,JP5,1,A*%
%TO.N,GND*%
X277659000Y-81101000D03*
%TD*%
D19*
%TO.P,J1,10,Pin_10*%
%TO.N,/Switch F/Cold 1 In*%
X178091000Y-90641000D03*
%TO.P,J1,9,Pin_9*%
%TO.N,/Switch F/Hot 1 In*%
X180631000Y-90641000D03*
%TO.P,J1,8,Pin_8*%
%TO.N,/Switch S/Cold 1 In*%
X178091000Y-88101000D03*
%TO.P,J1,7,Pin_7*%
%TO.N,/Switch S/Hot 1 In*%
X180631000Y-88101000D03*
%TO.P,J1,6,Pin_6*%
%TO.N,GND*%
X178091000Y-85561000D03*
%TO.P,J1,5,Pin_5*%
X180631000Y-85561000D03*
%TO.P,J1,4,Pin_4*%
%TO.N,/Switch R/Cold 1 In*%
X178091000Y-83021000D03*
%TO.P,J1,3,Pin_3*%
%TO.N,/Switch R/Hot 1 In*%
X180631000Y-83021000D03*
%TO.P,J1,2,Pin_2*%
%TO.N,/Switch L/Cold 1 In*%
X178091000Y-80481000D03*
D20*
%TO.P,J1,1,Pin_1*%
%TO.N,/Switch L/Hot 1 In*%
X180631000Y-80481000D03*
%TD*%
D16*
%TO.P,JP2,2,B*%
%TO.N,Net-(JP14-A)*%
X254545000Y-89909000D03*
D17*
%TO.P,JP2,1,A*%
%TO.N,/Mute R/Out 2*%
X254545000Y-88609000D03*
%TD*%
D13*
%TO.P,K3,16*%
%TO.N,/Mute F/Control*%
X249465000Y-80989000D03*
%TO.P,K3,13*%
%TO.N,/Mute R/Out 2*%
X249465000Y-88609000D03*
%TO.P,K3,11*%
%TO.N,Net-(JP10-B)*%
X249465000Y-93689000D03*
%TO.P,K3,9*%
%TO.N,/Mute R/In 2*%
X249465000Y-98769000D03*
%TO.P,K3,8*%
%TO.N,/Mute R/In 1*%
X241845000Y-98769000D03*
%TO.P,K3,6*%
%TO.N,Net-(JP14-A)*%
X241845000Y-93689000D03*
%TO.P,K3,4*%
%TO.N,/Mute R/Out 1*%
X241845000Y-88609000D03*
D14*
%TO.P,K3,1*%
%TO.N,GND*%
X241845000Y-80989000D03*
%TD*%
D21*
%TO.P,D2,2,A*%
%TO.N,Net-(D2-A)*%
X44445000Y-180340000D03*
D22*
%TO.P,D2,1,K*%
%TO.N,/Buttonpanel/Ground*%
X41905000Y-180340000D03*
%TD*%
D12*
%TO.P,J15,G*%
%TO.N,unconnected-(J15-PadG)*%
X83230000Y-36703000D03*
D11*
%TO.P,J15,3*%
%TO.N,/XLR Output/Channel 3 Cold*%
X83230000Y-32258000D03*
%TO.P,J15,2*%
%TO.N,/XLR Output/Channel 3 Hot*%
X87040000Y-28448000D03*
%TO.P,J15,1*%
%TO.N,/XLR Output/Pin1*%
X79420000Y-28448000D03*
%TD*%
D10*
%TO.P,R4,2*%
%TO.N,Net-(D2-A)*%
X44450000Y-187047500D03*
%TO.P,R4,1*%
%TO.N,/Buttonpanel/G2LED*%
X44450000Y-188872500D03*
%TD*%
D23*
%TO.P,JP13,2,B*%
%TO.N,GND*%
X259879000Y-80847000D03*
D24*
%TO.P,JP13,1,A*%
%TO.N,Net-(JP1-B)*%
X259879000Y-82147000D03*
%TD*%
D11*
%TO.P,J9,1*%
%TO.N,/XLR Input 1/Pin1*%
X86104000Y-86868000D03*
%TO.P,J9,2*%
%TO.N,/XLR Input 1/Channel 3 Hot*%
X78484000Y-86868000D03*
D12*
%TO.P,J9,3*%
%TO.N,/XLR Input 1/Channel 3 Cold*%
X82294000Y-91318000D03*
%TO.P,J9,G*%
%TO.N,unconnected-(J9-PadG)*%
X90544000Y-97028000D03*
%TD*%
D25*
%TO.P,D8,2,A*%
%TO.N,GND*%
X195871000Y-75909000D03*
D26*
%TO.P,D8,1,K*%
%TO.N,/Mute F/Control*%
X203491000Y-75909000D03*
%TD*%
D16*
%TO.P,JP9,2,B*%
%TO.N,Net-(JP5-B)*%
X259879000Y-90021000D03*
D17*
%TO.P,JP9,1,A*%
%TO.N,/Mute L/Out 1*%
X259879000Y-88721000D03*
%TD*%
D15*
%TO.P,J39,1,Pin_1*%
%TO.N,Net-(J19-Pin_1)*%
X217715000Y-120867000D03*
%TD*%
%TO.P,J2,1,Pin_1*%
%TO.N,/XLR Output/Pin1*%
X78740000Y-50800000D03*
%TD*%
D27*
%TO.P,REF\u002A\u002A,1*%
%TO.N,N/C*%
X259524052Y-74591500D03*
X258821108Y-76288556D03*
X258821108Y-72894444D03*
X257124052Y-76991500D03*
D28*
X257124052Y-74591500D03*
D27*
X257124052Y-72191500D03*
X255426996Y-76288556D03*
X255426996Y-72894444D03*
X254724052Y-74591500D03*
%TD*%
%TO.P,REF\u002A\u002A,1*%
%TO.N,N/C*%
X174014052Y-124701500D03*
X173311108Y-126398556D03*
X173311108Y-123004444D03*
X171614052Y-127101500D03*
D28*
X171614052Y-124701500D03*
D27*
X171614052Y-122301500D03*
X169916996Y-126398556D03*
X169916996Y-123004444D03*
X169214052Y-124701500D03*
%TD*%
D13*
%TO.P,K5,16*%
%TO.N,/Mute F/Control*%
X203491000Y-80989000D03*
%TO.P,K5,13*%
%TO.N,/Mute F/Out 2*%
X203491000Y-88609000D03*
%TO.P,K5,11*%
%TO.N,Net-(JP12-B)*%
X203491000Y-93689000D03*
%TO.P,K5,9*%
%TO.N,/Mute F/In 2*%
X203491000Y-98769000D03*
%TO.P,K5,8*%
%TO.N,/Mute F/In 1*%
X195871000Y-98769000D03*
%TO.P,K5,6*%
%TO.N,Net-(JP16-A)*%
X195871000Y-93689000D03*
%TO.P,K5,4*%
%TO.N,/Mute F/Out 1*%
X195871000Y-88609000D03*
D14*
%TO.P,K5,1*%
%TO.N,GND*%
X195871000Y-80989000D03*
%TD*%
D21*
%TO.P,D1,2,A*%
%TO.N,Net-(D1-A)*%
X19045000Y-180340000D03*
D22*
%TO.P,D1,1,K*%
%TO.N,/Buttonpanel/Ground*%
X16505000Y-180340000D03*
%TD*%
D16*
%TO.P,JP6,2,B*%
%TO.N,Net-(JP10-B)*%
X254545000Y-82401000D03*
D17*
%TO.P,JP6,1,A*%
%TO.N,GND*%
X254545000Y-81101000D03*
%TD*%
D19*
%TO.P,J3,10,Pin_10*%
%TO.N,/Switch F/Cold 2 In*%
X178365000Y-118357000D03*
%TO.P,J3,9,Pin_9*%
%TO.N,/Switch F/Hot 2 In*%
X180905000Y-118357000D03*
%TO.P,J3,8,Pin_8*%
%TO.N,/Switch S/Cold 2 In*%
X178365000Y-115817000D03*
%TO.P,J3,7,Pin_7*%
%TO.N,/Switch S/Hot 2 In*%
X180905000Y-115817000D03*
%TO.P,J3,6,Pin_6*%
%TO.N,GND*%
X178365000Y-113277000D03*
%TO.P,J3,5,Pin_5*%
X180905000Y-113277000D03*
%TO.P,J3,4,Pin_4*%
%TO.N,/Switch R/Cold 2 In*%
X178365000Y-110737000D03*
%TO.P,J3,3,Pin_3*%
%TO.N,/Switch R/Hot 2 In*%
X180905000Y-110737000D03*
%TO.P,J3,2,Pin_2*%
%TO.N,/Switch L/Cold 2 In*%
X178365000Y-108197000D03*
D20*
%TO.P,J3,1,Pin_1*%
%TO.N,/Switch L/Hot 2 In*%
X180905000Y-108197000D03*
%TD*%
D11*
%TO.P,J7,1*%
%TO.N,/XLR Input 1/Pin1*%
X59054000Y-86868000D03*
%TO.P,J7,2*%
%TO.N,/XLR Input 1/Channel 2 Hot*%
X51434000Y-86868000D03*
D12*
%TO.P,J7,3*%
%TO.N,/XLR Input 1/Channel 2 Cold*%
X55244000Y-91318000D03*
%TO.P,J7,G*%
%TO.N,unconnected-(J7-PadG)*%
X63494000Y-97028000D03*
%TD*%
D13*
%TO.P,K6,16*%
%TO.N,/Switch F/Control*%
X146373500Y-88561500D03*
%TO.P,K6,13*%
%TO.N,/Mute R/In 2*%
X153993500Y-88561500D03*
%TO.P,K6,11*%
%TO.N,/Switch R/Cold 1 In*%
X159073500Y-88561500D03*
%TO.P,K6,9*%
%TO.N,/Switch R/Cold 2 In*%
X164153500Y-88561500D03*
%TO.P,K6,8*%
%TO.N,/Switch R/Hot 2 In*%
X164153500Y-96181500D03*
%TO.P,K6,6*%
%TO.N,/Switch R/Hot 1 In*%
X159073500Y-96181500D03*
%TO.P,K6,4*%
%TO.N,/Mute R/In 1*%
X153993500Y-96181500D03*
D14*
%TO.P,K6,1*%
%TO.N,GND*%
X146373500Y-96181500D03*
%TD*%
D10*
%TO.P,R3,2*%
%TO.N,Net-(D3-A)*%
X69850000Y-187047500D03*
%TO.P,R3,1*%
%TO.N,/Buttonpanel/MuteLED*%
X69850000Y-188872500D03*
%TD*%
D15*
%TO.P,J36,1,Pin_1*%
%TO.N,/Switch F/Control*%
X207555000Y-120867000D03*
%TD*%
D16*
%TO.P,JP12,2,B*%
%TO.N,Net-(JP12-B)*%
X190791000Y-90021000D03*
D17*
%TO.P,JP12,1,A*%
%TO.N,/Mute F/Out 1*%
X190791000Y-88721000D03*
%TD*%
D12*
%TO.P,J14,G*%
%TO.N,unconnected-(J14-PadG)*%
X55880000Y-36703000D03*
D11*
%TO.P,J14,3*%
%TO.N,/XLR Output/Channel 2 Cold*%
X55880000Y-32258000D03*
%TO.P,J14,2*%
%TO.N,/XLR Output/Channel 2 Hot*%
X59690000Y-28448000D03*
%TO.P,J14,1*%
%TO.N,/XLR Output/Pin1*%
X52070000Y-28448000D03*
%TD*%
D16*
%TO.P,JP11,2,B*%
%TO.N,Net-(JP11-B)*%
X213651000Y-89909000D03*
D17*
%TO.P,JP11,1,A*%
%TO.N,/Mute S/Out 1*%
X213651000Y-88609000D03*
%TD*%
D18*
%TO.P,J23,1,Pin_1*%
%TO.N,/XLR Input 2/GND_Lift*%
X73660000Y-164074000D03*
%TD*%
D27*
%TO.P,REF\u002A\u002A,1*%
%TO.N,N/C*%
X32880000Y-182880000D03*
X32177056Y-184577056D03*
X32177056Y-181182944D03*
X30480000Y-185280000D03*
D28*
X30480000Y-182880000D03*
D27*
X30480000Y-180480000D03*
X28782944Y-184577056D03*
X28782944Y-181182944D03*
X28080000Y-182880000D03*
%TD*%
D11*
%TO.P,J11,1*%
%TO.N,/XLR Input 1/Pin1*%
X113154000Y-86868000D03*
%TO.P,J11,2*%
%TO.N,/XLR Input 1/Channel 4 Hot*%
X105534000Y-86868000D03*
D12*
%TO.P,J11,3*%
%TO.N,/XLR Input 1/Channel 4 Cold*%
X109344000Y-91318000D03*
%TO.P,J11,G*%
%TO.N,unconnected-(J11-PadG)*%
X117594000Y-97028000D03*
%TD*%
D15*
%TO.P,J37,1,Pin_1*%
%TO.N,/Mute F/Control*%
X225335000Y-120867000D03*
%TD*%
D23*
%TO.P,JP16,2,B*%
%TO.N,GND*%
X190791000Y-80847000D03*
D24*
%TO.P,JP16,1,A*%
%TO.N,Net-(JP16-A)*%
X190791000Y-82147000D03*
%TD*%
D25*
%TO.P,D6,2,A*%
%TO.N,GND*%
X241845000Y-76417000D03*
D26*
%TO.P,D6,1,K*%
%TO.N,/Mute F/Control*%
X249465000Y-76417000D03*
%TD*%
D15*
%TO.P,J38,1,Pin_1*%
%TO.N,+5V*%
X230415000Y-120867000D03*
%TD*%
D21*
%TO.P,D4,2,A*%
%TO.N,Net-(D4-A)*%
X95245000Y-180340000D03*
D22*
%TO.P,D4,1,K*%
%TO.N,/Buttonpanel/Ground*%
X92705000Y-180340000D03*
%TD*%
D27*
%TO.P,REF\u002A\u002A,1*%
%TO.N,N/C*%
X86220000Y-182880000D03*
X85517056Y-184577056D03*
X85517056Y-181182944D03*
X83820000Y-185280000D03*
D28*
X83820000Y-182880000D03*
D27*
X83820000Y-180480000D03*
X82122944Y-184577056D03*
X82122944Y-181182944D03*
X81420000Y-182880000D03*
%TD*%
D16*
%TO.P,JP3,2,B*%
%TO.N,Net-(JP15-A)*%
X231431000Y-90021000D03*
D17*
%TO.P,JP3,1,A*%
%TO.N,/Mute S/Out 2*%
X231431000Y-88721000D03*
%TD*%
D13*
%TO.P,K4,16*%
%TO.N,/Mute F/Control*%
X226351000Y-80989000D03*
%TO.P,K4,13*%
%TO.N,/Mute S/Out 2*%
X226351000Y-88609000D03*
%TO.P,K4,11*%
%TO.N,Net-(JP11-B)*%
X226351000Y-93689000D03*
%TO.P,K4,9*%
%TO.N,/Mute S/In 2*%
X226351000Y-98769000D03*
%TO.P,K4,8*%
%TO.N,/Mute S/In 1*%
X218731000Y-98769000D03*
%TO.P,K4,6*%
%TO.N,Net-(JP15-A)*%
X218731000Y-93689000D03*
%TO.P,K4,4*%
%TO.N,/Mute S/Out 1*%
X218731000Y-88609000D03*
D14*
%TO.P,K4,1*%
%TO.N,GND*%
X218731000Y-80989000D03*
%TD*%
D15*
%TO.P,J34,1,Pin_1*%
%TO.N,/XLR Output/GND_Lift*%
X73660000Y-50800000D03*
%TD*%
D19*
%TO.P,J19,10,Pin_10*%
%TO.N,unconnected-(J19-Pin_10-Pad10)*%
X274133000Y-112211000D03*
%TO.P,J19,9,Pin_9*%
%TO.N,unconnected-(J19-Pin_9-Pad9)*%
X274133000Y-109671000D03*
%TO.P,J19,8,Pin_8*%
%TO.N,unconnected-(J19-Pin_8-Pad8)*%
X271593000Y-112211000D03*
%TO.P,J19,7,Pin_7*%
%TO.N,unconnected-(J19-Pin_7-Pad7)*%
X271593000Y-109671000D03*
%TO.P,J19,6,Pin_6*%
%TO.N,GND*%
X269053000Y-112211000D03*
%TO.P,J19,5,Pin_5*%
X269053000Y-109671000D03*
%TO.P,J19,4,Pin_4*%
%TO.N,+5V*%
X266513000Y-112211000D03*
%TO.P,J19,3,Pin_3*%
%TO.N,Net-(J19-Pin_3)*%
X266513000Y-109671000D03*
%TO.P,J19,2,Pin_2*%
%TO.N,/Switch F/Control*%
X263973000Y-112211000D03*
D20*
%TO.P,J19,1,Pin_1*%
%TO.N,Net-(J19-Pin_1)*%
X263973000Y-109671000D03*
%TD*%
D16*
%TO.P,JP1,2,B*%
%TO.N,Net-(JP1-B)*%
X277659000Y-89767000D03*
D17*
%TO.P,JP1,1,A*%
%TO.N,/Mute L/Out 2*%
X277659000Y-88467000D03*
%TD*%
D11*
%TO.P,J10,1*%
%TO.N,/XLR Input 2/Pin1*%
X86236000Y-141722000D03*
%TO.P,J10,2*%
%TO.N,/XLR Input 2/Channel 3 Hot*%
X78616000Y-141722000D03*
D12*
%TO.P,J10,3*%
%TO.N,/XLR Input 2/Channel 3 Cold*%
X82426000Y-146172000D03*
%TO.P,J10,G*%
%TO.N,unconnected-(J10-PadG)*%
X90676000Y-151882000D03*
%TD*%
D11*
%TO.P,J8,1*%
%TO.N,/XLR Input 2/Pin1*%
X59186000Y-141722000D03*
%TO.P,J8,2*%
%TO.N,/XLR Input 2/Channel 2 Hot*%
X51566000Y-141722000D03*
D12*
%TO.P,J8,3*%
%TO.N,/XLR Input 2/Channel 2 Cold*%
X55376000Y-146172000D03*
%TO.P,J8,G*%
%TO.N,unconnected-(J8-PadG)*%
X63626000Y-151882000D03*
%TD*%
D16*
%TO.P,JP8,2,B*%
%TO.N,Net-(JP12-B)*%
X208317000Y-82147000D03*
D17*
%TO.P,JP8,1,A*%
%TO.N,GND*%
X208317000Y-80847000D03*
%TD*%
D23*
%TO.P,JP15,2,B*%
%TO.N,GND*%
X213651000Y-80847000D03*
D24*
%TO.P,JP15,1,A*%
%TO.N,Net-(JP15-A)*%
X213651000Y-82147000D03*
%TD*%
D15*
%TO.P,J35,1,Pin_1*%
%TO.N,+5V*%
X212635000Y-120867000D03*
%TD*%
D27*
%TO.P,REF\u002A\u002A,1*%
%TO.N,N/C*%
X276014052Y-124101500D03*
X275311108Y-125798556D03*
X275311108Y-122404444D03*
X273614052Y-126501500D03*
D28*
X273614052Y-124101500D03*
D27*
X273614052Y-121701500D03*
X271916996Y-125798556D03*
X271916996Y-122404444D03*
X271214052Y-124101500D03*
%TD*%
D25*
%TO.P,D5,2,A*%
%TO.N,GND*%
X264959000Y-76417000D03*
D26*
%TO.P,D5,1,K*%
%TO.N,/Mute F/Control*%
X272579000Y-76417000D03*
%TD*%
D15*
%TO.P,J32,1,Pin_1*%
%TO.N,+5V*%
X189775000Y-120867000D03*
%TD*%
D25*
%TO.P,D7,2,A*%
%TO.N,GND*%
X218731000Y-76417000D03*
D26*
%TO.P,D7,1,K*%
%TO.N,/Mute F/Control*%
X226351000Y-76417000D03*
%TD*%
D25*
%TO.P,D9,2,A*%
%TO.N,GND*%
X141293500Y-82465500D03*
D26*
%TO.P,D9,1,K*%
%TO.N,/Switch F/Control*%
X141293500Y-74845500D03*
%TD*%
D13*
%TO.P,K1,16*%
%TO.N,/Mute F/Control*%
X272579000Y-80989000D03*
%TO.P,K1,13*%
%TO.N,/Mute L/Out 2*%
X272579000Y-88609000D03*
%TO.P,K1,11*%
%TO.N,Net-(JP5-B)*%
X272579000Y-93689000D03*
%TO.P,K1,9*%
%TO.N,/Mute L/In 2*%
X272579000Y-98769000D03*
%TO.P,K1,8*%
%TO.N,/Mute L/In 1*%
X264959000Y-98769000D03*
%TO.P,K1,6*%
%TO.N,Net-(JP1-B)*%
X264959000Y-93689000D03*
%TO.P,K1,4*%
%TO.N,/Mute L/Out 1*%
X264959000Y-88609000D03*
D14*
%TO.P,K1,1*%
%TO.N,GND*%
X264959000Y-80989000D03*
%TD*%
D12*
%TO.P,J16,G*%
%TO.N,unconnected-(J16-PadG)*%
X110580000Y-36703000D03*
D11*
%TO.P,J16,3*%
%TO.N,/XLR Output/Channel 4 Cold*%
X110580000Y-32258000D03*
%TO.P,J16,2*%
%TO.N,/XLR Output/Channel 4 Hot*%
X114390000Y-28448000D03*
%TO.P,J16,1*%
%TO.N,/XLR Output/Pin1*%
X106770000Y-28448000D03*
%TD*%
D16*
%TO.P,JP4,2,B*%
%TO.N,Net-(JP16-A)*%
X208317000Y-89767000D03*
D17*
%TO.P,JP4,1,A*%
%TO.N,/Mute F/Out 2*%
X208317000Y-88467000D03*
%TD*%
D23*
%TO.P,JP14,2,B*%
%TO.N,GND*%
X236765000Y-81101000D03*
D24*
%TO.P,JP14,1,A*%
%TO.N,Net-(JP14-A)*%
X236765000Y-82401000D03*
%TD*%
D25*
%TO.P,D10,2,A*%
%TO.N,GND*%
X141293500Y-96181500D03*
D26*
%TO.P,D10,1,K*%
%TO.N,/Switch F/Control*%
X141293500Y-88561500D03*
%TD*%
D11*
%TO.P,J12,1*%
%TO.N,/XLR Input 2/Pin1*%
X113286000Y-141722000D03*
%TO.P,J12,2*%
%TO.N,/XLR Input 2/Channel 4 Hot*%
X105666000Y-141722000D03*
D12*
%TO.P,J12,3*%
%TO.N,/XLR Input 2/Channel 4 Cold*%
X109476000Y-146172000D03*
%TO.P,J12,G*%
%TO.N,unconnected-(J12-PadG)*%
X117726000Y-151882000D03*
%TD*%
D29*
%TO.P,R1,2*%
%TO.N,/Buttonpanel/5V*%
X95250000Y-188872500D03*
%TO.P,R1,1*%
%TO.N,Net-(D4-A)*%
X95250000Y-187047500D03*
%TD*%
D16*
%TO.P,JP10,2,B*%
%TO.N,Net-(JP10-B)*%
X236765000Y-89909000D03*
D17*
%TO.P,JP10,1,A*%
%TO.N,/Mute R/Out 1*%
X236765000Y-88609000D03*
%TD*%
D25*
%TO.P,D12,2,A*%
%TO.N,GND*%
X141293500Y-110151500D03*
D26*
%TO.P,D12,1,K*%
%TO.N,/Switch F/Control*%
X141293500Y-102531500D03*
%TD*%
D21*
%TO.P,D3,2,A*%
%TO.N,Net-(D3-A)*%
X69845000Y-180340000D03*
D22*
%TO.P,D3,1,K*%
%TO.N,/Buttonpanel/Ground*%
X67305000Y-180340000D03*
%TD*%
D13*
%TO.P,K7,16*%
%TO.N,/Switch F/Control*%
X146341000Y-116501500D03*
%TO.P,K7,13*%
%TO.N,/Mute F/In 2*%
X153961000Y-116501500D03*
%TO.P,K7,11*%
%TO.N,/Switch F/Cold 1 In*%
X159041000Y-116501500D03*
%TO.P,K7,9*%
%TO.N,/Switch F/Cold 2 In*%
X164121000Y-116501500D03*
%TO.P,K7,8*%
%TO.N,/Switch F/Hot 2 In*%
X164121000Y-124121500D03*
%TO.P,K7,6*%
%TO.N,/Switch F/Hot 1 In*%
X159041000Y-124121500D03*
%TO.P,K7,4*%
%TO.N,/Mute F/In 1*%
X153961000Y-124121500D03*
D14*
%TO.P,K7,1*%
%TO.N,GND*%
X146341000Y-124121500D03*
%TD*%
D12*
%TO.P,J13,G*%
%TO.N,unconnected-(J13-PadG)*%
X28530000Y-36703000D03*
D11*
%TO.P,J13,3*%
%TO.N,/XLR Output/Channel 1 Cold*%
X28530000Y-32258000D03*
%TO.P,J13,2*%
%TO.N,/XLR Output/Channel 1 Hot*%
X32340000Y-28448000D03*
%TO.P,J13,1*%
%TO.N,/XLR Output/Pin1*%
X24720000Y-28448000D03*
%TD*%
D15*
%TO.P,J33,1,Pin_1*%
%TO.N,GND*%
X194855000Y-120867000D03*
%TD*%
D19*
%TO.P,J18,10,Pin_10*%
%TO.N,/Mute F/Out 2*%
X228607000Y-109457000D03*
%TO.P,J18,9,Pin_9*%
%TO.N,/Mute F/Out 1*%
X228607000Y-111997000D03*
%TO.P,J18,8,Pin_8*%
%TO.N,/Mute S/Out 2*%
X231147000Y-109457000D03*
%TO.P,J18,7,Pin_7*%
%TO.N,/Mute S/Out 1*%
X231147000Y-111997000D03*
%TO.P,J18,6,Pin_6*%
%TO.N,GND*%
X233687000Y-109457000D03*
%TO.P,J18,5,Pin_5*%
X233687000Y-111997000D03*
%TO.P,J18,4,Pin_4*%
%TO.N,/Mute R/Out 2*%
X236227000Y-109457000D03*
%TO.P,J18,3,Pin_3*%
%TO.N,/Mute R/Out 1*%
X236227000Y-111997000D03*
%TO.P,J18,2,Pin_2*%
%TO.N,/Mute L/Out 2*%
X238767000Y-109457000D03*
D20*
%TO.P,J18,1,Pin_1*%
%TO.N,/Mute L/Out 1*%
X238767000Y-111997000D03*
%TD*%
D18*
%TO.P,J25,1,Pin_1*%
%TO.N,/XLR Input 1/Pin1*%
X78740000Y-109220000D03*
%TD*%
D27*
%TO.P,REF\u002A\u002A,1*%
%TO.N,N/C*%
X191014052Y-74591500D03*
X190311108Y-76288556D03*
X190311108Y-72894444D03*
X188614052Y-76991500D03*
D28*
X188614052Y-74591500D03*
D27*
X188614052Y-72191500D03*
X186916996Y-76288556D03*
X186916996Y-72894444D03*
X186214052Y-74591500D03*
%TD*%
D25*
%TO.P,D11,2,A*%
%TO.N,GND*%
X141261000Y-124121500D03*
D26*
%TO.P,D11,1,K*%
%TO.N,/Switch F/Control*%
X141261000Y-116501500D03*
%TD*%
D18*
%TO.P,J26,1,Pin_1*%
%TO.N,/XLR Input 2/Pin1*%
X78740000Y-164074000D03*
%TD*%
D13*
%TO.P,K8,16*%
%TO.N,/Switch F/Control*%
X146373500Y-102531500D03*
%TO.P,K8,13*%
%TO.N,/Mute S/In 2*%
X153993500Y-102531500D03*
%TO.P,K8,11*%
%TO.N,/Switch S/Cold 1 In*%
X159073500Y-102531500D03*
%TO.P,K8,9*%
%TO.N,/Switch S/Cold 2 In*%
X164153500Y-102531500D03*
%TO.P,K8,8*%
%TO.N,/Switch S/Hot 2 In*%
X164153500Y-110151500D03*
%TO.P,K8,6*%
%TO.N,/Switch S/Hot 1 In*%
X159073500Y-110151500D03*
%TO.P,K8,4*%
%TO.N,/Mute S/In 1*%
X153993500Y-110151500D03*
D14*
%TO.P,K8,1*%
%TO.N,GND*%
X146373500Y-110151500D03*
%TD*%
D11*
%TO.P,J5,1*%
%TO.N,/XLR Input 1/Pin1*%
X32004000Y-86868000D03*
%TO.P,J5,2*%
%TO.N,/XLR Input 1/Channel 1 Hot*%
X24384000Y-86868000D03*
D12*
%TO.P,J5,3*%
%TO.N,/XLR Input 1/Channel 1 Cold*%
X28194000Y-91318000D03*
%TO.P,J5,G*%
%TO.N,unconnected-(J5-PadG)*%
X36444000Y-97028000D03*
%TD*%
D19*
%TO.P,J20,10,Pin_10*%
%TO.N,unconnected-(J20-Pin_10-Pad10)*%
X52040000Y-189210000D03*
%TO.P,J20,9,Pin_9*%
%TO.N,unconnected-(J20-Pin_9-Pad9)*%
X52040000Y-186670000D03*
%TO.P,J20,8,Pin_8*%
%TO.N,unconnected-(J20-Pin_8-Pad8)*%
X54580000Y-189210000D03*
%TO.P,J20,7,Pin_7*%
%TO.N,unconnected-(J20-Pin_7-Pad7)*%
X54580000Y-186670000D03*
%TO.P,J20,6,Pin_6*%
%TO.N,/Buttonpanel/Ground*%
X57120000Y-189210000D03*
%TO.P,J20,5,Pin_5*%
X57120000Y-186670000D03*
%TO.P,J20,4,Pin_4*%
%TO.N,/Buttonpanel/5V*%
X59660000Y-189210000D03*
%TO.P,J20,3,Pin_3*%
%TO.N,/Buttonpanel/MuteLED*%
X59660000Y-186670000D03*
%TO.P,J20,2,Pin_2*%
%TO.N,/Buttonpanel/G2LED*%
X62200000Y-189210000D03*
D20*
%TO.P,J20,1,Pin_1*%
%TO.N,/Buttonpanel/G1LED*%
X62200000Y-186670000D03*
%TD*%
D19*
%TO.P,J31,10,Pin_10*%
%TO.N,/XLR Output/Channel 4 Cold*%
X67086000Y-49550000D03*
%TO.P,J31,9,Pin_9*%
%TO.N,/XLR Output/Channel 4 Hot*%
X67086000Y-52090000D03*
%TO.P,J31,8,Pin_8*%
%TO.N,/XLR Output/Channel 3 Cold*%
X64546000Y-49550000D03*
%TO.P,J31,7,Pin_7*%
%TO.N,/XLR Output/Channel 3 Hot*%
X64546000Y-52090000D03*
%TO.P,J31,6,Pin_6*%
%TO.N,/XLR Output/GND_Lift*%
X62006000Y-49550000D03*
%TO.P,J31,5,Pin_5*%
X62006000Y-52090000D03*
%TO.P,J31,4,Pin_4*%
%TO.N,/XLR Output/Channel 2 Cold*%
X59466000Y-49550000D03*
%TO.P,J31,3,Pin_3*%
%TO.N,/XLR Output/Channel 2 Hot*%
X59466000Y-52090000D03*
%TO.P,J31,2,Pin_2*%
%TO.N,/XLR Output/Channel 1 Cold*%
X56926000Y-49550000D03*
D20*
%TO.P,J31,1,Pin_1*%
%TO.N,/XLR Output/Channel 1 Hot*%
X56926000Y-52090000D03*
%TD*%
%TO.P,J17,1,Pin_1*%
%TO.N,/XLR Input 1/Channel 1 Hot*%
X56164000Y-110510000D03*
D19*
%TO.P,J17,2,Pin_2*%
%TO.N,/XLR Input 1/Channel 1 Cold*%
X56164000Y-107970000D03*
%TO.P,J17,3,Pin_3*%
%TO.N,/XLR Input 1/Channel 2 Hot*%
X58704000Y-110510000D03*
%TO.P,J17,4,Pin_4*%
%TO.N,/XLR Input 1/Channel 2 Cold*%
X58704000Y-107970000D03*
%TO.P,J17,5,Pin_5*%
%TO.N,/XLR Input 1/GND_Lift*%
X61244000Y-110510000D03*
%TO.P,J17,6,Pin_6*%
X61244000Y-107970000D03*
%TO.P,J17,7,Pin_7*%
%TO.N,/XLR Input 1/Channel 3 Hot*%
X63784000Y-110510000D03*
%TO.P,J17,8,Pin_8*%
%TO.N,/XLR Input 1/Channel 3 Cold*%
X63784000Y-107970000D03*
%TO.P,J17,9,Pin_9*%
%TO.N,/XLR Input 1/Channel 4 Hot*%
X66324000Y-110510000D03*
%TO.P,J17,10,Pin_10*%
%TO.N,/XLR Input 1/Channel 4 Cold*%
X66324000Y-107970000D03*
%TD*%
D20*
%TO.P,J4,1,Pin_1*%
%TO.N,/XLR Input 2/Channel 1 Hot*%
X56418000Y-165364000D03*
D19*
%TO.P,J4,2,Pin_2*%
%TO.N,/XLR Input 2/Channel 1 Cold*%
X56418000Y-162824000D03*
%TO.P,J4,3,Pin_3*%
%TO.N,/XLR Input 2/Channel 2 Hot*%
X58958000Y-165364000D03*
%TO.P,J4,4,Pin_4*%
%TO.N,/XLR Input 2/Channel 2 Cold*%
X58958000Y-162824000D03*
%TO.P,J4,5,Pin_5*%
%TO.N,/XLR Input 2/GND_Lift*%
X61498000Y-165364000D03*
%TO.P,J4,6,Pin_6*%
X61498000Y-162824000D03*
%TO.P,J4,7,Pin_7*%
%TO.N,/XLR Input 2/Channel 3 Hot*%
X64038000Y-165364000D03*
%TO.P,J4,8,Pin_8*%
%TO.N,/XLR Input 2/Channel 3 Cold*%
X64038000Y-162824000D03*
%TO.P,J4,9,Pin_9*%
%TO.N,/XLR Input 2/Channel 4 Hot*%
X66578000Y-165364000D03*
%TO.P,J4,10,Pin_10*%
%TO.N,/XLR Input 2/Channel 4 Cold*%
X66578000Y-162824000D03*
%TD*%
D30*
%TO.N,GND*%
X254545000Y-78957000D03*
X208317000Y-78957000D03*
X190791000Y-78957000D03*
X231431000Y-78957000D03*
X277659000Y-78957000D03*
X213651000Y-78957000D03*
X236765000Y-78957000D03*
X259879000Y-78957000D03*
%TO.N,/Switch F/Control*%
X263435000Y-115533000D03*
%TO.N,/Switch L/Hot 1 In*%
X159041000Y-77179000D03*
X180631000Y-77179000D03*
%TO.N,/Switch L/Cold 1 In*%
X178091000Y-72607000D03*
%TO.N,/Switch R/Hot 1 In*%
X160311000Y-85616245D03*
%TO.N,/Switch R/Cold 1 In*%
X159073500Y-84831500D03*
%TO.N,/Switch S/Hot 1 In*%
X161835000Y-87085000D03*
%TO.N,/Switch S/Cold 1 In*%
X161073000Y-86323000D03*
%TO.N,/Switch F/Hot 1 In*%
X163151424Y-91472636D03*
%TO.N,/Switch F/Cold 1 In*%
X162597000Y-90641000D03*
%TO.N,/Switch L/Hot 2 In*%
X167677000Y-104865000D03*
%TO.N,/Switch L/Cold 2 In*%
X168439000Y-104103000D03*
%TO.N,/Switch R/Hot 2 In*%
X165899000Y-96229000D03*
X165899000Y-106643000D03*
%TO.N,/Switch R/Cold 2 In*%
X166623500Y-105811364D03*
%TO.N,/Switch S/Cold 2 In*%
X164629000Y-106897000D03*
%TO.N,/Switch F/Hot 2 In*%
X180905000Y-120701500D03*
%TO.N,/Mute L/Out 1*%
X251243000Y-103341000D03*
X265984000Y-103341000D03*
X249973000Y-111977000D03*
%TO.N,/Mute L/Out 2*%
X267245000Y-104611000D03*
X251243000Y-109437000D03*
X251497000Y-104865000D03*
%TO.N,/Mute R/Out 1*%
X242861000Y-114263000D03*
%TO.N,/Mute R/Out 2*%
X248449000Y-107151000D03*
%TO.N,/Mute S/Out 1*%
X219747000Y-110961000D03*
%TO.N,/Mute S/Out 2*%
X224319000Y-107659000D03*
%TO.N,/Mute F/Out 1*%
X196887000Y-111215000D03*
%TO.N,/Mute F/Out 2*%
X201967000Y-109437000D03*
%TO.N,Net-(J19-Pin_1)*%
X261403000Y-116295000D03*
%TO.N,+5V*%
X264959000Y-117057000D03*
%TO.N,/Mute L/In 1*%
X152691000Y-94451000D03*
%TO.N,/Mute L/In 2*%
X151929000Y-93689000D03*
%TO.N,/Mute R/In 2*%
X155739000Y-96483000D03*
%TO.N,/Mute S/In 1*%
X152691000Y-100547000D03*
%TO.N,/Mute F/In 1*%
X151215860Y-99084688D03*
%TO.N,/Mute F/In 2*%
X151929000Y-99785000D03*
%TD*%
D31*
%TO.N,Net-(D1-A)*%
X19050000Y-187047500D02*
X19045000Y-187042500D01*
X19045000Y-187042500D02*
X19045000Y-180340000D01*
%TO.N,Net-(D2-A)*%
X44445000Y-187042500D02*
X44445000Y-180340000D01*
X44450000Y-187047500D02*
X44445000Y-187042500D01*
%TO.N,Net-(D3-A)*%
X69845000Y-187042500D02*
X69850000Y-187047500D01*
X69845000Y-180340000D02*
X69845000Y-187042500D01*
%TO.N,Net-(D4-A)*%
X95245000Y-187042500D02*
X95245000Y-180340000D01*
X95250000Y-187047500D02*
X95245000Y-187042500D01*
%TO.N,/Mute F/Control*%
X229108000Y-78232000D02*
X246708000Y-78232000D01*
X226351000Y-80989000D02*
X229108000Y-78232000D01*
X272579000Y-76417000D02*
X272579000Y-80989000D01*
X226351000Y-76417000D02*
X226351000Y-80989000D01*
X252222000Y-78232000D02*
X269822000Y-78232000D01*
X203491000Y-80989000D02*
X206248000Y-78232000D01*
X203491000Y-75909000D02*
X203491000Y-80989000D01*
X223594000Y-78232000D02*
X226351000Y-80989000D01*
X249465000Y-80989000D02*
X252222000Y-78232000D01*
X249465000Y-76417000D02*
X249465000Y-80989000D01*
X206248000Y-78232000D02*
X223594000Y-78232000D01*
X246708000Y-78232000D02*
X249465000Y-80989000D01*
X269822000Y-78232000D02*
X272579000Y-80989000D01*
%TO.N,GND*%
X231431000Y-81101000D02*
X231431000Y-78957000D01*
X213651000Y-80847000D02*
X213651000Y-78957000D01*
X277659000Y-81101000D02*
X277659000Y-78957000D01*
X190791000Y-80847000D02*
X190791000Y-78957000D01*
X236765000Y-81101000D02*
X236765000Y-78957000D01*
X254545000Y-81101000D02*
X254545000Y-78957000D01*
X259879000Y-80847000D02*
X259879000Y-78957000D01*
X208317000Y-80847000D02*
X208317000Y-78957000D01*
%TO.N,/Switch F/Control*%
X146341000Y-116501500D02*
X151468500Y-121629000D01*
X147398500Y-101506500D02*
X146373500Y-102531500D01*
X204761000Y-118073000D02*
X207555000Y-120867000D01*
X212889000Y-115533000D02*
X263435000Y-115533000D01*
X207555000Y-120867000D02*
X212889000Y-115533000D01*
X147431000Y-75823000D02*
X147431000Y-87504000D01*
X185860500Y-119701500D02*
X187489000Y-118073000D01*
X146406000Y-74798000D02*
X147431000Y-75823000D01*
X141293500Y-74845500D02*
X146358500Y-74845500D01*
X141261000Y-116501500D02*
X146341000Y-116501500D01*
X187489000Y-118073000D02*
X204761000Y-118073000D01*
X141293500Y-88561500D02*
X146373500Y-88561500D01*
X147398500Y-103556500D02*
X147398500Y-115444000D01*
X151468500Y-121629000D02*
X165686552Y-121629000D01*
X165686552Y-121629000D02*
X167614052Y-119701500D01*
X147398500Y-89586500D02*
X147398500Y-101506500D01*
X146373500Y-102531500D02*
X147398500Y-103556500D01*
X146358500Y-74845500D02*
X146406000Y-74798000D01*
X167614052Y-119701500D02*
X185860500Y-119701500D01*
X141293500Y-102531500D02*
X146373500Y-102531500D01*
X147431000Y-87504000D02*
X146373500Y-88561500D01*
X146373500Y-88561500D02*
X147398500Y-89586500D01*
X147398500Y-115444000D02*
X146341000Y-116501500D01*
%TO.N,/Switch L/Hot 1 In*%
X159041000Y-77179000D02*
X180631000Y-77179000D01*
%TO.N,/Switch L/Cold 1 In*%
X159106000Y-73304000D02*
X159106000Y-74798000D01*
X159803000Y-72607000D02*
X159106000Y-73304000D01*
X178091000Y-72607000D02*
X159803000Y-72607000D01*
%TO.N,/Switch R/Hot 1 In*%
X166788000Y-84164000D02*
X166820000Y-84196000D01*
X165391000Y-85561000D02*
X166788000Y-84164000D01*
X160311000Y-85616245D02*
X160366245Y-85561000D01*
X179456000Y-84196000D02*
X180631000Y-83021000D01*
X166820000Y-84196000D02*
X179456000Y-84196000D01*
X160366245Y-85561000D02*
X165391000Y-85561000D01*
%TO.N,/Switch R/Cold 1 In*%
X159073500Y-84831500D02*
X159106000Y-84799000D01*
X159106000Y-84799000D02*
X165137000Y-84799000D01*
X165137000Y-84799000D02*
X166915000Y-83021000D01*
X166915000Y-83021000D02*
X178091000Y-83021000D01*
%TO.N,/Switch S/Hot 1 In*%
X177604299Y-89276000D02*
X179456000Y-89276000D01*
X179456000Y-89276000D02*
X180631000Y-88101000D01*
X175375799Y-87047500D02*
X177604299Y-89276000D01*
X161835000Y-87085000D02*
X161872500Y-87047500D01*
X161872500Y-87047500D02*
X175375799Y-87047500D01*
%TO.N,/Switch S/Cold 1 In*%
X176313000Y-86323000D02*
X178091000Y-88101000D01*
X161073000Y-86323000D02*
X176313000Y-86323000D01*
%TO.N,/Switch F/Hot 1 In*%
X163151424Y-91472636D02*
X163494788Y-91816000D01*
X163494788Y-91816000D02*
X179456000Y-91816000D01*
X179456000Y-91816000D02*
X180631000Y-90641000D01*
%TO.N,/Switch F/Cold 1 In*%
X162597000Y-90641000D02*
X178091000Y-90641000D01*
%TO.N,/Switch L/Hot 2 In*%
X179665000Y-109437000D02*
X180905000Y-108197000D01*
X167677000Y-104865000D02*
X172184000Y-109372000D01*
X175232000Y-109372000D02*
X175297000Y-109437000D01*
X172184000Y-109372000D02*
X175232000Y-109372000D01*
X175297000Y-109437000D02*
X179665000Y-109437000D01*
%TO.N,/Switch L/Cold 2 In*%
X168439000Y-104103000D02*
X172533000Y-108197000D01*
X172533000Y-108197000D02*
X178365000Y-108197000D01*
%TO.N,/Switch R/Hot 2 In*%
X165851500Y-96181500D02*
X164153500Y-96181500D01*
X172628000Y-112102000D02*
X179540000Y-112102000D01*
X179540000Y-112102000D02*
X180905000Y-110737000D01*
X167169000Y-106643000D02*
X172628000Y-112102000D01*
X165899000Y-96229000D02*
X165851500Y-96181500D01*
X165899000Y-106643000D02*
X167169000Y-106643000D01*
%TO.N,/Switch R/Cold 2 In*%
X167607364Y-105811364D02*
X172533000Y-110737000D01*
X166623500Y-105811364D02*
X167607364Y-105811364D01*
X172533000Y-110737000D02*
X178365000Y-110737000D01*
%TO.N,/Switch S/Hot 2 In*%
X164153500Y-110151500D02*
X169153500Y-110151500D01*
X169153500Y-110151500D02*
X175994000Y-116992000D01*
X179730000Y-116992000D02*
X180905000Y-115817000D01*
X175994000Y-116992000D02*
X179730000Y-116992000D01*
%TO.N,/Switch S/Cold 2 In*%
X167297396Y-107659000D02*
X175455396Y-115817000D01*
X164629000Y-106897000D02*
X165391000Y-107659000D01*
X175455396Y-115817000D02*
X178365000Y-115817000D01*
X165391000Y-107659000D02*
X167297396Y-107659000D01*
%TO.N,/Switch F/Hot 2 In*%
X167541000Y-120701500D02*
X164121000Y-124121500D01*
X180905000Y-120701500D02*
X167541000Y-120701500D01*
%TO.N,/Switch F/Cold 2 In*%
X164121000Y-116501500D02*
X174867104Y-116501500D01*
X176722604Y-118357000D02*
X178365000Y-118357000D01*
X174867104Y-116501500D02*
X176722604Y-118357000D01*
%TO.N,/XLR Input 2/Channel 1 Hot*%
X24516000Y-141722000D02*
X24516000Y-144872230D01*
X29239770Y-149596000D02*
X37592000Y-149596000D01*
X53360000Y-165364000D02*
X56418000Y-165364000D01*
X24516000Y-144872230D02*
X29239770Y-149596000D01*
X37592000Y-149596000D02*
X53360000Y-165364000D01*
%TO.N,/XLR Input 2/Channel 1 Cold*%
X37216000Y-146172000D02*
X53868000Y-162824000D01*
X53868000Y-162824000D02*
X56418000Y-162824000D01*
X28326000Y-146172000D02*
X37216000Y-146172000D01*
%TO.N,/XLR Input 2/Channel 2 Hot*%
X51566000Y-150362000D02*
X57783000Y-156579000D01*
X57783000Y-156579000D02*
X57783000Y-164189000D01*
X51566000Y-141722000D02*
X51566000Y-150362000D01*
X57783000Y-164189000D02*
X58958000Y-165364000D01*
%TO.N,/XLR Input 2/Channel 2 Cold*%
X58958000Y-162824000D02*
X58958000Y-149754000D01*
X58958000Y-149754000D02*
X55376000Y-146172000D01*
%TO.N,/XLR Input 2/Channel 3 Hot*%
X62673000Y-157665000D02*
X62673000Y-163999000D01*
X78616000Y-141722000D02*
X62673000Y-157665000D01*
X62673000Y-163999000D02*
X64038000Y-165364000D01*
%TO.N,/XLR Input 2/Channel 3 Cold*%
X82426000Y-146172000D02*
X77592000Y-146172000D01*
X77592000Y-146172000D02*
X64038000Y-159726000D01*
X64038000Y-159726000D02*
X64038000Y-162824000D01*
%TO.N,/XLR Input 2/Channel 4 Hot*%
X91440000Y-141722000D02*
X75692000Y-157470000D01*
X65288000Y-164074000D02*
X66578000Y-165364000D01*
X105666000Y-141722000D02*
X91440000Y-141722000D01*
X68790149Y-157470000D02*
X65278000Y-160982149D01*
X75692000Y-157470000D02*
X68790149Y-157470000D01*
X65278000Y-160982149D02*
X65278000Y-164074000D01*
X65278000Y-164074000D02*
X65288000Y-164074000D01*
%TO.N,/XLR Input 2/Channel 4 Cold*%
X109476000Y-146172000D02*
X90038000Y-146172000D01*
X77470000Y-158740000D02*
X69342000Y-158740000D01*
X69342000Y-158740000D02*
X66578000Y-161504000D01*
X90038000Y-146172000D02*
X77470000Y-158740000D01*
X66578000Y-161504000D02*
X66578000Y-162824000D01*
%TO.N,/XLR Input 1/Channel 1 Hot*%
X24384000Y-86868000D02*
X24384000Y-90018230D01*
X50038000Y-107188000D02*
X53360000Y-110510000D01*
X53360000Y-110510000D02*
X56164000Y-110510000D01*
X41553770Y-107188000D02*
X50038000Y-107188000D01*
X24384000Y-90018230D02*
X41553770Y-107188000D01*
%TO.N,/XLR Input 1/Channel 1 Cold*%
X53350000Y-105156000D02*
X56164000Y-107970000D01*
X28194000Y-91318000D02*
X42032000Y-105156000D01*
X42032000Y-105156000D02*
X53350000Y-105156000D01*
%TO.N,/XLR Input 1/Channel 2 Hot*%
X51434000Y-86868000D02*
X51434000Y-101578299D01*
X51434000Y-101578299D02*
X57404000Y-107548299D01*
X57404000Y-109210000D02*
X58704000Y-110510000D01*
X57404000Y-107548299D02*
X57404000Y-109210000D01*
%TO.N,/XLR Input 1/Channel 2 Cold*%
X58704000Y-94778000D02*
X58704000Y-107970000D01*
X55244000Y-91318000D02*
X58704000Y-94778000D01*
%TO.N,/XLR Input 1/Channel 3 Hot*%
X78484000Y-86868000D02*
X78484000Y-88902000D01*
X62484000Y-109210000D02*
X63784000Y-110510000D01*
X62484000Y-104902000D02*
X62484000Y-109210000D01*
X78484000Y-88902000D02*
X62484000Y-104902000D01*
%TO.N,/XLR Input 1/Channel 3 Cold*%
X77338000Y-91318000D02*
X63784000Y-104872000D01*
X63784000Y-104872000D02*
X63784000Y-107970000D01*
X82294000Y-91318000D02*
X77338000Y-91318000D01*
%TO.N,/XLR Input 1/Channel 4 Hot*%
X77678150Y-93093000D02*
X65149000Y-105622150D01*
X105534000Y-86868000D02*
X99309000Y-93093000D01*
X65149000Y-109335000D02*
X66324000Y-110510000D01*
X65149000Y-105622150D02*
X65149000Y-109335000D01*
X99309000Y-93093000D02*
X77678150Y-93093000D01*
%TO.N,/XLR Input 1/Channel 4 Cold*%
X106174000Y-94488000D02*
X77724000Y-94488000D01*
X77724000Y-94488000D02*
X66324000Y-105888000D01*
X66324000Y-105888000D02*
X66324000Y-107970000D01*
X109344000Y-91318000D02*
X106174000Y-94488000D01*
%TO.N,/XLR Output/Channel 1 Hot*%
X38354000Y-28448000D02*
X58291000Y-48385000D01*
X58291000Y-48385000D02*
X58291000Y-50725000D01*
X32340000Y-28448000D02*
X38354000Y-28448000D01*
X58291000Y-50725000D02*
X56926000Y-52090000D01*
%TO.N,/XLR Output/Channel 1 Cold*%
X39634000Y-32258000D02*
X56926000Y-49550000D01*
X28530000Y-32258000D02*
X39634000Y-32258000D01*
%TO.N,/XLR Output/Channel 2 Hot*%
X60641000Y-29399000D02*
X60641000Y-50915000D01*
X60641000Y-50915000D02*
X59466000Y-52090000D01*
X59690000Y-28448000D02*
X60641000Y-29399000D01*
%TO.N,/XLR Output/Channel 2 Cold*%
X59466000Y-35844000D02*
X59466000Y-49550000D01*
X55880000Y-32258000D02*
X59466000Y-35844000D01*
%TO.N,/XLR Output/Channel 3 Hot*%
X65721000Y-49011396D02*
X65721000Y-50915000D01*
X74183230Y-48260000D02*
X66472396Y-48260000D01*
X65721000Y-50915000D02*
X64546000Y-52090000D01*
X87040000Y-28448000D02*
X87040000Y-35403230D01*
X87040000Y-35403230D02*
X74183230Y-48260000D01*
X66472396Y-48260000D02*
X65721000Y-49011396D01*
%TO.N,/XLR Output/Channel 3 Cold*%
X83230000Y-32258000D02*
X81838000Y-32258000D01*
X81838000Y-32258000D02*
X64546000Y-49550000D01*
%TO.N,/Mute L/Out 1*%
X249973000Y-111977000D02*
X249953000Y-111997000D01*
X259991000Y-88609000D02*
X264959000Y-88609000D01*
X265984000Y-103341000D02*
X251243000Y-103341000D01*
X259879000Y-88721000D02*
X259991000Y-88609000D01*
X249953000Y-111997000D02*
X238767000Y-111997000D01*
%TO.N,/Mute L/Out 2*%
X272579000Y-88609000D02*
X277517000Y-88609000D01*
X267245000Y-104611000D02*
X251751000Y-104611000D01*
X251223000Y-109457000D02*
X238767000Y-109457000D01*
X251243000Y-109437000D02*
X251223000Y-109457000D01*
X277517000Y-88609000D02*
X277659000Y-88467000D01*
X251751000Y-104611000D02*
X251497000Y-104865000D01*
%TO.N,/Mute R/Out 1*%
X242861000Y-114263000D02*
X238493000Y-114263000D01*
X236765000Y-88609000D02*
X241845000Y-88609000D01*
X238493000Y-114263000D02*
X236227000Y-111997000D01*
%TO.N,/Mute R/Out 2*%
X248449000Y-107151000D02*
X238533000Y-107151000D01*
X238533000Y-107151000D02*
X236227000Y-109457000D01*
X249465000Y-88609000D02*
X254545000Y-88609000D01*
%TO.N,/Mute S/Out 1*%
X218731000Y-88609000D02*
X213651000Y-88609000D01*
X219886000Y-110822000D02*
X229972000Y-110822000D01*
X219747000Y-110961000D02*
X219886000Y-110822000D01*
X229972000Y-110822000D02*
X231147000Y-111997000D01*
%TO.N,/Mute S/Out 2*%
X229349000Y-107659000D02*
X231147000Y-109457000D01*
X224319000Y-107659000D02*
X229349000Y-107659000D01*
X226351000Y-88609000D02*
X231319000Y-88609000D01*
X231319000Y-88609000D02*
X231431000Y-88721000D01*
%TO.N,/Mute F/Out 1*%
X196887000Y-111215000D02*
X197669000Y-111997000D01*
X190903000Y-88609000D02*
X195871000Y-88609000D01*
X190791000Y-88721000D02*
X190903000Y-88609000D01*
X197669000Y-111997000D02*
X228607000Y-111997000D01*
%TO.N,/Mute F/Out 2*%
X201967000Y-109437000D02*
X201987000Y-109457000D01*
X208317000Y-88467000D02*
X208175000Y-88609000D01*
X201987000Y-109457000D02*
X228607000Y-109457000D01*
X208175000Y-88609000D02*
X203491000Y-88609000D01*
%TO.N,Net-(J19-Pin_1)*%
X261403000Y-116295000D02*
X220255000Y-116295000D01*
X217715000Y-118835000D02*
X217715000Y-120867000D01*
X220255000Y-116295000D02*
X217715000Y-118835000D01*
%TO.N,Net-(J19-Pin_3)*%
X267753000Y-110911000D02*
X266513000Y-109671000D01*
X267753000Y-117057000D02*
X267753000Y-110911000D01*
X263943000Y-120867000D02*
X267753000Y-117057000D01*
X235495000Y-120867000D02*
X263943000Y-120867000D01*
%TO.N,+5V*%
X189775000Y-120867000D02*
X193077000Y-124169000D01*
X209333000Y-124169000D02*
X212635000Y-120867000D01*
X264959000Y-117057000D02*
X264705000Y-117311000D01*
X227113000Y-124169000D02*
X230415000Y-120867000D01*
X193077000Y-124169000D02*
X209333000Y-124169000D01*
X212635000Y-120867000D02*
X215937000Y-124169000D01*
X264705000Y-117311000D02*
X231685000Y-117311000D01*
X231685000Y-117311000D02*
X230415000Y-118581000D01*
X215937000Y-124169000D02*
X227113000Y-124169000D01*
X230415000Y-118581000D02*
X230415000Y-120867000D01*
%TO.N,/Buttonpanel/G1LED*%
X60835000Y-188035000D02*
X62200000Y-186670000D01*
X19050000Y-188872500D02*
X19887500Y-188035000D01*
X19887500Y-188035000D02*
X60835000Y-188035000D01*
%TO.N,/Buttonpanel/G2LED*%
X47140500Y-188872500D02*
X50038000Y-191770000D01*
X50038000Y-191770000D02*
X61468000Y-191770000D01*
X62200000Y-191038000D02*
X62200000Y-189210000D01*
X44450000Y-188872500D02*
X47140500Y-188872500D01*
X61468000Y-191770000D02*
X62200000Y-191038000D01*
%TO.N,/Buttonpanel/MuteLED*%
X68984500Y-188872500D02*
X64008000Y-183896000D01*
X64008000Y-183896000D02*
X60452000Y-183896000D01*
X60452000Y-183896000D02*
X59660000Y-184688000D01*
X69850000Y-188872500D02*
X68984500Y-188872500D01*
X59660000Y-184688000D02*
X59660000Y-186670000D01*
%TO.N,/Buttonpanel/5V*%
X60472000Y-189210000D02*
X59660000Y-189210000D01*
X64361701Y-189710000D02*
X62686701Y-188035000D01*
X61647000Y-188035000D02*
X60472000Y-189210000D01*
X62686701Y-188035000D02*
X61647000Y-188035000D01*
X95250000Y-188872500D02*
X94412500Y-189710000D01*
X94412500Y-189710000D02*
X64361701Y-189710000D01*
%TO.N,Net-(JP1-B)*%
X268881000Y-89767000D02*
X264959000Y-93689000D01*
X277659000Y-89767000D02*
X268881000Y-89767000D01*
X259946569Y-82147000D02*
X265984000Y-88184431D01*
X265984000Y-88184431D02*
X265984000Y-92664000D01*
X259879000Y-82147000D02*
X259946569Y-82147000D01*
X265984000Y-92664000D02*
X264959000Y-93689000D01*
%TO.N,Net-(JP14-A)*%
X237086569Y-82401000D02*
X242988000Y-88302431D01*
X236765000Y-82401000D02*
X237086569Y-82401000D01*
X245625000Y-89909000D02*
X241845000Y-93689000D01*
X242988000Y-92546000D02*
X241845000Y-93689000D01*
X242988000Y-88302431D02*
X242988000Y-92546000D01*
X254545000Y-89909000D02*
X245625000Y-89909000D01*
%TO.N,Net-(JP15-A)*%
X219756000Y-88184431D02*
X219756000Y-92664000D01*
X213651000Y-82147000D02*
X213718569Y-82147000D01*
X213718569Y-82147000D02*
X219756000Y-88184431D01*
X222399000Y-90021000D02*
X218731000Y-93689000D01*
X219756000Y-92664000D02*
X218731000Y-93689000D01*
X231431000Y-90021000D02*
X222399000Y-90021000D01*
%TO.N,Net-(JP16-A)*%
X196896000Y-92664000D02*
X195871000Y-93689000D01*
X196896000Y-88184431D02*
X196896000Y-92664000D01*
X190791000Y-82147000D02*
X190858569Y-82147000D01*
X208317000Y-89767000D02*
X199793000Y-89767000D01*
X190858569Y-82147000D02*
X196896000Y-88184431D01*
X199793000Y-89767000D02*
X195871000Y-93689000D01*
%TO.N,Net-(JP5-B)*%
X279945000Y-84687000D02*
X279945000Y-91149000D01*
X271055000Y-95213000D02*
X272579000Y-93689000D01*
X259879000Y-91657000D02*
X263435000Y-95213000D01*
X263435000Y-95213000D02*
X271055000Y-95213000D01*
X277405000Y-93689000D02*
X272579000Y-93689000D01*
X277659000Y-82401000D02*
X279945000Y-84687000D01*
X279945000Y-91149000D02*
X277405000Y-93689000D01*
X259879000Y-90021000D02*
X259879000Y-91657000D01*
%TO.N,Net-(JP10-B)*%
X236765000Y-89909000D02*
X236765000Y-91657000D01*
X247941000Y-95213000D02*
X249465000Y-93689000D01*
X240321000Y-95213000D02*
X247941000Y-95213000D01*
X254291000Y-93689000D02*
X249465000Y-93689000D01*
X256831000Y-91149000D02*
X254291000Y-93689000D01*
X236765000Y-91657000D02*
X240321000Y-95213000D01*
X254545000Y-82401000D02*
X256831000Y-84687000D01*
X256831000Y-84687000D02*
X256831000Y-91149000D01*
%TO.N,Net-(JP11-B)*%
X213651000Y-91657000D02*
X217207000Y-95213000D01*
X234225000Y-90150364D02*
X230686364Y-93689000D01*
X217207000Y-95213000D02*
X224827000Y-95213000D01*
X234225000Y-85195000D02*
X234225000Y-90150364D01*
X224827000Y-95213000D02*
X226351000Y-93689000D01*
X213651000Y-89909000D02*
X213651000Y-91657000D01*
X231431000Y-82401000D02*
X234225000Y-85195000D01*
X230686364Y-93689000D02*
X226351000Y-93689000D01*
%TO.N,Net-(JP12-B)*%
X201967000Y-95213000D02*
X203491000Y-93689000D01*
X207555000Y-93689000D02*
X203491000Y-93689000D01*
X208317000Y-82147000D02*
X210857000Y-84687000D01*
X190791000Y-91403000D02*
X194601000Y-95213000D01*
X210857000Y-84687000D02*
X210857000Y-90387000D01*
X210857000Y-90387000D02*
X207555000Y-93689000D01*
X194601000Y-95213000D02*
X201967000Y-95213000D01*
X190791000Y-90021000D02*
X190791000Y-91403000D01*
%TO.N,/Mute L/In 1*%
X262927000Y-96737000D02*
X168439000Y-96737000D01*
X168439000Y-96737000D02*
X166153000Y-94451000D01*
X166153000Y-94451000D02*
X152691000Y-94451000D01*
X264959000Y-98769000D02*
X262927000Y-96737000D01*
%TO.N,/Mute L/In 2*%
X166027396Y-93689000D02*
X151929000Y-93689000D01*
X270039000Y-96229000D02*
X168567396Y-96229000D01*
X272579000Y-98769000D02*
X270039000Y-96229000D01*
X168567396Y-96229000D02*
X166027396Y-93689000D01*
%TO.N,/Mute R/In 1*%
X240820000Y-97744000D02*
X155556000Y-97744000D01*
X155556000Y-97744000D02*
X153993500Y-96181500D01*
X241845000Y-98769000D02*
X240820000Y-97744000D01*
%TO.N,/Mute R/In 2*%
X247990000Y-97294000D02*
X156550000Y-97294000D01*
X249465000Y-98769000D02*
X247990000Y-97294000D01*
X156550000Y-97294000D02*
X155739000Y-96483000D01*
%TO.N,/Mute S/In 1*%
X216953000Y-100547000D02*
X152691000Y-100547000D01*
X218731000Y-98769000D02*
X216953000Y-100547000D01*
%TO.N,/Mute S/In 2*%
X226351000Y-98769000D02*
X223811000Y-101309000D01*
X155216000Y-101309000D02*
X153993500Y-102531500D01*
X223811000Y-101309000D02*
X155216000Y-101309000D01*
%TO.N,/Mute F/In 1*%
X151628695Y-99060000D02*
X195580000Y-99060000D01*
X195580000Y-99060000D02*
X195871000Y-98769000D01*
X151215860Y-99084688D02*
X151604007Y-99084688D01*
X151604007Y-99084688D02*
X151628695Y-99060000D01*
%TO.N,/Mute F/In 2*%
X151938000Y-99794000D02*
X151929000Y-99785000D01*
X203491000Y-98769000D02*
X202466000Y-99794000D01*
X202466000Y-99794000D02*
X151938000Y-99794000D01*
%TO.N,/XLR Output/Pin1*%
X106770000Y-28448000D02*
X101092000Y-28448000D01*
X101092000Y-28448000D02*
X78740000Y-50800000D01*
%TD*%
M02*
