%TF.GenerationSoftware,KiCad,Pcbnew,7.0.6*%
%TF.CreationDate,2023-11-23T12:49:05+01:00*%
%TF.ProjectId,EF_matrix,45465f6d-6174-4726-9978-2e6b69636164,rev?*%
%TF.SameCoordinates,Original*%
%TF.FileFunction,Drillmap*%
%TF.FilePolarity,Positive*%
%FSLAX45Y45*%
G04 Gerber Fmt 4.5, Leading zero omitted, Abs format (unit mm)*
G04 Created by KiCad (PCBNEW 7.0.6) date 2023-11-23 12:49:05*
%MOMM*%
%LPD*%
G01*
G04 APERTURE LIST*
%ADD10C,0.100000*%
%ADD11C,0.200000*%
G04 APERTURE END LIST*
D10*
X1270000Y-12597400D02*
X12446000Y-12597400D01*
X12446000Y-16915400D01*
X1270000Y-16915400D01*
X1270000Y-12597400D01*
X1270000Y-1270000D02*
X12446000Y-1270000D01*
X12446000Y-5588000D01*
X1270000Y-5588000D01*
X1270000Y-1270000D01*
X1270000Y-17526000D02*
X9906000Y-17526000D01*
X9906000Y-19558000D01*
X1270000Y-19558000D01*
X1270000Y-17526000D01*
X1270000Y-7112000D02*
X12446000Y-7112000D01*
X12446000Y-11430000D01*
X1270000Y-11430000D01*
X1270000Y-7112000D01*
X28125405Y-7078150D02*
X13647405Y-7078150D01*
X13647405Y-12920150D01*
X28125405Y-12920150D01*
X28125405Y-7078150D01*
D11*
X1525777Y-19874484D02*
X1525777Y-19674484D01*
X1525777Y-19674484D02*
X1573396Y-19674484D01*
X1573396Y-19674484D02*
X1601967Y-19684008D01*
X1601967Y-19684008D02*
X1621015Y-19703055D01*
X1621015Y-19703055D02*
X1630539Y-19722103D01*
X1630539Y-19722103D02*
X1640062Y-19760198D01*
X1640062Y-19760198D02*
X1640062Y-19788770D01*
X1640062Y-19788770D02*
X1630539Y-19826865D01*
X1630539Y-19826865D02*
X1621015Y-19845912D01*
X1621015Y-19845912D02*
X1601967Y-19864960D01*
X1601967Y-19864960D02*
X1573396Y-19874484D01*
X1573396Y-19874484D02*
X1525777Y-19874484D01*
X1725777Y-19874484D02*
X1725777Y-19741150D01*
X1725777Y-19779246D02*
X1735301Y-19760198D01*
X1735301Y-19760198D02*
X1744824Y-19750674D01*
X1744824Y-19750674D02*
X1763872Y-19741150D01*
X1763872Y-19741150D02*
X1782920Y-19741150D01*
X1849586Y-19874484D02*
X1849586Y-19741150D01*
X1849586Y-19674484D02*
X1840062Y-19684008D01*
X1840062Y-19684008D02*
X1849586Y-19693531D01*
X1849586Y-19693531D02*
X1859110Y-19684008D01*
X1859110Y-19684008D02*
X1849586Y-19674484D01*
X1849586Y-19674484D02*
X1849586Y-19693531D01*
X1973396Y-19874484D02*
X1954348Y-19864960D01*
X1954348Y-19864960D02*
X1944824Y-19845912D01*
X1944824Y-19845912D02*
X1944824Y-19674484D01*
X2078158Y-19874484D02*
X2059110Y-19864960D01*
X2059110Y-19864960D02*
X2049586Y-19845912D01*
X2049586Y-19845912D02*
X2049586Y-19674484D01*
X2306729Y-19874484D02*
X2306729Y-19674484D01*
X2306729Y-19674484D02*
X2373396Y-19817341D01*
X2373396Y-19817341D02*
X2440063Y-19674484D01*
X2440063Y-19674484D02*
X2440063Y-19874484D01*
X2621015Y-19874484D02*
X2621015Y-19769722D01*
X2621015Y-19769722D02*
X2611491Y-19750674D01*
X2611491Y-19750674D02*
X2592444Y-19741150D01*
X2592444Y-19741150D02*
X2554348Y-19741150D01*
X2554348Y-19741150D02*
X2535301Y-19750674D01*
X2621015Y-19864960D02*
X2601967Y-19874484D01*
X2601967Y-19874484D02*
X2554348Y-19874484D01*
X2554348Y-19874484D02*
X2535301Y-19864960D01*
X2535301Y-19864960D02*
X2525777Y-19845912D01*
X2525777Y-19845912D02*
X2525777Y-19826865D01*
X2525777Y-19826865D02*
X2535301Y-19807817D01*
X2535301Y-19807817D02*
X2554348Y-19798293D01*
X2554348Y-19798293D02*
X2601967Y-19798293D01*
X2601967Y-19798293D02*
X2621015Y-19788770D01*
X2716253Y-19741150D02*
X2716253Y-19941150D01*
X2716253Y-19750674D02*
X2735301Y-19741150D01*
X2735301Y-19741150D02*
X2773396Y-19741150D01*
X2773396Y-19741150D02*
X2792444Y-19750674D01*
X2792444Y-19750674D02*
X2801967Y-19760198D01*
X2801967Y-19760198D02*
X2811491Y-19779246D01*
X2811491Y-19779246D02*
X2811491Y-19836389D01*
X2811491Y-19836389D02*
X2801967Y-19855436D01*
X2801967Y-19855436D02*
X2792444Y-19864960D01*
X2792444Y-19864960D02*
X2773396Y-19874484D01*
X2773396Y-19874484D02*
X2735301Y-19874484D01*
X2735301Y-19874484D02*
X2716253Y-19864960D01*
X2897205Y-19855436D02*
X2906729Y-19864960D01*
X2906729Y-19864960D02*
X2897205Y-19874484D01*
X2897205Y-19874484D02*
X2887682Y-19864960D01*
X2887682Y-19864960D02*
X2897205Y-19855436D01*
X2897205Y-19855436D02*
X2897205Y-19874484D01*
X2897205Y-19750674D02*
X2906729Y-19760198D01*
X2906729Y-19760198D02*
X2897205Y-19769722D01*
X2897205Y-19769722D02*
X2887682Y-19760198D01*
X2887682Y-19760198D02*
X2897205Y-19750674D01*
X2897205Y-19750674D02*
X2897205Y-19769722D01*
M02*
