%TF.GenerationSoftware,KiCad,Pcbnew,7.0.6*%
%TF.CreationDate,2023-11-23T12:49:08+01:00*%
%TF.ProjectId,EF_matrix,45465f6d-6174-4726-9978-2e6b69636164,rev?*%
%TF.SameCoordinates,Original*%
%TF.FileFunction,Legend,Top*%
%TF.FilePolarity,Positive*%
%FSLAX46Y46*%
G04 Gerber Fmt 4.6, Leading zero omitted, Abs format (unit mm)*
G04 Created by KiCad (PCBNEW 7.0.6) date 2023-11-23 12:49:08*
%MOMM*%
%LPD*%
G01*
G04 APERTURE LIST*
%ADD10C,0.150000*%
%ADD11C,0.120000*%
G04 APERTURE END LIST*
D10*
X91776779Y-185289819D02*
X91776779Y-184289819D01*
X91776779Y-184289819D02*
X92157731Y-184289819D01*
X92157731Y-184289819D02*
X92252969Y-184337438D01*
X92252969Y-184337438D02*
X92300588Y-184385057D01*
X92300588Y-184385057D02*
X92348207Y-184480295D01*
X92348207Y-184480295D02*
X92348207Y-184623152D01*
X92348207Y-184623152D02*
X92300588Y-184718390D01*
X92300588Y-184718390D02*
X92252969Y-184766009D01*
X92252969Y-184766009D02*
X92157731Y-184813628D01*
X92157731Y-184813628D02*
X91776779Y-184813628D01*
X92919636Y-185289819D02*
X92824398Y-185242200D01*
X92824398Y-185242200D02*
X92776779Y-185194580D01*
X92776779Y-185194580D02*
X92729160Y-185099342D01*
X92729160Y-185099342D02*
X92729160Y-184813628D01*
X92729160Y-184813628D02*
X92776779Y-184718390D01*
X92776779Y-184718390D02*
X92824398Y-184670771D01*
X92824398Y-184670771D02*
X92919636Y-184623152D01*
X92919636Y-184623152D02*
X93062493Y-184623152D01*
X93062493Y-184623152D02*
X93157731Y-184670771D01*
X93157731Y-184670771D02*
X93205350Y-184718390D01*
X93205350Y-184718390D02*
X93252969Y-184813628D01*
X93252969Y-184813628D02*
X93252969Y-185099342D01*
X93252969Y-185099342D02*
X93205350Y-185194580D01*
X93205350Y-185194580D02*
X93157731Y-185242200D01*
X93157731Y-185242200D02*
X93062493Y-185289819D01*
X93062493Y-185289819D02*
X92919636Y-185289819D01*
X93586303Y-184623152D02*
X93776779Y-185289819D01*
X93776779Y-185289819D02*
X93967255Y-184813628D01*
X93967255Y-184813628D02*
X94157731Y-185289819D01*
X94157731Y-185289819D02*
X94348207Y-184623152D01*
X95110112Y-185242200D02*
X95014874Y-185289819D01*
X95014874Y-185289819D02*
X94824398Y-185289819D01*
X94824398Y-185289819D02*
X94729160Y-185242200D01*
X94729160Y-185242200D02*
X94681541Y-185146961D01*
X94681541Y-185146961D02*
X94681541Y-184766009D01*
X94681541Y-184766009D02*
X94729160Y-184670771D01*
X94729160Y-184670771D02*
X94824398Y-184623152D01*
X94824398Y-184623152D02*
X95014874Y-184623152D01*
X95014874Y-184623152D02*
X95110112Y-184670771D01*
X95110112Y-184670771D02*
X95157731Y-184766009D01*
X95157731Y-184766009D02*
X95157731Y-184861247D01*
X95157731Y-184861247D02*
X94681541Y-184956485D01*
X95586303Y-185289819D02*
X95586303Y-184623152D01*
X95586303Y-184813628D02*
X95633922Y-184718390D01*
X95633922Y-184718390D02*
X95681541Y-184670771D01*
X95681541Y-184670771D02*
X95776779Y-184623152D01*
X95776779Y-184623152D02*
X95872017Y-184623152D01*
X66376779Y-185289819D02*
X66376779Y-184289819D01*
X66376779Y-184289819D02*
X66710112Y-185004104D01*
X66710112Y-185004104D02*
X67043445Y-184289819D01*
X67043445Y-184289819D02*
X67043445Y-185289819D01*
X67948207Y-184623152D02*
X67948207Y-185289819D01*
X67519636Y-184623152D02*
X67519636Y-185146961D01*
X67519636Y-185146961D02*
X67567255Y-185242200D01*
X67567255Y-185242200D02*
X67662493Y-185289819D01*
X67662493Y-185289819D02*
X67805350Y-185289819D01*
X67805350Y-185289819D02*
X67900588Y-185242200D01*
X67900588Y-185242200D02*
X67948207Y-185194580D01*
X68281541Y-184623152D02*
X68662493Y-184623152D01*
X68424398Y-184289819D02*
X68424398Y-185146961D01*
X68424398Y-185146961D02*
X68472017Y-185242200D01*
X68472017Y-185242200D02*
X68567255Y-185289819D01*
X68567255Y-185289819D02*
X68662493Y-185289819D01*
X69376779Y-185242200D02*
X69281541Y-185289819D01*
X69281541Y-185289819D02*
X69091065Y-185289819D01*
X69091065Y-185289819D02*
X68995827Y-185242200D01*
X68995827Y-185242200D02*
X68948208Y-185146961D01*
X68948208Y-185146961D02*
X68948208Y-184766009D01*
X68948208Y-184766009D02*
X68995827Y-184670771D01*
X68995827Y-184670771D02*
X69091065Y-184623152D01*
X69091065Y-184623152D02*
X69281541Y-184623152D01*
X69281541Y-184623152D02*
X69376779Y-184670771D01*
X69376779Y-184670771D02*
X69424398Y-184766009D01*
X69424398Y-184766009D02*
X69424398Y-184861247D01*
X69424398Y-184861247D02*
X68948208Y-184956485D01*
X40976779Y-185289819D02*
X40976779Y-184289819D01*
X41452969Y-184623152D02*
X41452969Y-185289819D01*
X41452969Y-184718390D02*
X41500588Y-184670771D01*
X41500588Y-184670771D02*
X41595826Y-184623152D01*
X41595826Y-184623152D02*
X41738683Y-184623152D01*
X41738683Y-184623152D02*
X41833921Y-184670771D01*
X41833921Y-184670771D02*
X41881540Y-184766009D01*
X41881540Y-184766009D02*
X41881540Y-185289819D01*
X43072017Y-184385057D02*
X43119636Y-184337438D01*
X43119636Y-184337438D02*
X43214874Y-184289819D01*
X43214874Y-184289819D02*
X43452969Y-184289819D01*
X43452969Y-184289819D02*
X43548207Y-184337438D01*
X43548207Y-184337438D02*
X43595826Y-184385057D01*
X43595826Y-184385057D02*
X43643445Y-184480295D01*
X43643445Y-184480295D02*
X43643445Y-184575533D01*
X43643445Y-184575533D02*
X43595826Y-184718390D01*
X43595826Y-184718390D02*
X43024398Y-185289819D01*
X43024398Y-185289819D02*
X43643445Y-185289819D01*
X15576779Y-185289819D02*
X15576779Y-184289819D01*
X16052969Y-184623152D02*
X16052969Y-185289819D01*
X16052969Y-184718390D02*
X16100588Y-184670771D01*
X16100588Y-184670771D02*
X16195826Y-184623152D01*
X16195826Y-184623152D02*
X16338683Y-184623152D01*
X16338683Y-184623152D02*
X16433921Y-184670771D01*
X16433921Y-184670771D02*
X16481540Y-184766009D01*
X16481540Y-184766009D02*
X16481540Y-185289819D01*
X18243445Y-185289819D02*
X17672017Y-185289819D01*
X17957731Y-185289819D02*
X17957731Y-184289819D01*
X17957731Y-184289819D02*
X17862493Y-184432676D01*
X17862493Y-184432676D02*
X17767255Y-184527914D01*
X17767255Y-184527914D02*
X17672017Y-184575533D01*
X71120000Y-161290000D02*
X81280000Y-161290000D01*
X81280000Y-167640000D01*
X71120000Y-167640000D01*
X71120000Y-161290000D01*
X82140588Y-166557438D02*
X82045350Y-166509819D01*
X82045350Y-166509819D02*
X81902493Y-166509819D01*
X81902493Y-166509819D02*
X81759636Y-166557438D01*
X81759636Y-166557438D02*
X81664398Y-166652676D01*
X81664398Y-166652676D02*
X81616779Y-166747914D01*
X81616779Y-166747914D02*
X81569160Y-166938390D01*
X81569160Y-166938390D02*
X81569160Y-167081247D01*
X81569160Y-167081247D02*
X81616779Y-167271723D01*
X81616779Y-167271723D02*
X81664398Y-167366961D01*
X81664398Y-167366961D02*
X81759636Y-167462200D01*
X81759636Y-167462200D02*
X81902493Y-167509819D01*
X81902493Y-167509819D02*
X81997731Y-167509819D01*
X81997731Y-167509819D02*
X82140588Y-167462200D01*
X82140588Y-167462200D02*
X82188207Y-167414580D01*
X82188207Y-167414580D02*
X82188207Y-167081247D01*
X82188207Y-167081247D02*
X81997731Y-167081247D01*
X82616779Y-167509819D02*
X82616779Y-166509819D01*
X82616779Y-166509819D02*
X83188207Y-167509819D01*
X83188207Y-167509819D02*
X83188207Y-166509819D01*
X83664398Y-167509819D02*
X83664398Y-166509819D01*
X83664398Y-166509819D02*
X83902493Y-166509819D01*
X83902493Y-166509819D02*
X84045350Y-166557438D01*
X84045350Y-166557438D02*
X84140588Y-166652676D01*
X84140588Y-166652676D02*
X84188207Y-166747914D01*
X84188207Y-166747914D02*
X84235826Y-166938390D01*
X84235826Y-166938390D02*
X84235826Y-167081247D01*
X84235826Y-167081247D02*
X84188207Y-167271723D01*
X84188207Y-167271723D02*
X84140588Y-167366961D01*
X84140588Y-167366961D02*
X84045350Y-167462200D01*
X84045350Y-167462200D02*
X83902493Y-167509819D01*
X83902493Y-167509819D02*
X83664398Y-167509819D01*
X85902493Y-167509819D02*
X85426303Y-167509819D01*
X85426303Y-167509819D02*
X85426303Y-166509819D01*
X86235827Y-167509819D02*
X86235827Y-166843152D01*
X86235827Y-166509819D02*
X86188208Y-166557438D01*
X86188208Y-166557438D02*
X86235827Y-166605057D01*
X86235827Y-166605057D02*
X86283446Y-166557438D01*
X86283446Y-166557438D02*
X86235827Y-166509819D01*
X86235827Y-166509819D02*
X86235827Y-166605057D01*
X86569160Y-166843152D02*
X86950112Y-166843152D01*
X86712017Y-167509819D02*
X86712017Y-166652676D01*
X86712017Y-166652676D02*
X86759636Y-166557438D01*
X86759636Y-166557438D02*
X86854874Y-166509819D01*
X86854874Y-166509819D02*
X86950112Y-166509819D01*
X87140589Y-166843152D02*
X87521541Y-166843152D01*
X87283446Y-166509819D02*
X87283446Y-167366961D01*
X87283446Y-167366961D02*
X87331065Y-167462200D01*
X87331065Y-167462200D02*
X87426303Y-167509819D01*
X87426303Y-167509819D02*
X87521541Y-167509819D01*
X71120000Y-106680000D02*
X81280000Y-106680000D01*
X81280000Y-113030000D01*
X71120000Y-113030000D01*
X71120000Y-106680000D01*
X82140588Y-111947438D02*
X82045350Y-111899819D01*
X82045350Y-111899819D02*
X81902493Y-111899819D01*
X81902493Y-111899819D02*
X81759636Y-111947438D01*
X81759636Y-111947438D02*
X81664398Y-112042676D01*
X81664398Y-112042676D02*
X81616779Y-112137914D01*
X81616779Y-112137914D02*
X81569160Y-112328390D01*
X81569160Y-112328390D02*
X81569160Y-112471247D01*
X81569160Y-112471247D02*
X81616779Y-112661723D01*
X81616779Y-112661723D02*
X81664398Y-112756961D01*
X81664398Y-112756961D02*
X81759636Y-112852200D01*
X81759636Y-112852200D02*
X81902493Y-112899819D01*
X81902493Y-112899819D02*
X81997731Y-112899819D01*
X81997731Y-112899819D02*
X82140588Y-112852200D01*
X82140588Y-112852200D02*
X82188207Y-112804580D01*
X82188207Y-112804580D02*
X82188207Y-112471247D01*
X82188207Y-112471247D02*
X81997731Y-112471247D01*
X82616779Y-112899819D02*
X82616779Y-111899819D01*
X82616779Y-111899819D02*
X83188207Y-112899819D01*
X83188207Y-112899819D02*
X83188207Y-111899819D01*
X83664398Y-112899819D02*
X83664398Y-111899819D01*
X83664398Y-111899819D02*
X83902493Y-111899819D01*
X83902493Y-111899819D02*
X84045350Y-111947438D01*
X84045350Y-111947438D02*
X84140588Y-112042676D01*
X84140588Y-112042676D02*
X84188207Y-112137914D01*
X84188207Y-112137914D02*
X84235826Y-112328390D01*
X84235826Y-112328390D02*
X84235826Y-112471247D01*
X84235826Y-112471247D02*
X84188207Y-112661723D01*
X84188207Y-112661723D02*
X84140588Y-112756961D01*
X84140588Y-112756961D02*
X84045350Y-112852200D01*
X84045350Y-112852200D02*
X83902493Y-112899819D01*
X83902493Y-112899819D02*
X83664398Y-112899819D01*
X85902493Y-112899819D02*
X85426303Y-112899819D01*
X85426303Y-112899819D02*
X85426303Y-111899819D01*
X86235827Y-112899819D02*
X86235827Y-112233152D01*
X86235827Y-111899819D02*
X86188208Y-111947438D01*
X86188208Y-111947438D02*
X86235827Y-111995057D01*
X86235827Y-111995057D02*
X86283446Y-111947438D01*
X86283446Y-111947438D02*
X86235827Y-111899819D01*
X86235827Y-111899819D02*
X86235827Y-111995057D01*
X86569160Y-112233152D02*
X86950112Y-112233152D01*
X86712017Y-112899819D02*
X86712017Y-112042676D01*
X86712017Y-112042676D02*
X86759636Y-111947438D01*
X86759636Y-111947438D02*
X86854874Y-111899819D01*
X86854874Y-111899819D02*
X86950112Y-111899819D01*
X87140589Y-112233152D02*
X87521541Y-112233152D01*
X87283446Y-111899819D02*
X87283446Y-112756961D01*
X87283446Y-112756961D02*
X87331065Y-112852200D01*
X87331065Y-112852200D02*
X87426303Y-112899819D01*
X87426303Y-112899819D02*
X87521541Y-112899819D01*
X82140588Y-52257438D02*
X82045350Y-52209819D01*
X82045350Y-52209819D02*
X81902493Y-52209819D01*
X81902493Y-52209819D02*
X81759636Y-52257438D01*
X81759636Y-52257438D02*
X81664398Y-52352676D01*
X81664398Y-52352676D02*
X81616779Y-52447914D01*
X81616779Y-52447914D02*
X81569160Y-52638390D01*
X81569160Y-52638390D02*
X81569160Y-52781247D01*
X81569160Y-52781247D02*
X81616779Y-52971723D01*
X81616779Y-52971723D02*
X81664398Y-53066961D01*
X81664398Y-53066961D02*
X81759636Y-53162200D01*
X81759636Y-53162200D02*
X81902493Y-53209819D01*
X81902493Y-53209819D02*
X81997731Y-53209819D01*
X81997731Y-53209819D02*
X82140588Y-53162200D01*
X82140588Y-53162200D02*
X82188207Y-53114580D01*
X82188207Y-53114580D02*
X82188207Y-52781247D01*
X82188207Y-52781247D02*
X81997731Y-52781247D01*
X82616779Y-53209819D02*
X82616779Y-52209819D01*
X82616779Y-52209819D02*
X83188207Y-53209819D01*
X83188207Y-53209819D02*
X83188207Y-52209819D01*
X83664398Y-53209819D02*
X83664398Y-52209819D01*
X83664398Y-52209819D02*
X83902493Y-52209819D01*
X83902493Y-52209819D02*
X84045350Y-52257438D01*
X84045350Y-52257438D02*
X84140588Y-52352676D01*
X84140588Y-52352676D02*
X84188207Y-52447914D01*
X84188207Y-52447914D02*
X84235826Y-52638390D01*
X84235826Y-52638390D02*
X84235826Y-52781247D01*
X84235826Y-52781247D02*
X84188207Y-52971723D01*
X84188207Y-52971723D02*
X84140588Y-53066961D01*
X84140588Y-53066961D02*
X84045350Y-53162200D01*
X84045350Y-53162200D02*
X83902493Y-53209819D01*
X83902493Y-53209819D02*
X83664398Y-53209819D01*
X85902493Y-53209819D02*
X85426303Y-53209819D01*
X85426303Y-53209819D02*
X85426303Y-52209819D01*
X86235827Y-53209819D02*
X86235827Y-52543152D01*
X86235827Y-52209819D02*
X86188208Y-52257438D01*
X86188208Y-52257438D02*
X86235827Y-52305057D01*
X86235827Y-52305057D02*
X86283446Y-52257438D01*
X86283446Y-52257438D02*
X86235827Y-52209819D01*
X86235827Y-52209819D02*
X86235827Y-52305057D01*
X86569160Y-52543152D02*
X86950112Y-52543152D01*
X86712017Y-53209819D02*
X86712017Y-52352676D01*
X86712017Y-52352676D02*
X86759636Y-52257438D01*
X86759636Y-52257438D02*
X86854874Y-52209819D01*
X86854874Y-52209819D02*
X86950112Y-52209819D01*
X87140589Y-52543152D02*
X87521541Y-52543152D01*
X87283446Y-52209819D02*
X87283446Y-53066961D01*
X87283446Y-53066961D02*
X87331065Y-53162200D01*
X87331065Y-53162200D02*
X87426303Y-53209819D01*
X87426303Y-53209819D02*
X87521541Y-53209819D01*
X71120000Y-46990000D02*
X81280000Y-46990000D01*
X81280000Y-53340000D01*
X71120000Y-53340000D01*
X71120000Y-46990000D01*
X194599160Y-122779533D02*
X195208684Y-122779533D01*
X189519160Y-122779533D02*
X190128684Y-122779533D01*
X189823922Y-123084295D02*
X189823922Y-122474771D01*
X189124295Y-84800839D02*
X188324295Y-84800839D01*
X188324295Y-84800839D02*
X188895723Y-84534173D01*
X188895723Y-84534173D02*
X188324295Y-84267506D01*
X188324295Y-84267506D02*
X189124295Y-84267506D01*
X188590961Y-83543696D02*
X189124295Y-83543696D01*
X188590961Y-83886553D02*
X189010009Y-83886553D01*
X189010009Y-83886553D02*
X189086200Y-83848458D01*
X189086200Y-83848458D02*
X189124295Y-83772268D01*
X189124295Y-83772268D02*
X189124295Y-83657982D01*
X189124295Y-83657982D02*
X189086200Y-83581791D01*
X189086200Y-83581791D02*
X189048104Y-83543696D01*
X188590961Y-83277029D02*
X188590961Y-82972267D01*
X188324295Y-83162743D02*
X189010009Y-83162743D01*
X189010009Y-83162743D02*
X189086200Y-83124648D01*
X189086200Y-83124648D02*
X189124295Y-83048458D01*
X189124295Y-83048458D02*
X189124295Y-82972267D01*
X189086200Y-82400838D02*
X189124295Y-82477029D01*
X189124295Y-82477029D02*
X189124295Y-82629410D01*
X189124295Y-82629410D02*
X189086200Y-82705600D01*
X189086200Y-82705600D02*
X189010009Y-82743696D01*
X189010009Y-82743696D02*
X188705247Y-82743696D01*
X188705247Y-82743696D02*
X188629057Y-82705600D01*
X188629057Y-82705600D02*
X188590961Y-82629410D01*
X188590961Y-82629410D02*
X188590961Y-82477029D01*
X188590961Y-82477029D02*
X188629057Y-82400838D01*
X188629057Y-82400838D02*
X188705247Y-82362743D01*
X188705247Y-82362743D02*
X188781438Y-82362743D01*
X188781438Y-82362743D02*
X188857628Y-82743696D01*
X188362390Y-80991315D02*
X188324295Y-81067505D01*
X188324295Y-81067505D02*
X188324295Y-81181791D01*
X188324295Y-81181791D02*
X188362390Y-81296077D01*
X188362390Y-81296077D02*
X188438580Y-81372267D01*
X188438580Y-81372267D02*
X188514771Y-81410362D01*
X188514771Y-81410362D02*
X188667152Y-81448458D01*
X188667152Y-81448458D02*
X188781438Y-81448458D01*
X188781438Y-81448458D02*
X188933819Y-81410362D01*
X188933819Y-81410362D02*
X189010009Y-81372267D01*
X189010009Y-81372267D02*
X189086200Y-81296077D01*
X189086200Y-81296077D02*
X189124295Y-81181791D01*
X189124295Y-81181791D02*
X189124295Y-81105600D01*
X189124295Y-81105600D02*
X189086200Y-80991315D01*
X189086200Y-80991315D02*
X189048104Y-80953219D01*
X189048104Y-80953219D02*
X188781438Y-80953219D01*
X188781438Y-80953219D02*
X188781438Y-81105600D01*
X189124295Y-80610362D02*
X188324295Y-80610362D01*
X188324295Y-80610362D02*
X189124295Y-80153219D01*
X189124295Y-80153219D02*
X188324295Y-80153219D01*
X189124295Y-79772267D02*
X188324295Y-79772267D01*
X188324295Y-79772267D02*
X188324295Y-79581791D01*
X188324295Y-79581791D02*
X188362390Y-79467505D01*
X188362390Y-79467505D02*
X188438580Y-79391315D01*
X188438580Y-79391315D02*
X188514771Y-79353220D01*
X188514771Y-79353220D02*
X188667152Y-79315124D01*
X188667152Y-79315124D02*
X188781438Y-79315124D01*
X188781438Y-79315124D02*
X188933819Y-79353220D01*
X188933819Y-79353220D02*
X189010009Y-79391315D01*
X189010009Y-79391315D02*
X189086200Y-79467505D01*
X189086200Y-79467505D02*
X189124295Y-79581791D01*
X189124295Y-79581791D02*
X189124295Y-79772267D01*
X189124295Y-92420839D02*
X188324295Y-92420839D01*
X188324295Y-92420839D02*
X188895723Y-92154173D01*
X188895723Y-92154173D02*
X188324295Y-91887506D01*
X188324295Y-91887506D02*
X189124295Y-91887506D01*
X188590961Y-91163696D02*
X189124295Y-91163696D01*
X188590961Y-91506553D02*
X189010009Y-91506553D01*
X189010009Y-91506553D02*
X189086200Y-91468458D01*
X189086200Y-91468458D02*
X189124295Y-91392268D01*
X189124295Y-91392268D02*
X189124295Y-91277982D01*
X189124295Y-91277982D02*
X189086200Y-91201791D01*
X189086200Y-91201791D02*
X189048104Y-91163696D01*
X188590961Y-90897029D02*
X188590961Y-90592267D01*
X188324295Y-90782743D02*
X189010009Y-90782743D01*
X189010009Y-90782743D02*
X189086200Y-90744648D01*
X189086200Y-90744648D02*
X189124295Y-90668458D01*
X189124295Y-90668458D02*
X189124295Y-90592267D01*
X189086200Y-90020838D02*
X189124295Y-90097029D01*
X189124295Y-90097029D02*
X189124295Y-90249410D01*
X189124295Y-90249410D02*
X189086200Y-90325600D01*
X189086200Y-90325600D02*
X189010009Y-90363696D01*
X189010009Y-90363696D02*
X188705247Y-90363696D01*
X188705247Y-90363696D02*
X188629057Y-90325600D01*
X188629057Y-90325600D02*
X188590961Y-90249410D01*
X188590961Y-90249410D02*
X188590961Y-90097029D01*
X188590961Y-90097029D02*
X188629057Y-90020838D01*
X188629057Y-90020838D02*
X188705247Y-89982743D01*
X188705247Y-89982743D02*
X188781438Y-89982743D01*
X188781438Y-89982743D02*
X188857628Y-90363696D01*
X189124295Y-89030362D02*
X188324295Y-89030362D01*
X188705247Y-89030362D02*
X188705247Y-88573219D01*
X189124295Y-88573219D02*
X188324295Y-88573219D01*
X188286200Y-87620839D02*
X189314771Y-88306553D01*
X189048104Y-86897029D02*
X189086200Y-86935125D01*
X189086200Y-86935125D02*
X189124295Y-87049410D01*
X189124295Y-87049410D02*
X189124295Y-87125601D01*
X189124295Y-87125601D02*
X189086200Y-87239887D01*
X189086200Y-87239887D02*
X189010009Y-87316077D01*
X189010009Y-87316077D02*
X188933819Y-87354172D01*
X188933819Y-87354172D02*
X188781438Y-87392268D01*
X188781438Y-87392268D02*
X188667152Y-87392268D01*
X188667152Y-87392268D02*
X188514771Y-87354172D01*
X188514771Y-87354172D02*
X188438580Y-87316077D01*
X188438580Y-87316077D02*
X188362390Y-87239887D01*
X188362390Y-87239887D02*
X188324295Y-87125601D01*
X188324295Y-87125601D02*
X188324295Y-87049410D01*
X188324295Y-87049410D02*
X188362390Y-86935125D01*
X188362390Y-86935125D02*
X188400485Y-86897029D01*
X189230000Y-77470000D02*
X280670000Y-77470000D01*
X280670000Y-85090000D01*
X189230000Y-85090000D01*
X189230000Y-77470000D01*
X189230000Y-86360000D02*
X280670000Y-86360000D01*
X280670000Y-92710000D01*
X189230000Y-92710000D01*
X189230000Y-86360000D01*
X198157000Y-117057000D02*
X186727000Y-117057000D01*
X186727000Y-127217000D01*
X198157000Y-127217000D01*
X198157000Y-117057000D01*
X238797000Y-117057000D02*
X222287000Y-117057000D01*
X222287000Y-127217000D01*
X238797000Y-127217000D01*
X238797000Y-117057000D01*
X185457000Y-76417000D02*
X175297000Y-76417000D01*
X175297000Y-94197000D01*
X185457000Y-94197000D01*
X185457000Y-76417000D01*
X276897000Y-104357000D02*
X260387000Y-104357000D01*
X260387000Y-115787000D01*
X276897000Y-115787000D01*
X276897000Y-104357000D01*
X221017000Y-117057000D02*
X204507000Y-117057000D01*
X204507000Y-127217000D01*
X221017000Y-127217000D01*
X221017000Y-117057000D01*
X242607000Y-104357000D02*
X226097000Y-104357000D01*
X226097000Y-115787000D01*
X242607000Y-115787000D01*
X242607000Y-104357000D01*
X185457000Y-104357000D02*
X175297000Y-104357000D01*
X175297000Y-120867000D01*
X185457000Y-120867000D01*
X185457000Y-104357000D01*
X184056819Y-115450220D02*
X183056819Y-115450220D01*
X183390152Y-114974030D02*
X184056819Y-114974030D01*
X183485390Y-114974030D02*
X183437771Y-114926411D01*
X183437771Y-114926411D02*
X183390152Y-114831173D01*
X183390152Y-114831173D02*
X183390152Y-114688316D01*
X183390152Y-114688316D02*
X183437771Y-114593078D01*
X183437771Y-114593078D02*
X183533009Y-114545459D01*
X183533009Y-114545459D02*
X184056819Y-114545459D01*
X183390152Y-114069268D02*
X184390152Y-114069268D01*
X183437771Y-114069268D02*
X183390152Y-113974030D01*
X183390152Y-113974030D02*
X183390152Y-113783554D01*
X183390152Y-113783554D02*
X183437771Y-113688316D01*
X183437771Y-113688316D02*
X183485390Y-113640697D01*
X183485390Y-113640697D02*
X183580628Y-113593078D01*
X183580628Y-113593078D02*
X183866342Y-113593078D01*
X183866342Y-113593078D02*
X183961580Y-113640697D01*
X183961580Y-113640697D02*
X184009200Y-113688316D01*
X184009200Y-113688316D02*
X184056819Y-113783554D01*
X184056819Y-113783554D02*
X184056819Y-113974030D01*
X184056819Y-113974030D02*
X184009200Y-114069268D01*
X183390152Y-112735935D02*
X184056819Y-112735935D01*
X183390152Y-113164506D02*
X183913961Y-113164506D01*
X183913961Y-113164506D02*
X184009200Y-113116887D01*
X184009200Y-113116887D02*
X184056819Y-113021649D01*
X184056819Y-113021649D02*
X184056819Y-112878792D01*
X184056819Y-112878792D02*
X184009200Y-112783554D01*
X184009200Y-112783554D02*
X183961580Y-112735935D01*
X183390152Y-112402601D02*
X183390152Y-112021649D01*
X183056819Y-112259744D02*
X183913961Y-112259744D01*
X183913961Y-112259744D02*
X184009200Y-112212125D01*
X184009200Y-112212125D02*
X184056819Y-112116887D01*
X184056819Y-112116887D02*
X184056819Y-112021649D01*
X183152057Y-110974029D02*
X183104438Y-110926410D01*
X183104438Y-110926410D02*
X183056819Y-110831172D01*
X183056819Y-110831172D02*
X183056819Y-110593077D01*
X183056819Y-110593077D02*
X183104438Y-110497839D01*
X183104438Y-110497839D02*
X183152057Y-110450220D01*
X183152057Y-110450220D02*
X183247295Y-110402601D01*
X183247295Y-110402601D02*
X183342533Y-110402601D01*
X183342533Y-110402601D02*
X183485390Y-110450220D01*
X183485390Y-110450220D02*
X184056819Y-111021648D01*
X184056819Y-111021648D02*
X184056819Y-110402601D01*
X266279969Y-106766819D02*
X265803779Y-106766819D01*
X265803779Y-106766819D02*
X265803779Y-105766819D01*
X266613303Y-106243009D02*
X266946636Y-106243009D01*
X267089493Y-106766819D02*
X266613303Y-106766819D01*
X266613303Y-106766819D02*
X266613303Y-105766819D01*
X266613303Y-105766819D02*
X267089493Y-105766819D01*
X267518065Y-106766819D02*
X267518065Y-105766819D01*
X267518065Y-105766819D02*
X267756160Y-105766819D01*
X267756160Y-105766819D02*
X267899017Y-105814438D01*
X267899017Y-105814438D02*
X267994255Y-105909676D01*
X267994255Y-105909676D02*
X268041874Y-106004914D01*
X268041874Y-106004914D02*
X268089493Y-106195390D01*
X268089493Y-106195390D02*
X268089493Y-106338247D01*
X268089493Y-106338247D02*
X268041874Y-106528723D01*
X268041874Y-106528723D02*
X267994255Y-106623961D01*
X267994255Y-106623961D02*
X267899017Y-106719200D01*
X267899017Y-106719200D02*
X267756160Y-106766819D01*
X267756160Y-106766819D02*
X267518065Y-106766819D01*
X269279970Y-106766819D02*
X269279970Y-105766819D01*
X269279970Y-105766819D02*
X269660922Y-105766819D01*
X269660922Y-105766819D02*
X269756160Y-105814438D01*
X269756160Y-105814438D02*
X269803779Y-105862057D01*
X269803779Y-105862057D02*
X269851398Y-105957295D01*
X269851398Y-105957295D02*
X269851398Y-106100152D01*
X269851398Y-106100152D02*
X269803779Y-106195390D01*
X269803779Y-106195390D02*
X269756160Y-106243009D01*
X269756160Y-106243009D02*
X269660922Y-106290628D01*
X269660922Y-106290628D02*
X269279970Y-106290628D01*
X270708541Y-106766819D02*
X270708541Y-106243009D01*
X270708541Y-106243009D02*
X270660922Y-106147771D01*
X270660922Y-106147771D02*
X270565684Y-106100152D01*
X270565684Y-106100152D02*
X270375208Y-106100152D01*
X270375208Y-106100152D02*
X270279970Y-106147771D01*
X270708541Y-106719200D02*
X270613303Y-106766819D01*
X270613303Y-106766819D02*
X270375208Y-106766819D01*
X270375208Y-106766819D02*
X270279970Y-106719200D01*
X270279970Y-106719200D02*
X270232351Y-106623961D01*
X270232351Y-106623961D02*
X270232351Y-106528723D01*
X270232351Y-106528723D02*
X270279970Y-106433485D01*
X270279970Y-106433485D02*
X270375208Y-106385866D01*
X270375208Y-106385866D02*
X270613303Y-106385866D01*
X270613303Y-106385866D02*
X270708541Y-106338247D01*
X271184732Y-106100152D02*
X271184732Y-106766819D01*
X271184732Y-106195390D02*
X271232351Y-106147771D01*
X271232351Y-106147771D02*
X271327589Y-106100152D01*
X271327589Y-106100152D02*
X271470446Y-106100152D01*
X271470446Y-106100152D02*
X271565684Y-106147771D01*
X271565684Y-106147771D02*
X271613303Y-106243009D01*
X271613303Y-106243009D02*
X271613303Y-106766819D01*
X272470446Y-106719200D02*
X272375208Y-106766819D01*
X272375208Y-106766819D02*
X272184732Y-106766819D01*
X272184732Y-106766819D02*
X272089494Y-106719200D01*
X272089494Y-106719200D02*
X272041875Y-106623961D01*
X272041875Y-106623961D02*
X272041875Y-106243009D01*
X272041875Y-106243009D02*
X272089494Y-106147771D01*
X272089494Y-106147771D02*
X272184732Y-106100152D01*
X272184732Y-106100152D02*
X272375208Y-106100152D01*
X272375208Y-106100152D02*
X272470446Y-106147771D01*
X272470446Y-106147771D02*
X272518065Y-106243009D01*
X272518065Y-106243009D02*
X272518065Y-106338247D01*
X272518065Y-106338247D02*
X272041875Y-106433485D01*
X273089494Y-106766819D02*
X272994256Y-106719200D01*
X272994256Y-106719200D02*
X272946637Y-106623961D01*
X272946637Y-106623961D02*
X272946637Y-105766819D01*
X231704255Y-105766819D02*
X231894731Y-105766819D01*
X231894731Y-105766819D02*
X231989969Y-105814438D01*
X231989969Y-105814438D02*
X232085207Y-105909676D01*
X232085207Y-105909676D02*
X232132826Y-106100152D01*
X232132826Y-106100152D02*
X232132826Y-106433485D01*
X232132826Y-106433485D02*
X232085207Y-106623961D01*
X232085207Y-106623961D02*
X231989969Y-106719200D01*
X231989969Y-106719200D02*
X231894731Y-106766819D01*
X231894731Y-106766819D02*
X231704255Y-106766819D01*
X231704255Y-106766819D02*
X231609017Y-106719200D01*
X231609017Y-106719200D02*
X231513779Y-106623961D01*
X231513779Y-106623961D02*
X231466160Y-106433485D01*
X231466160Y-106433485D02*
X231466160Y-106100152D01*
X231466160Y-106100152D02*
X231513779Y-105909676D01*
X231513779Y-105909676D02*
X231609017Y-105814438D01*
X231609017Y-105814438D02*
X231704255Y-105766819D01*
X232989969Y-106100152D02*
X232989969Y-106766819D01*
X232561398Y-106100152D02*
X232561398Y-106623961D01*
X232561398Y-106623961D02*
X232609017Y-106719200D01*
X232609017Y-106719200D02*
X232704255Y-106766819D01*
X232704255Y-106766819D02*
X232847112Y-106766819D01*
X232847112Y-106766819D02*
X232942350Y-106719200D01*
X232942350Y-106719200D02*
X232989969Y-106671580D01*
X233323303Y-106100152D02*
X233704255Y-106100152D01*
X233466160Y-105766819D02*
X233466160Y-106623961D01*
X233466160Y-106623961D02*
X233513779Y-106719200D01*
X233513779Y-106719200D02*
X233609017Y-106766819D01*
X233609017Y-106766819D02*
X233704255Y-106766819D01*
X234037589Y-106100152D02*
X234037589Y-107100152D01*
X234037589Y-106147771D02*
X234132827Y-106100152D01*
X234132827Y-106100152D02*
X234323303Y-106100152D01*
X234323303Y-106100152D02*
X234418541Y-106147771D01*
X234418541Y-106147771D02*
X234466160Y-106195390D01*
X234466160Y-106195390D02*
X234513779Y-106290628D01*
X234513779Y-106290628D02*
X234513779Y-106576342D01*
X234513779Y-106576342D02*
X234466160Y-106671580D01*
X234466160Y-106671580D02*
X234418541Y-106719200D01*
X234418541Y-106719200D02*
X234323303Y-106766819D01*
X234323303Y-106766819D02*
X234132827Y-106766819D01*
X234132827Y-106766819D02*
X234037589Y-106719200D01*
X235370922Y-106100152D02*
X235370922Y-106766819D01*
X234942351Y-106100152D02*
X234942351Y-106623961D01*
X234942351Y-106623961D02*
X234989970Y-106719200D01*
X234989970Y-106719200D02*
X235085208Y-106766819D01*
X235085208Y-106766819D02*
X235228065Y-106766819D01*
X235228065Y-106766819D02*
X235323303Y-106719200D01*
X235323303Y-106719200D02*
X235370922Y-106671580D01*
X235704256Y-106100152D02*
X236085208Y-106100152D01*
X235847113Y-105766819D02*
X235847113Y-106623961D01*
X235847113Y-106623961D02*
X235894732Y-106719200D01*
X235894732Y-106719200D02*
X235989970Y-106766819D01*
X235989970Y-106766819D02*
X236085208Y-106766819D01*
X184056819Y-87510220D02*
X183056819Y-87510220D01*
X183390152Y-87034030D02*
X184056819Y-87034030D01*
X183485390Y-87034030D02*
X183437771Y-86986411D01*
X183437771Y-86986411D02*
X183390152Y-86891173D01*
X183390152Y-86891173D02*
X183390152Y-86748316D01*
X183390152Y-86748316D02*
X183437771Y-86653078D01*
X183437771Y-86653078D02*
X183533009Y-86605459D01*
X183533009Y-86605459D02*
X184056819Y-86605459D01*
X183390152Y-86129268D02*
X184390152Y-86129268D01*
X183437771Y-86129268D02*
X183390152Y-86034030D01*
X183390152Y-86034030D02*
X183390152Y-85843554D01*
X183390152Y-85843554D02*
X183437771Y-85748316D01*
X183437771Y-85748316D02*
X183485390Y-85700697D01*
X183485390Y-85700697D02*
X183580628Y-85653078D01*
X183580628Y-85653078D02*
X183866342Y-85653078D01*
X183866342Y-85653078D02*
X183961580Y-85700697D01*
X183961580Y-85700697D02*
X184009200Y-85748316D01*
X184009200Y-85748316D02*
X184056819Y-85843554D01*
X184056819Y-85843554D02*
X184056819Y-86034030D01*
X184056819Y-86034030D02*
X184009200Y-86129268D01*
X183390152Y-84795935D02*
X184056819Y-84795935D01*
X183390152Y-85224506D02*
X183913961Y-85224506D01*
X183913961Y-85224506D02*
X184009200Y-85176887D01*
X184009200Y-85176887D02*
X184056819Y-85081649D01*
X184056819Y-85081649D02*
X184056819Y-84938792D01*
X184056819Y-84938792D02*
X184009200Y-84843554D01*
X184009200Y-84843554D02*
X183961580Y-84795935D01*
X183390152Y-84462601D02*
X183390152Y-84081649D01*
X183056819Y-84319744D02*
X183913961Y-84319744D01*
X183913961Y-84319744D02*
X184009200Y-84272125D01*
X184009200Y-84272125D02*
X184056819Y-84176887D01*
X184056819Y-84176887D02*
X184056819Y-84081649D01*
X184056819Y-82462601D02*
X184056819Y-83034029D01*
X184056819Y-82748315D02*
X183056819Y-82748315D01*
X183056819Y-82748315D02*
X183199676Y-82843553D01*
X183199676Y-82843553D02*
X183294914Y-82938791D01*
X183294914Y-82938791D02*
X183342533Y-83034029D01*
X226433779Y-125816819D02*
X226433779Y-124816819D01*
X226433779Y-124816819D02*
X226767112Y-125531104D01*
X226767112Y-125531104D02*
X227100445Y-124816819D01*
X227100445Y-124816819D02*
X227100445Y-125816819D01*
X228005207Y-125150152D02*
X228005207Y-125816819D01*
X227576636Y-125150152D02*
X227576636Y-125673961D01*
X227576636Y-125673961D02*
X227624255Y-125769200D01*
X227624255Y-125769200D02*
X227719493Y-125816819D01*
X227719493Y-125816819D02*
X227862350Y-125816819D01*
X227862350Y-125816819D02*
X227957588Y-125769200D01*
X227957588Y-125769200D02*
X228005207Y-125721580D01*
X228338541Y-125150152D02*
X228719493Y-125150152D01*
X228481398Y-124816819D02*
X228481398Y-125673961D01*
X228481398Y-125673961D02*
X228529017Y-125769200D01*
X228529017Y-125769200D02*
X228624255Y-125816819D01*
X228624255Y-125816819D02*
X228719493Y-125816819D01*
X229433779Y-125769200D02*
X229338541Y-125816819D01*
X229338541Y-125816819D02*
X229148065Y-125816819D01*
X229148065Y-125816819D02*
X229052827Y-125769200D01*
X229052827Y-125769200D02*
X229005208Y-125673961D01*
X229005208Y-125673961D02*
X229005208Y-125293009D01*
X229005208Y-125293009D02*
X229052827Y-125197771D01*
X229052827Y-125197771D02*
X229148065Y-125150152D01*
X229148065Y-125150152D02*
X229338541Y-125150152D01*
X229338541Y-125150152D02*
X229433779Y-125197771D01*
X229433779Y-125197771D02*
X229481398Y-125293009D01*
X229481398Y-125293009D02*
X229481398Y-125388247D01*
X229481398Y-125388247D02*
X229005208Y-125483485D01*
X230624256Y-125769200D02*
X230767113Y-125816819D01*
X230767113Y-125816819D02*
X231005208Y-125816819D01*
X231005208Y-125816819D02*
X231100446Y-125769200D01*
X231100446Y-125769200D02*
X231148065Y-125721580D01*
X231148065Y-125721580D02*
X231195684Y-125626342D01*
X231195684Y-125626342D02*
X231195684Y-125531104D01*
X231195684Y-125531104D02*
X231148065Y-125435866D01*
X231148065Y-125435866D02*
X231100446Y-125388247D01*
X231100446Y-125388247D02*
X231005208Y-125340628D01*
X231005208Y-125340628D02*
X230814732Y-125293009D01*
X230814732Y-125293009D02*
X230719494Y-125245390D01*
X230719494Y-125245390D02*
X230671875Y-125197771D01*
X230671875Y-125197771D02*
X230624256Y-125102533D01*
X230624256Y-125102533D02*
X230624256Y-125007295D01*
X230624256Y-125007295D02*
X230671875Y-124912057D01*
X230671875Y-124912057D02*
X230719494Y-124864438D01*
X230719494Y-124864438D02*
X230814732Y-124816819D01*
X230814732Y-124816819D02*
X231052827Y-124816819D01*
X231052827Y-124816819D02*
X231195684Y-124864438D01*
X231529018Y-125150152D02*
X231719494Y-125816819D01*
X231719494Y-125816819D02*
X231909970Y-125340628D01*
X231909970Y-125340628D02*
X232100446Y-125816819D01*
X232100446Y-125816819D02*
X232290922Y-125150152D01*
X232671875Y-125816819D02*
X232671875Y-125150152D01*
X232671875Y-124816819D02*
X232624256Y-124864438D01*
X232624256Y-124864438D02*
X232671875Y-124912057D01*
X232671875Y-124912057D02*
X232719494Y-124864438D01*
X232719494Y-124864438D02*
X232671875Y-124816819D01*
X232671875Y-124816819D02*
X232671875Y-124912057D01*
X233005208Y-125150152D02*
X233386160Y-125150152D01*
X233148065Y-124816819D02*
X233148065Y-125673961D01*
X233148065Y-125673961D02*
X233195684Y-125769200D01*
X233195684Y-125769200D02*
X233290922Y-125816819D01*
X233290922Y-125816819D02*
X233386160Y-125816819D01*
X234148065Y-125769200D02*
X234052827Y-125816819D01*
X234052827Y-125816819D02*
X233862351Y-125816819D01*
X233862351Y-125816819D02*
X233767113Y-125769200D01*
X233767113Y-125769200D02*
X233719494Y-125721580D01*
X233719494Y-125721580D02*
X233671875Y-125626342D01*
X233671875Y-125626342D02*
X233671875Y-125340628D01*
X233671875Y-125340628D02*
X233719494Y-125245390D01*
X233719494Y-125245390D02*
X233767113Y-125197771D01*
X233767113Y-125197771D02*
X233862351Y-125150152D01*
X233862351Y-125150152D02*
X234052827Y-125150152D01*
X234052827Y-125150152D02*
X234148065Y-125197771D01*
X234576637Y-125816819D02*
X234576637Y-124816819D01*
X235005208Y-125816819D02*
X235005208Y-125293009D01*
X235005208Y-125293009D02*
X234957589Y-125197771D01*
X234957589Y-125197771D02*
X234862351Y-125150152D01*
X234862351Y-125150152D02*
X234719494Y-125150152D01*
X234719494Y-125150152D02*
X234624256Y-125197771D01*
X234624256Y-125197771D02*
X234576637Y-125245390D01*
X208653779Y-125816819D02*
X208653779Y-124816819D01*
X209129969Y-125150152D02*
X209129969Y-125816819D01*
X209129969Y-125245390D02*
X209177588Y-125197771D01*
X209177588Y-125197771D02*
X209272826Y-125150152D01*
X209272826Y-125150152D02*
X209415683Y-125150152D01*
X209415683Y-125150152D02*
X209510921Y-125197771D01*
X209510921Y-125197771D02*
X209558540Y-125293009D01*
X209558540Y-125293009D02*
X209558540Y-125816819D01*
X210034731Y-125150152D02*
X210034731Y-126150152D01*
X210034731Y-125197771D02*
X210129969Y-125150152D01*
X210129969Y-125150152D02*
X210320445Y-125150152D01*
X210320445Y-125150152D02*
X210415683Y-125197771D01*
X210415683Y-125197771D02*
X210463302Y-125245390D01*
X210463302Y-125245390D02*
X210510921Y-125340628D01*
X210510921Y-125340628D02*
X210510921Y-125626342D01*
X210510921Y-125626342D02*
X210463302Y-125721580D01*
X210463302Y-125721580D02*
X210415683Y-125769200D01*
X210415683Y-125769200D02*
X210320445Y-125816819D01*
X210320445Y-125816819D02*
X210129969Y-125816819D01*
X210129969Y-125816819D02*
X210034731Y-125769200D01*
X211368064Y-125150152D02*
X211368064Y-125816819D01*
X210939493Y-125150152D02*
X210939493Y-125673961D01*
X210939493Y-125673961D02*
X210987112Y-125769200D01*
X210987112Y-125769200D02*
X211082350Y-125816819D01*
X211082350Y-125816819D02*
X211225207Y-125816819D01*
X211225207Y-125816819D02*
X211320445Y-125769200D01*
X211320445Y-125769200D02*
X211368064Y-125721580D01*
X211701398Y-125150152D02*
X212082350Y-125150152D01*
X211844255Y-124816819D02*
X211844255Y-125673961D01*
X211844255Y-125673961D02*
X211891874Y-125769200D01*
X211891874Y-125769200D02*
X211987112Y-125816819D01*
X211987112Y-125816819D02*
X212082350Y-125816819D01*
X213129970Y-125769200D02*
X213272827Y-125816819D01*
X213272827Y-125816819D02*
X213510922Y-125816819D01*
X213510922Y-125816819D02*
X213606160Y-125769200D01*
X213606160Y-125769200D02*
X213653779Y-125721580D01*
X213653779Y-125721580D02*
X213701398Y-125626342D01*
X213701398Y-125626342D02*
X213701398Y-125531104D01*
X213701398Y-125531104D02*
X213653779Y-125435866D01*
X213653779Y-125435866D02*
X213606160Y-125388247D01*
X213606160Y-125388247D02*
X213510922Y-125340628D01*
X213510922Y-125340628D02*
X213320446Y-125293009D01*
X213320446Y-125293009D02*
X213225208Y-125245390D01*
X213225208Y-125245390D02*
X213177589Y-125197771D01*
X213177589Y-125197771D02*
X213129970Y-125102533D01*
X213129970Y-125102533D02*
X213129970Y-125007295D01*
X213129970Y-125007295D02*
X213177589Y-124912057D01*
X213177589Y-124912057D02*
X213225208Y-124864438D01*
X213225208Y-124864438D02*
X213320446Y-124816819D01*
X213320446Y-124816819D02*
X213558541Y-124816819D01*
X213558541Y-124816819D02*
X213701398Y-124864438D01*
X214034732Y-125150152D02*
X214225208Y-125816819D01*
X214225208Y-125816819D02*
X214415684Y-125340628D01*
X214415684Y-125340628D02*
X214606160Y-125816819D01*
X214606160Y-125816819D02*
X214796636Y-125150152D01*
X215177589Y-125816819D02*
X215177589Y-125150152D01*
X215177589Y-124816819D02*
X215129970Y-124864438D01*
X215129970Y-124864438D02*
X215177589Y-124912057D01*
X215177589Y-124912057D02*
X215225208Y-124864438D01*
X215225208Y-124864438D02*
X215177589Y-124816819D01*
X215177589Y-124816819D02*
X215177589Y-124912057D01*
X215510922Y-125150152D02*
X215891874Y-125150152D01*
X215653779Y-124816819D02*
X215653779Y-125673961D01*
X215653779Y-125673961D02*
X215701398Y-125769200D01*
X215701398Y-125769200D02*
X215796636Y-125816819D01*
X215796636Y-125816819D02*
X215891874Y-125816819D01*
X216653779Y-125769200D02*
X216558541Y-125816819D01*
X216558541Y-125816819D02*
X216368065Y-125816819D01*
X216368065Y-125816819D02*
X216272827Y-125769200D01*
X216272827Y-125769200D02*
X216225208Y-125721580D01*
X216225208Y-125721580D02*
X216177589Y-125626342D01*
X216177589Y-125626342D02*
X216177589Y-125340628D01*
X216177589Y-125340628D02*
X216225208Y-125245390D01*
X216225208Y-125245390D02*
X216272827Y-125197771D01*
X216272827Y-125197771D02*
X216368065Y-125150152D01*
X216368065Y-125150152D02*
X216558541Y-125150152D01*
X216558541Y-125150152D02*
X216653779Y-125197771D01*
X217082351Y-125816819D02*
X217082351Y-124816819D01*
X217510922Y-125816819D02*
X217510922Y-125293009D01*
X217510922Y-125293009D02*
X217463303Y-125197771D01*
X217463303Y-125197771D02*
X217368065Y-125150152D01*
X217368065Y-125150152D02*
X217225208Y-125150152D01*
X217225208Y-125150152D02*
X217129970Y-125197771D01*
X217129970Y-125197771D02*
X217082351Y-125245390D01*
X190079969Y-124816819D02*
X189603779Y-124816819D01*
X189603779Y-124816819D02*
X189556160Y-125293009D01*
X189556160Y-125293009D02*
X189603779Y-125245390D01*
X189603779Y-125245390D02*
X189699017Y-125197771D01*
X189699017Y-125197771D02*
X189937112Y-125197771D01*
X189937112Y-125197771D02*
X190032350Y-125245390D01*
X190032350Y-125245390D02*
X190079969Y-125293009D01*
X190079969Y-125293009D02*
X190127588Y-125388247D01*
X190127588Y-125388247D02*
X190127588Y-125626342D01*
X190127588Y-125626342D02*
X190079969Y-125721580D01*
X190079969Y-125721580D02*
X190032350Y-125769200D01*
X190032350Y-125769200D02*
X189937112Y-125816819D01*
X189937112Y-125816819D02*
X189699017Y-125816819D01*
X189699017Y-125816819D02*
X189603779Y-125769200D01*
X189603779Y-125769200D02*
X189556160Y-125721580D01*
X190413303Y-124816819D02*
X190746636Y-125816819D01*
X190746636Y-125816819D02*
X191079969Y-124816819D01*
X192175208Y-125816819D02*
X192175208Y-124816819D01*
X192175208Y-124816819D02*
X192413303Y-124816819D01*
X192413303Y-124816819D02*
X192556160Y-124864438D01*
X192556160Y-124864438D02*
X192651398Y-124959676D01*
X192651398Y-124959676D02*
X192699017Y-125054914D01*
X192699017Y-125054914D02*
X192746636Y-125245390D01*
X192746636Y-125245390D02*
X192746636Y-125388247D01*
X192746636Y-125388247D02*
X192699017Y-125578723D01*
X192699017Y-125578723D02*
X192651398Y-125673961D01*
X192651398Y-125673961D02*
X192556160Y-125769200D01*
X192556160Y-125769200D02*
X192413303Y-125816819D01*
X192413303Y-125816819D02*
X192175208Y-125816819D01*
X193746636Y-125721580D02*
X193699017Y-125769200D01*
X193699017Y-125769200D02*
X193556160Y-125816819D01*
X193556160Y-125816819D02*
X193460922Y-125816819D01*
X193460922Y-125816819D02*
X193318065Y-125769200D01*
X193318065Y-125769200D02*
X193222827Y-125673961D01*
X193222827Y-125673961D02*
X193175208Y-125578723D01*
X193175208Y-125578723D02*
X193127589Y-125388247D01*
X193127589Y-125388247D02*
X193127589Y-125245390D01*
X193127589Y-125245390D02*
X193175208Y-125054914D01*
X193175208Y-125054914D02*
X193222827Y-124959676D01*
X193222827Y-124959676D02*
X193318065Y-124864438D01*
X193318065Y-124864438D02*
X193460922Y-124816819D01*
X193460922Y-124816819D02*
X193556160Y-124816819D01*
X193556160Y-124816819D02*
X193699017Y-124864438D01*
X193699017Y-124864438D02*
X193746636Y-124912057D01*
X194937113Y-125816819D02*
X194937113Y-124816819D01*
X195413303Y-125150152D02*
X195413303Y-125816819D01*
X195413303Y-125245390D02*
X195460922Y-125197771D01*
X195460922Y-125197771D02*
X195556160Y-125150152D01*
X195556160Y-125150152D02*
X195699017Y-125150152D01*
X195699017Y-125150152D02*
X195794255Y-125197771D01*
X195794255Y-125197771D02*
X195841874Y-125293009D01*
X195841874Y-125293009D02*
X195841874Y-125816819D01*
X17854819Y-188126666D02*
X17378628Y-188459999D01*
X17854819Y-188698094D02*
X16854819Y-188698094D01*
X16854819Y-188698094D02*
X16854819Y-188317142D01*
X16854819Y-188317142D02*
X16902438Y-188221904D01*
X16902438Y-188221904D02*
X16950057Y-188174285D01*
X16950057Y-188174285D02*
X17045295Y-188126666D01*
X17045295Y-188126666D02*
X17188152Y-188126666D01*
X17188152Y-188126666D02*
X17283390Y-188174285D01*
X17283390Y-188174285D02*
X17331009Y-188221904D01*
X17331009Y-188221904D02*
X17378628Y-188317142D01*
X17378628Y-188317142D02*
X17378628Y-188698094D01*
X16854819Y-187221904D02*
X16854819Y-187698094D01*
X16854819Y-187698094D02*
X17331009Y-187745713D01*
X17331009Y-187745713D02*
X17283390Y-187698094D01*
X17283390Y-187698094D02*
X17235771Y-187602856D01*
X17235771Y-187602856D02*
X17235771Y-187364761D01*
X17235771Y-187364761D02*
X17283390Y-187269523D01*
X17283390Y-187269523D02*
X17331009Y-187221904D01*
X17331009Y-187221904D02*
X17426247Y-187174285D01*
X17426247Y-187174285D02*
X17664342Y-187174285D01*
X17664342Y-187174285D02*
X17759580Y-187221904D01*
X17759580Y-187221904D02*
X17807200Y-187269523D01*
X17807200Y-187269523D02*
X17854819Y-187364761D01*
X17854819Y-187364761D02*
X17854819Y-187602856D01*
X17854819Y-187602856D02*
X17807200Y-187698094D01*
X17807200Y-187698094D02*
X17759580Y-187745713D01*
X27992666Y-127676819D02*
X27992666Y-128391104D01*
X27992666Y-128391104D02*
X27945047Y-128533961D01*
X27945047Y-128533961D02*
X27849809Y-128629200D01*
X27849809Y-128629200D02*
X27706952Y-128676819D01*
X27706952Y-128676819D02*
X27611714Y-128676819D01*
X28897428Y-127676819D02*
X28706952Y-127676819D01*
X28706952Y-127676819D02*
X28611714Y-127724438D01*
X28611714Y-127724438D02*
X28564095Y-127772057D01*
X28564095Y-127772057D02*
X28468857Y-127914914D01*
X28468857Y-127914914D02*
X28421238Y-128105390D01*
X28421238Y-128105390D02*
X28421238Y-128486342D01*
X28421238Y-128486342D02*
X28468857Y-128581580D01*
X28468857Y-128581580D02*
X28516476Y-128629200D01*
X28516476Y-128629200D02*
X28611714Y-128676819D01*
X28611714Y-128676819D02*
X28802190Y-128676819D01*
X28802190Y-128676819D02*
X28897428Y-128629200D01*
X28897428Y-128629200D02*
X28945047Y-128581580D01*
X28945047Y-128581580D02*
X28992666Y-128486342D01*
X28992666Y-128486342D02*
X28992666Y-128248247D01*
X28992666Y-128248247D02*
X28945047Y-128153009D01*
X28945047Y-128153009D02*
X28897428Y-128105390D01*
X28897428Y-128105390D02*
X28802190Y-128057771D01*
X28802190Y-128057771D02*
X28611714Y-128057771D01*
X28611714Y-128057771D02*
X28516476Y-128105390D01*
X28516476Y-128105390D02*
X28468857Y-128153009D01*
X28468857Y-128153009D02*
X28421238Y-128248247D01*
X144360819Y-79346094D02*
X143360819Y-79346094D01*
X144360819Y-78774666D02*
X143789390Y-79203237D01*
X143360819Y-78774666D02*
X143932247Y-79346094D01*
X143456057Y-78393713D02*
X143408438Y-78346094D01*
X143408438Y-78346094D02*
X143360819Y-78250856D01*
X143360819Y-78250856D02*
X143360819Y-78012761D01*
X143360819Y-78012761D02*
X143408438Y-77917523D01*
X143408438Y-77917523D02*
X143456057Y-77869904D01*
X143456057Y-77869904D02*
X143551295Y-77822285D01*
X143551295Y-77822285D02*
X143646533Y-77822285D01*
X143646533Y-77822285D02*
X143789390Y-77869904D01*
X143789390Y-77869904D02*
X144360819Y-78441332D01*
X144360819Y-78441332D02*
X144360819Y-77822285D01*
X234685476Y-117851819D02*
X234685476Y-118566104D01*
X234685476Y-118566104D02*
X234637857Y-118708961D01*
X234637857Y-118708961D02*
X234542619Y-118804200D01*
X234542619Y-118804200D02*
X234399762Y-118851819D01*
X234399762Y-118851819D02*
X234304524Y-118851819D01*
X235590238Y-118185152D02*
X235590238Y-118851819D01*
X235352143Y-117804200D02*
X235114048Y-118518485D01*
X235114048Y-118518485D02*
X235733095Y-118518485D01*
X236304524Y-117851819D02*
X236399762Y-117851819D01*
X236399762Y-117851819D02*
X236495000Y-117899438D01*
X236495000Y-117899438D02*
X236542619Y-117947057D01*
X236542619Y-117947057D02*
X236590238Y-118042295D01*
X236590238Y-118042295D02*
X236637857Y-118232771D01*
X236637857Y-118232771D02*
X236637857Y-118470866D01*
X236637857Y-118470866D02*
X236590238Y-118661342D01*
X236590238Y-118661342D02*
X236542619Y-118756580D01*
X236542619Y-118756580D02*
X236495000Y-118804200D01*
X236495000Y-118804200D02*
X236399762Y-118851819D01*
X236399762Y-118851819D02*
X236304524Y-118851819D01*
X236304524Y-118851819D02*
X236209286Y-118804200D01*
X236209286Y-118804200D02*
X236161667Y-118756580D01*
X236161667Y-118756580D02*
X236114048Y-118661342D01*
X236114048Y-118661342D02*
X236066429Y-118470866D01*
X236066429Y-118470866D02*
X236066429Y-118232771D01*
X236066429Y-118232771D02*
X236114048Y-118042295D01*
X236114048Y-118042295D02*
X236161667Y-117947057D01*
X236161667Y-117947057D02*
X236209286Y-117899438D01*
X236209286Y-117899438D02*
X236304524Y-117851819D01*
X232685819Y-82584333D02*
X233400104Y-82584333D01*
X233400104Y-82584333D02*
X233542961Y-82631952D01*
X233542961Y-82631952D02*
X233638200Y-82727190D01*
X233638200Y-82727190D02*
X233685819Y-82870047D01*
X233685819Y-82870047D02*
X233685819Y-82965285D01*
X233685819Y-82108142D02*
X232685819Y-82108142D01*
X232685819Y-82108142D02*
X232685819Y-81727190D01*
X232685819Y-81727190D02*
X232733438Y-81631952D01*
X232733438Y-81631952D02*
X232781057Y-81584333D01*
X232781057Y-81584333D02*
X232876295Y-81536714D01*
X232876295Y-81536714D02*
X233019152Y-81536714D01*
X233019152Y-81536714D02*
X233114390Y-81584333D01*
X233114390Y-81584333D02*
X233162009Y-81631952D01*
X233162009Y-81631952D02*
X233209628Y-81727190D01*
X233209628Y-81727190D02*
X233209628Y-82108142D01*
X232685819Y-81203380D02*
X232685819Y-80536714D01*
X232685819Y-80536714D02*
X233685819Y-80965285D01*
X72850476Y-111214819D02*
X72850476Y-111929104D01*
X72850476Y-111929104D02*
X72802857Y-112071961D01*
X72802857Y-112071961D02*
X72707619Y-112167200D01*
X72707619Y-112167200D02*
X72564762Y-112214819D01*
X72564762Y-112214819D02*
X72469524Y-112214819D01*
X73279048Y-111310057D02*
X73326667Y-111262438D01*
X73326667Y-111262438D02*
X73421905Y-111214819D01*
X73421905Y-111214819D02*
X73660000Y-111214819D01*
X73660000Y-111214819D02*
X73755238Y-111262438D01*
X73755238Y-111262438D02*
X73802857Y-111310057D01*
X73802857Y-111310057D02*
X73850476Y-111405295D01*
X73850476Y-111405295D02*
X73850476Y-111500533D01*
X73850476Y-111500533D02*
X73802857Y-111643390D01*
X73802857Y-111643390D02*
X73231429Y-112214819D01*
X73231429Y-112214819D02*
X73850476Y-112214819D01*
X74231429Y-111310057D02*
X74279048Y-111262438D01*
X74279048Y-111262438D02*
X74374286Y-111214819D01*
X74374286Y-111214819D02*
X74612381Y-111214819D01*
X74612381Y-111214819D02*
X74707619Y-111262438D01*
X74707619Y-111262438D02*
X74755238Y-111310057D01*
X74755238Y-111310057D02*
X74802857Y-111405295D01*
X74802857Y-111405295D02*
X74802857Y-111500533D01*
X74802857Y-111500533D02*
X74755238Y-111643390D01*
X74755238Y-111643390D02*
X74183810Y-112214819D01*
X74183810Y-112214819D02*
X74802857Y-112214819D01*
X278913819Y-82584333D02*
X279628104Y-82584333D01*
X279628104Y-82584333D02*
X279770961Y-82631952D01*
X279770961Y-82631952D02*
X279866200Y-82727190D01*
X279866200Y-82727190D02*
X279913819Y-82870047D01*
X279913819Y-82870047D02*
X279913819Y-82965285D01*
X279913819Y-82108142D02*
X278913819Y-82108142D01*
X278913819Y-82108142D02*
X278913819Y-81727190D01*
X278913819Y-81727190D02*
X278961438Y-81631952D01*
X278961438Y-81631952D02*
X279009057Y-81584333D01*
X279009057Y-81584333D02*
X279104295Y-81536714D01*
X279104295Y-81536714D02*
X279247152Y-81536714D01*
X279247152Y-81536714D02*
X279342390Y-81584333D01*
X279342390Y-81584333D02*
X279390009Y-81631952D01*
X279390009Y-81631952D02*
X279437628Y-81727190D01*
X279437628Y-81727190D02*
X279437628Y-82108142D01*
X278913819Y-80631952D02*
X278913819Y-81108142D01*
X278913819Y-81108142D02*
X279390009Y-81155761D01*
X279390009Y-81155761D02*
X279342390Y-81108142D01*
X279342390Y-81108142D02*
X279294771Y-81012904D01*
X279294771Y-81012904D02*
X279294771Y-80774809D01*
X279294771Y-80774809D02*
X279342390Y-80679571D01*
X279342390Y-80679571D02*
X279390009Y-80631952D01*
X279390009Y-80631952D02*
X279485247Y-80584333D01*
X279485247Y-80584333D02*
X279723342Y-80584333D01*
X279723342Y-80584333D02*
X279818580Y-80631952D01*
X279818580Y-80631952D02*
X279866200Y-80679571D01*
X279866200Y-80679571D02*
X279913819Y-80774809D01*
X279913819Y-80774809D02*
X279913819Y-81012904D01*
X279913819Y-81012904D02*
X279866200Y-81108142D01*
X279866200Y-81108142D02*
X279818580Y-81155761D01*
X179027666Y-77165819D02*
X179027666Y-77880104D01*
X179027666Y-77880104D02*
X178980047Y-78022961D01*
X178980047Y-78022961D02*
X178884809Y-78118200D01*
X178884809Y-78118200D02*
X178741952Y-78165819D01*
X178741952Y-78165819D02*
X178646714Y-78165819D01*
X180027666Y-78165819D02*
X179456238Y-78165819D01*
X179741952Y-78165819D02*
X179741952Y-77165819D01*
X179741952Y-77165819D02*
X179646714Y-77308676D01*
X179646714Y-77308676D02*
X179551476Y-77403914D01*
X179551476Y-77403914D02*
X179456238Y-77451533D01*
X255799819Y-90092333D02*
X256514104Y-90092333D01*
X256514104Y-90092333D02*
X256656961Y-90139952D01*
X256656961Y-90139952D02*
X256752200Y-90235190D01*
X256752200Y-90235190D02*
X256799819Y-90378047D01*
X256799819Y-90378047D02*
X256799819Y-90473285D01*
X256799819Y-89616142D02*
X255799819Y-89616142D01*
X255799819Y-89616142D02*
X255799819Y-89235190D01*
X255799819Y-89235190D02*
X255847438Y-89139952D01*
X255847438Y-89139952D02*
X255895057Y-89092333D01*
X255895057Y-89092333D02*
X255990295Y-89044714D01*
X255990295Y-89044714D02*
X256133152Y-89044714D01*
X256133152Y-89044714D02*
X256228390Y-89092333D01*
X256228390Y-89092333D02*
X256276009Y-89139952D01*
X256276009Y-89139952D02*
X256323628Y-89235190D01*
X256323628Y-89235190D02*
X256323628Y-89616142D01*
X255895057Y-88663761D02*
X255847438Y-88616142D01*
X255847438Y-88616142D02*
X255799819Y-88520904D01*
X255799819Y-88520904D02*
X255799819Y-88282809D01*
X255799819Y-88282809D02*
X255847438Y-88187571D01*
X255847438Y-88187571D02*
X255895057Y-88139952D01*
X255895057Y-88139952D02*
X255990295Y-88092333D01*
X255990295Y-88092333D02*
X256085533Y-88092333D01*
X256085533Y-88092333D02*
X256228390Y-88139952D01*
X256228390Y-88139952D02*
X256799819Y-88711380D01*
X256799819Y-88711380D02*
X256799819Y-88092333D01*
X244916905Y-78943819D02*
X244916905Y-77943819D01*
X245488333Y-78943819D02*
X245059762Y-78372390D01*
X245488333Y-77943819D02*
X244916905Y-78515247D01*
X245821667Y-77943819D02*
X246440714Y-77943819D01*
X246440714Y-77943819D02*
X246107381Y-78324771D01*
X246107381Y-78324771D02*
X246250238Y-78324771D01*
X246250238Y-78324771D02*
X246345476Y-78372390D01*
X246345476Y-78372390D02*
X246393095Y-78420009D01*
X246393095Y-78420009D02*
X246440714Y-78515247D01*
X246440714Y-78515247D02*
X246440714Y-78753342D01*
X246440714Y-78753342D02*
X246393095Y-78848580D01*
X246393095Y-78848580D02*
X246345476Y-78896200D01*
X246345476Y-78896200D02*
X246250238Y-78943819D01*
X246250238Y-78943819D02*
X245964524Y-78943819D01*
X245964524Y-78943819D02*
X245869286Y-78896200D01*
X245869286Y-78896200D02*
X245821667Y-78848580D01*
X42436905Y-176834819D02*
X42436905Y-175834819D01*
X42436905Y-175834819D02*
X42675000Y-175834819D01*
X42675000Y-175834819D02*
X42817857Y-175882438D01*
X42817857Y-175882438D02*
X42913095Y-175977676D01*
X42913095Y-175977676D02*
X42960714Y-176072914D01*
X42960714Y-176072914D02*
X43008333Y-176263390D01*
X43008333Y-176263390D02*
X43008333Y-176406247D01*
X43008333Y-176406247D02*
X42960714Y-176596723D01*
X42960714Y-176596723D02*
X42913095Y-176691961D01*
X42913095Y-176691961D02*
X42817857Y-176787200D01*
X42817857Y-176787200D02*
X42675000Y-176834819D01*
X42675000Y-176834819D02*
X42436905Y-176834819D01*
X43389286Y-175930057D02*
X43436905Y-175882438D01*
X43436905Y-175882438D02*
X43532143Y-175834819D01*
X43532143Y-175834819D02*
X43770238Y-175834819D01*
X43770238Y-175834819D02*
X43865476Y-175882438D01*
X43865476Y-175882438D02*
X43913095Y-175930057D01*
X43913095Y-175930057D02*
X43960714Y-176025295D01*
X43960714Y-176025295D02*
X43960714Y-176120533D01*
X43960714Y-176120533D02*
X43913095Y-176263390D01*
X43913095Y-176263390D02*
X43341667Y-176834819D01*
X43341667Y-176834819D02*
X43960714Y-176834819D01*
X82420476Y-15902819D02*
X82420476Y-16617104D01*
X82420476Y-16617104D02*
X82372857Y-16759961D01*
X82372857Y-16759961D02*
X82277619Y-16855200D01*
X82277619Y-16855200D02*
X82134762Y-16902819D01*
X82134762Y-16902819D02*
X82039524Y-16902819D01*
X83420476Y-16902819D02*
X82849048Y-16902819D01*
X83134762Y-16902819D02*
X83134762Y-15902819D01*
X83134762Y-15902819D02*
X83039524Y-16045676D01*
X83039524Y-16045676D02*
X82944286Y-16140914D01*
X82944286Y-16140914D02*
X82849048Y-16188533D01*
X84325238Y-15902819D02*
X83849048Y-15902819D01*
X83849048Y-15902819D02*
X83801429Y-16379009D01*
X83801429Y-16379009D02*
X83849048Y-16331390D01*
X83849048Y-16331390D02*
X83944286Y-16283771D01*
X83944286Y-16283771D02*
X84182381Y-16283771D01*
X84182381Y-16283771D02*
X84277619Y-16331390D01*
X84277619Y-16331390D02*
X84325238Y-16379009D01*
X84325238Y-16379009D02*
X84372857Y-16474247D01*
X84372857Y-16474247D02*
X84372857Y-16712342D01*
X84372857Y-16712342D02*
X84325238Y-16807580D01*
X84325238Y-16807580D02*
X84277619Y-16855200D01*
X84277619Y-16855200D02*
X84182381Y-16902819D01*
X84182381Y-16902819D02*
X83944286Y-16902819D01*
X83944286Y-16902819D02*
X83849048Y-16855200D01*
X83849048Y-16855200D02*
X83801429Y-16807580D01*
X43254819Y-188126666D02*
X42778628Y-188459999D01*
X43254819Y-188698094D02*
X42254819Y-188698094D01*
X42254819Y-188698094D02*
X42254819Y-188317142D01*
X42254819Y-188317142D02*
X42302438Y-188221904D01*
X42302438Y-188221904D02*
X42350057Y-188174285D01*
X42350057Y-188174285D02*
X42445295Y-188126666D01*
X42445295Y-188126666D02*
X42588152Y-188126666D01*
X42588152Y-188126666D02*
X42683390Y-188174285D01*
X42683390Y-188174285D02*
X42731009Y-188221904D01*
X42731009Y-188221904D02*
X42778628Y-188317142D01*
X42778628Y-188317142D02*
X42778628Y-188698094D01*
X42588152Y-187269523D02*
X43254819Y-187269523D01*
X42207200Y-187507618D02*
X42921485Y-187745713D01*
X42921485Y-187745713D02*
X42921485Y-187126666D01*
X261074819Y-82806523D02*
X261789104Y-82806523D01*
X261789104Y-82806523D02*
X261931961Y-82854142D01*
X261931961Y-82854142D02*
X262027200Y-82949380D01*
X262027200Y-82949380D02*
X262074819Y-83092237D01*
X262074819Y-83092237D02*
X262074819Y-83187475D01*
X262074819Y-82330332D02*
X261074819Y-82330332D01*
X261074819Y-82330332D02*
X261074819Y-81949380D01*
X261074819Y-81949380D02*
X261122438Y-81854142D01*
X261122438Y-81854142D02*
X261170057Y-81806523D01*
X261170057Y-81806523D02*
X261265295Y-81758904D01*
X261265295Y-81758904D02*
X261408152Y-81758904D01*
X261408152Y-81758904D02*
X261503390Y-81806523D01*
X261503390Y-81806523D02*
X261551009Y-81854142D01*
X261551009Y-81854142D02*
X261598628Y-81949380D01*
X261598628Y-81949380D02*
X261598628Y-82330332D01*
X262074819Y-80806523D02*
X262074819Y-81377951D01*
X262074819Y-81092237D02*
X261074819Y-81092237D01*
X261074819Y-81092237D02*
X261217676Y-81187475D01*
X261217676Y-81187475D02*
X261312914Y-81282713D01*
X261312914Y-81282713D02*
X261360533Y-81377951D01*
X261074819Y-80473189D02*
X261074819Y-79854142D01*
X261074819Y-79854142D02*
X261455771Y-80187475D01*
X261455771Y-80187475D02*
X261455771Y-80044618D01*
X261455771Y-80044618D02*
X261503390Y-79949380D01*
X261503390Y-79949380D02*
X261551009Y-79901761D01*
X261551009Y-79901761D02*
X261646247Y-79854142D01*
X261646247Y-79854142D02*
X261884342Y-79854142D01*
X261884342Y-79854142D02*
X261979580Y-79901761D01*
X261979580Y-79901761D02*
X262027200Y-79949380D01*
X262027200Y-79949380D02*
X262074819Y-80044618D01*
X262074819Y-80044618D02*
X262074819Y-80330332D01*
X262074819Y-80330332D02*
X262027200Y-80425570D01*
X262027200Y-80425570D02*
X261979580Y-80473189D01*
X81960666Y-72822819D02*
X81960666Y-73537104D01*
X81960666Y-73537104D02*
X81913047Y-73679961D01*
X81913047Y-73679961D02*
X81817809Y-73775200D01*
X81817809Y-73775200D02*
X81674952Y-73822819D01*
X81674952Y-73822819D02*
X81579714Y-73822819D01*
X82484476Y-73822819D02*
X82674952Y-73822819D01*
X82674952Y-73822819D02*
X82770190Y-73775200D01*
X82770190Y-73775200D02*
X82817809Y-73727580D01*
X82817809Y-73727580D02*
X82913047Y-73584723D01*
X82913047Y-73584723D02*
X82960666Y-73394247D01*
X82960666Y-73394247D02*
X82960666Y-73013295D01*
X82960666Y-73013295D02*
X82913047Y-72918057D01*
X82913047Y-72918057D02*
X82865428Y-72870438D01*
X82865428Y-72870438D02*
X82770190Y-72822819D01*
X82770190Y-72822819D02*
X82579714Y-72822819D01*
X82579714Y-72822819D02*
X82484476Y-72870438D01*
X82484476Y-72870438D02*
X82436857Y-72918057D01*
X82436857Y-72918057D02*
X82389238Y-73013295D01*
X82389238Y-73013295D02*
X82389238Y-73251390D01*
X82389238Y-73251390D02*
X82436857Y-73346628D01*
X82436857Y-73346628D02*
X82484476Y-73394247D01*
X82484476Y-73394247D02*
X82579714Y-73441866D01*
X82579714Y-73441866D02*
X82770190Y-73441866D01*
X82770190Y-73441866D02*
X82865428Y-73394247D01*
X82865428Y-73394247D02*
X82913047Y-73346628D01*
X82913047Y-73346628D02*
X82960666Y-73251390D01*
X198942905Y-74331819D02*
X198942905Y-73331819D01*
X198942905Y-73331819D02*
X199181000Y-73331819D01*
X199181000Y-73331819D02*
X199323857Y-73379438D01*
X199323857Y-73379438D02*
X199419095Y-73474676D01*
X199419095Y-73474676D02*
X199466714Y-73569914D01*
X199466714Y-73569914D02*
X199514333Y-73760390D01*
X199514333Y-73760390D02*
X199514333Y-73903247D01*
X199514333Y-73903247D02*
X199466714Y-74093723D01*
X199466714Y-74093723D02*
X199419095Y-74188961D01*
X199419095Y-74188961D02*
X199323857Y-74284200D01*
X199323857Y-74284200D02*
X199181000Y-74331819D01*
X199181000Y-74331819D02*
X198942905Y-74331819D01*
X200085762Y-73760390D02*
X199990524Y-73712771D01*
X199990524Y-73712771D02*
X199942905Y-73665152D01*
X199942905Y-73665152D02*
X199895286Y-73569914D01*
X199895286Y-73569914D02*
X199895286Y-73522295D01*
X199895286Y-73522295D02*
X199942905Y-73427057D01*
X199942905Y-73427057D02*
X199990524Y-73379438D01*
X199990524Y-73379438D02*
X200085762Y-73331819D01*
X200085762Y-73331819D02*
X200276238Y-73331819D01*
X200276238Y-73331819D02*
X200371476Y-73379438D01*
X200371476Y-73379438D02*
X200419095Y-73427057D01*
X200419095Y-73427057D02*
X200466714Y-73522295D01*
X200466714Y-73522295D02*
X200466714Y-73569914D01*
X200466714Y-73569914D02*
X200419095Y-73665152D01*
X200419095Y-73665152D02*
X200371476Y-73712771D01*
X200371476Y-73712771D02*
X200276238Y-73760390D01*
X200276238Y-73760390D02*
X200085762Y-73760390D01*
X200085762Y-73760390D02*
X199990524Y-73808009D01*
X199990524Y-73808009D02*
X199942905Y-73855628D01*
X199942905Y-73855628D02*
X199895286Y-73950866D01*
X199895286Y-73950866D02*
X199895286Y-74141342D01*
X199895286Y-74141342D02*
X199942905Y-74236580D01*
X199942905Y-74236580D02*
X199990524Y-74284200D01*
X199990524Y-74284200D02*
X200085762Y-74331819D01*
X200085762Y-74331819D02*
X200276238Y-74331819D01*
X200276238Y-74331819D02*
X200371476Y-74284200D01*
X200371476Y-74284200D02*
X200419095Y-74236580D01*
X200419095Y-74236580D02*
X200466714Y-74141342D01*
X200466714Y-74141342D02*
X200466714Y-73950866D01*
X200466714Y-73950866D02*
X200419095Y-73855628D01*
X200419095Y-73855628D02*
X200371476Y-73808009D01*
X200371476Y-73808009D02*
X200276238Y-73760390D01*
X203229095Y-78163819D02*
X203229095Y-77163819D01*
X203800523Y-78163819D02*
X203371952Y-77592390D01*
X203800523Y-77163819D02*
X203229095Y-77735247D01*
X261133819Y-90204333D02*
X261848104Y-90204333D01*
X261848104Y-90204333D02*
X261990961Y-90251952D01*
X261990961Y-90251952D02*
X262086200Y-90347190D01*
X262086200Y-90347190D02*
X262133819Y-90490047D01*
X262133819Y-90490047D02*
X262133819Y-90585285D01*
X262133819Y-89728142D02*
X261133819Y-89728142D01*
X261133819Y-89728142D02*
X261133819Y-89347190D01*
X261133819Y-89347190D02*
X261181438Y-89251952D01*
X261181438Y-89251952D02*
X261229057Y-89204333D01*
X261229057Y-89204333D02*
X261324295Y-89156714D01*
X261324295Y-89156714D02*
X261467152Y-89156714D01*
X261467152Y-89156714D02*
X261562390Y-89204333D01*
X261562390Y-89204333D02*
X261610009Y-89251952D01*
X261610009Y-89251952D02*
X261657628Y-89347190D01*
X261657628Y-89347190D02*
X261657628Y-89728142D01*
X262133819Y-88680523D02*
X262133819Y-88490047D01*
X262133819Y-88490047D02*
X262086200Y-88394809D01*
X262086200Y-88394809D02*
X262038580Y-88347190D01*
X262038580Y-88347190D02*
X261895723Y-88251952D01*
X261895723Y-88251952D02*
X261705247Y-88204333D01*
X261705247Y-88204333D02*
X261324295Y-88204333D01*
X261324295Y-88204333D02*
X261229057Y-88251952D01*
X261229057Y-88251952D02*
X261181438Y-88299571D01*
X261181438Y-88299571D02*
X261133819Y-88394809D01*
X261133819Y-88394809D02*
X261133819Y-88585285D01*
X261133819Y-88585285D02*
X261181438Y-88680523D01*
X261181438Y-88680523D02*
X261229057Y-88728142D01*
X261229057Y-88728142D02*
X261324295Y-88775761D01*
X261324295Y-88775761D02*
X261562390Y-88775761D01*
X261562390Y-88775761D02*
X261657628Y-88728142D01*
X261657628Y-88728142D02*
X261705247Y-88680523D01*
X261705247Y-88680523D02*
X261752866Y-88585285D01*
X261752866Y-88585285D02*
X261752866Y-88394809D01*
X261752866Y-88394809D02*
X261705247Y-88299571D01*
X261705247Y-88299571D02*
X261657628Y-88251952D01*
X261657628Y-88251952D02*
X261562390Y-88204333D01*
X216905476Y-117851819D02*
X216905476Y-118566104D01*
X216905476Y-118566104D02*
X216857857Y-118708961D01*
X216857857Y-118708961D02*
X216762619Y-118804200D01*
X216762619Y-118804200D02*
X216619762Y-118851819D01*
X216619762Y-118851819D02*
X216524524Y-118851819D01*
X217286429Y-117851819D02*
X217905476Y-117851819D01*
X217905476Y-117851819D02*
X217572143Y-118232771D01*
X217572143Y-118232771D02*
X217715000Y-118232771D01*
X217715000Y-118232771D02*
X217810238Y-118280390D01*
X217810238Y-118280390D02*
X217857857Y-118328009D01*
X217857857Y-118328009D02*
X217905476Y-118423247D01*
X217905476Y-118423247D02*
X217905476Y-118661342D01*
X217905476Y-118661342D02*
X217857857Y-118756580D01*
X217857857Y-118756580D02*
X217810238Y-118804200D01*
X217810238Y-118804200D02*
X217715000Y-118851819D01*
X217715000Y-118851819D02*
X217429286Y-118851819D01*
X217429286Y-118851819D02*
X217334048Y-118804200D01*
X217334048Y-118804200D02*
X217286429Y-118756580D01*
X218381667Y-118851819D02*
X218572143Y-118851819D01*
X218572143Y-118851819D02*
X218667381Y-118804200D01*
X218667381Y-118804200D02*
X218715000Y-118756580D01*
X218715000Y-118756580D02*
X218810238Y-118613723D01*
X218810238Y-118613723D02*
X218857857Y-118423247D01*
X218857857Y-118423247D02*
X218857857Y-118042295D01*
X218857857Y-118042295D02*
X218810238Y-117947057D01*
X218810238Y-117947057D02*
X218762619Y-117899438D01*
X218762619Y-117899438D02*
X218667381Y-117851819D01*
X218667381Y-117851819D02*
X218476905Y-117851819D01*
X218476905Y-117851819D02*
X218381667Y-117899438D01*
X218381667Y-117899438D02*
X218334048Y-117947057D01*
X218334048Y-117947057D02*
X218286429Y-118042295D01*
X218286429Y-118042295D02*
X218286429Y-118280390D01*
X218286429Y-118280390D02*
X218334048Y-118375628D01*
X218334048Y-118375628D02*
X218381667Y-118423247D01*
X218381667Y-118423247D02*
X218476905Y-118470866D01*
X218476905Y-118470866D02*
X218667381Y-118470866D01*
X218667381Y-118470866D02*
X218762619Y-118423247D01*
X218762619Y-118423247D02*
X218810238Y-118375628D01*
X218810238Y-118375628D02*
X218857857Y-118280390D01*
X78406666Y-47784819D02*
X78406666Y-48499104D01*
X78406666Y-48499104D02*
X78359047Y-48641961D01*
X78359047Y-48641961D02*
X78263809Y-48737200D01*
X78263809Y-48737200D02*
X78120952Y-48784819D01*
X78120952Y-48784819D02*
X78025714Y-48784819D01*
X78835238Y-47880057D02*
X78882857Y-47832438D01*
X78882857Y-47832438D02*
X78978095Y-47784819D01*
X78978095Y-47784819D02*
X79216190Y-47784819D01*
X79216190Y-47784819D02*
X79311428Y-47832438D01*
X79311428Y-47832438D02*
X79359047Y-47880057D01*
X79359047Y-47880057D02*
X79406666Y-47975295D01*
X79406666Y-47975295D02*
X79406666Y-48070533D01*
X79406666Y-48070533D02*
X79359047Y-48213390D01*
X79359047Y-48213390D02*
X78787619Y-48784819D01*
X78787619Y-48784819D02*
X79406666Y-48784819D01*
X249440718Y-73776319D02*
X249107385Y-73300128D01*
X248869290Y-73776319D02*
X248869290Y-72776319D01*
X248869290Y-72776319D02*
X249250242Y-72776319D01*
X249250242Y-72776319D02*
X249345480Y-72823938D01*
X249345480Y-72823938D02*
X249393099Y-72871557D01*
X249393099Y-72871557D02*
X249440718Y-72966795D01*
X249440718Y-72966795D02*
X249440718Y-73109652D01*
X249440718Y-73109652D02*
X249393099Y-73204890D01*
X249393099Y-73204890D02*
X249345480Y-73252509D01*
X249345480Y-73252509D02*
X249250242Y-73300128D01*
X249250242Y-73300128D02*
X248869290Y-73300128D01*
X249869290Y-73252509D02*
X250202623Y-73252509D01*
X250345480Y-73776319D02*
X249869290Y-73776319D01*
X249869290Y-73776319D02*
X249869290Y-72776319D01*
X249869290Y-72776319D02*
X250345480Y-72776319D01*
X251107385Y-73252509D02*
X250774052Y-73252509D01*
X250774052Y-73776319D02*
X250774052Y-72776319D01*
X250774052Y-72776319D02*
X251250242Y-72776319D01*
X251774052Y-72776319D02*
X251774052Y-73014414D01*
X251535957Y-72919176D02*
X251774052Y-73014414D01*
X251774052Y-73014414D02*
X252012147Y-72919176D01*
X251631195Y-73204890D02*
X251774052Y-73014414D01*
X251774052Y-73014414D02*
X251916909Y-73204890D01*
X252535957Y-72776319D02*
X252535957Y-73014414D01*
X252297862Y-72919176D02*
X252535957Y-73014414D01*
X252535957Y-73014414D02*
X252774052Y-72919176D01*
X252393100Y-73204890D02*
X252535957Y-73014414D01*
X252535957Y-73014414D02*
X252678814Y-73204890D01*
X170280718Y-120956319D02*
X169947385Y-120480128D01*
X169709290Y-120956319D02*
X169709290Y-119956319D01*
X169709290Y-119956319D02*
X170090242Y-119956319D01*
X170090242Y-119956319D02*
X170185480Y-120003938D01*
X170185480Y-120003938D02*
X170233099Y-120051557D01*
X170233099Y-120051557D02*
X170280718Y-120146795D01*
X170280718Y-120146795D02*
X170280718Y-120289652D01*
X170280718Y-120289652D02*
X170233099Y-120384890D01*
X170233099Y-120384890D02*
X170185480Y-120432509D01*
X170185480Y-120432509D02*
X170090242Y-120480128D01*
X170090242Y-120480128D02*
X169709290Y-120480128D01*
X170709290Y-120432509D02*
X171042623Y-120432509D01*
X171185480Y-120956319D02*
X170709290Y-120956319D01*
X170709290Y-120956319D02*
X170709290Y-119956319D01*
X170709290Y-119956319D02*
X171185480Y-119956319D01*
X171947385Y-120432509D02*
X171614052Y-120432509D01*
X171614052Y-120956319D02*
X171614052Y-119956319D01*
X171614052Y-119956319D02*
X172090242Y-119956319D01*
X172614052Y-119956319D02*
X172614052Y-120194414D01*
X172375957Y-120099176D02*
X172614052Y-120194414D01*
X172614052Y-120194414D02*
X172852147Y-120099176D01*
X172471195Y-120384890D02*
X172614052Y-120194414D01*
X172614052Y-120194414D02*
X172756909Y-120384890D01*
X173375957Y-119956319D02*
X173375957Y-120194414D01*
X173137862Y-120099176D02*
X173375957Y-120194414D01*
X173375957Y-120194414D02*
X173614052Y-120099176D01*
X173233100Y-120384890D02*
X173375957Y-120194414D01*
X173375957Y-120194414D02*
X173518814Y-120384890D01*
X198942905Y-78943819D02*
X198942905Y-77943819D01*
X199514333Y-78943819D02*
X199085762Y-78372390D01*
X199514333Y-77943819D02*
X198942905Y-78515247D01*
X200419095Y-77943819D02*
X199942905Y-77943819D01*
X199942905Y-77943819D02*
X199895286Y-78420009D01*
X199895286Y-78420009D02*
X199942905Y-78372390D01*
X199942905Y-78372390D02*
X200038143Y-78324771D01*
X200038143Y-78324771D02*
X200276238Y-78324771D01*
X200276238Y-78324771D02*
X200371476Y-78372390D01*
X200371476Y-78372390D02*
X200419095Y-78420009D01*
X200419095Y-78420009D02*
X200466714Y-78515247D01*
X200466714Y-78515247D02*
X200466714Y-78753342D01*
X200466714Y-78753342D02*
X200419095Y-78848580D01*
X200419095Y-78848580D02*
X200371476Y-78896200D01*
X200371476Y-78896200D02*
X200276238Y-78943819D01*
X200276238Y-78943819D02*
X200038143Y-78943819D01*
X200038143Y-78943819D02*
X199942905Y-78896200D01*
X199942905Y-78896200D02*
X199895286Y-78848580D01*
X17036905Y-176834819D02*
X17036905Y-175834819D01*
X17036905Y-175834819D02*
X17275000Y-175834819D01*
X17275000Y-175834819D02*
X17417857Y-175882438D01*
X17417857Y-175882438D02*
X17513095Y-175977676D01*
X17513095Y-175977676D02*
X17560714Y-176072914D01*
X17560714Y-176072914D02*
X17608333Y-176263390D01*
X17608333Y-176263390D02*
X17608333Y-176406247D01*
X17608333Y-176406247D02*
X17560714Y-176596723D01*
X17560714Y-176596723D02*
X17513095Y-176691961D01*
X17513095Y-176691961D02*
X17417857Y-176787200D01*
X17417857Y-176787200D02*
X17275000Y-176834819D01*
X17275000Y-176834819D02*
X17036905Y-176834819D01*
X18560714Y-176834819D02*
X17989286Y-176834819D01*
X18275000Y-176834819D02*
X18275000Y-175834819D01*
X18275000Y-175834819D02*
X18179762Y-175977676D01*
X18179762Y-175977676D02*
X18084524Y-176072914D01*
X18084524Y-176072914D02*
X17989286Y-176120533D01*
X255799819Y-82584333D02*
X256514104Y-82584333D01*
X256514104Y-82584333D02*
X256656961Y-82631952D01*
X256656961Y-82631952D02*
X256752200Y-82727190D01*
X256752200Y-82727190D02*
X256799819Y-82870047D01*
X256799819Y-82870047D02*
X256799819Y-82965285D01*
X256799819Y-82108142D02*
X255799819Y-82108142D01*
X255799819Y-82108142D02*
X255799819Y-81727190D01*
X255799819Y-81727190D02*
X255847438Y-81631952D01*
X255847438Y-81631952D02*
X255895057Y-81584333D01*
X255895057Y-81584333D02*
X255990295Y-81536714D01*
X255990295Y-81536714D02*
X256133152Y-81536714D01*
X256133152Y-81536714D02*
X256228390Y-81584333D01*
X256228390Y-81584333D02*
X256276009Y-81631952D01*
X256276009Y-81631952D02*
X256323628Y-81727190D01*
X256323628Y-81727190D02*
X256323628Y-82108142D01*
X255799819Y-80679571D02*
X255799819Y-80870047D01*
X255799819Y-80870047D02*
X255847438Y-80965285D01*
X255847438Y-80965285D02*
X255895057Y-81012904D01*
X255895057Y-81012904D02*
X256037914Y-81108142D01*
X256037914Y-81108142D02*
X256228390Y-81155761D01*
X256228390Y-81155761D02*
X256609342Y-81155761D01*
X256609342Y-81155761D02*
X256704580Y-81108142D01*
X256704580Y-81108142D02*
X256752200Y-81060523D01*
X256752200Y-81060523D02*
X256799819Y-80965285D01*
X256799819Y-80965285D02*
X256799819Y-80774809D01*
X256799819Y-80774809D02*
X256752200Y-80679571D01*
X256752200Y-80679571D02*
X256704580Y-80631952D01*
X256704580Y-80631952D02*
X256609342Y-80584333D01*
X256609342Y-80584333D02*
X256371247Y-80584333D01*
X256371247Y-80584333D02*
X256276009Y-80631952D01*
X256276009Y-80631952D02*
X256228390Y-80679571D01*
X256228390Y-80679571D02*
X256180771Y-80774809D01*
X256180771Y-80774809D02*
X256180771Y-80965285D01*
X256180771Y-80965285D02*
X256228390Y-81060523D01*
X256228390Y-81060523D02*
X256276009Y-81108142D01*
X256276009Y-81108142D02*
X256371247Y-81155761D01*
X179301666Y-104881819D02*
X179301666Y-105596104D01*
X179301666Y-105596104D02*
X179254047Y-105738961D01*
X179254047Y-105738961D02*
X179158809Y-105834200D01*
X179158809Y-105834200D02*
X179015952Y-105881819D01*
X179015952Y-105881819D02*
X178920714Y-105881819D01*
X179682619Y-104881819D02*
X180301666Y-104881819D01*
X180301666Y-104881819D02*
X179968333Y-105262771D01*
X179968333Y-105262771D02*
X180111190Y-105262771D01*
X180111190Y-105262771D02*
X180206428Y-105310390D01*
X180206428Y-105310390D02*
X180254047Y-105358009D01*
X180254047Y-105358009D02*
X180301666Y-105453247D01*
X180301666Y-105453247D02*
X180301666Y-105691342D01*
X180301666Y-105691342D02*
X180254047Y-105786580D01*
X180254047Y-105786580D02*
X180206428Y-105834200D01*
X180206428Y-105834200D02*
X180111190Y-105881819D01*
X180111190Y-105881819D02*
X179825476Y-105881819D01*
X179825476Y-105881819D02*
X179730238Y-105834200D01*
X179730238Y-105834200D02*
X179682619Y-105786580D01*
X54910666Y-72822819D02*
X54910666Y-73537104D01*
X54910666Y-73537104D02*
X54863047Y-73679961D01*
X54863047Y-73679961D02*
X54767809Y-73775200D01*
X54767809Y-73775200D02*
X54624952Y-73822819D01*
X54624952Y-73822819D02*
X54529714Y-73822819D01*
X55291619Y-72822819D02*
X55958285Y-72822819D01*
X55958285Y-72822819D02*
X55529714Y-73822819D01*
X144328319Y-93109594D02*
X143328319Y-93109594D01*
X144328319Y-92538166D02*
X143756890Y-92966737D01*
X143328319Y-92538166D02*
X143899747Y-93109594D01*
X143328319Y-91681023D02*
X143328319Y-91871499D01*
X143328319Y-91871499D02*
X143375938Y-91966737D01*
X143375938Y-91966737D02*
X143423557Y-92014356D01*
X143423557Y-92014356D02*
X143566414Y-92109594D01*
X143566414Y-92109594D02*
X143756890Y-92157213D01*
X143756890Y-92157213D02*
X144137842Y-92157213D01*
X144137842Y-92157213D02*
X144233080Y-92109594D01*
X144233080Y-92109594D02*
X144280700Y-92061975D01*
X144280700Y-92061975D02*
X144328319Y-91966737D01*
X144328319Y-91966737D02*
X144328319Y-91776261D01*
X144328319Y-91776261D02*
X144280700Y-91681023D01*
X144280700Y-91681023D02*
X144233080Y-91633404D01*
X144233080Y-91633404D02*
X144137842Y-91585785D01*
X144137842Y-91585785D02*
X143899747Y-91585785D01*
X143899747Y-91585785D02*
X143804509Y-91633404D01*
X143804509Y-91633404D02*
X143756890Y-91681023D01*
X143756890Y-91681023D02*
X143709271Y-91776261D01*
X143709271Y-91776261D02*
X143709271Y-91966737D01*
X143709271Y-91966737D02*
X143756890Y-92061975D01*
X143756890Y-92061975D02*
X143804509Y-92109594D01*
X143804509Y-92109594D02*
X143899747Y-92157213D01*
X68654819Y-188126666D02*
X68178628Y-188459999D01*
X68654819Y-188698094D02*
X67654819Y-188698094D01*
X67654819Y-188698094D02*
X67654819Y-188317142D01*
X67654819Y-188317142D02*
X67702438Y-188221904D01*
X67702438Y-188221904D02*
X67750057Y-188174285D01*
X67750057Y-188174285D02*
X67845295Y-188126666D01*
X67845295Y-188126666D02*
X67988152Y-188126666D01*
X67988152Y-188126666D02*
X68083390Y-188174285D01*
X68083390Y-188174285D02*
X68131009Y-188221904D01*
X68131009Y-188221904D02*
X68178628Y-188317142D01*
X68178628Y-188317142D02*
X68178628Y-188698094D01*
X67654819Y-187793332D02*
X67654819Y-187174285D01*
X67654819Y-187174285D02*
X68035771Y-187507618D01*
X68035771Y-187507618D02*
X68035771Y-187364761D01*
X68035771Y-187364761D02*
X68083390Y-187269523D01*
X68083390Y-187269523D02*
X68131009Y-187221904D01*
X68131009Y-187221904D02*
X68226247Y-187174285D01*
X68226247Y-187174285D02*
X68464342Y-187174285D01*
X68464342Y-187174285D02*
X68559580Y-187221904D01*
X68559580Y-187221904D02*
X68607200Y-187269523D01*
X68607200Y-187269523D02*
X68654819Y-187364761D01*
X68654819Y-187364761D02*
X68654819Y-187650475D01*
X68654819Y-187650475D02*
X68607200Y-187745713D01*
X68607200Y-187745713D02*
X68559580Y-187793332D01*
X206745476Y-117851819D02*
X206745476Y-118566104D01*
X206745476Y-118566104D02*
X206697857Y-118708961D01*
X206697857Y-118708961D02*
X206602619Y-118804200D01*
X206602619Y-118804200D02*
X206459762Y-118851819D01*
X206459762Y-118851819D02*
X206364524Y-118851819D01*
X207126429Y-117851819D02*
X207745476Y-117851819D01*
X207745476Y-117851819D02*
X207412143Y-118232771D01*
X207412143Y-118232771D02*
X207555000Y-118232771D01*
X207555000Y-118232771D02*
X207650238Y-118280390D01*
X207650238Y-118280390D02*
X207697857Y-118328009D01*
X207697857Y-118328009D02*
X207745476Y-118423247D01*
X207745476Y-118423247D02*
X207745476Y-118661342D01*
X207745476Y-118661342D02*
X207697857Y-118756580D01*
X207697857Y-118756580D02*
X207650238Y-118804200D01*
X207650238Y-118804200D02*
X207555000Y-118851819D01*
X207555000Y-118851819D02*
X207269286Y-118851819D01*
X207269286Y-118851819D02*
X207174048Y-118804200D01*
X207174048Y-118804200D02*
X207126429Y-118756580D01*
X208602619Y-117851819D02*
X208412143Y-117851819D01*
X208412143Y-117851819D02*
X208316905Y-117899438D01*
X208316905Y-117899438D02*
X208269286Y-117947057D01*
X208269286Y-117947057D02*
X208174048Y-118089914D01*
X208174048Y-118089914D02*
X208126429Y-118280390D01*
X208126429Y-118280390D02*
X208126429Y-118661342D01*
X208126429Y-118661342D02*
X208174048Y-118756580D01*
X208174048Y-118756580D02*
X208221667Y-118804200D01*
X208221667Y-118804200D02*
X208316905Y-118851819D01*
X208316905Y-118851819D02*
X208507381Y-118851819D01*
X208507381Y-118851819D02*
X208602619Y-118804200D01*
X208602619Y-118804200D02*
X208650238Y-118756580D01*
X208650238Y-118756580D02*
X208697857Y-118661342D01*
X208697857Y-118661342D02*
X208697857Y-118423247D01*
X208697857Y-118423247D02*
X208650238Y-118328009D01*
X208650238Y-118328009D02*
X208602619Y-118280390D01*
X208602619Y-118280390D02*
X208507381Y-118232771D01*
X208507381Y-118232771D02*
X208316905Y-118232771D01*
X208316905Y-118232771D02*
X208221667Y-118280390D01*
X208221667Y-118280390D02*
X208174048Y-118328009D01*
X208174048Y-118328009D02*
X208126429Y-118423247D01*
X192494819Y-90680523D02*
X193209104Y-90680523D01*
X193209104Y-90680523D02*
X193351961Y-90728142D01*
X193351961Y-90728142D02*
X193447200Y-90823380D01*
X193447200Y-90823380D02*
X193494819Y-90966237D01*
X193494819Y-90966237D02*
X193494819Y-91061475D01*
X193494819Y-90204332D02*
X192494819Y-90204332D01*
X192494819Y-90204332D02*
X192494819Y-89823380D01*
X192494819Y-89823380D02*
X192542438Y-89728142D01*
X192542438Y-89728142D02*
X192590057Y-89680523D01*
X192590057Y-89680523D02*
X192685295Y-89632904D01*
X192685295Y-89632904D02*
X192828152Y-89632904D01*
X192828152Y-89632904D02*
X192923390Y-89680523D01*
X192923390Y-89680523D02*
X192971009Y-89728142D01*
X192971009Y-89728142D02*
X193018628Y-89823380D01*
X193018628Y-89823380D02*
X193018628Y-90204332D01*
X193494819Y-88680523D02*
X193494819Y-89251951D01*
X193494819Y-88966237D02*
X192494819Y-88966237D01*
X192494819Y-88966237D02*
X192637676Y-89061475D01*
X192637676Y-89061475D02*
X192732914Y-89156713D01*
X192732914Y-89156713D02*
X192780533Y-89251951D01*
X192590057Y-88299570D02*
X192542438Y-88251951D01*
X192542438Y-88251951D02*
X192494819Y-88156713D01*
X192494819Y-88156713D02*
X192494819Y-87918618D01*
X192494819Y-87918618D02*
X192542438Y-87823380D01*
X192542438Y-87823380D02*
X192590057Y-87775761D01*
X192590057Y-87775761D02*
X192685295Y-87728142D01*
X192685295Y-87728142D02*
X192780533Y-87728142D01*
X192780533Y-87728142D02*
X192923390Y-87775761D01*
X192923390Y-87775761D02*
X193494819Y-88347189D01*
X193494819Y-88347189D02*
X193494819Y-87728142D01*
X55070476Y-15902819D02*
X55070476Y-16617104D01*
X55070476Y-16617104D02*
X55022857Y-16759961D01*
X55022857Y-16759961D02*
X54927619Y-16855200D01*
X54927619Y-16855200D02*
X54784762Y-16902819D01*
X54784762Y-16902819D02*
X54689524Y-16902819D01*
X56070476Y-16902819D02*
X55499048Y-16902819D01*
X55784762Y-16902819D02*
X55784762Y-15902819D01*
X55784762Y-15902819D02*
X55689524Y-16045676D01*
X55689524Y-16045676D02*
X55594286Y-16140914D01*
X55594286Y-16140914D02*
X55499048Y-16188533D01*
X56927619Y-16236152D02*
X56927619Y-16902819D01*
X56689524Y-15855200D02*
X56451429Y-16569485D01*
X56451429Y-16569485D02*
X57070476Y-16569485D01*
X214905819Y-90568523D02*
X215620104Y-90568523D01*
X215620104Y-90568523D02*
X215762961Y-90616142D01*
X215762961Y-90616142D02*
X215858200Y-90711380D01*
X215858200Y-90711380D02*
X215905819Y-90854237D01*
X215905819Y-90854237D02*
X215905819Y-90949475D01*
X215905819Y-90092332D02*
X214905819Y-90092332D01*
X214905819Y-90092332D02*
X214905819Y-89711380D01*
X214905819Y-89711380D02*
X214953438Y-89616142D01*
X214953438Y-89616142D02*
X215001057Y-89568523D01*
X215001057Y-89568523D02*
X215096295Y-89520904D01*
X215096295Y-89520904D02*
X215239152Y-89520904D01*
X215239152Y-89520904D02*
X215334390Y-89568523D01*
X215334390Y-89568523D02*
X215382009Y-89616142D01*
X215382009Y-89616142D02*
X215429628Y-89711380D01*
X215429628Y-89711380D02*
X215429628Y-90092332D01*
X215905819Y-88568523D02*
X215905819Y-89139951D01*
X215905819Y-88854237D02*
X214905819Y-88854237D01*
X214905819Y-88854237D02*
X215048676Y-88949475D01*
X215048676Y-88949475D02*
X215143914Y-89044713D01*
X215143914Y-89044713D02*
X215191533Y-89139951D01*
X215905819Y-87616142D02*
X215905819Y-88187570D01*
X215905819Y-87901856D02*
X214905819Y-87901856D01*
X214905819Y-87901856D02*
X215048676Y-87997094D01*
X215048676Y-87997094D02*
X215143914Y-88092332D01*
X215143914Y-88092332D02*
X215191533Y-88187570D01*
X72850476Y-165824819D02*
X72850476Y-166539104D01*
X72850476Y-166539104D02*
X72802857Y-166681961D01*
X72802857Y-166681961D02*
X72707619Y-166777200D01*
X72707619Y-166777200D02*
X72564762Y-166824819D01*
X72564762Y-166824819D02*
X72469524Y-166824819D01*
X73279048Y-165920057D02*
X73326667Y-165872438D01*
X73326667Y-165872438D02*
X73421905Y-165824819D01*
X73421905Y-165824819D02*
X73660000Y-165824819D01*
X73660000Y-165824819D02*
X73755238Y-165872438D01*
X73755238Y-165872438D02*
X73802857Y-165920057D01*
X73802857Y-165920057D02*
X73850476Y-166015295D01*
X73850476Y-166015295D02*
X73850476Y-166110533D01*
X73850476Y-166110533D02*
X73802857Y-166253390D01*
X73802857Y-166253390D02*
X73231429Y-166824819D01*
X73231429Y-166824819D02*
X73850476Y-166824819D01*
X74183810Y-165824819D02*
X74802857Y-165824819D01*
X74802857Y-165824819D02*
X74469524Y-166205771D01*
X74469524Y-166205771D02*
X74612381Y-166205771D01*
X74612381Y-166205771D02*
X74707619Y-166253390D01*
X74707619Y-166253390D02*
X74755238Y-166301009D01*
X74755238Y-166301009D02*
X74802857Y-166396247D01*
X74802857Y-166396247D02*
X74802857Y-166634342D01*
X74802857Y-166634342D02*
X74755238Y-166729580D01*
X74755238Y-166729580D02*
X74707619Y-166777200D01*
X74707619Y-166777200D02*
X74612381Y-166824819D01*
X74612381Y-166824819D02*
X74326667Y-166824819D01*
X74326667Y-166824819D02*
X74231429Y-166777200D01*
X74231429Y-166777200D02*
X74183810Y-166729580D01*
X29146666Y-179134819D02*
X28813333Y-178658628D01*
X28575238Y-179134819D02*
X28575238Y-178134819D01*
X28575238Y-178134819D02*
X28956190Y-178134819D01*
X28956190Y-178134819D02*
X29051428Y-178182438D01*
X29051428Y-178182438D02*
X29099047Y-178230057D01*
X29099047Y-178230057D02*
X29146666Y-178325295D01*
X29146666Y-178325295D02*
X29146666Y-178468152D01*
X29146666Y-178468152D02*
X29099047Y-178563390D01*
X29099047Y-178563390D02*
X29051428Y-178611009D01*
X29051428Y-178611009D02*
X28956190Y-178658628D01*
X28956190Y-178658628D02*
X28575238Y-178658628D01*
X29575238Y-178611009D02*
X29908571Y-178611009D01*
X30051428Y-179134819D02*
X29575238Y-179134819D01*
X29575238Y-179134819D02*
X29575238Y-178134819D01*
X29575238Y-178134819D02*
X30051428Y-178134819D01*
X30813333Y-178611009D02*
X30480000Y-178611009D01*
X30480000Y-179134819D02*
X30480000Y-178134819D01*
X30480000Y-178134819D02*
X30956190Y-178134819D01*
X31480000Y-178134819D02*
X31480000Y-178372914D01*
X31241905Y-178277676D02*
X31480000Y-178372914D01*
X31480000Y-178372914D02*
X31718095Y-178277676D01*
X31337143Y-178563390D02*
X31480000Y-178372914D01*
X31480000Y-178372914D02*
X31622857Y-178563390D01*
X32241905Y-178134819D02*
X32241905Y-178372914D01*
X32003810Y-178277676D02*
X32241905Y-178372914D01*
X32241905Y-178372914D02*
X32480000Y-178277676D01*
X32099048Y-178563390D02*
X32241905Y-178372914D01*
X32241905Y-178372914D02*
X32384762Y-178563390D01*
X108534476Y-72822819D02*
X108534476Y-73537104D01*
X108534476Y-73537104D02*
X108486857Y-73679961D01*
X108486857Y-73679961D02*
X108391619Y-73775200D01*
X108391619Y-73775200D02*
X108248762Y-73822819D01*
X108248762Y-73822819D02*
X108153524Y-73822819D01*
X109534476Y-73822819D02*
X108963048Y-73822819D01*
X109248762Y-73822819D02*
X109248762Y-72822819D01*
X109248762Y-72822819D02*
X109153524Y-72965676D01*
X109153524Y-72965676D02*
X109058286Y-73060914D01*
X109058286Y-73060914D02*
X108963048Y-73108533D01*
X110486857Y-73822819D02*
X109915429Y-73822819D01*
X110201143Y-73822819D02*
X110201143Y-72822819D01*
X110201143Y-72822819D02*
X110105905Y-72965676D01*
X110105905Y-72965676D02*
X110010667Y-73060914D01*
X110010667Y-73060914D02*
X109915429Y-73108533D01*
X224525476Y-117851819D02*
X224525476Y-118566104D01*
X224525476Y-118566104D02*
X224477857Y-118708961D01*
X224477857Y-118708961D02*
X224382619Y-118804200D01*
X224382619Y-118804200D02*
X224239762Y-118851819D01*
X224239762Y-118851819D02*
X224144524Y-118851819D01*
X224906429Y-117851819D02*
X225525476Y-117851819D01*
X225525476Y-117851819D02*
X225192143Y-118232771D01*
X225192143Y-118232771D02*
X225335000Y-118232771D01*
X225335000Y-118232771D02*
X225430238Y-118280390D01*
X225430238Y-118280390D02*
X225477857Y-118328009D01*
X225477857Y-118328009D02*
X225525476Y-118423247D01*
X225525476Y-118423247D02*
X225525476Y-118661342D01*
X225525476Y-118661342D02*
X225477857Y-118756580D01*
X225477857Y-118756580D02*
X225430238Y-118804200D01*
X225430238Y-118804200D02*
X225335000Y-118851819D01*
X225335000Y-118851819D02*
X225049286Y-118851819D01*
X225049286Y-118851819D02*
X224954048Y-118804200D01*
X224954048Y-118804200D02*
X224906429Y-118756580D01*
X225858810Y-117851819D02*
X226525476Y-117851819D01*
X226525476Y-117851819D02*
X226096905Y-118851819D01*
X192494819Y-82806523D02*
X193209104Y-82806523D01*
X193209104Y-82806523D02*
X193351961Y-82854142D01*
X193351961Y-82854142D02*
X193447200Y-82949380D01*
X193447200Y-82949380D02*
X193494819Y-83092237D01*
X193494819Y-83092237D02*
X193494819Y-83187475D01*
X193494819Y-82330332D02*
X192494819Y-82330332D01*
X192494819Y-82330332D02*
X192494819Y-81949380D01*
X192494819Y-81949380D02*
X192542438Y-81854142D01*
X192542438Y-81854142D02*
X192590057Y-81806523D01*
X192590057Y-81806523D02*
X192685295Y-81758904D01*
X192685295Y-81758904D02*
X192828152Y-81758904D01*
X192828152Y-81758904D02*
X192923390Y-81806523D01*
X192923390Y-81806523D02*
X192971009Y-81854142D01*
X192971009Y-81854142D02*
X193018628Y-81949380D01*
X193018628Y-81949380D02*
X193018628Y-82330332D01*
X193494819Y-80806523D02*
X193494819Y-81377951D01*
X193494819Y-81092237D02*
X192494819Y-81092237D01*
X192494819Y-81092237D02*
X192637676Y-81187475D01*
X192637676Y-81187475D02*
X192732914Y-81282713D01*
X192732914Y-81282713D02*
X192780533Y-81377951D01*
X192494819Y-79949380D02*
X192494819Y-80139856D01*
X192494819Y-80139856D02*
X192542438Y-80235094D01*
X192542438Y-80235094D02*
X192590057Y-80282713D01*
X192590057Y-80282713D02*
X192732914Y-80377951D01*
X192732914Y-80377951D02*
X192923390Y-80425570D01*
X192923390Y-80425570D02*
X193304342Y-80425570D01*
X193304342Y-80425570D02*
X193399580Y-80377951D01*
X193399580Y-80377951D02*
X193447200Y-80330332D01*
X193447200Y-80330332D02*
X193494819Y-80235094D01*
X193494819Y-80235094D02*
X193494819Y-80044618D01*
X193494819Y-80044618D02*
X193447200Y-79949380D01*
X193447200Y-79949380D02*
X193399580Y-79901761D01*
X193399580Y-79901761D02*
X193304342Y-79854142D01*
X193304342Y-79854142D02*
X193066247Y-79854142D01*
X193066247Y-79854142D02*
X192971009Y-79901761D01*
X192971009Y-79901761D02*
X192923390Y-79949380D01*
X192923390Y-79949380D02*
X192875771Y-80044618D01*
X192875771Y-80044618D02*
X192875771Y-80235094D01*
X192875771Y-80235094D02*
X192923390Y-80330332D01*
X192923390Y-80330332D02*
X192971009Y-80377951D01*
X192971009Y-80377951D02*
X193066247Y-80425570D01*
X244916905Y-74585819D02*
X244916905Y-73585819D01*
X244916905Y-73585819D02*
X245155000Y-73585819D01*
X245155000Y-73585819D02*
X245297857Y-73633438D01*
X245297857Y-73633438D02*
X245393095Y-73728676D01*
X245393095Y-73728676D02*
X245440714Y-73823914D01*
X245440714Y-73823914D02*
X245488333Y-74014390D01*
X245488333Y-74014390D02*
X245488333Y-74157247D01*
X245488333Y-74157247D02*
X245440714Y-74347723D01*
X245440714Y-74347723D02*
X245393095Y-74442961D01*
X245393095Y-74442961D02*
X245297857Y-74538200D01*
X245297857Y-74538200D02*
X245155000Y-74585819D01*
X245155000Y-74585819D02*
X244916905Y-74585819D01*
X246345476Y-73585819D02*
X246155000Y-73585819D01*
X246155000Y-73585819D02*
X246059762Y-73633438D01*
X246059762Y-73633438D02*
X246012143Y-73681057D01*
X246012143Y-73681057D02*
X245916905Y-73823914D01*
X245916905Y-73823914D02*
X245869286Y-74014390D01*
X245869286Y-74014390D02*
X245869286Y-74395342D01*
X245869286Y-74395342D02*
X245916905Y-74490580D01*
X245916905Y-74490580D02*
X245964524Y-74538200D01*
X245964524Y-74538200D02*
X246059762Y-74585819D01*
X246059762Y-74585819D02*
X246250238Y-74585819D01*
X246250238Y-74585819D02*
X246345476Y-74538200D01*
X246345476Y-74538200D02*
X246393095Y-74490580D01*
X246393095Y-74490580D02*
X246440714Y-74395342D01*
X246440714Y-74395342D02*
X246440714Y-74157247D01*
X246440714Y-74157247D02*
X246393095Y-74062009D01*
X246393095Y-74062009D02*
X246345476Y-74014390D01*
X246345476Y-74014390D02*
X246250238Y-73966771D01*
X246250238Y-73966771D02*
X246059762Y-73966771D01*
X246059762Y-73966771D02*
X245964524Y-74014390D01*
X245964524Y-74014390D02*
X245916905Y-74062009D01*
X245916905Y-74062009D02*
X245869286Y-74157247D01*
X249203095Y-78671819D02*
X249203095Y-77671819D01*
X249774523Y-78671819D02*
X249345952Y-78100390D01*
X249774523Y-77671819D02*
X249203095Y-78243247D01*
X229605476Y-117851819D02*
X229605476Y-118566104D01*
X229605476Y-118566104D02*
X229557857Y-118708961D01*
X229557857Y-118708961D02*
X229462619Y-118804200D01*
X229462619Y-118804200D02*
X229319762Y-118851819D01*
X229319762Y-118851819D02*
X229224524Y-118851819D01*
X229986429Y-117851819D02*
X230605476Y-117851819D01*
X230605476Y-117851819D02*
X230272143Y-118232771D01*
X230272143Y-118232771D02*
X230415000Y-118232771D01*
X230415000Y-118232771D02*
X230510238Y-118280390D01*
X230510238Y-118280390D02*
X230557857Y-118328009D01*
X230557857Y-118328009D02*
X230605476Y-118423247D01*
X230605476Y-118423247D02*
X230605476Y-118661342D01*
X230605476Y-118661342D02*
X230557857Y-118756580D01*
X230557857Y-118756580D02*
X230510238Y-118804200D01*
X230510238Y-118804200D02*
X230415000Y-118851819D01*
X230415000Y-118851819D02*
X230129286Y-118851819D01*
X230129286Y-118851819D02*
X230034048Y-118804200D01*
X230034048Y-118804200D02*
X229986429Y-118756580D01*
X231176905Y-118280390D02*
X231081667Y-118232771D01*
X231081667Y-118232771D02*
X231034048Y-118185152D01*
X231034048Y-118185152D02*
X230986429Y-118089914D01*
X230986429Y-118089914D02*
X230986429Y-118042295D01*
X230986429Y-118042295D02*
X231034048Y-117947057D01*
X231034048Y-117947057D02*
X231081667Y-117899438D01*
X231081667Y-117899438D02*
X231176905Y-117851819D01*
X231176905Y-117851819D02*
X231367381Y-117851819D01*
X231367381Y-117851819D02*
X231462619Y-117899438D01*
X231462619Y-117899438D02*
X231510238Y-117947057D01*
X231510238Y-117947057D02*
X231557857Y-118042295D01*
X231557857Y-118042295D02*
X231557857Y-118089914D01*
X231557857Y-118089914D02*
X231510238Y-118185152D01*
X231510238Y-118185152D02*
X231462619Y-118232771D01*
X231462619Y-118232771D02*
X231367381Y-118280390D01*
X231367381Y-118280390D02*
X231176905Y-118280390D01*
X231176905Y-118280390D02*
X231081667Y-118328009D01*
X231081667Y-118328009D02*
X231034048Y-118375628D01*
X231034048Y-118375628D02*
X230986429Y-118470866D01*
X230986429Y-118470866D02*
X230986429Y-118661342D01*
X230986429Y-118661342D02*
X231034048Y-118756580D01*
X231034048Y-118756580D02*
X231081667Y-118804200D01*
X231081667Y-118804200D02*
X231176905Y-118851819D01*
X231176905Y-118851819D02*
X231367381Y-118851819D01*
X231367381Y-118851819D02*
X231462619Y-118804200D01*
X231462619Y-118804200D02*
X231510238Y-118756580D01*
X231510238Y-118756580D02*
X231557857Y-118661342D01*
X231557857Y-118661342D02*
X231557857Y-118470866D01*
X231557857Y-118470866D02*
X231510238Y-118375628D01*
X231510238Y-118375628D02*
X231462619Y-118328009D01*
X231462619Y-118328009D02*
X231367381Y-118280390D01*
X93236905Y-176834819D02*
X93236905Y-175834819D01*
X93236905Y-175834819D02*
X93475000Y-175834819D01*
X93475000Y-175834819D02*
X93617857Y-175882438D01*
X93617857Y-175882438D02*
X93713095Y-175977676D01*
X93713095Y-175977676D02*
X93760714Y-176072914D01*
X93760714Y-176072914D02*
X93808333Y-176263390D01*
X93808333Y-176263390D02*
X93808333Y-176406247D01*
X93808333Y-176406247D02*
X93760714Y-176596723D01*
X93760714Y-176596723D02*
X93713095Y-176691961D01*
X93713095Y-176691961D02*
X93617857Y-176787200D01*
X93617857Y-176787200D02*
X93475000Y-176834819D01*
X93475000Y-176834819D02*
X93236905Y-176834819D01*
X94665476Y-176168152D02*
X94665476Y-176834819D01*
X94427381Y-175787200D02*
X94189286Y-176501485D01*
X94189286Y-176501485D02*
X94808333Y-176501485D01*
X82486666Y-179134819D02*
X82153333Y-178658628D01*
X81915238Y-179134819D02*
X81915238Y-178134819D01*
X81915238Y-178134819D02*
X82296190Y-178134819D01*
X82296190Y-178134819D02*
X82391428Y-178182438D01*
X82391428Y-178182438D02*
X82439047Y-178230057D01*
X82439047Y-178230057D02*
X82486666Y-178325295D01*
X82486666Y-178325295D02*
X82486666Y-178468152D01*
X82486666Y-178468152D02*
X82439047Y-178563390D01*
X82439047Y-178563390D02*
X82391428Y-178611009D01*
X82391428Y-178611009D02*
X82296190Y-178658628D01*
X82296190Y-178658628D02*
X81915238Y-178658628D01*
X82915238Y-178611009D02*
X83248571Y-178611009D01*
X83391428Y-179134819D02*
X82915238Y-179134819D01*
X82915238Y-179134819D02*
X82915238Y-178134819D01*
X82915238Y-178134819D02*
X83391428Y-178134819D01*
X84153333Y-178611009D02*
X83820000Y-178611009D01*
X83820000Y-179134819D02*
X83820000Y-178134819D01*
X83820000Y-178134819D02*
X84296190Y-178134819D01*
X84820000Y-178134819D02*
X84820000Y-178372914D01*
X84581905Y-178277676D02*
X84820000Y-178372914D01*
X84820000Y-178372914D02*
X85058095Y-178277676D01*
X84677143Y-178563390D02*
X84820000Y-178372914D01*
X84820000Y-178372914D02*
X84962857Y-178563390D01*
X85581905Y-178134819D02*
X85581905Y-178372914D01*
X85343810Y-178277676D02*
X85581905Y-178372914D01*
X85581905Y-178372914D02*
X85820000Y-178277676D01*
X85439048Y-178563390D02*
X85581905Y-178372914D01*
X85581905Y-178372914D02*
X85724762Y-178563390D01*
X232685819Y-90204333D02*
X233400104Y-90204333D01*
X233400104Y-90204333D02*
X233542961Y-90251952D01*
X233542961Y-90251952D02*
X233638200Y-90347190D01*
X233638200Y-90347190D02*
X233685819Y-90490047D01*
X233685819Y-90490047D02*
X233685819Y-90585285D01*
X233685819Y-89728142D02*
X232685819Y-89728142D01*
X232685819Y-89728142D02*
X232685819Y-89347190D01*
X232685819Y-89347190D02*
X232733438Y-89251952D01*
X232733438Y-89251952D02*
X232781057Y-89204333D01*
X232781057Y-89204333D02*
X232876295Y-89156714D01*
X232876295Y-89156714D02*
X233019152Y-89156714D01*
X233019152Y-89156714D02*
X233114390Y-89204333D01*
X233114390Y-89204333D02*
X233162009Y-89251952D01*
X233162009Y-89251952D02*
X233209628Y-89347190D01*
X233209628Y-89347190D02*
X233209628Y-89728142D01*
X232685819Y-88823380D02*
X232685819Y-88204333D01*
X232685819Y-88204333D02*
X233066771Y-88537666D01*
X233066771Y-88537666D02*
X233066771Y-88394809D01*
X233066771Y-88394809D02*
X233114390Y-88299571D01*
X233114390Y-88299571D02*
X233162009Y-88251952D01*
X233162009Y-88251952D02*
X233257247Y-88204333D01*
X233257247Y-88204333D02*
X233495342Y-88204333D01*
X233495342Y-88204333D02*
X233590580Y-88251952D01*
X233590580Y-88251952D02*
X233638200Y-88299571D01*
X233638200Y-88299571D02*
X233685819Y-88394809D01*
X233685819Y-88394809D02*
X233685819Y-88680523D01*
X233685819Y-88680523D02*
X233638200Y-88775761D01*
X233638200Y-88775761D02*
X233590580Y-88823380D01*
X221802905Y-78943819D02*
X221802905Y-77943819D01*
X222374333Y-78943819D02*
X221945762Y-78372390D01*
X222374333Y-77943819D02*
X221802905Y-78515247D01*
X223231476Y-78277152D02*
X223231476Y-78943819D01*
X222993381Y-77896200D02*
X222755286Y-78610485D01*
X222755286Y-78610485D02*
X223374333Y-78610485D01*
X72850476Y-47714819D02*
X72850476Y-48429104D01*
X72850476Y-48429104D02*
X72802857Y-48571961D01*
X72802857Y-48571961D02*
X72707619Y-48667200D01*
X72707619Y-48667200D02*
X72564762Y-48714819D01*
X72564762Y-48714819D02*
X72469524Y-48714819D01*
X73231429Y-47714819D02*
X73850476Y-47714819D01*
X73850476Y-47714819D02*
X73517143Y-48095771D01*
X73517143Y-48095771D02*
X73660000Y-48095771D01*
X73660000Y-48095771D02*
X73755238Y-48143390D01*
X73755238Y-48143390D02*
X73802857Y-48191009D01*
X73802857Y-48191009D02*
X73850476Y-48286247D01*
X73850476Y-48286247D02*
X73850476Y-48524342D01*
X73850476Y-48524342D02*
X73802857Y-48619580D01*
X73802857Y-48619580D02*
X73755238Y-48667200D01*
X73755238Y-48667200D02*
X73660000Y-48714819D01*
X73660000Y-48714819D02*
X73374286Y-48714819D01*
X73374286Y-48714819D02*
X73279048Y-48667200D01*
X73279048Y-48667200D02*
X73231429Y-48619580D01*
X74707619Y-48048152D02*
X74707619Y-48714819D01*
X74469524Y-47667200D02*
X74231429Y-48381485D01*
X74231429Y-48381485D02*
X74850476Y-48381485D01*
X260657819Y-111750523D02*
X261372104Y-111750523D01*
X261372104Y-111750523D02*
X261514961Y-111798142D01*
X261514961Y-111798142D02*
X261610200Y-111893380D01*
X261610200Y-111893380D02*
X261657819Y-112036237D01*
X261657819Y-112036237D02*
X261657819Y-112131475D01*
X261657819Y-110750523D02*
X261657819Y-111321951D01*
X261657819Y-111036237D02*
X260657819Y-111036237D01*
X260657819Y-111036237D02*
X260800676Y-111131475D01*
X260800676Y-111131475D02*
X260895914Y-111226713D01*
X260895914Y-111226713D02*
X260943533Y-111321951D01*
X261657819Y-110274332D02*
X261657819Y-110083856D01*
X261657819Y-110083856D02*
X261610200Y-109988618D01*
X261610200Y-109988618D02*
X261562580Y-109940999D01*
X261562580Y-109940999D02*
X261419723Y-109845761D01*
X261419723Y-109845761D02*
X261229247Y-109798142D01*
X261229247Y-109798142D02*
X260848295Y-109798142D01*
X260848295Y-109798142D02*
X260753057Y-109845761D01*
X260753057Y-109845761D02*
X260705438Y-109893380D01*
X260705438Y-109893380D02*
X260657819Y-109988618D01*
X260657819Y-109988618D02*
X260657819Y-110179094D01*
X260657819Y-110179094D02*
X260705438Y-110274332D01*
X260705438Y-110274332D02*
X260753057Y-110321951D01*
X260753057Y-110321951D02*
X260848295Y-110369570D01*
X260848295Y-110369570D02*
X261086390Y-110369570D01*
X261086390Y-110369570D02*
X261181628Y-110321951D01*
X261181628Y-110321951D02*
X261229247Y-110274332D01*
X261229247Y-110274332D02*
X261276866Y-110179094D01*
X261276866Y-110179094D02*
X261276866Y-109988618D01*
X261276866Y-109988618D02*
X261229247Y-109893380D01*
X261229247Y-109893380D02*
X261181628Y-109845761D01*
X261181628Y-109845761D02*
X261086390Y-109798142D01*
X278913819Y-89950333D02*
X279628104Y-89950333D01*
X279628104Y-89950333D02*
X279770961Y-89997952D01*
X279770961Y-89997952D02*
X279866200Y-90093190D01*
X279866200Y-90093190D02*
X279913819Y-90236047D01*
X279913819Y-90236047D02*
X279913819Y-90331285D01*
X279913819Y-89474142D02*
X278913819Y-89474142D01*
X278913819Y-89474142D02*
X278913819Y-89093190D01*
X278913819Y-89093190D02*
X278961438Y-88997952D01*
X278961438Y-88997952D02*
X279009057Y-88950333D01*
X279009057Y-88950333D02*
X279104295Y-88902714D01*
X279104295Y-88902714D02*
X279247152Y-88902714D01*
X279247152Y-88902714D02*
X279342390Y-88950333D01*
X279342390Y-88950333D02*
X279390009Y-88997952D01*
X279390009Y-88997952D02*
X279437628Y-89093190D01*
X279437628Y-89093190D02*
X279437628Y-89474142D01*
X279913819Y-87950333D02*
X279913819Y-88521761D01*
X279913819Y-88236047D02*
X278913819Y-88236047D01*
X278913819Y-88236047D02*
X279056676Y-88331285D01*
X279056676Y-88331285D02*
X279151914Y-88426523D01*
X279151914Y-88426523D02*
X279199533Y-88521761D01*
X81616476Y-127676819D02*
X81616476Y-128391104D01*
X81616476Y-128391104D02*
X81568857Y-128533961D01*
X81568857Y-128533961D02*
X81473619Y-128629200D01*
X81473619Y-128629200D02*
X81330762Y-128676819D01*
X81330762Y-128676819D02*
X81235524Y-128676819D01*
X82616476Y-128676819D02*
X82045048Y-128676819D01*
X82330762Y-128676819D02*
X82330762Y-127676819D01*
X82330762Y-127676819D02*
X82235524Y-127819676D01*
X82235524Y-127819676D02*
X82140286Y-127914914D01*
X82140286Y-127914914D02*
X82045048Y-127962533D01*
X83235524Y-127676819D02*
X83330762Y-127676819D01*
X83330762Y-127676819D02*
X83426000Y-127724438D01*
X83426000Y-127724438D02*
X83473619Y-127772057D01*
X83473619Y-127772057D02*
X83521238Y-127867295D01*
X83521238Y-127867295D02*
X83568857Y-128057771D01*
X83568857Y-128057771D02*
X83568857Y-128295866D01*
X83568857Y-128295866D02*
X83521238Y-128486342D01*
X83521238Y-128486342D02*
X83473619Y-128581580D01*
X83473619Y-128581580D02*
X83426000Y-128629200D01*
X83426000Y-128629200D02*
X83330762Y-128676819D01*
X83330762Y-128676819D02*
X83235524Y-128676819D01*
X83235524Y-128676819D02*
X83140286Y-128629200D01*
X83140286Y-128629200D02*
X83092667Y-128581580D01*
X83092667Y-128581580D02*
X83045048Y-128486342D01*
X83045048Y-128486342D02*
X82997429Y-128295866D01*
X82997429Y-128295866D02*
X82997429Y-128057771D01*
X82997429Y-128057771D02*
X83045048Y-127867295D01*
X83045048Y-127867295D02*
X83092667Y-127772057D01*
X83092667Y-127772057D02*
X83140286Y-127724438D01*
X83140286Y-127724438D02*
X83235524Y-127676819D01*
X55042666Y-127676819D02*
X55042666Y-128391104D01*
X55042666Y-128391104D02*
X54995047Y-128533961D01*
X54995047Y-128533961D02*
X54899809Y-128629200D01*
X54899809Y-128629200D02*
X54756952Y-128676819D01*
X54756952Y-128676819D02*
X54661714Y-128676819D01*
X55661714Y-128105390D02*
X55566476Y-128057771D01*
X55566476Y-128057771D02*
X55518857Y-128010152D01*
X55518857Y-128010152D02*
X55471238Y-127914914D01*
X55471238Y-127914914D02*
X55471238Y-127867295D01*
X55471238Y-127867295D02*
X55518857Y-127772057D01*
X55518857Y-127772057D02*
X55566476Y-127724438D01*
X55566476Y-127724438D02*
X55661714Y-127676819D01*
X55661714Y-127676819D02*
X55852190Y-127676819D01*
X55852190Y-127676819D02*
X55947428Y-127724438D01*
X55947428Y-127724438D02*
X55995047Y-127772057D01*
X55995047Y-127772057D02*
X56042666Y-127867295D01*
X56042666Y-127867295D02*
X56042666Y-127914914D01*
X56042666Y-127914914D02*
X55995047Y-128010152D01*
X55995047Y-128010152D02*
X55947428Y-128057771D01*
X55947428Y-128057771D02*
X55852190Y-128105390D01*
X55852190Y-128105390D02*
X55661714Y-128105390D01*
X55661714Y-128105390D02*
X55566476Y-128153009D01*
X55566476Y-128153009D02*
X55518857Y-128200628D01*
X55518857Y-128200628D02*
X55471238Y-128295866D01*
X55471238Y-128295866D02*
X55471238Y-128486342D01*
X55471238Y-128486342D02*
X55518857Y-128581580D01*
X55518857Y-128581580D02*
X55566476Y-128629200D01*
X55566476Y-128629200D02*
X55661714Y-128676819D01*
X55661714Y-128676819D02*
X55852190Y-128676819D01*
X55852190Y-128676819D02*
X55947428Y-128629200D01*
X55947428Y-128629200D02*
X55995047Y-128581580D01*
X55995047Y-128581580D02*
X56042666Y-128486342D01*
X56042666Y-128486342D02*
X56042666Y-128295866D01*
X56042666Y-128295866D02*
X55995047Y-128200628D01*
X55995047Y-128200628D02*
X55947428Y-128153009D01*
X55947428Y-128153009D02*
X55852190Y-128105390D01*
X209571819Y-82330333D02*
X210286104Y-82330333D01*
X210286104Y-82330333D02*
X210428961Y-82377952D01*
X210428961Y-82377952D02*
X210524200Y-82473190D01*
X210524200Y-82473190D02*
X210571819Y-82616047D01*
X210571819Y-82616047D02*
X210571819Y-82711285D01*
X210571819Y-81854142D02*
X209571819Y-81854142D01*
X209571819Y-81854142D02*
X209571819Y-81473190D01*
X209571819Y-81473190D02*
X209619438Y-81377952D01*
X209619438Y-81377952D02*
X209667057Y-81330333D01*
X209667057Y-81330333D02*
X209762295Y-81282714D01*
X209762295Y-81282714D02*
X209905152Y-81282714D01*
X209905152Y-81282714D02*
X210000390Y-81330333D01*
X210000390Y-81330333D02*
X210048009Y-81377952D01*
X210048009Y-81377952D02*
X210095628Y-81473190D01*
X210095628Y-81473190D02*
X210095628Y-81854142D01*
X210000390Y-80711285D02*
X209952771Y-80806523D01*
X209952771Y-80806523D02*
X209905152Y-80854142D01*
X209905152Y-80854142D02*
X209809914Y-80901761D01*
X209809914Y-80901761D02*
X209762295Y-80901761D01*
X209762295Y-80901761D02*
X209667057Y-80854142D01*
X209667057Y-80854142D02*
X209619438Y-80806523D01*
X209619438Y-80806523D02*
X209571819Y-80711285D01*
X209571819Y-80711285D02*
X209571819Y-80520809D01*
X209571819Y-80520809D02*
X209619438Y-80425571D01*
X209619438Y-80425571D02*
X209667057Y-80377952D01*
X209667057Y-80377952D02*
X209762295Y-80330333D01*
X209762295Y-80330333D02*
X209809914Y-80330333D01*
X209809914Y-80330333D02*
X209905152Y-80377952D01*
X209905152Y-80377952D02*
X209952771Y-80425571D01*
X209952771Y-80425571D02*
X210000390Y-80520809D01*
X210000390Y-80520809D02*
X210000390Y-80711285D01*
X210000390Y-80711285D02*
X210048009Y-80806523D01*
X210048009Y-80806523D02*
X210095628Y-80854142D01*
X210095628Y-80854142D02*
X210190866Y-80901761D01*
X210190866Y-80901761D02*
X210381342Y-80901761D01*
X210381342Y-80901761D02*
X210476580Y-80854142D01*
X210476580Y-80854142D02*
X210524200Y-80806523D01*
X210524200Y-80806523D02*
X210571819Y-80711285D01*
X210571819Y-80711285D02*
X210571819Y-80520809D01*
X210571819Y-80520809D02*
X210524200Y-80425571D01*
X210524200Y-80425571D02*
X210476580Y-80377952D01*
X210476580Y-80377952D02*
X210381342Y-80330333D01*
X210381342Y-80330333D02*
X210190866Y-80330333D01*
X210190866Y-80330333D02*
X210095628Y-80377952D01*
X210095628Y-80377952D02*
X210048009Y-80425571D01*
X210048009Y-80425571D02*
X210000390Y-80520809D01*
X215354819Y-82806523D02*
X216069104Y-82806523D01*
X216069104Y-82806523D02*
X216211961Y-82854142D01*
X216211961Y-82854142D02*
X216307200Y-82949380D01*
X216307200Y-82949380D02*
X216354819Y-83092237D01*
X216354819Y-83092237D02*
X216354819Y-83187475D01*
X216354819Y-82330332D02*
X215354819Y-82330332D01*
X215354819Y-82330332D02*
X215354819Y-81949380D01*
X215354819Y-81949380D02*
X215402438Y-81854142D01*
X215402438Y-81854142D02*
X215450057Y-81806523D01*
X215450057Y-81806523D02*
X215545295Y-81758904D01*
X215545295Y-81758904D02*
X215688152Y-81758904D01*
X215688152Y-81758904D02*
X215783390Y-81806523D01*
X215783390Y-81806523D02*
X215831009Y-81854142D01*
X215831009Y-81854142D02*
X215878628Y-81949380D01*
X215878628Y-81949380D02*
X215878628Y-82330332D01*
X216354819Y-80806523D02*
X216354819Y-81377951D01*
X216354819Y-81092237D02*
X215354819Y-81092237D01*
X215354819Y-81092237D02*
X215497676Y-81187475D01*
X215497676Y-81187475D02*
X215592914Y-81282713D01*
X215592914Y-81282713D02*
X215640533Y-81377951D01*
X215354819Y-79901761D02*
X215354819Y-80377951D01*
X215354819Y-80377951D02*
X215831009Y-80425570D01*
X215831009Y-80425570D02*
X215783390Y-80377951D01*
X215783390Y-80377951D02*
X215735771Y-80282713D01*
X215735771Y-80282713D02*
X215735771Y-80044618D01*
X215735771Y-80044618D02*
X215783390Y-79949380D01*
X215783390Y-79949380D02*
X215831009Y-79901761D01*
X215831009Y-79901761D02*
X215926247Y-79854142D01*
X215926247Y-79854142D02*
X216164342Y-79854142D01*
X216164342Y-79854142D02*
X216259580Y-79901761D01*
X216259580Y-79901761D02*
X216307200Y-79949380D01*
X216307200Y-79949380D02*
X216354819Y-80044618D01*
X216354819Y-80044618D02*
X216354819Y-80282713D01*
X216354819Y-80282713D02*
X216307200Y-80377951D01*
X216307200Y-80377951D02*
X216259580Y-80425570D01*
X211825476Y-117851819D02*
X211825476Y-118566104D01*
X211825476Y-118566104D02*
X211777857Y-118708961D01*
X211777857Y-118708961D02*
X211682619Y-118804200D01*
X211682619Y-118804200D02*
X211539762Y-118851819D01*
X211539762Y-118851819D02*
X211444524Y-118851819D01*
X212206429Y-117851819D02*
X212825476Y-117851819D01*
X212825476Y-117851819D02*
X212492143Y-118232771D01*
X212492143Y-118232771D02*
X212635000Y-118232771D01*
X212635000Y-118232771D02*
X212730238Y-118280390D01*
X212730238Y-118280390D02*
X212777857Y-118328009D01*
X212777857Y-118328009D02*
X212825476Y-118423247D01*
X212825476Y-118423247D02*
X212825476Y-118661342D01*
X212825476Y-118661342D02*
X212777857Y-118756580D01*
X212777857Y-118756580D02*
X212730238Y-118804200D01*
X212730238Y-118804200D02*
X212635000Y-118851819D01*
X212635000Y-118851819D02*
X212349286Y-118851819D01*
X212349286Y-118851819D02*
X212254048Y-118804200D01*
X212254048Y-118804200D02*
X212206429Y-118756580D01*
X213730238Y-117851819D02*
X213254048Y-117851819D01*
X213254048Y-117851819D02*
X213206429Y-118328009D01*
X213206429Y-118328009D02*
X213254048Y-118280390D01*
X213254048Y-118280390D02*
X213349286Y-118232771D01*
X213349286Y-118232771D02*
X213587381Y-118232771D01*
X213587381Y-118232771D02*
X213682619Y-118280390D01*
X213682619Y-118280390D02*
X213730238Y-118328009D01*
X213730238Y-118328009D02*
X213777857Y-118423247D01*
X213777857Y-118423247D02*
X213777857Y-118661342D01*
X213777857Y-118661342D02*
X213730238Y-118756580D01*
X213730238Y-118756580D02*
X213682619Y-118804200D01*
X213682619Y-118804200D02*
X213587381Y-118851819D01*
X213587381Y-118851819D02*
X213349286Y-118851819D01*
X213349286Y-118851819D02*
X213254048Y-118804200D01*
X213254048Y-118804200D02*
X213206429Y-118756580D01*
X272280718Y-120356319D02*
X271947385Y-119880128D01*
X271709290Y-120356319D02*
X271709290Y-119356319D01*
X271709290Y-119356319D02*
X272090242Y-119356319D01*
X272090242Y-119356319D02*
X272185480Y-119403938D01*
X272185480Y-119403938D02*
X272233099Y-119451557D01*
X272233099Y-119451557D02*
X272280718Y-119546795D01*
X272280718Y-119546795D02*
X272280718Y-119689652D01*
X272280718Y-119689652D02*
X272233099Y-119784890D01*
X272233099Y-119784890D02*
X272185480Y-119832509D01*
X272185480Y-119832509D02*
X272090242Y-119880128D01*
X272090242Y-119880128D02*
X271709290Y-119880128D01*
X272709290Y-119832509D02*
X273042623Y-119832509D01*
X273185480Y-120356319D02*
X272709290Y-120356319D01*
X272709290Y-120356319D02*
X272709290Y-119356319D01*
X272709290Y-119356319D02*
X273185480Y-119356319D01*
X273947385Y-119832509D02*
X273614052Y-119832509D01*
X273614052Y-120356319D02*
X273614052Y-119356319D01*
X273614052Y-119356319D02*
X274090242Y-119356319D01*
X274614052Y-119356319D02*
X274614052Y-119594414D01*
X274375957Y-119499176D02*
X274614052Y-119594414D01*
X274614052Y-119594414D02*
X274852147Y-119499176D01*
X274471195Y-119784890D02*
X274614052Y-119594414D01*
X274614052Y-119594414D02*
X274756909Y-119784890D01*
X275375957Y-119356319D02*
X275375957Y-119594414D01*
X275137862Y-119499176D02*
X275375957Y-119594414D01*
X275375957Y-119594414D02*
X275614052Y-119499176D01*
X275233100Y-119784890D02*
X275375957Y-119594414D01*
X275375957Y-119594414D02*
X275518814Y-119784890D01*
X268030905Y-74839819D02*
X268030905Y-73839819D01*
X268030905Y-73839819D02*
X268269000Y-73839819D01*
X268269000Y-73839819D02*
X268411857Y-73887438D01*
X268411857Y-73887438D02*
X268507095Y-73982676D01*
X268507095Y-73982676D02*
X268554714Y-74077914D01*
X268554714Y-74077914D02*
X268602333Y-74268390D01*
X268602333Y-74268390D02*
X268602333Y-74411247D01*
X268602333Y-74411247D02*
X268554714Y-74601723D01*
X268554714Y-74601723D02*
X268507095Y-74696961D01*
X268507095Y-74696961D02*
X268411857Y-74792200D01*
X268411857Y-74792200D02*
X268269000Y-74839819D01*
X268269000Y-74839819D02*
X268030905Y-74839819D01*
X269507095Y-73839819D02*
X269030905Y-73839819D01*
X269030905Y-73839819D02*
X268983286Y-74316009D01*
X268983286Y-74316009D02*
X269030905Y-74268390D01*
X269030905Y-74268390D02*
X269126143Y-74220771D01*
X269126143Y-74220771D02*
X269364238Y-74220771D01*
X269364238Y-74220771D02*
X269459476Y-74268390D01*
X269459476Y-74268390D02*
X269507095Y-74316009D01*
X269507095Y-74316009D02*
X269554714Y-74411247D01*
X269554714Y-74411247D02*
X269554714Y-74649342D01*
X269554714Y-74649342D02*
X269507095Y-74744580D01*
X269507095Y-74744580D02*
X269459476Y-74792200D01*
X269459476Y-74792200D02*
X269364238Y-74839819D01*
X269364238Y-74839819D02*
X269126143Y-74839819D01*
X269126143Y-74839819D02*
X269030905Y-74792200D01*
X269030905Y-74792200D02*
X268983286Y-74744580D01*
X272317095Y-78671819D02*
X272317095Y-77671819D01*
X272888523Y-78671819D02*
X272459952Y-78100390D01*
X272888523Y-77671819D02*
X272317095Y-78243247D01*
X188965476Y-117851819D02*
X188965476Y-118566104D01*
X188965476Y-118566104D02*
X188917857Y-118708961D01*
X188917857Y-118708961D02*
X188822619Y-118804200D01*
X188822619Y-118804200D02*
X188679762Y-118851819D01*
X188679762Y-118851819D02*
X188584524Y-118851819D01*
X189346429Y-117851819D02*
X189965476Y-117851819D01*
X189965476Y-117851819D02*
X189632143Y-118232771D01*
X189632143Y-118232771D02*
X189775000Y-118232771D01*
X189775000Y-118232771D02*
X189870238Y-118280390D01*
X189870238Y-118280390D02*
X189917857Y-118328009D01*
X189917857Y-118328009D02*
X189965476Y-118423247D01*
X189965476Y-118423247D02*
X189965476Y-118661342D01*
X189965476Y-118661342D02*
X189917857Y-118756580D01*
X189917857Y-118756580D02*
X189870238Y-118804200D01*
X189870238Y-118804200D02*
X189775000Y-118851819D01*
X189775000Y-118851819D02*
X189489286Y-118851819D01*
X189489286Y-118851819D02*
X189394048Y-118804200D01*
X189394048Y-118804200D02*
X189346429Y-118756580D01*
X190346429Y-117947057D02*
X190394048Y-117899438D01*
X190394048Y-117899438D02*
X190489286Y-117851819D01*
X190489286Y-117851819D02*
X190727381Y-117851819D01*
X190727381Y-117851819D02*
X190822619Y-117899438D01*
X190822619Y-117899438D02*
X190870238Y-117947057D01*
X190870238Y-117947057D02*
X190917857Y-118042295D01*
X190917857Y-118042295D02*
X190917857Y-118137533D01*
X190917857Y-118137533D02*
X190870238Y-118280390D01*
X190870238Y-118280390D02*
X190298810Y-118851819D01*
X190298810Y-118851819D02*
X190917857Y-118851819D01*
X221802905Y-74839819D02*
X221802905Y-73839819D01*
X221802905Y-73839819D02*
X222041000Y-73839819D01*
X222041000Y-73839819D02*
X222183857Y-73887438D01*
X222183857Y-73887438D02*
X222279095Y-73982676D01*
X222279095Y-73982676D02*
X222326714Y-74077914D01*
X222326714Y-74077914D02*
X222374333Y-74268390D01*
X222374333Y-74268390D02*
X222374333Y-74411247D01*
X222374333Y-74411247D02*
X222326714Y-74601723D01*
X222326714Y-74601723D02*
X222279095Y-74696961D01*
X222279095Y-74696961D02*
X222183857Y-74792200D01*
X222183857Y-74792200D02*
X222041000Y-74839819D01*
X222041000Y-74839819D02*
X221802905Y-74839819D01*
X222707667Y-73839819D02*
X223374333Y-73839819D01*
X223374333Y-73839819D02*
X222945762Y-74839819D01*
X226089095Y-78671819D02*
X226089095Y-77671819D01*
X226660523Y-78671819D02*
X226231952Y-78100390D01*
X226660523Y-77671819D02*
X226089095Y-78243247D01*
X139462319Y-79647594D02*
X138462319Y-79647594D01*
X138462319Y-79647594D02*
X138462319Y-79409499D01*
X138462319Y-79409499D02*
X138509938Y-79266642D01*
X138509938Y-79266642D02*
X138605176Y-79171404D01*
X138605176Y-79171404D02*
X138700414Y-79123785D01*
X138700414Y-79123785D02*
X138890890Y-79076166D01*
X138890890Y-79076166D02*
X139033747Y-79076166D01*
X139033747Y-79076166D02*
X139224223Y-79123785D01*
X139224223Y-79123785D02*
X139319461Y-79171404D01*
X139319461Y-79171404D02*
X139414700Y-79266642D01*
X139414700Y-79266642D02*
X139462319Y-79409499D01*
X139462319Y-79409499D02*
X139462319Y-79647594D01*
X139462319Y-78599975D02*
X139462319Y-78409499D01*
X139462319Y-78409499D02*
X139414700Y-78314261D01*
X139414700Y-78314261D02*
X139367080Y-78266642D01*
X139367080Y-78266642D02*
X139224223Y-78171404D01*
X139224223Y-78171404D02*
X139033747Y-78123785D01*
X139033747Y-78123785D02*
X138652795Y-78123785D01*
X138652795Y-78123785D02*
X138557557Y-78171404D01*
X138557557Y-78171404D02*
X138509938Y-78219023D01*
X138509938Y-78219023D02*
X138462319Y-78314261D01*
X138462319Y-78314261D02*
X138462319Y-78504737D01*
X138462319Y-78504737D02*
X138509938Y-78599975D01*
X138509938Y-78599975D02*
X138557557Y-78647594D01*
X138557557Y-78647594D02*
X138652795Y-78695213D01*
X138652795Y-78695213D02*
X138890890Y-78695213D01*
X138890890Y-78695213D02*
X138986128Y-78647594D01*
X138986128Y-78647594D02*
X139033747Y-78599975D01*
X139033747Y-78599975D02*
X139081366Y-78504737D01*
X139081366Y-78504737D02*
X139081366Y-78314261D01*
X139081366Y-78314261D02*
X139033747Y-78219023D01*
X139033747Y-78219023D02*
X138986128Y-78171404D01*
X138986128Y-78171404D02*
X138890890Y-78123785D01*
X143548319Y-75107404D02*
X142548319Y-75107404D01*
X143548319Y-74535976D02*
X142976890Y-74964547D01*
X142548319Y-74535976D02*
X143119747Y-75107404D01*
X268030905Y-78943819D02*
X268030905Y-77943819D01*
X268602333Y-78943819D02*
X268173762Y-78372390D01*
X268602333Y-77943819D02*
X268030905Y-78515247D01*
X269554714Y-78943819D02*
X268983286Y-78943819D01*
X269269000Y-78943819D02*
X269269000Y-77943819D01*
X269269000Y-77943819D02*
X269173762Y-78086676D01*
X269173762Y-78086676D02*
X269078524Y-78181914D01*
X269078524Y-78181914D02*
X268983286Y-78229533D01*
X109770476Y-15902819D02*
X109770476Y-16617104D01*
X109770476Y-16617104D02*
X109722857Y-16759961D01*
X109722857Y-16759961D02*
X109627619Y-16855200D01*
X109627619Y-16855200D02*
X109484762Y-16902819D01*
X109484762Y-16902819D02*
X109389524Y-16902819D01*
X110770476Y-16902819D02*
X110199048Y-16902819D01*
X110484762Y-16902819D02*
X110484762Y-15902819D01*
X110484762Y-15902819D02*
X110389524Y-16045676D01*
X110389524Y-16045676D02*
X110294286Y-16140914D01*
X110294286Y-16140914D02*
X110199048Y-16188533D01*
X111627619Y-15902819D02*
X111437143Y-15902819D01*
X111437143Y-15902819D02*
X111341905Y-15950438D01*
X111341905Y-15950438D02*
X111294286Y-15998057D01*
X111294286Y-15998057D02*
X111199048Y-16140914D01*
X111199048Y-16140914D02*
X111151429Y-16331390D01*
X111151429Y-16331390D02*
X111151429Y-16712342D01*
X111151429Y-16712342D02*
X111199048Y-16807580D01*
X111199048Y-16807580D02*
X111246667Y-16855200D01*
X111246667Y-16855200D02*
X111341905Y-16902819D01*
X111341905Y-16902819D02*
X111532381Y-16902819D01*
X111532381Y-16902819D02*
X111627619Y-16855200D01*
X111627619Y-16855200D02*
X111675238Y-16807580D01*
X111675238Y-16807580D02*
X111722857Y-16712342D01*
X111722857Y-16712342D02*
X111722857Y-16474247D01*
X111722857Y-16474247D02*
X111675238Y-16379009D01*
X111675238Y-16379009D02*
X111627619Y-16331390D01*
X111627619Y-16331390D02*
X111532381Y-16283771D01*
X111532381Y-16283771D02*
X111341905Y-16283771D01*
X111341905Y-16283771D02*
X111246667Y-16331390D01*
X111246667Y-16331390D02*
X111199048Y-16379009D01*
X111199048Y-16379009D02*
X111151429Y-16474247D01*
X209571819Y-89950333D02*
X210286104Y-89950333D01*
X210286104Y-89950333D02*
X210428961Y-89997952D01*
X210428961Y-89997952D02*
X210524200Y-90093190D01*
X210524200Y-90093190D02*
X210571819Y-90236047D01*
X210571819Y-90236047D02*
X210571819Y-90331285D01*
X210571819Y-89474142D02*
X209571819Y-89474142D01*
X209571819Y-89474142D02*
X209571819Y-89093190D01*
X209571819Y-89093190D02*
X209619438Y-88997952D01*
X209619438Y-88997952D02*
X209667057Y-88950333D01*
X209667057Y-88950333D02*
X209762295Y-88902714D01*
X209762295Y-88902714D02*
X209905152Y-88902714D01*
X209905152Y-88902714D02*
X210000390Y-88950333D01*
X210000390Y-88950333D02*
X210048009Y-88997952D01*
X210048009Y-88997952D02*
X210095628Y-89093190D01*
X210095628Y-89093190D02*
X210095628Y-89474142D01*
X209905152Y-88045571D02*
X210571819Y-88045571D01*
X209524200Y-88283666D02*
X210238485Y-88521761D01*
X210238485Y-88521761D02*
X210238485Y-87902714D01*
X238214819Y-83060523D02*
X238929104Y-83060523D01*
X238929104Y-83060523D02*
X239071961Y-83108142D01*
X239071961Y-83108142D02*
X239167200Y-83203380D01*
X239167200Y-83203380D02*
X239214819Y-83346237D01*
X239214819Y-83346237D02*
X239214819Y-83441475D01*
X239214819Y-82584332D02*
X238214819Y-82584332D01*
X238214819Y-82584332D02*
X238214819Y-82203380D01*
X238214819Y-82203380D02*
X238262438Y-82108142D01*
X238262438Y-82108142D02*
X238310057Y-82060523D01*
X238310057Y-82060523D02*
X238405295Y-82012904D01*
X238405295Y-82012904D02*
X238548152Y-82012904D01*
X238548152Y-82012904D02*
X238643390Y-82060523D01*
X238643390Y-82060523D02*
X238691009Y-82108142D01*
X238691009Y-82108142D02*
X238738628Y-82203380D01*
X238738628Y-82203380D02*
X238738628Y-82584332D01*
X239214819Y-81060523D02*
X239214819Y-81631951D01*
X239214819Y-81346237D02*
X238214819Y-81346237D01*
X238214819Y-81346237D02*
X238357676Y-81441475D01*
X238357676Y-81441475D02*
X238452914Y-81536713D01*
X238452914Y-81536713D02*
X238500533Y-81631951D01*
X238548152Y-80203380D02*
X239214819Y-80203380D01*
X238167200Y-80441475D02*
X238881485Y-80679570D01*
X238881485Y-80679570D02*
X238881485Y-80060523D01*
X139208319Y-93839785D02*
X138208319Y-93839785D01*
X138208319Y-93839785D02*
X138208319Y-93601690D01*
X138208319Y-93601690D02*
X138255938Y-93458833D01*
X138255938Y-93458833D02*
X138351176Y-93363595D01*
X138351176Y-93363595D02*
X138446414Y-93315976D01*
X138446414Y-93315976D02*
X138636890Y-93268357D01*
X138636890Y-93268357D02*
X138779747Y-93268357D01*
X138779747Y-93268357D02*
X138970223Y-93315976D01*
X138970223Y-93315976D02*
X139065461Y-93363595D01*
X139065461Y-93363595D02*
X139160700Y-93458833D01*
X139160700Y-93458833D02*
X139208319Y-93601690D01*
X139208319Y-93601690D02*
X139208319Y-93839785D01*
X139208319Y-92315976D02*
X139208319Y-92887404D01*
X139208319Y-92601690D02*
X138208319Y-92601690D01*
X138208319Y-92601690D02*
X138351176Y-92696928D01*
X138351176Y-92696928D02*
X138446414Y-92792166D01*
X138446414Y-92792166D02*
X138494033Y-92887404D01*
X138208319Y-91696928D02*
X138208319Y-91601690D01*
X138208319Y-91601690D02*
X138255938Y-91506452D01*
X138255938Y-91506452D02*
X138303557Y-91458833D01*
X138303557Y-91458833D02*
X138398795Y-91411214D01*
X138398795Y-91411214D02*
X138589271Y-91363595D01*
X138589271Y-91363595D02*
X138827366Y-91363595D01*
X138827366Y-91363595D02*
X139017842Y-91411214D01*
X139017842Y-91411214D02*
X139113080Y-91458833D01*
X139113080Y-91458833D02*
X139160700Y-91506452D01*
X139160700Y-91506452D02*
X139208319Y-91601690D01*
X139208319Y-91601690D02*
X139208319Y-91696928D01*
X139208319Y-91696928D02*
X139160700Y-91792166D01*
X139160700Y-91792166D02*
X139113080Y-91839785D01*
X139113080Y-91839785D02*
X139017842Y-91887404D01*
X139017842Y-91887404D02*
X138827366Y-91935023D01*
X138827366Y-91935023D02*
X138589271Y-91935023D01*
X138589271Y-91935023D02*
X138398795Y-91887404D01*
X138398795Y-91887404D02*
X138303557Y-91839785D01*
X138303557Y-91839785D02*
X138255938Y-91792166D01*
X138255938Y-91792166D02*
X138208319Y-91696928D01*
X143548319Y-88823404D02*
X142548319Y-88823404D01*
X143548319Y-88251976D02*
X142976890Y-88680547D01*
X142548319Y-88251976D02*
X143119747Y-88823404D01*
X108666476Y-127676819D02*
X108666476Y-128391104D01*
X108666476Y-128391104D02*
X108618857Y-128533961D01*
X108618857Y-128533961D02*
X108523619Y-128629200D01*
X108523619Y-128629200D02*
X108380762Y-128676819D01*
X108380762Y-128676819D02*
X108285524Y-128676819D01*
X109666476Y-128676819D02*
X109095048Y-128676819D01*
X109380762Y-128676819D02*
X109380762Y-127676819D01*
X109380762Y-127676819D02*
X109285524Y-127819676D01*
X109285524Y-127819676D02*
X109190286Y-127914914D01*
X109190286Y-127914914D02*
X109095048Y-127962533D01*
X110047429Y-127772057D02*
X110095048Y-127724438D01*
X110095048Y-127724438D02*
X110190286Y-127676819D01*
X110190286Y-127676819D02*
X110428381Y-127676819D01*
X110428381Y-127676819D02*
X110523619Y-127724438D01*
X110523619Y-127724438D02*
X110571238Y-127772057D01*
X110571238Y-127772057D02*
X110618857Y-127867295D01*
X110618857Y-127867295D02*
X110618857Y-127962533D01*
X110618857Y-127962533D02*
X110571238Y-128105390D01*
X110571238Y-128105390D02*
X109999810Y-128676819D01*
X109999810Y-128676819D02*
X110618857Y-128676819D01*
X97354819Y-188126666D02*
X96878628Y-188459999D01*
X97354819Y-188698094D02*
X96354819Y-188698094D01*
X96354819Y-188698094D02*
X96354819Y-188317142D01*
X96354819Y-188317142D02*
X96402438Y-188221904D01*
X96402438Y-188221904D02*
X96450057Y-188174285D01*
X96450057Y-188174285D02*
X96545295Y-188126666D01*
X96545295Y-188126666D02*
X96688152Y-188126666D01*
X96688152Y-188126666D02*
X96783390Y-188174285D01*
X96783390Y-188174285D02*
X96831009Y-188221904D01*
X96831009Y-188221904D02*
X96878628Y-188317142D01*
X96878628Y-188317142D02*
X96878628Y-188698094D01*
X97354819Y-187174285D02*
X97354819Y-187745713D01*
X97354819Y-187459999D02*
X96354819Y-187459999D01*
X96354819Y-187459999D02*
X96497676Y-187555237D01*
X96497676Y-187555237D02*
X96592914Y-187650475D01*
X96592914Y-187650475D02*
X96640533Y-187745713D01*
X238019819Y-90568523D02*
X238734104Y-90568523D01*
X238734104Y-90568523D02*
X238876961Y-90616142D01*
X238876961Y-90616142D02*
X238972200Y-90711380D01*
X238972200Y-90711380D02*
X239019819Y-90854237D01*
X239019819Y-90854237D02*
X239019819Y-90949475D01*
X239019819Y-90092332D02*
X238019819Y-90092332D01*
X238019819Y-90092332D02*
X238019819Y-89711380D01*
X238019819Y-89711380D02*
X238067438Y-89616142D01*
X238067438Y-89616142D02*
X238115057Y-89568523D01*
X238115057Y-89568523D02*
X238210295Y-89520904D01*
X238210295Y-89520904D02*
X238353152Y-89520904D01*
X238353152Y-89520904D02*
X238448390Y-89568523D01*
X238448390Y-89568523D02*
X238496009Y-89616142D01*
X238496009Y-89616142D02*
X238543628Y-89711380D01*
X238543628Y-89711380D02*
X238543628Y-90092332D01*
X239019819Y-88568523D02*
X239019819Y-89139951D01*
X239019819Y-88854237D02*
X238019819Y-88854237D01*
X238019819Y-88854237D02*
X238162676Y-88949475D01*
X238162676Y-88949475D02*
X238257914Y-89044713D01*
X238257914Y-89044713D02*
X238305533Y-89139951D01*
X238019819Y-87949475D02*
X238019819Y-87854237D01*
X238019819Y-87854237D02*
X238067438Y-87758999D01*
X238067438Y-87758999D02*
X238115057Y-87711380D01*
X238115057Y-87711380D02*
X238210295Y-87663761D01*
X238210295Y-87663761D02*
X238400771Y-87616142D01*
X238400771Y-87616142D02*
X238638866Y-87616142D01*
X238638866Y-87616142D02*
X238829342Y-87663761D01*
X238829342Y-87663761D02*
X238924580Y-87711380D01*
X238924580Y-87711380D02*
X238972200Y-87758999D01*
X238972200Y-87758999D02*
X239019819Y-87854237D01*
X239019819Y-87854237D02*
X239019819Y-87949475D01*
X239019819Y-87949475D02*
X238972200Y-88044713D01*
X238972200Y-88044713D02*
X238924580Y-88092332D01*
X238924580Y-88092332D02*
X238829342Y-88139951D01*
X238829342Y-88139951D02*
X238638866Y-88187570D01*
X238638866Y-88187570D02*
X238400771Y-88187570D01*
X238400771Y-88187570D02*
X238210295Y-88139951D01*
X238210295Y-88139951D02*
X238115057Y-88092332D01*
X238115057Y-88092332D02*
X238067438Y-88044713D01*
X238067438Y-88044713D02*
X238019819Y-87949475D01*
X139716319Y-107555785D02*
X138716319Y-107555785D01*
X138716319Y-107555785D02*
X138716319Y-107317690D01*
X138716319Y-107317690D02*
X138763938Y-107174833D01*
X138763938Y-107174833D02*
X138859176Y-107079595D01*
X138859176Y-107079595D02*
X138954414Y-107031976D01*
X138954414Y-107031976D02*
X139144890Y-106984357D01*
X139144890Y-106984357D02*
X139287747Y-106984357D01*
X139287747Y-106984357D02*
X139478223Y-107031976D01*
X139478223Y-107031976D02*
X139573461Y-107079595D01*
X139573461Y-107079595D02*
X139668700Y-107174833D01*
X139668700Y-107174833D02*
X139716319Y-107317690D01*
X139716319Y-107317690D02*
X139716319Y-107555785D01*
X139716319Y-106031976D02*
X139716319Y-106603404D01*
X139716319Y-106317690D02*
X138716319Y-106317690D01*
X138716319Y-106317690D02*
X138859176Y-106412928D01*
X138859176Y-106412928D02*
X138954414Y-106508166D01*
X138954414Y-106508166D02*
X139002033Y-106603404D01*
X138811557Y-105651023D02*
X138763938Y-105603404D01*
X138763938Y-105603404D02*
X138716319Y-105508166D01*
X138716319Y-105508166D02*
X138716319Y-105270071D01*
X138716319Y-105270071D02*
X138763938Y-105174833D01*
X138763938Y-105174833D02*
X138811557Y-105127214D01*
X138811557Y-105127214D02*
X138906795Y-105079595D01*
X138906795Y-105079595D02*
X139002033Y-105079595D01*
X139002033Y-105079595D02*
X139144890Y-105127214D01*
X139144890Y-105127214D02*
X139716319Y-105698642D01*
X139716319Y-105698642D02*
X139716319Y-105079595D01*
X143548319Y-102793404D02*
X142548319Y-102793404D01*
X143548319Y-102221976D02*
X142976890Y-102650547D01*
X142548319Y-102221976D02*
X143119747Y-102793404D01*
X67836905Y-176834819D02*
X67836905Y-175834819D01*
X67836905Y-175834819D02*
X68075000Y-175834819D01*
X68075000Y-175834819D02*
X68217857Y-175882438D01*
X68217857Y-175882438D02*
X68313095Y-175977676D01*
X68313095Y-175977676D02*
X68360714Y-176072914D01*
X68360714Y-176072914D02*
X68408333Y-176263390D01*
X68408333Y-176263390D02*
X68408333Y-176406247D01*
X68408333Y-176406247D02*
X68360714Y-176596723D01*
X68360714Y-176596723D02*
X68313095Y-176691961D01*
X68313095Y-176691961D02*
X68217857Y-176787200D01*
X68217857Y-176787200D02*
X68075000Y-176834819D01*
X68075000Y-176834819D02*
X67836905Y-176834819D01*
X68741667Y-175834819D02*
X69360714Y-175834819D01*
X69360714Y-175834819D02*
X69027381Y-176215771D01*
X69027381Y-176215771D02*
X69170238Y-176215771D01*
X69170238Y-176215771D02*
X69265476Y-176263390D01*
X69265476Y-176263390D02*
X69313095Y-176311009D01*
X69313095Y-176311009D02*
X69360714Y-176406247D01*
X69360714Y-176406247D02*
X69360714Y-176644342D01*
X69360714Y-176644342D02*
X69313095Y-176739580D01*
X69313095Y-176739580D02*
X69265476Y-176787200D01*
X69265476Y-176787200D02*
X69170238Y-176834819D01*
X69170238Y-176834819D02*
X68884524Y-176834819D01*
X68884524Y-176834819D02*
X68789286Y-176787200D01*
X68789286Y-176787200D02*
X68741667Y-176739580D01*
X144295819Y-121049594D02*
X143295819Y-121049594D01*
X144295819Y-120478166D02*
X143724390Y-120906737D01*
X143295819Y-120478166D02*
X143867247Y-121049594D01*
X143295819Y-120144832D02*
X143295819Y-119478166D01*
X143295819Y-119478166D02*
X144295819Y-119906737D01*
X27720476Y-15902819D02*
X27720476Y-16617104D01*
X27720476Y-16617104D02*
X27672857Y-16759961D01*
X27672857Y-16759961D02*
X27577619Y-16855200D01*
X27577619Y-16855200D02*
X27434762Y-16902819D01*
X27434762Y-16902819D02*
X27339524Y-16902819D01*
X28720476Y-16902819D02*
X28149048Y-16902819D01*
X28434762Y-16902819D02*
X28434762Y-15902819D01*
X28434762Y-15902819D02*
X28339524Y-16045676D01*
X28339524Y-16045676D02*
X28244286Y-16140914D01*
X28244286Y-16140914D02*
X28149048Y-16188533D01*
X29053810Y-15902819D02*
X29672857Y-15902819D01*
X29672857Y-15902819D02*
X29339524Y-16283771D01*
X29339524Y-16283771D02*
X29482381Y-16283771D01*
X29482381Y-16283771D02*
X29577619Y-16331390D01*
X29577619Y-16331390D02*
X29625238Y-16379009D01*
X29625238Y-16379009D02*
X29672857Y-16474247D01*
X29672857Y-16474247D02*
X29672857Y-16712342D01*
X29672857Y-16712342D02*
X29625238Y-16807580D01*
X29625238Y-16807580D02*
X29577619Y-16855200D01*
X29577619Y-16855200D02*
X29482381Y-16902819D01*
X29482381Y-16902819D02*
X29196667Y-16902819D01*
X29196667Y-16902819D02*
X29101429Y-16855200D01*
X29101429Y-16855200D02*
X29053810Y-16807580D01*
X194045476Y-117851819D02*
X194045476Y-118566104D01*
X194045476Y-118566104D02*
X193997857Y-118708961D01*
X193997857Y-118708961D02*
X193902619Y-118804200D01*
X193902619Y-118804200D02*
X193759762Y-118851819D01*
X193759762Y-118851819D02*
X193664524Y-118851819D01*
X194426429Y-117851819D02*
X195045476Y-117851819D01*
X195045476Y-117851819D02*
X194712143Y-118232771D01*
X194712143Y-118232771D02*
X194855000Y-118232771D01*
X194855000Y-118232771D02*
X194950238Y-118280390D01*
X194950238Y-118280390D02*
X194997857Y-118328009D01*
X194997857Y-118328009D02*
X195045476Y-118423247D01*
X195045476Y-118423247D02*
X195045476Y-118661342D01*
X195045476Y-118661342D02*
X194997857Y-118756580D01*
X194997857Y-118756580D02*
X194950238Y-118804200D01*
X194950238Y-118804200D02*
X194855000Y-118851819D01*
X194855000Y-118851819D02*
X194569286Y-118851819D01*
X194569286Y-118851819D02*
X194474048Y-118804200D01*
X194474048Y-118804200D02*
X194426429Y-118756580D01*
X195378810Y-117851819D02*
X195997857Y-117851819D01*
X195997857Y-117851819D02*
X195664524Y-118232771D01*
X195664524Y-118232771D02*
X195807381Y-118232771D01*
X195807381Y-118232771D02*
X195902619Y-118280390D01*
X195902619Y-118280390D02*
X195950238Y-118328009D01*
X195950238Y-118328009D02*
X195997857Y-118423247D01*
X195997857Y-118423247D02*
X195997857Y-118661342D01*
X195997857Y-118661342D02*
X195950238Y-118756580D01*
X195950238Y-118756580D02*
X195902619Y-118804200D01*
X195902619Y-118804200D02*
X195807381Y-118851819D01*
X195807381Y-118851819D02*
X195521667Y-118851819D01*
X195521667Y-118851819D02*
X195426429Y-118804200D01*
X195426429Y-118804200D02*
X195378810Y-118756580D01*
X240991819Y-111536523D02*
X241706104Y-111536523D01*
X241706104Y-111536523D02*
X241848961Y-111584142D01*
X241848961Y-111584142D02*
X241944200Y-111679380D01*
X241944200Y-111679380D02*
X241991819Y-111822237D01*
X241991819Y-111822237D02*
X241991819Y-111917475D01*
X241991819Y-110536523D02*
X241991819Y-111107951D01*
X241991819Y-110822237D02*
X240991819Y-110822237D01*
X240991819Y-110822237D02*
X241134676Y-110917475D01*
X241134676Y-110917475D02*
X241229914Y-111012713D01*
X241229914Y-111012713D02*
X241277533Y-111107951D01*
X241420390Y-109965094D02*
X241372771Y-110060332D01*
X241372771Y-110060332D02*
X241325152Y-110107951D01*
X241325152Y-110107951D02*
X241229914Y-110155570D01*
X241229914Y-110155570D02*
X241182295Y-110155570D01*
X241182295Y-110155570D02*
X241087057Y-110107951D01*
X241087057Y-110107951D02*
X241039438Y-110060332D01*
X241039438Y-110060332D02*
X240991819Y-109965094D01*
X240991819Y-109965094D02*
X240991819Y-109774618D01*
X240991819Y-109774618D02*
X241039438Y-109679380D01*
X241039438Y-109679380D02*
X241087057Y-109631761D01*
X241087057Y-109631761D02*
X241182295Y-109584142D01*
X241182295Y-109584142D02*
X241229914Y-109584142D01*
X241229914Y-109584142D02*
X241325152Y-109631761D01*
X241325152Y-109631761D02*
X241372771Y-109679380D01*
X241372771Y-109679380D02*
X241420390Y-109774618D01*
X241420390Y-109774618D02*
X241420390Y-109965094D01*
X241420390Y-109965094D02*
X241468009Y-110060332D01*
X241468009Y-110060332D02*
X241515628Y-110107951D01*
X241515628Y-110107951D02*
X241610866Y-110155570D01*
X241610866Y-110155570D02*
X241801342Y-110155570D01*
X241801342Y-110155570D02*
X241896580Y-110107951D01*
X241896580Y-110107951D02*
X241944200Y-110060332D01*
X241944200Y-110060332D02*
X241991819Y-109965094D01*
X241991819Y-109965094D02*
X241991819Y-109774618D01*
X241991819Y-109774618D02*
X241944200Y-109679380D01*
X241944200Y-109679380D02*
X241896580Y-109631761D01*
X241896580Y-109631761D02*
X241801342Y-109584142D01*
X241801342Y-109584142D02*
X241610866Y-109584142D01*
X241610866Y-109584142D02*
X241515628Y-109631761D01*
X241515628Y-109631761D02*
X241468009Y-109679380D01*
X241468009Y-109679380D02*
X241420390Y-109774618D01*
X75724819Y-110029523D02*
X76439104Y-110029523D01*
X76439104Y-110029523D02*
X76581961Y-110077142D01*
X76581961Y-110077142D02*
X76677200Y-110172380D01*
X76677200Y-110172380D02*
X76724819Y-110315237D01*
X76724819Y-110315237D02*
X76724819Y-110410475D01*
X75820057Y-109600951D02*
X75772438Y-109553332D01*
X75772438Y-109553332D02*
X75724819Y-109458094D01*
X75724819Y-109458094D02*
X75724819Y-109219999D01*
X75724819Y-109219999D02*
X75772438Y-109124761D01*
X75772438Y-109124761D02*
X75820057Y-109077142D01*
X75820057Y-109077142D02*
X75915295Y-109029523D01*
X75915295Y-109029523D02*
X76010533Y-109029523D01*
X76010533Y-109029523D02*
X76153390Y-109077142D01*
X76153390Y-109077142D02*
X76724819Y-109648570D01*
X76724819Y-109648570D02*
X76724819Y-109029523D01*
X75724819Y-108124761D02*
X75724819Y-108600951D01*
X75724819Y-108600951D02*
X76201009Y-108648570D01*
X76201009Y-108648570D02*
X76153390Y-108600951D01*
X76153390Y-108600951D02*
X76105771Y-108505713D01*
X76105771Y-108505713D02*
X76105771Y-108267618D01*
X76105771Y-108267618D02*
X76153390Y-108172380D01*
X76153390Y-108172380D02*
X76201009Y-108124761D01*
X76201009Y-108124761D02*
X76296247Y-108077142D01*
X76296247Y-108077142D02*
X76534342Y-108077142D01*
X76534342Y-108077142D02*
X76629580Y-108124761D01*
X76629580Y-108124761D02*
X76677200Y-108172380D01*
X76677200Y-108172380D02*
X76724819Y-108267618D01*
X76724819Y-108267618D02*
X76724819Y-108505713D01*
X76724819Y-108505713D02*
X76677200Y-108600951D01*
X76677200Y-108600951D02*
X76629580Y-108648570D01*
X180860718Y-73776319D02*
X180527385Y-73300128D01*
X180289290Y-73776319D02*
X180289290Y-72776319D01*
X180289290Y-72776319D02*
X180670242Y-72776319D01*
X180670242Y-72776319D02*
X180765480Y-72823938D01*
X180765480Y-72823938D02*
X180813099Y-72871557D01*
X180813099Y-72871557D02*
X180860718Y-72966795D01*
X180860718Y-72966795D02*
X180860718Y-73109652D01*
X180860718Y-73109652D02*
X180813099Y-73204890D01*
X180813099Y-73204890D02*
X180765480Y-73252509D01*
X180765480Y-73252509D02*
X180670242Y-73300128D01*
X180670242Y-73300128D02*
X180289290Y-73300128D01*
X181289290Y-73252509D02*
X181622623Y-73252509D01*
X181765480Y-73776319D02*
X181289290Y-73776319D01*
X181289290Y-73776319D02*
X181289290Y-72776319D01*
X181289290Y-72776319D02*
X181765480Y-72776319D01*
X182527385Y-73252509D02*
X182194052Y-73252509D01*
X182194052Y-73776319D02*
X182194052Y-72776319D01*
X182194052Y-72776319D02*
X182670242Y-72776319D01*
X183194052Y-72776319D02*
X183194052Y-73014414D01*
X182955957Y-72919176D02*
X183194052Y-73014414D01*
X183194052Y-73014414D02*
X183432147Y-72919176D01*
X183051195Y-73204890D02*
X183194052Y-73014414D01*
X183194052Y-73014414D02*
X183336909Y-73204890D01*
X183955957Y-72776319D02*
X183955957Y-73014414D01*
X183717862Y-72919176D02*
X183955957Y-73014414D01*
X183955957Y-73014414D02*
X184194052Y-72919176D01*
X183813100Y-73204890D02*
X183955957Y-73014414D01*
X183955957Y-73014414D02*
X184098814Y-73204890D01*
X139683819Y-121525785D02*
X138683819Y-121525785D01*
X138683819Y-121525785D02*
X138683819Y-121287690D01*
X138683819Y-121287690D02*
X138731438Y-121144833D01*
X138731438Y-121144833D02*
X138826676Y-121049595D01*
X138826676Y-121049595D02*
X138921914Y-121001976D01*
X138921914Y-121001976D02*
X139112390Y-120954357D01*
X139112390Y-120954357D02*
X139255247Y-120954357D01*
X139255247Y-120954357D02*
X139445723Y-121001976D01*
X139445723Y-121001976D02*
X139540961Y-121049595D01*
X139540961Y-121049595D02*
X139636200Y-121144833D01*
X139636200Y-121144833D02*
X139683819Y-121287690D01*
X139683819Y-121287690D02*
X139683819Y-121525785D01*
X139683819Y-120001976D02*
X139683819Y-120573404D01*
X139683819Y-120287690D02*
X138683819Y-120287690D01*
X138683819Y-120287690D02*
X138826676Y-120382928D01*
X138826676Y-120382928D02*
X138921914Y-120478166D01*
X138921914Y-120478166D02*
X138969533Y-120573404D01*
X139683819Y-119049595D02*
X139683819Y-119621023D01*
X139683819Y-119335309D02*
X138683819Y-119335309D01*
X138683819Y-119335309D02*
X138826676Y-119430547D01*
X138826676Y-119430547D02*
X138921914Y-119525785D01*
X138921914Y-119525785D02*
X138969533Y-119621023D01*
X143515819Y-116763404D02*
X142515819Y-116763404D01*
X143515819Y-116191976D02*
X142944390Y-116620547D01*
X142515819Y-116191976D02*
X143087247Y-116763404D01*
X75724819Y-164883523D02*
X76439104Y-164883523D01*
X76439104Y-164883523D02*
X76581961Y-164931142D01*
X76581961Y-164931142D02*
X76677200Y-165026380D01*
X76677200Y-165026380D02*
X76724819Y-165169237D01*
X76724819Y-165169237D02*
X76724819Y-165264475D01*
X75820057Y-164454951D02*
X75772438Y-164407332D01*
X75772438Y-164407332D02*
X75724819Y-164312094D01*
X75724819Y-164312094D02*
X75724819Y-164073999D01*
X75724819Y-164073999D02*
X75772438Y-163978761D01*
X75772438Y-163978761D02*
X75820057Y-163931142D01*
X75820057Y-163931142D02*
X75915295Y-163883523D01*
X75915295Y-163883523D02*
X76010533Y-163883523D01*
X76010533Y-163883523D02*
X76153390Y-163931142D01*
X76153390Y-163931142D02*
X76724819Y-164502570D01*
X76724819Y-164502570D02*
X76724819Y-163883523D01*
X75724819Y-163026380D02*
X75724819Y-163216856D01*
X75724819Y-163216856D02*
X75772438Y-163312094D01*
X75772438Y-163312094D02*
X75820057Y-163359713D01*
X75820057Y-163359713D02*
X75962914Y-163454951D01*
X75962914Y-163454951D02*
X76153390Y-163502570D01*
X76153390Y-163502570D02*
X76534342Y-163502570D01*
X76534342Y-163502570D02*
X76629580Y-163454951D01*
X76629580Y-163454951D02*
X76677200Y-163407332D01*
X76677200Y-163407332D02*
X76724819Y-163312094D01*
X76724819Y-163312094D02*
X76724819Y-163121618D01*
X76724819Y-163121618D02*
X76677200Y-163026380D01*
X76677200Y-163026380D02*
X76629580Y-162978761D01*
X76629580Y-162978761D02*
X76534342Y-162931142D01*
X76534342Y-162931142D02*
X76296247Y-162931142D01*
X76296247Y-162931142D02*
X76201009Y-162978761D01*
X76201009Y-162978761D02*
X76153390Y-163026380D01*
X76153390Y-163026380D02*
X76105771Y-163121618D01*
X76105771Y-163121618D02*
X76105771Y-163312094D01*
X76105771Y-163312094D02*
X76153390Y-163407332D01*
X76153390Y-163407332D02*
X76201009Y-163454951D01*
X76201009Y-163454951D02*
X76296247Y-163502570D01*
X144328319Y-107079594D02*
X143328319Y-107079594D01*
X144328319Y-106508166D02*
X143756890Y-106936737D01*
X143328319Y-106508166D02*
X143899747Y-107079594D01*
X143756890Y-105936737D02*
X143709271Y-106031975D01*
X143709271Y-106031975D02*
X143661652Y-106079594D01*
X143661652Y-106079594D02*
X143566414Y-106127213D01*
X143566414Y-106127213D02*
X143518795Y-106127213D01*
X143518795Y-106127213D02*
X143423557Y-106079594D01*
X143423557Y-106079594D02*
X143375938Y-106031975D01*
X143375938Y-106031975D02*
X143328319Y-105936737D01*
X143328319Y-105936737D02*
X143328319Y-105746261D01*
X143328319Y-105746261D02*
X143375938Y-105651023D01*
X143375938Y-105651023D02*
X143423557Y-105603404D01*
X143423557Y-105603404D02*
X143518795Y-105555785D01*
X143518795Y-105555785D02*
X143566414Y-105555785D01*
X143566414Y-105555785D02*
X143661652Y-105603404D01*
X143661652Y-105603404D02*
X143709271Y-105651023D01*
X143709271Y-105651023D02*
X143756890Y-105746261D01*
X143756890Y-105746261D02*
X143756890Y-105936737D01*
X143756890Y-105936737D02*
X143804509Y-106031975D01*
X143804509Y-106031975D02*
X143852128Y-106079594D01*
X143852128Y-106079594D02*
X143947366Y-106127213D01*
X143947366Y-106127213D02*
X144137842Y-106127213D01*
X144137842Y-106127213D02*
X144233080Y-106079594D01*
X144233080Y-106079594D02*
X144280700Y-106031975D01*
X144280700Y-106031975D02*
X144328319Y-105936737D01*
X144328319Y-105936737D02*
X144328319Y-105746261D01*
X144328319Y-105746261D02*
X144280700Y-105651023D01*
X144280700Y-105651023D02*
X144233080Y-105603404D01*
X144233080Y-105603404D02*
X144137842Y-105555785D01*
X144137842Y-105555785D02*
X143947366Y-105555785D01*
X143947366Y-105555785D02*
X143852128Y-105603404D01*
X143852128Y-105603404D02*
X143804509Y-105651023D01*
X143804509Y-105651023D02*
X143756890Y-105746261D01*
X27860666Y-72822819D02*
X27860666Y-73537104D01*
X27860666Y-73537104D02*
X27813047Y-73679961D01*
X27813047Y-73679961D02*
X27717809Y-73775200D01*
X27717809Y-73775200D02*
X27574952Y-73822819D01*
X27574952Y-73822819D02*
X27479714Y-73822819D01*
X28813047Y-72822819D02*
X28336857Y-72822819D01*
X28336857Y-72822819D02*
X28289238Y-73299009D01*
X28289238Y-73299009D02*
X28336857Y-73251390D01*
X28336857Y-73251390D02*
X28432095Y-73203771D01*
X28432095Y-73203771D02*
X28670190Y-73203771D01*
X28670190Y-73203771D02*
X28765428Y-73251390D01*
X28765428Y-73251390D02*
X28813047Y-73299009D01*
X28813047Y-73299009D02*
X28860666Y-73394247D01*
X28860666Y-73394247D02*
X28860666Y-73632342D01*
X28860666Y-73632342D02*
X28813047Y-73727580D01*
X28813047Y-73727580D02*
X28765428Y-73775200D01*
X28765428Y-73775200D02*
X28670190Y-73822819D01*
X28670190Y-73822819D02*
X28432095Y-73822819D01*
X28432095Y-73822819D02*
X28336857Y-73775200D01*
X28336857Y-73775200D02*
X28289238Y-73727580D01*
D11*
%TO.C,R5*%
X19785000Y-188187064D02*
X19785000Y-187732936D01*
X18315000Y-188187064D02*
X18315000Y-187732936D01*
%TO.C,J6*%
X17426000Y-141722000D02*
X17426000Y-136482000D01*
X17426000Y-146982000D02*
X17696000Y-146832000D01*
X17426000Y-147842000D02*
X17426000Y-146982000D01*
X17816000Y-148482000D02*
X17426000Y-147842000D01*
X18426000Y-148142000D02*
X17816000Y-148482000D01*
X23766000Y-151752000D02*
X23766000Y-156522000D01*
X25266000Y-156522000D02*
X23766000Y-156522000D01*
X25266000Y-156522000D02*
X25266000Y-152452000D01*
X27386000Y-152762000D02*
X27386000Y-154022000D01*
X28066000Y-154222000D02*
X27586000Y-154222000D01*
X28266000Y-152622000D02*
X28266000Y-154022000D01*
X31386000Y-152452000D02*
X31386000Y-152452000D01*
X31386000Y-156522000D02*
X31386000Y-152452000D01*
X32886000Y-154222000D02*
X38226000Y-154222000D01*
X32886000Y-156522000D02*
X31386000Y-156522000D01*
X32886000Y-156522000D02*
X32886000Y-154222000D01*
X39226000Y-146962000D02*
X39226000Y-135602000D01*
X17426000Y-136482000D02*
G75*
G03*
X16369311Y-133404431I-5009993J2D01*
G01*
X19756000Y-129592001D02*
G75*
G03*
X16374021Y-133412968I-1330000J-2229999D01*
G01*
X17696000Y-146831999D02*
G75*
G03*
X18166785Y-145673372I-480000J869999D01*
G01*
X19723798Y-148415832D02*
G75*
G03*
X18426000Y-148142000I-807798J-616169D01*
G01*
X23766000Y-151752000D02*
G75*
G03*
X23699636Y-151592864I-199996J10002D01*
G01*
X39226000Y-135602000D02*
G75*
G03*
X24006950Y-129991263I-10899999J-6119998D01*
G01*
X19756000Y-129592000D02*
G75*
G03*
X24017919Y-129988158I2550000J4310003D01*
G01*
X25457697Y-152242798D02*
G75*
G03*
X25266000Y-152452000I18304J-209202D01*
G01*
X27385999Y-152762000D02*
G75*
G03*
X27227582Y-152566371I-200001J-1D01*
G01*
X27386000Y-154022000D02*
G75*
G03*
X27586000Y-154222000I200001J1D01*
G01*
X28066000Y-154222000D02*
G75*
G03*
X28266000Y-154022000I-1J200001D01*
G01*
X31385999Y-152452000D02*
G75*
G03*
X31186991Y-152242289I-209999J0D01*
G01*
X38056000Y-152811999D02*
G75*
G03*
X37720454Y-150531394I170000J1189999D01*
G01*
X38226000Y-154222000D02*
G75*
G03*
X40277619Y-150024858I0J2600000D01*
G01*
X39226000Y-146962000D02*
G75*
G03*
X40278470Y-150027283I4990000J0D01*
G01*
X19626000Y-131822000D02*
G75*
G03*
X19626000Y-131822000I-1200000J0D01*
G01*
X36226000Y-141722000D02*
G75*
G03*
X36226000Y-141722000I-7900000J0D01*
G01*
X37926000Y-141722000D02*
G75*
G03*
X37926000Y-141722000I-9600000J0D01*
G01*
X39226000Y-141722000D02*
G75*
G03*
X39226000Y-141722000I-10900000J0D01*
G01*
%TO.C,K2*%
X165596000Y-73418000D02*
X145006000Y-73418000D01*
X145006000Y-73418000D02*
X145006000Y-83798000D01*
X146066000Y-77118000D02*
X145006000Y-77118000D01*
X147416000Y-78248000D02*
X146216000Y-78248000D01*
X146846000Y-78248000D02*
X146846000Y-77148000D01*
X146216000Y-78248000D02*
X146216000Y-78948000D01*
X147416000Y-78948000D02*
X147416000Y-78248000D01*
X147016000Y-78948000D02*
X146616000Y-78248000D01*
X146846000Y-78948000D02*
X146846000Y-80048000D01*
X146216000Y-78948000D02*
X147416000Y-78948000D01*
X146066000Y-80118000D02*
X146066000Y-77118000D01*
X145006000Y-80118000D02*
X146046000Y-80118000D01*
X165596000Y-83798000D02*
X165596000Y-73418000D01*
X145006000Y-83798000D02*
X165596000Y-83798000D01*
X146156000Y-83958000D02*
X144856000Y-83958000D01*
X144856000Y-83958000D02*
X144856000Y-82748000D01*
%TO.C,JP7*%
X230431000Y-82451000D02*
G75*
G03*
X231131000Y-83151000I700000J0D01*
G01*
X231731000Y-83151000D02*
G75*
G03*
X232431000Y-82451000I0J700000D01*
G01*
X231131000Y-80351000D02*
G75*
G03*
X230431000Y-81051000I-1J-699999D01*
G01*
X232431000Y-81051000D02*
G75*
G03*
X231731000Y-80351000I-699999J1D01*
G01*
X231731000Y-83151000D02*
X231131000Y-83151000D01*
X230431000Y-82451000D02*
X230431000Y-81051000D01*
X232431000Y-81051000D02*
X232431000Y-82451000D01*
X231131000Y-80351000D02*
X231731000Y-80351000D01*
%TO.C,JP5*%
X276659000Y-82451000D02*
G75*
G03*
X277359000Y-83151000I700000J0D01*
G01*
X277959000Y-83151000D02*
G75*
G03*
X278659000Y-82451000I0J700000D01*
G01*
X277359000Y-80351000D02*
G75*
G03*
X276659000Y-81051000I-1J-699999D01*
G01*
X278659000Y-81051000D02*
G75*
G03*
X277959000Y-80351000I-699999J1D01*
G01*
X277959000Y-83151000D02*
X277359000Y-83151000D01*
X276659000Y-82451000D02*
X276659000Y-81051000D01*
X278659000Y-81051000D02*
X278659000Y-82451000D01*
X277359000Y-80351000D02*
X277959000Y-80351000D01*
%TO.C,J1*%
X181961000Y-81751000D02*
X181961000Y-91971000D01*
X181961000Y-79151000D02*
X181961000Y-80481000D01*
X180631000Y-79151000D02*
X181961000Y-79151000D01*
X179361000Y-81751000D02*
X181961000Y-81751000D01*
X179361000Y-79151000D02*
X179361000Y-81751000D01*
X176761000Y-91971000D02*
X181961000Y-91971000D01*
X176761000Y-79151000D02*
X179361000Y-79151000D01*
X176761000Y-79151000D02*
X176761000Y-91971000D01*
%TO.C,JP2*%
X253545000Y-89959000D02*
G75*
G03*
X254245000Y-90659000I700000J0D01*
G01*
X254845000Y-90659000D02*
G75*
G03*
X255545000Y-89959000I0J700000D01*
G01*
X254245000Y-87859000D02*
G75*
G03*
X253545000Y-88559000I-1J-699999D01*
G01*
X255545000Y-88559000D02*
G75*
G03*
X254845000Y-87859000I-699999J1D01*
G01*
X254845000Y-90659000D02*
X254245000Y-90659000D01*
X253545000Y-89959000D02*
X253545000Y-88559000D01*
X255545000Y-88559000D02*
X255545000Y-89959000D01*
X254245000Y-87859000D02*
X254845000Y-87859000D01*
%TO.C,K3*%
X250845000Y-100179000D02*
X250845000Y-79589000D01*
X250845000Y-79589000D02*
X240465000Y-79589000D01*
X247145000Y-80649000D02*
X247145000Y-79589000D01*
X246015000Y-81999000D02*
X246015000Y-80799000D01*
X246015000Y-81429000D02*
X247115000Y-81429000D01*
X246015000Y-80799000D02*
X245315000Y-80799000D01*
X245315000Y-81999000D02*
X246015000Y-81999000D01*
X245315000Y-81599000D02*
X246015000Y-81199000D01*
X245315000Y-81429000D02*
X244215000Y-81429000D01*
X245315000Y-80799000D02*
X245315000Y-81999000D01*
X244145000Y-80649000D02*
X247145000Y-80649000D01*
X244145000Y-79589000D02*
X244145000Y-80629000D01*
X240465000Y-100179000D02*
X250845000Y-100179000D01*
X240465000Y-79589000D02*
X240465000Y-100179000D01*
X240305000Y-80739000D02*
X240305000Y-79439000D01*
X240305000Y-79439000D02*
X241515000Y-79439000D01*
%TO.C,D2*%
X45675000Y-180340000D02*
G75*
G03*
X45675000Y-180340000I-2500000J0D01*
G01*
X40615000Y-181884830D02*
G75*
G03*
X46165000Y-180339538I2560000J1544830D01*
G01*
X46164999Y-180340462D02*
G75*
G03*
X40615001Y-178795170I-2989999J462D01*
G01*
X40615000Y-178795000D02*
X40615000Y-181885000D01*
%TO.C,J15*%
X94330000Y-38348000D02*
G75*
G03*
X94330000Y-38348000I-1200000J0D01*
G01*
X94130000Y-28448000D02*
G75*
G03*
X94130000Y-28448000I-10900000J0D01*
G01*
X74530000Y-18548000D02*
G75*
G03*
X74530000Y-18548000I-1200000J0D01*
G01*
X91160000Y-40048000D02*
G75*
G03*
X95235343Y-36818807I1970000J1700000D01*
G01*
X94130001Y-33398000D02*
G75*
G03*
X95235277Y-36820002I5849999J0D01*
G01*
X87860000Y-40048000D02*
G75*
G03*
X89099479Y-40048769I620000J420000D01*
G01*
X86630000Y-17898000D02*
G75*
G03*
X86424232Y-17610323I-290000J10000D01*
G01*
X86420458Y-17607752D02*
G75*
G03*
X83230000Y-17148000I-3190458J-10840248D01*
G01*
X85055209Y-36544586D02*
G75*
G03*
X81420000Y-36548000I-1825209J8096586D01*
G01*
X75485549Y-16602695D02*
G75*
G03*
X78890000Y-17148000I3404456J10354724D01*
G01*
X77360000Y-40048000D02*
G75*
G03*
X78599479Y-40048769I620000J420000D01*
G01*
X72329999Y-23208000D02*
G75*
G03*
X71835384Y-21039705I-5000002J-1D01*
G01*
X75479999Y-16598001D02*
G75*
G03*
X71831035Y-21033578I-2149999J-1949999D01*
G01*
X94130000Y-33398000D02*
X94130000Y-28448000D01*
X89100000Y-40048000D02*
X91160000Y-40048000D01*
X87790000Y-43248000D02*
X86290000Y-43248000D01*
X87790000Y-40048000D02*
X87860000Y-40048000D01*
X87790000Y-40048000D02*
X87790000Y-43248000D01*
X86630000Y-18088000D02*
X86630000Y-17898000D01*
X86290000Y-40048000D02*
X86290000Y-43248000D01*
X83230000Y-17148000D02*
X78890000Y-17148000D01*
X80170000Y-43248000D02*
X78670000Y-43248000D01*
X80170000Y-40048000D02*
X86290000Y-40048000D01*
X80170000Y-40048000D02*
X80170000Y-43248000D01*
X78990000Y-38698000D02*
X78990000Y-38498000D01*
X78990000Y-38698000D02*
X76680000Y-38698000D01*
X78670000Y-40048000D02*
X78670000Y-43248000D01*
X78670000Y-40048000D02*
X78600000Y-40048000D01*
X77180000Y-40048000D02*
X77360000Y-40048000D01*
X76680000Y-39978000D02*
X77180000Y-40048000D01*
X76680000Y-39978000D02*
X76680000Y-38698000D01*
X72330000Y-23208000D02*
X72330000Y-28448000D01*
%TO.C,R4*%
X45185000Y-188187064D02*
X45185000Y-187732936D01*
X43715000Y-188187064D02*
X43715000Y-187732936D01*
%TO.C,JP13*%
X260879000Y-80797000D02*
G75*
G03*
X260179000Y-80097000I-700000J0D01*
G01*
X259579000Y-80097000D02*
G75*
G03*
X258879000Y-80797000I0J-700000D01*
G01*
X260179000Y-82897000D02*
G75*
G03*
X260879000Y-82197000I1J699999D01*
G01*
X258879000Y-82197000D02*
G75*
G03*
X259579000Y-82897000I699999J-1D01*
G01*
X259579000Y-80097000D02*
X260179000Y-80097000D01*
X260879000Y-80797000D02*
X260879000Y-82197000D01*
X258879000Y-82197000D02*
X258879000Y-80797000D01*
X260179000Y-82897000D02*
X259579000Y-82897000D01*
%TO.C,J9*%
X71394000Y-86868000D02*
X71394000Y-81628000D01*
X71394000Y-92128000D02*
X71664000Y-91978000D01*
X71394000Y-92988000D02*
X71394000Y-92128000D01*
X71784000Y-93628000D02*
X71394000Y-92988000D01*
X72394000Y-93288000D02*
X71784000Y-93628000D01*
X77734000Y-96898000D02*
X77734000Y-101668000D01*
X79234000Y-101668000D02*
X77734000Y-101668000D01*
X79234000Y-101668000D02*
X79234000Y-97598000D01*
X81354000Y-97908000D02*
X81354000Y-99168000D01*
X82034000Y-99368000D02*
X81554000Y-99368000D01*
X82234000Y-97768000D02*
X82234000Y-99168000D01*
X85354000Y-97598000D02*
X85354000Y-97598000D01*
X85354000Y-101668000D02*
X85354000Y-97598000D01*
X86854000Y-99368000D02*
X92194000Y-99368000D01*
X86854000Y-101668000D02*
X85354000Y-101668000D01*
X86854000Y-101668000D02*
X86854000Y-99368000D01*
X93194000Y-92108000D02*
X93194000Y-80748000D01*
X71394000Y-81628000D02*
G75*
G03*
X70337311Y-78550431I-5009993J2D01*
G01*
X73724000Y-74738001D02*
G75*
G03*
X70342021Y-78558968I-1330000J-2229999D01*
G01*
X71664000Y-91977999D02*
G75*
G03*
X72134785Y-90819372I-480000J869999D01*
G01*
X73691798Y-93561832D02*
G75*
G03*
X72394000Y-93288000I-807798J-616169D01*
G01*
X77734000Y-96898000D02*
G75*
G03*
X77667636Y-96738864I-199996J10002D01*
G01*
X93194000Y-80748000D02*
G75*
G03*
X77974950Y-75137263I-10899999J-6119998D01*
G01*
X73724000Y-74738000D02*
G75*
G03*
X77985919Y-75134158I2550000J4310003D01*
G01*
X79425697Y-97388798D02*
G75*
G03*
X79234000Y-97598000I18304J-209202D01*
G01*
X81353999Y-97908000D02*
G75*
G03*
X81195582Y-97712371I-200001J-1D01*
G01*
X81354000Y-99168000D02*
G75*
G03*
X81554000Y-99368000I200001J1D01*
G01*
X82034000Y-99368000D02*
G75*
G03*
X82234000Y-99168000I-1J200001D01*
G01*
X85353999Y-97598000D02*
G75*
G03*
X85154991Y-97388289I-209999J0D01*
G01*
X92024000Y-97957999D02*
G75*
G03*
X91688454Y-95677394I170000J1189999D01*
G01*
X92194000Y-99368000D02*
G75*
G03*
X94245619Y-95170858I0J2600000D01*
G01*
X93194000Y-92108000D02*
G75*
G03*
X94246470Y-95173283I4990000J0D01*
G01*
X73594000Y-76968000D02*
G75*
G03*
X73594000Y-76968000I-1200000J0D01*
G01*
X90194000Y-86868000D02*
G75*
G03*
X90194000Y-86868000I-7900000J0D01*
G01*
X91894000Y-86868000D02*
G75*
G03*
X91894000Y-86868000I-9600000J0D01*
G01*
X93194000Y-86868000D02*
G75*
G03*
X93194000Y-86868000I-10900000J0D01*
G01*
%TO.C,D8*%
X196911000Y-75909000D02*
X197561000Y-75909000D01*
X197561000Y-74789000D02*
X197561000Y-77029000D01*
X197561000Y-77029000D02*
X201801000Y-77029000D01*
X200961000Y-77029000D02*
X200961000Y-74789000D01*
X201081000Y-77029000D02*
X201081000Y-74789000D01*
X201201000Y-77029000D02*
X201201000Y-74789000D01*
X201801000Y-74789000D02*
X197561000Y-74789000D01*
X201801000Y-77029000D02*
X201801000Y-74789000D01*
X202451000Y-75909000D02*
X201801000Y-75909000D01*
%TO.C,JP9*%
X258879000Y-90071000D02*
G75*
G03*
X259579000Y-90771000I700000J0D01*
G01*
X260179000Y-90771000D02*
G75*
G03*
X260879000Y-90071000I0J700000D01*
G01*
X259579000Y-87971000D02*
G75*
G03*
X258879000Y-88671000I-1J-699999D01*
G01*
X260879000Y-88671000D02*
G75*
G03*
X260179000Y-87971000I-699999J1D01*
G01*
X260179000Y-90771000D02*
X259579000Y-90771000D01*
X258879000Y-90071000D02*
X258879000Y-88671000D01*
X260879000Y-88671000D02*
X260879000Y-90071000D01*
X259579000Y-87971000D02*
X260179000Y-87971000D01*
%TO.C,K5*%
X204871000Y-100179000D02*
X204871000Y-79589000D01*
X204871000Y-79589000D02*
X194491000Y-79589000D01*
X201171000Y-80649000D02*
X201171000Y-79589000D01*
X200041000Y-81999000D02*
X200041000Y-80799000D01*
X200041000Y-81429000D02*
X201141000Y-81429000D01*
X200041000Y-80799000D02*
X199341000Y-80799000D01*
X199341000Y-81999000D02*
X200041000Y-81999000D01*
X199341000Y-81599000D02*
X200041000Y-81199000D01*
X199341000Y-81429000D02*
X198241000Y-81429000D01*
X199341000Y-80799000D02*
X199341000Y-81999000D01*
X198171000Y-80649000D02*
X201171000Y-80649000D01*
X198171000Y-79589000D02*
X198171000Y-80629000D01*
X194491000Y-100179000D02*
X204871000Y-100179000D01*
X194491000Y-79589000D02*
X194491000Y-100179000D01*
X194331000Y-80739000D02*
X194331000Y-79439000D01*
X194331000Y-79439000D02*
X195541000Y-79439000D01*
%TO.C,D1*%
X20275000Y-180340000D02*
G75*
G03*
X20275000Y-180340000I-2500000J0D01*
G01*
X15215000Y-181884830D02*
G75*
G03*
X20765000Y-180339538I2560000J1544830D01*
G01*
X20764999Y-180340462D02*
G75*
G03*
X15215001Y-178795170I-2989999J462D01*
G01*
X15215000Y-178795000D02*
X15215000Y-181885000D01*
%TO.C,JP6*%
X253545000Y-82451000D02*
G75*
G03*
X254245000Y-83151000I700000J0D01*
G01*
X254845000Y-83151000D02*
G75*
G03*
X255545000Y-82451000I0J700000D01*
G01*
X254245000Y-80351000D02*
G75*
G03*
X253545000Y-81051000I-1J-699999D01*
G01*
X255545000Y-81051000D02*
G75*
G03*
X254845000Y-80351000I-699999J1D01*
G01*
X254845000Y-83151000D02*
X254245000Y-83151000D01*
X253545000Y-82451000D02*
X253545000Y-81051000D01*
X255545000Y-81051000D02*
X255545000Y-82451000D01*
X254245000Y-80351000D02*
X254845000Y-80351000D01*
%TO.C,J3*%
X182235000Y-109467000D02*
X182235000Y-119687000D01*
X182235000Y-106867000D02*
X182235000Y-108197000D01*
X180905000Y-106867000D02*
X182235000Y-106867000D01*
X179635000Y-109467000D02*
X182235000Y-109467000D01*
X179635000Y-106867000D02*
X179635000Y-109467000D01*
X177035000Y-119687000D02*
X182235000Y-119687000D01*
X177035000Y-106867000D02*
X179635000Y-106867000D01*
X177035000Y-106867000D02*
X177035000Y-119687000D01*
%TO.C,J7*%
X44344000Y-86868000D02*
X44344000Y-81628000D01*
X44344000Y-92128000D02*
X44614000Y-91978000D01*
X44344000Y-92988000D02*
X44344000Y-92128000D01*
X44734000Y-93628000D02*
X44344000Y-92988000D01*
X45344000Y-93288000D02*
X44734000Y-93628000D01*
X50684000Y-96898000D02*
X50684000Y-101668000D01*
X52184000Y-101668000D02*
X50684000Y-101668000D01*
X52184000Y-101668000D02*
X52184000Y-97598000D01*
X54304000Y-97908000D02*
X54304000Y-99168000D01*
X54984000Y-99368000D02*
X54504000Y-99368000D01*
X55184000Y-97768000D02*
X55184000Y-99168000D01*
X58304000Y-97598000D02*
X58304000Y-97598000D01*
X58304000Y-101668000D02*
X58304000Y-97598000D01*
X59804000Y-99368000D02*
X65144000Y-99368000D01*
X59804000Y-101668000D02*
X58304000Y-101668000D01*
X59804000Y-101668000D02*
X59804000Y-99368000D01*
X66144000Y-92108000D02*
X66144000Y-80748000D01*
X44344000Y-81628000D02*
G75*
G03*
X43287311Y-78550431I-5009993J2D01*
G01*
X46674000Y-74738001D02*
G75*
G03*
X43292021Y-78558968I-1330000J-2229999D01*
G01*
X44614000Y-91977999D02*
G75*
G03*
X45084785Y-90819372I-480000J869999D01*
G01*
X46641798Y-93561832D02*
G75*
G03*
X45344000Y-93288000I-807798J-616169D01*
G01*
X50684000Y-96898000D02*
G75*
G03*
X50617636Y-96738864I-199996J10002D01*
G01*
X66144000Y-80748000D02*
G75*
G03*
X50924950Y-75137263I-10899999J-6119998D01*
G01*
X46674000Y-74738000D02*
G75*
G03*
X50935919Y-75134158I2550000J4310003D01*
G01*
X52375697Y-97388798D02*
G75*
G03*
X52184000Y-97598000I18304J-209202D01*
G01*
X54303999Y-97908000D02*
G75*
G03*
X54145582Y-97712371I-200001J-1D01*
G01*
X54304000Y-99168000D02*
G75*
G03*
X54504000Y-99368000I200001J1D01*
G01*
X54984000Y-99368000D02*
G75*
G03*
X55184000Y-99168000I-1J200001D01*
G01*
X58303999Y-97598000D02*
G75*
G03*
X58104991Y-97388289I-209999J0D01*
G01*
X64974000Y-97957999D02*
G75*
G03*
X64638454Y-95677394I170000J1189999D01*
G01*
X65144000Y-99368000D02*
G75*
G03*
X67195619Y-95170858I0J2600000D01*
G01*
X66144000Y-92108000D02*
G75*
G03*
X67196470Y-95173283I4990000J0D01*
G01*
X46544000Y-76968000D02*
G75*
G03*
X46544000Y-76968000I-1200000J0D01*
G01*
X63144000Y-86868000D02*
G75*
G03*
X63144000Y-86868000I-7900000J0D01*
G01*
X64844000Y-86868000D02*
G75*
G03*
X64844000Y-86868000I-9600000J0D01*
G01*
X66144000Y-86868000D02*
G75*
G03*
X66144000Y-86868000I-10900000J0D01*
G01*
%TO.C,K6*%
X165563500Y-87181500D02*
X144973500Y-87181500D01*
X144973500Y-87181500D02*
X144973500Y-97561500D01*
X146033500Y-90881500D02*
X144973500Y-90881500D01*
X147383500Y-92011500D02*
X146183500Y-92011500D01*
X146813500Y-92011500D02*
X146813500Y-90911500D01*
X146183500Y-92011500D02*
X146183500Y-92711500D01*
X147383500Y-92711500D02*
X147383500Y-92011500D01*
X146983500Y-92711500D02*
X146583500Y-92011500D01*
X146813500Y-92711500D02*
X146813500Y-93811500D01*
X146183500Y-92711500D02*
X147383500Y-92711500D01*
X146033500Y-93881500D02*
X146033500Y-90881500D01*
X144973500Y-93881500D02*
X146013500Y-93881500D01*
X165563500Y-97561500D02*
X165563500Y-87181500D01*
X144973500Y-97561500D02*
X165563500Y-97561500D01*
X146123500Y-97721500D02*
X144823500Y-97721500D01*
X144823500Y-97721500D02*
X144823500Y-96511500D01*
%TO.C,R3*%
X70585000Y-188187064D02*
X70585000Y-187732936D01*
X69115000Y-188187064D02*
X69115000Y-187732936D01*
%TO.C,JP12*%
X189791000Y-90071000D02*
G75*
G03*
X190491000Y-90771000I700000J0D01*
G01*
X191091000Y-90771000D02*
G75*
G03*
X191791000Y-90071000I0J700000D01*
G01*
X190491000Y-87971000D02*
G75*
G03*
X189791000Y-88671000I-1J-699999D01*
G01*
X191791000Y-88671000D02*
G75*
G03*
X191091000Y-87971000I-699999J1D01*
G01*
X191091000Y-90771000D02*
X190491000Y-90771000D01*
X189791000Y-90071000D02*
X189791000Y-88671000D01*
X191791000Y-88671000D02*
X191791000Y-90071000D01*
X190491000Y-87971000D02*
X191091000Y-87971000D01*
%TO.C,J14*%
X66980000Y-38348000D02*
G75*
G03*
X66980000Y-38348000I-1200000J0D01*
G01*
X66780000Y-28448000D02*
G75*
G03*
X66780000Y-28448000I-10900000J0D01*
G01*
X47180000Y-18548000D02*
G75*
G03*
X47180000Y-18548000I-1200000J0D01*
G01*
X63810000Y-40048000D02*
G75*
G03*
X67885343Y-36818807I1970000J1700000D01*
G01*
X66780001Y-33398000D02*
G75*
G03*
X67885277Y-36820002I5849999J0D01*
G01*
X60510000Y-40048000D02*
G75*
G03*
X61749479Y-40048769I620000J420000D01*
G01*
X59280000Y-17898000D02*
G75*
G03*
X59074232Y-17610323I-290000J10000D01*
G01*
X59070458Y-17607752D02*
G75*
G03*
X55880000Y-17148000I-3190458J-10840248D01*
G01*
X57705209Y-36544586D02*
G75*
G03*
X54070000Y-36548000I-1825209J8096586D01*
G01*
X48135549Y-16602695D02*
G75*
G03*
X51540000Y-17148000I3404456J10354724D01*
G01*
X50010000Y-40048000D02*
G75*
G03*
X51249479Y-40048769I620000J420000D01*
G01*
X44979999Y-23208000D02*
G75*
G03*
X44485384Y-21039705I-5000002J-1D01*
G01*
X48129999Y-16598001D02*
G75*
G03*
X44481035Y-21033578I-2149999J-1949999D01*
G01*
X66780000Y-33398000D02*
X66780000Y-28448000D01*
X61750000Y-40048000D02*
X63810000Y-40048000D01*
X60440000Y-43248000D02*
X58940000Y-43248000D01*
X60440000Y-40048000D02*
X60510000Y-40048000D01*
X60440000Y-40048000D02*
X60440000Y-43248000D01*
X59280000Y-18088000D02*
X59280000Y-17898000D01*
X58940000Y-40048000D02*
X58940000Y-43248000D01*
X55880000Y-17148000D02*
X51540000Y-17148000D01*
X52820000Y-43248000D02*
X51320000Y-43248000D01*
X52820000Y-40048000D02*
X58940000Y-40048000D01*
X52820000Y-40048000D02*
X52820000Y-43248000D01*
X51640000Y-38698000D02*
X51640000Y-38498000D01*
X51640000Y-38698000D02*
X49330000Y-38698000D01*
X51320000Y-40048000D02*
X51320000Y-43248000D01*
X51320000Y-40048000D02*
X51250000Y-40048000D01*
X49830000Y-40048000D02*
X50010000Y-40048000D01*
X49330000Y-39978000D02*
X49830000Y-40048000D01*
X49330000Y-39978000D02*
X49330000Y-38698000D01*
X44980000Y-23208000D02*
X44980000Y-28448000D01*
%TO.C,JP11*%
X212651000Y-89959000D02*
G75*
G03*
X213351000Y-90659000I700000J0D01*
G01*
X213951000Y-90659000D02*
G75*
G03*
X214651000Y-89959000I0J700000D01*
G01*
X213351000Y-87859000D02*
G75*
G03*
X212651000Y-88559000I-1J-699999D01*
G01*
X214651000Y-88559000D02*
G75*
G03*
X213951000Y-87859000I-699999J1D01*
G01*
X213951000Y-90659000D02*
X213351000Y-90659000D01*
X212651000Y-89959000D02*
X212651000Y-88559000D01*
X214651000Y-88559000D02*
X214651000Y-89959000D01*
X213351000Y-87859000D02*
X213951000Y-87859000D01*
%TO.C,J11*%
X98444000Y-86868000D02*
X98444000Y-81628000D01*
X98444000Y-92128000D02*
X98714000Y-91978000D01*
X98444000Y-92988000D02*
X98444000Y-92128000D01*
X98834000Y-93628000D02*
X98444000Y-92988000D01*
X99444000Y-93288000D02*
X98834000Y-93628000D01*
X104784000Y-96898000D02*
X104784000Y-101668000D01*
X106284000Y-101668000D02*
X104784000Y-101668000D01*
X106284000Y-101668000D02*
X106284000Y-97598000D01*
X108404000Y-97908000D02*
X108404000Y-99168000D01*
X109084000Y-99368000D02*
X108604000Y-99368000D01*
X109284000Y-97768000D02*
X109284000Y-99168000D01*
X112404000Y-97598000D02*
X112404000Y-97598000D01*
X112404000Y-101668000D02*
X112404000Y-97598000D01*
X113904000Y-99368000D02*
X119244000Y-99368000D01*
X113904000Y-101668000D02*
X112404000Y-101668000D01*
X113904000Y-101668000D02*
X113904000Y-99368000D01*
X120244000Y-92108000D02*
X120244000Y-80748000D01*
X98444000Y-81628000D02*
G75*
G03*
X97387311Y-78550431I-5009993J2D01*
G01*
X100774000Y-74738001D02*
G75*
G03*
X97392021Y-78558968I-1330000J-2229999D01*
G01*
X98714000Y-91977999D02*
G75*
G03*
X99184785Y-90819372I-480000J869999D01*
G01*
X100741798Y-93561832D02*
G75*
G03*
X99444000Y-93288000I-807798J-616169D01*
G01*
X104784000Y-96898000D02*
G75*
G03*
X104717636Y-96738864I-199996J10002D01*
G01*
X120244000Y-80748000D02*
G75*
G03*
X105024950Y-75137263I-10899999J-6119998D01*
G01*
X100774000Y-74738000D02*
G75*
G03*
X105035919Y-75134158I2550000J4310003D01*
G01*
X106475697Y-97388798D02*
G75*
G03*
X106284000Y-97598000I18304J-209202D01*
G01*
X108403999Y-97908000D02*
G75*
G03*
X108245582Y-97712371I-200001J-1D01*
G01*
X108404000Y-99168000D02*
G75*
G03*
X108604000Y-99368000I200001J1D01*
G01*
X109084000Y-99368000D02*
G75*
G03*
X109284000Y-99168000I-1J200001D01*
G01*
X112403999Y-97598000D02*
G75*
G03*
X112204991Y-97388289I-209999J0D01*
G01*
X119074000Y-97957999D02*
G75*
G03*
X118738454Y-95677394I170000J1189999D01*
G01*
X119244000Y-99368000D02*
G75*
G03*
X121295619Y-95170858I0J2600000D01*
G01*
X120244000Y-92108000D02*
G75*
G03*
X121296470Y-95173283I4990000J0D01*
G01*
X100644000Y-76968000D02*
G75*
G03*
X100644000Y-76968000I-1200000J0D01*
G01*
X117244000Y-86868000D02*
G75*
G03*
X117244000Y-86868000I-7900000J0D01*
G01*
X118944000Y-86868000D02*
G75*
G03*
X118944000Y-86868000I-9600000J0D01*
G01*
X120244000Y-86868000D02*
G75*
G03*
X120244000Y-86868000I-10900000J0D01*
G01*
%TO.C,JP16*%
X191791000Y-80797000D02*
G75*
G03*
X191091000Y-80097000I-700000J0D01*
G01*
X190491000Y-80097000D02*
G75*
G03*
X189791000Y-80797000I0J-700000D01*
G01*
X191091000Y-82897000D02*
G75*
G03*
X191791000Y-82197000I1J699999D01*
G01*
X189791000Y-82197000D02*
G75*
G03*
X190491000Y-82897000I699999J-1D01*
G01*
X190491000Y-80097000D02*
X191091000Y-80097000D01*
X191791000Y-80797000D02*
X191791000Y-82197000D01*
X189791000Y-82197000D02*
X189791000Y-80797000D01*
X191091000Y-82897000D02*
X190491000Y-82897000D01*
%TO.C,D6*%
X242885000Y-76417000D02*
X243535000Y-76417000D01*
X243535000Y-75297000D02*
X243535000Y-77537000D01*
X243535000Y-77537000D02*
X247775000Y-77537000D01*
X246935000Y-77537000D02*
X246935000Y-75297000D01*
X247055000Y-77537000D02*
X247055000Y-75297000D01*
X247175000Y-77537000D02*
X247175000Y-75297000D01*
X247775000Y-75297000D02*
X243535000Y-75297000D01*
X247775000Y-77537000D02*
X247775000Y-75297000D01*
X248425000Y-76417000D02*
X247775000Y-76417000D01*
%TO.C,D4*%
X96475000Y-180340000D02*
G75*
G03*
X96475000Y-180340000I-2500000J0D01*
G01*
X91415000Y-181884830D02*
G75*
G03*
X96965000Y-180339538I2560000J1544830D01*
G01*
X96964999Y-180340462D02*
G75*
G03*
X91415001Y-178795170I-2989999J462D01*
G01*
X91415000Y-178795000D02*
X91415000Y-181885000D01*
%TO.C,JP3*%
X230431000Y-90071000D02*
G75*
G03*
X231131000Y-90771000I700000J0D01*
G01*
X231731000Y-90771000D02*
G75*
G03*
X232431000Y-90071000I0J700000D01*
G01*
X231131000Y-87971000D02*
G75*
G03*
X230431000Y-88671000I-1J-699999D01*
G01*
X232431000Y-88671000D02*
G75*
G03*
X231731000Y-87971000I-699999J1D01*
G01*
X231731000Y-90771000D02*
X231131000Y-90771000D01*
X230431000Y-90071000D02*
X230431000Y-88671000D01*
X232431000Y-88671000D02*
X232431000Y-90071000D01*
X231131000Y-87971000D02*
X231731000Y-87971000D01*
%TO.C,K4*%
X227731000Y-100179000D02*
X227731000Y-79589000D01*
X227731000Y-79589000D02*
X217351000Y-79589000D01*
X224031000Y-80649000D02*
X224031000Y-79589000D01*
X222901000Y-81999000D02*
X222901000Y-80799000D01*
X222901000Y-81429000D02*
X224001000Y-81429000D01*
X222901000Y-80799000D02*
X222201000Y-80799000D01*
X222201000Y-81999000D02*
X222901000Y-81999000D01*
X222201000Y-81599000D02*
X222901000Y-81199000D01*
X222201000Y-81429000D02*
X221101000Y-81429000D01*
X222201000Y-80799000D02*
X222201000Y-81999000D01*
X221031000Y-80649000D02*
X224031000Y-80649000D01*
X221031000Y-79589000D02*
X221031000Y-80629000D01*
X217351000Y-100179000D02*
X227731000Y-100179000D01*
X217351000Y-79589000D02*
X217351000Y-100179000D01*
X217191000Y-80739000D02*
X217191000Y-79439000D01*
X217191000Y-79439000D02*
X218401000Y-79439000D01*
%TO.C,J19*%
X265243000Y-108341000D02*
X275463000Y-108341000D01*
X262643000Y-108341000D02*
X263973000Y-108341000D01*
X262643000Y-109671000D02*
X262643000Y-108341000D01*
X265243000Y-110941000D02*
X265243000Y-108341000D01*
X262643000Y-110941000D02*
X265243000Y-110941000D01*
X275463000Y-113541000D02*
X275463000Y-108341000D01*
X262643000Y-113541000D02*
X262643000Y-110941000D01*
X262643000Y-113541000D02*
X275463000Y-113541000D01*
%TO.C,JP1*%
X276659000Y-89817000D02*
G75*
G03*
X277359000Y-90517000I700000J0D01*
G01*
X277959000Y-90517000D02*
G75*
G03*
X278659000Y-89817000I0J700000D01*
G01*
X277359000Y-87717000D02*
G75*
G03*
X276659000Y-88417000I-1J-699999D01*
G01*
X278659000Y-88417000D02*
G75*
G03*
X277959000Y-87717000I-699999J1D01*
G01*
X277959000Y-90517000D02*
X277359000Y-90517000D01*
X276659000Y-89817000D02*
X276659000Y-88417000D01*
X278659000Y-88417000D02*
X278659000Y-89817000D01*
X277359000Y-87717000D02*
X277959000Y-87717000D01*
%TO.C,J10*%
X71526000Y-141722000D02*
X71526000Y-136482000D01*
X71526000Y-146982000D02*
X71796000Y-146832000D01*
X71526000Y-147842000D02*
X71526000Y-146982000D01*
X71916000Y-148482000D02*
X71526000Y-147842000D01*
X72526000Y-148142000D02*
X71916000Y-148482000D01*
X77866000Y-151752000D02*
X77866000Y-156522000D01*
X79366000Y-156522000D02*
X77866000Y-156522000D01*
X79366000Y-156522000D02*
X79366000Y-152452000D01*
X81486000Y-152762000D02*
X81486000Y-154022000D01*
X82166000Y-154222000D02*
X81686000Y-154222000D01*
X82366000Y-152622000D02*
X82366000Y-154022000D01*
X85486000Y-152452000D02*
X85486000Y-152452000D01*
X85486000Y-156522000D02*
X85486000Y-152452000D01*
X86986000Y-154222000D02*
X92326000Y-154222000D01*
X86986000Y-156522000D02*
X85486000Y-156522000D01*
X86986000Y-156522000D02*
X86986000Y-154222000D01*
X93326000Y-146962000D02*
X93326000Y-135602000D01*
X71526000Y-136482000D02*
G75*
G03*
X70469311Y-133404431I-5009993J2D01*
G01*
X73856000Y-129592001D02*
G75*
G03*
X70474021Y-133412968I-1330000J-2229999D01*
G01*
X71796000Y-146831999D02*
G75*
G03*
X72266785Y-145673372I-480000J869999D01*
G01*
X73823798Y-148415832D02*
G75*
G03*
X72526000Y-148142000I-807798J-616169D01*
G01*
X77866000Y-151752000D02*
G75*
G03*
X77799636Y-151592864I-199996J10002D01*
G01*
X93326000Y-135602000D02*
G75*
G03*
X78106950Y-129991263I-10899999J-6119998D01*
G01*
X73856000Y-129592000D02*
G75*
G03*
X78117919Y-129988158I2550000J4310003D01*
G01*
X79557697Y-152242798D02*
G75*
G03*
X79366000Y-152452000I18304J-209202D01*
G01*
X81485999Y-152762000D02*
G75*
G03*
X81327582Y-152566371I-200001J-1D01*
G01*
X81486000Y-154022000D02*
G75*
G03*
X81686000Y-154222000I200001J1D01*
G01*
X82166000Y-154222000D02*
G75*
G03*
X82366000Y-154022000I-1J200001D01*
G01*
X85485999Y-152452000D02*
G75*
G03*
X85286991Y-152242289I-209999J0D01*
G01*
X92156000Y-152811999D02*
G75*
G03*
X91820454Y-150531394I170000J1189999D01*
G01*
X92326000Y-154222000D02*
G75*
G03*
X94377619Y-150024858I0J2600000D01*
G01*
X93326000Y-146962000D02*
G75*
G03*
X94378470Y-150027283I4990000J0D01*
G01*
X73726000Y-131822000D02*
G75*
G03*
X73726000Y-131822000I-1200000J0D01*
G01*
X90326000Y-141722000D02*
G75*
G03*
X90326000Y-141722000I-7900000J0D01*
G01*
X92026000Y-141722000D02*
G75*
G03*
X92026000Y-141722000I-9600000J0D01*
G01*
X93326000Y-141722000D02*
G75*
G03*
X93326000Y-141722000I-10900000J0D01*
G01*
%TO.C,J8*%
X44476000Y-141722000D02*
X44476000Y-136482000D01*
X44476000Y-146982000D02*
X44746000Y-146832000D01*
X44476000Y-147842000D02*
X44476000Y-146982000D01*
X44866000Y-148482000D02*
X44476000Y-147842000D01*
X45476000Y-148142000D02*
X44866000Y-148482000D01*
X50816000Y-151752000D02*
X50816000Y-156522000D01*
X52316000Y-156522000D02*
X50816000Y-156522000D01*
X52316000Y-156522000D02*
X52316000Y-152452000D01*
X54436000Y-152762000D02*
X54436000Y-154022000D01*
X55116000Y-154222000D02*
X54636000Y-154222000D01*
X55316000Y-152622000D02*
X55316000Y-154022000D01*
X58436000Y-152452000D02*
X58436000Y-152452000D01*
X58436000Y-156522000D02*
X58436000Y-152452000D01*
X59936000Y-154222000D02*
X65276000Y-154222000D01*
X59936000Y-156522000D02*
X58436000Y-156522000D01*
X59936000Y-156522000D02*
X59936000Y-154222000D01*
X66276000Y-146962000D02*
X66276000Y-135602000D01*
X44476000Y-136482000D02*
G75*
G03*
X43419311Y-133404431I-5009993J2D01*
G01*
X46806000Y-129592001D02*
G75*
G03*
X43424021Y-133412968I-1330000J-2229999D01*
G01*
X44746000Y-146831999D02*
G75*
G03*
X45216785Y-145673372I-480000J869999D01*
G01*
X46773798Y-148415832D02*
G75*
G03*
X45476000Y-148142000I-807798J-616169D01*
G01*
X50816000Y-151752000D02*
G75*
G03*
X50749636Y-151592864I-199996J10002D01*
G01*
X66276000Y-135602000D02*
G75*
G03*
X51056950Y-129991263I-10899999J-6119998D01*
G01*
X46806000Y-129592000D02*
G75*
G03*
X51067919Y-129988158I2550000J4310003D01*
G01*
X52507697Y-152242798D02*
G75*
G03*
X52316000Y-152452000I18304J-209202D01*
G01*
X54435999Y-152762000D02*
G75*
G03*
X54277582Y-152566371I-200001J-1D01*
G01*
X54436000Y-154022000D02*
G75*
G03*
X54636000Y-154222000I200001J1D01*
G01*
X55116000Y-154222000D02*
G75*
G03*
X55316000Y-154022000I-1J200001D01*
G01*
X58435999Y-152452000D02*
G75*
G03*
X58236991Y-152242289I-209999J0D01*
G01*
X65106000Y-152811999D02*
G75*
G03*
X64770454Y-150531394I170000J1189999D01*
G01*
X65276000Y-154222000D02*
G75*
G03*
X67327619Y-150024858I0J2600000D01*
G01*
X66276000Y-146962000D02*
G75*
G03*
X67328470Y-150027283I4990000J0D01*
G01*
X46676000Y-131822000D02*
G75*
G03*
X46676000Y-131822000I-1200000J0D01*
G01*
X63276000Y-141722000D02*
G75*
G03*
X63276000Y-141722000I-7900000J0D01*
G01*
X64976000Y-141722000D02*
G75*
G03*
X64976000Y-141722000I-9600000J0D01*
G01*
X66276000Y-141722000D02*
G75*
G03*
X66276000Y-141722000I-10900000J0D01*
G01*
%TO.C,JP8*%
X207317000Y-82197000D02*
G75*
G03*
X208017000Y-82897000I700000J0D01*
G01*
X208617000Y-82897000D02*
G75*
G03*
X209317000Y-82197000I0J700000D01*
G01*
X208017000Y-80097000D02*
G75*
G03*
X207317000Y-80797000I-1J-699999D01*
G01*
X209317000Y-80797000D02*
G75*
G03*
X208617000Y-80097000I-699999J1D01*
G01*
X208617000Y-82897000D02*
X208017000Y-82897000D01*
X207317000Y-82197000D02*
X207317000Y-80797000D01*
X209317000Y-80797000D02*
X209317000Y-82197000D01*
X208017000Y-80097000D02*
X208617000Y-80097000D01*
%TO.C,JP15*%
X214651000Y-80797000D02*
G75*
G03*
X213951000Y-80097000I-700000J0D01*
G01*
X213351000Y-80097000D02*
G75*
G03*
X212651000Y-80797000I0J-700000D01*
G01*
X213951000Y-82897000D02*
G75*
G03*
X214651000Y-82197000I1J699999D01*
G01*
X212651000Y-82197000D02*
G75*
G03*
X213351000Y-82897000I699999J-1D01*
G01*
X213351000Y-80097000D02*
X213951000Y-80097000D01*
X214651000Y-80797000D02*
X214651000Y-82197000D01*
X212651000Y-82197000D02*
X212651000Y-80797000D01*
X213951000Y-82897000D02*
X213351000Y-82897000D01*
%TO.C,D5*%
X265999000Y-76417000D02*
X266649000Y-76417000D01*
X266649000Y-75297000D02*
X266649000Y-77537000D01*
X266649000Y-77537000D02*
X270889000Y-77537000D01*
X270049000Y-77537000D02*
X270049000Y-75297000D01*
X270169000Y-77537000D02*
X270169000Y-75297000D01*
X270289000Y-77537000D02*
X270289000Y-75297000D01*
X270889000Y-75297000D02*
X266649000Y-75297000D01*
X270889000Y-77537000D02*
X270889000Y-75297000D01*
X271539000Y-76417000D02*
X270889000Y-76417000D01*
%TO.C,D7*%
X219771000Y-76417000D02*
X220421000Y-76417000D01*
X220421000Y-75297000D02*
X220421000Y-77537000D01*
X220421000Y-77537000D02*
X224661000Y-77537000D01*
X223821000Y-77537000D02*
X223821000Y-75297000D01*
X223941000Y-77537000D02*
X223941000Y-75297000D01*
X224061000Y-77537000D02*
X224061000Y-75297000D01*
X224661000Y-75297000D02*
X220421000Y-75297000D01*
X224661000Y-77537000D02*
X224661000Y-75297000D01*
X225311000Y-76417000D02*
X224661000Y-76417000D01*
%TO.C,D9*%
X141293500Y-81425500D02*
X141293500Y-80775500D01*
X140173500Y-80775500D02*
X142413500Y-80775500D01*
X142413500Y-80775500D02*
X142413500Y-76535500D01*
X142413500Y-77375500D02*
X140173500Y-77375500D01*
X142413500Y-77255500D02*
X140173500Y-77255500D01*
X142413500Y-77135500D02*
X140173500Y-77135500D01*
X140173500Y-76535500D02*
X140173500Y-80775500D01*
X142413500Y-76535500D02*
X140173500Y-76535500D01*
X141293500Y-75885500D02*
X141293500Y-76535500D01*
%TO.C,K1*%
X273959000Y-100179000D02*
X273959000Y-79589000D01*
X273959000Y-79589000D02*
X263579000Y-79589000D01*
X270259000Y-80649000D02*
X270259000Y-79589000D01*
X269129000Y-81999000D02*
X269129000Y-80799000D01*
X269129000Y-81429000D02*
X270229000Y-81429000D01*
X269129000Y-80799000D02*
X268429000Y-80799000D01*
X268429000Y-81999000D02*
X269129000Y-81999000D01*
X268429000Y-81599000D02*
X269129000Y-81199000D01*
X268429000Y-81429000D02*
X267329000Y-81429000D01*
X268429000Y-80799000D02*
X268429000Y-81999000D01*
X267259000Y-80649000D02*
X270259000Y-80649000D01*
X267259000Y-79589000D02*
X267259000Y-80629000D01*
X263579000Y-100179000D02*
X273959000Y-100179000D01*
X263579000Y-79589000D02*
X263579000Y-100179000D01*
X263419000Y-80739000D02*
X263419000Y-79439000D01*
X263419000Y-79439000D02*
X264629000Y-79439000D01*
%TO.C,J16*%
X121680000Y-38348000D02*
G75*
G03*
X121680000Y-38348000I-1200000J0D01*
G01*
X121480000Y-28448000D02*
G75*
G03*
X121480000Y-28448000I-10900000J0D01*
G01*
X101880000Y-18548000D02*
G75*
G03*
X101880000Y-18548000I-1200000J0D01*
G01*
X118510000Y-40048000D02*
G75*
G03*
X122585343Y-36818807I1970000J1700000D01*
G01*
X121480001Y-33398000D02*
G75*
G03*
X122585277Y-36820002I5849999J0D01*
G01*
X115210000Y-40048000D02*
G75*
G03*
X116449479Y-40048769I620000J420000D01*
G01*
X113980000Y-17898000D02*
G75*
G03*
X113774232Y-17610323I-290000J10000D01*
G01*
X113770458Y-17607752D02*
G75*
G03*
X110580000Y-17148000I-3190458J-10840248D01*
G01*
X112405209Y-36544586D02*
G75*
G03*
X108770000Y-36548000I-1825209J8096586D01*
G01*
X102835549Y-16602695D02*
G75*
G03*
X106240000Y-17148000I3404456J10354724D01*
G01*
X104710000Y-40048000D02*
G75*
G03*
X105949479Y-40048769I620000J420000D01*
G01*
X99679999Y-23208000D02*
G75*
G03*
X99185384Y-21039705I-5000002J-1D01*
G01*
X102829999Y-16598001D02*
G75*
G03*
X99181035Y-21033578I-2149999J-1949999D01*
G01*
X121480000Y-33398000D02*
X121480000Y-28448000D01*
X116450000Y-40048000D02*
X118510000Y-40048000D01*
X115140000Y-43248000D02*
X113640000Y-43248000D01*
X115140000Y-40048000D02*
X115210000Y-40048000D01*
X115140000Y-40048000D02*
X115140000Y-43248000D01*
X113980000Y-18088000D02*
X113980000Y-17898000D01*
X113640000Y-40048000D02*
X113640000Y-43248000D01*
X110580000Y-17148000D02*
X106240000Y-17148000D01*
X107520000Y-43248000D02*
X106020000Y-43248000D01*
X107520000Y-40048000D02*
X113640000Y-40048000D01*
X107520000Y-40048000D02*
X107520000Y-43248000D01*
X106340000Y-38698000D02*
X106340000Y-38498000D01*
X106340000Y-38698000D02*
X104030000Y-38698000D01*
X106020000Y-40048000D02*
X106020000Y-43248000D01*
X106020000Y-40048000D02*
X105950000Y-40048000D01*
X104530000Y-40048000D02*
X104710000Y-40048000D01*
X104030000Y-39978000D02*
X104530000Y-40048000D01*
X104030000Y-39978000D02*
X104030000Y-38698000D01*
X99680000Y-23208000D02*
X99680000Y-28448000D01*
%TO.C,JP4*%
X207317000Y-89817000D02*
G75*
G03*
X208017000Y-90517000I700000J0D01*
G01*
X208617000Y-90517000D02*
G75*
G03*
X209317000Y-89817000I0J700000D01*
G01*
X208017000Y-87717000D02*
G75*
G03*
X207317000Y-88417000I-1J-699999D01*
G01*
X209317000Y-88417000D02*
G75*
G03*
X208617000Y-87717000I-699999J1D01*
G01*
X208617000Y-90517000D02*
X208017000Y-90517000D01*
X207317000Y-89817000D02*
X207317000Y-88417000D01*
X209317000Y-88417000D02*
X209317000Y-89817000D01*
X208017000Y-87717000D02*
X208617000Y-87717000D01*
%TO.C,JP14*%
X237765000Y-81051000D02*
G75*
G03*
X237065000Y-80351000I-700000J0D01*
G01*
X236465000Y-80351000D02*
G75*
G03*
X235765000Y-81051000I0J-700000D01*
G01*
X237065000Y-83151000D02*
G75*
G03*
X237765000Y-82451000I1J699999D01*
G01*
X235765000Y-82451000D02*
G75*
G03*
X236465000Y-83151000I699999J-1D01*
G01*
X236465000Y-80351000D02*
X237065000Y-80351000D01*
X237765000Y-81051000D02*
X237765000Y-82451000D01*
X235765000Y-82451000D02*
X235765000Y-81051000D01*
X237065000Y-83151000D02*
X236465000Y-83151000D01*
%TO.C,D10*%
X141293500Y-95141500D02*
X141293500Y-94491500D01*
X140173500Y-94491500D02*
X142413500Y-94491500D01*
X142413500Y-94491500D02*
X142413500Y-90251500D01*
X142413500Y-91091500D02*
X140173500Y-91091500D01*
X142413500Y-90971500D02*
X140173500Y-90971500D01*
X142413500Y-90851500D02*
X140173500Y-90851500D01*
X140173500Y-90251500D02*
X140173500Y-94491500D01*
X142413500Y-90251500D02*
X140173500Y-90251500D01*
X141293500Y-89601500D02*
X141293500Y-90251500D01*
%TO.C,J12*%
X98576000Y-141722000D02*
X98576000Y-136482000D01*
X98576000Y-146982000D02*
X98846000Y-146832000D01*
X98576000Y-147842000D02*
X98576000Y-146982000D01*
X98966000Y-148482000D02*
X98576000Y-147842000D01*
X99576000Y-148142000D02*
X98966000Y-148482000D01*
X104916000Y-151752000D02*
X104916000Y-156522000D01*
X106416000Y-156522000D02*
X104916000Y-156522000D01*
X106416000Y-156522000D02*
X106416000Y-152452000D01*
X108536000Y-152762000D02*
X108536000Y-154022000D01*
X109216000Y-154222000D02*
X108736000Y-154222000D01*
X109416000Y-152622000D02*
X109416000Y-154022000D01*
X112536000Y-152452000D02*
X112536000Y-152452000D01*
X112536000Y-156522000D02*
X112536000Y-152452000D01*
X114036000Y-154222000D02*
X119376000Y-154222000D01*
X114036000Y-156522000D02*
X112536000Y-156522000D01*
X114036000Y-156522000D02*
X114036000Y-154222000D01*
X120376000Y-146962000D02*
X120376000Y-135602000D01*
X98576000Y-136482000D02*
G75*
G03*
X97519311Y-133404431I-5009993J2D01*
G01*
X100906000Y-129592001D02*
G75*
G03*
X97524021Y-133412968I-1330000J-2229999D01*
G01*
X98846000Y-146831999D02*
G75*
G03*
X99316785Y-145673372I-480000J869999D01*
G01*
X100873798Y-148415832D02*
G75*
G03*
X99576000Y-148142000I-807798J-616169D01*
G01*
X104916000Y-151752000D02*
G75*
G03*
X104849636Y-151592864I-199996J10002D01*
G01*
X120376000Y-135602000D02*
G75*
G03*
X105156950Y-129991263I-10899999J-6119998D01*
G01*
X100906000Y-129592000D02*
G75*
G03*
X105167919Y-129988158I2550000J4310003D01*
G01*
X106607697Y-152242798D02*
G75*
G03*
X106416000Y-152452000I18304J-209202D01*
G01*
X108535999Y-152762000D02*
G75*
G03*
X108377582Y-152566371I-200001J-1D01*
G01*
X108536000Y-154022000D02*
G75*
G03*
X108736000Y-154222000I200001J1D01*
G01*
X109216000Y-154222000D02*
G75*
G03*
X109416000Y-154022000I-1J200001D01*
G01*
X112535999Y-152452000D02*
G75*
G03*
X112336991Y-152242289I-209999J0D01*
G01*
X119206000Y-152811999D02*
G75*
G03*
X118870454Y-150531394I170000J1189999D01*
G01*
X119376000Y-154222000D02*
G75*
G03*
X121427619Y-150024858I0J2600000D01*
G01*
X120376000Y-146962000D02*
G75*
G03*
X121428470Y-150027283I4990000J0D01*
G01*
X100776000Y-131822000D02*
G75*
G03*
X100776000Y-131822000I-1200000J0D01*
G01*
X117376000Y-141722000D02*
G75*
G03*
X117376000Y-141722000I-7900000J0D01*
G01*
X119076000Y-141722000D02*
G75*
G03*
X119076000Y-141722000I-9600000J0D01*
G01*
X120376000Y-141722000D02*
G75*
G03*
X120376000Y-141722000I-10900000J0D01*
G01*
%TO.C,R1*%
X94515000Y-187732936D02*
X94515000Y-188187064D01*
X95985000Y-187732936D02*
X95985000Y-188187064D01*
%TO.C,JP10*%
X235765000Y-89959000D02*
G75*
G03*
X236465000Y-90659000I700000J0D01*
G01*
X237065000Y-90659000D02*
G75*
G03*
X237765000Y-89959000I0J700000D01*
G01*
X236465000Y-87859000D02*
G75*
G03*
X235765000Y-88559000I-1J-699999D01*
G01*
X237765000Y-88559000D02*
G75*
G03*
X237065000Y-87859000I-699999J1D01*
G01*
X237065000Y-90659000D02*
X236465000Y-90659000D01*
X235765000Y-89959000D02*
X235765000Y-88559000D01*
X237765000Y-88559000D02*
X237765000Y-89959000D01*
X236465000Y-87859000D02*
X237065000Y-87859000D01*
%TO.C,D12*%
X141293500Y-109111500D02*
X141293500Y-108461500D01*
X140173500Y-108461500D02*
X142413500Y-108461500D01*
X142413500Y-108461500D02*
X142413500Y-104221500D01*
X142413500Y-105061500D02*
X140173500Y-105061500D01*
X142413500Y-104941500D02*
X140173500Y-104941500D01*
X142413500Y-104821500D02*
X140173500Y-104821500D01*
X140173500Y-104221500D02*
X140173500Y-108461500D01*
X142413500Y-104221500D02*
X140173500Y-104221500D01*
X141293500Y-103571500D02*
X141293500Y-104221500D01*
%TO.C,D3*%
X71075000Y-180340000D02*
G75*
G03*
X71075000Y-180340000I-2500000J0D01*
G01*
X66015000Y-181884830D02*
G75*
G03*
X71565000Y-180339538I2560000J1544830D01*
G01*
X71564999Y-180340462D02*
G75*
G03*
X66015001Y-178795170I-2989999J462D01*
G01*
X66015000Y-178795000D02*
X66015000Y-181885000D01*
%TO.C,K7*%
X165531000Y-115121500D02*
X144941000Y-115121500D01*
X144941000Y-115121500D02*
X144941000Y-125501500D01*
X146001000Y-118821500D02*
X144941000Y-118821500D01*
X147351000Y-119951500D02*
X146151000Y-119951500D01*
X146781000Y-119951500D02*
X146781000Y-118851500D01*
X146151000Y-119951500D02*
X146151000Y-120651500D01*
X147351000Y-120651500D02*
X147351000Y-119951500D01*
X146951000Y-120651500D02*
X146551000Y-119951500D01*
X146781000Y-120651500D02*
X146781000Y-121751500D01*
X146151000Y-120651500D02*
X147351000Y-120651500D01*
X146001000Y-121821500D02*
X146001000Y-118821500D01*
X144941000Y-121821500D02*
X145981000Y-121821500D01*
X165531000Y-125501500D02*
X165531000Y-115121500D01*
X144941000Y-125501500D02*
X165531000Y-125501500D01*
X146091000Y-125661500D02*
X144791000Y-125661500D01*
X144791000Y-125661500D02*
X144791000Y-124451500D01*
%TO.C,J13*%
X39630000Y-38348000D02*
G75*
G03*
X39630000Y-38348000I-1200000J0D01*
G01*
X39430000Y-28448000D02*
G75*
G03*
X39430000Y-28448000I-10900000J0D01*
G01*
X19830000Y-18548000D02*
G75*
G03*
X19830000Y-18548000I-1200000J0D01*
G01*
X36460000Y-40048000D02*
G75*
G03*
X40535343Y-36818807I1970000J1700000D01*
G01*
X39430001Y-33398000D02*
G75*
G03*
X40535277Y-36820002I5849999J0D01*
G01*
X33160000Y-40048000D02*
G75*
G03*
X34399479Y-40048769I620000J420000D01*
G01*
X31930000Y-17898000D02*
G75*
G03*
X31724232Y-17610323I-290000J10000D01*
G01*
X31720458Y-17607752D02*
G75*
G03*
X28530000Y-17148000I-3190458J-10840248D01*
G01*
X30355209Y-36544586D02*
G75*
G03*
X26720000Y-36548000I-1825209J8096586D01*
G01*
X20785549Y-16602695D02*
G75*
G03*
X24190000Y-17148000I3404456J10354724D01*
G01*
X22660000Y-40048000D02*
G75*
G03*
X23899479Y-40048769I620000J420000D01*
G01*
X17629999Y-23208000D02*
G75*
G03*
X17135384Y-21039705I-5000002J-1D01*
G01*
X20779999Y-16598001D02*
G75*
G03*
X17131035Y-21033578I-2149999J-1949999D01*
G01*
X39430000Y-33398000D02*
X39430000Y-28448000D01*
X34400000Y-40048000D02*
X36460000Y-40048000D01*
X33090000Y-43248000D02*
X31590000Y-43248000D01*
X33090000Y-40048000D02*
X33160000Y-40048000D01*
X33090000Y-40048000D02*
X33090000Y-43248000D01*
X31930000Y-18088000D02*
X31930000Y-17898000D01*
X31590000Y-40048000D02*
X31590000Y-43248000D01*
X28530000Y-17148000D02*
X24190000Y-17148000D01*
X25470000Y-43248000D02*
X23970000Y-43248000D01*
X25470000Y-40048000D02*
X31590000Y-40048000D01*
X25470000Y-40048000D02*
X25470000Y-43248000D01*
X24290000Y-38698000D02*
X24290000Y-38498000D01*
X24290000Y-38698000D02*
X21980000Y-38698000D01*
X23970000Y-40048000D02*
X23970000Y-43248000D01*
X23970000Y-40048000D02*
X23900000Y-40048000D01*
X22480000Y-40048000D02*
X22660000Y-40048000D01*
X21980000Y-39978000D02*
X22480000Y-40048000D01*
X21980000Y-39978000D02*
X21980000Y-38698000D01*
X17630000Y-23208000D02*
X17630000Y-28448000D01*
%TO.C,J18*%
X237497000Y-113327000D02*
X227277000Y-113327000D01*
X240097000Y-113327000D02*
X238767000Y-113327000D01*
X240097000Y-111997000D02*
X240097000Y-113327000D01*
X237497000Y-110727000D02*
X237497000Y-113327000D01*
X240097000Y-110727000D02*
X237497000Y-110727000D01*
X227277000Y-108127000D02*
X227277000Y-113327000D01*
X240097000Y-108127000D02*
X240097000Y-110727000D01*
X240097000Y-108127000D02*
X227277000Y-108127000D01*
%TO.C,D11*%
X141261000Y-123081500D02*
X141261000Y-122431500D01*
X140141000Y-122431500D02*
X142381000Y-122431500D01*
X142381000Y-122431500D02*
X142381000Y-118191500D01*
X142381000Y-119031500D02*
X140141000Y-119031500D01*
X142381000Y-118911500D02*
X140141000Y-118911500D01*
X142381000Y-118791500D02*
X140141000Y-118791500D01*
X140141000Y-118191500D02*
X140141000Y-122431500D01*
X142381000Y-118191500D02*
X140141000Y-118191500D01*
X141261000Y-117541500D02*
X141261000Y-118191500D01*
%TO.C,K8*%
X165563500Y-101151500D02*
X144973500Y-101151500D01*
X144973500Y-101151500D02*
X144973500Y-111531500D01*
X146033500Y-104851500D02*
X144973500Y-104851500D01*
X147383500Y-105981500D02*
X146183500Y-105981500D01*
X146813500Y-105981500D02*
X146813500Y-104881500D01*
X146183500Y-105981500D02*
X146183500Y-106681500D01*
X147383500Y-106681500D02*
X147383500Y-105981500D01*
X146983500Y-106681500D02*
X146583500Y-105981500D01*
X146813500Y-106681500D02*
X146813500Y-107781500D01*
X146183500Y-106681500D02*
X147383500Y-106681500D01*
X146033500Y-107851500D02*
X146033500Y-104851500D01*
X144973500Y-107851500D02*
X146013500Y-107851500D01*
X165563500Y-111531500D02*
X165563500Y-101151500D01*
X144973500Y-111531500D02*
X165563500Y-111531500D01*
X146123500Y-111691500D02*
X144823500Y-111691500D01*
X144823500Y-111691500D02*
X144823500Y-110481500D01*
%TO.C,J5*%
X17294000Y-86868000D02*
X17294000Y-81628000D01*
X17294000Y-92128000D02*
X17564000Y-91978000D01*
X17294000Y-92988000D02*
X17294000Y-92128000D01*
X17684000Y-93628000D02*
X17294000Y-92988000D01*
X18294000Y-93288000D02*
X17684000Y-93628000D01*
X23634000Y-96898000D02*
X23634000Y-101668000D01*
X25134000Y-101668000D02*
X23634000Y-101668000D01*
X25134000Y-101668000D02*
X25134000Y-97598000D01*
X27254000Y-97908000D02*
X27254000Y-99168000D01*
X27934000Y-99368000D02*
X27454000Y-99368000D01*
X28134000Y-97768000D02*
X28134000Y-99168000D01*
X31254000Y-97598000D02*
X31254000Y-97598000D01*
X31254000Y-101668000D02*
X31254000Y-97598000D01*
X32754000Y-99368000D02*
X38094000Y-99368000D01*
X32754000Y-101668000D02*
X31254000Y-101668000D01*
X32754000Y-101668000D02*
X32754000Y-99368000D01*
X39094000Y-92108000D02*
X39094000Y-80748000D01*
X17294000Y-81628000D02*
G75*
G03*
X16237311Y-78550431I-5009993J2D01*
G01*
X19624000Y-74738001D02*
G75*
G03*
X16242021Y-78558968I-1330000J-2229999D01*
G01*
X17564000Y-91977999D02*
G75*
G03*
X18034785Y-90819372I-480000J869999D01*
G01*
X19591798Y-93561832D02*
G75*
G03*
X18294000Y-93288000I-807798J-616169D01*
G01*
X23634000Y-96898000D02*
G75*
G03*
X23567636Y-96738864I-199996J10002D01*
G01*
X39094000Y-80748000D02*
G75*
G03*
X23874950Y-75137263I-10899999J-6119998D01*
G01*
X19624000Y-74738000D02*
G75*
G03*
X23885919Y-75134158I2550000J4310003D01*
G01*
X25325697Y-97388798D02*
G75*
G03*
X25134000Y-97598000I18304J-209202D01*
G01*
X27253999Y-97908000D02*
G75*
G03*
X27095582Y-97712371I-200001J-1D01*
G01*
X27254000Y-99168000D02*
G75*
G03*
X27454000Y-99368000I200001J1D01*
G01*
X27934000Y-99368000D02*
G75*
G03*
X28134000Y-99168000I-1J200001D01*
G01*
X31253999Y-97598000D02*
G75*
G03*
X31054991Y-97388289I-209999J0D01*
G01*
X37924000Y-97957999D02*
G75*
G03*
X37588454Y-95677394I170000J1189999D01*
G01*
X38094000Y-99368000D02*
G75*
G03*
X40145619Y-95170858I0J2600000D01*
G01*
X39094000Y-92108000D02*
G75*
G03*
X40146470Y-95173283I4990000J0D01*
G01*
X19494000Y-76968000D02*
G75*
G03*
X19494000Y-76968000I-1200000J0D01*
G01*
X36094000Y-86868000D02*
G75*
G03*
X36094000Y-86868000I-7900000J0D01*
G01*
X37794000Y-86868000D02*
G75*
G03*
X37794000Y-86868000I-9600000J0D01*
G01*
X39094000Y-86868000D02*
G75*
G03*
X39094000Y-86868000I-10900000J0D01*
G01*
%TD*%
M02*
