%TF.GenerationSoftware,KiCad,Pcbnew,7.0.6*%
%TF.CreationDate,2023-11-23T12:56:36+01:00*%
%TF.ProjectId,xlrfemale,786c7266-656d-4616-9c65-2e6b69636164,1*%
%TF.SameCoordinates,Original*%
%TF.FileFunction,Copper,L1,Top*%
%TF.FilePolarity,Positive*%
%FSLAX46Y46*%
G04 Gerber Fmt 4.6, Leading zero omitted, Abs format (unit mm)*
G04 Created by KiCad (PCBNEW 7.0.6) date 2023-11-23 12:56:36*
%MOMM*%
%LPD*%
G01*
G04 APERTURE LIST*
G04 Aperture macros list*
%AMRoundRect*
0 Rectangle with rounded corners*
0 $1 Rounding radius*
0 $2 $3 $4 $5 $6 $7 $8 $9 X,Y pos of 4 corners*
0 Add a 4 corners polygon primitive as box body*
4,1,4,$2,$3,$4,$5,$6,$7,$8,$9,$2,$3,0*
0 Add four circle primitives for the rounded corners*
1,1,$1+$1,$2,$3*
1,1,$1+$1,$4,$5*
1,1,$1+$1,$6,$7*
1,1,$1+$1,$8,$9*
0 Add four rect primitives between the rounded corners*
20,1,$1+$1,$2,$3,$4,$5,0*
20,1,$1+$1,$4,$5,$6,$7,0*
20,1,$1+$1,$6,$7,$8,$9,0*
20,1,$1+$1,$8,$9,$2,$3,0*%
G04 Aperture macros list end*
%TA.AperFunction,ComponentPad*%
%ADD10C,3.400000*%
%TD*%
%TA.AperFunction,ComponentPad*%
%ADD11C,2.900000*%
%TD*%
%TA.AperFunction,ComponentPad*%
%ADD12RoundRect,0.249999X1.025001X-1.025001X1.025001X1.025001X-1.025001X1.025001X-1.025001X-1.025001X0*%
%TD*%
%TA.AperFunction,ComponentPad*%
%ADD13R,1.700000X1.700000*%
%TD*%
%TA.AperFunction,ComponentPad*%
%ADD14O,1.700000X1.700000*%
%TD*%
%TA.AperFunction,Conductor*%
%ADD15C,0.250000*%
%TD*%
G04 APERTURE END LIST*
D10*
%TO.P,J7,1*%
%TO.N,N/C*%
X135254000Y-91948000D03*
%TO.P,J7,2*%
X127634000Y-91948000D03*
D11*
%TO.P,J7,3*%
X131444000Y-96398000D03*
%TO.P,J7,G*%
X139694000Y-102108000D03*
%TD*%
D10*
%TO.P,J11,1*%
%TO.N,N/C*%
X189354000Y-91948000D03*
%TO.P,J11,2*%
X181734000Y-91948000D03*
D11*
%TO.P,J11,3*%
X185544000Y-96398000D03*
%TO.P,J11,G*%
X193794000Y-102108000D03*
%TD*%
D10*
%TO.P,J9,1*%
%TO.N,N/C*%
X162304000Y-91948000D03*
%TO.P,J9,2*%
X154684000Y-91948000D03*
D11*
%TO.P,J9,3*%
X158494000Y-96398000D03*
%TO.P,J9,G*%
X166744000Y-102108000D03*
%TD*%
D10*
%TO.P,J5,1*%
%TO.N,N/C*%
X108204000Y-91948000D03*
%TO.P,J5,2*%
X100584000Y-91948000D03*
D11*
%TO.P,J5,3*%
X104394000Y-96398000D03*
%TO.P,J5,G*%
X112644000Y-102108000D03*
%TD*%
D12*
%TO.P,J25,1,Pin_1*%
%TO.N,N/C*%
X154940000Y-114300000D03*
%TD*%
D13*
%TO.P,J17,1,Pin_1*%
%TO.N,N/C*%
X132364000Y-115590000D03*
D14*
%TO.P,J17,2,Pin_2*%
X132364000Y-113050000D03*
%TO.P,J17,3,Pin_3*%
X134904000Y-115590000D03*
%TO.P,J17,4,Pin_4*%
X134904000Y-113050000D03*
%TO.P,J17,5,Pin_5*%
X137444000Y-115590000D03*
%TO.P,J17,6,Pin_6*%
X137444000Y-113050000D03*
%TO.P,J17,7,Pin_7*%
X139984000Y-115590000D03*
%TO.P,J17,8,Pin_8*%
X139984000Y-113050000D03*
%TO.P,J17,9,Pin_9*%
X142524000Y-115590000D03*
%TO.P,J17,10,Pin_10*%
X142524000Y-113050000D03*
%TD*%
D12*
%TO.P,J22,1,Pin_1*%
%TO.N,N/C*%
X149860000Y-114300000D03*
%TD*%
D15*
%TO.N,*%
X100584000Y-91948000D02*
X100584000Y-95098230D01*
X182374000Y-99568000D02*
X153924000Y-99568000D01*
X133604000Y-112628299D02*
X133604000Y-114290000D01*
X129560000Y-115590000D02*
X132364000Y-115590000D01*
X141349000Y-114415000D02*
X142524000Y-115590000D01*
X181734000Y-91948000D02*
X175509000Y-98173000D01*
X154684000Y-93982000D02*
X138684000Y-109982000D01*
X131444000Y-96398000D02*
X134904000Y-99858000D01*
X129550000Y-110236000D02*
X132364000Y-113050000D01*
X100584000Y-95098230D02*
X117753770Y-112268000D01*
X134904000Y-99858000D02*
X134904000Y-113050000D01*
X185544000Y-96398000D02*
X182374000Y-99568000D01*
X158494000Y-96398000D02*
X153538000Y-96398000D01*
X118232000Y-110236000D02*
X129550000Y-110236000D01*
X153538000Y-96398000D02*
X139984000Y-109952000D01*
X133604000Y-114290000D02*
X134904000Y-115590000D01*
X104394000Y-96398000D02*
X118232000Y-110236000D01*
X117753770Y-112268000D02*
X126238000Y-112268000D01*
X126238000Y-112268000D02*
X129560000Y-115590000D01*
X175509000Y-98173000D02*
X153878150Y-98173000D01*
X139984000Y-109952000D02*
X139984000Y-113050000D01*
X138684000Y-109982000D02*
X138684000Y-114290000D01*
X153924000Y-99568000D02*
X142524000Y-110968000D01*
X153878150Y-98173000D02*
X141349000Y-110702150D01*
X138684000Y-114290000D02*
X139984000Y-115590000D01*
X142524000Y-110968000D02*
X142524000Y-113050000D01*
X127634000Y-106658299D02*
X133604000Y-112628299D01*
X127634000Y-91948000D02*
X127634000Y-106658299D01*
X141349000Y-110702150D02*
X141349000Y-114415000D01*
X154684000Y-91948000D02*
X154684000Y-93982000D01*
%TD*%
M02*
