M48
; DRILL file {KiCad 7.0.6} date Thu Nov 23 12:56:34 2023
; FORMAT={-:-/ absolute / inch / decimal}
; #@! TF.CreationDate,2023-11-23T12:56:34+01:00
; #@! TF.GenerationSoftware,Kicad,Pcbnew,7.0.6
; #@! TF.FileFunction,Plated,1,2,PTH
FMAT,2
INCH
; #@! TA.AperFunction,Plated,PTH,ComponentDrill
T1C0.0394
; #@! TA.AperFunction,Plated,PTH,ComponentDrill
T2C0.0472
; #@! TA.AperFunction,Plated,PTH,ComponentDrill
T3C0.0610
; #@! TA.AperFunction,Plated,PTH,ComponentDrill
T4C0.0630
%
G90
G05
T1
X5.2112Y-4.4508
X5.2112Y-4.5508
X5.3112Y-4.4508
X5.3112Y-4.5508
X5.4112Y-4.4508
X5.4112Y-4.5508
X5.5112Y-4.4508
X5.5112Y-4.5508
X5.6112Y-4.4508
X5.6112Y-4.5508
T2
X4.11Y-3.7952
X4.4348Y-4.02
X5.175Y-3.7952
X5.4998Y-4.02
X6.2399Y-3.7952
X6.5647Y-4.02
X7.3049Y-3.7952
X7.6297Y-4.02
T3
X5.9Y-4.5
X6.1Y-4.5
T4
X3.96Y-3.62
X4.26Y-3.62
X5.025Y-3.62
X5.325Y-3.62
X6.0899Y-3.62
X6.3899Y-3.62
X7.1549Y-3.62
X7.4549Y-3.62
T0
M30
