%TF.GenerationSoftware,KiCad,Pcbnew,7.0.6*%
%TF.CreationDate,2023-11-23T12:56:35+01:00*%
%TF.ProjectId,xlrfemale,786c7266-656d-4616-9c65-2e6b69636164,1*%
%TF.SameCoordinates,Original*%
%TF.FileFunction,Drillmap*%
%TF.FilePolarity,Positive*%
%FSLAX45Y45*%
G04 Gerber Fmt 4.5, Leading zero omitted, Abs format (unit mm)*
G04 Created by KiCad (PCBNEW 7.0.6) date 2023-11-23 12:56:35*
%MOMM*%
%LPD*%
G01*
G04 APERTURE LIST*
%ADD10C,0.100000*%
%ADD11C,0.200000*%
%ADD12C,0.120000*%
%ADD13C,0.155000*%
%ADD14C,0.160000*%
G04 APERTURE END LIST*
D10*
X8890000Y-7620000D02*
X20066000Y-7620000D01*
X20066000Y-11938000D01*
X8890000Y-11938000D01*
X8890000Y-7620000D01*
D11*
D10*
X13186400Y-11255000D02*
X13286400Y-11355000D01*
X13286400Y-11255000D02*
X13186400Y-11355000D01*
X13186400Y-11509000D02*
X13286400Y-11609000D01*
X13286400Y-11509000D02*
X13186400Y-11609000D01*
X13440400Y-11255000D02*
X13540400Y-11355000D01*
X13540400Y-11255000D02*
X13440400Y-11355000D01*
X13440400Y-11509000D02*
X13540400Y-11609000D01*
X13540400Y-11509000D02*
X13440400Y-11609000D01*
X13694400Y-11255000D02*
X13794400Y-11355000D01*
X13794400Y-11255000D02*
X13694400Y-11355000D01*
X13694400Y-11509000D02*
X13794400Y-11609000D01*
X13794400Y-11509000D02*
X13694400Y-11609000D01*
X13948400Y-11255000D02*
X14048400Y-11355000D01*
X14048400Y-11255000D02*
X13948400Y-11355000D01*
X13948400Y-11509000D02*
X14048400Y-11609000D01*
X14048400Y-11509000D02*
X13948400Y-11609000D01*
X14202400Y-11255000D02*
X14302400Y-11355000D01*
X14302400Y-11255000D02*
X14202400Y-11355000D01*
X14202400Y-11509000D02*
X14302400Y-11609000D01*
X14302400Y-11509000D02*
X14202400Y-11609000D01*
D12*
X10499400Y-9639800D02*
G75*
G03*
X10499400Y-9639800I-60000J0D01*
G01*
X11324400Y-10210800D02*
G75*
G03*
X11324400Y-10210800I-60000J0D01*
G01*
X13204400Y-9639800D02*
G75*
G03*
X13204400Y-9639800I-60000J0D01*
G01*
X14029400Y-10210800D02*
G75*
G03*
X14029400Y-10210800I-60000J0D01*
G01*
X15909400Y-9639800D02*
G75*
G03*
X15909400Y-9639800I-60000J0D01*
G01*
X16734400Y-10210800D02*
G75*
G03*
X16734400Y-10210800I-60000J0D01*
G01*
X18614400Y-9639800D02*
G75*
G03*
X18614400Y-9639800I-60000J0D01*
G01*
X19439400Y-10210800D02*
G75*
G03*
X19439400Y-10210800I-60000J0D01*
G01*
D13*
X14986000Y-11352500D02*
X14986000Y-11507500D01*
X14908500Y-11430000D02*
X15063500Y-11430000D01*
X15494000Y-11352500D02*
X15494000Y-11507500D01*
X15416500Y-11430000D02*
X15571500Y-11430000D01*
D14*
X10114969Y-9251369D02*
X10114969Y-9138231D01*
X10001831Y-9138231D01*
X10001831Y-9251369D01*
X10114969Y-9251369D01*
X10876969Y-9251369D02*
X10876969Y-9138231D01*
X10763831Y-9138231D01*
X10763831Y-9251369D01*
X10876969Y-9251369D01*
X12819969Y-9251369D02*
X12819969Y-9138231D01*
X12706831Y-9138231D01*
X12706831Y-9251369D01*
X12819969Y-9251369D01*
X13581969Y-9251369D02*
X13581969Y-9138231D01*
X13468831Y-9138231D01*
X13468831Y-9251369D01*
X13581969Y-9251369D01*
X15524969Y-9251369D02*
X15524969Y-9138231D01*
X15411831Y-9138231D01*
X15411831Y-9251369D01*
X15524969Y-9251369D01*
X16286969Y-9251369D02*
X16286969Y-9138231D01*
X16173831Y-9138231D01*
X16173831Y-9251369D01*
X16286969Y-9251369D01*
X18229969Y-9251369D02*
X18229969Y-9138231D01*
X18116831Y-9138231D01*
X18116831Y-9251369D01*
X18229969Y-9251369D01*
X18991969Y-9251369D02*
X18991969Y-9138231D01*
X18878831Y-9138231D01*
X18878831Y-9251369D01*
X18991969Y-9251369D01*
D11*
X9145777Y-12254484D02*
X9145777Y-12054484D01*
X9145777Y-12054484D02*
X9193396Y-12054484D01*
X9193396Y-12054484D02*
X9221967Y-12064008D01*
X9221967Y-12064008D02*
X9241015Y-12083055D01*
X9241015Y-12083055D02*
X9250539Y-12102103D01*
X9250539Y-12102103D02*
X9260063Y-12140198D01*
X9260063Y-12140198D02*
X9260063Y-12168769D01*
X9260063Y-12168769D02*
X9250539Y-12206865D01*
X9250539Y-12206865D02*
X9241015Y-12225912D01*
X9241015Y-12225912D02*
X9221967Y-12244960D01*
X9221967Y-12244960D02*
X9193396Y-12254484D01*
X9193396Y-12254484D02*
X9145777Y-12254484D01*
X9345777Y-12254484D02*
X9345777Y-12121150D01*
X9345777Y-12159246D02*
X9355301Y-12140198D01*
X9355301Y-12140198D02*
X9364824Y-12130674D01*
X9364824Y-12130674D02*
X9383872Y-12121150D01*
X9383872Y-12121150D02*
X9402920Y-12121150D01*
X9469586Y-12254484D02*
X9469586Y-12121150D01*
X9469586Y-12054484D02*
X9460063Y-12064008D01*
X9460063Y-12064008D02*
X9469586Y-12073531D01*
X9469586Y-12073531D02*
X9479110Y-12064008D01*
X9479110Y-12064008D02*
X9469586Y-12054484D01*
X9469586Y-12054484D02*
X9469586Y-12073531D01*
X9593396Y-12254484D02*
X9574348Y-12244960D01*
X9574348Y-12244960D02*
X9564824Y-12225912D01*
X9564824Y-12225912D02*
X9564824Y-12054484D01*
X9698158Y-12254484D02*
X9679110Y-12244960D01*
X9679110Y-12244960D02*
X9669586Y-12225912D01*
X9669586Y-12225912D02*
X9669586Y-12054484D01*
X9926729Y-12254484D02*
X9926729Y-12054484D01*
X9926729Y-12054484D02*
X9993396Y-12197341D01*
X9993396Y-12197341D02*
X10060063Y-12054484D01*
X10060063Y-12054484D02*
X10060063Y-12254484D01*
X10241015Y-12254484D02*
X10241015Y-12149722D01*
X10241015Y-12149722D02*
X10231491Y-12130674D01*
X10231491Y-12130674D02*
X10212444Y-12121150D01*
X10212444Y-12121150D02*
X10174348Y-12121150D01*
X10174348Y-12121150D02*
X10155301Y-12130674D01*
X10241015Y-12244960D02*
X10221967Y-12254484D01*
X10221967Y-12254484D02*
X10174348Y-12254484D01*
X10174348Y-12254484D02*
X10155301Y-12244960D01*
X10155301Y-12244960D02*
X10145777Y-12225912D01*
X10145777Y-12225912D02*
X10145777Y-12206865D01*
X10145777Y-12206865D02*
X10155301Y-12187817D01*
X10155301Y-12187817D02*
X10174348Y-12178293D01*
X10174348Y-12178293D02*
X10221967Y-12178293D01*
X10221967Y-12178293D02*
X10241015Y-12168769D01*
X10336253Y-12121150D02*
X10336253Y-12321150D01*
X10336253Y-12130674D02*
X10355301Y-12121150D01*
X10355301Y-12121150D02*
X10393396Y-12121150D01*
X10393396Y-12121150D02*
X10412444Y-12130674D01*
X10412444Y-12130674D02*
X10421967Y-12140198D01*
X10421967Y-12140198D02*
X10431491Y-12159246D01*
X10431491Y-12159246D02*
X10431491Y-12216388D01*
X10431491Y-12216388D02*
X10421967Y-12235436D01*
X10421967Y-12235436D02*
X10412444Y-12244960D01*
X10412444Y-12244960D02*
X10393396Y-12254484D01*
X10393396Y-12254484D02*
X10355301Y-12254484D01*
X10355301Y-12254484D02*
X10336253Y-12244960D01*
X10517205Y-12235436D02*
X10526729Y-12244960D01*
X10526729Y-12244960D02*
X10517205Y-12254484D01*
X10517205Y-12254484D02*
X10507682Y-12244960D01*
X10507682Y-12244960D02*
X10517205Y-12235436D01*
X10517205Y-12235436D02*
X10517205Y-12254484D01*
X10517205Y-12130674D02*
X10526729Y-12140198D01*
X10526729Y-12140198D02*
X10517205Y-12149722D01*
X10517205Y-12149722D02*
X10507682Y-12140198D01*
X10507682Y-12140198D02*
X10517205Y-12130674D01*
X10517205Y-12130674D02*
X10517205Y-12149722D01*
D10*
X8785000Y-12533000D02*
X8885000Y-12633000D01*
X8885000Y-12533000D02*
X8785000Y-12633000D01*
D11*
X9250539Y-12674484D02*
X9136253Y-12674484D01*
X9193396Y-12674484D02*
X9193396Y-12474484D01*
X9193396Y-12474484D02*
X9174348Y-12503055D01*
X9174348Y-12503055D02*
X9155301Y-12522103D01*
X9155301Y-12522103D02*
X9136253Y-12531627D01*
X9336253Y-12655436D02*
X9345777Y-12664960D01*
X9345777Y-12664960D02*
X9336253Y-12674484D01*
X9336253Y-12674484D02*
X9326729Y-12664960D01*
X9326729Y-12664960D02*
X9336253Y-12655436D01*
X9336253Y-12655436D02*
X9336253Y-12674484D01*
X9469586Y-12474484D02*
X9488634Y-12474484D01*
X9488634Y-12474484D02*
X9507682Y-12484008D01*
X9507682Y-12484008D02*
X9517205Y-12493531D01*
X9517205Y-12493531D02*
X9526729Y-12512579D01*
X9526729Y-12512579D02*
X9536253Y-12550674D01*
X9536253Y-12550674D02*
X9536253Y-12598293D01*
X9536253Y-12598293D02*
X9526729Y-12636388D01*
X9526729Y-12636388D02*
X9517205Y-12655436D01*
X9517205Y-12655436D02*
X9507682Y-12664960D01*
X9507682Y-12664960D02*
X9488634Y-12674484D01*
X9488634Y-12674484D02*
X9469586Y-12674484D01*
X9469586Y-12674484D02*
X9450539Y-12664960D01*
X9450539Y-12664960D02*
X9441015Y-12655436D01*
X9441015Y-12655436D02*
X9431491Y-12636388D01*
X9431491Y-12636388D02*
X9421967Y-12598293D01*
X9421967Y-12598293D02*
X9421967Y-12550674D01*
X9421967Y-12550674D02*
X9431491Y-12512579D01*
X9431491Y-12512579D02*
X9441015Y-12493531D01*
X9441015Y-12493531D02*
X9450539Y-12484008D01*
X9450539Y-12484008D02*
X9469586Y-12474484D01*
X9660063Y-12474484D02*
X9679110Y-12474484D01*
X9679110Y-12474484D02*
X9698158Y-12484008D01*
X9698158Y-12484008D02*
X9707682Y-12493531D01*
X9707682Y-12493531D02*
X9717205Y-12512579D01*
X9717205Y-12512579D02*
X9726729Y-12550674D01*
X9726729Y-12550674D02*
X9726729Y-12598293D01*
X9726729Y-12598293D02*
X9717205Y-12636388D01*
X9717205Y-12636388D02*
X9707682Y-12655436D01*
X9707682Y-12655436D02*
X9698158Y-12664960D01*
X9698158Y-12664960D02*
X9679110Y-12674484D01*
X9679110Y-12674484D02*
X9660063Y-12674484D01*
X9660063Y-12674484D02*
X9641015Y-12664960D01*
X9641015Y-12664960D02*
X9631491Y-12655436D01*
X9631491Y-12655436D02*
X9621967Y-12636388D01*
X9621967Y-12636388D02*
X9612444Y-12598293D01*
X9612444Y-12598293D02*
X9612444Y-12550674D01*
X9612444Y-12550674D02*
X9621967Y-12512579D01*
X9621967Y-12512579D02*
X9631491Y-12493531D01*
X9631491Y-12493531D02*
X9641015Y-12484008D01*
X9641015Y-12484008D02*
X9660063Y-12474484D01*
X9850539Y-12474484D02*
X9869586Y-12474484D01*
X9869586Y-12474484D02*
X9888634Y-12484008D01*
X9888634Y-12484008D02*
X9898158Y-12493531D01*
X9898158Y-12493531D02*
X9907682Y-12512579D01*
X9907682Y-12512579D02*
X9917205Y-12550674D01*
X9917205Y-12550674D02*
X9917205Y-12598293D01*
X9917205Y-12598293D02*
X9907682Y-12636388D01*
X9907682Y-12636388D02*
X9898158Y-12655436D01*
X9898158Y-12655436D02*
X9888634Y-12664960D01*
X9888634Y-12664960D02*
X9869586Y-12674484D01*
X9869586Y-12674484D02*
X9850539Y-12674484D01*
X9850539Y-12674484D02*
X9831491Y-12664960D01*
X9831491Y-12664960D02*
X9821967Y-12655436D01*
X9821967Y-12655436D02*
X9812444Y-12636388D01*
X9812444Y-12636388D02*
X9802920Y-12598293D01*
X9802920Y-12598293D02*
X9802920Y-12550674D01*
X9802920Y-12550674D02*
X9812444Y-12512579D01*
X9812444Y-12512579D02*
X9821967Y-12493531D01*
X9821967Y-12493531D02*
X9831491Y-12484008D01*
X9831491Y-12484008D02*
X9850539Y-12474484D01*
X10002920Y-12674484D02*
X10002920Y-12541150D01*
X10002920Y-12560198D02*
X10012444Y-12550674D01*
X10012444Y-12550674D02*
X10031491Y-12541150D01*
X10031491Y-12541150D02*
X10060063Y-12541150D01*
X10060063Y-12541150D02*
X10079110Y-12550674D01*
X10079110Y-12550674D02*
X10088634Y-12569722D01*
X10088634Y-12569722D02*
X10088634Y-12674484D01*
X10088634Y-12569722D02*
X10098158Y-12550674D01*
X10098158Y-12550674D02*
X10117205Y-12541150D01*
X10117205Y-12541150D02*
X10145777Y-12541150D01*
X10145777Y-12541150D02*
X10164825Y-12550674D01*
X10164825Y-12550674D02*
X10174348Y-12569722D01*
X10174348Y-12569722D02*
X10174348Y-12674484D01*
X10269586Y-12674484D02*
X10269586Y-12541150D01*
X10269586Y-12560198D02*
X10279110Y-12550674D01*
X10279110Y-12550674D02*
X10298158Y-12541150D01*
X10298158Y-12541150D02*
X10326729Y-12541150D01*
X10326729Y-12541150D02*
X10345777Y-12550674D01*
X10345777Y-12550674D02*
X10355301Y-12569722D01*
X10355301Y-12569722D02*
X10355301Y-12674484D01*
X10355301Y-12569722D02*
X10364825Y-12550674D01*
X10364825Y-12550674D02*
X10383872Y-12541150D01*
X10383872Y-12541150D02*
X10412444Y-12541150D01*
X10412444Y-12541150D02*
X10431491Y-12550674D01*
X10431491Y-12550674D02*
X10441015Y-12569722D01*
X10441015Y-12569722D02*
X10441015Y-12674484D01*
X10831491Y-12464960D02*
X10660063Y-12722103D01*
X11088634Y-12474484D02*
X11107682Y-12474484D01*
X11107682Y-12474484D02*
X11126729Y-12484008D01*
X11126729Y-12484008D02*
X11136253Y-12493531D01*
X11136253Y-12493531D02*
X11145777Y-12512579D01*
X11145777Y-12512579D02*
X11155301Y-12550674D01*
X11155301Y-12550674D02*
X11155301Y-12598293D01*
X11155301Y-12598293D02*
X11145777Y-12636388D01*
X11145777Y-12636388D02*
X11136253Y-12655436D01*
X11136253Y-12655436D02*
X11126729Y-12664960D01*
X11126729Y-12664960D02*
X11107682Y-12674484D01*
X11107682Y-12674484D02*
X11088634Y-12674484D01*
X11088634Y-12674484D02*
X11069587Y-12664960D01*
X11069587Y-12664960D02*
X11060063Y-12655436D01*
X11060063Y-12655436D02*
X11050539Y-12636388D01*
X11050539Y-12636388D02*
X11041015Y-12598293D01*
X11041015Y-12598293D02*
X11041015Y-12550674D01*
X11041015Y-12550674D02*
X11050539Y-12512579D01*
X11050539Y-12512579D02*
X11060063Y-12493531D01*
X11060063Y-12493531D02*
X11069587Y-12484008D01*
X11069587Y-12484008D02*
X11088634Y-12474484D01*
X11241015Y-12655436D02*
X11250539Y-12664960D01*
X11250539Y-12664960D02*
X11241015Y-12674484D01*
X11241015Y-12674484D02*
X11231491Y-12664960D01*
X11231491Y-12664960D02*
X11241015Y-12655436D01*
X11241015Y-12655436D02*
X11241015Y-12674484D01*
X11374348Y-12474484D02*
X11393396Y-12474484D01*
X11393396Y-12474484D02*
X11412444Y-12484008D01*
X11412444Y-12484008D02*
X11421967Y-12493531D01*
X11421967Y-12493531D02*
X11431491Y-12512579D01*
X11431491Y-12512579D02*
X11441015Y-12550674D01*
X11441015Y-12550674D02*
X11441015Y-12598293D01*
X11441015Y-12598293D02*
X11431491Y-12636388D01*
X11431491Y-12636388D02*
X11421967Y-12655436D01*
X11421967Y-12655436D02*
X11412444Y-12664960D01*
X11412444Y-12664960D02*
X11393396Y-12674484D01*
X11393396Y-12674484D02*
X11374348Y-12674484D01*
X11374348Y-12674484D02*
X11355301Y-12664960D01*
X11355301Y-12664960D02*
X11345777Y-12655436D01*
X11345777Y-12655436D02*
X11336253Y-12636388D01*
X11336253Y-12636388D02*
X11326729Y-12598293D01*
X11326729Y-12598293D02*
X11326729Y-12550674D01*
X11326729Y-12550674D02*
X11336253Y-12512579D01*
X11336253Y-12512579D02*
X11345777Y-12493531D01*
X11345777Y-12493531D02*
X11355301Y-12484008D01*
X11355301Y-12484008D02*
X11374348Y-12474484D01*
X11507682Y-12474484D02*
X11631491Y-12474484D01*
X11631491Y-12474484D02*
X11564825Y-12550674D01*
X11564825Y-12550674D02*
X11593396Y-12550674D01*
X11593396Y-12550674D02*
X11612444Y-12560198D01*
X11612444Y-12560198D02*
X11621967Y-12569722D01*
X11621967Y-12569722D02*
X11631491Y-12588769D01*
X11631491Y-12588769D02*
X11631491Y-12636388D01*
X11631491Y-12636388D02*
X11621967Y-12655436D01*
X11621967Y-12655436D02*
X11612444Y-12664960D01*
X11612444Y-12664960D02*
X11593396Y-12674484D01*
X11593396Y-12674484D02*
X11536253Y-12674484D01*
X11536253Y-12674484D02*
X11517206Y-12664960D01*
X11517206Y-12664960D02*
X11507682Y-12655436D01*
X11726729Y-12674484D02*
X11764825Y-12674484D01*
X11764825Y-12674484D02*
X11783872Y-12664960D01*
X11783872Y-12664960D02*
X11793396Y-12655436D01*
X11793396Y-12655436D02*
X11812444Y-12626865D01*
X11812444Y-12626865D02*
X11821967Y-12588769D01*
X11821967Y-12588769D02*
X11821967Y-12512579D01*
X11821967Y-12512579D02*
X11812444Y-12493531D01*
X11812444Y-12493531D02*
X11802920Y-12484008D01*
X11802920Y-12484008D02*
X11783872Y-12474484D01*
X11783872Y-12474484D02*
X11745777Y-12474484D01*
X11745777Y-12474484D02*
X11726729Y-12484008D01*
X11726729Y-12484008D02*
X11717206Y-12493531D01*
X11717206Y-12493531D02*
X11707682Y-12512579D01*
X11707682Y-12512579D02*
X11707682Y-12560198D01*
X11707682Y-12560198D02*
X11717206Y-12579246D01*
X11717206Y-12579246D02*
X11726729Y-12588769D01*
X11726729Y-12588769D02*
X11745777Y-12598293D01*
X11745777Y-12598293D02*
X11783872Y-12598293D01*
X11783872Y-12598293D02*
X11802920Y-12588769D01*
X11802920Y-12588769D02*
X11812444Y-12579246D01*
X11812444Y-12579246D02*
X11821967Y-12560198D01*
X11993396Y-12541150D02*
X11993396Y-12674484D01*
X11945777Y-12464960D02*
X11898158Y-12607817D01*
X11898158Y-12607817D02*
X12021967Y-12607817D01*
X12088634Y-12474484D02*
X12088634Y-12512579D01*
X12164825Y-12474484D02*
X12164825Y-12512579D01*
X12460063Y-12750674D02*
X12450539Y-12741150D01*
X12450539Y-12741150D02*
X12431491Y-12712579D01*
X12431491Y-12712579D02*
X12421968Y-12693531D01*
X12421968Y-12693531D02*
X12412444Y-12664960D01*
X12412444Y-12664960D02*
X12402920Y-12617341D01*
X12402920Y-12617341D02*
X12402920Y-12579246D01*
X12402920Y-12579246D02*
X12412444Y-12531627D01*
X12412444Y-12531627D02*
X12421968Y-12503055D01*
X12421968Y-12503055D02*
X12431491Y-12484008D01*
X12431491Y-12484008D02*
X12450539Y-12455436D01*
X12450539Y-12455436D02*
X12460063Y-12445912D01*
X12641015Y-12674484D02*
X12526729Y-12674484D01*
X12583872Y-12674484D02*
X12583872Y-12474484D01*
X12583872Y-12474484D02*
X12564825Y-12503055D01*
X12564825Y-12503055D02*
X12545777Y-12522103D01*
X12545777Y-12522103D02*
X12526729Y-12531627D01*
X12764825Y-12474484D02*
X12783872Y-12474484D01*
X12783872Y-12474484D02*
X12802920Y-12484008D01*
X12802920Y-12484008D02*
X12812444Y-12493531D01*
X12812444Y-12493531D02*
X12821968Y-12512579D01*
X12821968Y-12512579D02*
X12831491Y-12550674D01*
X12831491Y-12550674D02*
X12831491Y-12598293D01*
X12831491Y-12598293D02*
X12821968Y-12636388D01*
X12821968Y-12636388D02*
X12812444Y-12655436D01*
X12812444Y-12655436D02*
X12802920Y-12664960D01*
X12802920Y-12664960D02*
X12783872Y-12674484D01*
X12783872Y-12674484D02*
X12764825Y-12674484D01*
X12764825Y-12674484D02*
X12745777Y-12664960D01*
X12745777Y-12664960D02*
X12736253Y-12655436D01*
X12736253Y-12655436D02*
X12726729Y-12636388D01*
X12726729Y-12636388D02*
X12717206Y-12598293D01*
X12717206Y-12598293D02*
X12717206Y-12550674D01*
X12717206Y-12550674D02*
X12726729Y-12512579D01*
X12726729Y-12512579D02*
X12736253Y-12493531D01*
X12736253Y-12493531D02*
X12745777Y-12484008D01*
X12745777Y-12484008D02*
X12764825Y-12474484D01*
X13069587Y-12674484D02*
X13069587Y-12474484D01*
X13155301Y-12674484D02*
X13155301Y-12569722D01*
X13155301Y-12569722D02*
X13145777Y-12550674D01*
X13145777Y-12550674D02*
X13126730Y-12541150D01*
X13126730Y-12541150D02*
X13098158Y-12541150D01*
X13098158Y-12541150D02*
X13079110Y-12550674D01*
X13079110Y-12550674D02*
X13069587Y-12560198D01*
X13279110Y-12674484D02*
X13260063Y-12664960D01*
X13260063Y-12664960D02*
X13250539Y-12655436D01*
X13250539Y-12655436D02*
X13241015Y-12636388D01*
X13241015Y-12636388D02*
X13241015Y-12579246D01*
X13241015Y-12579246D02*
X13250539Y-12560198D01*
X13250539Y-12560198D02*
X13260063Y-12550674D01*
X13260063Y-12550674D02*
X13279110Y-12541150D01*
X13279110Y-12541150D02*
X13307682Y-12541150D01*
X13307682Y-12541150D02*
X13326730Y-12550674D01*
X13326730Y-12550674D02*
X13336253Y-12560198D01*
X13336253Y-12560198D02*
X13345777Y-12579246D01*
X13345777Y-12579246D02*
X13345777Y-12636388D01*
X13345777Y-12636388D02*
X13336253Y-12655436D01*
X13336253Y-12655436D02*
X13326730Y-12664960D01*
X13326730Y-12664960D02*
X13307682Y-12674484D01*
X13307682Y-12674484D02*
X13279110Y-12674484D01*
X13460063Y-12674484D02*
X13441015Y-12664960D01*
X13441015Y-12664960D02*
X13431491Y-12645912D01*
X13431491Y-12645912D02*
X13431491Y-12474484D01*
X13612444Y-12664960D02*
X13593396Y-12674484D01*
X13593396Y-12674484D02*
X13555301Y-12674484D01*
X13555301Y-12674484D02*
X13536253Y-12664960D01*
X13536253Y-12664960D02*
X13526730Y-12645912D01*
X13526730Y-12645912D02*
X13526730Y-12569722D01*
X13526730Y-12569722D02*
X13536253Y-12550674D01*
X13536253Y-12550674D02*
X13555301Y-12541150D01*
X13555301Y-12541150D02*
X13593396Y-12541150D01*
X13593396Y-12541150D02*
X13612444Y-12550674D01*
X13612444Y-12550674D02*
X13621968Y-12569722D01*
X13621968Y-12569722D02*
X13621968Y-12588769D01*
X13621968Y-12588769D02*
X13526730Y-12607817D01*
X13698158Y-12664960D02*
X13717206Y-12674484D01*
X13717206Y-12674484D02*
X13755301Y-12674484D01*
X13755301Y-12674484D02*
X13774349Y-12664960D01*
X13774349Y-12664960D02*
X13783872Y-12645912D01*
X13783872Y-12645912D02*
X13783872Y-12636388D01*
X13783872Y-12636388D02*
X13774349Y-12617341D01*
X13774349Y-12617341D02*
X13755301Y-12607817D01*
X13755301Y-12607817D02*
X13726730Y-12607817D01*
X13726730Y-12607817D02*
X13707682Y-12598293D01*
X13707682Y-12598293D02*
X13698158Y-12579246D01*
X13698158Y-12579246D02*
X13698158Y-12569722D01*
X13698158Y-12569722D02*
X13707682Y-12550674D01*
X13707682Y-12550674D02*
X13726730Y-12541150D01*
X13726730Y-12541150D02*
X13755301Y-12541150D01*
X13755301Y-12541150D02*
X13774349Y-12550674D01*
X13850539Y-12750674D02*
X13860063Y-12741150D01*
X13860063Y-12741150D02*
X13879111Y-12712579D01*
X13879111Y-12712579D02*
X13888634Y-12693531D01*
X13888634Y-12693531D02*
X13898158Y-12664960D01*
X13898158Y-12664960D02*
X13907682Y-12617341D01*
X13907682Y-12617341D02*
X13907682Y-12579246D01*
X13907682Y-12579246D02*
X13898158Y-12531627D01*
X13898158Y-12531627D02*
X13888634Y-12503055D01*
X13888634Y-12503055D02*
X13879111Y-12484008D01*
X13879111Y-12484008D02*
X13860063Y-12455436D01*
X13860063Y-12455436D02*
X13850539Y-12445912D01*
D12*
X8885000Y-12847000D02*
G75*
G03*
X8885000Y-12847000I-60000J0D01*
G01*
D11*
X9250539Y-12938484D02*
X9136253Y-12938484D01*
X9193396Y-12938484D02*
X9193396Y-12738484D01*
X9193396Y-12738484D02*
X9174348Y-12767055D01*
X9174348Y-12767055D02*
X9155301Y-12786103D01*
X9155301Y-12786103D02*
X9136253Y-12795627D01*
X9336253Y-12919436D02*
X9345777Y-12928960D01*
X9345777Y-12928960D02*
X9336253Y-12938484D01*
X9336253Y-12938484D02*
X9326729Y-12928960D01*
X9326729Y-12928960D02*
X9336253Y-12919436D01*
X9336253Y-12919436D02*
X9336253Y-12938484D01*
X9421967Y-12757531D02*
X9431491Y-12748008D01*
X9431491Y-12748008D02*
X9450539Y-12738484D01*
X9450539Y-12738484D02*
X9498158Y-12738484D01*
X9498158Y-12738484D02*
X9517205Y-12748008D01*
X9517205Y-12748008D02*
X9526729Y-12757531D01*
X9526729Y-12757531D02*
X9536253Y-12776579D01*
X9536253Y-12776579D02*
X9536253Y-12795627D01*
X9536253Y-12795627D02*
X9526729Y-12824198D01*
X9526729Y-12824198D02*
X9412444Y-12938484D01*
X9412444Y-12938484D02*
X9536253Y-12938484D01*
X9660063Y-12738484D02*
X9679110Y-12738484D01*
X9679110Y-12738484D02*
X9698158Y-12748008D01*
X9698158Y-12748008D02*
X9707682Y-12757531D01*
X9707682Y-12757531D02*
X9717205Y-12776579D01*
X9717205Y-12776579D02*
X9726729Y-12814674D01*
X9726729Y-12814674D02*
X9726729Y-12862293D01*
X9726729Y-12862293D02*
X9717205Y-12900388D01*
X9717205Y-12900388D02*
X9707682Y-12919436D01*
X9707682Y-12919436D02*
X9698158Y-12928960D01*
X9698158Y-12928960D02*
X9679110Y-12938484D01*
X9679110Y-12938484D02*
X9660063Y-12938484D01*
X9660063Y-12938484D02*
X9641015Y-12928960D01*
X9641015Y-12928960D02*
X9631491Y-12919436D01*
X9631491Y-12919436D02*
X9621967Y-12900388D01*
X9621967Y-12900388D02*
X9612444Y-12862293D01*
X9612444Y-12862293D02*
X9612444Y-12814674D01*
X9612444Y-12814674D02*
X9621967Y-12776579D01*
X9621967Y-12776579D02*
X9631491Y-12757531D01*
X9631491Y-12757531D02*
X9641015Y-12748008D01*
X9641015Y-12748008D02*
X9660063Y-12738484D01*
X9850539Y-12738484D02*
X9869586Y-12738484D01*
X9869586Y-12738484D02*
X9888634Y-12748008D01*
X9888634Y-12748008D02*
X9898158Y-12757531D01*
X9898158Y-12757531D02*
X9907682Y-12776579D01*
X9907682Y-12776579D02*
X9917205Y-12814674D01*
X9917205Y-12814674D02*
X9917205Y-12862293D01*
X9917205Y-12862293D02*
X9907682Y-12900388D01*
X9907682Y-12900388D02*
X9898158Y-12919436D01*
X9898158Y-12919436D02*
X9888634Y-12928960D01*
X9888634Y-12928960D02*
X9869586Y-12938484D01*
X9869586Y-12938484D02*
X9850539Y-12938484D01*
X9850539Y-12938484D02*
X9831491Y-12928960D01*
X9831491Y-12928960D02*
X9821967Y-12919436D01*
X9821967Y-12919436D02*
X9812444Y-12900388D01*
X9812444Y-12900388D02*
X9802920Y-12862293D01*
X9802920Y-12862293D02*
X9802920Y-12814674D01*
X9802920Y-12814674D02*
X9812444Y-12776579D01*
X9812444Y-12776579D02*
X9821967Y-12757531D01*
X9821967Y-12757531D02*
X9831491Y-12748008D01*
X9831491Y-12748008D02*
X9850539Y-12738484D01*
X10002920Y-12938484D02*
X10002920Y-12805150D01*
X10002920Y-12824198D02*
X10012444Y-12814674D01*
X10012444Y-12814674D02*
X10031491Y-12805150D01*
X10031491Y-12805150D02*
X10060063Y-12805150D01*
X10060063Y-12805150D02*
X10079110Y-12814674D01*
X10079110Y-12814674D02*
X10088634Y-12833722D01*
X10088634Y-12833722D02*
X10088634Y-12938484D01*
X10088634Y-12833722D02*
X10098158Y-12814674D01*
X10098158Y-12814674D02*
X10117205Y-12805150D01*
X10117205Y-12805150D02*
X10145777Y-12805150D01*
X10145777Y-12805150D02*
X10164825Y-12814674D01*
X10164825Y-12814674D02*
X10174348Y-12833722D01*
X10174348Y-12833722D02*
X10174348Y-12938484D01*
X10269586Y-12938484D02*
X10269586Y-12805150D01*
X10269586Y-12824198D02*
X10279110Y-12814674D01*
X10279110Y-12814674D02*
X10298158Y-12805150D01*
X10298158Y-12805150D02*
X10326729Y-12805150D01*
X10326729Y-12805150D02*
X10345777Y-12814674D01*
X10345777Y-12814674D02*
X10355301Y-12833722D01*
X10355301Y-12833722D02*
X10355301Y-12938484D01*
X10355301Y-12833722D02*
X10364825Y-12814674D01*
X10364825Y-12814674D02*
X10383872Y-12805150D01*
X10383872Y-12805150D02*
X10412444Y-12805150D01*
X10412444Y-12805150D02*
X10431491Y-12814674D01*
X10431491Y-12814674D02*
X10441015Y-12833722D01*
X10441015Y-12833722D02*
X10441015Y-12938484D01*
X10831491Y-12728960D02*
X10660063Y-12986103D01*
X11088634Y-12738484D02*
X11107682Y-12738484D01*
X11107682Y-12738484D02*
X11126729Y-12748008D01*
X11126729Y-12748008D02*
X11136253Y-12757531D01*
X11136253Y-12757531D02*
X11145777Y-12776579D01*
X11145777Y-12776579D02*
X11155301Y-12814674D01*
X11155301Y-12814674D02*
X11155301Y-12862293D01*
X11155301Y-12862293D02*
X11145777Y-12900388D01*
X11145777Y-12900388D02*
X11136253Y-12919436D01*
X11136253Y-12919436D02*
X11126729Y-12928960D01*
X11126729Y-12928960D02*
X11107682Y-12938484D01*
X11107682Y-12938484D02*
X11088634Y-12938484D01*
X11088634Y-12938484D02*
X11069587Y-12928960D01*
X11069587Y-12928960D02*
X11060063Y-12919436D01*
X11060063Y-12919436D02*
X11050539Y-12900388D01*
X11050539Y-12900388D02*
X11041015Y-12862293D01*
X11041015Y-12862293D02*
X11041015Y-12814674D01*
X11041015Y-12814674D02*
X11050539Y-12776579D01*
X11050539Y-12776579D02*
X11060063Y-12757531D01*
X11060063Y-12757531D02*
X11069587Y-12748008D01*
X11069587Y-12748008D02*
X11088634Y-12738484D01*
X11241015Y-12919436D02*
X11250539Y-12928960D01*
X11250539Y-12928960D02*
X11241015Y-12938484D01*
X11241015Y-12938484D02*
X11231491Y-12928960D01*
X11231491Y-12928960D02*
X11241015Y-12919436D01*
X11241015Y-12919436D02*
X11241015Y-12938484D01*
X11374348Y-12738484D02*
X11393396Y-12738484D01*
X11393396Y-12738484D02*
X11412444Y-12748008D01*
X11412444Y-12748008D02*
X11421967Y-12757531D01*
X11421967Y-12757531D02*
X11431491Y-12776579D01*
X11431491Y-12776579D02*
X11441015Y-12814674D01*
X11441015Y-12814674D02*
X11441015Y-12862293D01*
X11441015Y-12862293D02*
X11431491Y-12900388D01*
X11431491Y-12900388D02*
X11421967Y-12919436D01*
X11421967Y-12919436D02*
X11412444Y-12928960D01*
X11412444Y-12928960D02*
X11393396Y-12938484D01*
X11393396Y-12938484D02*
X11374348Y-12938484D01*
X11374348Y-12938484D02*
X11355301Y-12928960D01*
X11355301Y-12928960D02*
X11345777Y-12919436D01*
X11345777Y-12919436D02*
X11336253Y-12900388D01*
X11336253Y-12900388D02*
X11326729Y-12862293D01*
X11326729Y-12862293D02*
X11326729Y-12814674D01*
X11326729Y-12814674D02*
X11336253Y-12776579D01*
X11336253Y-12776579D02*
X11345777Y-12757531D01*
X11345777Y-12757531D02*
X11355301Y-12748008D01*
X11355301Y-12748008D02*
X11374348Y-12738484D01*
X11612444Y-12805150D02*
X11612444Y-12938484D01*
X11564825Y-12728960D02*
X11517206Y-12871817D01*
X11517206Y-12871817D02*
X11641015Y-12871817D01*
X11698158Y-12738484D02*
X11831491Y-12738484D01*
X11831491Y-12738484D02*
X11745777Y-12938484D01*
X11898158Y-12757531D02*
X11907682Y-12748008D01*
X11907682Y-12748008D02*
X11926729Y-12738484D01*
X11926729Y-12738484D02*
X11974348Y-12738484D01*
X11974348Y-12738484D02*
X11993396Y-12748008D01*
X11993396Y-12748008D02*
X12002920Y-12757531D01*
X12002920Y-12757531D02*
X12012444Y-12776579D01*
X12012444Y-12776579D02*
X12012444Y-12795627D01*
X12012444Y-12795627D02*
X12002920Y-12824198D01*
X12002920Y-12824198D02*
X11888634Y-12938484D01*
X11888634Y-12938484D02*
X12012444Y-12938484D01*
X12088634Y-12738484D02*
X12088634Y-12776579D01*
X12164825Y-12738484D02*
X12164825Y-12776579D01*
X12460063Y-13014674D02*
X12450539Y-13005150D01*
X12450539Y-13005150D02*
X12431491Y-12976579D01*
X12431491Y-12976579D02*
X12421968Y-12957531D01*
X12421968Y-12957531D02*
X12412444Y-12928960D01*
X12412444Y-12928960D02*
X12402920Y-12881341D01*
X12402920Y-12881341D02*
X12402920Y-12843246D01*
X12402920Y-12843246D02*
X12412444Y-12795627D01*
X12412444Y-12795627D02*
X12421968Y-12767055D01*
X12421968Y-12767055D02*
X12431491Y-12748008D01*
X12431491Y-12748008D02*
X12450539Y-12719436D01*
X12450539Y-12719436D02*
X12460063Y-12709912D01*
X12564825Y-12824198D02*
X12545777Y-12814674D01*
X12545777Y-12814674D02*
X12536253Y-12805150D01*
X12536253Y-12805150D02*
X12526729Y-12786103D01*
X12526729Y-12786103D02*
X12526729Y-12776579D01*
X12526729Y-12776579D02*
X12536253Y-12757531D01*
X12536253Y-12757531D02*
X12545777Y-12748008D01*
X12545777Y-12748008D02*
X12564825Y-12738484D01*
X12564825Y-12738484D02*
X12602920Y-12738484D01*
X12602920Y-12738484D02*
X12621968Y-12748008D01*
X12621968Y-12748008D02*
X12631491Y-12757531D01*
X12631491Y-12757531D02*
X12641015Y-12776579D01*
X12641015Y-12776579D02*
X12641015Y-12786103D01*
X12641015Y-12786103D02*
X12631491Y-12805150D01*
X12631491Y-12805150D02*
X12621968Y-12814674D01*
X12621968Y-12814674D02*
X12602920Y-12824198D01*
X12602920Y-12824198D02*
X12564825Y-12824198D01*
X12564825Y-12824198D02*
X12545777Y-12833722D01*
X12545777Y-12833722D02*
X12536253Y-12843246D01*
X12536253Y-12843246D02*
X12526729Y-12862293D01*
X12526729Y-12862293D02*
X12526729Y-12900388D01*
X12526729Y-12900388D02*
X12536253Y-12919436D01*
X12536253Y-12919436D02*
X12545777Y-12928960D01*
X12545777Y-12928960D02*
X12564825Y-12938484D01*
X12564825Y-12938484D02*
X12602920Y-12938484D01*
X12602920Y-12938484D02*
X12621968Y-12928960D01*
X12621968Y-12928960D02*
X12631491Y-12919436D01*
X12631491Y-12919436D02*
X12641015Y-12900388D01*
X12641015Y-12900388D02*
X12641015Y-12862293D01*
X12641015Y-12862293D02*
X12631491Y-12843246D01*
X12631491Y-12843246D02*
X12621968Y-12833722D01*
X12621968Y-12833722D02*
X12602920Y-12824198D01*
X12879110Y-12938484D02*
X12879110Y-12738484D01*
X12964825Y-12938484D02*
X12964825Y-12833722D01*
X12964825Y-12833722D02*
X12955301Y-12814674D01*
X12955301Y-12814674D02*
X12936253Y-12805150D01*
X12936253Y-12805150D02*
X12907682Y-12805150D01*
X12907682Y-12805150D02*
X12888634Y-12814674D01*
X12888634Y-12814674D02*
X12879110Y-12824198D01*
X13088634Y-12938484D02*
X13069587Y-12928960D01*
X13069587Y-12928960D02*
X13060063Y-12919436D01*
X13060063Y-12919436D02*
X13050539Y-12900388D01*
X13050539Y-12900388D02*
X13050539Y-12843246D01*
X13050539Y-12843246D02*
X13060063Y-12824198D01*
X13060063Y-12824198D02*
X13069587Y-12814674D01*
X13069587Y-12814674D02*
X13088634Y-12805150D01*
X13088634Y-12805150D02*
X13117206Y-12805150D01*
X13117206Y-12805150D02*
X13136253Y-12814674D01*
X13136253Y-12814674D02*
X13145777Y-12824198D01*
X13145777Y-12824198D02*
X13155301Y-12843246D01*
X13155301Y-12843246D02*
X13155301Y-12900388D01*
X13155301Y-12900388D02*
X13145777Y-12919436D01*
X13145777Y-12919436D02*
X13136253Y-12928960D01*
X13136253Y-12928960D02*
X13117206Y-12938484D01*
X13117206Y-12938484D02*
X13088634Y-12938484D01*
X13269587Y-12938484D02*
X13250539Y-12928960D01*
X13250539Y-12928960D02*
X13241015Y-12909912D01*
X13241015Y-12909912D02*
X13241015Y-12738484D01*
X13421968Y-12928960D02*
X13402920Y-12938484D01*
X13402920Y-12938484D02*
X13364825Y-12938484D01*
X13364825Y-12938484D02*
X13345777Y-12928960D01*
X13345777Y-12928960D02*
X13336253Y-12909912D01*
X13336253Y-12909912D02*
X13336253Y-12833722D01*
X13336253Y-12833722D02*
X13345777Y-12814674D01*
X13345777Y-12814674D02*
X13364825Y-12805150D01*
X13364825Y-12805150D02*
X13402920Y-12805150D01*
X13402920Y-12805150D02*
X13421968Y-12814674D01*
X13421968Y-12814674D02*
X13431491Y-12833722D01*
X13431491Y-12833722D02*
X13431491Y-12852769D01*
X13431491Y-12852769D02*
X13336253Y-12871817D01*
X13507682Y-12928960D02*
X13526730Y-12938484D01*
X13526730Y-12938484D02*
X13564825Y-12938484D01*
X13564825Y-12938484D02*
X13583872Y-12928960D01*
X13583872Y-12928960D02*
X13593396Y-12909912D01*
X13593396Y-12909912D02*
X13593396Y-12900388D01*
X13593396Y-12900388D02*
X13583872Y-12881341D01*
X13583872Y-12881341D02*
X13564825Y-12871817D01*
X13564825Y-12871817D02*
X13536253Y-12871817D01*
X13536253Y-12871817D02*
X13517206Y-12862293D01*
X13517206Y-12862293D02*
X13507682Y-12843246D01*
X13507682Y-12843246D02*
X13507682Y-12833722D01*
X13507682Y-12833722D02*
X13517206Y-12814674D01*
X13517206Y-12814674D02*
X13536253Y-12805150D01*
X13536253Y-12805150D02*
X13564825Y-12805150D01*
X13564825Y-12805150D02*
X13583872Y-12814674D01*
X13660063Y-13014674D02*
X13669587Y-13005150D01*
X13669587Y-13005150D02*
X13688634Y-12976579D01*
X13688634Y-12976579D02*
X13698158Y-12957531D01*
X13698158Y-12957531D02*
X13707682Y-12928960D01*
X13707682Y-12928960D02*
X13717206Y-12881341D01*
X13717206Y-12881341D02*
X13717206Y-12843246D01*
X13717206Y-12843246D02*
X13707682Y-12795627D01*
X13707682Y-12795627D02*
X13698158Y-12767055D01*
X13698158Y-12767055D02*
X13688634Y-12748008D01*
X13688634Y-12748008D02*
X13669587Y-12719436D01*
X13669587Y-12719436D02*
X13660063Y-12709912D01*
D13*
X8807500Y-13033500D02*
X8807500Y-13188500D01*
X8730000Y-13111000D02*
X8885000Y-13111000D01*
D11*
X9250539Y-13202484D02*
X9136253Y-13202484D01*
X9193396Y-13202484D02*
X9193396Y-13002484D01*
X9193396Y-13002484D02*
X9174348Y-13031055D01*
X9174348Y-13031055D02*
X9155301Y-13050103D01*
X9155301Y-13050103D02*
X9136253Y-13059627D01*
X9336253Y-13183436D02*
X9345777Y-13192960D01*
X9345777Y-13192960D02*
X9336253Y-13202484D01*
X9336253Y-13202484D02*
X9326729Y-13192960D01*
X9326729Y-13192960D02*
X9336253Y-13183436D01*
X9336253Y-13183436D02*
X9336253Y-13202484D01*
X9526729Y-13002484D02*
X9431491Y-13002484D01*
X9431491Y-13002484D02*
X9421967Y-13097722D01*
X9421967Y-13097722D02*
X9431491Y-13088198D01*
X9431491Y-13088198D02*
X9450539Y-13078674D01*
X9450539Y-13078674D02*
X9498158Y-13078674D01*
X9498158Y-13078674D02*
X9517205Y-13088198D01*
X9517205Y-13088198D02*
X9526729Y-13097722D01*
X9526729Y-13097722D02*
X9536253Y-13116769D01*
X9536253Y-13116769D02*
X9536253Y-13164388D01*
X9536253Y-13164388D02*
X9526729Y-13183436D01*
X9526729Y-13183436D02*
X9517205Y-13192960D01*
X9517205Y-13192960D02*
X9498158Y-13202484D01*
X9498158Y-13202484D02*
X9450539Y-13202484D01*
X9450539Y-13202484D02*
X9431491Y-13192960D01*
X9431491Y-13192960D02*
X9421967Y-13183436D01*
X9717205Y-13002484D02*
X9621967Y-13002484D01*
X9621967Y-13002484D02*
X9612444Y-13097722D01*
X9612444Y-13097722D02*
X9621967Y-13088198D01*
X9621967Y-13088198D02*
X9641015Y-13078674D01*
X9641015Y-13078674D02*
X9688634Y-13078674D01*
X9688634Y-13078674D02*
X9707682Y-13088198D01*
X9707682Y-13088198D02*
X9717205Y-13097722D01*
X9717205Y-13097722D02*
X9726729Y-13116769D01*
X9726729Y-13116769D02*
X9726729Y-13164388D01*
X9726729Y-13164388D02*
X9717205Y-13183436D01*
X9717205Y-13183436D02*
X9707682Y-13192960D01*
X9707682Y-13192960D02*
X9688634Y-13202484D01*
X9688634Y-13202484D02*
X9641015Y-13202484D01*
X9641015Y-13202484D02*
X9621967Y-13192960D01*
X9621967Y-13192960D02*
X9612444Y-13183436D01*
X9850539Y-13002484D02*
X9869586Y-13002484D01*
X9869586Y-13002484D02*
X9888634Y-13012008D01*
X9888634Y-13012008D02*
X9898158Y-13021531D01*
X9898158Y-13021531D02*
X9907682Y-13040579D01*
X9907682Y-13040579D02*
X9917205Y-13078674D01*
X9917205Y-13078674D02*
X9917205Y-13126293D01*
X9917205Y-13126293D02*
X9907682Y-13164388D01*
X9907682Y-13164388D02*
X9898158Y-13183436D01*
X9898158Y-13183436D02*
X9888634Y-13192960D01*
X9888634Y-13192960D02*
X9869586Y-13202484D01*
X9869586Y-13202484D02*
X9850539Y-13202484D01*
X9850539Y-13202484D02*
X9831491Y-13192960D01*
X9831491Y-13192960D02*
X9821967Y-13183436D01*
X9821967Y-13183436D02*
X9812444Y-13164388D01*
X9812444Y-13164388D02*
X9802920Y-13126293D01*
X9802920Y-13126293D02*
X9802920Y-13078674D01*
X9802920Y-13078674D02*
X9812444Y-13040579D01*
X9812444Y-13040579D02*
X9821967Y-13021531D01*
X9821967Y-13021531D02*
X9831491Y-13012008D01*
X9831491Y-13012008D02*
X9850539Y-13002484D01*
X10002920Y-13202484D02*
X10002920Y-13069150D01*
X10002920Y-13088198D02*
X10012444Y-13078674D01*
X10012444Y-13078674D02*
X10031491Y-13069150D01*
X10031491Y-13069150D02*
X10060063Y-13069150D01*
X10060063Y-13069150D02*
X10079110Y-13078674D01*
X10079110Y-13078674D02*
X10088634Y-13097722D01*
X10088634Y-13097722D02*
X10088634Y-13202484D01*
X10088634Y-13097722D02*
X10098158Y-13078674D01*
X10098158Y-13078674D02*
X10117205Y-13069150D01*
X10117205Y-13069150D02*
X10145777Y-13069150D01*
X10145777Y-13069150D02*
X10164825Y-13078674D01*
X10164825Y-13078674D02*
X10174348Y-13097722D01*
X10174348Y-13097722D02*
X10174348Y-13202484D01*
X10269586Y-13202484D02*
X10269586Y-13069150D01*
X10269586Y-13088198D02*
X10279110Y-13078674D01*
X10279110Y-13078674D02*
X10298158Y-13069150D01*
X10298158Y-13069150D02*
X10326729Y-13069150D01*
X10326729Y-13069150D02*
X10345777Y-13078674D01*
X10345777Y-13078674D02*
X10355301Y-13097722D01*
X10355301Y-13097722D02*
X10355301Y-13202484D01*
X10355301Y-13097722D02*
X10364825Y-13078674D01*
X10364825Y-13078674D02*
X10383872Y-13069150D01*
X10383872Y-13069150D02*
X10412444Y-13069150D01*
X10412444Y-13069150D02*
X10431491Y-13078674D01*
X10431491Y-13078674D02*
X10441015Y-13097722D01*
X10441015Y-13097722D02*
X10441015Y-13202484D01*
X10831491Y-12992960D02*
X10660063Y-13250103D01*
X11088634Y-13002484D02*
X11107682Y-13002484D01*
X11107682Y-13002484D02*
X11126729Y-13012008D01*
X11126729Y-13012008D02*
X11136253Y-13021531D01*
X11136253Y-13021531D02*
X11145777Y-13040579D01*
X11145777Y-13040579D02*
X11155301Y-13078674D01*
X11155301Y-13078674D02*
X11155301Y-13126293D01*
X11155301Y-13126293D02*
X11145777Y-13164388D01*
X11145777Y-13164388D02*
X11136253Y-13183436D01*
X11136253Y-13183436D02*
X11126729Y-13192960D01*
X11126729Y-13192960D02*
X11107682Y-13202484D01*
X11107682Y-13202484D02*
X11088634Y-13202484D01*
X11088634Y-13202484D02*
X11069587Y-13192960D01*
X11069587Y-13192960D02*
X11060063Y-13183436D01*
X11060063Y-13183436D02*
X11050539Y-13164388D01*
X11050539Y-13164388D02*
X11041015Y-13126293D01*
X11041015Y-13126293D02*
X11041015Y-13078674D01*
X11041015Y-13078674D02*
X11050539Y-13040579D01*
X11050539Y-13040579D02*
X11060063Y-13021531D01*
X11060063Y-13021531D02*
X11069587Y-13012008D01*
X11069587Y-13012008D02*
X11088634Y-13002484D01*
X11241015Y-13183436D02*
X11250539Y-13192960D01*
X11250539Y-13192960D02*
X11241015Y-13202484D01*
X11241015Y-13202484D02*
X11231491Y-13192960D01*
X11231491Y-13192960D02*
X11241015Y-13183436D01*
X11241015Y-13183436D02*
X11241015Y-13202484D01*
X11374348Y-13002484D02*
X11393396Y-13002484D01*
X11393396Y-13002484D02*
X11412444Y-13012008D01*
X11412444Y-13012008D02*
X11421967Y-13021531D01*
X11421967Y-13021531D02*
X11431491Y-13040579D01*
X11431491Y-13040579D02*
X11441015Y-13078674D01*
X11441015Y-13078674D02*
X11441015Y-13126293D01*
X11441015Y-13126293D02*
X11431491Y-13164388D01*
X11431491Y-13164388D02*
X11421967Y-13183436D01*
X11421967Y-13183436D02*
X11412444Y-13192960D01*
X11412444Y-13192960D02*
X11393396Y-13202484D01*
X11393396Y-13202484D02*
X11374348Y-13202484D01*
X11374348Y-13202484D02*
X11355301Y-13192960D01*
X11355301Y-13192960D02*
X11345777Y-13183436D01*
X11345777Y-13183436D02*
X11336253Y-13164388D01*
X11336253Y-13164388D02*
X11326729Y-13126293D01*
X11326729Y-13126293D02*
X11326729Y-13078674D01*
X11326729Y-13078674D02*
X11336253Y-13040579D01*
X11336253Y-13040579D02*
X11345777Y-13021531D01*
X11345777Y-13021531D02*
X11355301Y-13012008D01*
X11355301Y-13012008D02*
X11374348Y-13002484D01*
X11612444Y-13002484D02*
X11574348Y-13002484D01*
X11574348Y-13002484D02*
X11555301Y-13012008D01*
X11555301Y-13012008D02*
X11545777Y-13021531D01*
X11545777Y-13021531D02*
X11526729Y-13050103D01*
X11526729Y-13050103D02*
X11517206Y-13088198D01*
X11517206Y-13088198D02*
X11517206Y-13164388D01*
X11517206Y-13164388D02*
X11526729Y-13183436D01*
X11526729Y-13183436D02*
X11536253Y-13192960D01*
X11536253Y-13192960D02*
X11555301Y-13202484D01*
X11555301Y-13202484D02*
X11593396Y-13202484D01*
X11593396Y-13202484D02*
X11612444Y-13192960D01*
X11612444Y-13192960D02*
X11621967Y-13183436D01*
X11621967Y-13183436D02*
X11631491Y-13164388D01*
X11631491Y-13164388D02*
X11631491Y-13116769D01*
X11631491Y-13116769D02*
X11621967Y-13097722D01*
X11621967Y-13097722D02*
X11612444Y-13088198D01*
X11612444Y-13088198D02*
X11593396Y-13078674D01*
X11593396Y-13078674D02*
X11555301Y-13078674D01*
X11555301Y-13078674D02*
X11536253Y-13088198D01*
X11536253Y-13088198D02*
X11526729Y-13097722D01*
X11526729Y-13097722D02*
X11517206Y-13116769D01*
X11821967Y-13202484D02*
X11707682Y-13202484D01*
X11764825Y-13202484D02*
X11764825Y-13002484D01*
X11764825Y-13002484D02*
X11745777Y-13031055D01*
X11745777Y-13031055D02*
X11726729Y-13050103D01*
X11726729Y-13050103D02*
X11707682Y-13059627D01*
X11945777Y-13002484D02*
X11964825Y-13002484D01*
X11964825Y-13002484D02*
X11983872Y-13012008D01*
X11983872Y-13012008D02*
X11993396Y-13021531D01*
X11993396Y-13021531D02*
X12002920Y-13040579D01*
X12002920Y-13040579D02*
X12012444Y-13078674D01*
X12012444Y-13078674D02*
X12012444Y-13126293D01*
X12012444Y-13126293D02*
X12002920Y-13164388D01*
X12002920Y-13164388D02*
X11993396Y-13183436D01*
X11993396Y-13183436D02*
X11983872Y-13192960D01*
X11983872Y-13192960D02*
X11964825Y-13202484D01*
X11964825Y-13202484D02*
X11945777Y-13202484D01*
X11945777Y-13202484D02*
X11926729Y-13192960D01*
X11926729Y-13192960D02*
X11917206Y-13183436D01*
X11917206Y-13183436D02*
X11907682Y-13164388D01*
X11907682Y-13164388D02*
X11898158Y-13126293D01*
X11898158Y-13126293D02*
X11898158Y-13078674D01*
X11898158Y-13078674D02*
X11907682Y-13040579D01*
X11907682Y-13040579D02*
X11917206Y-13021531D01*
X11917206Y-13021531D02*
X11926729Y-13012008D01*
X11926729Y-13012008D02*
X11945777Y-13002484D01*
X12088634Y-13002484D02*
X12088634Y-13040579D01*
X12164825Y-13002484D02*
X12164825Y-13040579D01*
X12460063Y-13278674D02*
X12450539Y-13269150D01*
X12450539Y-13269150D02*
X12431491Y-13240579D01*
X12431491Y-13240579D02*
X12421968Y-13221531D01*
X12421968Y-13221531D02*
X12412444Y-13192960D01*
X12412444Y-13192960D02*
X12402920Y-13145341D01*
X12402920Y-13145341D02*
X12402920Y-13107246D01*
X12402920Y-13107246D02*
X12412444Y-13059627D01*
X12412444Y-13059627D02*
X12421968Y-13031055D01*
X12421968Y-13031055D02*
X12431491Y-13012008D01*
X12431491Y-13012008D02*
X12450539Y-12983436D01*
X12450539Y-12983436D02*
X12460063Y-12973912D01*
X12526729Y-13021531D02*
X12536253Y-13012008D01*
X12536253Y-13012008D02*
X12555301Y-13002484D01*
X12555301Y-13002484D02*
X12602920Y-13002484D01*
X12602920Y-13002484D02*
X12621968Y-13012008D01*
X12621968Y-13012008D02*
X12631491Y-13021531D01*
X12631491Y-13021531D02*
X12641015Y-13040579D01*
X12641015Y-13040579D02*
X12641015Y-13059627D01*
X12641015Y-13059627D02*
X12631491Y-13088198D01*
X12631491Y-13088198D02*
X12517206Y-13202484D01*
X12517206Y-13202484D02*
X12641015Y-13202484D01*
X12879110Y-13202484D02*
X12879110Y-13002484D01*
X12964825Y-13202484D02*
X12964825Y-13097722D01*
X12964825Y-13097722D02*
X12955301Y-13078674D01*
X12955301Y-13078674D02*
X12936253Y-13069150D01*
X12936253Y-13069150D02*
X12907682Y-13069150D01*
X12907682Y-13069150D02*
X12888634Y-13078674D01*
X12888634Y-13078674D02*
X12879110Y-13088198D01*
X13088634Y-13202484D02*
X13069587Y-13192960D01*
X13069587Y-13192960D02*
X13060063Y-13183436D01*
X13060063Y-13183436D02*
X13050539Y-13164388D01*
X13050539Y-13164388D02*
X13050539Y-13107246D01*
X13050539Y-13107246D02*
X13060063Y-13088198D01*
X13060063Y-13088198D02*
X13069587Y-13078674D01*
X13069587Y-13078674D02*
X13088634Y-13069150D01*
X13088634Y-13069150D02*
X13117206Y-13069150D01*
X13117206Y-13069150D02*
X13136253Y-13078674D01*
X13136253Y-13078674D02*
X13145777Y-13088198D01*
X13145777Y-13088198D02*
X13155301Y-13107246D01*
X13155301Y-13107246D02*
X13155301Y-13164388D01*
X13155301Y-13164388D02*
X13145777Y-13183436D01*
X13145777Y-13183436D02*
X13136253Y-13192960D01*
X13136253Y-13192960D02*
X13117206Y-13202484D01*
X13117206Y-13202484D02*
X13088634Y-13202484D01*
X13269587Y-13202484D02*
X13250539Y-13192960D01*
X13250539Y-13192960D02*
X13241015Y-13173912D01*
X13241015Y-13173912D02*
X13241015Y-13002484D01*
X13421968Y-13192960D02*
X13402920Y-13202484D01*
X13402920Y-13202484D02*
X13364825Y-13202484D01*
X13364825Y-13202484D02*
X13345777Y-13192960D01*
X13345777Y-13192960D02*
X13336253Y-13173912D01*
X13336253Y-13173912D02*
X13336253Y-13097722D01*
X13336253Y-13097722D02*
X13345777Y-13078674D01*
X13345777Y-13078674D02*
X13364825Y-13069150D01*
X13364825Y-13069150D02*
X13402920Y-13069150D01*
X13402920Y-13069150D02*
X13421968Y-13078674D01*
X13421968Y-13078674D02*
X13431491Y-13097722D01*
X13431491Y-13097722D02*
X13431491Y-13116769D01*
X13431491Y-13116769D02*
X13336253Y-13135817D01*
X13507682Y-13192960D02*
X13526730Y-13202484D01*
X13526730Y-13202484D02*
X13564825Y-13202484D01*
X13564825Y-13202484D02*
X13583872Y-13192960D01*
X13583872Y-13192960D02*
X13593396Y-13173912D01*
X13593396Y-13173912D02*
X13593396Y-13164388D01*
X13593396Y-13164388D02*
X13583872Y-13145341D01*
X13583872Y-13145341D02*
X13564825Y-13135817D01*
X13564825Y-13135817D02*
X13536253Y-13135817D01*
X13536253Y-13135817D02*
X13517206Y-13126293D01*
X13517206Y-13126293D02*
X13507682Y-13107246D01*
X13507682Y-13107246D02*
X13507682Y-13097722D01*
X13507682Y-13097722D02*
X13517206Y-13078674D01*
X13517206Y-13078674D02*
X13536253Y-13069150D01*
X13536253Y-13069150D02*
X13564825Y-13069150D01*
X13564825Y-13069150D02*
X13583872Y-13078674D01*
X13660063Y-13278674D02*
X13669587Y-13269150D01*
X13669587Y-13269150D02*
X13688634Y-13240579D01*
X13688634Y-13240579D02*
X13698158Y-13221531D01*
X13698158Y-13221531D02*
X13707682Y-13192960D01*
X13707682Y-13192960D02*
X13717206Y-13145341D01*
X13717206Y-13145341D02*
X13717206Y-13107246D01*
X13717206Y-13107246D02*
X13707682Y-13059627D01*
X13707682Y-13059627D02*
X13698158Y-13031055D01*
X13698158Y-13031055D02*
X13688634Y-13012008D01*
X13688634Y-13012008D02*
X13669587Y-12983436D01*
X13669587Y-12983436D02*
X13660063Y-12973912D01*
D14*
X8861569Y-13442569D02*
X8861569Y-13329431D01*
X8748431Y-13329431D01*
X8748431Y-13442569D01*
X8861569Y-13442569D01*
D11*
X9250539Y-13477484D02*
X9136253Y-13477484D01*
X9193396Y-13477484D02*
X9193396Y-13277484D01*
X9193396Y-13277484D02*
X9174348Y-13306055D01*
X9174348Y-13306055D02*
X9155301Y-13325103D01*
X9155301Y-13325103D02*
X9136253Y-13334627D01*
X9336253Y-13458436D02*
X9345777Y-13467960D01*
X9345777Y-13467960D02*
X9336253Y-13477484D01*
X9336253Y-13477484D02*
X9326729Y-13467960D01*
X9326729Y-13467960D02*
X9336253Y-13458436D01*
X9336253Y-13458436D02*
X9336253Y-13477484D01*
X9517205Y-13277484D02*
X9479110Y-13277484D01*
X9479110Y-13277484D02*
X9460063Y-13287008D01*
X9460063Y-13287008D02*
X9450539Y-13296531D01*
X9450539Y-13296531D02*
X9431491Y-13325103D01*
X9431491Y-13325103D02*
X9421967Y-13363198D01*
X9421967Y-13363198D02*
X9421967Y-13439388D01*
X9421967Y-13439388D02*
X9431491Y-13458436D01*
X9431491Y-13458436D02*
X9441015Y-13467960D01*
X9441015Y-13467960D02*
X9460063Y-13477484D01*
X9460063Y-13477484D02*
X9498158Y-13477484D01*
X9498158Y-13477484D02*
X9517205Y-13467960D01*
X9517205Y-13467960D02*
X9526729Y-13458436D01*
X9526729Y-13458436D02*
X9536253Y-13439388D01*
X9536253Y-13439388D02*
X9536253Y-13391769D01*
X9536253Y-13391769D02*
X9526729Y-13372722D01*
X9526729Y-13372722D02*
X9517205Y-13363198D01*
X9517205Y-13363198D02*
X9498158Y-13353674D01*
X9498158Y-13353674D02*
X9460063Y-13353674D01*
X9460063Y-13353674D02*
X9441015Y-13363198D01*
X9441015Y-13363198D02*
X9431491Y-13372722D01*
X9431491Y-13372722D02*
X9421967Y-13391769D01*
X9660063Y-13277484D02*
X9679110Y-13277484D01*
X9679110Y-13277484D02*
X9698158Y-13287008D01*
X9698158Y-13287008D02*
X9707682Y-13296531D01*
X9707682Y-13296531D02*
X9717205Y-13315579D01*
X9717205Y-13315579D02*
X9726729Y-13353674D01*
X9726729Y-13353674D02*
X9726729Y-13401293D01*
X9726729Y-13401293D02*
X9717205Y-13439388D01*
X9717205Y-13439388D02*
X9707682Y-13458436D01*
X9707682Y-13458436D02*
X9698158Y-13467960D01*
X9698158Y-13467960D02*
X9679110Y-13477484D01*
X9679110Y-13477484D02*
X9660063Y-13477484D01*
X9660063Y-13477484D02*
X9641015Y-13467960D01*
X9641015Y-13467960D02*
X9631491Y-13458436D01*
X9631491Y-13458436D02*
X9621967Y-13439388D01*
X9621967Y-13439388D02*
X9612444Y-13401293D01*
X9612444Y-13401293D02*
X9612444Y-13353674D01*
X9612444Y-13353674D02*
X9621967Y-13315579D01*
X9621967Y-13315579D02*
X9631491Y-13296531D01*
X9631491Y-13296531D02*
X9641015Y-13287008D01*
X9641015Y-13287008D02*
X9660063Y-13277484D01*
X9850539Y-13277484D02*
X9869586Y-13277484D01*
X9869586Y-13277484D02*
X9888634Y-13287008D01*
X9888634Y-13287008D02*
X9898158Y-13296531D01*
X9898158Y-13296531D02*
X9907682Y-13315579D01*
X9907682Y-13315579D02*
X9917205Y-13353674D01*
X9917205Y-13353674D02*
X9917205Y-13401293D01*
X9917205Y-13401293D02*
X9907682Y-13439388D01*
X9907682Y-13439388D02*
X9898158Y-13458436D01*
X9898158Y-13458436D02*
X9888634Y-13467960D01*
X9888634Y-13467960D02*
X9869586Y-13477484D01*
X9869586Y-13477484D02*
X9850539Y-13477484D01*
X9850539Y-13477484D02*
X9831491Y-13467960D01*
X9831491Y-13467960D02*
X9821967Y-13458436D01*
X9821967Y-13458436D02*
X9812444Y-13439388D01*
X9812444Y-13439388D02*
X9802920Y-13401293D01*
X9802920Y-13401293D02*
X9802920Y-13353674D01*
X9802920Y-13353674D02*
X9812444Y-13315579D01*
X9812444Y-13315579D02*
X9821967Y-13296531D01*
X9821967Y-13296531D02*
X9831491Y-13287008D01*
X9831491Y-13287008D02*
X9850539Y-13277484D01*
X10002920Y-13477484D02*
X10002920Y-13344150D01*
X10002920Y-13363198D02*
X10012444Y-13353674D01*
X10012444Y-13353674D02*
X10031491Y-13344150D01*
X10031491Y-13344150D02*
X10060063Y-13344150D01*
X10060063Y-13344150D02*
X10079110Y-13353674D01*
X10079110Y-13353674D02*
X10088634Y-13372722D01*
X10088634Y-13372722D02*
X10088634Y-13477484D01*
X10088634Y-13372722D02*
X10098158Y-13353674D01*
X10098158Y-13353674D02*
X10117205Y-13344150D01*
X10117205Y-13344150D02*
X10145777Y-13344150D01*
X10145777Y-13344150D02*
X10164825Y-13353674D01*
X10164825Y-13353674D02*
X10174348Y-13372722D01*
X10174348Y-13372722D02*
X10174348Y-13477484D01*
X10269586Y-13477484D02*
X10269586Y-13344150D01*
X10269586Y-13363198D02*
X10279110Y-13353674D01*
X10279110Y-13353674D02*
X10298158Y-13344150D01*
X10298158Y-13344150D02*
X10326729Y-13344150D01*
X10326729Y-13344150D02*
X10345777Y-13353674D01*
X10345777Y-13353674D02*
X10355301Y-13372722D01*
X10355301Y-13372722D02*
X10355301Y-13477484D01*
X10355301Y-13372722D02*
X10364825Y-13353674D01*
X10364825Y-13353674D02*
X10383872Y-13344150D01*
X10383872Y-13344150D02*
X10412444Y-13344150D01*
X10412444Y-13344150D02*
X10431491Y-13353674D01*
X10431491Y-13353674D02*
X10441015Y-13372722D01*
X10441015Y-13372722D02*
X10441015Y-13477484D01*
X10831491Y-13267960D02*
X10660063Y-13525103D01*
X11088634Y-13277484D02*
X11107682Y-13277484D01*
X11107682Y-13277484D02*
X11126729Y-13287008D01*
X11126729Y-13287008D02*
X11136253Y-13296531D01*
X11136253Y-13296531D02*
X11145777Y-13315579D01*
X11145777Y-13315579D02*
X11155301Y-13353674D01*
X11155301Y-13353674D02*
X11155301Y-13401293D01*
X11155301Y-13401293D02*
X11145777Y-13439388D01*
X11145777Y-13439388D02*
X11136253Y-13458436D01*
X11136253Y-13458436D02*
X11126729Y-13467960D01*
X11126729Y-13467960D02*
X11107682Y-13477484D01*
X11107682Y-13477484D02*
X11088634Y-13477484D01*
X11088634Y-13477484D02*
X11069587Y-13467960D01*
X11069587Y-13467960D02*
X11060063Y-13458436D01*
X11060063Y-13458436D02*
X11050539Y-13439388D01*
X11050539Y-13439388D02*
X11041015Y-13401293D01*
X11041015Y-13401293D02*
X11041015Y-13353674D01*
X11041015Y-13353674D02*
X11050539Y-13315579D01*
X11050539Y-13315579D02*
X11060063Y-13296531D01*
X11060063Y-13296531D02*
X11069587Y-13287008D01*
X11069587Y-13287008D02*
X11088634Y-13277484D01*
X11241015Y-13458436D02*
X11250539Y-13467960D01*
X11250539Y-13467960D02*
X11241015Y-13477484D01*
X11241015Y-13477484D02*
X11231491Y-13467960D01*
X11231491Y-13467960D02*
X11241015Y-13458436D01*
X11241015Y-13458436D02*
X11241015Y-13477484D01*
X11374348Y-13277484D02*
X11393396Y-13277484D01*
X11393396Y-13277484D02*
X11412444Y-13287008D01*
X11412444Y-13287008D02*
X11421967Y-13296531D01*
X11421967Y-13296531D02*
X11431491Y-13315579D01*
X11431491Y-13315579D02*
X11441015Y-13353674D01*
X11441015Y-13353674D02*
X11441015Y-13401293D01*
X11441015Y-13401293D02*
X11431491Y-13439388D01*
X11431491Y-13439388D02*
X11421967Y-13458436D01*
X11421967Y-13458436D02*
X11412444Y-13467960D01*
X11412444Y-13467960D02*
X11393396Y-13477484D01*
X11393396Y-13477484D02*
X11374348Y-13477484D01*
X11374348Y-13477484D02*
X11355301Y-13467960D01*
X11355301Y-13467960D02*
X11345777Y-13458436D01*
X11345777Y-13458436D02*
X11336253Y-13439388D01*
X11336253Y-13439388D02*
X11326729Y-13401293D01*
X11326729Y-13401293D02*
X11326729Y-13353674D01*
X11326729Y-13353674D02*
X11336253Y-13315579D01*
X11336253Y-13315579D02*
X11345777Y-13296531D01*
X11345777Y-13296531D02*
X11355301Y-13287008D01*
X11355301Y-13287008D02*
X11374348Y-13277484D01*
X11612444Y-13277484D02*
X11574348Y-13277484D01*
X11574348Y-13277484D02*
X11555301Y-13287008D01*
X11555301Y-13287008D02*
X11545777Y-13296531D01*
X11545777Y-13296531D02*
X11526729Y-13325103D01*
X11526729Y-13325103D02*
X11517206Y-13363198D01*
X11517206Y-13363198D02*
X11517206Y-13439388D01*
X11517206Y-13439388D02*
X11526729Y-13458436D01*
X11526729Y-13458436D02*
X11536253Y-13467960D01*
X11536253Y-13467960D02*
X11555301Y-13477484D01*
X11555301Y-13477484D02*
X11593396Y-13477484D01*
X11593396Y-13477484D02*
X11612444Y-13467960D01*
X11612444Y-13467960D02*
X11621967Y-13458436D01*
X11621967Y-13458436D02*
X11631491Y-13439388D01*
X11631491Y-13439388D02*
X11631491Y-13391769D01*
X11631491Y-13391769D02*
X11621967Y-13372722D01*
X11621967Y-13372722D02*
X11612444Y-13363198D01*
X11612444Y-13363198D02*
X11593396Y-13353674D01*
X11593396Y-13353674D02*
X11555301Y-13353674D01*
X11555301Y-13353674D02*
X11536253Y-13363198D01*
X11536253Y-13363198D02*
X11526729Y-13372722D01*
X11526729Y-13372722D02*
X11517206Y-13391769D01*
X11698158Y-13277484D02*
X11821967Y-13277484D01*
X11821967Y-13277484D02*
X11755301Y-13353674D01*
X11755301Y-13353674D02*
X11783872Y-13353674D01*
X11783872Y-13353674D02*
X11802920Y-13363198D01*
X11802920Y-13363198D02*
X11812444Y-13372722D01*
X11812444Y-13372722D02*
X11821967Y-13391769D01*
X11821967Y-13391769D02*
X11821967Y-13439388D01*
X11821967Y-13439388D02*
X11812444Y-13458436D01*
X11812444Y-13458436D02*
X11802920Y-13467960D01*
X11802920Y-13467960D02*
X11783872Y-13477484D01*
X11783872Y-13477484D02*
X11726729Y-13477484D01*
X11726729Y-13477484D02*
X11707682Y-13467960D01*
X11707682Y-13467960D02*
X11698158Y-13458436D01*
X11945777Y-13277484D02*
X11964825Y-13277484D01*
X11964825Y-13277484D02*
X11983872Y-13287008D01*
X11983872Y-13287008D02*
X11993396Y-13296531D01*
X11993396Y-13296531D02*
X12002920Y-13315579D01*
X12002920Y-13315579D02*
X12012444Y-13353674D01*
X12012444Y-13353674D02*
X12012444Y-13401293D01*
X12012444Y-13401293D02*
X12002920Y-13439388D01*
X12002920Y-13439388D02*
X11993396Y-13458436D01*
X11993396Y-13458436D02*
X11983872Y-13467960D01*
X11983872Y-13467960D02*
X11964825Y-13477484D01*
X11964825Y-13477484D02*
X11945777Y-13477484D01*
X11945777Y-13477484D02*
X11926729Y-13467960D01*
X11926729Y-13467960D02*
X11917206Y-13458436D01*
X11917206Y-13458436D02*
X11907682Y-13439388D01*
X11907682Y-13439388D02*
X11898158Y-13401293D01*
X11898158Y-13401293D02*
X11898158Y-13353674D01*
X11898158Y-13353674D02*
X11907682Y-13315579D01*
X11907682Y-13315579D02*
X11917206Y-13296531D01*
X11917206Y-13296531D02*
X11926729Y-13287008D01*
X11926729Y-13287008D02*
X11945777Y-13277484D01*
X12088634Y-13277484D02*
X12088634Y-13315579D01*
X12164825Y-13277484D02*
X12164825Y-13315579D01*
X12460063Y-13553674D02*
X12450539Y-13544150D01*
X12450539Y-13544150D02*
X12431491Y-13515579D01*
X12431491Y-13515579D02*
X12421968Y-13496531D01*
X12421968Y-13496531D02*
X12412444Y-13467960D01*
X12412444Y-13467960D02*
X12402920Y-13420341D01*
X12402920Y-13420341D02*
X12402920Y-13382246D01*
X12402920Y-13382246D02*
X12412444Y-13334627D01*
X12412444Y-13334627D02*
X12421968Y-13306055D01*
X12421968Y-13306055D02*
X12431491Y-13287008D01*
X12431491Y-13287008D02*
X12450539Y-13258436D01*
X12450539Y-13258436D02*
X12460063Y-13248912D01*
X12564825Y-13363198D02*
X12545777Y-13353674D01*
X12545777Y-13353674D02*
X12536253Y-13344150D01*
X12536253Y-13344150D02*
X12526729Y-13325103D01*
X12526729Y-13325103D02*
X12526729Y-13315579D01*
X12526729Y-13315579D02*
X12536253Y-13296531D01*
X12536253Y-13296531D02*
X12545777Y-13287008D01*
X12545777Y-13287008D02*
X12564825Y-13277484D01*
X12564825Y-13277484D02*
X12602920Y-13277484D01*
X12602920Y-13277484D02*
X12621968Y-13287008D01*
X12621968Y-13287008D02*
X12631491Y-13296531D01*
X12631491Y-13296531D02*
X12641015Y-13315579D01*
X12641015Y-13315579D02*
X12641015Y-13325103D01*
X12641015Y-13325103D02*
X12631491Y-13344150D01*
X12631491Y-13344150D02*
X12621968Y-13353674D01*
X12621968Y-13353674D02*
X12602920Y-13363198D01*
X12602920Y-13363198D02*
X12564825Y-13363198D01*
X12564825Y-13363198D02*
X12545777Y-13372722D01*
X12545777Y-13372722D02*
X12536253Y-13382246D01*
X12536253Y-13382246D02*
X12526729Y-13401293D01*
X12526729Y-13401293D02*
X12526729Y-13439388D01*
X12526729Y-13439388D02*
X12536253Y-13458436D01*
X12536253Y-13458436D02*
X12545777Y-13467960D01*
X12545777Y-13467960D02*
X12564825Y-13477484D01*
X12564825Y-13477484D02*
X12602920Y-13477484D01*
X12602920Y-13477484D02*
X12621968Y-13467960D01*
X12621968Y-13467960D02*
X12631491Y-13458436D01*
X12631491Y-13458436D02*
X12641015Y-13439388D01*
X12641015Y-13439388D02*
X12641015Y-13401293D01*
X12641015Y-13401293D02*
X12631491Y-13382246D01*
X12631491Y-13382246D02*
X12621968Y-13372722D01*
X12621968Y-13372722D02*
X12602920Y-13363198D01*
X12879110Y-13477484D02*
X12879110Y-13277484D01*
X12964825Y-13477484D02*
X12964825Y-13372722D01*
X12964825Y-13372722D02*
X12955301Y-13353674D01*
X12955301Y-13353674D02*
X12936253Y-13344150D01*
X12936253Y-13344150D02*
X12907682Y-13344150D01*
X12907682Y-13344150D02*
X12888634Y-13353674D01*
X12888634Y-13353674D02*
X12879110Y-13363198D01*
X13088634Y-13477484D02*
X13069587Y-13467960D01*
X13069587Y-13467960D02*
X13060063Y-13458436D01*
X13060063Y-13458436D02*
X13050539Y-13439388D01*
X13050539Y-13439388D02*
X13050539Y-13382246D01*
X13050539Y-13382246D02*
X13060063Y-13363198D01*
X13060063Y-13363198D02*
X13069587Y-13353674D01*
X13069587Y-13353674D02*
X13088634Y-13344150D01*
X13088634Y-13344150D02*
X13117206Y-13344150D01*
X13117206Y-13344150D02*
X13136253Y-13353674D01*
X13136253Y-13353674D02*
X13145777Y-13363198D01*
X13145777Y-13363198D02*
X13155301Y-13382246D01*
X13155301Y-13382246D02*
X13155301Y-13439388D01*
X13155301Y-13439388D02*
X13145777Y-13458436D01*
X13145777Y-13458436D02*
X13136253Y-13467960D01*
X13136253Y-13467960D02*
X13117206Y-13477484D01*
X13117206Y-13477484D02*
X13088634Y-13477484D01*
X13269587Y-13477484D02*
X13250539Y-13467960D01*
X13250539Y-13467960D02*
X13241015Y-13448912D01*
X13241015Y-13448912D02*
X13241015Y-13277484D01*
X13421968Y-13467960D02*
X13402920Y-13477484D01*
X13402920Y-13477484D02*
X13364825Y-13477484D01*
X13364825Y-13477484D02*
X13345777Y-13467960D01*
X13345777Y-13467960D02*
X13336253Y-13448912D01*
X13336253Y-13448912D02*
X13336253Y-13372722D01*
X13336253Y-13372722D02*
X13345777Y-13353674D01*
X13345777Y-13353674D02*
X13364825Y-13344150D01*
X13364825Y-13344150D02*
X13402920Y-13344150D01*
X13402920Y-13344150D02*
X13421968Y-13353674D01*
X13421968Y-13353674D02*
X13431491Y-13372722D01*
X13431491Y-13372722D02*
X13431491Y-13391769D01*
X13431491Y-13391769D02*
X13336253Y-13410817D01*
X13507682Y-13467960D02*
X13526730Y-13477484D01*
X13526730Y-13477484D02*
X13564825Y-13477484D01*
X13564825Y-13477484D02*
X13583872Y-13467960D01*
X13583872Y-13467960D02*
X13593396Y-13448912D01*
X13593396Y-13448912D02*
X13593396Y-13439388D01*
X13593396Y-13439388D02*
X13583872Y-13420341D01*
X13583872Y-13420341D02*
X13564825Y-13410817D01*
X13564825Y-13410817D02*
X13536253Y-13410817D01*
X13536253Y-13410817D02*
X13517206Y-13401293D01*
X13517206Y-13401293D02*
X13507682Y-13382246D01*
X13507682Y-13382246D02*
X13507682Y-13372722D01*
X13507682Y-13372722D02*
X13517206Y-13353674D01*
X13517206Y-13353674D02*
X13536253Y-13344150D01*
X13536253Y-13344150D02*
X13564825Y-13344150D01*
X13564825Y-13344150D02*
X13583872Y-13353674D01*
X13660063Y-13553674D02*
X13669587Y-13544150D01*
X13669587Y-13544150D02*
X13688634Y-13515579D01*
X13688634Y-13515579D02*
X13698158Y-13496531D01*
X13698158Y-13496531D02*
X13707682Y-13467960D01*
X13707682Y-13467960D02*
X13717206Y-13420341D01*
X13717206Y-13420341D02*
X13717206Y-13382246D01*
X13717206Y-13382246D02*
X13707682Y-13334627D01*
X13707682Y-13334627D02*
X13698158Y-13306055D01*
X13698158Y-13306055D02*
X13688634Y-13287008D01*
X13688634Y-13287008D02*
X13669587Y-13258436D01*
X13669587Y-13258436D02*
X13660063Y-13248912D01*
M02*
