%TF.GenerationSoftware,KiCad,Pcbnew,7.0.6*%
%TF.CreationDate,2023-11-23T12:56:35+01:00*%
%TF.ProjectId,xlrfemale,786c7266-656d-4616-9c65-2e6b69636164,1*%
%TF.SameCoordinates,Original*%
%TF.FileFunction,Drillmap*%
%TF.FilePolarity,Positive*%
%FSLAX45Y45*%
G04 Gerber Fmt 4.5, Leading zero omitted, Abs format (unit mm)*
G04 Created by KiCad (PCBNEW 7.0.6) date 2023-11-23 12:56:35*
%MOMM*%
%LPD*%
G01*
G04 APERTURE LIST*
%ADD10C,0.100000*%
%ADD11C,0.200000*%
G04 APERTURE END LIST*
D10*
X8890000Y-7620000D02*
X20066000Y-7620000D01*
X20066000Y-11938000D01*
X8890000Y-11938000D01*
X8890000Y-7620000D01*
D11*
X9145777Y-12254484D02*
X9145777Y-12054484D01*
X9145777Y-12054484D02*
X9193396Y-12054484D01*
X9193396Y-12054484D02*
X9221967Y-12064008D01*
X9221967Y-12064008D02*
X9241015Y-12083055D01*
X9241015Y-12083055D02*
X9250539Y-12102103D01*
X9250539Y-12102103D02*
X9260063Y-12140198D01*
X9260063Y-12140198D02*
X9260063Y-12168769D01*
X9260063Y-12168769D02*
X9250539Y-12206865D01*
X9250539Y-12206865D02*
X9241015Y-12225912D01*
X9241015Y-12225912D02*
X9221967Y-12244960D01*
X9221967Y-12244960D02*
X9193396Y-12254484D01*
X9193396Y-12254484D02*
X9145777Y-12254484D01*
X9345777Y-12254484D02*
X9345777Y-12121150D01*
X9345777Y-12159246D02*
X9355301Y-12140198D01*
X9355301Y-12140198D02*
X9364824Y-12130674D01*
X9364824Y-12130674D02*
X9383872Y-12121150D01*
X9383872Y-12121150D02*
X9402920Y-12121150D01*
X9469586Y-12254484D02*
X9469586Y-12121150D01*
X9469586Y-12054484D02*
X9460063Y-12064008D01*
X9460063Y-12064008D02*
X9469586Y-12073531D01*
X9469586Y-12073531D02*
X9479110Y-12064008D01*
X9479110Y-12064008D02*
X9469586Y-12054484D01*
X9469586Y-12054484D02*
X9469586Y-12073531D01*
X9593396Y-12254484D02*
X9574348Y-12244960D01*
X9574348Y-12244960D02*
X9564824Y-12225912D01*
X9564824Y-12225912D02*
X9564824Y-12054484D01*
X9698158Y-12254484D02*
X9679110Y-12244960D01*
X9679110Y-12244960D02*
X9669586Y-12225912D01*
X9669586Y-12225912D02*
X9669586Y-12054484D01*
X9926729Y-12254484D02*
X9926729Y-12054484D01*
X9926729Y-12054484D02*
X9993396Y-12197341D01*
X9993396Y-12197341D02*
X10060063Y-12054484D01*
X10060063Y-12054484D02*
X10060063Y-12254484D01*
X10241015Y-12254484D02*
X10241015Y-12149722D01*
X10241015Y-12149722D02*
X10231491Y-12130674D01*
X10231491Y-12130674D02*
X10212444Y-12121150D01*
X10212444Y-12121150D02*
X10174348Y-12121150D01*
X10174348Y-12121150D02*
X10155301Y-12130674D01*
X10241015Y-12244960D02*
X10221967Y-12254484D01*
X10221967Y-12254484D02*
X10174348Y-12254484D01*
X10174348Y-12254484D02*
X10155301Y-12244960D01*
X10155301Y-12244960D02*
X10145777Y-12225912D01*
X10145777Y-12225912D02*
X10145777Y-12206865D01*
X10145777Y-12206865D02*
X10155301Y-12187817D01*
X10155301Y-12187817D02*
X10174348Y-12178293D01*
X10174348Y-12178293D02*
X10221967Y-12178293D01*
X10221967Y-12178293D02*
X10241015Y-12168769D01*
X10336253Y-12121150D02*
X10336253Y-12321150D01*
X10336253Y-12130674D02*
X10355301Y-12121150D01*
X10355301Y-12121150D02*
X10393396Y-12121150D01*
X10393396Y-12121150D02*
X10412444Y-12130674D01*
X10412444Y-12130674D02*
X10421967Y-12140198D01*
X10421967Y-12140198D02*
X10431491Y-12159246D01*
X10431491Y-12159246D02*
X10431491Y-12216388D01*
X10431491Y-12216388D02*
X10421967Y-12235436D01*
X10421967Y-12235436D02*
X10412444Y-12244960D01*
X10412444Y-12244960D02*
X10393396Y-12254484D01*
X10393396Y-12254484D02*
X10355301Y-12254484D01*
X10355301Y-12254484D02*
X10336253Y-12244960D01*
X10517205Y-12235436D02*
X10526729Y-12244960D01*
X10526729Y-12244960D02*
X10517205Y-12254484D01*
X10517205Y-12254484D02*
X10507682Y-12244960D01*
X10507682Y-12244960D02*
X10517205Y-12235436D01*
X10517205Y-12235436D02*
X10517205Y-12254484D01*
X10517205Y-12130674D02*
X10526729Y-12140198D01*
X10526729Y-12140198D02*
X10517205Y-12149722D01*
X10517205Y-12149722D02*
X10507682Y-12140198D01*
X10507682Y-12140198D02*
X10517205Y-12130674D01*
X10517205Y-12130674D02*
X10517205Y-12149722D01*
M02*
