%TF.GenerationSoftware,KiCad,Pcbnew,7.0.6*%
%TF.CreationDate,2023-11-23T12:56:36+01:00*%
%TF.ProjectId,xlrfemale,786c7266-656d-4616-9c65-2e6b69636164,1*%
%TF.SameCoordinates,Original*%
%TF.FileFunction,Legend,Bot*%
%TF.FilePolarity,Positive*%
%FSLAX46Y46*%
G04 Gerber Fmt 4.6, Leading zero omitted, Abs format (unit mm)*
G04 Created by KiCad (PCBNEW 7.0.6) date 2023-11-23 12:56:36*
%MOMM*%
%LPD*%
G01*
G04 APERTURE LIST*
%ADD10C,0.150000*%
%ADD11C,0.120000*%
G04 APERTURE END LIST*
D10*
X129048819Y-113510476D02*
X129763104Y-113510476D01*
X129763104Y-113510476D02*
X129905961Y-113462857D01*
X129905961Y-113462857D02*
X130001200Y-113367619D01*
X130001200Y-113367619D02*
X130048819Y-113224762D01*
X130048819Y-113224762D02*
X130048819Y-113129524D01*
X130048819Y-114510476D02*
X130048819Y-113939048D01*
X130048819Y-114224762D02*
X129048819Y-114224762D01*
X129048819Y-114224762D02*
X129191676Y-114129524D01*
X129191676Y-114129524D02*
X129286914Y-114034286D01*
X129286914Y-114034286D02*
X129334533Y-113939048D01*
X129048819Y-114843810D02*
X129048819Y-115510476D01*
X129048819Y-115510476D02*
X130048819Y-115081905D01*
D11*
%TO.C,J17*%
X143854000Y-111720000D02*
X143854000Y-116920000D01*
X131034000Y-111720000D02*
X143854000Y-111720000D01*
X131034000Y-111720000D02*
X131034000Y-114320000D01*
X133634000Y-114320000D02*
X133634000Y-116920000D01*
X131034000Y-114320000D02*
X133634000Y-114320000D01*
X131034000Y-115590000D02*
X131034000Y-116920000D01*
X133634000Y-116920000D02*
X143854000Y-116920000D01*
X131034000Y-116920000D02*
X132364000Y-116920000D01*
%TD*%
M02*
